<?xml version="1.0" encoding="UTF-8" standalone="no"?>
<svg xmlns:dc="http://purl.org/dc/elements/1.1/" xmlns:cc="http://creativecommons.org/ns#" xmlns:rdf="http://www.w3.org/1999/02/22-rdf-syntax-ns#" xmlns:svg="http://www.w3.org/2000/svg" xmlns="http://www.w3.org/2000/svg" viewBox="0 0 322.34151 226.41079" height="226.4108" width="322.34149" version="1.1" id="svg">
   <metadata id="metadata13">
      <rdf:RDF>
         <cc:Work rdf:about="">
            <dc:format>image/svg+xml</dc:format>
            <dc:type rdf:resource="http://purl.org/dc/dcmitype/StillImage" />
            <dc:title></dc:title>
         </cc:Work>
      </rdf:RDF>
   </metadata>
   <defs id="defs11" />
   <g transform="translate(-41.404849,-116.46267)" id="svgg-103">
      <path style="fill:#757575;fill-opacity:1;fill-rule:evenodd;stroke:none" id="path0-04" d="m 114.722,128.072 c -9.763,0.729 -16.748,2.924 -24.259,7.626 -18.152,11.364 -32.465,37.152 -33.992,61.246 -1.921,30.313 16.989,64.355 51.28,92.315 l 0.795,0.648 -1.634,0.719 c -1.748,0.769 -7.367,3.882 -12.162,6.736 -2.657,1.583 -2.926,1.79 -2.849,2.193 l 0.085,0.445 -2.428,-0.008 c -3.108,-0.009 -3.405,-0.199 -4.075,-2.602 -1.12,-4.014 -1.999,-5.314 -2.409,-3.563 -0.212,0.905 -0.352,7.285 -0.21,9.557 l 0.135,2.172 1.88,0.002 1.88,0.002 0.804,1.387 c 0.51,0.882 0.882,1.34 1.018,1.258 0.119,-0.072 0.799,-0.519 1.512,-0.995 2.294,-1.531 3.611,-2.101 3.611,-1.562 0,0.245 1.927,0.278 16.234,0.278 17.388,0 16.19,-0.053 21.409,0.942 1.655,0.316 2.018,0.469 4.259,1.8 11.548,6.86 22.17,12.07 32.686,16.033 47.633,17.949 90.148,17.554 126.986,-1.18 31.864,-16.205 54.688,-41.21 61.292,-67.148 5.625,-22.098 0.074,-49.378 -13.508,-66.373 -4.081,-5.107 -10.437,-10.782 -14.597,-13.033 -0.429,-0.232 -1.752,-0.981 -2.939,-1.665 -9.802,-5.645 -21.739,-8.65 -35.526,-8.942 -8.031,-0.17 -12.861,0.524 -21.481,3.088 -6.668,1.983 -11.473,3.276 -13.38,3.599 l -0.695,0.118 v -16.646 c 0,-15.999 -0.014,-16.701 -0.367,-18.083 -1.068,-4.174 -4.409,-7.53 -8.707,-8.744 -1.865,-0.527 -95.336,-0.531 -97.222,-0.004 -1.965,0.549 -3.777,1.547 -5.194,2.859 l -1.3,1.203 -0.966,-0.505 c -2.867,-1.496 -6.886,-3.089 -8.651,-3.428 -0.458,-0.088 -1.833,-0.375 -3.056,-0.638 -3.876,-0.835 -10.751,-1.368 -14.259,-1.107 m 10,0.911 c 1.222,0.161 3.306,0.53 4.63,0.821 2.33,0.512 2.975,0.709 5.741,1.762 1.429,0.544 4.942,2.185 5.608,2.619 l 0.424,0.277 -0.365,0.686 c -1.729,3.254 -1.686,2.585 -1.686,25.905 0,16.348 -0.048,20.621 -0.231,20.651 -0.128,0.02 -1.441,0.041 -2.918,0.046 -4.655,0.016 -7.476,2.228 -8.627,6.766 -0.731,2.883 -0.089,4.405 3.147,7.458 4.259,4.018 5.142,5.887 6.115,12.934 0.315,2.275 0.972,4.072 1.878,5.13 l 0.636,0.743 v 23.355 23.354 l -0.474,-0.31 c -0.26,-0.171 -0.644,-0.646 -0.853,-1.056 -2.077,-4.07 -7.291,-4.856 -10.664,-1.608 -1.463,1.408 -1.467,1.426 -0.643,3.088 l 0.719,1.452 -0.139,1.759 c -0.319,4.02 0.47,5.871 2.656,6.229 0.647,0.107 0.696,0.161 0.722,0.785 0.043,1.02 0,3.209 -0.064,3.245 -2.368,1.356 -3.685,3.479 -3.804,6.13 -0.084,1.868 -0.326,1.621 3.424,3.497 l 3.194,1.597 v -4.714 -4.714 l 0.88,-0.593 c 0.484,-0.326 1.28,-0.893 1.77,-1.259 l 0.891,-0.666 -0.128,-2.264 -0.129,-2.263 0.502,-0.191 c 0.276,-0.105 0.868,-0.443 1.316,-0.752 l 0.815,-0.561 0.051,3.278 c 0.037,2.421 0.111,3.298 0.282,3.355 0.18,0.06 0.232,-0.756 0.232,-3.676 0,-3.438 0.032,-3.821 0.389,-4.559 0.534,-1.102 0.538,-2.67 0.01,-3.702 l -0.399,-0.78 v -23.442 -23.442 l 0.787,0.539 c 0.433,0.296 1.141,0.719 1.574,0.938 l 0.787,0.4 0.006,30.135 c 0.005,26.204 0.041,30.182 0.277,30.494 0.24,0.317 0.272,-1.65 0.272,-16.619 v -16.979 l 15.309,-0.047 c 12.048,-0.037 15.325,-0.097 15.386,-0.279 0.061,-0.184 -3.083,-0.231 -15.309,-0.231 h -15.386 v -13.077 -13.078 l 0.417,0.092 c 0.229,0.051 0.917,0.229 1.528,0.397 1.763,0.483 4.198,0.829 6.796,0.966 1.489,0.079 2.423,0.204 2.455,0.33 0.027,0.112 0.147,0.62 0.264,1.129 0.943,4.071 8.398,12.59 16.059,18.35 1.77,1.331 2.101,1.664 2.382,2.398 1.507,3.946 5.435,6.738 9.497,6.749 1.154,0.003 1.243,-0.23 0.392,-1.027 -1.052,-0.986 -2.988,-4.352 -2.68,-4.66 0.048,-0.048 0.594,0.087 1.212,0.301 3.572,1.236 2.332,-1.443 -1.954,-4.221 l -1.318,-0.854 1.299,-0.62 c 1.443,-0.688 2.759,-1.887 3.545,-3.228 l 0.512,-0.873 h 4.427 4.427 v 5.463 5.463 h -5.638 c -5.087,0 -6.427,0.107 -5.55,0.443 0.161,0.062 15.743,0.112 34.629,0.112 h 34.336 v 25.278 25.278 h -52.963 c -46.954,0 -52.963,0.031 -52.963,0.278 0,0.246 6.04,0.277 53.241,0.277 h 53.241 l -0.046,-77.268 -0.047,-77.269 H 196.852 142.87 l -0.092,19.809 -0.093,19.809 -1.018,0.501 c -0.561,0.275 -1.248,0.55 -1.528,0.611 l -0.509,0.111 0.002,-20.791 c 0.003,-17.991 0.041,-20.953 0.286,-21.994 0.97,-4.128 4.473,-7.631 8.601,-8.601 1.507,-0.354 94.072,-0.442 96.03,-0.091 3.85,0.69 7.464,3.942 8.836,7.951 l 0.411,1.204 0.093,78.966 c 0.074,62.942 0.139,78.982 0.324,79.043 0.185,0.062 0.231,-12.371 0.231,-61.751 v -61.828 l 4.213,-1.05 c 2.318,-0.578 6.13,-1.631 8.473,-2.34 13.058,-3.954 22.797,-4.62 35.701,-2.442 33.51,5.657 53.111,30.205 55.235,69.18 1.218,22.341 -11.935,47.985 -34.017,66.325 -24.389,20.255 -48.822,30.63 -78.308,33.25 -3.599,0.32 -18.203,0.319 -21.945,-0.002 -20.894,-1.789 -41.837,-6.999 -61.203,-15.225 -1.477,-0.628 -3.394,-1.415 -4.26,-1.75 -3.536,-1.369 -10.255,-4.697 -16.908,-8.377 -4.905,-2.712 -6.634,-3.755 -6.524,-3.933 0.241,-0.39 -0.11,-0.489 -5.325,-1.503 l -2.923,-0.569 -7.089,-3.692 c -3.899,-2.03 -7.202,-3.691 -7.339,-3.691 -0.137,0 -3.976,1.5 -8.531,3.333 -4.556,1.834 -8.356,3.334 -8.445,3.334 -0.22,0 -2.691,-4.98 -2.569,-5.178 0.092,-0.148 5.308,-3.2 9.913,-5.799 3.352,-1.892 6.133,-3.283 6.565,-3.283 0.219,0 0.502,-0.104 0.629,-0.231 0.435,-0.435 3.813,-0.299 5.306,0.214 3.573,1.227 11.931,4.545 13.757,5.461 2.202,1.104 2.446,1.183 2.446,0.786 0,-0.139 -0.666,-0.557 -1.481,-0.929 -0.815,-0.373 -1.482,-0.711 -1.482,-0.751 0,-0.04 1.459,-0.026 3.241,0.031 l 3.241,0.105 v -0.766 -0.765 l -0.63,0.3 -0.63,0.3 -3.47,-1.797 -3.471,-1.797 0.133,1.974 c 0.127,1.906 0.12,1.969 -0.232,1.858 -1.65,-0.524 -9.874,-3.806 -10.098,-4.031 -0.841,-0.841 -5.186,-1.342 -6.905,-0.796 -0.986,0.313 -14.703,-12.217 -21.183,-19.351 -35.127,-38.667 -40.855,-79.154 -16.306,-115.237 13.428,-19.737 31.663,-28.722 52.699,-25.965 m 59.085,5.503 c -0.393,0.561 -0.362,1.181 0.082,1.625 0.363,0.363 0.617,0.37 13.323,0.37 h 12.952 l 0.288,-0.411 c 0.159,-0.226 0.289,-0.583 0.289,-0.792 0,-0.21 -0.13,-0.566 -0.289,-0.792 l -0.288,-0.412 H 197.13 184.095 l -0.288,0.412 m 66.749,22.921 v 16.112 h -0.996 -0.996 l 0.247,-1.158 c 1.702,-7.977 -2.188,-16.909 -9.226,-21.184 l -1.068,-0.649 -8.906,6.634 -8.905,6.634 0.116,1.749 c 0.279,4.188 2.003,9.155 4.247,12.233 l 0.608,0.833 10.514,-0.213 c 6.026,-0.123 10.588,-0.289 10.689,-0.389 0.096,-0.096 0.498,-1 0.895,-2.008 l 0.72,-1.834 1.03,-0.056 1.031,-0.055 v 34.824 34.824 l -19.584,-0.002 -19.583,-0.002 -1.653,-5.693 c -2.468,-8.5 -2.513,-8.638 -2.745,-8.406 -0.147,0.148 -0.118,0.51 0.107,1.317 0.17,0.612 0.309,1.198 0.309,1.301 0,0.126 -4.705,0.188 -14.166,0.188 -7.792,0 -14.167,-0.055 -14.167,-0.123 0,-0.068 0.292,-0.654 0.648,-1.303 0.738,-1.342 0.741,-1.351 0.388,-1.351 -0.144,0 -0.954,1.245 -1.806,2.775 -0.849,1.526 -1.596,2.776 -1.659,2.777 -0.118,0.003 -9.423,-16.548 -9.423,-16.761 0,-0.066 0.43,-0.741 0.955,-1.501 0.67,-0.969 0.896,-1.439 0.759,-1.576 -0.21,-0.21 -2.252,2.474 -2.263,2.974 -0.005,0.204 9.027,16.576 9.816,17.793 0.099,0.153 0.312,0.528 0.472,0.833 0.196,0.371 0.792,0.833 1.793,1.389 0.996,0.554 2.032,1.356 3.086,2.388 1.833,1.796 1.753,2.007 -0.43,1.139 -1.756,-0.697 -1.663,-0.706 -1.548,0.154 0.142,1.058 1.033,2.92 2.027,4.236 0.982,1.3 0.975,1.307 -0.986,0.891 -3.172,-0.672 -6.079,-3.216 -7.159,-6.263 -0.283,-0.799 -0.532,-1.058 -2.265,-2.353 -6.331,-4.729 -13.587,-12.42 -15.504,-16.432 -2,-4.186 -0.787,-8.899 3.375,-13.116 l 1.325,-1.342 -0.538,-0.438 -0.539,-0.438 1.718,-1.944 c 10.619,-12.02 17.03,-16.212 24.31,-15.895 l 1.425,0.061 0.272,-0.916 c 0.901,-3.041 1.184,-7.669 0.659,-10.823 -0.282,-1.7 -0.347,-1.793 -1.856,-2.674 -2.048,-1.197 -2.761,-2.865 -1.721,-4.029 l 0.558,-0.624 2.195,-0.015 c 5.22,-0.034 10.143,-3.199 12.75,-8.198 l 0.513,-0.984 0.577,0.705 c 0.943,1.154 1.982,2.062 3.306,2.889 l 1.248,0.781 0.002,2.139 c 0.003,4.565 -0.542,9.125 -1.303,10.894 -0.609,1.416 -2.867,3.161 -4.099,3.168 -0.321,0.002 -0.548,0.82 -0.801,2.873 -0.104,0.849 0.149,3.788 0.396,4.602 0.286,0.938 0.451,-0.118 0.242,-1.546 -0.205,-1.405 -0.142,-3.863 0.128,-4.938 0.071,-0.284 0.419,-0.519 1.207,-0.814 2.314,-0.865 3.565,-2.658 4.11,-5.89 l 0.239,-1.414 1.847,-0.053 1.848,-0.052 0.427,1.349 c 0.468,1.478 2.204,5.16 2.767,5.868 0.364,0.458 1.4,0.275 2.204,-0.391 0.445,-0.367 0.021,-0.511 -0.656,-0.221 -0.376,0.161 -0.772,0.329 -0.88,0.374 -0.208,0.087 -1.582,-2.41 -2.381,-4.325 -0.649,-1.559 -1.353,-4.432 -1.548,-6.324 l -0.16,-1.553 0.985,-0.436 c 1.049,-0.463 1.365,-0.945 0.476,-0.724 -2.02,0.5 -2.23,1.071 -1.606,4.358 0.145,0.764 0.263,1.41 0.263,1.435 0,0.026 -0.801,0.047 -1.78,0.047 h -1.78 l 0.108,-0.788 c 0.06,-0.432 0.165,-1.828 0.232,-3.101 0.097,-1.828 0.196,-2.42 0.471,-2.812 4.064,-5.79 -1.233,-12.678 -10.306,-13.402 -4.045,-0.322 -6.518,1.017 -11.106,6.01 -7.903,8.603 -12.977,10.571 -25.654,9.953 -4.919,-0.24 -7.014,0.372 -9.693,2.831 l -1.325,1.216 -2.454,-0.052 -2.453,-0.051 v -16.014 -16.013 h 53.518 53.519 v 16.111 m -99.63,-9.954 c -1.722,0.572 -3.146,2.873 -2.898,4.682 0.747,5.452 8.719,5.024 8.719,-0.468 0,-2.999 -2.981,-5.157 -5.821,-4.214 m 3.127,0.684 c 3.634,1.854 2.424,7.3 -1.622,7.294 -3.27,-0.005 -5.055,-3.658 -3.064,-6.268 1,-1.31 3.189,-1.789 4.686,-1.026 m 5.947,3.622 v 0.834 h 11.019 11.018 v -0.834 -0.833 H 171.019 160 v 0.833 m 81.521,1.47 c 6.78,5.604 9.023,15.223 5.44,23.324 l -0.459,1.04 h -1.539 -1.539 l -0.032,-3.658 c -0.031,-3.623 -0.333,-6.232 -0.707,-6.12 -0.226,0.068 -0.218,0.368 0.082,3.273 0.152,1.465 0.188,3.001 0.102,4.259 l -0.135,1.968 -0.909,-1.013 c -4.747,-5.29 -7.601,-14.199 -6.738,-21.029 l 0.14,-1.106 0.92,1.018 c 1.979,2.191 4.444,6.35 4.177,7.048 -0.899,2.355 1.727,6.3 3.208,4.819 1.432,-1.432 -0.193,-5.903 -2.08,-5.722 -0.603,0.057 -0.642,0.016 -1.547,-1.608 -1.135,-2.037 -1.841,-3.069 -3.259,-4.761 -1.344,-1.605 -1.378,-1.374 0.408,-2.707 l 1.499,-1.118 0.862,0.532 c 0.475,0.293 1.422,0.995 2.106,1.561 m -6.972,4.595 c 0.023,7.029 2.017,12.832 6.202,18.049 1.622,2.02 2.319,1.827 -7.14,1.983 l -7.778,0.129 -0.702,-1.102 c -2.145,-3.369 -3.466,-7.3 -3.766,-11.208 l -0.121,-1.572 6.554,-4.911 c 3.605,-2.701 6.596,-4.916 6.646,-4.922 0.051,-0.006 0.098,1.593 0.105,3.554 m 7.634,4.318 c 1.215,0.85 1.894,4.387 0.915,4.76 -0.96,0.365 -2.357,-1.771 -2.357,-3.604 0,-1.339 0.551,-1.781 1.442,-1.156 m -139.928,0.879 c -0.542,0.577 -0.514,1.33 0.072,1.916 0.563,0.563 1.445,0.499 1.979,-0.143 1.084,-1.306 -0.888,-3.011 -2.051,-1.773 m 5.166,0.06 c -0.509,0.647 -0.485,1.279 0.071,1.835 0.856,0.856 2.323,0.234 2.323,-0.986 0,-1.217 -1.646,-1.801 -2.394,-0.849 m 5.204,-0.06 c -0.872,0.928 -0.079,2.516 1.135,2.273 0.733,-0.146 1.016,-0.423 1.158,-1.133 0.258,-1.292 -1.383,-2.108 -2.293,-1.14 m 110.403,0.965 c -0.8,2.086 2.473,11.965 4.348,13.124 0.465,0.288 0.331,-0.276 -0.282,-1.186 -1.89,-2.807 -3.087,-6.204 -3.424,-9.72 -0.215,-2.234 -0.396,-2.86 -0.642,-2.218 m -75.25,10.18 c 0,0.051 -0.36,0.572 -0.8,1.158 -0.439,0.586 -1.269,1.695 -1.844,2.464 -0.574,0.77 -1.215,1.554 -1.423,1.742 l -0.378,0.342 v -2.899 -2.899 h 2.223 c 1.222,0 2.222,0.042 2.222,0.092 m 71.679,4.827 c -3.483,1.399 -3.899,1.613 -3.554,1.826 0.163,0.101 6.958,-2.507 7.224,-2.773 0.557,-0.558 -0.789,-0.21 -3.67,0.947 m 61.65,3.149 c -0.1,0.261 -0.181,0.876 -0.181,1.365 0,1.881 -0.101,2.049 -1.227,2.049 h -0.995 v 3.314 3.315 l 2.348,0.135 c 5.131,0.296 6.714,-0.17 6.732,-1.984 0.003,-0.337 0.128,-0.776 0.277,-0.973 0.341,-0.451 0.353,-1.288 0.022,-1.563 -0.17,-0.141 -0.225,-0.491 -0.171,-1.087 0.133,-1.456 -0.12,-1.632 -2.249,-1.563 l -1.774,0.057 -0.001,-0.613 c -0.004,-2.131 -2.176,-4.046 -2.781,-2.452 m 1.726,0.67 c 0.232,0.313 0.411,0.931 0.481,1.667 l 0.112,1.169 h 1.944 1.945 v 1.054 c 0,0.594 0.101,1.155 0.231,1.287 0.334,0.336 0.286,0.726 -0.145,1.184 -0.307,0.327 -0.342,0.49 -0.191,0.888 0.435,1.143 -0.324,1.504 -3.305,1.573 l -2.609,0.061 0.001,-2.931 c 0.002,-6.401 0.312,-7.599 1.536,-5.952 m -61.629,0.674 c -2.428,1.503 -3.658,5.131 -2.741,8.079 l 0.343,1.102 -0.876,8.242 c -0.481,4.534 -0.9,8.496 -0.93,8.806 -0.053,0.534 -0.102,0.488 -0.954,-0.872 -0.791,-1.263 -1.231,-1.635 -1.231,-1.042 0,0.323 2.119,3.493 2.336,3.494 0.255,0.002 0.224,0.24 1.297,-10.041 l 0.885,-8.469 -0.339,-1.305 c -0.759,-2.925 0.268,-6.122 2.42,-7.532 0.707,-0.463 0.705,-0.198 -0.008,1.463 -0.727,1.693 -0.758,1.811 -0.471,1.811 0.288,0 1.505,-2.672 1.537,-3.375 0.034,-0.745 -0.433,-0.878 -1.268,-0.361 m -152.95,0.509 c -0.198,0.197 -0.291,0.635 -0.291,1.363 0,0.589 -0.053,1.458 -0.118,1.931 l -0.118,0.859 H 66.549 65.37 v 3.999 3.999 l 4.306,-0.067 c 5.27,-0.082 6.065,-0.369 6.065,-2.192 0,-0.363 0.156,-0.966 0.346,-1.34 0.363,-0.711 0.334,-1.472 -0.068,-1.806 -0.178,-0.147 -0.191,-0.374 -0.054,-0.914 0.389,-1.531 -0.552,-2.343 -2.369,-2.046 -2.2,0.361 -2.189,0.366 -2.422,-1.113 -0.346,-2.198 -1.938,-3.656 -2.92,-2.673 m 157.055,0.017 c -0.262,0.262 -0.103,0.432 0.403,0.432 0.292,0 0.677,0.166 0.863,0.372 0.345,0.381 0.345,0.383 -0.235,1.504 -0.033,0.065 0.172,0.176 0.456,0.247 0.933,0.234 1.372,1.302 0.779,1.895 -0.146,0.146 -0.146,0.307 0,0.58 0.497,0.928 -0.059,2.023 -1.276,2.51 l -0.743,0.297 -0.002,1.622 c -0.012,10.657 -2.213,27.513 -4.067,31.149 -1.814,3.555 -6.299,1.42 -11.707,-5.571 -0.935,-1.208 -1.812,-2.197 -1.95,-2.197 -0.357,0 -0.065,0.504 1.394,2.407 6.08,7.929 10.966,9.835 13.007,5.073 1.718,-4.009 3.548,-17.268 3.822,-27.688 l 0.115,-4.375 0.727,-0.321 c 1.034,-0.457 1.439,-1.213 1.44,-2.689 0.001,-0.662 0.012,-1.448 0.025,-1.747 0.017,-0.396 -0.139,-0.688 -0.573,-1.076 -0.341,-0.305 -0.553,-0.644 -0.495,-0.794 0.35,-0.913 -1.324,-2.289 -1.983,-1.63 m -155.596,0.536 c 0.604,0.396 1.028,1.549 1.028,2.797 v 1.041 l 2.058,-0.098 c 2.619,-0.124 3.222,0.303 2.541,1.798 -0.185,0.406 -0.159,0.534 0.185,0.9 0.498,0.53 0.505,0.869 0.032,1.471 -0.264,0.335 -0.338,0.627 -0.26,1.021 0.3,1.498 -0.594,1.892 -4.285,1.892 h -2.896 l 0.108,-3.935 c 0.203,-7.454 0.255,-7.696 1.489,-6.887 m 29.401,27.467 c -1.767,0.614 -2.688,1.916 -2.702,3.818 -0.011,1.617 0.376,2.187 3.811,5.605 l 3.027,3.011 3.173,-3.197 c 2.973,-2.994 3.194,-3.264 3.483,-4.268 1.085,-3.762 -2.582,-6.638 -5.948,-4.665 l -0.818,0.479 -0.468,-0.368 c -0.434,-0.341 -0.709,-0.43 -2.07,-0.667 -0.28,-0.049 -0.95,0.064 -1.488,0.252 m 179.074,1.404 c -2.568,0.583 -3.559,1.578 -4.102,4.118 -0.39,1.824 -0.931,3.056 -1.849,4.206 -1.154,1.447 -1.387,3.891 -0.546,5.736 l 0.216,0.475 2.797,0.051 2.796,0.051 0.055,1.355 c 0.077,1.905 0.483,1.715 0.552,-0.259 0.052,-1.454 0.046,-1.475 -0.681,-2.441 -0.882,-1.17 -1.47,-2.665 -1.622,-4.121 -0.172,-1.643 -0.036,-1.928 1.238,-2.607 0.663,-0.354 1.591,-1.1 2.292,-1.843 l 1.178,-1.249 1.179,1.197 c 0.649,0.658 1.586,1.497 2.083,1.865 l 0.903,0.669 -0.09,1.706 c -0.1,1.918 -0.635,3.329 -1.873,4.942 -0.632,0.823 -0.677,0.968 -0.677,2.191 0,1.776 0.425,1.681 0.556,-0.124 l 0.092,-1.281 3.089,-0.051 3.089,-0.051 0.219,-0.663 c 0.41,-1.242 0.153,-2.72 -0.68,-3.914 -1.118,-1.604 -1.256,-2.066 -1.084,-3.617 0.253,-2.284 0.19,-2.864 -0.403,-3.713 -1.501,-2.147 -5.521,-3.357 -8.727,-2.628 m 48.059,1.973 c -0.659,0.15 -1.713,0.647 -2.382,1.123 -0.241,0.171 -0.405,0.132 -0.816,-0.191 -3.113,-2.449 -8.045,0.146 -8.045,4.232 0,2.008 0.367,2.541 4.749,6.9 l 3.865,3.844 3.909,-3.937 c 3.55,-3.576 3.946,-4.039 4.32,-5.048 1.431,-3.862 -1.755,-7.801 -5.6,-6.923 m -143.284,17.557 c 0,0.656 -2.135,2.793 -3.443,3.446 -2.665,1.332 -3.128,0.158 -1.189,-3.015 l 0.367,-0.602 h 2.133 c 1.18,0 2.132,0.076 2.132,0.171 m 11.296,4.092 v 4.263 l -0.487,0.737 c -0.268,0.405 -0.518,0.737 -0.556,0.737 -0.037,0 -0.068,-2.25 -0.068,-5 v -5 h 0.556 0.555 v 4.263 m 9.069,-3.631 c 0.526,1.594 2.237,2.893 4.312,3.276 l 1.21,0.223 0.995,3.351 0.994,3.351 -8.597,0.048 c -4.728,0.027 -8.638,0.007 -8.688,-0.043 -0.05,-0.051 0.213,-0.55 0.585,-1.11 l 0.676,-1.019 v -4.355 -4.354 h 4.152 4.152 l 0.209,0.632 m 4.756,0.849 c 0.617,2.006 0.602,2.098 -0.334,1.94 -1.62,-0.274 -2.674,-0.959 -3.516,-2.287 -0.739,-1.165 -0.755,-1.153 1.446,-1.094 l 1.976,0.052 0.428,1.389 m 62.657,12.475 c 0,6.331 0.058,7.155 0.509,7.155 0.246,0 0.267,1.506 0.178,12.917 -0.102,13.11 -0.272,17.529 -1.075,27.975 -0.214,2.783 -0.343,5.105 -0.287,5.162 0.057,0.056 0.877,-0.114 1.824,-0.38 0.947,-0.265 2.075,-0.536 2.508,-0.602 l 0.787,-0.119 v 2.875 2.876 l -0.602,0.213 c -0.331,0.117 -1.393,0.331 -2.361,0.476 -1.86,0.279 -2.592,0.725 -2.592,1.58 0,0.348 0.172,0.36 5.092,0.36 h 5.093 v -4.166 -4.167 l 0.602,-0.004 c 0.46,-0.003 6.125,1.082 7.285,1.396 0.13,0.036 0.245,1.253 0.324,3.436 0.067,1.86 0.162,3.422 0.211,3.47 0.135,0.135 9.35,0.448 9.662,0.327 0.866,-0.332 -0.461,-1.687 -1.822,-1.861 -0.542,-0.069 -1.464,-0.255 -2.049,-0.413 l -1.065,-0.289 v -2.198 -2.197 h 0.53 c 0.291,0 0.916,-0.053 1.389,-0.118 l 0.859,-0.118 v -1.332 c 0,-9.302 -2.902,-31.633 -5.653,-43.505 -0.247,-1.066 -0.242,-1.104 0.216,-1.704 0.497,-0.652 1.056,-2.23 0.886,-2.504 -0.209,-0.339 -0.437,-0.142 -0.553,0.479 -0.309,1.645 -2.309,3.378 -3.708,3.214 -0.799,-0.094 -0.736,-0.437 0.279,-1.51 1.181,-1.249 1.181,-1.606 -0.001,-1.606 -0.672,0 -0.353,-0.353 0.829,-0.917 0.651,-0.31 1.277,-0.565 1.392,-0.565 0.15,0 0.194,-1.333 0.158,-4.768 l -0.049,-4.769 -9.398,-0.048 -9.398,-0.048 v 5.997 m 18.332,-0.947 v 4.306 l -0.829,0.341 c -1.654,0.679 -2.313,1.643 -1.3,1.897 1.43,0.359 -0.213,0.447 -7.546,0.402 l -8.009,-0.048 -0.049,-5.602 -0.049,-5.602 h 8.891 8.892 l -0.001,4.306 m -9.357,-0.055 c -0.569,0.23 -0.849,0.658 -0.868,1.323 -0.037,1.291 1.659,1.894 2.495,0.887 0.908,-1.095 -0.307,-2.745 -1.627,-2.21 m -128.959,3.475 c -2.395,0.846 -3.494,3.761 -2.312,6.132 2.046,4.105 8.222,2.598 8.222,-2.006 0,-3.101 -2.96,-5.168 -5.91,-4.126 m 11.791,-0.055 c -2.868,1.024 -3.926,4.44 -2.113,6.818 2.545,3.337 7.89,1.55 7.89,-2.637 0,-3.005 -2.996,-5.173 -5.777,-4.181 m -9.155,0.491 c 2.247,0.624 3.406,3.441 2.287,5.559 -1.816,3.44 -7.161,2.152 -7.161,-1.726 0,-2.734 2.304,-4.547 4.874,-3.833 m 11.619,-0.013 c 1.699,0.472 2.884,2.275 2.728,4.15 -0.307,3.713 -5.348,4.706 -7.169,1.412 -1.636,-2.96 1.167,-6.471 4.441,-5.562 m 6.469,1.39 v 0.835 l 11.065,-0.048 11.065,-0.048 0.057,-0.787 0.057,-0.787 h -11.122 -11.122 v 0.835 m 114.52,3.519 c -0.256,1.022 1.103,1.356 2.652,0.653 l 0.783,-0.355 0.179,0.683 c 2.308,8.825 4.669,26.559 5.665,42.565 l 0.118,1.881 -1.404,0.131 c -2.401,0.225 -5.848,-0.166 -10.501,-1.192 -4.27,-0.942 -6.794,-0.922 -10.788,0.087 -1.007,0.254 -1.871,0.422 -1.92,0.373 -0.049,-0.049 0.045,-1.78 0.208,-3.847 0.836,-10.563 1.051,-15.946 1.172,-29.268 l 0.11,-12.176 h 6.922 6.921 l -0.117,0.465 m -114.52,1.387 v 0.926 h 18.426 18.426 V 255.926 255 h -18.426 -18.426 v 0.926 m -40.461,7.092 c 0.797,0.136 1.486,0.141 2.182,0.014 l 1.017,-0.184 0.118,1.043 c 0.195,1.718 0.718,2.157 1.861,1.561 0.975,-0.509 1.908,0.072 1.567,0.975 -0.085,0.224 -0.483,0.576 -0.886,0.781 l -0.731,0.374 -0.121,1.903 c -0.066,1.047 -0.048,2.596 0.039,3.442 l 0.158,1.539 -0.843,0.61 c -1.388,1.003 -3.406,2.131 -4.04,2.258 -0.813,0.162 -0.855,-0.035 -0.54,-2.54 0.147,-1.16 0.214,-2.525 0.149,-3.035 l -0.117,-0.926 -1.007,-0.193 c -2.2,-0.421 -2.726,-2.008 -2.23,-6.723 0.23,-2.178 0.195,-2.136 1.318,-1.572 0.518,0.26 1.466,0.563 2.106,0.673 m 17.869,-0.148 v 1.019 h 47.87 47.871 v -1.019 -1.018 h -47.871 -47.87 v 1.018 m 0,5.371 v 0.833 h 47.87 47.871 v -0.833 -0.834 h -47.871 -47.87 v 0.834 m 0,5.464 v 0.927 l 11.62,-0.047 11.621,-0.048 0.056,-0.88 0.057,-0.879 h -11.677 -11.677 v 0.927 m -35.193,2.179 -0.398,0.505 0.936,0.833 c 0.892,0.795 0.931,0.868 0.832,1.578 -0.223,1.604 0.904,3.564 2.241,3.9 0.573,0.144 0.601,0.118 1.903,-1.746 l 0.692,-0.991 -1.016,-0.902 c -0.558,-0.495 -1.133,-0.904 -1.276,-0.907 -0.143,-0.003 -0.993,-0.629 -1.888,-1.39 l -1.628,-1.385 -0.398,0.505 m 16.358,0.386 c -0.188,1.403 0.586,1.864 2.082,1.239 l 0.642,-0.268 v 4.25 c 0,2.337 -0.041,4.25 -0.09,4.25 -0.049,0 -1.392,-0.679 -2.984,-1.509 l -2.894,-1.508 0.08,-1.686 c 0.096,-2.037 0.613,-3.207 2.029,-4.586 1.112,-1.083 1.259,-1.106 1.135,-0.182 m -12.689,3.897 c 0.578,0.303 0.791,0.113 0.662,-0.591 l -0.109,-0.595 0.609,0.591 0.609,0.59 -0.778,1.03 c -0.895,1.186 -0.915,1.192 -1.684,0.545 -0.744,-0.626 -1.118,-1.365 -1.118,-2.206 v -0.673 l 0.694,0.544 c 0.382,0.299 0.884,0.644 1.115,0.765 m 33.691,-0.096 c -3.881,1.443 -4.251,6.494 -0.601,8.194 3.6,1.677 7.447,-1.981 5.925,-5.632 -0.843,-2.021 -3.43,-3.266 -5.324,-2.562 m 3.111,0.899 c 1.931,1.013 2.573,3.613 1.342,5.434 -2.176,3.218 -6.998,1.775 -6.987,-2.091 0.008,-2.922 3.033,-4.714 5.645,-3.343 m 5.648,3.289 v 0.926 h 11.666 11.667 v -0.926 -0.926 h -11.667 -11.666 v 0.926 m -29.445,8.526 3.241,1.654 -3.241,-0.114 c -1.782,-0.063 -3.25,-0.125 -3.261,-0.137 -0.104,-0.11 -0.213,-3.074 -0.112,-3.067 0.073,0.005 1.591,0.754 3.373,1.664 m 54.85,5.923 c -1.125,0.687 -1.427,2.26 -0.659,3.432 0.662,1.01 0.639,1.008 12.258,1.008 h 10.719 l 0.629,-0.423 c 1.385,-0.93 1.385,-3.039 0,-3.969 l -0.629,-0.423 -10.852,10e-4 c -10.559,10e-4 -10.869,0.011 -11.466,0.374 m -66.49,3.068 c 3.447,1.791 6.315,3.333 6.373,3.425 0.062,0.102 -5.888,0.165 -14.861,0.158 -10.64,-0.007 -14.881,-0.067 -14.676,-0.208 0.473,-0.322 16.163,-6.597 16.544,-6.615 0.193,-0.01 3.172,1.448 6.62,3.24 m 160.714,-0.202 v 2.87 h -1.851 -1.852 v -2.765 -2.766 l 0.509,-0.077 c 0.28,-0.042 1.113,-0.089 1.852,-0.105 l 1.342,-0.027 v 2.87 m 12.924,-0.919 c 0.177,0.059 0.225,0.541 0.185,1.888 l -0.053,1.809 -1.898,0.053 -1.898,0.052 v -1.997 -1.997 l 1.713,0.056 c 0.942,0.031 1.82,0.092 1.951,0.136 m -197.632,4.671 c -0.188,0.188 -0.529,-0.278 -0.379,-0.519 0.102,-0.165 0.186,-0.141 0.315,0.091 0.097,0.173 0.126,0.366 0.064,0.428 m 49.807,1.145 c -0.157,0.255 1.367,1.092 3.011,1.653 l 1.427,0.487 40.417,0.049 c 35.981,0.043 40.417,0.018 40.417,-0.232 0,-0.249 -4.399,-0.28 -39.861,-0.283 -44.055,-0.004 -41.123,0.077 -43.811,-1.199 -1.547,-0.735 -1.455,-0.708 -1.6,-0.475" />
      <path style="fill:#ece5dd;fill-opacity:1;fill-rule:evenodd;stroke:none" id="path1-4" d="m 103.611,121.611 c -29.51,2.684 -57.179,39.21 -57.206,75.519 -0.004,5.404 0.067,6.474 0.741,11.203 3.814,26.748 23.185,54.42 56.871,81.237 1.969,1.568 1.739,1.508 3.19,0.822 l 1.129,-0.534 -2.085,-1.734 C 67.229,255.668 49.745,217.216 58.53,183.175 c 5.115,-19.815 16.714,-37.453 30.822,-46.867 8.972,-5.987 18.078,-8.534 29.629,-8.287 5.24,0.112 6.949,0.324 12.223,1.515 1.259,0.285 -3.877,-2.712 -7.366,-4.297 -6.546,-2.975 -13.565,-4.234 -20.227,-3.628 m 9.074,7.211 c -5.859,0.632 -10.289,1.72 -14.722,3.616 -25.42,10.873 -44.482,47.375 -40.407,77.377 3.712,27.332 20.754,54.085 49.927,78.378 l 1.65,1.373 1.128,-0.264 c 1.49,-0.35 3.171,-0.188 5.19,0.498 l 1.591,0.542 2.072,-0.694 2.072,-0.694 0.237,-0.912 c 0.13,-0.502 0.238,-1.089 0.24,-1.306 0.004,-0.48 -2.804,-2.954 -4.599,-4.051 -1.528,-0.934 -2.137,-1.971 -2.149,-3.657 -0.007,-1.081 -0.026,-1.121 -0.88,-1.872 l -0.873,-0.767 0.447,-0.509 c 0.566,-0.645 0.35,-0.729 2.234,0.862 0.894,0.754 1.716,1.338 1.826,1.297 0.111,-0.041 0.768,0.469 1.46,1.134 1.009,0.969 1.618,1.368 3.08,2.016 l 1.822,0.808 0.12,-1.063 c 0.33,-2.92 3.412,-6.304 5.74,-6.304 0.291,0 0.479,-0.803 0.479,-2.045 0,-1.183 -0.135,-1.474 -0.686,-1.474 -2.016,0 -2.736,-1.404 -2.752,-5.37 l -0.013,-3.056 -0.589,-1.152 c -0.766,-1.498 -0.758,-1.562 0.369,-2.754 3.395,-3.589 8.577,-3.132 10.915,0.964 1.395,2.444 1.275,4.489 1.275,-21.651 v -23.261 l -0.732,-1.044 c -0.992,-1.416 -1.421,-2.819 -1.865,-6.102 -0.741,-5.473 -2.235,-8.472 -5.763,-11.57 -3.585,-3.147 -4.267,-5.033 -3.07,-8.477 1.467,-4.217 4.096,-6.037 8.659,-5.993 l 2.757,0.026 0.061,-21.067 c 0.066,-22.77 0.011,-21.507 1.039,-23.832 0.222,-0.502 0.339,-0.965 0.261,-1.031 -5.396,-4.492 -7.67,-5.498 -14.902,-6.591 -1.85,-0.28 -10.914,-0.515 -12.649,-0.328 m 36.754,1.373 c -4.323,0.642 -8.069,4.005 -9.381,8.423 -0.304,1.023 -0.332,2.638 -0.384,22.008 l -0.057,20.904 0.608,-0.12 c 0.335,-0.066 1.046,-0.333 1.581,-0.593 l 0.972,-0.474 V 160.542 140.74 l 54.12,0.047 54.121,0.046 0.046,77.211 c 0.037,61.647 0,77.241 -0.185,77.359 -0.128,0.081 -24.128,0.148 -53.334,0.15 l -53.102,0.003 0.001,0.879 c 0,1.32 0.533,5.638 0.938,7.609 0.197,0.956 0.358,1.773 0.358,1.816 0,0.043 -0.188,0.151 -0.417,0.24 -0.37,0.143 -0.261,0.233 0.972,0.806 2.396,1.112 0.122,1.057 43.505,1.057 h 40.153 l 0.109,-0.548 c 0.157,-0.784 1.304,-1.97 2.257,-2.334 0.693,-0.265 0.863,-0.437 1.135,-1.151 1.625,-4.253 6.712,-6.102 10.684,-3.882 l 0.813,0.454 0.621,-0.776 c 1.834,-2.289 5.003,-3.427 7.53,-2.702 l 0.601,0.172 v -78.568 c 0,-77.925 -0.003,-78.581 -0.37,-80.015 -0.976,-3.815 -4.117,-7.001 -8.073,-8.191 -1.191,-0.357 -93.472,-0.577 -95.822,-0.227 m 60.948,4.04 c 0.529,0.429 0.587,1.537 0.106,2.018 -0.393,0.393 -25.331,0.603 -26.255,0.22 -0.998,-0.414 -1.112,-1.803 -0.189,-2.304 0.857,-0.466 25.758,-0.403 26.338,0.066 m -66.868,23.172 v 15.926 h 2.462 2.462 l 0.732,-0.754 c 2.686,-2.767 5.632,-3.647 11.005,-3.286 11.269,0.756 17.097,-1.542 24.633,-9.709 4.919,-5.331 6.993,-6.446 11.54,-6.201 8.802,0.473 14.12,7.345 10.32,13.337 -0.477,0.751 -0.509,0.946 -0.609,3.703 l -0.107,2.91 h 1.559 c 0.857,0 1.557,-0.062 1.555,-0.139 -0.002,-0.076 -0.127,-0.888 -0.277,-1.805 -0.461,-2.802 -0.456,-2.822 0.815,-3.384 1.065,-0.47 1.095,-0.504 1.25,-1.388 l 0.16,-0.907 3.796,-1.56 c 5.28,-2.17 6.652,-2.522 7.21,-1.849 0.182,0.219 1.585,-0.757 8.259,-5.741 4.422,-3.302 8.148,-6.004 8.28,-6.004 1.239,0 5.646,4.059 7.498,6.906 2.857,4.393 4.034,11.137 2.714,15.547 -0.083,0.276 0.03,0.324 0.749,0.324 h 0.845 v -15.926 -15.926 h -53.426 -53.425 v 15.926 m 10.889,-9.74 c 3.604,1.826 4.349,6.201 1.376,8.086 -2.329,1.477 -6.105,0.407 -7.376,-2.089 -1.941,-3.813 2.18,-7.933 6,-5.997 m -3.112,0.328 c -2.553,0.726 -3.551,4.466 -1.649,6.187 0.356,0.323 0.357,0.317 0.079,-0.347 -1.009,-2.417 0.598,-5.186 3.264,-5.623 0.715,-0.118 0.754,-0.148 0.343,-0.265 -0.641,-0.183 -1.275,-0.168 -2.037,0.048 m 30.89,3.811 -0.056,0.879 h -11.111 -11.112 l -0.056,-0.879 -0.056,-0.88 h 11.224 11.224 l -0.057,0.88 m 54.809,0.617 -1.432,1.108 1.125,1.336 c 1.299,1.544 2.675,3.585 3.538,5.251 0.511,0.985 0.665,1.148 1.002,1.063 2.079,-0.522 3.962,4.48 2.279,6.052 -0.537,0.502 -0.538,0.508 -0.316,1.589 0.13,0.634 0.225,2.683 0.229,4.928 l 0.006,3.843 1.481,-0.116 c 1.742,-0.137 1.604,-0.042 2.196,-1.511 3.473,-8.622 0.398,-18.787 -7.232,-23.901 -1.403,-0.94 -1.158,-0.971 -2.876,0.358 m -119.384,2.05 c 0.983,0.333 1.603,0.848 2.157,1.789 l 0.51,0.868 0.055,6.242 c 0.083,9.321 -0.199,9.773 -6.098,9.775 l -2.709,0.001 -1.518,2.591 c -0.835,1.424 -1.578,2.627 -1.651,2.672 -0.072,0.045 -0.912,-1.121 -1.865,-2.591 l -1.733,-2.672 -2.703,-0.004 c -2.99,-0.004 -3.752,-0.202 -4.732,-1.225 -1.011,-1.055 -1.028,-1.185 -1.028,-8.243 0,-10.008 -0.777,-9.397 11.963,-9.409 6.119,-0.005 8.911,0.056 9.352,0.206 m 117.51,1.615 c -0.111,1.692 -0.065,2.973 0.176,4.972 l 0.095,0.783 2.35,-0.114 c 1.293,-0.063 2.38,-0.139 2.416,-0.169 0.247,-0.208 -2.725,-4.777 -4.25,-6.534 l -0.667,-0.768 -0.12,1.83 m -7.202,3.125 -6.423,4.768 -0.007,1.226 c -0.02,3.471 1.481,8.138 3.735,11.608 l 0.757,1.166 2.889,-0.102 c 1.589,-0.056 5.199,-0.153 8.023,-0.215 l 5.133,-0.113 -0.901,-1.044 c -4.356,-5.048 -6.697,-11.67 -6.705,-18.961 -0.002,-1.706 -0.02,-3.102 -0.04,-3.102 -0.021,0 -2.928,2.146 -6.461,4.769 m 48.192,1.532 c -4.08,0.263 -8.055,0.881 -12.533,1.948 -2.227,0.53 -3.772,0.953 -8.532,2.335 l -0.602,0.175 v 3.945 3.945 l 1.991,-0.435 c 2.186,-0.478 7.112,-1.823 11.435,-3.122 20.525,-6.167 41.519,-3.799 59.537,6.714 1.125,0.656 -0.776,-0.785 -2.963,-2.246 -13.047,-8.721 -33.163,-14.239 -48.333,-13.259 m -76.208,1.152 c -2.524,4.841 -7.796,8.19 -12.817,8.141 -4.031,-0.04 -4.18,2.87 -0.25,4.861 1.211,0.614 1.41,1.557 1.39,6.582 -0.013,3.435 -0.043,3.719 -0.597,5.82 l -0.583,2.207 1.051,1.46 c 3.378,4.692 8.015,7.251 10.271,5.669 1.229,-0.862 2.336,-6.394 1.486,-7.425 -0.556,-0.674 -0.766,-4.814 -0.345,-6.788 l 0.213,-1.003 1.244,-0.502 c 3.332,-1.345 4.293,-3.979 4.423,-12.123 0.062,-3.922 0.162,-3.583 -1.343,-4.537 -0.724,-0.458 -1.838,-1.396 -2.476,-2.084 l -1.16,-1.251 -0.507,0.973 m 23.822,3.753 c 0.23,3.71 1.427,7.241 3.486,10.276 0.627,0.924 0.709,1.296 0.285,1.296 -0.575,0 -2.461,-3.321 -3.404,-5.996 -1.057,-2.996 -1.555,-7.631 -0.805,-7.488 0.273,0.053 0.342,0.352 0.438,1.912 m 59.979,1.387 c -4.835,0.328 -8.444,1.05 -15,3.001 -5.902,1.756 -8.512,2.476 -11.574,3.194 l -2.593,0.608 -0.047,61.861 -0.046,61.861 0.626,0.387 c 1.646,1.017 3.11,3.377 3.48,5.609 l 0.196,1.179 0.916,0.218 c 3.884,0.922 4.139,6.292 0.352,7.426 -1.362,0.408 -26.978,0.28 -27.884,-0.139 -1.231,-0.57 -2.315,-2.05 -2.315,-3.16 v -0.375 l -40.602,-0.048 -40.602,-0.048 -1.204,-0.41 c -0.662,-0.225 -1.662,-0.686 -2.222,-1.023 l -1.018,-0.613 -1.667,0.414 c -1.384,0.343 -2.147,0.41 -4.496,0.395 -3.426,-0.022 -3.409,-0.035 -1.491,1.097 9.482,5.596 19.48,10.488 25.894,12.671 30.409,10.347 60.509,12.007 96.772,5.337 47.291,-8.698 76.289,-31.196 87.771,-68.095 8.722,-28.028 5.04,-55.412 -9.831,-73.114 -10.214,-12.16 -32.222,-19.672 -53.415,-18.233 m -43.169,2.415 c -2.265,1.935 -2.099,1.702 -1.732,2.423 1.058,2.077 3.655,5.305 3.817,4.745 0.344,-1.186 0.034,-7.923 -0.383,-8.345 -0.082,-0.082 -0.848,0.447 -1.702,1.177 m -30.674,-0.843 c -0.704,0.306 -0.715,0.404 -0.329,2.785 0.516,3.179 2.929,9.532 3.621,9.532 0.283,0 1.118,-0.429 1.065,-0.547 -0.028,-0.063 -0.442,-0.902 -0.919,-1.867 -1.406,-2.841 -2.192,-5.63 -2.464,-8.743 -0.069,-0.79 -0.181,-1.432 -0.249,-1.428 -0.068,0.004 -0.394,0.125 -0.725,0.268 m -4.358,7.172 c -0.589,3.182 -1.788,4.827 -4.244,5.818 -1.212,0.489 -1.324,0.894 -1.191,4.327 0.12,3.11 0.092,3.048 1.571,3.498 5.243,1.597 7.25,3.458 11.642,10.793 3.402,5.681 3.184,5.135 2.453,6.153 l -0.596,0.83 0.811,1.317 c 1.025,1.666 0.872,2.29 1.907,-7.776 l 0.828,-8.056 -0.35,-1.296 c -0.572,-2.12 -0.38,-3.836 0.618,-5.516 l 0.464,-0.78 -0.847,-1.611 -0.846,-1.61 -0.706,0.36 c -0.727,0.371 -1.272,0.466 -1.281,0.222 -0.003,-0.077 -0.234,-0.415 -0.514,-0.752 l -0.509,-0.614 -0.913,0.392 -0.913,0.391 -0.333,-0.426 c -0.561,-0.72 -2.33,-4.422 -2.815,-5.889 l -0.459,-1.389 -1.73,-0.053 -1.73,-0.052 -0.317,1.719 m -61.984,1.094 c 0,3.112 -0.121,3.113 2.189,-0.023 0.862,-1.171 1.649,-2.234 1.749,-2.361 0.142,-0.182 -0.258,-0.232 -1.879,-0.232 h -2.059 v 2.616 m 104.875,-2.292 c -0.529,1.511 -1.212,3.175 -1.403,3.415 -0.202,0.255 -1.564,0.319 -10.787,0.504 -10.806,0.217 -12.489,0.36 -12.95,1.106 -0.299,0.484 2.089,4.19 2.736,4.245 0.872,0.075 1.477,0.801 1.377,1.653 -0.054,0.46 0.01,0.629 0.268,0.711 0.663,0.211 0.858,0.825 0.816,2.579 -0.048,2.03 -0.527,2.958 -1.711,3.316 -0.374,0.113 -0.396,0.272 -0.519,3.864 -0.462,13.372 -2.572,26.926 -4.613,29.621 -2.089,2.759 -5.655,1.497 -10.287,-3.641 -1.545,-1.715 -3.603,-4.5 -3.828,-5.182 -0.305,-0.924 -0.563,-0.738 -0.808,0.583 -0.736,3.97 -0.474,11.267 0.429,11.975 0.145,0.113 1.175,3.33 2.291,7.149 l 2.028,6.945 19.468,0.047 19.469,0.047 v -34.63 -34.631 h -0.931 c -0.721,0 -0.958,0.074 -1.045,0.324 m 44.927,2.818 c 2.257,1.152 2.459,2.017 2.385,10.243 l -0.058,6.367 -0.56,0.906 c -1.076,1.74 -1.819,2.017 -5.585,2.086 l -3.214,0.058 -1.69,2.868 c -0.93,1.578 -1.751,2.802 -1.825,2.72 -0.075,-0.082 -0.934,-1.378 -1.911,-2.88 l -1.775,-2.732 h -2.717 c -5.982,0 -6.256,-0.418 -6.335,-9.663 -0.07,-8.1 0.107,-8.895 2.212,-9.937 1.208,-0.598 19.91,-0.629 21.073,-0.036 m -11.73,5.886 c -0.061,0.586 -0.161,2.711 -0.222,4.722 l -0.111,3.658 h 2.033 c 3.241,0 4.081,-0.35 3.846,-1.602 -0.091,-0.482 -0.028,-0.746 0.265,-1.119 l 0.384,-0.488 -0.392,-0.417 c -0.352,-0.374 -0.369,-0.482 -0.163,-1.051 0.419,-1.159 0.138,-1.342 -2.066,-1.342 h -1.897 l -0.041,-0.77 c -0.07,-1.295 -0.271,-1.894 -0.766,-2.283 -0.684,-0.538 -0.748,-0.487 -0.87,0.692 m -211.5,0.819 c 0.694,0.546 1.196,1.724 1.201,2.817 l 0.004,0.905 1.941,-0.13 c 2.476,-0.166 2.993,0.166 2.824,1.812 -0.069,0.666 -0.02,1.07 0.16,1.316 0.347,0.474 0.329,1.1 -0.052,1.822 -0.172,0.326 -0.291,0.815 -0.265,1.087 0.184,1.935 -0.983,2.367 -6.413,2.372 l -4.306,0.004 v -3.981 -3.982 h 1.195 1.196 l 0.092,-0.602 c 0.051,-0.331 0.127,-1.205 0.169,-1.941 0.109,-1.924 0.979,-2.502 2.254,-1.499 m -1.462,1.403 c -0.058,0.688 -0.157,3.188 -0.22,5.556 l -0.115,4.305 h 2.659 c 3.492,0 4.745,-0.595 4.211,-2 -0.14,-0.369 -0.1,-0.544 0.2,-0.864 0.487,-0.518 0.48,-1.16 -0.018,-1.563 -0.33,-0.267 -0.361,-0.385 -0.185,-0.712 0.76,-1.42 0.257,-1.805 -2.357,-1.805 H 70.7 l -0.057,-1.229 c -0.076,-1.657 -0.87,-2.938 -1.822,-2.938 -0.047,0 -0.133,0.563 -0.192,1.25 m 157.423,-0.239 c 0.31,0.65 0.615,0.713 0.615,0.126 0,-0.379 -0.345,-0.766 -0.683,-0.766 -0.18,0 -0.164,0.154 0.068,0.64 m -6.797,1.606 c -0.546,1.236 -0.602,3.495 -0.118,4.791 0.304,0.815 -1.316,18.961 -1.757,19.674 -0.204,0.33 -0.604,-0.103 -1.684,-1.825 -0.536,-0.854 -1.027,-1.532 -1.093,-1.506 -0.108,0.041 -5.994,7.872 -6.34,8.434 -0.333,0.542 4.237,6.011 6.613,7.912 3.273,2.619 5.47,2.545 6.716,-0.227 1.658,-3.691 3.438,-16.811 3.718,-27.402 l 0.118,-4.477 -0.723,0.088 c -1.244,0.153 -1.688,-0.296 -3.224,-3.253 -1.842,-3.546 -1.698,-3.403 -2.226,-2.209 m 8.004,0.578 c 0.368,0.698 0.422,0.738 0.481,0.355 0.037,-0.238 -0.077,-0.592 -0.254,-0.787 -0.548,-0.606 -0.661,-0.392 -0.227,0.432 m -53.562,24.018 c -2.278,2.354 -4.231,4.246 -4.339,4.204 -0.109,-0.042 -0.623,0.565 -1.144,1.348 l -0.946,1.423 4.601,8.228 c 2.531,4.526 4.667,8.249 4.746,8.274 0.079,0.025 0.728,-1.01 1.441,-2.299 0.713,-1.289 1.494,-2.641 1.736,-3.003 l 0.441,-0.659 -0.1,-4.911 c -0.124,-6.092 -1.282,-15.076 -2.142,-16.613 -0.115,-0.206 -1.159,0.769 -4.294,4.008 m -14.422,-2.297 c -4.595,4.838 -5.364,9.814 -2.253,14.58 2.634,4.036 9.476,10.961 14.535,14.713 1.757,1.304 1.898,1.458 2.363,2.585 1.44,3.491 4.989,6.169 8.177,6.169 h 0.539 l -0.689,-0.762 c -0.723,-0.801 -2.022,-3.353 -2.226,-4.377 -0.17,-0.845 0.194,-0.92 1.644,-0.34 1.857,0.743 2.018,0.638 0.851,-0.553 -1.233,-1.257 -2.924,-2.555 -4.117,-3.16 -0.605,-0.306 -0.986,-0.655 -1.195,-1.092 -0.168,-0.353 -0.374,-0.642 -0.457,-0.642 -0.083,0 -0.151,-0.088 -0.151,-0.197 0,-0.109 -2.113,-3.963 -4.696,-8.565 -2.583,-4.602 -4.797,-8.56 -4.92,-8.795 -0.201,-0.386 -0.112,-0.59 0.897,-2.064 l 1.12,-1.636 -3.895,-3.584 c -2.142,-1.972 -3.961,-3.608 -4.042,-3.637 -0.08,-0.028 -0.749,0.582 -1.485,1.357 m -51.199,2.863 c 1.882,0.805 2.681,3.515 1.664,5.647 -0.316,0.662 -1.309,1.787 -3.475,3.938 l -3.033,3.012 -3.182,-3.201 c -3.418,-3.439 -3.754,-3.937 -3.754,-5.574 0,-3.094 3.218,-5.109 5.994,-3.751 l 1.007,0.493 0.645,-0.381 c 1.263,-0.745 2.674,-0.808 4.134,-0.183 m 175.637,1.64 c 3.254,1.251 4.242,2.811 3.686,5.82 -0.244,1.319 -0.033,2.169 0.87,3.498 1.208,1.781 1.408,2.712 0.924,4.319 l -0.223,0.741 -3.142,0.092 -3.143,0.093 -0.055,1.065 c -0.041,0.775 0.009,1.067 0.185,1.072 0.132,0.005 1.168,0.119 2.301,0.254 l 2.06,0.246 3.218,2.489 c 1.769,1.37 4.069,3.132 5.111,3.917 4.368,3.291 4.647,4.917 1.545,9.025 -1.041,1.38 -4.624,4.903 -5.298,5.21 -0.264,0.12 -0.531,0.474 -0.655,0.869 -0.116,0.367 -0.417,0.973 -0.668,1.346 l -0.458,0.679 0.849,4.102 c 2.564,12.392 4.187,24.924 4.925,38.031 0.238,4.221 0.352,3.857 -1.255,3.995 l -1.249,0.107 -0.053,2.086 -0.052,2.085 0.515,0.202 c 0.284,0.11 1.178,0.319 1.987,0.462 1.664,0.296 2.268,0.613 2.435,1.278 0.201,0.804 -0.008,1.021 -0.89,0.924 -0.437,-0.047 -2.678,-0.139 -4.98,-0.202 l -4.186,-0.115 -0.119,-2.064 c -0.065,-1.135 -0.119,-2.709 -0.119,-3.498 -10e-4,-0.79 -0.038,-1.436 -0.083,-1.436 -0.045,0 -1.675,-0.333 -3.622,-0.74 -1.947,-0.408 -3.66,-0.741 -3.807,-0.741 -0.219,0 -0.267,0.428 -0.268,2.361 0,1.299 -0.055,3.174 -0.12,4.167 l -0.12,1.805 h -5.157 c -2.837,0 -5.158,-0.029 -5.158,-0.065 0,-0.96 0.906,-1.749 2.175,-1.894 0.485,-0.056 1.443,-0.23 2.131,-0.387 L 275,304.59 v -2.828 -2.828 l -1.25,0.259 c -0.688,0.142 -1.778,0.433 -2.424,0.646 -1.492,0.492 -1.527,0.446 -1.321,-1.783 0.277,-3.001 0.893,-12.599 1.129,-17.593 0.313,-6.61 0.33,-26.239 0.023,-26.342 -0.127,-0.043 -0.231,-0.274 -0.231,-0.514 0,-0.241 -0.083,-0.488 -0.185,-0.551 -0.102,-0.063 -0.185,-0.849 -0.185,-1.747 v -1.632 l -1.158,-0.124 c -2.98,-0.322 -5.174,-2.599 -5.198,-5.395 -0.017,-1.857 1.621,-4.667 5.226,-8.969 2.875,-3.429 3.368,-3.818 5.389,-4.255 0.967,-0.21 1.947,-0.424 2.176,-0.476 0.375,-0.085 0.416,-0.205 0.416,-1.202 v -1.108 h -2.775 -2.775 l -0.3,-0.694 c -0.788,-1.824 -0.567,-4.02 0.57,-5.681 1.211,-1.768 1.52,-2.471 1.843,-4.193 0.618,-3.293 2.47,-4.484 6.771,-4.355 1.431,0.043 2.215,0.162 2.972,0.453 m 45.824,2.019 c 2.445,1.26 3.44,4.378 2.237,7.008 -0.412,0.902 -1.162,1.757 -4.327,4.936 l -3.828,3.845 -3.86,-3.845 c -4.506,-4.489 -4.842,-4.981 -4.842,-7.085 0,-4.03 4.459,-6.595 7.826,-4.502 0.527,0.328 1.001,0.513 1.061,0.414 0.126,-0.203 1.435,-0.894 2.122,-1.121 0.791,-0.26 2.806,-0.065 3.611,0.35 M 139.63,238.772 v 23.254 l 0.416,0.792 c 0.317,0.603 0.417,1.103 0.417,2.089 0,1.012 -0.091,1.451 -0.417,2.002 -0.395,0.668 -0.416,0.899 -0.416,4.445 v 3.741 l 0.559,0.247 c 0.308,0.137 1.016,0.665 1.574,1.175 l 1.015,0.928 v -30.073 -30.073 l -0.972,-0.492 c -0.535,-0.27 -1.243,-0.671 -1.575,-0.89 l -0.601,-0.398 v 23.253 m 139.629,-20.438 c -0.684,0.691 -1.67,1.453 -2.284,1.765 l -1.081,0.549 0.071,1.667 c 0.079,1.841 0.566,3.197 1.634,4.545 0.553,0.698 0.567,0.765 0.534,2.518 -0.036,1.955 0.135,2.311 1.243,2.589 1.601,0.402 2.58,-0.536 2.503,-2.397 -0.055,-1.312 -0.042,-1.354 0.674,-2.259 2.12,-2.676 2.76,-6.257 1.29,-7.224 -0.433,-0.285 -1.371,-1.069 -2.084,-1.743 l -1.296,-1.226 -1.204,1.216 m -135.74,12.229 v 12.953 l 15.324,0.048 c 13.476,0.041 15.324,0.081 15.324,0.325 0,0.244 -1.848,0.283 -15.324,0.325 l -15.324,0.047 v 17.231 c 0,14.98 0.036,17.3 0.278,17.769 0.889,1.72 1.091,4.911 0.757,11.989 l -0.168,3.565 h 52.992 52.992 v -25.278 -25.278 h -34.541 -34.542 l 0.281,0.544 c 0.154,0.298 0.749,1.048 1.321,1.666 1.386,1.497 1.297,1.763 -0.529,1.588 -4.511,-0.433 -8.274,-3.397 -9.431,-7.429 -0.032,-0.113 -1.063,-0.959 -2.29,-1.881 -7.688,-5.773 -15.097,-14.322 -16.032,-18.498 -0.252,-1.126 -0.105,-1.076 -3.7,-1.255 -2.031,-0.102 -5.327,-0.658 -6.638,-1.12 l -0.75,-0.265 v 12.954 m 36.813,-0.527 c -0.337,0.516 -1.073,1.947 -1.073,2.086 0,0.055 6.324,0.1 14.053,0.1 h 14.053 l -0.381,-1.305 -0.381,-1.306 -0.94,0.107 c -5.125,0.583 -18.963,0.583 -24.107,-10e-4 -0.844,-0.096 -0.975,-0.062 -1.224,0.319 m -1.764,3.158 c -0.1,0.128 -0.488,0.787 -0.863,1.466 l -0.682,1.234 0.338,0.555 0.337,0.555 0.971,-0.342 c 1.549,-0.545 4.109,-2.779 4.109,-3.585 0,-0.234 -4.023,-0.121 -4.21,0.117 m 4.708,0.556 c -0.728,1.239 -2.077,2.477 -3.444,3.161 l -1.257,0.629 0.944,0.569 c 4.246,2.56 5.91,5.928 2.278,4.61 -1.321,-0.48 -1.365,-0.453 -0.983,0.604 0.146,0.404 0.281,0.557 0.367,0.417 0.102,-0.164 1.583,-0.221 5.682,-0.221 h 5.544 v -5.278 -5.278 h -4.334 -4.334 l -0.463,0.787 m 9.872,4.028 c 0,2.648 0.035,4.815 0.078,4.815 0.644,0 0.848,-1.31 0.848,-5.439 v -4.191 h -0.463 -0.463 v 4.815 m 1.667,-0.442 v 4.374 l -0.664,0.904 -0.664,0.905 h 8.605 8.606 l -0.726,-2.454 c -0.4,-1.35 -0.836,-2.829 -0.97,-3.287 -0.241,-0.823 -0.256,-0.835 -1.201,-0.953 -1.948,-0.242 -3.937,-1.676 -4.505,-3.247 l -0.222,-0.615 h -4.13 -4.129 v 4.373 m 9.074,-4.229 c 0,0.585 1.442,2.062 2.5,2.563 1.045,0.494 2.231,0.601 2.072,0.187 -0.054,-0.14 -0.275,-0.848 -0.491,-1.574 l -0.393,-1.32 h -1.844 c -1.014,0 -1.844,0.065 -1.844,0.144 m 84.177,6.62 c 0.168,0.712 0.249,0.788 0.915,0.861 l 0.556,0.06 0.093,4.058 0.092,4.059 1.713,-2.583 c 0.942,-1.421 1.713,-2.639 1.713,-2.707 0,-0.068 -1.021,-0.931 -2.268,-1.918 -1.248,-0.987 -2.421,-1.927 -2.607,-2.088 -0.319,-0.276 -0.331,-0.262 -0.207,0.258 m -16.585,7.31 v 5.556 h 7.799 c 7.741,0 7.795,-0.003 7.361,-0.359 -0.608,-0.499 -0.342,-0.874 1.194,-1.678 l 1.238,-0.649 0.001,-4.213 v -4.213 h -8.796 -8.797 v 5.556 m 9.698,-1.098 c 0.366,0.288 0.488,0.551 0.488,1.053 0,1.396 -1.531,2.05 -2.509,1.072 -1.339,-1.339 0.526,-3.3 2.021,-2.125 m -127.012,3.296 c 2.784,1.269 4.217,4.92 2.781,7.089 -2.467,3.727 -9.511,1.215 -9.131,-3.257 0.267,-3.136 3.541,-5.113 6.35,-3.832 m 11.483,-0.079 c 2.726,1.139 4.286,4.534 3.11,6.767 -2.171,4.119 -9.358,2.058 -9.307,-2.669 0.033,-3.073 3.37,-5.28 6.197,-4.098 m -15.057,0.868 c -2.243,1.11 -2.771,4.457 -0.946,5.995 0.241,0.203 0.339,0.239 0.216,0.079 -1.612,-2.099 0.492,-6.09 3.218,-6.101 0.53,-0.002 0.643,-0.049 0.438,-0.182 -0.498,-0.322 -2.083,-0.209 -2.926,0.209 m 11.612,0.037 c -2.111,1.114 -2.701,4.34 -1.06,5.796 0.383,0.34 0.387,0.34 0.197,-0.024 -1.258,-2.401 0.733,-5.825 3.392,-5.836 0.539,-0.002 0.657,-0.049 0.451,-0.182 -0.527,-0.341 -2.118,-0.21 -2.98,0.246 m 31.499,0.865 v 0.926 H 182.593 171.481 V 250.926 250 h 11.112 11.111 v 0.926 m 95.555,-0.424 c -1.831,0.672 -2.621,1.35 -1.574,1.35 0.773,0 0.691,0.331 -0.401,1.616 l -1.066,1.254 0.624,0.06 c 0.887,0.086 2.121,-0.44 2.771,-1.18 1.431,-1.63 1.198,-3.67 -0.354,-3.1 m -16.94,8.341 c 0.222,8.559 -0.332,25.395 -1.196,36.333 -0.388,4.909 -0.511,4.327 0.832,3.909 3.627,-1.129 7.64,-1.2 11.973,-0.212 5.046,1.15 10.912,1.574 11.205,0.81 0.801,-2.087 -2.177,-27.152 -4.746,-39.953 -1.045,-5.203 -0.913,-4.85 -1.663,-4.463 -1.572,0.813 -3.335,0.374 -2.842,-0.708 l 0.221,-0.485 h -6.954 -6.953 l 0.123,4.769 m -63.893,-2.917 v 1.018 l -18.472,0.048 -18.473,0.047 v -1.113 -1.113 l 18.473,0.047 18.472,0.047 v 1.019 m 36.296,6.852 v 1.018 l -48.009,0.047 -48.009,0.047 v -0.988 c 0,-0.544 0.055,-1.044 0.124,-1.112 0.068,-0.068 21.672,-0.103 48.009,-0.077 l 47.885,0.046 v 1.019 m -116.845,-0.332 c -0.277,0.881 -0.328,5.762 -0.069,6.518 0.315,0.92 1.038,1.455 2.137,1.583 1.279,0.149 1.334,0.497 0.862,5.454 l -0.122,1.279 0.668,-0.109 c 0.677,-0.11 2.564,-1.131 3.94,-2.133 l 0.756,-0.551 -0.085,-2.503 c -0.126,-3.711 0.005,-4.475 0.841,-4.891 0.845,-0.421 1.137,-0.864 0.86,-1.306 -0.255,-0.408 -0.93,-0.516 -1.459,-0.233 -1.108,0.593 -1.939,-0.119 -1.944,-1.665 l -0.003,-0.833 -2.083,-0.006 c -2.072,-0.005 -2.412,-0.087 -4.051,-0.966 -0.063,-0.034 -0.175,0.129 -0.248,0.362 m 116.845,5.795 v 0.926 l -48.009,0.046 -48.009,0.047 v -1.019 -1.019 l 48.009,0.046 48.009,0.047 v 0.926 m -106.479,0.743 c -0.304,0.249 -0.794,0.552 -1.089,0.674 l -0.535,0.221 0.088,2.285 c 0.102,2.649 -0.02,2.394 1.21,2.507 l 0.972,0.089 v -3.121 c 0,-1.716 -0.021,-3.117 -0.046,-3.114 -0.026,0.004 -0.296,0.21 -0.6,0.459 m 33.979,4.627 v 1.019 h -11.759 -11.759 v -0.895 c 0,-0.493 0.055,-0.951 0.123,-1.019 0.068,-0.068 5.36,-0.123 11.759,-0.123 h 11.636 v 1.018 m -43.194,2.848 c -1.358,1.251 -2.04,2.804 -2.064,4.698 l -0.02,1.522 2.871,1.508 2.87,1.508 0.05,-4.078 c 0.057,-4.638 0.122,-4.301 -0.756,-3.934 -1.348,0.563 -1.837,0.303 -1.973,-1.052 l -0.099,-0.983 -0.879,0.811 m -13.472,2.846 c 0,0.739 0.331,1.465 0.973,2.13 0.761,0.788 1.035,0.752 1.758,-0.231 0.706,-0.96 0.719,-1.041 0.232,-1.482 -0.362,-0.327 -0.371,-0.323 -0.371,0.157 0,0.821 -0.796,0.596 -2.083,-0.59 l -0.509,-0.469 v 0.485 m 38.204,0.734 c 2.48,0.743 4.477,4.362 3.583,6.495 -1.957,4.668 -10.104,2.391 -9.506,-2.658 0.343,-2.896 3.101,-4.683 5.923,-3.837 m -2.927,0.868 c -1.942,0.899 -2.812,3.075 -1.969,4.926 0.549,1.209 0.987,1.445 0.66,0.357 -0.739,-2.453 1.186,-5.224 3.664,-5.277 0.508,-0.011 0.547,-0.039 0.238,-0.172 -0.628,-0.27 -1.816,-0.194 -2.593,0.166 m 32.315,3.445 v 1.018 h -11.667 -11.666 v -1.018 -1.019 h 11.666 11.667 v 1.019 m -72.386,5.649 c -0.548,0.082 -1.059,0.251 -1.136,0.375 -0.076,0.123 -0.253,0.187 -0.392,0.14 -0.612,-0.204 -16.128,8.341 -16.392,9.028 -0.218,0.568 2.318,5.086 2.759,4.915 0.23,-0.09 4.07,-1.635 8.534,-3.433 l 8.117,-3.271 7.161,3.729 7.161,3.728 4.063,0.82 c 2.234,0.451 4.067,0.82 4.074,0.82 0.006,0 0.011,-2.616 0.011,-5.813 v -5.812 l -0.926,-0.112 c -0.509,-0.062 -1.882,-0.113 -3.05,-0.113 l -2.124,-0.002 1.315,0.63 c 1.383,0.663 1.705,0.95 1.404,1.251 -0.12,0.12 -0.938,-0.195 -2.382,-0.917 -2.176,-1.088 -11.004,-4.564 -13.866,-5.459 -1.797,-0.562 -3.01,-0.703 -4.331,-0.504 m 16.318,2.598 c 0.119,1.66 -0.119,1.539 3.157,1.608 l 2.819,0.06 -2.871,-1.476 c -3.477,-1.787 -3.218,-1.771 -3.105,-0.192 m 80.887,5.921 c 1.701,0.868 1.817,3.3 0.206,4.302 l -0.673,0.419 h -10.833 c -10.287,0 -10.863,-0.018 -11.41,-0.349 -1.65,-0.999 -1.556,-3.593 0.161,-4.439 1.036,-0.511 21.535,-0.45 22.549,0.067 m -104.171,3.347 -8.148,3.304 14.722,0.005 14.723,0.005 -6.389,-3.327 c -3.514,-1.829 -6.473,-3.318 -6.574,-3.308 -0.102,0.01 -3.852,1.505 -8.334,3.321 m 172.13,-0.293 v 2.685 h 1.667 1.666 v -2.685 -2.685 h -1.666 -1.667 v 2.685 m 12.778,0.808 v 1.877 h 1.852 1.851 v -1.759 -1.759 h -0.992 c -0.546,0 -1.38,-0.053 -1.852,-0.118 l -0.859,-0.118 v 1.877 m -158.889,4.342 c 0,0.277 7.438,4.063 13.426,6.835 4.827,2.234 5.264,2.332 1.435,0.321 -2.728,-1.432 -6.528,-3.577 -9.676,-5.461 -1.49,-0.892 -2.226,-1.214 -3.148,-1.378 -0.662,-0.118 -1.391,-0.259 -1.621,-0.314 -0.229,-0.055 -0.416,-0.056 -0.416,-0.003" />
      <path style="fill:#999999;fill-opacity:1;fill-rule:evenodd;stroke:none" id="path2-44" d="m 152.208,148.401 c -2.245,0.803 -3.351,3.27 -2.462,5.492 0.546,1.367 2.551,1.898 4.249,1.127 3.849,-1.748 2.153,-8.027 -1.787,-6.619 m 4.211,1.351 c 1.35,2.632 -0.466,5.934 -3.489,6.345 l -0.986,0.134 0.879,0.146 c 3.998,0.664 6.521,-4.341 3.581,-7.103 l -0.444,-0.418 0.459,0.896 m -57.56,4.766 c -0.973,0.347 -1.749,1.016 -2.184,1.883 -0.49,0.974 -0.592,13.307 -0.119,14.392 0.8,1.837 1.989,2.346 5.5,2.351 l 2.703,0.004 1.733,2.672 c 0.953,1.47 1.793,2.636 1.865,2.591 0.073,-0.045 0.816,-1.248 1.651,-2.672 l 1.518,-2.591 2.709,-0.001 c 5.899,-0.002 6.181,-0.454 6.098,-9.775 l -0.055,-6.242 -0.51,-0.868 c -0.554,-0.941 -1.174,-1.456 -2.157,-1.789 -0.952,-0.323 -17.835,-0.283 -18.752,0.045 m 137.283,7.285 -0.803,0.072 0.131,0.96 c 0.29,2.123 1.89,6.889 2.7,8.047 0.252,0.359 0.342,0.306 2.34,-1.396 l 2.077,-1.77 -0.763,-0.653 c -1.353,-1.158 -2.111,-3.798 -1.447,-5.038 0.197,-0.368 -1.563,-0.46 -4.235,-0.222 m 4.993,0.298 c -0.648,0.781 -0.253,2.97 0.741,4.102 1.027,1.17 1.77,0.646 1.588,-1.12 -0.199,-1.927 -1.656,-3.793 -2.329,-2.982 m -21.876,0.295 c -0.56,0.186 -2.643,1.008 -4.629,1.826 l -3.611,1.487 -0.153,0.772 c -0.128,0.644 -0.097,0.816 0.185,1.035 0.327,0.253 0.326,0.271 -0.009,0.531 -1.254,0.97 1.953,11.95 3.618,12.385 0.268,0.07 0.352,0.196 0.271,0.406 -0.135,0.353 0.772,1.745 1.141,1.751 0.132,0.002 0.556,-0.158 0.943,-0.355 l 0.704,-0.359 0.799,1.516 c 0.439,0.834 0.826,1.549 0.859,1.589 0.032,0.04 0.39,-0.268 0.794,-0.684 1.361,-1.403 2.422,-1.669 2.422,-0.608 0,0.592 -1.118,3.217 -1.46,3.428 -0.505,0.312 -0.546,-0.153 -0.093,-1.048 1.232,-2.431 1.154,-2.838 -0.273,-1.412 -1.171,1.171 -1.232,0.722 0.569,4.161 1.829,3.49 2.895,4.359 3.996,3.258 0.183,-0.182 0.591,-0.439 0.908,-0.57 0.767,-0.318 1.39,-1.006 1.39,-1.537 0.002,-1.821 -0.459,-3.175 -1.142,-3.353 -0.256,-0.067 -0.341,-0.196 -0.264,-0.397 0.156,-0.407 -0.269,-1.374 -0.705,-1.608 -0.196,-0.105 -0.325,-0.331 -0.287,-0.502 0.038,-0.171 -0.424,-1.25 -1.025,-2.397 l -1.094,-2.086 0.63,-0.263 c 0.346,-0.144 0.855,-0.319 1.13,-0.388 0.739,-0.186 0.731,-0.26 -0.187,-1.666 -2.271,-3.476 -3.654,-7.627 -3.889,-11.677 l -0.109,-1.868 0.721,-0.532 c 0.396,-0.292 0.753,-0.553 0.793,-0.58 0.04,-0.027 -0.032,-0.176 -0.161,-0.332 -0.315,-0.379 -1.509,-0.347 -2.782,0.077 m -115.383,0.282 c 1.285,0.665 0.827,2.692 -0.609,2.692 -1.527,0 -1.95,-2.001 -0.582,-2.749 0.487,-0.266 0.573,-0.262 1.191,0.057 m 5.185,0 c 1.285,0.665 0.827,2.692 -0.609,2.692 -1.526,0 -1.95,-2.001 -0.582,-2.749 0.487,-0.266 0.573,-0.262 1.191,0.057 m 5.028,-0.085 c 0.094,0 0.337,0.166 0.541,0.37 1.221,1.222 -0.738,3.208 -2.002,2.03 -0.941,-0.876 -0.111,-2.844 1.045,-2.478 0.135,0.043 0.323,0.078 0.416,0.078 m 158.159,14.844 c -2.105,1.042 -2.282,1.837 -2.212,9.937 0.079,9.245 0.353,9.663 6.335,9.663 h 2.717 l 1.775,2.732 c 0.977,1.502 1.836,2.798 1.911,2.88 0.074,0.082 0.895,-1.142 1.825,-2.72 l 1.69,-2.868 3.214,-0.058 c 3.766,-0.069 4.509,-0.346 5.585,-2.086 l 0.56,-0.906 0.058,-6.367 c 0.074,-8.226 -0.128,-9.091 -2.385,-10.243 -1.163,-0.593 -19.865,-0.562 -21.073,0.036 m -49.192,0.523 c 0,0.247 -6.376,2.946 -6.991,2.959 -1.098,0.023 -0.006,-0.639 3.148,-1.909 3.483,-1.403 3.843,-1.502 3.843,-1.05 m 59.845,4.022 c 0.512,0.335 0.911,1.204 1.073,2.339 l 0.127,0.895 1.518,-0.126 c 2.036,-0.17 2.454,0.117 2.401,1.649 -0.019,0.567 0.043,1.079 0.139,1.138 0.246,0.152 0.217,1.144 -0.048,1.626 -0.122,0.222 -0.234,0.675 -0.248,1.005 -0.067,1.568 -1.032,1.899 -5.542,1.899 h -3.617 v -3.426 -3.425 h 0.915 c 1.121,0 1.142,-0.032 1.263,-1.97 0.129,-2.084 0.651,-2.498 2.019,-1.604 m -99.66,7.176 c -4.328,0.597 -7.232,1.859 -10.646,4.626 -2.574,2.085 -11.116,10.696 -12.399,12.497 l -0.386,0.543 3.752,3.471 c 2.064,1.909 4.246,3.927 4.848,4.484 l 1.096,1.014 4.205,-4.331 4.205,-4.332 0.209,0.74 c 1.163,4.128 1.888,10.079 2.009,16.505 l 0.098,5.209 0.949,0.108 c 5.54,0.632 24.96,0.525 25.625,-0.14 0.042,-0.042 -0.063,-0.938 -0.234,-1.99 -0.419,-2.577 -0.418,-7.06 0.001,-9.506 0.369,-2.156 0.38,-2.176 0.837,-1.572 0.257,0.34 0.402,0.406 0.556,0.253 0.917,-0.914 8.318,-11.149 8.255,-11.416 -0.154,-0.654 -5.774,-9.825 -6.736,-10.992 -1.651,-2.001 -4.372,-3.734 -7.522,-4.792 -2.057,-0.69 -1.911,-0.843 -1.991,2.085 -0.078,2.829 -0.537,4.266 -1.604,5.015 -2.324,1.63 -6.975,-1.027 -10.498,-5.996 l -1.242,-1.752 -0.86,0.02 c -0.473,0.01 -1.611,0.123 -2.527,0.249 m 91.852,41.696 c -2.338,0.52 -2.702,0.798 -5.667,4.335 -3.605,4.302 -5.243,7.112 -5.226,8.969 0.024,2.795 2.218,5.073 5.195,5.394 l 1.154,0.125 0.049,-4.422 0.05,-4.422 8.855,-0.048 c 9.787,-0.053 8.891,0.068 8.543,-1.155 -0.125,-0.439 -0.114,-0.448 0.216,-0.166 0.192,0.164 1.376,1.11 2.63,2.103 1.434,1.134 2.246,1.897 2.185,2.054 -0.052,0.138 -0.85,1.377 -1.771,2.754 -2.144,3.203 -2.151,3.291 -0.383,4.787 0.76,0.643 0.827,0.606 3.4,-1.89 5.986,-5.806 6.221,-8.192 1.182,-11.988 -1.042,-0.785 -3.341,-2.547 -5.111,-3.916 l -3.216,-2.489 -2.244,-0.261 c -1.518,-0.176 -2.265,-0.198 -2.308,-0.069 -0.036,0.106 -0.158,0.192 -0.272,0.192 -0.113,0 -0.471,0.256 -0.795,0.57 -0.967,0.937 -2.97,0.867 -3.348,-0.117 -0.056,-0.147 -0.221,-0.268 -0.366,-0.268 -0.145,0 -0.312,-0.125 -0.371,-0.278 -0.058,-0.153 -0.16,-0.271 -0.225,-0.262 -0.066,0.009 -1.036,0.219 -2.156,0.468 m -123.657,19.657 c -2.7,1.56 -2.835,5.781 -0.209,6.51 3.75,1.041 6.471,-3.466 3.792,-6.282 -0.915,-0.963 -2.173,-1.043 -3.583,-0.228 m 11.761,-0.123 c -1.931,0.956 -2.79,3.638 -1.787,5.579 0.792,1.53 3.772,1.584 5.215,0.094 2.803,-2.897 0.077,-7.407 -3.428,-5.673 m -6.782,1.093 c 1.368,2.775 -0.907,6.256 -4.122,6.309 -0.671,0.01 -0.688,0.024 -0.256,0.2 3.728,1.516 7.267,-3.512 4.602,-6.539 l -0.543,-0.618 0.319,0.648 m 11.666,0.125 c 1.174,2.81 -0.979,6.132 -4.007,6.182 -0.75,0.012 -0.787,0.032 -0.37,0.202 3.445,1.402 6.841,-2.762 4.922,-6.036 -0.616,-1.053 -0.921,-1.247 -0.545,-0.348 m -39.515,23.416 c -2.166,0.832 -4.139,3.476 -4.415,5.914 l -0.121,1.063 -2.035,-0.907 c -1.12,-0.499 -2.063,-0.907 -2.095,-0.907 -0.318,0 -2.108,2.887 -1.89,3.049 0.14,0.106 1.021,0.848 1.956,1.65 1.839,1.577 1.857,1.616 1.457,3.159 l -0.237,0.913 -2.302,0.768 -2.302,0.767 2.218,0.861 c 4.236,1.643 7.959,3.052 7.992,3.024 0.018,-0.015 -0.038,-0.86 -0.125,-1.876 -0.087,-1.016 -0.132,-1.874 -0.099,-1.907 0.032,-0.033 1.655,0.74 3.605,1.716 3.343,1.673 3.57,1.759 3.95,1.492 0.222,-0.155 0.448,-0.282 0.502,-0.282 0.053,0 0.097,3.034 0.097,6.743 0,3.709 0.07,6.814 0.154,6.898 0.655,0.657 6.759,0.192 9.476,-0.721 1.488,-0.5 1.443,-0.395 1.031,-2.395 -0.792,-3.852 -0.997,-6.743 -0.829,-11.729 0.364,-10.807 0.112,-12.582 -2.147,-15.144 -2.463,-2.792 -4.905,-3.24 -7.589,-1.392 l -1.67,1.149 v 4.684 c 0,2.576 -0.062,4.683 -0.139,4.68 -0.076,-0.002 -1.555,-0.735 -3.287,-1.63 l -3.148,-1.626 -0.055,-1.349 c -0.098,-2.435 0.784,-4.342 2.74,-5.92 1.539,-1.241 1.291,-1.507 -0.693,-0.745 m 23.378,6.161 c -2.107,0.921 -3.153,3.481 -2.262,5.536 0.737,1.699 3.564,1.891 5.202,0.355 2.749,-2.578 0.373,-7.338 -2.94,-5.891 m 4.582,1.728 c 0.953,2.823 -1.125,5.786 -4.066,5.796 -0.64,0.002 -0.809,0.052 -0.608,0.182 0.51,0.33 2.729,0.218 3.502,-0.177 2.03,-1.035 2.8,-3.439 1.767,-5.512 -0.701,-1.406 -1.025,-1.564 -0.595,-0.289 m 92.314,14.378 c -1.292,0.544 -2.432,1.395 -3.267,2.437 l -0.621,0.776 -0.813,-0.454 c -3.972,-2.22 -9.059,-0.371 -10.684,3.882 -0.272,0.714 -0.442,0.886 -1.135,1.151 -3.193,1.219 -3.313,5.715 -0.19,7.161 0.906,0.419 26.522,0.547 27.884,0.139 3.787,-1.134 3.532,-6.504 -0.352,-7.426 l -0.916,-0.218 -0.196,-1.179 c -0.814,-4.912 -5.599,-8.001 -9.71,-6.269" />
      <path style="fill:#909090;fill-rule:evenodd;stroke:none" id="path3-763" d="m 114.398,128.094 c 0.229,0.044 0.604,0.044 0.833,0 0.23,-0.044 0.042,-0.081 -0.416,-0.081 -0.459,0 -0.646,0.037 -0.417,0.081 m 5.556,0 c 0.229,0.044 0.604,0.044 0.833,0 0.229,-0.044 0.042,-0.081 -0.417,-0.081 -0.458,0 -0.645,0.037 -0.416,0.081 m -4.908,0.552 c 0.179,0.047 0.47,0.047 0.648,0 0.179,-0.046 0.033,-0.085 -0.324,-0.085 -0.356,0 -0.502,0.039 -0.324,0.085 m 3.704,0.005 c 0.28,0.043 0.738,0.043 1.019,0 0.28,-0.042 0.05,-0.077 -0.51,-0.077 -0.56,0 -0.789,0.035 -0.509,0.077 m 131.528,4.682 c 0.398,0.408 0.765,0.741 0.816,0.741 0.051,0 -0.233,-0.333 -0.631,-0.741 -0.398,-0.407 -0.765,-0.74 -0.816,-0.74 -0.051,0 0.233,0.333 0.631,0.74 m -59.385,0.695 c 3.496,0.028 9.163,0.028 12.593,0 3.43,-0.029 0.57,-0.052 -6.356,-0.052 -6.926,0 -9.733,0.024 -6.237,0.052 m 0,2.592 c 3.496,0.028 9.163,0.028 12.593,0 3.43,-0.028 0.57,-0.051 -6.356,-0.051 -6.926,0 -9.733,0.023 -6.237,0.051 m 60.033,81.399 0.093,77.259 0.046,-77.12 c 0.026,-42.416 -0.016,-77.183 -0.093,-77.26 -0.076,-0.076 -0.097,34.628 -0.046,77.121 m -91.058,-66.26 c 0.001,0.51 0.037,0.696 0.08,0.414 0.042,-0.281 0.041,-0.698 -0.003,-0.926 -0.044,-0.227 -0.079,0.003 -0.077,0.512 m 22.222,0 c 0.001,0.51 0.037,0.696 0.08,0.414 0.042,-0.281 0.041,-0.698 -0.003,-0.926 -0.044,-0.227 -0.078,0.003 -0.077,0.512 m 60.595,2.685 c 0.605,0.612 1.141,1.112 1.192,1.112 0.051,0 -0.402,-0.5 -1.007,-1.112 -0.604,-0.611 -1.141,-1.111 -1.192,-1.111 -0.051,0 0.402,0.5 1.007,1.111 m -37.037,2.963 c 0.398,0.408 0.765,0.741 0.816,0.741 0.051,0 -0.233,-0.333 -0.631,-0.741 -0.397,-0.407 -0.765,-0.74 -0.816,-0.74 -0.05,0 0.233,0.333 0.631,0.74 m -22.969,4.491 -1.105,1.158 1.157,-1.106 c 0.637,-0.608 1.158,-1.129 1.158,-1.157 0,-0.137 -0.183,0.03 -1.21,1.105 m 38.664,3.565 c 0.002,0.407 0.04,0.552 0.084,0.322 0.045,-0.23 0.043,-0.564 -0.003,-0.741 -0.047,-0.177 -0.083,0.012 -0.081,0.419 m 2.218,-0.093 c 0,0.357 0.039,0.503 0.085,0.324 0.047,-0.178 0.047,-0.469 0,-0.648 -0.046,-0.178 -0.085,-0.032 -0.085,0.324 m 59.633,1.054 c 0.179,0.047 0.47,0.047 0.649,0 0.178,-0.047 0.032,-0.085 -0.324,-0.085 -0.357,0 -0.503,0.038 -0.325,0.085 m 9.815,0 c 0.179,0.047 0.47,0.047 0.648,0 0.179,-0.047 0.033,-0.085 -0.324,-0.085 -0.356,0 -0.502,0.038 -0.324,0.085 m -9.352,0.559 c 0.23,0.044 0.605,0.044 0.834,0 0.229,-0.045 0.041,-0.081 -0.417,-0.081 -0.458,0 -0.646,0.036 -0.417,0.081 m 9.537,-0.003 c 0.179,0.046 0.47,0.046 0.649,0 0.178,-0.047 0.032,-0.085 -0.324,-0.085 -0.357,0 -0.503,0.038 -0.325,0.085 m -44.633,2.464 c 0,0.357 0.039,0.503 0.085,0.325 0.047,-0.179 0.047,-0.47 0,-0.649 -0.046,-0.178 -0.085,-0.032 -0.085,0.324 m -85.367,0.133 c 0.281,0.043 0.739,0.043 1.019,0 0.28,-0.042 0.051,-0.077 -0.509,-0.077 -0.56,0 -0.79,0.035 -0.51,0.077 m 1.945,-0.002 c 0.229,0.044 0.604,0.044 0.833,0 0.229,-0.044 0.042,-0.08 -0.416,-0.08 -0.459,0 -0.646,0.036 -0.417,0.08 m 40.83,0.981 c 0,0.356 0.038,0.502 0.085,0.324 0.046,-0.179 0.046,-0.47 0,-0.649 -0.047,-0.178 -0.085,-0.032 -0.085,0.325 m -56.895,2.129 c -0.45,0.459 -0.776,0.834 -0.725,0.834 0.051,0 0.46,-0.375 0.91,-0.834 0.45,-0.458 0.776,-0.833 0.726,-0.833 -0.051,0 -0.461,0.375 -0.911,0.833 m 93.75,0 c 0.003,0.408 0.04,0.552 0.085,0.322 0.044,-0.23 0.042,-0.564 -0.004,-0.741 -0.046,-0.177 -0.083,0.012 -0.081,0.419 m -58.38,0.521 c 0,0.032 0.271,0.303 0.602,0.602 l 0.602,0.544 -0.544,-0.602 c -0.507,-0.561 -0.66,-0.687 -0.66,-0.544 m 58.384,1.424 c 0,0.458 0.036,0.645 0.08,0.416 0.045,-0.229 0.045,-0.604 0,-0.833 -0.044,-0.229 -0.08,-0.042 -0.08,0.417 m 7.633,34.259 c 0,19.199 0.022,27.053 0.048,17.454 0.027,-9.6 0.027,-25.308 0,-34.908 -0.026,-9.599 -0.048,-1.745 -0.048,17.454 m -10.692,-31.162 c 0.331,0.041 0.872,0.041 1.203,0 0.331,-0.042 0.06,-0.075 -0.602,-0.075 -0.662,0 -0.932,0.033 -0.601,0.075 m -8.704,0.185 c 0.331,0.041 0.873,0.041 1.204,0 0.331,-0.041 0.06,-0.075 -0.602,-0.075 -0.662,0 -0.933,0.034 -0.602,0.075 m 13.333,0.37 c 0.331,0.041 0.873,0.041 1.204,0 0.331,-0.041 0.06,-0.075 -0.602,-0.075 -0.662,0 -0.933,0.034 -0.602,0.075 m -8.889,0.185 c 0.331,0.041 0.873,0.041 1.204,0 0.331,-0.041 0.06,-0.074 -0.602,-0.074 -0.662,0 -0.933,0.033 -0.602,0.074 m -9.078,0.185 c 0.329,0.041 0.912,0.042 1.296,0.002 0.385,-0.04 0.116,-0.074 -0.597,-0.075 -0.713,-0.001 -1.028,0.032 -0.699,0.073 m -82.646,0.654 -0.544,0.601 0.602,-0.543 c 0.331,-0.3 0.601,-0.57 0.601,-0.602 0,-0.143 -0.152,-0.017 -0.659,0.544 m -6.794,2.495 c 0.331,0.041 0.872,0.041 1.203,0 0.331,-0.041 0.061,-0.075 -0.601,-0.075 -0.662,0 -0.933,0.034 -0.602,0.075 m -7.28,2.134 -0.544,0.602 0.602,-0.544 c 0.331,-0.299 0.601,-0.57 0.601,-0.602 0,-0.143 -0.152,-0.017 -0.659,0.544 m -57.628,3.97 c 0.179,0.047 0.47,0.047 0.648,0 0.179,-0.046 0.033,-0.084 -0.324,-0.084 -0.356,0 -0.502,0.038 -0.324,0.084 m -6.819,4.225 c 0,2.24 0.027,3.132 0.06,1.98 0.032,-1.151 0.032,-2.985 -0.001,-4.074 -0.032,-1.089 -0.059,-0.147 -0.059,2.094 m 2.962,-0.371 c 0,2.037 0.027,2.896 0.06,1.908 0.033,-0.987 0.033,-2.654 0,-3.703 -0.033,-1.05 -0.06,-0.242 -0.06,1.795 m 3.027,-3.291 c 0.333,0.041 0.833,0.04 1.111,-0.002 0.279,-0.043 0.006,-0.076 -0.605,-0.075 -0.611,0.001 -0.839,0.035 -0.506,0.077 m 154.922,5.143 c 0,0.815 0.033,1.125 0.072,0.69 0.039,-0.436 0.039,-1.103 -0.001,-1.482 -0.04,-0.379 -0.072,-0.023 -0.071,0.792 m 53.038,-1.255 c 0.331,0.041 0.873,0.041 1.204,0 0.331,-0.041 0.06,-0.075 -0.602,-0.075 -0.662,0 -0.933,0.034 -0.602,0.075 m -53.792,3.385 c 0,0.458 0.036,0.646 0.08,0.416 0.044,-0.229 0.044,-0.604 0,-0.833 -0.044,-0.229 -0.08,-0.042 -0.08,0.417 m -56.446,1.157 -0.919,0.972 0.972,-0.919 c 0.903,-0.854 1.057,-1.025 0.919,-1.025 -0.03,0 -0.467,0.437 -0.972,0.972 m -112.628,0.88 c 0,0.458 0.036,0.646 0.08,0.416 0.044,-0.229 0.044,-0.604 0,-0.833 -0.044,-0.229 -0.08,-0.042 -0.08,0.417 m 0.58,2.87 c 0,1.63 0.028,2.272 0.063,1.427 0.034,-0.846 0.034,-2.179 -0.001,-2.963 -0.034,-0.785 -0.062,-0.093 -0.062,1.536 m 107.046,1.25 -0.732,0.787 0.787,-0.732 c 0.732,-0.681 0.872,-0.842 0.732,-0.842 -0.03,0 -0.385,0.354 -0.787,0.787 m -107.624,2.269 c 0.002,0.509 0.038,0.695 0.08,0.414 0.043,-0.282 0.042,-0.698 -0.002,-0.926 -0.044,-0.228 -0.079,0.002 -0.078,0.512 m 102.994,4.768 -0.732,0.787 0.787,-0.732 c 0.732,-0.681 0.872,-0.842 0.732,-0.842 -0.03,0 -0.384,0.354 -0.787,0.787 m 120.916,8.148 c -0.073,0.128 -0.062,0.167 0.025,0.088 0.087,-0.08 0.705,0.379 1.372,1.018 l 1.214,1.163 -1.198,-1.25 c -1.351,-1.409 -1.236,-1.326 -1.413,-1.019 m -1.101,1.297 -0.732,0.787 0.787,-0.732 c 0.732,-0.681 0.872,-0.842 0.732,-0.842 -0.03,0 -0.384,0.354 -0.787,0.787 m -179.065,3.101 c 1.627,1.63 3,2.963 3.051,2.963 0.051,0 -1.239,-1.333 -2.866,-2.963 -1.627,-1.629 -3.001,-2.962 -3.051,-2.962 -0.051,0 1.238,1.333 2.866,2.962 m 6.109,0.047 -2.961,3.009 3.009,-2.961 c 2.796,-2.75 3.093,-3.057 2.961,-3.057 -0.027,0 -1.381,1.354 -3.009,3.009 m 208.656,-0.972 c 0,0.356 0.038,0.502 0.084,0.324 0.047,-0.179 0.047,-0.47 0,-0.649 -0.046,-0.178 -0.084,-0.032 -0.084,0.325 m 4.772,6.944 c 2.086,2.088 3.834,3.796 3.885,3.796 0.051,0 -1.614,-1.708 -3.7,-3.796 -2.086,-2.088 -3.835,-3.796 -3.886,-3.796 -0.051,0 1.615,1.708 3.701,3.796 m 7.592,0.185 c -1.984,1.986 -3.566,3.611 -3.515,3.611 0.051,0 1.716,-1.625 3.7,-3.611 1.985,-1.986 3.566,-3.611 3.515,-3.611 -0.051,0 -1.716,1.625 -3.7,3.611 m -37.92,-1.759 c 0,0.356 0.038,0.502 0.085,0.324 0.046,-0.178 0.046,-0.47 0,-0.648 -0.047,-0.178 -0.085,-0.033 -0.085,0.324 m -14.673,2.173 2.778,0.059 v 1.28 c 0,1.284 0.208,1.726 0.618,1.313 0.165,-0.166 0.141,-0.189 -0.1,-0.097 -0.277,0.105 -0.322,-0.047 -0.37,-1.239 l -0.055,-1.359 -2.824,-0.008 -2.825,-0.007 2.778,0.058 m 9.686,0.002 c 0.896,0.034 2.313,0.034 3.148,0 0.835,-0.035 0.102,-0.062 -1.63,-0.062 -1.731,0 -2.415,0.028 -1.518,0.062 m -2.402,1.251 c 0,0.713 0.034,0.982 0.074,0.598 0.04,-0.385 0.039,-0.968 -0.001,-1.297 -0.041,-0.328 -0.074,-0.014 -0.073,0.699 m -75.131,0.192 c -0.18,0.47 -0.125,0.585 0.097,0.202 0.164,-0.282 0.234,-0.299 0.379,-0.092 0.148,0.21 0.165,0.208 0.106,-0.013 -0.105,-0.388 -0.448,-0.445 -0.582,-0.097 m -42.43,2.863 c 1.117,1.121 2.072,2.037 2.123,2.037 0.051,0 -0.821,-0.916 -1.938,-2.037 -1.117,-1.12 -2.072,-2.037 -2.123,-2.037 -0.051,0 0.821,0.917 1.938,2.037 m -1.945,-1.018 c 0.346,0.356 0.67,0.648 0.721,0.648 0.051,0 -0.19,-0.292 -0.535,-0.648 -0.346,-0.357 -0.67,-0.648 -0.721,-0.648 -0.051,0 0.19,0.291 0.535,0.648 m 23.764,0.972 c 3.954,0.028 10.371,0.028 14.259,0 3.889,-0.028 0.653,-0.051 -7.189,-0.051 -7.843,0 -11.024,0.023 -7.07,0.051 m -6.912,0.537 c 1.521,0.136 3.705,0.147 3.704,0.019 0,-0.077 -0.979,-0.125 -2.176,-0.108 -1.197,0.017 -1.884,0.057 -1.528,0.089 m 4.38,0.019 c -0.047,0.076 1.261,0.117 2.906,0.091 5.591,-0.089 6.151,-0.154 1.66,-0.192 -2.464,-0.021 -4.518,0.024 -4.566,0.101 m 9.741,-0.012 c 0.178,0.047 0.47,0.047 0.648,0 0.178,-0.046 0.032,-0.084 -0.324,-0.084 -0.357,0 -0.503,0.038 -0.324,0.084 m 10.324,0.012 c 0,0.076 0.908,0.139 2.019,0.139 1.111,0 1.981,-0.063 1.934,-0.139 -0.048,-0.077 -0.956,-0.139 -2.02,-0.139 -1.063,0 -1.933,0.062 -1.933,0.139 m -38.334,1.435 c 0.346,0.356 0.67,0.648 0.721,0.648 0.051,0 -0.19,-0.292 -0.535,-0.648 -0.346,-0.357 -0.67,-0.648 -0.721,-0.648 -0.051,0 0.19,0.291 0.535,0.648 m 39.074,-0.035 c 0,0.032 0.271,0.303 0.602,0.602 l 0.602,0.544 -0.544,-0.602 c -0.507,-0.561 -0.66,-0.687 -0.66,-0.544 m 66.194,12.627 c 0,3.362 0.025,4.763 0.056,3.114 0.031,-1.649 0.031,-4.399 0,-6.111 -0.03,-1.713 -0.055,-0.364 -0.056,2.997 m -111.961,-3.287 c 14.594,0.046 15.429,0.066 15.313,0.372 -0.094,0.246 -0.071,0.272 0.094,0.108 0.601,-0.597 0.011,-0.619 -15.438,-0.573 l -15.405,0.045 15.436,0.048 m 22.41,0.186 c -0.224,0.286 -0.22,0.297 0.04,0.095 0.214,-0.167 1.806,-0.243 5.926,-0.281 l 5.632,-0.052 -5.672,-0.043 c -5.212,-0.04 -5.692,-0.017 -5.926,0.281 m 16.737,-0.186 c 2.419,0.029 6.377,0.029 8.796,0 2.419,-0.029 0.44,-0.053 -4.398,-0.053 -4.838,0 -6.817,0.024 -4.398,0.053 m 73.56,4.537 0.005,4.491 8.009,0.048 c 4.405,0.027 8.009,-0.015 8.009,-0.092 0,-0.078 -3.581,-0.118 -7.959,-0.091 l -7.96,0.05 -0.055,-4.448 -0.054,-4.448 0.005,4.49 m -119.391,1.381 c 0.23,0.045 0.564,0.043 0.741,-0.003 0.177,-0.047 -0.012,-0.083 -0.419,-0.081 -0.408,0.002 -0.552,0.04 -0.322,0.084 m 11.667,0 c 0.23,0.045 0.563,0.043 0.74,-0.003 0.177,-0.047 -0.011,-0.083 -0.419,-0.081 -0.407,0.002 -0.552,0.04 -0.321,0.084 m 13.331,0.564 c 3.081,0.028 8.122,0.028 11.203,0 3.081,-0.029 0.561,-0.052 -5.601,-0.052 -6.162,0 -8.683,0.023 -5.602,0.052 m 109.593,1.147 c -0.179,0.197 -0.282,0.468 -0.229,0.601 0.075,0.187 0.101,0.182 0.112,-0.021 0.008,-0.144 0.152,-0.415 0.321,-0.601 0.169,-0.187 0.265,-0.339 0.214,-0.339 -0.051,0 -0.239,0.162 -0.418,0.36 m -138.763,2.047 c 0,0.357 0.038,0.503 0.084,0.324 0.047,-0.178 0.047,-0.469 0,-0.648 -0.046,-0.178 -0.084,-0.032 -0.084,0.324 m 8.889,0 c 0,0.357 0.038,0.503 0.084,0.324 0.047,-0.178 0.047,-0.469 0,-0.648 -0.046,-0.178 -0.084,-0.032 -0.084,0.324 m -24.902,3.094 c 0.23,0.045 0.563,0.043 0.74,-0.003 0.178,-0.047 -0.011,-0.083 -0.418,-0.081 -0.408,0.002 -0.553,0.04 -0.322,0.084 m 4.488,1.814 c 0.346,0.356 0.67,0.648 0.721,0.648 0.051,0 -0.19,-0.292 -0.536,-0.648 -0.345,-0.357 -0.669,-0.648 -0.72,-0.648 -0.051,0 0.19,0.291 0.535,0.648 m 12.463,4.537 c 0,0.56 0.035,0.789 0.077,0.509 0.043,-0.28 0.043,-0.738 0,-1.018 -0.042,-0.281 -0.077,-0.051 -0.077,0.509 m -21.86,2.5 c 0.002,0.407 0.04,0.552 0.084,0.322 0.044,-0.231 0.042,-0.564 -0.004,-0.741 -0.046,-0.177 -0.083,0.011 -0.08,0.419 m 0.555,0.37 c 0.002,0.408 0.04,0.552 0.084,0.322 0.045,-0.23 0.043,-0.564 -0.003,-0.741 -0.047,-0.177 -0.083,0.012 -0.081,0.419 m 21.324,1.833 c -0.054,0.142 -0.073,0.579 -0.04,0.972 l 0.058,0.714 h 47.917 l 47.917,0.001 -47.871,-0.047 -47.87,-0.048 v -0.832 -0.833 l 47.917,-0.047 47.916,-0.047 -47.922,-0.046 c -40.852,-0.039 -47.937,-0.008 -48.022,0.213 m -12.225,2.416 c -0.057,0.146 -0.07,0.417 -0.03,0.601 0.045,0.21 0.108,0.109 0.168,-0.267 0.101,-0.63 0.036,-0.788 -0.138,-0.334 m -48.22,1.272 c 0,0.032 0.271,0.303 0.602,0.602 l 0.602,0.544 -0.544,-0.602 c -0.507,-0.561 -0.66,-0.687 -0.66,-0.544 m 48.195,0.59 c 0.002,0.408 0.04,0.553 0.084,0.322 0.045,-0.23 0.043,-0.564 -0.003,-0.741 -0.047,-0.177 -0.083,0.012 -0.081,0.419 m 12.229,1.852 c 0.001,0.509 0.037,0.696 0.08,0.414 0.042,-0.281 0.041,-0.698 -0.003,-0.926 -0.044,-0.227 -0.079,0.003 -0.077,0.512 m -55.701,1.574 c 1.219,1.222 2.258,2.222 2.309,2.222 0.051,0 -0.905,-1 -2.124,-2.222 -1.219,-1.222 -2.258,-2.222 -2.309,-2.222 -0.051,0 0.905,1 2.124,2.222 m 179.038,-0.833 c 0.001,0.611 0.036,0.839 0.077,0.506 0.041,-0.333 0.041,-0.833 -0.002,-1.111 -0.042,-0.279 -0.076,-0.006 -0.075,0.605 m -0.742,0.092 c 0,0.561 0.035,0.79 0.077,0.51 0.042,-0.28 0.042,-0.739 0,-1.019 -0.042,-0.28 -0.077,-0.051 -0.077,0.509 m -153.331,5.047 c -0.011,0.229 0.021,0.309 0.071,0.177 0.075,-0.194 0.15,-0.195 0.398,-0.003 0.213,0.164 0.198,0.11 -0.046,-0.177 -0.429,-0.503 -0.398,-0.503 -0.423,0.003 m 153.878,0.787 c 0.002,0.407 0.04,0.552 0.084,0.322 0.044,-0.231 0.042,-0.564 -0.004,-0.741 -0.046,-0.177 -0.083,0.011 -0.08,0.419 m -0.745,0.092 c 0,0.357 0.038,0.503 0.085,0.324 0.046,-0.178 0.046,-0.469 0,-0.648 -0.047,-0.178 -0.085,-0.032 -0.085,0.324 M 98.148,280.058 c 0,0.032 0.271,0.303 0.602,0.602 l 0.602,0.544 -0.544,-0.602 c -0.507,-0.561 -0.66,-0.687 -0.66,-0.544 m 49.673,4.201 c 0,0.357 0.038,0.503 0.084,0.324 0.047,-0.178 0.047,-0.47 0,-0.648 -0.046,-0.178 -0.084,-0.032 -0.084,0.324 m 8.889,0 c 0,0.357 0.038,0.503 0.084,0.324 0.047,-0.178 0.047,-0.47 0,-0.648 -0.046,-0.178 -0.084,-0.032 -0.084,0.324 m 115,0 c 0,0.357 0.038,0.503 0.084,0.324 0.047,-0.178 0.047,-0.47 0,-0.648 -0.046,-0.178 -0.084,-0.032 -0.084,0.324 M 131.25,294.39 c 0.229,0.044 0.604,0.044 0.833,0 0.229,-0.044 0.042,-0.08 -0.416,-0.08 -0.459,0 -0.646,0.036 -0.417,0.08 m -2.845,0.558 c 0.133,0.133 1.433,0.085 1.58,-0.058 0.042,-0.041 -0.326,-0.075 -0.818,-0.075 -0.493,0 -0.835,0.06 -0.762,0.133 m 63.017,3.339 c 2.87,0.029 7.62,0.029 10.556,0 2.935,-0.029 0.587,-0.052 -5.219,-0.052 -5.805,0 -8.207,0.023 -5.337,0.052 m 103.806,0.602 c 0,0.356 0.038,0.502 0.085,0.324 0.046,-0.178 0.046,-0.47 0,-0.648 -0.047,-0.178 -0.085,-0.033 -0.085,0.324 m -15.894,2.685 c 0,1.63 0.029,2.272 0.063,1.426 0.035,-0.845 0.034,-2.178 0,-2.962 -0.035,-0.785 -0.063,-0.094 -0.063,1.536 m -4.259,0.185 c 0,1.63 0.029,2.272 0.063,1.427 0.034,-0.845 0.034,-2.179 -10e-4,-2.963 -0.034,-0.785 -0.062,-0.093 -0.062,1.536 m 16.175,-1.628 c 0.229,0.044 0.604,0.044 0.833,0 0.23,-0.044 0.042,-0.081 -0.416,-0.081 -0.459,0 -0.646,0.037 -0.417,0.081 m 1.667,0 c 0.229,0.044 0.604,0.044 0.833,0 0.229,-0.044 0.042,-0.081 -0.417,-0.081 -0.458,0 -0.645,0.037 -0.416,0.081 m -1.482,0.555 0.972,0.074 v 1.743 1.743 l -1.852,0.063 -1.852,0.063 1.898,-0.01 1.899,-0.01 v -1.852 -1.852 l -1.019,-0.018 -1.018,-0.017 0.972,0.073 m 1.598,1.907 c 0,1.171 0.03,1.65 0.067,1.064 0.037,-0.585 0.037,-1.544 0,-2.129 -0.037,-0.586 -0.067,-0.107 -0.067,1.065 m -198.681,2.222 c -0.135,0.218 0.04,0.555 0.289,0.555 0.095,0 0.174,-0.088 0.174,-0.196 0,-0.108 -0.098,-0.136 -0.217,-0.062 -0.146,0.09 -0.178,0.033 -0.098,-0.174 0.129,-0.338 0.034,-0.418 -0.148,-0.123 m 193.691,1.296 0.013,1.204 0.555,0.017 c 0.507,0.016 0.512,0.011 0.055,-0.057 -0.474,-0.071 -0.505,-0.138 -0.569,-1.221 l -0.067,-1.147 0.013,1.204 m -192.609,-0.88 c -0.047,0.077 6.649,0.12 14.879,0.096 8.231,-0.024 12.59,-0.065 9.687,-0.092 -13.764,-0.128 -24.488,-0.129 -24.566,-0.004 m 198.226,2.307 c 0.23,0.045 0.563,0.043 0.74,-0.003 0.177,-0.047 -0.011,-0.083 -0.419,-0.081 -0.407,0.002 -0.552,0.04 -0.321,0.084" />
      <path style="fill:#c4c4c4;fill-rule:evenodd;stroke:none" id="path4-1" d="m 116.431,128.652 c 0.329,0.041 0.912,0.042 1.296,0.002 0.385,-0.04 0.116,-0.074 -0.597,-0.075 -0.713,-0.001 -1.028,0.032 -0.699,0.073 m 22.547,32.644 c 0,11.255 0.023,15.859 0.05,10.232 0.027,-5.628 0.027,-14.836 0,-20.463 -0.027,-5.628 -0.05,-1.023 -0.05,10.231 m 57.92,-19.861 53.472,0.047 v 15.916 15.915 l -0.787,0.072 -0.787,0.071 0.834,-0.015 0.833,-0.015 v -16.019 -16.018 l -53.519,-0.001 h -53.518 l 53.472,0.047 m 56.897,77.639 c 0,42.829 0.022,60.35 0.048,38.935 0.026,-21.414 0.026,-56.456 0,-77.87 -0.026,-21.414 -0.048,-3.894 -0.048,38.935 m -174.64,-73.102 -0.544,0.602 0.602,-0.544 c 0.561,-0.507 0.687,-0.66 0.544,-0.66 -0.032,0 -0.303,0.271 -0.602,0.602 m 69.406,5.695 c 0,0.356 0.039,0.502 0.085,0.324 0.047,-0.178 0.047,-0.47 0,-0.648 -0.046,-0.179 -0.085,-0.033 -0.085,0.324 m 16.962,1.064 c 3.088,0.029 8.088,0.029 11.111,0 3.022,-0.028 0.496,-0.052 -5.615,-0.051 -6.112,0 -8.585,0.023 -5.496,0.051 m 77.255,0.845 c 0,0.032 0.271,0.303 0.602,0.602 l 0.601,0.544 -0.543,-0.602 c -0.507,-0.561 -0.66,-0.687 -0.66,-0.544 m -55.751,3.6 -0.638,0.694 0.694,-0.638 c 0.382,-0.351 0.695,-0.663 0.695,-0.694 0,-0.142 -0.157,-0.008 -0.751,0.638 m 10.091,8.426 -0.544,0.602 0.602,-0.544 c 0.561,-0.507 0.687,-0.66 0.544,-0.66 -0.032,0 -0.303,0.271 -0.602,0.602 m 8.303,0.324 c 0,0.458 0.036,0.646 0.08,0.417 0.044,-0.23 0.044,-0.605 0,-0.834 -0.044,-0.229 -0.08,-0.041 -0.08,0.417 m 81.57,0.322 c 0.636,0.036 1.678,0.036 2.315,0 0.636,-0.036 0.115,-0.066 -1.158,-0.066 -1.273,0 -1.794,0.03 -1.157,0.066 m -1.945,0.732 c 0.179,0.046 0.47,0.046 0.648,0 0.179,-0.047 0.033,-0.085 -0.324,-0.085 -0.356,0 -0.502,0.038 -0.324,0.085 m -79.618,1.446 c 0.001,0.611 0.035,0.839 0.077,0.506 0.041,-0.333 0.04,-0.833 -0.002,-1.111 -0.043,-0.279 -0.076,-0.006 -0.075,0.605 m 43.141,-0.278 c 0,0.458 0.036,0.646 0.08,0.417 0.044,-0.229 0.044,-0.604 0,-0.834 -0.044,-0.229 -0.08,-0.041 -0.08,0.417 m -91.391,1.057 c 0.23,0.044 0.564,0.043 0.741,-0.004 0.177,-0.046 -0.012,-0.082 -0.419,-0.08 -0.407,0.002 -0.552,0.04 -0.322,0.084 m 49.541,4.265 c 0.486,0.038 1.236,0.037 1.666,-0.001 0.43,-0.039 0.032,-0.07 -0.885,-0.07 -0.917,0.001 -1.268,0.032 -0.781,0.071 m -63.304,0.844 c -0.051,0.133 -0.067,1.404 -0.035,2.825 l 0.057,2.583 0.041,-2.725 0.041,-2.726 2.175,-0.059 2.176,-0.058 -2.181,-0.04 c -1.647,-0.03 -2.205,0.019 -2.274,0.2 m 105.52,-0.107 c 0.28,0.042 0.739,0.042 1.019,0 0.28,-0.043 0.051,-0.077 -0.51,-0.077 -0.56,0 -0.789,0.034 -0.509,0.077 m -4.071,3.333 c 0.281,0.043 0.698,0.042 0.926,-0.002 0.227,-0.044 -0.003,-0.079 -0.512,-0.078 -0.509,0.002 -0.696,0.038 -0.414,0.08 m -7.318,0.187 c 0.331,0.041 0.873,0.041 1.204,0 0.331,-0.042 0.06,-0.075 -0.602,-0.075 -0.662,0 -0.933,0.033 -0.602,0.075 m -8.703,0.185 c 0.331,0.041 0.872,0.041 1.203,0 0.331,-0.041 0.06,-0.075 -0.602,-0.075 -0.662,0 -0.932,0.034 -0.601,0.075 m 8.888,0.555 c 0.331,0.041 0.873,0.041 1.204,0 0.331,-0.041 0.06,-0.074 -0.602,-0.074 -0.662,0 -0.933,0.033 -0.602,0.074 m -8.888,0.185 c 0.331,0.042 0.872,0.042 1.203,0 0.331,-0.041 0.06,-0.074 -0.602,-0.074 -0.662,0 -0.932,0.033 -0.601,0.074 m 52.691,4.589 c 0.002,0.509 0.038,0.695 0.08,0.414 0.043,-0.282 0.042,-0.698 -0.002,-0.926 -0.044,-0.228 -0.079,0.002 -0.078,0.512 m -81.669,1.944 c 0,0.459 0.036,0.646 0.081,0.417 0.044,-0.229 0.044,-0.604 0,-0.833 -0.045,-0.23 -0.081,-0.042 -0.081,0.416 m -132.034,0.463 c 10e-4,0.509 0.037,0.696 0.08,0.414 0.042,-0.281 0.041,-0.698 -0.003,-0.926 -0.044,-0.227 -0.079,0.003 -0.077,0.512 m 0.74,0 c 0.002,0.509 0.038,0.696 0.08,0.414 0.043,-0.281 0.042,-0.698 -0.002,-0.926 -0.044,-0.227 -0.079,0.003 -0.078,0.512 m 156.864,7.871 c 0,0.865 0.032,1.219 0.071,0.787 0.039,-0.433 0.039,-1.142 0,-1.575 -0.039,-0.432 -0.071,-0.078 -0.071,0.788 m 0.727,2.222 c 0,0.458 0.036,0.646 0.08,0.416 0.044,-0.229 0.044,-0.604 0,-0.833 -0.044,-0.229 -0.08,-0.042 -0.08,0.417 m -59.777,3.75 -1.663,1.713 1.713,-1.663 c 0.942,-0.915 1.713,-1.685 1.713,-1.713 0,-0.135 -0.219,0.072 -1.763,1.663 m -27.406,38.565 c 0,12.833 0.022,18.056 0.049,11.606 0.027,-6.45 0.027,-16.95 0,-23.334 -0.027,-6.383 -0.049,-1.106 -0.049,11.728 m 16.071,-20.093 c 0,0.458 0.037,0.646 0.081,0.417 0.044,-0.23 0.044,-0.605 0,-0.834 -0.044,-0.229 -0.081,-0.041 -0.081,0.417 m -11.629,12.593 c 0,7.18 0.023,10.118 0.051,6.527 0.028,-3.59 0.028,-9.465 0,-13.055 -0.028,-3.591 -0.051,-0.653 -0.051,6.528 m 53.385,2.36 c 1.145,0.033 3.02,0.033 4.166,0 1.146,-0.032 0.209,-0.059 -2.083,-0.059 -2.292,0 -3.229,0.027 -2.083,0.059 m -4.317,5.325 c 0,2.953 0.026,4.136 0.057,2.627 0.031,-1.508 0.031,-3.925 0,-5.37 -0.031,-1.445 -0.057,-0.211 -0.057,2.743 m 1.664,-1.111 c 0.001,2.342 0.027,3.275 0.059,2.073 0.033,-1.203 0.033,-3.12 0,-4.26 -0.032,-1.14 -0.059,-0.156 -0.059,2.187 m 94.18,3.498 c 0,0.04 0.286,0.106 0.635,0.146 0.35,0.041 0.595,0.009 0.545,-0.072 -0.089,-0.145 -1.18,-0.213 -1.18,-0.074 m -16.977,1.965 c 0,0.662 0.033,0.932 0.074,0.601 0.041,-0.331 0.041,-0.872 0,-1.203 -0.041,-0.331 -0.074,-0.06 -0.074,0.602 m -60.06,0.972 c 0,0.076 8.813,0.119 19.584,0.095 10.77,-0.025 16.416,-0.066 12.546,-0.093 -18.512,-0.127 -32.13,-0.128 -32.13,-0.002 m -67.874,17.824 c 0,9.472 0.023,13.32 0.05,8.551 0.028,-4.77 0.028,-12.52 0,-17.223 -0.027,-4.702 -0.05,-0.8 -0.05,8.672 m 39.634,-13.426 -0.741,0.133 0.683,0.026 c 0.376,0.014 0.735,-0.057 0.798,-0.159 0.063,-0.102 0.089,-0.173 0.058,-0.159 -0.032,0.015 -0.391,0.086 -0.798,0.159 m 87.987,6.051 c 0.116,0.084 0.256,0.319 0.312,0.523 0.081,0.292 0.095,0.276 0.068,-0.078 -0.019,-0.247 -0.159,-0.482 -0.312,-0.523 -0.183,-0.05 -0.206,-0.023 -0.068,0.078 m -81.182,0.939 18.472,0.049 v 0.924 0.924 l -18.379,0.049 -18.38,0.048 18.426,-10e-4 18.426,-0.002 v -1.018 -1.019 l -18.519,-0.001 -18.518,-0.001 18.472,0.048 m 82.442,8.103 c 0,2.75 0.026,3.9 0.058,2.557 0.031,-1.344 0.031,-3.594 0,-5 -0.032,-1.407 -0.058,-0.307 -0.058,2.443 m -75.553,-1.251 47.86,0.048 0.072,0.926 0.072,0.927 -0.016,-0.973 -0.016,-0.974 h -47.916 l -47.917,-0.001 47.861,0.047 m 47.933,6.436 c 0.001,0.509 0.037,0.695 0.08,0.414 0.042,-0.282 0.041,-0.698 -0.003,-0.926 -0.044,-0.228 -0.079,0.002 -0.077,0.512 m -105.718,3.333 c 0.001,1.833 0.028,2.558 0.062,1.611 0.034,-0.947 0.034,-2.447 0,-3.333 -0.034,-0.886 -0.062,-0.111 -0.062,1.722 m 132.387,1.019 c 0,0.56 0.035,0.789 0.077,0.509 0.042,-0.28 0.042,-0.739 0,-1.019 -0.042,-0.28 -0.077,-0.051 -0.077,0.51 m -116.676,0.138 c 3.234,0.029 8.525,0.029 11.759,0 3.234,-0.028 0.588,-0.051 -5.879,-0.051 -6.468,0 -9.114,0.023 -5.88,0.051 m -63.472,1.528 c 0.604,0.611 1.141,1.111 1.192,1.111 0.051,0 -0.402,-0.5 -1.007,-1.111 -0.605,-0.611 -1.141,-1.111 -1.192,-1.111 -0.051,0 0.402,0.5 1.007,1.111 m 180.889,2.037 c 0,0.56 0.034,0.79 0.077,0.51 0.042,-0.281 0.042,-0.739 0,-1.019 -0.043,-0.28 -0.077,-0.051 -0.077,0.509 m -177.926,0.926 c 0.604,0.611 1.141,1.111 1.192,1.111 0.051,0 -0.402,-0.5 -1.007,-1.111 -0.605,-0.611 -1.141,-1.111 -1.192,-1.111 -0.051,0 0.402,0.5 1.007,1.111 m 176.991,1.945 c 0.002,0.407 0.04,0.552 0.084,0.322 0.044,-0.231 0.043,-0.564 -0.004,-0.741 -0.046,-0.177 -0.082,0.011 -0.08,0.419 m -105.556,6.157 c 3.234,0.028 8.525,0.028 11.759,0 3.234,-0.028 0.588,-0.052 -5.88,-0.052 -6.467,0 -9.113,0.024 -5.879,0.052 m -38.148,8.878 c 0.178,0.046 0.47,0.046 0.648,0 0.178,-0.047 0.032,-0.085 -0.324,-0.085 -0.357,0 -0.503,0.038 -0.324,0.085 m 6.391,0.929 c 0.23,0.044 0.563,0.043 0.74,-0.004 0.178,-0.046 -0.011,-0.082 -0.418,-0.08 -0.408,0.002 -0.553,0.04 -0.322,0.084 m 37.127,0.378 c 14.641,0.026 38.6,0.026 53.241,0 14.641,-0.026 2.662,-0.047 -26.62,-0.047 -29.283,0 -41.262,0.021 -26.621,0.047 m 106.763,3.329 c 0.333,0.041 0.833,0.04 1.111,-0.002 0.278,-0.042 0.006,-0.076 -0.605,-0.075 -0.611,10e-4 -0.839,0.036 -0.506,0.077 m -1.91,2.736 0.008,2.778 1.714,0.011 1.713,0.011 -1.662,-0.064 -1.662,-0.065 -0.059,-2.724 -0.06,-2.725 0.008,2.778 m 4.065,0.278 c 0,1.68 0.028,2.368 0.063,1.528 0.034,-0.841 0.034,-2.216 0,-3.056 -0.035,-0.84 -0.063,-0.153 -0.063,1.528 m 7.958,0.648 c 10e-4,1.222 0.031,1.698 0.067,1.058 0.036,-0.641 0.036,-1.641 -0.001,-2.223 -0.036,-0.581 -0.066,-0.057 -0.066,1.165 m -96.413,0.787 c 2.878,0.029 7.586,0.029 10.463,0 2.877,-0.029 0.523,-0.052 -5.231,-0.052 -5.755,0 -8.109,0.023 -5.232,0.052 m 100.928,4.251 c 0.231,0.045 0.564,0.043 0.741,-0.003 0.177,-0.047 -0.011,-0.083 -0.419,-0.081 -0.407,0.002 -0.552,0.04 -0.322,0.084 m -122.117,0.564 c 10.983,0.026 28.9,0.026 39.815,0 10.916,-0.027 1.93,-0.048 -19.968,-0.048 -21.899,0 -30.829,0.021 -19.847,0.048" />
   </g>

</svg>
