<?xml version="1.0" encoding="UTF-8" standalone="no"?>
<svg xmlns:dc="http://purl.org/dc/elements/1.1/" xmlns:cc="http://creativecommons.org/ns#" xmlns:rdf="http://www.w3.org/1999/02/22-rdf-syntax-ns#" xmlns:svg="http://www.w3.org/2000/svg" xmlns="http://www.w3.org/2000/svg" viewBox="0 0 204.629 250.004" height="250.004" width="204.629" version="1.1" id="svg">
   <metadata id="metadata13">
      <rdf:RDF>
         <cc:Work rdf:about="">
            <dc:format>image/svg+xml</dc:format>
            <dc:type rdf:resource="http://purl.org/dc/dcmitype/StillImage" />
            <dc:title></dc:title>
         </cc:Work>
      </rdf:RDF>
   </metadata>
   <defs id="defs11" />
   <g transform="translate(-97.593,-75)" id="svgg-3">
      <path style="fill:#c0b2b2;fill-rule:evenodd;stroke:none" id="path0-65" d="m 132.682,135.043 c -0.048,0.129 -0.108,1.983 -0.135,4.119 l -0.047,3.885 -12.87,4.679 c -7.079,2.573 -13.808,5.022 -14.954,5.441 l -2.083,0.762 v 3.406 3.406 h 5.979 5.979 l 2.891,-1.019 c 1.59,-0.56 2.941,-1.018 3.002,-1.018 0.061,0 0.112,7.893 0.112,17.539 0,14.706 0.04,17.496 0.249,17.269 0.137,-0.149 1.949,-3.021 4.027,-6.382 l 3.779,-6.111 0.093,-12.66 0.092,-12.66 1.736,-0.627 c 0.955,-0.345 1.809,-0.628 1.898,-0.628 0.092,0 0.163,5.378 0.163,12.304 v 12.303 l 0.787,0.105 c 1.829,0.242 5.917,0.66 7.593,0.775 l 1.806,0.124 -0.047,-22.574 -0.047,-22.574 -4.958,-0.049 c -3.868,-0.038 -4.978,0.002 -5.045,0.185 m 124.667,-0.108 c -0.141,0.141 -0.178,44.952 -0.038,45.092 0.049,0.049 0.695,0.025 1.436,-0.055 0.74,-0.079 2.91,-0.313 4.822,-0.521 1.912,-0.207 3.558,-0.377 3.657,-0.377 0.117,0 0.181,-4.408 0.181,-12.315 0,-6.773 0.021,-12.313 0.047,-12.311 0.025,0.002 1.504,0.528 3.287,1.17 l 3.24,1.166 0.048,14.308 0.047,14.308 3.811,5.632 c 2.096,3.098 3.887,5.679 3.98,5.737 0.103,0.063 0.17,-7.28 0.17,-18.506 v -18.61 l 1.609,0.544 1.609,0.544 h 5.983 5.984 v -3.392 -3.392 l -7.453,-2.731 c -4.1,-1.502 -10.806,-3.954 -14.904,-5.45 l -7.449,-2.72 -0.051,-4.075 -0.05,-4.074 -4.92,-0.049 c -2.706,-0.027 -4.977,0.008 -5.046,0.077 m 15.429,74.062 c -0.435,0.103 -10.903,1.154 -13.889,1.395 -3.375,0.272 -1.086,-1.325 -18.817,13.127 -8.435,6.875 -16.047,13.077 -16.917,13.784 -5.639,4.581 -6.605,5.364 -6.812,5.526 -0.155,0.119 -0.34,0.098 -0.556,-0.066 -0.276,-0.209 -0.289,-0.206 -0.093,0.014 0.128,0.143 0.232,0.322 0.232,0.398 0,0.221 -7.623,6.331 -7.899,6.331 -0.137,0 -0.249,0.061 -0.249,0.135 0,0.188 -7.19,6.1 -7.419,6.1 -0.102,0 -1.87,-1.354 -3.93,-3.009 -2.059,-1.655 -4.018,-3.196 -4.354,-3.426 -0.829,-0.567 -7.646,-5.956 -8.03,-6.348 -0.168,-0.172 -9.229,-7.41 -20.135,-16.085 l -19.829,-15.773 -5.142,-0.465 c -2.829,-0.256 -7.055,-0.709 -9.393,-1.006 -2.338,-0.298 -4.271,-0.521 -4.295,-0.497 -0.025,0.025 4.888,3.967 10.917,8.76 6.029,4.793 17.087,13.588 24.573,19.545 7.486,5.956 14.535,11.532 15.665,12.391 3.064,2.329 7.455,5.807 7.464,5.913 0.004,0.051 -3.119,2.504 -6.941,5.451 -3.822,2.947 -7.001,5.442 -7.065,5.545 -0.063,0.103 0.587,-0.359 1.445,-1.025 5.627,-4.368 12.34,-9.545 12.525,-9.659 0.262,-0.162 8.474,6.349 8.256,6.547 -0.08,0.072 -7.604,6.209 -16.72,13.637 -9.115,7.428 -20.532,16.738 -25.37,20.689 -4.838,3.95 -13.158,10.737 -18.489,15.082 l -9.693,7.899 8.002,0.049 8.001,0.048 2.802,-2.261 c 1.542,-1.244 12.261,-9.97 23.821,-19.393 33.036,-26.926 35.963,-29.295 36.119,-29.237 0.18,0.065 1.95,1.466 20.178,15.97 7.893,6.28 21.001,16.707 29.127,23.17 l 14.775,11.751 8.182,-0.048 8.182,-0.049 -13.976,-11.098 c -16.334,-12.972 -20.92,-16.616 -30.473,-24.216 -3.88,-3.086 -11.764,-9.353 -17.52,-13.925 l -10.467,-8.314 1.965,-1.589 c 2.058,-1.665 2.775,-2.254 9.458,-7.77 2.261,-1.866 4.209,-3.355 4.327,-3.309 0.119,0.046 1.758,1.286 3.642,2.755 47.283,36.872 44.259,34.525 44.259,34.345 0,-0.049 -1.271,-1.077 -2.824,-2.286 -1.553,-1.209 -9.824,-7.658 -18.379,-14.331 -8.556,-6.673 -17.994,-14.031 -20.973,-16.352 -2.979,-2.32 -5.416,-4.288 -5.416,-4.373 0,-0.138 1.78,-1.616 10.164,-8.44 23.361,-19.011 38.871,-31.653 39.088,-31.859 0.274,-0.259 -0.304,-0.336 -1.104,-0.148 m -48.045,15.271 c -15.796,12.214 -16.807,13.005 -16.214,12.673 0.421,-0.236 32.592,-25.106 32.592,-25.196 0,-0.141 0.055,-0.183 -16.378,12.523 m -35.196,14.361 c -2.87,2.232 -3.03,2.488 -0.278,0.444 2.644,-1.963 2.734,-2.037 2.491,-2.032 -0.097,0.002 -1.093,0.716 -2.213,1.588 m -20.833,28.893 c -0.459,0.357 -0.959,0.783 -1.111,0.945 -0.153,0.162 0.243,-0.099 0.879,-0.579 0.637,-0.48 1.158,-0.909 1.158,-0.954 0,-0.129 -0.044,-0.101 -0.926,0.588 m -2.871,2.218 c -0.713,0.561 -1.421,1.154 -1.574,1.318 -0.153,0.163 0.413,-0.229 1.257,-0.872 1.325,-1.009 1.886,-1.504 1.671,-1.474 -0.032,0.004 -0.641,0.467 -1.354,1.028 m -4.576,3.558 c -1.396,1.091 -2.646,2.105 -2.777,2.254 -0.178,0.201 -0.144,0.197 0.131,-0.018 0.204,-0.159 1.475,-1.143 2.824,-2.186 2.103,-1.626 2.647,-2.088 2.408,-2.043 -0.026,0.005 -1.189,0.901 -2.586,1.993 m -9.776,7.561 c -7.705,5.975 -7.58,5.876 -7.222,5.694 0.389,-0.197 13.889,-10.626 13.889,-10.729 0,-0.137 0.14,-0.243 -6.667,5.035" />
      <path style="fill:#757575;fill-opacity:1;fill-rule:evenodd;stroke:none" id="path1-6" d="m 125.37,107.488 v 27.488 l 74.121,-0.034 74.12,-0.035 0.047,-27.453 L 273.705,80 H 199.538 125.37 v 27.488 M 185.556,85.66 c 0,1.28 -1.535,3.011 -3.468,3.912 -0.999,0.465 -2.586,2.339 -4.09,4.826 -0.687,1.138 -0.692,1.133 0.462,0.426 1.213,-0.744 2.792,-1.342 2.934,-1.111 0.458,0.74 -2.39,3.243 -4.212,3.701 -1.133,0.285 -1.855,2.146 -2.26,5.827 l -0.102,0.926 0.342,-0.741 c 0.429,-0.93 1.968,-2.981 2.346,-3.126 1.148,-0.44 -0.172,3.323 -1.728,4.926 l -0.848,0.874 0.215,1.348 c 0.119,0.742 0.417,1.973 0.664,2.737 l 0.449,1.389 0.018,-1.124 c 0.035,-2.12 1.051,-4.066 1.529,-2.928 0.413,0.981 0.31,4.289 -0.164,5.316 l -0.413,0.894 0.478,0.958 c 0.419,0.84 2.814,4.569 2.934,4.569 0.024,0 -0.068,-0.435 -0.206,-0.966 -0.327,-1.259 -0.329,-2.367 -0.005,-2.367 0.748,0 1.67,1.916 1.983,4.12 0.214,1.506 0.376,1.738 2.197,3.125 1.497,1.141 1.548,1.132 0.922,-0.162 -1.138,-2.353 -0.512,-2.999 0.985,-1.017 0.482,0.637 0.97,1.512 1.085,1.945 0.328,1.232 0.412,1.314 1.814,1.787 0.728,0.245 1.324,0.516 1.324,0.601 0,0.593 -3.774,-0.787 -5.648,-2.065 -0.533,-0.363 -0.845,-0.464 -1.112,-0.359 -1.653,0.655 -6.035,-0.859 -5.244,-1.811 0.265,-0.32 2.428,-0.234 3.397,0.134 0.453,0.172 0.394,0.057 -0.498,-0.968 -0.557,-0.64 -1.424,-1.705 -1.926,-2.367 -0.906,-1.194 -0.92,-1.203 -1.734,-1.145 -1.56,0.111 -3.126,-0.854 -3.924,-2.416 -0.671,-1.316 0.47,-1.432 2.454,-0.25 0.615,0.366 1.086,0.603 1.047,0.525 -0.783,-1.526 -1.826,-3.843 -2.013,-4.47 -0.196,-0.655 -0.37,-0.865 -0.897,-1.085 -1.697,-0.71 -2.986,-2.102 -3.531,-3.815 -0.495,-1.557 1.085,-1.046 2.587,0.837 0.46,0.577 0.849,1.035 0.864,1.017 0.016,-0.017 -0.061,-0.797 -0.169,-1.732 -0.13,-1.121 -0.138,-2.237 -0.024,-3.273 0.171,-1.558 0.168,-1.576 -0.333,-2.137 -1.075,-1.203 -1.394,-4.068 -0.576,-5.166 0.87,-1.166 1.268,-0.646 1.457,1.903 l 0.122,1.664 0.508,-1.386 c 0.279,-0.762 0.776,-1.917 1.105,-2.567 l 0.599,-1.181 -0.463,-1.041 c -0.997,-2.242 -0.384,-6.69 0.922,-6.69 0.495,0 0.759,4.1 0.38,5.914 -0.124,0.594 -0.083,0.565 0.631,-0.463 0.419,-0.604 1.158,-1.557 1.64,-2.117 0.483,-0.56 1.025,-1.31 1.206,-1.667 0.775,-1.533 1.623,-2.277 2.969,-2.604 0.868,-0.212 1.019,-0.195 1.019,0.116 m 31.041,0.374 c 0.477,0.272 0.992,0.805 1.368,1.414 0.691,1.119 0.701,1.133 2.671,3.696 0.808,1.051 1.407,1.746 1.331,1.543 -0.223,-0.596 -0.348,-4.565 -0.17,-5.371 0.242,-1.096 0.663,-1.053 1.234,0.128 0.991,2.049 1.044,3.766 0.177,5.727 l -0.46,1.042 0.497,0.981 c 0.274,0.54 0.771,1.69 1.106,2.556 l 0.609,1.576 0.134,-1.787 c 0.14,-1.86 0.384,-2.494 0.887,-2.301 1.343,0.515 1.331,4.197 -0.018,5.707 -0.501,0.561 -0.504,0.579 -0.333,2.137 0.114,1.036 0.106,2.152 -0.024,3.273 -0.108,0.935 -0.185,1.715 -0.169,1.732 0.015,0.018 0.403,-0.44 0.86,-1.018 1.437,-1.813 3.069,-2.34 2.591,-0.836 -0.545,1.711 -1.753,3.05 -3.381,3.748 -0.689,0.296 -0.84,0.462 -1.046,1.154 -0.133,0.445 -0.639,1.655 -1.126,2.689 l -0.884,1.879 1.043,-0.629 c 1.933,-1.166 3.111,-1.035 2.445,0.271 -0.774,1.516 -2.209,2.422 -3.85,2.429 -0.957,0.004 -0.974,0.014 -1.729,1.037 -0.42,0.568 -1.253,1.602 -1.852,2.298 l -1.09,1.266 0.679,-0.188 c 0.84,-0.232 2.928,-0.295 3.13,-0.095 0.725,0.72 -2.162,2.039 -4.222,1.93 -1.37,-0.072 -1.683,-0.033 -2.13,0.271 -1.553,1.057 -4.381,2.188 -5.469,2.188 -0.711,0 -0.268,-0.298 1.1,-0.74 1.269,-0.411 1.449,-0.526 1.59,-1.019 0.465,-1.621 2.045,-3.981 2.665,-3.981 0.406,0 0.218,1.245 -0.365,2.424 -0.528,1.066 -0.526,1.068 0.478,0.374 1.969,-1.36 2.481,-1.971 2.614,-3.119 0.179,-1.531 0.809,-3.337 1.393,-3.99 0.89,-0.996 1.182,-0.246 0.671,1.724 -0.144,0.557 -0.243,1.032 -0.218,1.056 0.074,0.075 2.637,-3.882 3.057,-4.719 l 0.394,-0.787 -0.42,-0.787 c -0.513,-0.96 -0.623,-4.684 -0.162,-5.499 l 0.256,-0.453 0.423,0.531 c 0.497,0.623 0.814,1.757 0.84,3.003 l 0.018,0.89 0.451,-1.376 c 0.248,-0.757 0.549,-1.945 0.668,-2.641 l 0.217,-1.264 -0.862,-0.878 c -1.305,-1.331 -2.629,-4.558 -2.023,-4.933 0.312,-0.193 1.665,1.351 2.415,2.756 l 0.394,0.738 v -0.683 c 0,-0.919 -0.302,-2.352 -0.855,-4.06 l -0.459,-1.416 -0.871,-0.217 c -1.957,-0.488 -5.002,-3.254 -4.157,-3.776 0.215,-0.133 2.172,0.714 3.105,1.344 l 0.834,0.563 -0.307,-0.597 c -1.267,-2.466 -3.204,-4.728 -4.742,-5.539 -1.604,-0.846 -2.051,-1.258 -2.64,-2.441 -0.848,-1.701 -0.24,-2.038 1.689,-0.935 m -87.409,93.794 c -0.368,0.618 -0.669,1.161 -0.669,1.206 0,0.125 -7.436,12.168 -7.722,12.506 -1.043,1.231 -8.104,13.053 -7.879,13.19 3.069,1.857 30.997,4.842 51.434,5.497 3.259,0.104 8.319,0.282 11.244,0.394 6.424,0.246 44.214,0.096 47.83,-0.19 1.324,-0.104 6.074,-0.323 10.555,-0.486 8.315,-0.301 18.559,-0.878 21.389,-1.204 0.866,-0.1 2.616,-0.269 3.889,-0.377 1.273,-0.107 4.732,-0.446 7.685,-0.752 2.954,-0.306 6.204,-0.631 7.223,-0.724 3.671,-0.332 13.939,-1.92 14.217,-2.198 0.081,-0.081 -1.377,-2.372 -3.239,-5.092 -1.862,-2.721 -5.111,-7.464 -7.22,-10.541 -2.109,-3.077 -3.838,-5.66 -3.843,-5.74 -0.009,-0.16 -3.988,-6.007 -4.349,-6.39 -0.184,-0.196 -0.578,-0.189 -2.155,0.037 -1.662,0.239 -4.898,0.608 -8.226,0.94 -0.509,0.05 -1.593,0.137 -2.408,0.192 -0.814,0.056 -2.731,0.222 -4.259,0.37 -8.239,0.796 -23.826,1.893 -33.426,2.351 -6.439,0.307 -30.124,0.302 -36.574,-0.008 -12.232,-0.588 -19.963,-1.091 -30.648,-1.995 -4.227,-0.357 -8.852,-0.73 -10.278,-0.829 -2.606,-0.181 -8.036,-0.759 -10.278,-1.094 -0.662,-0.099 -1.298,-0.182 -1.413,-0.184 -0.115,-0.002 -0.511,0.503 -0.88,1.121" />
      <path style="fill:#32302c;fill-rule:evenodd;stroke:none" id="path2-3" d="m 183.796,85.906 c -0.884,0.407 -1.341,0.887 -2.123,2.224 -0.322,0.55 -0.985,1.467 -1.474,2.037 -0.489,0.57 -1.199,1.495 -1.579,2.055 l -0.69,1.019 0.129,-1.297 c 0.314,-3.158 0.046,-5.779 -0.542,-5.292 -1.178,0.978 -1.554,4.855 -0.638,6.587 l 0.488,0.925 -0.657,1.297 c -0.361,0.714 -0.889,1.965 -1.173,2.78 -0.284,0.815 -0.524,1.398 -0.533,1.296 -0.01,-0.102 -0.091,-1.009 -0.181,-2.015 -0.23,-2.583 -1.163,-2.989 -1.686,-0.734 -0.293,1.264 0.624,4.508 1.274,4.508 0.075,0 0.134,1.313 0.131,2.917 -0.003,1.604 0.064,3.292 0.149,3.75 l 0.154,0.833 -0.503,-0.74 c -1.138,-1.677 -2.808,-3.009 -3.225,-2.573 -0.625,0.653 1.758,3.792 3.328,4.384 0.788,0.297 0.86,0.384 1.283,1.566 0.247,0.689 0.803,1.959 1.236,2.823 0.942,1.877 0.982,1.791 -0.435,0.932 -2.046,-1.241 -3.02,-1.113 -2.275,0.298 0.759,1.438 2.666,2.45 4.092,2.17 0.415,-0.082 0.606,0.08 1.509,1.279 0.568,0.756 1.521,1.903 2.117,2.55 0.597,0.649 0.917,1.11 0.713,1.028 -1.112,-0.446 -3.981,-0.678 -3.981,-0.323 0,0.983 3.357,2.141 4.957,1.71 0.744,-0.2 0.834,-0.18 1.63,0.368 1.151,0.792 3,1.609 4.359,1.926 1.426,0.333 1.261,0.156 -0.423,-0.453 l -1.309,-0.474 -0.329,-1.063 C 187.044,122.441 185,119.9 185,120.985 c 0,0.553 0.585,2.155 1.022,2.798 l 0.467,0.69 -0.7,-0.394 c -1.884,-1.059 -3.381,-2.559 -3.384,-3.389 -0.005,-2.009 -1.582,-5.461 -2.107,-4.612 -0.127,0.206 0.173,2.218 0.431,2.883 0.114,0.294 0.171,0.571 0.127,0.615 -0.112,0.112 -2.774,-3.929 -3.277,-4.977 l -0.416,-0.865 0.435,-0.987 c 0.64,-1.456 0.55,-5.247 -0.13,-5.474 -0.46,-0.153 -1.058,1.659 -1.068,3.236 -0.006,0.841 -0.028,1.528 -0.049,1.528 -0.122,0 -1.158,-3.631 -1.337,-4.686 l -0.213,-1.259 0.852,-0.829 c 1.275,-1.238 2.749,-4.893 1.974,-4.893 -0.321,0 -1.553,1.564 -2.226,2.825 l -0.618,1.157 0.113,-1.381 c 0.234,-2.846 1.178,-5.564 1.933,-5.564 1.265,0 5.053,-3.007 4.493,-3.567 -0.244,-0.243 -1.852,0.399 -3.17,1.267 -1.079,0.711 -1.088,0.604 -0.083,-0.986 1.725,-2.729 2.896,-4.061 4.084,-4.647 1.726,-0.851 3.403,-2.739 3.403,-3.831 0,-0.211 -1.083,-0.05 -1.76,0.263 m 30.748,0.066 c 0.431,1.445 1.495,2.593 3.215,3.466 1.122,0.57 1.596,1.02 2.753,2.615 0.762,1.049 2.266,3.437 2.266,3.596 0,0.048 -0.453,-0.203 -1.007,-0.557 -1.516,-0.97 -3.252,-1.616 -3.252,-1.21 0,0.859 3.513,3.525 4.645,3.525 0.745,0 1.681,2.714 1.927,5.59 l 0.116,1.355 -0.489,-0.921 c -0.924,-1.744 -2.126,-3.197 -2.468,-2.985 -0.564,0.348 1.084,4.055 2.202,4.952 0.843,0.678 0.846,0.818 0.082,3.769 -0.748,2.885 -0.968,3.219 -0.961,1.461 0.005,-1.558 -0.583,-3.406 -1.084,-3.406 -0.666,0 -0.728,4.055 -0.084,5.525 l 0.432,0.987 -0.415,0.865 c -0.447,0.932 -3.171,5.084 -3.27,4.985 -0.033,-0.033 0.065,-0.49 0.219,-1.015 0.154,-0.524 0.254,-1.355 0.223,-1.845 l -0.057,-0.891 -0.483,0.475 c -0.653,0.642 -1.283,2.399 -1.412,3.942 l -0.106,1.27 -1.312,1.082 c -0.722,0.596 -1.628,1.261 -2.014,1.478 l -0.702,0.394 0.545,-0.86 c 0.55,-0.866 1.088,-2.609 0.873,-2.824 -0.389,-0.389 -2.258,2.206 -2.622,3.638 -0.213,0.839 -0.221,0.846 -1.583,1.31 -1.565,0.532 -1.554,0.528 -1.433,0.649 0.327,0.327 4.421,-1.294 5.663,-2.241 0.537,-0.41 0.679,-0.439 1.298,-0.267 1.451,0.403 3.203,0.021 4.388,-0.955 1.235,-1.018 -0.53,-1.255 -3.23,-0.433 -0.381,0.117 -0.296,-0.033 0.489,-0.851 0.524,-0.545 1.457,-1.655 2.075,-2.465 l 1.122,-1.474 1.08,-0.028 c 1.896,-0.05 3.938,-1.637 3.938,-3.06 0,-0.423 -1.602,-0.052 -2.713,0.627 -1.331,0.814 -1.303,0.891 -0.362,-0.984 0.433,-0.864 0.988,-2.129 1.232,-2.811 0.418,-1.169 0.493,-1.26 1.281,-1.56 1.172,-0.448 2.635,-1.964 3.11,-3.225 0.795,-2.108 -0.831,-1.492 -2.7,1.023 -0.78,1.049 -0.819,1.076 -0.668,0.465 0.089,-0.356 0.169,-2 0.18,-3.653 0.015,-2.435 0.074,-3.067 0.307,-3.333 1.218,-1.389 1.49,-4.48 0.487,-5.547 -0.767,-0.817 -0.896,-0.418 -1.268,3.922 -0.008,0.102 -0.29,-0.565 -0.624,-1.481 -0.335,-0.917 -0.864,-2.168 -1.175,-2.779 l -0.565,-1.113 0.488,-0.924 c 0.916,-1.733 0.54,-5.61 -0.638,-6.588 -0.601,-0.498 -0.866,1.935 -0.557,5.107 l 0.144,1.482 -0.777,-1.111 c -0.428,-0.611 -1.173,-1.57 -1.656,-2.13 -0.484,-0.561 -1.054,-1.362 -1.268,-1.781 -0.828,-1.624 -2.15,-2.649 -3.428,-2.659 -0.455,-0.004 -0.506,0.049 -0.397,0.412" />
      <path style="fill:#9b7638;fill-rule:evenodd;stroke:none" id="path3-94" d="m 178.191,88.333 c 0,0.357 0.038,0.503 0.085,0.324 0.046,-0.178 0.046,-0.47 0,-0.648 -0.047,-0.178 -0.085,-0.032 -0.085,0.324 m 0.008,1.852 c 0,0.459 0.036,0.646 0.08,0.417 0.044,-0.229 0.044,-0.604 0,-0.833 -0.044,-0.23 -0.08,-0.042 -0.08,0.416 m 43.518,0.185 c 0,0.459 0.036,0.646 0.08,0.417 0.044,-0.229 0.044,-0.604 0,-0.833 -0.044,-0.229 -0.08,-0.042 -0.08,0.416 m -45.555,0.186 c 0,0.458 0.036,0.645 0.08,0.416 0.044,-0.229 0.044,-0.604 0,-0.833 -0.044,-0.229 -0.08,-0.042 -0.08,0.417 m 47.588,-0.093 c 0.002,0.407 0.04,0.552 0.085,0.322 0.044,-0.23 0.042,-0.564 -0.004,-0.741 -0.046,-0.177 -0.083,0.012 -0.081,0.419 m -45.762,1.702 c -0.029,0.468 0.256,0.721 0.454,0.402 0.08,-0.13 0.054,-0.167 -0.067,-0.093 -0.116,0.072 -0.234,-0.053 -0.281,-0.295 -0.08,-0.417 -0.081,-0.417 -0.106,-0.014 m 43.885,0.022 c -0.013,0.273 -0.099,0.38 -0.235,0.295 -0.138,-0.085 -0.163,-0.05 -0.072,0.098 0.202,0.327 0.528,-0.046 0.417,-0.477 -0.071,-0.276 -0.092,-0.26 -0.11,0.084 m -2.151,3.369 c 0.502,0.509 0.954,0.925 1.005,0.925 0.051,0 -0.318,-0.416 -0.82,-0.925 -0.501,-0.51 -0.953,-0.926 -1.004,-0.926 -0.051,0 0.318,0.416 0.819,0.926 m -39.638,0.046 -0.732,0.787 0.787,-0.732 c 0.732,-0.681 0.872,-0.842 0.732,-0.842 -0.03,0 -0.385,0.354 -0.787,0.787 m 44.959,2.546 c 0,0.357 0.038,0.502 0.085,0.324 0.046,-0.178 0.046,-0.47 0,-0.648 -0.047,-0.178 -0.085,-0.032 -0.085,0.324 m -50.225,4.83 c 10e-4,0.247 0.084,0.573 0.185,0.726 0.128,0.195 0.146,0.085 0.063,-0.371 -0.147,-0.798 -0.252,-0.949 -0.248,-0.355 m 50.142,0.355 c -0.044,0.306 -0.012,0.556 0.072,0.556 0.084,0 0.153,-0.25 0.153,-0.556 0,-0.305 -0.032,-0.555 -0.071,-0.555 -0.04,0 -0.109,0.25 -0.154,0.555 m -50.636,1.297 c 0,0.865 0.032,1.22 0.071,0.787 0.039,-0.433 0.039,-1.142 0,-1.574 -0.039,-0.433 -0.071,-0.079 -0.071,0.787 m 51.296,0 c 0,0.865 0.032,1.22 0.071,0.787 0.039,-0.433 0.039,-1.142 0,-1.574 -0.039,-0.433 -0.071,-0.079 -0.071,0.787 m -50.583,1.148 c -0.122,0.122 -0.213,0.393 -0.201,0.602 0.021,0.372 0.024,0.372 0.113,0.009 0.05,-0.204 0.175,-0.475 0.279,-0.602 0.24,-0.295 0.102,-0.302 -0.191,-0.009 m -2.074,0.611 c 0.345,0.356 0.67,0.648 0.721,0.648 0.051,0 -0.19,-0.292 -0.536,-0.648 -0.345,-0.357 -0.67,-0.648 -0.721,-0.648 -0.051,0 0.19,0.291 0.536,0.648 m 53.879,0.046 -0.638,0.695 0.694,-0.639 c 0.647,-0.594 0.78,-0.75 0.638,-0.75 -0.031,0 -0.343,0.312 -0.694,0.694 m -52.354,1.883 c 0.122,0.161 0.246,0.328 0.274,0.37 0.029,0.043 0.053,-0.089 0.053,-0.293 0,-0.204 -0.124,-0.37 -0.275,-0.37 -0.221,0 -0.231,0.057 -0.052,0.293 m 49.033,3.117 c -10e-4,0.331 0.029,0.602 0.069,0.602 0.168,0 0.239,-0.722 0.094,-0.952 -0.109,-0.171 -0.161,-0.059 -0.163,0.35 m -3.845,5.324 c 0.002,0.408 0.04,0.553 0.085,0.322 0.044,-0.23 0.042,-0.564 -0.004,-0.741 -0.046,-0.177 -0.083,0.012 -0.081,0.419 m -2.241,4.064 c -0.015,0.301 -0.254,0.799 -0.533,1.111 l -0.505,0.566 0.613,-0.574 c 0.485,-0.455 0.596,-0.686 0.533,-1.111 l -0.08,-0.537 -0.028,0.545 m -35.006,0.207 c -0.012,0.215 0.241,0.62 0.58,0.926 l 0.602,0.544 -0.491,-0.556 c -0.27,-0.305 -0.531,-0.722 -0.581,-0.925 -0.086,-0.361 -0.089,-0.361 -0.11,0.011 m 31.541,0.313 -0.544,0.601 0.602,-0.543 c 0.561,-0.507 0.687,-0.66 0.544,-0.66 -0.032,0 -0.303,0.271 -0.602,0.602 m 3.715,0.509 c -0.398,0.407 -0.623,0.741 -0.5,0.741 0.122,0 0.222,-0.081 0.222,-0.18 0,-0.098 0.105,-0.154 0.232,-0.123 0.127,0.031 0.162,0.019 0.077,-0.026 -0.084,-0.045 0.077,-0.323 0.359,-0.618 0.282,-0.294 0.472,-0.535 0.423,-0.535 -0.049,0 -0.415,0.333 -0.813,0.741 m -35.691,-0.172 c 0.229,0.263 0.354,0.547 0.276,0.632 -0.077,0.085 -0.043,0.099 0.075,0.031 0.119,-0.068 0.253,-0.018 0.299,0.11 0.046,0.127 0.135,0.185 0.198,0.127 0.064,-0.058 -0.195,-0.391 -0.574,-0.741 -0.38,-0.349 -0.503,-0.421 -0.274,-0.159 m -2.688,0.304 c 0.28,0.043 0.738,0.043 1.018,0 0.28,-0.042 0.051,-0.077 -0.509,-0.077 -0.56,0 -0.79,0.035 -0.509,0.077 m 40.555,-0.004 c 0.178,0.046 0.47,0.046 0.648,0 0.179,-0.047 0.033,-0.085 -0.324,-0.085 -0.356,0 -0.502,0.038 -0.324,0.085 m 18.704,89.814 c 0.178,0.047 0.47,0.047 0.648,0 0.178,-0.046 0.032,-0.084 -0.324,-0.084 -0.357,0 -0.502,0.038 -0.324,0.084 m -4.074,0.19 c 0.28,0.043 0.738,0.043 1.018,0 0.28,-0.042 0.051,-0.077 -0.509,-0.077 -0.56,0 -0.789,0.035 -0.509,0.077 m -72.683,0.184 c 0.23,0.044 0.563,0.043 0.74,-0.004 0.178,-0.046 -0.011,-0.082 -0.418,-0.08 -0.408,0.002 -0.553,0.04 -0.322,0.084 m 68.146,0 c 0.229,0.044 0.604,0.044 0.833,0 0.229,-0.044 0.042,-0.081 -0.417,-0.081 -0.458,0 -0.645,0.037 -0.416,0.081 m -64.072,0.185 c 0.23,0.044 0.563,0.043 0.741,-0.004 0.177,-0.046 -0.012,-0.082 -0.419,-0.08 -0.408,0.002 -0.553,0.04 -0.322,0.084 m 59.075,0.003 c 0.333,0.042 0.833,0.041 1.111,-0.001 0.278,-0.043 0.006,-0.076 -0.605,-0.075 -0.611,0.001 -0.839,0.035 -0.506,0.076 m -53.518,0.186 c 0.332,0.041 0.832,0.04 1.111,-0.002 0.278,-0.043 0.006,-0.076 -0.606,-0.075 -0.611,0.001 -0.838,0.035 -0.505,0.077" />
      <path style="fill:#867c7c;fill-rule:evenodd;stroke:none" id="path4-81" d="m 239.259,211.773 c -0.153,0.035 -3.733,0.199 -7.957,0.364 -4.224,0.164 -7.766,0.35 -7.871,0.412 -0.246,0.147 -21.615,16.577 -22.608,17.383 l -0.752,0.61 -6.47,-5.041 c -3.559,-2.773 -8.722,-6.798 -11.472,-8.945 l -5,-3.903 -5.092,-0.129 c -2.801,-0.071 -6.669,-0.21 -8.595,-0.309 -1.926,-0.099 -3.528,-0.154 -3.559,-0.122 -0.032,0.031 2.628,2.145 5.91,4.697 23.818,18.525 25.909,20.173 25.85,20.373 -0.04,0.138 -6.695,5.216 -7.372,5.625 -0.262,0.158 -0.262,0.197 0.003,0.406 5.517,4.366 7.814,6.167 7.916,6.204 0.069,0.026 1.857,-1.29 3.972,-2.925 2.341,-1.808 3.933,-2.918 4.067,-2.835 0.121,0.075 1.917,1.454 3.991,3.066 2.219,1.724 3.861,2.876 3.989,2.8 0.555,-0.332 7.717,-6.207 7.717,-6.331 0,-0.236 -0.876,-0.971 -4.322,-3.63 -1.816,-1.401 -3.233,-2.612 -3.148,-2.689 0.085,-0.077 7.363,-5.702 16.174,-12.5 8.81,-6.797 16.097,-12.433 16.194,-12.523 0.168,-0.157 -0.951,-0.198 -1.565,-0.058 M 166.102,256.8 c -5.245,4.052 -9.826,7.593 -10.18,7.87 -0.355,0.276 -1.603,1.24 -2.774,2.14 -1.171,0.901 -5.296,4.093 -9.167,7.094 -3.87,3.001 -9.183,7.114 -11.806,9.14 -2.622,2.026 -4.732,3.72 -4.687,3.765 0.046,0.046 3.789,0.021 8.32,-0.054 l 8.237,-0.137 10.431,-8.066 c 5.737,-4.436 11.73,-9.07 13.316,-10.299 1.587,-1.229 5.856,-4.526 9.486,-7.327 3.63,-2.801 6.597,-5.134 6.593,-5.185 -0.011,-0.152 -7.744,-6.199 -7.999,-6.256 -0.129,-0.029 -4.526,3.263 -9.77,7.315 m 54.144,-4.054 c -2.055,1.698 -3.787,3.139 -3.85,3.202 -0.089,0.09 10.767,8.683 18.697,14.797 1.333,1.028 5.522,4.298 15.131,11.81 l 5.503,4.301 8.12,-0.049 8.121,-0.048 -6.294,-4.907 c -3.461,-2.699 -14.174,-11.053 -23.806,-18.565 -9.632,-7.512 -17.597,-13.651 -17.7,-13.643 -0.102,0.008 -1.868,1.404 -3.922,3.102" />
   </g>
</svg>
