<?xml version="1.0" encoding="UTF-8" standalone="no"?>
<svg xmlns:dc="http://purl.org/dc/elements/1.1/" xmlns:cc="http://creativecommons.org/ns#" xmlns:rdf="http://www.w3.org/1999/02/22-rdf-syntax-ns#" xmlns:svg="http://www.w3.org/2000/svg" xmlns="http://www.w3.org/2000/svg" viewBox="0 0 249.57126 220.1314" height="220.13141" width="249.57126" version="1.1" id="svg">
   <metadata id="metadata13">
      <rdf:RDF>
         <cc:Work rdf:about="">
            <dc:format>image/svg+xml</dc:format>
            <dc:type rdf:resource="http://purl.org/dc/dcmitype/StillImage" />
            <dc:title></dc:title>
         </cc:Work>
      </rdf:RDF>
   </metadata>
   <defs id="defs11" />
   <g transform="translate(-1205.4548,-451.64377)" style="display:inline" id="layer2">
      <a transform="translate(-484.18837,517.74598)" id="a1440">
         <g id="svgg-9" transform="translate(447.29718,-78.993193)">
            <path d="m 284.722,195.87 c -21.778,13.079 -56.972,22.214 -98.611,25.596 -8.324,0.676 -12.597,0.862 -12.789,0.559 -0.516,-0.816 0.109,0.646 1.905,4.456 1.241,2.634 9.237,20.783 9.179,20.835 -0.03,0.027 -0.783,0.364 -1.674,0.749 -0.892,0.386 -1.586,0.735 -1.544,0.777 0.086,0.087 3.875,0.064 6.775,-0.04 1.069,-0.039 4.111,-0.119 6.759,-0.179 2.648,-0.06 6.398,-0.149 8.334,-0.197 3.528,-0.09 8.3,-0.203 15.555,-0.37 2.139,-0.05 5.681,-0.133 7.87,-0.184 2.19,-0.052 6.065,-0.136 8.612,-0.187 8.261,-0.165 13.452,-0.28 16.759,-0.37 1.782,-0.049 5.282,-0.132 7.778,-0.185 4.635,-0.099 8.616,-0.194 15.833,-0.379 2.241,-0.058 10.772,-0.264 18.959,-0.458 8.187,-0.194 14.921,-0.389 14.965,-0.433 0.044,-0.044 -3.996,-9.318 -8.979,-20.609 -4.983,-11.291 -10.05,-22.797 -11.261,-25.57 -1.212,-2.772 -2.244,-5.039 -2.295,-5.038 -0.051,0.002 -1.009,0.554 -2.13,1.227 M 86.063,241.435 c 1.514,21.623 24.183,34.795 44.471,25.84 1.285,-0.567 2.59,-1.124 2.901,-1.237 l 0.564,-0.205 -3.833,-8.704 c -2.109,-4.787 -4.027,-9.219 -4.263,-9.849 -0.272,-0.726 -0.499,-1.09 -0.62,-0.993 -0.105,0.085 -1.065,0.287 -2.135,0.449 -12.874,1.95 -24.789,0.11 -35.176,-5.432 -2.141,-1.142 -1.999,-1.152 -1.909,0.131" id="path0-3" style="fill:#999999;fill-opacity:1;fill-rule:evenodd;stroke:none" />
            <path d="m 158.148,234.145 c -25.139,11.086 -31.728,14.003 -31.802,14.077 -0.037,0.037 1.531,3.681 3.485,8.099 3.197,7.228 4.633,10.561 5.198,12.059 0.106,0.28 0.295,0.509 0.421,0.509 0.242,0 6.92,-2.902 7.235,-3.144 0.212,-0.163 29.83,-13.2 33.056,-14.55 1.171,-0.49 3.046,-1.325 4.166,-1.856 1.121,-0.531 2.598,-1.218 3.284,-1.528 l 1.247,-0.563 -0.892,-2.003 c -0.491,-1.103 -2.543,-5.733 -4.56,-10.291 -2.018,-4.558 -3.719,-8.286 -3.781,-8.284 -0.062,0.001 -7.737,3.365 -17.057,7.475" id="path1-90" style="fill:#5d5959;fill-rule:evenodd;stroke:none" />
            <path d="m 272.184,134.986 c -0.48,0.067 -0.926,0.175 -0.991,0.241 -0.066,0.065 3.732,8.854 8.438,19.529 4.707,10.676 11.106,25.202 14.219,32.281 3.114,7.079 5.686,12.903 5.716,12.943 0.194,0.261 3.895,-3.305 5.553,-5.35 16.868,-20.818 6.447,-52.205 -19.518,-58.785 -3.568,-0.904 -10.099,-1.322 -13.417,-0.859 M 172.037,252.77 c -0.866,0.39 -7.821,3.473 -15.456,6.849 -7.636,3.377 -13.9,6.156 -13.92,6.177 -0.021,0.021 1.085,3.705 2.457,8.186 1.372,4.481 3.783,12.355 5.356,17.498 3.637,11.886 4.148,12.945 7.332,15.181 4.65,3.266 10.746,2.587 18.716,-2.084 4.576,-2.681 7.676,-8.586 7.507,-14.299 l -0.071,-2.408 -5.081,-17.915 c -2.794,-9.853 -5.122,-17.911 -5.173,-17.905 -0.051,0.005 -0.801,0.329 -1.667,0.72" id="path2-8" style="fill:#ece5dd;fill-opacity:1;fill-rule:evenodd;stroke:none" />
            <path d="m 237.94,97.264 c -2.187,2.269 -12.135,12.667 -22.108,23.106 -9.972,10.44 -20.765,21.732 -23.984,25.093 -18.543,19.36 -38.329,40.1 -38.329,40.176 0,0.048 0.68,-0.204 1.512,-0.56 0.832,-0.356 1.576,-0.582 1.654,-0.502 0.078,0.08 3.654,8.104 7.946,17.83 4.292,9.727 8.018,18.165 8.278,18.75 l 0.475,1.065 h 0.957 c 0.527,0 2.87,-0.125 5.207,-0.279 44.515,-2.925 81.808,-12.171 105.213,-26.084 l 2.076,-1.234 -0.342,-0.785 c -0.188,-0.431 -1.798,-4.076 -3.577,-8.099 -1.78,-4.023 -11.675,-26.44 -21.99,-49.815 -10.314,-23.375 -18.811,-42.565 -18.882,-42.644 -0.071,-0.079 -1.919,1.713 -4.106,3.982 M 107.5,208.888 c -0.407,0.194 -1.906,0.902 -3.331,1.574 -9.457,4.461 -15.596,12.269 -17.788,22.622 -0.348,1.646 -0.607,7.286 -0.334,7.286 0.096,0 0.962,0.421 1.925,0.934 10.388,5.542 22.264,7.377 35.176,5.433 1.07,-0.16 2.004,-0.348 2.078,-0.416 0.201,-0.188 -16.422,-37.703 -16.726,-37.747 -0.143,-0.02 -0.593,0.121 -1,0.314 m -21.521,32.686 c 0.001,0.509 0.037,0.696 0.08,0.414 0.042,-0.281 0.041,-0.698 -0.003,-0.926 -0.044,-0.227 -0.078,0.003 -0.077,0.512 m 221.197,4.488 c 0.433,0.039 1.141,0.039 1.574,0 0.433,-0.039 0.079,-0.071 -0.787,-0.071 -0.866,0 -1.22,0.032 -0.787,0.071 m -7.865,0.185 c 0.487,0.039 1.237,0.038 1.667,-0.001 0.43,-0.038 0.031,-0.07 -0.885,-0.069 -0.917,0 -1.269,0.032 -0.782,0.07 m -7.778,0.186 c 0.487,0.038 1.237,0.037 1.667,-0.001 0.43,-0.039 0.031,-0.071 -0.885,-0.07 -0.917,0.001 -1.269,0.032 -0.782,0.071 m -7.876,0.184 c 0.433,0.039 1.142,0.039 1.574,0 0.433,-0.039 0.079,-0.071 -0.787,-0.071 -0.865,0 -1.219,0.032 -0.787,0.071 m -7.217,0.185 c 0.436,0.04 1.102,0.039 1.482,-0.001 0.379,-0.04 0.022,-0.072 -0.792,-0.071 -0.815,0.001 -1.125,0.033 -0.69,0.072 m -7.778,0.186 c 0.436,0.039 1.103,0.038 1.482,-0.002 0.379,-0.039 0.023,-0.071 -0.792,-0.071 -0.815,0.001 -1.125,0.034 -0.69,0.073 m -8.24,0.185 c 0.487,0.039 1.237,0.038 1.667,-0.001 0.43,-0.038 0.031,-0.07 -0.885,-0.069 -0.917,0 -1.269,0.032 -0.782,0.07 m -7.686,0.185 c 0.436,0.039 1.103,0.039 1.482,-0.001 0.379,-0.04 0.023,-0.072 -0.792,-0.071 -0.815,0 -1.125,0.033 -0.69,0.072 m -7.777,0.185 c 0.435,0.039 1.102,0.039 1.481,-0.001 0.379,-0.04 0.023,-0.072 -0.792,-0.071 -0.815,0.001 -1.125,0.033 -0.689,0.072 m -8.339,0.185 c 0.433,0.039 1.142,0.039 1.574,0 0.433,-0.039 0.079,-0.071 -0.787,-0.071 -0.865,0 -1.22,0.032 -0.787,0.071 m -9.166,0.185 c 0.382,0.04 1.007,0.04 1.389,0 0.382,-0.04 0.069,-0.073 -0.695,-0.073 -0.764,0 -1.076,0.033 -0.694,0.073 m -8.143,0.186 c 0.487,0.039 1.237,0.038 1.667,-10e-4 0.43,-0.039 0.031,-0.07 -0.885,-0.069 -0.917,0 -1.269,0.032 -0.782,0.07 m -7.686,0.185 c 0.436,0.039 1.102,0.039 1.482,-0.001 0.379,-0.04 0.023,-0.072 -0.792,-0.071 -0.815,0 -1.125,0.033 -0.69,0.072 m -7.778,0.185 c 0.436,0.039 1.103,0.039 1.482,-0.001 0.379,-0.04 0.023,-0.072 -0.792,-0.071 -0.815,0 -1.125,0.033 -0.69,0.072 m -8.24,0.186 c 0.487,0.038 1.237,0.038 1.667,-0.001 0.43,-0.039 0.032,-0.07 -0.885,-0.07 -0.917,0.001 -1.268,0.033 -0.782,0.071 m -7.505,0.183 c 0.331,0.041 0.873,0.041 1.204,0 0.331,-0.041 0.06,-0.075 -0.602,-0.075 -0.662,0 -0.933,0.034 -0.602,0.075 m -6.942,0.184 c 0.281,0.042 0.698,0.041 0.926,-0.003 0.228,-0.044 -0.003,-0.079 -0.512,-0.077 -0.509,0.001 -0.696,0.037 -0.414,0.08 m -86.067,12.274 c 0.501,0.51 0.953,0.926 1.004,0.926 0.051,0 -0.318,-0.416 -0.819,-0.926 -0.502,-0.509 -0.954,-0.926 -1.005,-0.926 -0.051,0 0.318,0.417 0.82,0.926 m 2.639,2.259 c 0.26,0.314 2.453,1.886 2.453,1.757 0,-0.045 -0.604,-0.522 -1.342,-1.06 -0.739,-0.538 -1.238,-0.852 -1.111,-0.697 m 18.425,6.767 c 0.586,0.037 1.544,0.037 2.13,0 0.586,-0.037 0.107,-0.067 -1.065,-0.067 -1.171,0 -1.65,0.03 -1.065,0.067" id="path3-8" style="fill:#ece5dd;fill-opacity:1;fill-rule:evenodd;stroke:none" />
            <path d="m 246.257,91.146 -4.205,1.864 0.244,0.578 c 0.24,0.568 11.832,26.824 29.28,66.319 4.86,11 11.333,25.667 14.386,32.593 15.19,34.46 23.53,53.34 23.592,53.407 0.116,0.124 8.446,-3.58 8.531,-3.794 0.075,-0.189 -17.84,-41.028 -18.352,-41.835 -0.234,-0.369 -4.464,-9.947 -20.323,-46.019 -27.113,-61.67 -28.591,-65.004 -28.798,-64.988 -0.082,0.006 -2.042,0.85 -4.355,1.875 m -91.134,93.992 c -0.799,0.347 -1.616,0.662 -1.817,0.701 -0.2,0.038 -1.297,0.481 -2.437,0.983 -4.227,1.862 -13.28,5.855 -16.239,7.162 -1.681,0.742 -5.264,2.325 -7.963,3.517 -2.699,1.192 -6.699,2.958 -8.889,3.925 -2.19,0.968 -5.315,2.346 -6.945,3.063 -1.629,0.717 -3.034,1.367 -3.12,1.445 -0.15,0.133 0.736,2.386 1.017,2.588 0.147,0.105 17.196,38.632 17.196,38.859 0,0.966 0.183,0.908 7.873,-2.491 4.073,-1.8 15.012,-6.626 24.31,-10.724 9.298,-4.099 16.949,-7.495 17.001,-7.548 0.053,-0.052 -0.44,-1.292 -1.095,-2.755 -0.655,-1.463 -4.794,-10.826 -9.198,-20.807 -4.404,-9.982 -8.06,-18.239 -8.125,-18.349 -0.077,-0.131 -0.617,0.017 -1.569,0.431" id="path4-50" style="fill:#8c8c8a;fill-rule:evenodd;stroke:none" />
         </g>
      </a>
      <g id="svgg-8" transform="translate(1130.2965,361.68218)">
         <path d="m 198.45,125.95 c -0.688,0.363 -0.916,0.782 -5.764,10.604 -5.158,10.45 -5.522,11.07 -6.635,11.311 -0.222,0.048 -5.319,0.797 -11.327,1.664 -11.737,1.694 -11.414,1.618 -12.27,2.877 -0.454,0.666 -0.529,1.477 -0.219,2.367 0.13,0.372 2.985,3.278 8.26,8.406 4.434,4.311 8.178,8.063 8.32,8.339 0.419,0.81 0.346,1.389 -1.601,12.717 -1.983,11.531 -1.98,11.497 -1.076,12.527 1.423,1.62 1.556,1.58 10.318,-3.036 11.987,-6.315 12.736,-6.689 13.4,-6.689 0.443,0 3.385,1.458 10.657,5.283 11.786,6.197 11.517,6.106 12.987,4.432 0.912,-1.039 0.909,-1.08 -1.083,-12.678 -1.024,-5.958 -1.861,-11.05 -1.861,-11.315 -0.001,-1.153 0.461,-1.668 8.445,-9.43 9.317,-9.057 9.384,-9.147 8.175,-10.923 -0.862,-1.267 -0.531,-1.189 -12.275,-2.881 -6.006,-0.865 -11.111,-1.615 -11.345,-1.666 -1.065,-0.232 -1.59,-1.13 -6.445,-11.007 -2.629,-5.347 -4.927,-9.941 -5.108,-10.209 -0.714,-1.056 -2.285,-1.362 -3.553,-0.693 M 95.692,196.065 c -0.051,0.178 -0.386,1.282 -0.745,2.454 -2.498,8.151 -1.72,17.041 1.694,19.361 0.85,0.577 2.616,0.665 2.621,0.129 0.002,-0.258 0.036,-0.271 0.166,-0.067 0.255,0.403 1.755,-0.781 2.607,-2.057 2.534,-3.795 0.617,-11.108 -4.881,-18.616 -1.181,-1.613 -1.315,-1.723 -1.462,-1.204 m 207.589,0.449 c -5.267,6.44 -7.864,14.83 -5.817,18.788 0.62,1.197 2.532,2.985 2.93,2.739 0.089,-0.055 0.162,-0.012 0.162,0.096 0,0.109 0.372,0.196 0.839,0.196 4.882,0 6.593,-9.894 3.487,-20.17 -0.796,-2.634 -0.796,-2.633 -1.601,-1.649 m -191.429,10.121 c -7.008,5.651 -11.358,13.549 -9.489,17.231 1.534,3.023 3.78,3.288 7.011,0.827 3.006,-2.292 5.217,-11.938 4.206,-18.353 l -0.154,-0.975 -1.574,1.27 m 174.51,-1.036 c -0.222,0.359 -0.153,8.071 0.088,9.679 1.056,7.068 3.734,10.699 8.1,10.979 1.616,0.103 1.791,-0.031 2.927,-2.255 l 0.717,-1.405 -0.208,-1.396 c -0.386,-2.593 -1.825,-5.581 -4.229,-8.778 -2.012,-2.677 -7.072,-7.346 -7.395,-6.824 m -168.174,16.207 c -4.252,5.107 -6.876,10.783 -6.888,14.903 -0.005,1.356 2.542,4.815 3.622,4.921 1.614,0.157 4.151,-1.608 5.237,-3.645 1.882,-3.532 1.976,-10.876 0.222,-17.39 -0.286,-1.063 -0.311,-1.049 -2.193,1.211 m 161.191,-0.741 c -2.636,11.749 -0.583,19.853 5.205,20.538 l 0.89,0.106 1.53,-1.919 c 1.827,-2.292 1.834,-2.315 1.454,-4.63 -0.741,-4.513 -3.26,-9.443 -6.964,-13.632 -1.809,-2.046 -1.762,-2.036 -2.115,-0.463 M 94.245,223.41 c -4.269,0.757 -7.979,2.322 -12.254,5.171 -2.386,1.59 -2.357,1.437 -0.408,2.142 5.859,2.12 12.88,2.859 16.134,1.698 4.267,-1.523 6.052,-5.707 3.46,-8.109 -1.007,-0.934 -4.32,-1.365 -6.932,-0.902 m 206.681,-0.001 c -2.855,0.642 -4.163,2.835 -3.09,5.179 2.316,5.059 10.578,5.836 20.917,1.968 1.317,-0.493 1.316,-0.508 -0.089,-1.501 -6.06,-4.285 -13.404,-6.622 -17.738,-5.646 M 128.99,234.64 c -3.172,5.139 -5.384,12.521 -4.84,16.15 0.183,1.218 5.092,5.187 5.939,4.801 4.511,-2.056 4.796,-10.105 0.705,-19.898 -1.021,-2.443 -0.966,-2.411 -1.804,-1.053 m 140.191,0.9 c -3.387,8.026 -3.953,14.628 -1.545,18.016 0.655,0.921 2.108,2.18 2.519,2.183 0.249,0.002 3.608,-2.522 4.891,-3.676 l 0.695,-0.625 -10e-4,-1.691 c -0.002,-4.31 -1.634,-9.675 -4.343,-14.278 -1.332,-2.263 -1.229,-2.267 -2.216,0.071 m -163.956,4.737 c -4.279,1.106 -9.524,4.351 -13.255,8.201 -1.03,1.063 -1.125,0.964 1.363,1.413 9.391,1.692 16.779,0.058 18.842,-4.169 0.789,-1.616 0.768,-1.708 -0.885,-3.916 l -1.491,-1.991 -1.427,0.009 c -0.878,0.006 -2.09,0.18 -3.147,0.453 m 184.689,-0.138 c -2.676,3.238 -2.933,3.891 -2.163,5.509 1.57,3.302 5.251,4.798 11.786,4.79 3.585,-0.005 8.638,-0.572 9.074,-1.019 0.534,-0.547 -5.821,-5.587 -9.259,-7.343 -3.848,-1.965 -8.608,-2.942 -9.438,-1.937 m -148.949,3.565 c -1.895,4.883 -2.311,12.723 -0.916,17.264 l 0.414,1.347 2.268,1.128 c 3.981,1.978 4.29,1.934 5.641,-0.81 1.959,-3.975 -0.929,-12.3 -6.405,-18.466 l -0.822,-0.926 -0.18,0.463 m 116.983,0.416 c -6.713,8.352 -8.827,15.538 -5.769,19.612 1.18,1.571 1.579,1.521 6.17,-0.781 2.766,-1.386 3.223,-10.557 0.912,-18.317 -0.455,-1.527 -0.488,-1.54 -1.313,-0.514 m -99.452,7.408 c -0.826,6.285 0.246,13.604 2.495,17.025 l 0.768,1.169 2.13,0.407 c 3.083,0.589 3.222,0.577 3.882,-0.334 3.07,-4.238 0.762,-10.685 -6.405,-17.897 -2.715,-2.731 -2.562,-2.712 -2.87,-0.37 M 240.08,250.4 c -8.225,7.566 -11.178,14.472 -8.163,19.092 0.747,1.144 0.972,1.187 3.686,0.707 2.703,-0.477 2.82,-0.563 3.937,-2.884 1.901,-3.95 2.617,-9.936 1.867,-15.611 -0.309,-2.333 -0.26,-2.285 -1.327,-1.304 m -119.524,5.494 c -4.359,1.577 -8.913,5.405 -12.447,10.463 -1.559,2.232 -1.705,2.152 3.28,1.783 9.837,-0.727 15.318,-3.841 15.609,-8.867 l 0.083,-1.426 -1.497,-1.238 c -1.8,-1.489 -2.583,-1.6 -5.028,-0.715 m 153.75,0.706 c -1.513,1.227 -1.528,1.248 -1.526,2.088 0.015,5.705 6.104,9.041 17.451,9.564 3.146,0.145 3.047,0.234 1.789,-1.592 -4.351,-6.316 -10.534,-10.949 -14.983,-11.225 l -1.204,-0.075 -1.527,1.24 m -135.103,9.875 c -3.906,1.981 -7.862,7.106 -10.37,13.432 -1.27,3.205 -1.411,3.123 2.92,1.677 9.009,-3.007 13.462,-6.848 13.452,-11.601 -0.005,-2.241 -0.157,-2.461 -2.306,-3.324 -2.177,-0.875 -2.318,-0.882 -3.696,-0.184 m 117.742,0.194 c -2.115,0.904 -2.223,1.066 -2.223,3.324 0,4.926 5.275,9.243 14.7,12.031 2.812,0.832 2.714,0.882 2.039,-1.052 -2.286,-6.552 -6.445,-12.171 -10.773,-14.558 -1.162,-0.64 -1.743,-0.601 -3.743,0.255 m -95.64,5.563 c -3.075,1.455 -6.278,6.072 -8.229,11.863 -0.728,2.158 -1.707,6.224 -1.54,6.391 0.592,0.593 9.437,-4.817 11.999,-7.338 5.509,-5.422 3.804,-13.77 -2.23,-10.916 m 73.502,-0.149 c -1.287,0.868 -2.095,3.575 -1.685,5.644 0.838,4.223 6.688,9.268 14.517,12.521 0.869,0.361 0.876,0.291 0.246,-2.486 -2.334,-10.289 -9.078,-18.374 -13.078,-15.679" id="path0-48" style="fill:#ece5dd;fill-opacity:1;fill-rule:evenodd;stroke:none" />
         <path d="m 103.701,118.843 c -10e-4,0.28 -0.085,2.134 -0.186,4.12 -0.373,7.319 0.369,19.106 1.783,28.333 7.005,45.694 29.853,75.37 65.156,84.633 2.276,0.597 7.068,1.664 7.475,1.664 0.055,0 -0.931,-0.675 -2.192,-1.499 -5.796,-3.791 -10.494,-8.204 -15.796,-14.84 -0.438,-0.548 -1.165,-1.131 -1.941,-1.557 -26.861,-14.742 -41.663,-44.645 -43.83,-88.54 l -0.103,-2.083 h 9.633 9.633 v -2.285 c 0,-1.257 0.055,-3.674 0.122,-5.371 l 0.122,-3.085 H 118.64 103.704 l -0.003,0.51 m 162.95,-0.433 c -0.042,0.042 -0.024,1.271 0.041,2.731 0.065,1.461 0.128,3.843 0.139,5.294 l 0.021,2.639 h 12.159 12.159 l -0.12,3.294 c -1.624,44.848 -21.045,79.437 -50.831,90.531 l -1.911,0.712 -2.118,2.342 c -4.343,4.802 -10.093,9.473 -14.693,11.936 -1.557,0.833 0.011,0.754 5.947,-0.3 43.237,-7.676 69.494,-43.088 74.076,-99.904 0.252,-3.126 0.334,-18.441 0.102,-19.028 -0.12,-0.302 -34.669,-0.547 -34.971,-0.247" id="path1-10" style="fill:#757575;fill-opacity:1;fill-rule:evenodd;stroke:none" />
         <path d="m 131.759,95.26 c -6.159,1.953 -6.592,10.424 -0.654,12.822 l 1.091,0.441 h 67.871 67.871 l 1.073,-0.402 c 5.804,-2.171 5.571,-10.681 -0.349,-12.75 -1.334,-0.467 -135.439,-0.575 -136.903,-0.111 m 1.817,24.092 c 0.001,0.611 0.036,0.839 0.077,0.506 0.041,-0.333 0.04,-0.833 -0.002,-1.111 -0.042,-0.279 -0.076,-0.006 -0.075,0.605 m 132.963,0.37 c 0.001,0.611 0.035,0.839 0.077,0.506 0.041,-0.333 0.04,-0.833 -0.002,-1.111 -0.042,-0.278 -0.076,-0.006 -0.075,0.605 M 133.4,124.074 c 0,0.968 0.031,1.363 0.069,0.88 0.039,-0.484 0.039,-1.276 0,-1.76 -0.038,-0.483 -0.069,-0.088 -0.069,0.88 m 133.34,1.667 c 0,1.477 0.029,2.081 0.064,1.342 0.035,-0.738 0.035,-1.946 0,-2.685 -0.035,-0.738 -0.064,-0.134 -0.064,1.343 M 166.019,228.148 c 1.321,1.324 2.443,2.408 2.494,2.408 0.051,0 -0.988,-1.084 -2.309,-2.408 -1.321,-1.324 -2.444,-2.407 -2.495,-2.407 -0.051,0 0.988,1.083 2.31,2.407 m 67.681,0.324 -1.57,1.621 1.62,-1.57 c 1.505,-1.459 1.705,-1.671 1.57,-1.671 -0.028,0 -0.757,0.729 -1.62,1.62 m -40.351,15.536 c -0.123,0.495 -2.927,10.834 -6.231,22.976 -3.304,12.142 -6.007,22.121 -6.007,22.176 0,0.054 8.551,0.099 19.001,0.099 15.121,0 18.985,-0.047 18.922,-0.231 -0.044,-0.128 -2.866,-10.509 -6.27,-23.07 l -6.19,-22.837 -0.648,0.105 c -3.004,0.487 -8.605,0.483 -11.686,-0.01 l -0.668,-0.107 -0.223,0.899" id="path2-304" style="fill:#757575;fill-opacity:1;fill-rule:evenodd;stroke:none" />
         <path d="m 99.259,218.013 c 0,0.566 1.638,5.314 2.328,6.748 0.369,0.767 0.83,1.858 1.025,2.425 0.718,2.086 4.443,8.808 6.407,11.559 4.085,5.726 5.743,7.8 8.71,10.896 1.966,2.052 5.987,5.725 6.278,5.735 0.088,0.002 0.826,0.585 1.641,1.294 3.71,3.228 11.38,7.768 16.122,9.542 1.012,0.379 2.287,0.892 2.833,1.142 5.217,2.382 15.319,4.248 24.008,4.433 5.471,0.117 7.351,-0.098 4.074,-0.466 -6.484,-0.727 -9.071,-1.174 -14.166,-2.447 -3.885,-0.97 -8.592,-2.423 -11.204,-3.459 -0.509,-0.202 -1.426,-0.56 -2.037,-0.797 -1.258,-0.486 -4.029,-1.808 -5.278,-2.518 -0.458,-0.261 -1.792,-1.014 -2.963,-1.675 -4.487,-2.531 -10.563,-6.764 -12.58,-8.763 -0.465,-0.461 -1.712,-1.628 -2.772,-2.593 -2.224,-2.026 -8.028,-8.247 -9.333,-10.003 -3.08,-4.146 -5.314,-7.433 -7.647,-11.252 -2.114,-3.46 -2.458,-4.088 -3.722,-6.793 -1.332,-2.851 -1.724,-3.535 -1.724,-3.008 m 200.086,2.172 c -1.451,3.082 -2.646,5.38 -3.034,5.834 -0.175,0.203 -0.804,1.203 -1.4,2.222 -1.193,2.042 -3.805,5.973 -5.259,7.916 -0.514,0.687 -1.033,1.437 -1.154,1.666 -1.59,3.028 -16.744,17.918 -18.236,17.918 -0.075,0 -0.56,0.316 -1.079,0.703 -3.694,2.755 -11.73,7.194 -15.572,8.601 -3.68,1.348 -7.962,2.746 -10,3.265 -4.565,1.161 -7.631,1.868 -8.889,2.05 -1.741,0.251 -5.121,0.686 -7.5,0.966 -2.623,0.307 -1.879,0.484 2.13,0.506 8.143,0.043 15.808,-1.11 23.333,-3.51 1.324,-0.422 2.491,-0.835 2.593,-0.917 0.102,-0.082 0.977,-0.456 1.944,-0.831 3.775,-1.464 6.45,-2.778 9.908,-4.867 2.055,-1.242 5.49,-3.547 5.74,-3.853 0.228,-0.277 2.05,-1.757 3.426,-2.782 2.7,-2.011 10.926,-10.482 10.926,-11.251 0,-0.123 2.029,-2.888 2.969,-4.045 1.817,-2.236 6.049,-9.805 7.279,-13.017 0.351,-0.916 0.847,-2.083 1.103,-2.592 0.647,-1.29 2.032,-5.545 1.939,-5.957 -0.048,-0.212 -0.485,0.527 -1.167,1.975" id="path3-4" style="fill:#ece5dd;fill-opacity:1;fill-rule:evenodd;stroke:none" />
         <path d="m 134.352,108.75 c -0.144,0.416 -0.651,7.392 -0.73,10.046 -0.921,31.131 2.411,53.321 11.368,75.72 3.876,9.693 11.41,23.332 14.282,25.854 0.174,0.153 1.009,1.153 1.855,2.223 3.554,4.491 9.647,10.12 14.243,13.158 1.375,0.909 2.667,1.789 2.871,1.955 0.658,0.54 5.499,2.794 7.5,3.493 9.043,3.16 19.639,3.201 28.363,0.111 1.866,-0.661 6.108,-2.538 6.257,-2.769 0.056,-0.087 0.602,-0.435 1.213,-0.774 6.331,-3.513 14.36,-10.775 19.49,-17.628 14.378,-19.206 23.219,-46.416 25.438,-78.287 0.526,-7.546 0.074,-29.535 -0.676,-32.917 l -0.092,-0.416 h -65.651 c -52.354,0 -65.666,0.046 -65.731,0.231 m 66.688,17.106 c 0.886,0.42 0.766,0.203 6.071,10.996 4.855,9.877 5.38,10.775 6.445,11.007 0.234,0.051 5.339,0.801 11.345,1.666 11.744,1.692 11.413,1.614 12.275,2.881 1.209,1.776 1.142,1.866 -8.175,10.923 -7.984,7.762 -8.446,8.277 -8.445,9.43 0,0.265 0.837,5.357 1.861,11.315 1.992,11.598 1.995,11.639 1.083,12.678 -1.47,1.674 -1.201,1.765 -12.987,-4.432 -7.272,-3.825 -10.214,-5.283 -10.657,-5.283 -0.664,0 -1.413,0.374 -13.4,6.689 -8.762,4.616 -8.895,4.656 -10.318,3.036 -0.904,-1.03 -0.907,-0.996 1.076,-12.527 1.947,-11.328 2.02,-11.907 1.601,-12.717 -0.142,-0.276 -3.886,-4.028 -8.32,-8.339 -5.275,-5.128 -8.13,-8.034 -8.26,-8.406 -0.31,-0.89 -0.235,-1.701 0.219,-2.367 0.856,-1.259 0.533,-1.183 12.27,-2.877 6.008,-0.867 11.105,-1.616 11.327,-1.664 1.113,-0.241 1.477,-0.861 6.635,-11.311 4.848,-9.822 5.076,-10.241 5.764,-10.604 0.874,-0.461 1.749,-0.493 2.59,-0.094 m -30.662,163.818 c -2.007,1.025 -2.294,2.105 -2.202,8.289 l 0.065,4.352 0.514,0.875 c 0.333,0.567 0.822,1.055 1.389,1.388 l 0.875,0.515 h 30.569 30.569 l 0.772,-0.511 c 0.424,-0.281 1.001,-0.858 1.282,-1.283 l 0.511,-0.771 0.055,-5.087 0.055,-5.088 -0.474,-0.968 c -0.314,-0.642 -0.739,-1.148 -1.258,-1.501 l -0.785,-0.532 -30.558,-0.049 -30.559,-0.048 -0.82,0.419" id="path4-4" style="fill:#999999;fill-opacity:1;fill-rule:evenodd;stroke:none" />
      </g>
   </g>
</svg>
