<?xml version="1.0" encoding="UTF-8" standalone="no"?>
<svg xmlns:dc="http://purl.org/dc/elements/1.1/" xmlns:cc="http://creativecommons.org/ns#" xmlns:rdf="http://www.w3.org/1999/02/22-rdf-syntax-ns#" xmlns:svg="http://www.w3.org/2000/svg" xmlns="http://www.w3.org/2000/svg" viewBox="0 0 271.38764 214.83216" height="214.83217" width="271.38763" version="1.1" id="svg">
   <metadata id="metadata13">
      <rdf:RDF>
         <cc:Work rdf:about="">
            <dc:format>image/svg+xml</dc:format>
            <dc:type rdf:resource="http://purl.org/dc/dcmitype/StillImage" />
            <dc:title></dc:title>
         </cc:Work>
      </rdf:RDF>
   </metadata>
   <defs id="defs11" />
   <g transform="translate(-1289.4879,-39.744239)" style="display:inline" id="layer8">
      <g transform="translate(1213.5714,-53.736982)" id="svgg-4">
         <path style="fill:#757575;fill-opacity:1;fill-rule:evenodd;stroke:none" id="path0-8" d="m 229.259,98.691 c -6.481,0.956 -10.732,3.475 -18.106,10.73 -5.209,5.126 -4.791,10.226 1.132,13.82 0.671,0.407 1.223,0.798 1.227,0.868 0.009,0.181 -4.149,3.494 -6.568,5.232 -2.448,1.76 -3.055,2.297 -3.055,2.702 0,0.384 0.575,0.92 0.988,0.92 0.503,0 6.78,-4.647 9.739,-7.211 1.029,-0.891 1.189,-0.969 1.731,-0.842 0.329,0.077 1.93,0.192 3.558,0.254 l 2.96,0.114 0.106,0.655 c 0.261,1.612 1.734,3.211 3.171,3.445 1.373,0.222 1.418,-1.129 0.06,-1.786 -1.623,-0.786 -2.083,-2.791 -1.095,-4.774 1.356,-2.721 5.58,-3.868 6.096,-1.655 0.119,0.51 0.246,1.263 0.265,1.562 0.023,0.382 0.552,0.548 3.902,1.226 5.556,1.124 10.428,1.358 13.102,0.628 1.188,-0.324 1.187,-0.37 0.029,1.937 -3.559,7.093 -8.081,11.68 -13.538,13.734 -5.877,2.212 -10.371,0.89 -12.479,-3.673 -0.971,-2.102 -0.848,-2.121 -4.467,0.694 -3.827,2.976 -5.635,5.085 -4.948,5.771 0.554,0.554 1.022,0.323 2.743,-1.353 0.928,-0.905 2.431,-2.237 3.34,-2.961 l 1.651,-1.316 0.478,0.833 c 4.674,8.143 17.166,5.894 25.032,-4.507 l 1.025,-1.355 1.285,-0.08 c 4.581,-0.286 6.288,-2.867 5.762,-8.71 -0.091,-1.009 -0.177,-3.125 -0.192,-4.704 -0.031,-3.383 -0.382,-4.418 -2.158,-6.358 -1.497,-1.635 -4.712,-3.617 -6.379,-3.931 -0.525,-0.099 -0.585,-0.197 -0.886,-1.437 -1.482,-6.108 -7.871,-9.598 -15.511,-8.472 m 47.549,53.67 c -0.282,0.32 -3.003,7.357 -9.578,24.769 -1.846,4.889 -3.6,9.514 -3.896,10.277 -0.547,1.409 -2.715,7.103 -3.349,8.797 l -0.347,0.926 -3.384,-0.118 c -1.861,-0.064 -3.938,-0.127 -4.617,-0.139 l -1.233,-0.021 -1.239,-2.269 c -3.514,-6.434 -6.704,-8.72 -11.724,-8.401 -0.986,0.062 -2.918,0.165 -4.293,0.227 l -2.5,0.114 -0.543,-1.271 c -0.989,-2.315 -3.678,-7.719 -4.057,-8.156 -0.45,-0.517 -0.884,-0.547 -1.297,-0.091 -0.441,0.487 -0.447,0.468 1.158,3.774 2.061,4.245 2.444,5.147 2.184,5.147 -0.761,0 -4.89,-1.043 -5.088,-1.285 -0.349,-0.428 -2.635,-5.044 -2.635,-5.321 0,-0.543 -0.882,-0.873 -1.41,-0.527 -0.654,0.429 -0.54,1.043 0.657,3.55 0.865,1.81 0.904,1.948 0.52,1.858 -4.298,-1.004 -6.433,-0.951 -6.433,0.159 0,0.622 0.22,0.693 4.259,1.382 4.161,0.709 9.204,1.757 10.463,2.174 1.153,0.383 3.771,0.414 6.944,0.084 5.715,-0.594 8.627,1.106 11.848,6.918 1.016,1.833 1.051,1.934 0.674,1.934 -0.382,0 -1.408,-1.214 -2.884,-3.414 -2.228,-3.32 -3.104,-4.026 -3.851,-3.099 -0.335,0.416 -0.314,0.47 0.61,1.605 0.807,0.991 3.233,4.474 3.233,4.642 0,1.032 -4.52,-3.165 -5.545,-5.149 -0.699,-1.351 -2.381,-1.484 -1.959,-0.154 0.24,0.758 -3.718,1.083 -8.286,0.68 -1.857,-0.163 -5.752,-0.421 -8.654,-0.572 -2.903,-0.151 -5.864,-0.319 -6.58,-0.374 -1.658,-0.126 -2.049,0.099 -1.865,1.076 0.158,0.844 -0.251,0.78 7.426,1.157 l 6.111,0.301 0.648,0.537 c 0.357,0.295 1.129,0.842 1.716,1.215 0.587,0.374 1.046,0.698 1.019,0.721 -0.027,0.023 -1.758,-0.032 -3.846,-0.122 -2.088,-0.09 -5.994,-0.184 -8.681,-0.209 l -4.885,-0.045 -0.325,0.463 c -0.29,0.412 -0.311,0.749 -0.195,3.056 0.072,1.426 0.111,2.62 0.087,2.654 -0.024,0.033 -1.53,0.138 -3.346,0.232 -6.259,0.325 -7.367,0.528 -7.584,1.394 -0.241,0.96 0.17,1.082 2.835,0.839 8.447,-0.768 18.824,-0.614 29.502,0.439 1.476,0.145 4.768,0.432 7.314,0.638 6.474,0.522 8.647,0.738 10.485,1.042 7.296,1.209 10.573,5.825 9.321,13.132 -0.44,2.573 -4.033,12.829 -11.058,31.574 -4.682,12.491 -7.173,19.483 -8.378,23.519 -0.825,2.76 -0.741,2.679 -3.076,2.965 -3.371,0.413 -7.835,-0.048 -8.724,-0.901 -0.073,-0.07 0.16,-1.668 0.519,-3.55 2.36,-12.391 4.799,-29.283 6.281,-43.514 0.26,-2.496 0.515,-4.747 0.566,-5.004 0.262,-1.308 -0.787,-1.439 -11.786,-1.464 -10.036,-0.023 -11.655,0.125 -11.647,1.064 0.008,0.857 -0.3,0.833 10.799,0.85 5.755,0.009 10.506,0.059 10.557,0.11 0.217,0.217 -1.831,17.617 -3.123,26.548 -1.042,7.195 -2.675,16.943 -3.881,23.162 -0.606,3.129 -0.699,3.009 3.238,4.219 1.889,0.58 7.288,0.505 10.5,-0.146 0.345,-0.07 0.535,-0.487 1.243,-2.72 2.023,-6.386 3.653,-11.034 7.171,-20.444 l 2.226,-5.955 2.845,5.677 c 4.167,8.313 10.658,20.036 11.534,20.828 0.836,0.758 4.768,0.877 7.374,0.224 1.924,-0.483 5.856,-2.287 6.158,-2.827 0.222,-0.396 0.351,-0.026 -3.678,-10.511 -1.956,-5.093 -4.514,-11.76 -5.684,-14.815 -1.17,-3.056 -2.323,-6.056 -2.562,-6.667 -0.239,-0.611 -1.058,-2.736 -1.82,-4.722 -3.124,-8.146 -4.615,-11.967 -4.828,-12.374 -0.189,-0.36 -0.129,-0.78 0.378,-2.631 1.803,-6.591 0.741,-11.906 -2.948,-14.754 l -0.518,-0.399 2.555,0.02 c 5.51,0.045 5.821,-0.335 10.424,-12.732 13.707,-36.914 14.475,-39.022 14.366,-39.454 -0.169,-0.674 -0.664,-0.903 -3.951,-1.828 -3.382,-0.952 -3.576,-0.978 -3.977,-0.524 m 3.865,2.466 2.063,0.587 -0.517,1.414 c -0.284,0.777 -3.783,10.204 -7.775,20.95 -3.992,10.745 -7.469,20.12 -7.727,20.833 -2.33,6.452 -2.966,6.777 -11.995,6.124 -2.037,-0.147 -5.37,-0.361 -7.407,-0.475 -3.825,-0.214 -8.776,-0.626 -11.204,-0.932 -4.072,-0.513 -16.243,-1.286 -20.298,-1.289 l -2.612,-0.002 -0.119,-1.138 c -0.065,-0.626 -0.119,-1.681 -0.119,-2.343 v -1.204 l 3.009,0.122 c 1.655,0.067 9.093,0.33 16.528,0.585 7.435,0.254 16.766,0.58 20.734,0.724 4.047,0.147 7.346,0.192 7.511,0.103 0.172,-0.091 1.674,-3.787 3.589,-8.827 13.506,-35.559 13.676,-35.995 13.979,-35.906 0.164,0.048 1.226,0.351 2.36,0.674 m -41.321,39.465 c 0.407,0.519 1.053,1.196 1.435,1.505 1.017,0.822 1.006,0.825 -2.87,0.726 l -3.565,-0.091 -1.759,-0.779 c -0.968,-0.428 -2.149,-1.021 -2.625,-1.317 l -0.865,-0.54 3.458,-0.021 c 1.902,-0.012 3.833,-0.107 4.291,-0.211 1.522,-0.347 1.696,-0.296 2.5,0.728 m 29.424,57.073 c 4.54,11.802 8.213,21.525 8.163,21.607 -0.89,1.44 -8.897,2.907 -10.157,1.862 -0.842,-0.699 -7.731,-13.313 -12.067,-22.095 l -2.716,-5.502 1.525,-4.128 c 0.839,-2.27 2.433,-6.753 3.543,-9.961 1.11,-3.208 2.065,-5.958 2.123,-6.111 0.063,-0.165 0.355,0.361 0.719,1.296 0.337,0.866 4.327,11.23 8.867,23.032 m 12.678,32.168 c -2.132,2.003 -4.494,3.015 -7.01,3 -2.639,-0.015 -2.724,0.192 -1.203,2.93 0.56,1.008 1.471,2.649 2.025,3.646 1.55,2.791 0.479,2.526 9.596,2.375 4.303,-0.071 12.948,-0.249 19.212,-0.396 6.264,-0.148 12.283,-0.269 13.375,-0.271 3.338,-0.004 3.426,-0.796 0.363,-3.253 -6.932,-5.561 -11.351,-6.91 -25.127,-7.668 -1.935,-0.107 -4.018,-0.234 -4.629,-0.284 -2.623,-0.213 -5.393,-0.493 -5.676,-0.574 -0.177,-0.051 -0.567,0.157 -0.926,0.495 m -57.153,4.956 c -0.13,0.082 -0.529,1.394 -0.887,2.914 -2.222,9.431 -2.106,8.753 -1.573,9.235 0.553,0.5 9.929,1.425 22.789,2.247 6.579,0.421 23.314,0.59 23.537,0.238 0.365,-0.575 0.129,-1.039 -1.176,-2.307 -3.527,-3.426 -6.236,-4.473 -16.042,-6.201 -7.292,-1.285 -10.019,-2.229 -13.075,-4.524 -1.285,-0.965 -1.106,-0.937 -2.967,-0.461 -2.807,0.718 -6.267,0.421 -8.713,-0.746 -1.213,-0.579 -1.507,-0.64 -1.893,-0.395" />
         <path style="fill:#ece5dd;fill-opacity:1;fill-rule:evenodd;stroke:none" id="path1-10" d="m 228.426,120.259 c -3.784,1.197 -5.164,5.691 -2.225,7.244 0.873,0.461 1.111,0.819 0.955,1.437 -0.484,1.929 -4.376,-1.099 -4.378,-3.406 -0.001,-0.206 -0.539,-0.26 -2.732,-0.276 -1.502,-0.01 -3.071,-0.102 -3.487,-0.204 l -0.756,-0.186 -1.651,1.375 c -2.038,1.697 -5.596,4.431 -7.598,5.838 l -1.501,1.055 0.142,0.896 c 0.58,3.666 2.493,6.456 5.394,7.867 1.972,0.958 2.189,1.003 2.189,0.452 0,-0.981 7.441,-7.351 8.586,-7.351 0.417,0 0.574,0.202 1.244,1.606 4.486,9.399 18.561,4.068 25.594,-9.693 1.3,-2.544 1.304,-2.457 -0.093,-2.169 -3.15,0.649 -6.836,0.472 -12.217,-0.589 -4.309,-0.849 -4.596,-0.964 -4.596,-1.837 0,-1.852 -1.078,-2.626 -2.87,-2.059 m -28.309,23.654 c -7.758,4.092 -11.056,26.696 -5.916,40.531 1.305,3.511 2.447,5.334 3.193,5.097 0.843,-0.267 0.818,-0.716 -0.146,-2.638 -6.413,-12.779 -4.219,-36.748 3.793,-41.444 1.675,-0.981 0.795,-2.453 -0.924,-1.546 m 76.571,13.911 c -0.749,1.961 -4.258,11.19 -7.799,20.509 -3.541,9.32 -6.753,17.765 -7.139,18.768 -0.386,1.003 -0.825,1.871 -0.975,1.929 -0.151,0.057 -4.324,-0.038 -9.274,-0.213 -12.485,-0.44 -29.086,-1.008 -33.075,-1.131 -1.833,-0.057 -3.802,-0.146 -4.374,-0.198 l -1.041,-0.094 0.092,2.183 c 0.051,1.2 0.116,2.209 0.144,2.242 0.029,0.033 2.455,0.135 5.393,0.227 6.408,0.2 12.167,0.594 17.471,1.195 2.949,0.334 8.52,0.785 11.389,0.923 1.222,0.058 4.722,0.282 7.778,0.497 9.322,0.656 8.601,1.296 13.552,-12.029 9.492,-25.545 13.77,-37.129 13.723,-37.161 -0.104,-0.071 -4.199,-1.212 -4.351,-1.212 -0.085,0 -0.766,1.604 -1.514,3.565 m -54.276,21 c -0.965,0.353 -1.794,0.682 -1.843,0.73 -0.199,0.2 2.449,5.106 2.834,5.249 0.572,0.214 4.745,1.087 4.745,0.994 0,-0.337 -3.615,-7.645 -3.775,-7.632 -0.114,0.009 -0.996,0.306 -1.961,0.659 m -8.127,7.984 c -0.115,0.89 -0.362,2.172 -0.55,2.849 l -0.341,1.231 2.423,0.127 c 1.333,0.071 5.049,0.306 8.257,0.524 9.752,0.661 13.333,0.545 13.333,-0.433 0,-1.169 1.493,-1.198 1.977,-0.039 0.64,1.531 4.523,5.6 5.345,5.6 0.334,0 -2.34,-4.039 -3.254,-4.914 -0.636,-0.609 -0.701,-1.188 -0.186,-1.654 0.763,-0.69 1.766,0.217 4.086,3.697 1.326,1.991 2.044,2.871 2.341,2.871 0.354,0 0.323,-0.105 -0.43,-1.464 -3.075,-5.553 -5.824,-7.442 -10.433,-7.17 -5.836,0.345 -7.185,0.355 -8.091,0.061 -1.205,-0.39 -6.281,-1.463 -10.243,-2.163 -1.783,-0.315 -3.418,-0.611 -3.634,-0.657 -0.365,-0.078 -0.407,0.03 -0.6,1.534 m 22.567,6.823 c -0.764,0.136 -2.712,0.256 -4.33,0.266 -1.687,0.011 -2.871,0.088 -2.777,0.181 1.513,1.512 4.982,2.361 9.77,2.392 l 1.83,0.011 -1.452,-1.527 c -1.704,-1.793 -1.328,-1.629 -3.041,-1.323 m -30,10.46 c -6.332,0.382 -6.013,0.232 -6.186,2.907 -0.154,2.388 0.06,2.202 -2.002,1.739 -15.092,-3.386 -29.848,-4.061 -43.108,-1.97 -6.109,0.963 -6.182,0.988 -5.718,2.006 0.317,0.696 0.463,0.701 3.654,0.115 13.384,-2.456 29.405,-1.945 43.997,1.403 3.159,0.725 3.358,0.744 3.584,0.339 0.306,-0.547 3.782,1.225 6.144,3.133 2.448,1.978 4.666,5.376 5.493,8.418 l 0.316,1.162 1.404,-0.144 c 1.832,-0.187 15.962,-0.172 18.753,0.02 2.951,0.204 2.86,0.104 2.578,2.82 -1.767,17.038 -3.607,30.226 -6.244,44.772 -0.849,4.685 -0.991,5.747 -0.786,5.881 1.438,0.938 5.568,1.279 9.048,0.746 l 1.575,-0.241 1.358,-4.2 c 1.726,-5.337 3.843,-11.28 7.106,-19.941 3.976,-10.559 6.114,-16.365 7.329,-19.908 0.612,-1.782 1.611,-4.574 2.221,-6.204 3.349,-8.948 3.355,-13.558 0.023,-17.205 -2.36,-2.582 -5.071,-3.274 -16.372,-4.18 -4.96,-0.397 -5.975,-0.488 -8.426,-0.752 -6.788,-0.732 -19.577,-1.087 -25.741,-0.716 m 50.849,27.493 c -0.806,2.398 -2.368,6.835 -3.47,9.86 -1.103,3.025 -2.006,5.628 -2.007,5.784 -0.007,0.999 12.445,24.673 14.342,27.267 0.582,0.795 4.085,0.865 6.464,0.13 1.533,-0.474 3.642,-1.46 3.755,-1.754 0.045,-0.117 -3.555,-9.665 -7.999,-21.218 -4.444,-11.553 -8.375,-21.776 -8.736,-22.718 -0.361,-0.942 -0.707,-1.712 -0.77,-1.712 -0.062,0 -0.773,1.963 -1.579,4.361" />
         <path style="fill:#757575;fill-opacity:1;fill-rule:evenodd;stroke:none" id="path2-304" d="m 112.345,112.513 c -11.035,1.716 -23.036,8.202 -27.947,15.104 -2.967,4.171 -3.924,8.792 -3.3,15.939 0.564,6.455 2.692,21.466 4.853,34.222 3.112,18.375 6.776,37.205 11.459,58.889 0.825,3.819 1.907,8.902 2.405,11.296 9.435,45.336 10.774,50.161 14.663,52.838 2.558,1.761 4.217,1.965 13.275,1.631 9.778,-0.361 16.811,-0.572 28.543,-0.858 21.952,-0.536 25.756,-0.669 34.505,-1.211 4.87,-0.301 9.397,-0.548 10.058,-0.548 2.541,0 2.926,-0.849 4.785,-10.556 3.626,-18.925 7.205,-40.659 8.072,-49.016 0.444,-4.283 0.05,-15.058 -0.551,-15.058 -0.734,0 -1.026,-1.063 -0.463,-1.685 0.631,-0.697 -1.317,-5.233 -3.22,-7.5 -2.261,-2.691 -7.895,-6.289 -8.409,-5.37 -0.226,0.405 -0.425,0.386 -3.584,-0.339 -14.593,-3.348 -30.612,-3.859 -43.997,-1.403 -3.074,0.564 -3.406,0.563 -3.589,-0.012 -0.104,-0.33 -0.291,-0.342 -3.571,-0.236 -6.98,0.227 -12.304,-0.623 -13.921,-2.223 -0.392,-0.388 -0.904,-1.358 -1.528,-2.898 l -0.938,-2.315 -0.064,-2.685 c -0.32,-13.45 -1.477,-47.2 -1.921,-56.019 -0.103,-2.037 -0.271,-5.745 -0.373,-8.241 -0.724,-17.575 -4.787,-23.373 -15.242,-21.746 m 89.41,21.169 c -11.34,6.426 -22.316,15.261 -27.519,22.151 -13.806,18.281 -20.386,31.327 -22.742,45.093 -0.369,2.153 -0.92,6.508 -0.839,6.626 0.019,0.029 1.151,-0.152 2.514,-0.402 2.486,-0.456 5.265,-0.834 9.238,-1.259 9.431,-1.009 24.267,0.156 36.257,2.846 0.946,0.212 1.751,0.354 1.789,0.315 0.323,-0.329 0.39,-4.352 0.076,-4.584 -0.504,-0.373 -0.441,-1.218 0.122,-1.628 0.459,-0.335 0.471,-0.409 0.846,-5.34 0.208,-2.75 0.415,-5.178 0.458,-5.394 0.071,-0.361 0.226,-0.403 1.793,-0.483 0.943,-0.048 1.861,-0.151 2.039,-0.227 0.246,-0.106 0.324,-0.052 0.324,0.226 0,1.023 1.915,1.841 3.892,1.662 1.638,-0.149 2.138,-0.454 2.068,-1.263 -0.062,-0.723 0.172,-1.023 0.879,-1.124 0.544,-0.077 0.634,-0.355 1.108,-3.394 0.339,-2.174 0.339,-2.224 -0.004,-2.464 -0.497,-0.348 -0.438,-1.054 0.126,-1.498 0.878,-0.69 0.586,-1.291 -1.032,-2.122 -1.767,-0.908 -3.199,-0.922 -4.354,-0.041 -0.857,0.653 -1.401,0.431 -2.097,-0.856 -0.504,-0.932 -0.49,-1.588 0.136,-6.17 0.475,-3.482 0.87,-7.707 1.132,-12.13 0.228,-3.85 0.374,-5.223 0.509,-4.815 0.321,0.964 3.555,9.969 4.324,12.037 1.595,4.29 2.545,5.607 4.487,6.219 l 1.001,0.316 -0.453,0.668 c -0.752,1.107 0.034,3.078 0.887,2.225 0.561,-0.56 1.65,-0.282 1.65,0.421 0,0.238 0.475,0.123 2.501,-0.61 1.446,-0.524 1.573,-0.61 1.573,-1.071 0,-0.951 0.934,-1.283 1.586,-0.563 0.327,0.362 0.359,0.365 0.584,0.058 0.442,-0.605 0.153,-1.856 -0.566,-2.453 -0.21,-0.174 -0.277,-0.712 -0.287,-2.302 -0.008,-1.232 -0.131,-2.525 -0.302,-3.185 -3.569,-13.771 -6.512,-21.168 -9.947,-24.994 -0.742,-0.827 -0.895,-0.915 -1.525,-0.872 -0.41,0.028 -0.825,-0.064 -1.001,-0.221 -0.166,-0.147 -0.801,-0.469 -1.412,-0.716 -3.258,-1.316 -5.536,-4.03 -6.183,-7.364 -0.128,-0.662 -0.27,-1.391 -0.315,-1.62 -0.046,-0.23 -0.179,-0.417 -0.296,-0.417 -0.118,0 -0.347,-0.121 -0.511,-0.269 -0.263,-0.238 -0.547,-0.126 -2.514,0.988 m -0.261,10.028 c 0.685,0.367 0.467,1.21 -0.453,1.749 -8.012,4.696 -10.206,28.665 -3.793,41.444 0.964,1.922 0.989,2.371 0.146,2.638 -1.325,0.421 -4.018,-6.082 -5.062,-12.226 -1.383,-8.132 -0.289,-19.982 2.435,-26.389 1.861,-4.375 5.247,-8.008 6.727,-7.216 m 75.636,131.293 c -2.553,1.45 -4.421,1.929 -7.547,1.936 -1.502,0.003 -2.731,0.022 -2.731,0.043 0,0.02 1.334,2.156 2.964,4.745 l 2.965,4.708 1.989,-0.023 c 2.54,-0.03 4.185,-0.763 6.843,-3.051 l 0.409,-0.352 -1.697,-4.375 c -0.934,-2.406 -1.743,-4.373 -1.798,-4.371 -0.056,0.002 -0.684,0.335 -1.397,0.74 m -50.818,7.906 c -0.433,2.627 -0.829,4.957 -0.881,5.177 -0.322,1.385 6.55,2.423 9.645,1.457 0.5,-0.156 1.131,-0.284 1.403,-0.284 0.487,0 0.516,-0.072 1.979,-5.046 0.817,-2.775 1.472,-5.065 1.457,-5.087 -0.016,-0.023 -1.024,0.09 -2.24,0.25 -4.173,0.551 -7.144,0.228 -10.283,-1.118 -0.253,-0.108 -0.402,0.535 -1.08,4.651" />
         <path style="fill:#b1a590;fill-rule:evenodd;stroke:none" id="path3-4" d="m 243.009,125.128 c 0.179,0.046 0.47,0.046 0.648,0 0.179,-0.047 0.033,-0.085 -0.324,-0.085 -0.356,0 -0.502,0.038 -0.324,0.085 m 1.762,0.003 c 0.23,0.044 0.563,0.043 0.74,-0.004 0.177,-0.046 -0.011,-0.082 -0.418,-0.08 -0.408,0.002 -0.553,0.04 -0.322,0.084 m -8.891,71.296 c 0.229,0.044 0.604,0.044 0.833,0 0.229,-0.044 0.042,-0.08 -0.417,-0.08 -0.458,0 -0.646,0.036 -0.416,0.08 m -21.665,1.111 c 0.23,0.045 0.564,0.043 0.741,-0.003 0.177,-0.047 -0.012,-0.083 -0.419,-0.081 -0.407,0.002 -0.552,0.04 -0.322,0.084 m 5.091,0.182 c 0.178,0.047 0.469,0.047 0.648,0 0.178,-0.046 0.032,-0.084 -0.324,-0.084 -0.357,0 -0.503,0.038 -0.324,0.084 m 5.094,0.189 c 0.231,0.044 0.564,0.042 0.741,-0.004 0.177,-0.046 -0.011,-0.083 -0.419,-0.081 -0.407,0.003 -0.552,0.04 -0.322,0.085 m 5.554,0.185 c 0.229,0.044 0.604,0.044 0.833,0 0.229,-0.044 0.042,-0.081 -0.417,-0.081 -0.458,0 -0.645,0.037 -0.416,0.081 m 5.463,0.182 c 0.178,0.046 0.47,0.046 0.648,0 0.178,-0.047 0.032,-0.085 -0.324,-0.085 -0.357,0 -0.503,0.038 -0.324,0.085 m -22.411,0.613 c 0,0.356 0.038,0.502 0.085,0.324 0.046,-0.178 0.046,-0.47 0,-0.648 -0.047,-0.178 -0.085,-0.033 -0.085,0.324 m 27.874,-0.425 c 0.229,0.044 0.604,0.044 0.833,0 0.229,-0.044 0.042,-0.08 -0.417,-0.08 -0.458,0 -0.646,0.036 -0.416,0.08 m 5.002,0.185 c 0.23,0.045 0.563,0.043 0.741,-0.003 0.177,-0.047 -0.012,-0.083 -0.419,-0.081 -0.408,0.002 -0.553,0.04 -0.322,0.084 m 5.185,0.186 c 0.23,0.044 0.564,0.042 0.741,-0.004 0.177,-0.046 -0.012,-0.083 -0.419,-0.081 -0.408,0.002 -0.552,0.04 -0.322,0.085 m 5.37,0.185 c 0.231,0.044 0.564,0.042 0.741,-0.004 0.177,-0.046 -0.011,-0.082 -0.419,-0.08 -0.407,0.002 -0.552,0.04 -0.322,0.084 m -42.872,2.964 c 0.28,0.043 0.738,0.043 1.018,0 0.28,-0.042 0.051,-0.077 -0.509,-0.077 -0.56,0 -0.789,0.035 -0.509,0.077 m -5,2.033 c 0.178,0.046 0.47,0.046 0.648,0 0.178,-0.047 0.032,-0.085 -0.324,-0.085 -0.357,0 -0.502,0.038 -0.324,0.085 m 51.293,11.909 c 0,0.356 0.038,0.502 0.084,0.324 0.047,-0.178 0.047,-0.47 0,-0.648 -0.046,-0.178 -0.084,-0.033 -0.084,0.324 m 0,1.296 c 0,0.357 0.038,0.503 0.084,0.324 0.047,-0.178 0.047,-0.47 0,-0.648 -0.046,-0.178 -0.084,-0.032 -0.084,0.324 m -40.645,5.878 c 0.637,0.036 1.678,0.036 2.315,0 0.636,-0.036 0.116,-0.066 -1.158,-0.066 -1.273,0 -1.794,0.03 -1.157,0.066 m 7.965,-0.006 c 0.23,0.044 0.564,0.043 0.741,-0.004 0.177,-0.046 -0.012,-0.082 -0.419,-0.08 -0.407,0.002 -0.552,0.04 -0.322,0.084 m -12.872,0.182 c 0.178,0.046 0.469,0.046 0.648,0 0.178,-0.047 0.032,-0.085 -0.324,-0.085 -0.357,0 -0.503,0.038 -0.324,0.085" />
         <path style="fill:#ece5dd;fill-opacity:1;fill-rule:evenodd;stroke:none" id="path4-4" d="m 313.438,102.06 c -0.299,0.082 -0.857,0.118 -1.241,0.081 -0.411,-0.039 -0.733,0.02 -0.784,0.146 -0.053,0.128 -0.093,0.135 -0.102,0.018 -0.009,-0.124 -0.476,-0.172 -1.265,-0.13 -2.65,0.138 -3.38,0.134 -3.38,-0.019 10e-4,-0.088 -0.228,-0.1 -0.509,-0.028 -1.114,0.286 -8.799,0.382 -13.935,0.174 -4.337,-0.176 -7.247,-0.186 -9.676,-0.032 -1.151,0.072 -1.805,0.047 -1.805,-0.07 0,-0.102 -0.084,-0.133 -0.186,-0.07 -0.102,0.063 -0.987,0.147 -1.967,0.187 -1.266,0.052 -1.872,0.156 -2.097,0.359 -0.174,0.158 -0.449,0.287 -0.611,0.287 -0.421,0 -1.806,1.385 -1.806,1.806 0,0.195 -0.055,0.41 -0.123,0.478 -0.068,0.068 -0.121,0.436 -0.118,0.818 0.003,0.382 -0.059,0.778 -0.139,0.879 -0.079,0.102 -0.11,0.727 -0.069,1.389 0.165,2.66 0.08,6.025 -0.277,10.926 -0.236,3.241 -0.199,6.322 0.078,6.525 0.123,0.091 0.123,0.137 0,0.139 -0.224,0.004 -0.248,5.349 -0.025,5.705 0.082,0.133 0.06,0.348 -0.05,0.48 -0.11,0.133 -0.143,0.298 -0.073,0.368 0.07,0.069 0.148,0.562 0.174,1.094 0.05,1.044 0.14,1.97 0.317,3.282 0.062,0.458 0.16,1.25 0.219,1.759 0.058,0.509 0.144,1.093 0.19,1.296 0.046,0.204 0.12,0.746 0.165,1.204 0.107,1.096 0.279,1.992 0.488,2.542 0.093,0.245 0.169,0.69 0.169,0.989 0,0.695 1.556,0.796 2.765,0.179 0.732,-0.373 2.42,-2.141 2.42,-2.534 0,-0.12 0.072,-0.247 0.16,-0.281 0.206,-0.08 1.507,-2.602 1.507,-2.923 0,-0.416 1.721,-1.861 2.083,-1.75 0.178,0.055 0.324,0.028 0.324,-0.058 0,-0.087 0.979,-0.153 2.176,-0.147 1.197,0.007 2.407,-0.048 2.689,-0.12 0.282,-0.073 0.471,-0.065 0.42,0.018 -0.051,0.082 0.114,0.15 0.367,0.15 0.253,0 0.459,-0.056 0.459,-0.124 0,-0.187 1.558,-0.166 1.682,0.022 0.062,0.092 0.313,0.085 0.58,-0.017 0.489,-0.186 8.603,-0.146 9.775,0.048 1.085,0.179 6.495,0.316 6.727,0.17 0.341,-0.214 3.644,-0.221 3.644,-0.008 0,0.123 0.079,0.124 0.231,0.003 0.137,-0.107 1.635,-0.169 3.658,-0.15 1.884,0.018 3.627,-0.038 3.873,-0.125 0.278,-0.098 0.492,-0.086 0.565,0.032 0.072,0.117 0.33,0.134 0.664,0.044 0.3,-0.08 2.962,-0.12 5.916,-0.088 6.726,0.073 9.983,-0.307 10.799,-1.26 0.166,-0.194 0.43,-0.353 0.587,-0.353 0.156,0 0.509,-0.208 0.784,-0.463 0.275,-0.254 0.586,-0.463 0.692,-0.463 0.107,0 0.194,-0.112 0.194,-0.25 0,-0.138 0.201,-0.468 0.446,-0.733 0.246,-0.265 0.512,-0.756 0.592,-1.092 0.079,-0.335 0.16,-0.672 0.178,-0.749 0.019,-0.076 0.052,-0.159 0.074,-0.185 0.197,-0.226 0.339,-4.582 0.145,-4.462 -0.076,0.047 -0.06,-0.119 0.035,-0.369 0.095,-0.25 0.122,-0.506 0.059,-0.569 -0.127,-0.126 -0.181,-1.207 -0.312,-6.22 -0.049,-1.884 -0.101,-3.468 -0.114,-3.519 -0.014,-0.051 -0.025,-1.467 -0.026,-3.148 -0.002,-3.608 -0.204,-6.16 -0.498,-6.257 -0.115,-0.039 -0.209,-0.271 -0.209,-0.518 0,-0.246 -0.075,-0.447 -0.167,-0.447 -0.092,0 -0.254,-0.249 -0.36,-0.553 -0.186,-0.535 -1.596,-2.04 -1.91,-2.04 -0.086,0 -0.155,-0.062 -0.155,-0.139 0,-0.369 -2.36,-0.872 -4.11,-0.875 -0.999,-0.002 -1.816,-0.077 -1.816,-0.166 0,-0.089 -0.106,-0.074 -0.234,0.033 -0.243,0.201 -9.832,0.172 -13.285,-0.04 -3.352,-0.206 -5.095,-0.233 -5.636,-0.086 m 19.247,1.906 c 5.129,0.195 6.877,1.278 7.048,4.367 0.014,0.255 0.046,0.547 0.072,0.648 0.026,0.102 0.033,0.454 0.015,0.783 -0.018,0.328 0.016,0.677 0.077,0.774 0.06,0.098 0.147,1.162 0.194,2.366 0.047,1.204 0.156,2.939 0.244,3.855 0.68,7.118 0.049,15.377 -1.255,16.415 -0.294,0.233 -0.493,0.49 -0.444,0.57 0.049,0.08 -0.108,0.145 -0.349,0.145 -0.241,0 -0.6,0.122 -0.798,0.272 -0.198,0.149 -0.589,0.274 -0.869,0.278 -0.28,0.003 -0.509,0.072 -0.509,0.153 0,0.081 -0.31,0.168 -0.689,0.194 -0.379,0.025 -0.733,0.105 -0.787,0.176 -0.054,0.072 -0.348,0.138 -0.654,0.148 -0.305,0.009 -1.18,0.083 -1.944,0.164 -0.764,0.082 -11.868,0.14 -24.676,0.131 -26.314,-0.019 -24.415,-0.125 -25.911,1.443 -1.062,1.115 -1.879,2.352 -1.721,2.608 0.062,0.101 0.003,0.16 -0.132,0.132 -0.135,-0.028 -0.245,0.074 -0.245,0.227 0,0.153 -0.109,0.393 -0.242,0.533 -0.133,0.14 -0.197,0.374 -0.141,0.519 0.056,0.146 0.019,0.213 -0.082,0.15 -0.101,-0.062 -0.183,0.039 -0.183,0.224 0,0.185 -0.167,0.441 -0.371,0.568 -0.203,0.127 -0.37,0.355 -0.37,0.507 0,0.152 -0.125,0.277 -0.278,0.277 -0.153,0 -0.278,0.073 -0.278,0.163 0,0.227 -0.931,0.818 -1.07,0.68 -0.112,-0.112 -0.528,-2.216 -0.679,-3.436 -0.351,-2.832 -0.521,-6.314 -0.553,-11.306 -0.021,-3.213 -0.107,-5.955 -0.193,-6.093 -0.099,-0.16 -0.084,-0.207 0.041,-0.13 0.188,0.116 0.209,-0.305 0.247,-4.971 0.006,-0.713 0.006,-3.243 0.002,-5.621 -0.005,-2.379 0.062,-4.462 0.15,-4.63 0.088,-0.167 0.12,-0.564 0.072,-0.88 -0.132,-0.863 0.775,-1.82 2.003,-2.114 0.7,-0.168 5.768,-0.233 19.988,-0.256 10.477,-0.017 19.088,-0.07 19.135,-0.117 0.13,-0.13 12.132,-0.067 16.135,0.084 m -43.595,8.549 c -0.619,0.521 -1.216,1.612 -1.175,2.148 0.014,0.185 -0.053,0.337 -0.149,0.337 -0.095,0 -0.176,0.104 -0.179,0.231 -0.022,0.835 -1.417,1.231 -2.927,0.832 -1.409,-0.373 -2.716,0.34 -2.634,1.437 0.023,0.311 -0.004,0.326 -0.171,0.093 -0.153,-0.213 -0.171,-0.156 -0.077,0.247 0.142,0.611 0.712,1.23 1.436,1.559 0.281,0.128 0.459,0.315 0.397,0.417 -0.064,0.102 0.078,0.184 0.318,0.184 0.493,0 1.256,0.475 1.256,0.782 0,0.337 -0.615,1.625 -0.776,1.625 -0.082,0 -0.15,0.133 -0.15,0.296 0,0.162 -0.163,0.525 -0.363,0.805 -0.335,0.471 -0.369,1.05 -0.104,1.806 0.256,0.731 2.879,0.026 4.596,-1.238 0.825,-0.606 1.31,-0.524 2.168,0.366 0.255,0.264 0.859,0.672 1.343,0.906 0.484,0.235 0.828,0.511 0.764,0.615 -0.074,0.119 0.035,0.14 0.3,0.056 0.251,-0.08 0.469,-0.048 0.549,0.081 0.095,0.154 0.294,0.121 0.717,-0.119 0.671,-0.381 0.85,-2.357 0.266,-2.941 -0.149,-0.149 -0.225,-0.395 -0.167,-0.545 0.058,-0.15 0.032,-0.273 -0.056,-0.273 -0.089,0 -0.144,-0.25 -0.123,-0.555 0.022,-0.306 -0.021,-0.556 -0.093,-0.556 -0.073,0 -0.089,-0.167 -0.036,-0.37 0.054,-0.204 0.226,-0.371 0.384,-0.371 0.158,0 0.237,-0.05 0.175,-0.112 -0.062,-0.062 -0.03,-0.208 0.071,-0.324 0.811,-0.94 1.645,-2.263 1.562,-2.479 -0.055,-0.145 -0.101,-0.329 -0.101,-0.411 0,-0.307 -1.138,-0.599 -2.485,-0.638 -1.69,-0.05 -1.511,0.129 -1.935,-1.935 -0.502,-2.449 -1.301,-3.05 -2.601,-1.956 m 18.689,0.105 c -0.306,0.321 -0.557,0.66 -0.557,0.754 0,0.094 -0.125,0.296 -0.278,0.449 -0.152,0.153 -0.277,0.48 -0.277,0.727 0,0.248 -0.084,0.45 -0.186,0.45 -0.101,0 -0.185,0.165 -0.185,0.366 0,0.754 -2.251,1.207 -3.172,0.638 -0.098,-0.061 -0.573,-0.016 -1.054,0.099 -1.467,0.352 -1.831,1.79 -0.711,2.805 0.972,0.88 1.229,1.092 1.326,1.092 0.051,0 0.218,0 0.371,0 0.731,0 1.027,0.669 0.694,1.568 -0.171,0.461 -0.377,0.839 -0.457,0.839 -0.079,0 -0.145,0.141 -0.145,0.313 0,0.171 -0.159,0.484 -0.354,0.694 -0.433,0.468 -0.508,0.968 -0.243,1.611 0.421,1.021 2.849,0.516 4.733,-0.984 0.523,-0.416 0.765,-0.511 0.917,-0.359 0.113,0.114 0.338,0.207 0.499,0.207 0.16,0 0.525,0.266 0.811,0.592 0.286,0.326 0.846,0.738 1.245,0.917 0.399,0.178 0.725,0.421 0.725,0.539 0,0.121 0.131,0.164 0.302,0.098 0.165,-0.063 0.41,-0.025 0.543,0.085 1.022,0.849 1.764,-1.83 0.952,-3.435 -0.503,-0.992 -0.507,-2.012 -0.01,-2.49 0.24,-0.231 0.436,-0.529 0.436,-0.664 0,-0.135 0.219,-0.418 0.488,-0.629 0.268,-0.211 0.429,-0.383 0.357,-0.383 -0.072,0 0,-0.131 0.16,-0.291 1.014,-1.015 0.037,-1.748 -2.456,-1.843 l -1.409,-0.054 -0.222,-1.268 c -0.122,-0.696 -0.229,-1.406 -0.237,-1.577 -0.061,-1.284 -1.689,-1.825 -2.606,-0.866 m 19.04,-0.166 c -0.72,0.65 -1.263,1.538 -1.263,2.065 0,0.265 -0.084,0.481 -0.186,0.481 -0.101,0 -0.185,0.167 -0.185,0.37 0,0.204 -0.083,0.371 -0.185,0.371 -0.102,0 -0.186,0.187 -0.188,0.416 -0.002,0.23 -0.064,0.332 -0.139,0.228 -0.075,-0.104 -0.698,-0.187 -1.386,-0.185 -0.687,0.002 -1.25,-0.059 -1.25,-0.135 0,-0.208 -0.886,-0.168 -1.018,0.046 -0.063,0.102 -0.359,0.185 -0.657,0.185 -0.492,0 -0.554,0.071 -0.664,0.756 -0.081,0.512 -0.171,0.676 -0.277,0.509 -0.107,-0.168 -0.157,-0.176 -0.159,-0.026 -10e-4,0.122 0.082,0.273 0.185,0.337 0.104,0.064 0.138,0.198 0.076,0.298 -0.118,0.192 0.741,1.089 1.042,1.089 0.097,0 0.323,0.146 0.503,0.324 0.18,0.179 0.574,0.409 0.876,0.513 0.96,0.329 0.982,0.912 0.09,2.482 -0.881,1.553 -0.938,1.756 -0.692,2.468 0.36,1.042 3.06,0.439 5.052,-1.128 0.54,-0.425 1.039,-0.27 1.809,0.56 0.232,0.252 0.815,0.653 1.295,0.893 0.48,0.239 0.872,0.514 0.872,0.609 0,0.096 0.167,0.131 0.371,0.078 0.203,-0.054 0.412,-0.029 0.464,0.055 0.234,0.379 1.202,-0.4 1.229,-0.988 0.014,-0.323 0.036,-0.796 0.048,-1.051 0.012,-0.255 -0.07,-0.63 -0.182,-0.833 -0.262,-0.475 -0.518,-1.389 -0.506,-1.806 0.005,-0.178 -0.055,-0.324 -0.134,-0.324 -0.079,0 -0.1,-0.167 -0.047,-0.37 0.053,-0.204 0.202,-0.371 0.331,-0.371 0.128,0 0.334,-0.244 0.458,-0.542 0.123,-0.298 0.392,-0.694 0.597,-0.879 1.267,-1.147 0.602,-2.965 -0.877,-2.398 -0.149,0.057 -0.27,0.044 -0.27,-0.029 0,-0.073 -0.469,-0.133 -1.041,-0.133 -1.198,0 -1.171,0.036 -1.537,-2.079 -0.37,-2.136 -1.337,-2.867 -2.455,-1.856 m 1.43,4.723 c 0.166,0.434 0.383,0.738 0.482,0.676 0.1,-0.061 0.851,-0.052 1.668,0.02 l 1.487,0.132 -0.637,0.673 c -1.332,1.407 -1.588,2.538 -0.969,4.291 0.154,0.436 0.237,0.835 0.186,0.886 -0.104,0.104 -1.955,-1.389 -2.188,-1.765 -0.082,-0.131 -0.269,-0.238 -0.417,-0.238 -0.148,0 -0.268,-0.085 -0.268,-0.188 0,-0.275 -1.121,-0.165 -1.713,0.167 -0.28,0.157 -0.51,0.384 -0.51,0.504 0,0.119 -0.208,0.27 -0.463,0.334 -0.254,0.064 -0.463,0.198 -0.463,0.297 0,0.1 -0.091,0.182 -0.202,0.182 -0.112,0 -0.463,0.185 -0.779,0.41 l -0.576,0.411 0.686,-1.228 c 0.789,-1.41 0.9,-2.438 0.336,-3.088 -0.44,-0.507 -1.887,-1.497 -2.196,-1.501 -0.127,-0.002 -0.232,-0.083 -0.232,-0.181 0,-0.168 0.421,-0.151 2.168,0.09 1.604,0.221 2.848,-0.5 3.093,-1.795 0.025,-0.136 0.205,-0.567 0.398,-0.958 l 0.351,-0.71 0.229,0.895 c 0.125,0.493 0.364,1.251 0.529,1.684 m -108.573,8.143 c 0.382,0.04 1.007,0.04 1.389,0 0.382,-0.04 0.069,-0.073 -0.695,-0.073 -0.764,0 -1.076,0.033 -0.694,0.073 m 17.222,62.59 c 0.28,0.043 0.739,0.043 1.019,0 0.28,-0.042 0.051,-0.077 -0.51,-0.077 -0.56,0 -0.789,0.035 -0.509,0.077 m -22.963,3.144 c 0.178,0.046 0.47,0.046 0.648,0 0.179,-0.047 0.033,-0.085 -0.324,-0.085 -0.356,0 -0.502,0.038 -0.324,0.085 m 3.519,0.185 c 0.178,0.046 0.47,0.046 0.648,0 0.178,-0.047 0.032,-0.085 -0.324,-0.085 -0.357,0 -0.503,0.038 -0.324,0.085 m 14.356,0.934 c 0.436,0.039 1.103,0.038 1.482,-0.001 0.379,-0.04 0.023,-0.072 -0.792,-0.071 -0.815,0 -1.125,0.033 -0.69,0.072 m 2.775,4.254 c 0.231,0.045 0.564,0.043 0.741,-0.003 0.177,-0.047 -0.011,-0.083 -0.419,-0.081 -0.407,0.002 -0.552,0.04 -0.322,0.084 m 5.739,0.185 c 0.229,0.044 0.604,0.044 0.833,0 0.23,-0.044 0.042,-0.08 -0.416,-0.08 -0.459,0 -0.646,0.036 -0.417,0.08 m -24.815,0.926 c 0.229,0.044 0.604,0.044 0.834,0 0.229,-0.044 0.041,-0.08 -0.417,-0.08 -0.458,0 -0.646,0.036 -0.417,0.08 m 5,0.185 c 0.229,0.044 0.604,0.044 0.834,0 0.229,-0.044 0.041,-0.08 -0.417,-0.08 -0.458,0 -0.646,0.036 -0.417,0.08 m 5.281,0.188 c 0.281,0.042 0.698,0.041 0.926,-0.003 0.227,-0.044 -0.003,-0.079 -0.512,-0.077 -0.51,0.001 -0.696,0.037 -0.414,0.08 m 5.645,0.183 c 0.229,0.044 0.604,0.044 0.834,0 0.229,-0.044 0.041,-0.081 -0.417,-0.081 -0.458,0 -0.646,0.037 -0.417,0.081 m 5.281,0.187 c 0.281,0.043 0.698,0.041 0.925,-0.002 0.228,-0.044 -0.002,-0.079 -0.511,-0.078 -0.51,0.002 -0.696,0.037 -0.414,0.08 m 5.645,0.183 c 0.229,0.044 0.604,0.044 0.833,0 0.23,-0.044 0.042,-0.08 -0.416,-0.08 -0.459,0 -0.646,0.036 -0.417,0.08 m 4.817,0.185 c 0.23,0.045 0.564,0.043 0.741,-0.003 0.177,-0.047 -0.012,-0.083 -0.419,-0.081 -0.407,0.002 -0.552,0.04 -0.322,0.084 m 5.278,0.188 c 0.282,0.042 0.698,0.041 0.926,-0.003 0.228,-0.044 -0.002,-0.079 -0.512,-0.077 -0.509,0.001 -0.695,0.037 -0.414,0.08 m 5.275,0.183 c 0.23,0.044 0.605,0.044 0.834,0 0.229,-0.045 0.041,-0.081 -0.417,-0.081 -0.458,0 -0.646,0.036 -0.417,0.081 M 213.006,200 c 0,0.356 0.038,0.502 0.085,0.324 0.046,-0.178 0.046,-0.47 0,-0.648 -0.047,-0.178 -0.085,-0.032 -0.085,0.324 m 6.855,2.165 c 0.178,0.046 0.47,0.046 0.648,0 0.179,-0.047 0.033,-0.085 -0.324,-0.085 -0.356,0 -0.502,0.038 -0.324,0.085 m 3.519,0.185 c 0.178,0.046 0.47,0.046 0.648,0 0.178,-0.047 0.032,-0.085 -0.324,-0.085 -0.357,0 -0.503,0.038 -0.324,0.085 m -9.53,1.491 c 0.64,0.036 1.64,0.036 2.222,-0.001 0.582,-0.036 0.058,-0.066 -1.165,-0.066 -1.222,0.001 -1.698,0.031 -1.057,0.067 m 7.958,0.179 c 0.23,0.044 0.563,0.042 0.74,-0.004 0.178,-0.046 -0.011,-0.082 -0.418,-0.08 -0.408,0.002 -0.553,0.04 -0.322,0.084 m 27.868,0.367 c 0.178,0.046 0.47,0.046 0.648,0 0.178,-0.047 0.032,-0.085 -0.324,-0.085 -0.356,0 -0.502,0.038 -0.324,0.085 M 223.665,223.1 c 0.64,0.037 1.64,0.036 2.222,0 0.582,-0.037 0.057,-0.067 -1.165,-0.066 -1.222,0 -1.698,0.03 -1.057,0.066 m -8.248,0.176 c 0.178,0.046 0.47,0.046 0.648,0 0.178,-0.047 0.032,-0.085 -0.324,-0.085 -0.357,0 -0.503,0.038 -0.324,0.085 m 15.833,0.003 c 0.229,0.044 0.604,0.044 0.833,0 0.229,-0.044 0.042,-0.08 -0.416,-0.08 -0.459,0 -0.646,0.036 -0.417,0.08 m 43.15,63.333 c 0.231,0.045 0.564,0.043 0.741,-0.003 0.177,-0.047 -0.011,-0.083 -0.419,-0.081 -0.407,0.002 -0.552,0.04 -0.322,0.084" />
      </g>

   </g>
</svg>
