<?xml version="1.0" encoding="UTF-8" standalone="no"?>
<svg xmlns:dc="http://purl.org/dc/elements/1.1/" xmlns:cc="http://creativecommons.org/ns#" xmlns:rdf="http://www.w3.org/1999/02/22-rdf-syntax-ns#" xmlns:svg="http://www.w3.org/2000/svg" xmlns="http://www.w3.org/2000/svg" viewBox="0 0 235.13595 304.82998" height="304.82999" width="235.13594" version="1.1" id="svg">
   <metadata id="metadata13">
      <rdf:RDF>
         <cc:Work rdf:about="">
            <dc:format>image/svg+xml</dc:format>
            <dc:type rdf:resource="http://purl.org/dc/dcmitype/StillImage" />
            <dc:title></dc:title>
         </cc:Work>
      </rdf:RDF>
   </metadata>
   <defs id="defs11" />
   <g transform="translate(-82.457067,-47.593)" id="svgg-5">
      <path style="fill:#ece5dd;fill-opacity:1;fill-rule:evenodd;stroke:none" id="path0-4" d="m 237.437,53.194 c -0.204,0.331 -0.428,0.831 -0.498,1.112 -0.07,0.28 -0.196,0.509 -0.28,0.509 -0.084,0 -0.209,0.187 -0.279,0.416 -0.069,0.23 -0.278,0.584 -0.464,0.788 -0.941,1.031 -4.695,8.285 -3.982,7.693 0.222,-0.184 0.485,0.074 1.537,1.505 3.564,4.851 9.242,13.123 12.564,18.303 2.525,3.937 9.335,15.556 9.335,15.926 0,0.073 0.218,0.453 0.484,0.845 0.267,0.393 1.695,3.092 3.175,5.998 1.48,2.907 2.971,5.755 3.313,6.329 0.343,0.575 0.739,1.367 0.881,1.76 0.143,0.393 0.892,2.029 1.666,3.635 0.774,1.607 1.407,2.962 1.407,3.011 0,0.05 0.426,1.027 0.947,2.172 2.177,4.787 6.501,15.548 8.167,20.323 2.08,5.963 3.861,11.346 4.595,13.888 0.426,1.477 0.794,2.707 0.818,2.733 0.024,0.026 1.911,0.424 4.194,0.884 2.282,0.46 4.585,0.934 5.117,1.053 1.222,0.273 1.242,0.246 0.783,-1.074 -0.209,-0.603 -0.536,-1.705 -0.728,-2.45 -0.192,-0.745 -0.423,-1.453 -0.514,-1.574 -0.091,-0.121 -0.313,-0.761 -0.492,-1.423 -0.344,-1.267 -0.484,-1.688 -2.085,-6.297 -0.548,-1.578 -1.068,-3.12 -1.156,-3.426 -0.216,-0.759 -1.252,-3.509 -1.477,-3.923 -0.101,-0.185 -0.399,-1.003 -0.662,-1.817 -0.264,-0.815 -0.551,-1.649 -0.637,-1.852 -1.02,-2.408 -3.139,-7.671 -3.579,-8.889 -0.11,-0.306 -0.305,-0.806 -0.433,-1.111 -0.129,-0.306 -0.539,-1.347 -0.913,-2.315 -1.457,-3.778 -3.81,-9.119 -4.16,-9.445 -0.055,-0.05 -0.126,-0.259 -0.159,-0.462 -0.032,-0.204 -0.636,-1.56 -1.342,-3.014 -0.706,-1.454 -1.284,-2.715 -1.284,-2.801 0,-0.299 -1.301,-3.014 -1.576,-3.288 -0.152,-0.152 -0.282,-0.332 -0.289,-0.401 -0.074,-0.675 -0.326,-1.247 -1.272,-2.886 -0.605,-1.047 -1.496,-2.809 -1.98,-3.913 -0.483,-1.105 -1.036,-2.166 -1.227,-2.357 -0.192,-0.192 -0.382,-0.522 -0.423,-0.735 -0.041,-0.212 -0.618,-1.362 -1.283,-2.555 -0.665,-1.192 -1.209,-2.209 -1.209,-2.259 0,-0.049 -0.43,-0.831 -0.957,-1.737 -0.526,-0.906 -1.121,-1.98 -1.323,-2.388 -0.201,-0.407 -0.676,-1.241 -1.056,-1.852 -1.303,-2.098 -2.22,-3.768 -2.22,-4.044 0,-0.152 -0.064,-0.304 -0.142,-0.338 -0.143,-0.062 -2.118,-3.287 -3.021,-4.932 -1.018,-1.856 -1.808,-3.158 -2.912,-4.799 -0.631,-0.938 -1.147,-1.792 -1.147,-1.898 0,-0.106 -0.077,-0.192 -0.171,-0.192 -0.094,0 -0.264,-0.271 -0.378,-0.602 -0.114,-0.331 -0.619,-1.185 -1.121,-1.898 -0.502,-0.713 -1.093,-1.63 -1.312,-2.037 -0.22,-0.408 -0.513,-0.808 -0.653,-0.889 -0.139,-0.082 -0.254,-0.232 -0.254,-0.333 0,-0.184 -1.24,-2.212 -1.46,-2.39 -0.229,-0.183 -1.07,-1.396 -1.185,-1.708 -0.199,-0.542 -4.606,-7.18 -4.766,-7.18 -0.083,0 -0.318,0.27 -0.522,0.601 m -34.289,58.507 c -0.738,0.512 -6.144,3.299 -6.399,3.299 -0.055,0 -1.783,0.823 -3.841,1.828 -4.771,2.331 -7.797,3.73 -9.667,4.469 -0.815,0.322 -1.857,0.777 -2.315,1.013 -1.138,0.583 -2.736,1.308 -4.722,2.14 -0.917,0.384 -2.75,1.216 -4.074,1.848 -1.324,0.632 -3.228,1.514 -4.231,1.96 -8.474,3.768 -12.11,11.389 -9.297,19.488 0.717,2.061 4.959,10.902 5.388,11.225 0.143,0.107 0.382,0.547 0.532,0.977 0.732,2.1 5.797,7.301 6.617,6.794 0.086,-0.053 0.157,-0.009 0.157,0.099 0,0.108 0.081,0.196 0.18,0.196 0.099,0 0.62,0.198 1.157,0.44 2.851,1.283 5.934,1.528 9.613,0.766 2.355,-0.488 2.661,-0.601 2.661,-0.983 0,-0.132 0.792,-0.599 1.76,-1.038 0.967,-0.44 3.592,-1.696 5.833,-2.793 8.093,-3.962 10.495,-5.108 12.269,-5.855 2.936,-1.237 4.12,-1.821 4.12,-2.029 0,-0.108 0.093,-0.139 0.206,-0.069 0.113,0.07 0.277,0.012 0.363,-0.128 0.087,-0.141 0.224,-0.257 0.304,-0.26 0.08,-0.002 0.615,-0.236 1.188,-0.52 0.574,-0.284 1.449,-0.627 1.945,-0.762 0.496,-0.135 1.735,-0.468 2.753,-0.739 1.766,-0.469 4.175,-1.187 5.371,-1.601 0.305,-0.105 0.763,-0.226 1.018,-0.267 0.831,-0.137 1.612,-0.425 1.204,-0.444 -0.411,-0.019 -6.161,-11.273 -11.741,-22.977 -0.753,-1.579 -2.065,-4.307 -2.916,-6.063 -0.851,-1.756 -1.547,-3.234 -1.547,-3.285 0,-0.051 -0.713,-1.6 -1.585,-3.442 -1.266,-2.676 -1.541,-3.403 -1.366,-3.613 0.358,-0.432 -0.049,-0.29 -0.938,0.326 m -48.199,43.438 c -0.459,0.507 -0.696,1.294 -0.527,1.75 0.137,0.371 0.164,0.347 0.276,-0.251 0.068,-0.364 0.289,-0.811 0.491,-0.993 0.372,-0.337 0.497,-0.83 0.21,-0.83 -0.086,0 -0.289,0.146 -0.45,0.324 m -4.392,4.786 c -0.835,0.362 -1.483,0.975 -1.483,1.404 0,0.492 0.176,0.423 1.012,-0.392 0.411,-0.402 0.997,-0.86 1.303,-1.018 0.753,-0.389 0.068,-0.385 -0.832,0.006 m 9.671,9.436 c -2.333,0.628 -2.349,0.674 -1.386,3.963 1.029,3.517 0.496,4.359 -3.634,5.744 -3.233,1.084 -4.466,0.438 -4.751,-2.492 l -0.126,-1.293 -0.403,0.505 c -0.222,0.278 -0.897,1.319 -1.501,2.313 -0.604,0.993 -1.206,1.917 -1.337,2.051 -0.131,0.135 -0.238,0.323 -0.238,0.419 0,0.262 -0.789,1.913 -0.976,2.041 -0.09,0.062 -0.137,0.23 -0.104,0.374 0.066,0.284 -0.596,2.014 -0.77,2.014 -0.059,0 -0.125,0.431 -0.148,0.958 -0.023,0.526 -0.125,1.267 -0.227,1.646 -0.488,1.81 -0.125,6.98 0.552,7.859 0.078,0.102 0.288,0.643 0.466,1.204 0.177,0.56 0.521,1.382 0.763,1.826 0.242,0.444 0.395,0.881 0.339,0.972 -0.056,0.09 -0.014,0.165 0.094,0.165 0.108,0 0.196,0.123 0.196,0.274 0,0.341 1.407,3.341 1.892,4.032 0.728,1.04 0.604,3.508 -0.58,11.527 -0.985,6.672 -0.687,9.325 1.29,11.47 4.974,5.396 18.961,4.576 25.072,-1.47 4.504,-4.456 5.143,-8.756 2.949,-19.84 -0.553,-2.79 -0.647,-3.025 -1.07,-2.673 -0.159,0.132 -0.244,0.314 -0.188,0.404 0.056,0.091 -0.198,0.165 -0.564,0.165 -0.365,0 -0.964,0.125 -1.33,0.277 -0.78,0.327 -1.448,0.389 -0.989,0.093 0.45,-0.291 -0.436,-0.231 -1.605,0.109 -0.558,0.162 -1.211,0.245 -1.452,0.185 -0.242,-0.061 -0.484,-0.039 -0.538,0.049 -0.054,0.087 -0.496,0.101 -0.983,0.029 -0.979,-0.143 -3.513,-0.121 -3.666,0.032 -0.107,0.107 -3.789,-0.671 -6.613,-1.397 -2.297,-0.591 -4.105,-1.382 -3.853,-1.686 0.267,-0.321 -0.145,-0.653 -0.818,-0.66 -0.624,-0.007 -1.304,-0.43 -1.309,-0.814 -10e-4,-0.136 -0.283,-0.509 -0.627,-0.83 -0.343,-0.321 -0.573,-0.635 -0.511,-0.697 0.062,-0.062 0.289,0.086 0.503,0.33 0.214,0.243 0.328,0.317 0.254,0.165 -0.074,-0.153 -0.246,-0.408 -0.382,-0.567 -0.135,-0.159 -0.503,-0.743 -0.816,-1.296 -0.313,-0.554 -0.513,-0.799 -0.443,-0.545 0.069,0.255 0.211,0.569 0.315,0.699 0.3,0.375 -0.011,0.504 -0.39,0.161 -0.624,-0.564 -1.029,-2.48 -0.48,-2.27 0.22,0.085 0.264,0.023 0.185,-0.258 -0.058,-0.203 -0.152,-0.535 -0.21,-0.739 -0.058,-0.204 -0.193,-0.37 -0.301,-0.37 -0.13,0 -0.149,-0.268 -0.057,-0.788 0.221,-1.24 0.255,-2.183 0.073,-2.071 -0.091,0.056 -0.164,-0.006 -0.163,-0.14 0.004,-0.293 0.358,-0.875 0.373,-0.613 0.006,0.102 0.154,-0.231 0.329,-0.74 0.177,-0.515 0.245,-0.979 0.154,-1.044 -0.155,-0.112 -0.055,-0.383 0.297,-0.808 0.084,-0.102 0.257,-0.336 0.384,-0.52 0.126,-0.184 0.357,-0.353 0.513,-0.376 0.156,-0.023 0.487,-0.237 0.736,-0.476 2.628,-2.522 11.322,-2.226 18.74,0.639 0.921,0.356 1.71,0.611 1.754,0.568 0.203,-0.204 -2.073,-8.145 -3.334,-11.63 -1.901,-5.253 -5.038,-7.32 -9.35,-6.159 m -3.932,15.454 c -0.372,0.119 -0.39,0.149 -0.092,0.154 0.203,0.003 0.537,-0.067 0.74,-0.154 0.472,-0.203 -0.015,-0.203 -0.648,0 m 1.808,-0.054 c 0.23,0.044 0.564,0.042 0.741,-0.004 0.177,-0.046 -0.012,-0.083 -0.419,-0.081 -0.407,0.002 -0.552,0.04 -0.322,0.085 m 9.759,1.174 c 0.606,0.19 1.132,0.317 1.167,0.282 0.097,-0.097 -1.645,-0.664 -1.98,-0.645 -0.16,0.01 0.206,0.173 0.813,0.363 m 1.952,0.639 c 0.857,0.33 1.133,0.33 0.555,0 -0.254,-0.145 -0.629,-0.261 -0.833,-0.257 -0.242,0.005 -0.147,0.094 0.278,0.257 m 1.682,0.526 c 0.178,0.144 1.651,0.667 1.651,0.586 0,-0.111 -1.273,-0.649 -1.535,-0.649 -0.106,0 -0.159,0.028 -0.116,0.063 m -15.571,14.474 c 0.255,0.146 0.546,0.265 0.648,0.265 0.102,0 -0.023,-0.119 -0.278,-0.265 -0.254,-0.145 -0.546,-0.265 -0.648,-0.265 -0.102,0 0.023,0.12 0.278,0.265" />
      <path style="fill:#ece5dd;fill-opacity:1;fill-rule:evenodd;stroke:none" id="path1-744" d="m 287.083,56.771 c -0.128,0.139 -0.329,0.464 -0.447,0.722 -0.118,0.258 -0.284,0.47 -0.369,0.47 -0.086,0 -0.156,0.075 -0.156,0.167 0,0.091 -0.294,0.603 -0.653,1.137 -0.359,0.533 -0.61,1.013 -0.557,1.066 0.053,0.053 -0.069,0.213 -0.273,0.355 -0.203,0.143 -0.369,0.408 -0.369,0.59 0,0.183 -0.169,0.527 -0.375,0.765 -0.207,0.238 -0.427,0.647 -0.49,0.908 -0.063,0.261 -0.269,0.696 -0.458,0.966 -0.189,0.271 -0.343,0.625 -0.343,0.788 0,0.162 -0.08,0.295 -0.178,0.295 -0.098,0 -0.281,0.354 -0.408,0.787 -0.126,0.433 -0.278,0.829 -0.336,0.88 -0.101,0.087 -0.239,0.407 -1.158,2.685 -0.206,0.509 -0.655,1.482 -0.999,2.161 -0.344,0.68 -0.625,1.362 -0.625,1.517 0,0.155 -0.063,0.32 -0.139,0.368 -0.076,0.047 -0.122,-0.386 -0.102,-0.962 0.021,-0.576 -0.054,-1.336 -0.166,-1.688 -0.112,-0.353 -0.189,-1.082 -0.171,-1.621 0.017,-0.538 -0.033,-0.979 -0.112,-0.98 -0.079,0 -0.157,-0.563 -0.173,-1.25 -0.016,-0.687 -0.164,-2.073 -0.328,-3.08 -0.165,-1.007 -0.251,-1.984 -0.191,-2.172 0.263,-0.83 -0.206,-0.948 -0.715,-0.179 -0.273,0.411 -0.496,0.787 -0.496,0.835 0,0.048 -0.208,0.312 -0.463,0.587 -0.254,0.274 -0.64,0.985 -0.856,1.58 -0.217,0.594 -0.457,1.041 -0.535,0.994 -0.127,-0.079 -0.307,0.285 -0.64,1.297 -0.067,0.204 -0.127,0.412 -0.132,0.463 -0.006,0.051 -0.125,0.257 -0.266,0.458 -0.141,0.201 -0.256,0.509 -0.256,0.684 0,0.175 -0.163,0.596 -0.363,0.935 -0.426,0.721 -0.898,2.006 -1.036,2.816 -0.053,0.314 -0.229,0.67 -0.39,0.793 -0.162,0.122 -0.249,0.341 -0.193,0.486 0.056,0.146 0.029,0.337 -0.058,0.426 -0.088,0.089 -0.328,0.93 -0.532,1.869 -0.205,0.939 -0.46,1.871 -0.567,2.071 -0.107,0.2 -0.194,0.581 -0.194,0.846 0,0.266 -0.165,0.805 -0.366,1.199 -0.201,0.394 -0.422,1.073 -0.492,1.51 -0.305,1.911 -0.725,1.98 -0.915,0.152 -0.067,-0.654 -0.186,-1.273 -0.264,-1.374 -0.077,-0.102 -0.2,-0.76 -0.273,-1.462 -0.073,-0.702 -0.257,-1.619 -0.408,-2.037 -0.152,-0.418 -0.311,-1.386 -0.355,-2.15 -0.088,-1.564 -0.422,-4.81 -0.523,-5.092 -0.036,-0.102 -0.249,0.231 -0.473,0.741 -0.223,0.509 -0.524,1.188 -0.669,1.509 -0.144,0.321 -0.262,0.648 -0.262,0.726 0,0.079 -0.115,0.274 -0.256,0.435 -0.14,0.161 -0.382,0.709 -0.538,1.218 -0.155,0.51 -0.577,1.763 -0.937,2.785 -0.36,1.022 -0.696,2.084 -0.746,2.359 -0.05,0.276 -0.172,0.773 -0.272,1.105 -0.611,2.03 -0.708,3.016 -0.31,3.169 0.357,0.137 0.581,-0.303 0.734,-1.442 0.067,-0.502 0.164,-0.981 0.215,-1.064 0.052,-0.083 0.126,-0.297 0.166,-0.476 0.278,-1.241 1.06,-3.856 1.207,-4.033 0.098,-0.118 0.123,-0.269 0.056,-0.336 -0.067,-0.067 -0.024,-0.122 0.094,-0.122 0.119,0 0.216,-0.161 0.216,-0.358 0,-0.197 0.09,-0.593 0.199,-0.88 0.109,-0.287 0.208,-0.563 0.221,-0.614 0.012,-0.051 0.093,-0.176 0.178,-0.278 0.086,-0.102 0.275,-0.352 0.421,-0.555 0.246,-0.343 0.266,-0.304 0.272,0.511 0.003,0.485 0.164,1.61 0.357,2.5 0.193,0.89 0.404,2.035 0.469,2.544 0.064,0.51 0.192,1.301 0.283,1.76 0.091,0.458 0.392,2.02 0.667,3.472 0.276,1.451 0.568,2.639 0.649,2.639 0.157,0 0.718,-1.405 1.111,-2.778 0.131,-0.458 0.316,-0.936 0.411,-1.061 0.155,-0.206 0.348,-0.909 1.332,-4.865 0.165,-0.662 0.41,-1.495 0.544,-1.852 0.333,-0.881 0.608,-1.815 0.763,-2.592 0.071,-0.357 0.195,-0.732 0.275,-0.834 0.08,-0.102 0.372,-0.935 0.65,-1.852 0.277,-0.916 0.788,-2.232 1.135,-2.924 0.347,-0.692 0.582,-1.338 0.522,-1.435 -0.061,-0.098 -0.03,-0.178 0.068,-0.178 0.098,0 0.26,-0.234 0.36,-0.521 0.185,-0.533 1.314,-2.424 1.346,-2.256 0.01,0.05 0.047,0.243 0.082,0.428 0.035,0.184 0.118,0.851 0.185,1.481 0.068,0.63 0.151,1.354 0.185,1.609 0.034,0.255 0.12,1.13 0.191,1.944 0.071,0.815 0.188,1.524 0.261,1.575 0.073,0.05 0.139,0.425 0.147,0.833 0.007,0.407 0.075,1.324 0.151,2.037 0.075,0.713 0.146,1.691 0.157,2.174 0.024,1.091 0.418,1.333 0.592,0.364 0.122,-0.682 0.83,-2.589 1.209,-3.258 0.109,-0.193 0.324,-0.776 0.477,-1.296 0.154,-0.521 0.353,-1.038 0.443,-1.148 0.09,-0.111 0.287,-0.55 0.437,-0.976 0.272,-0.771 0.539,-1.396 1.279,-2.99 0.212,-0.458 0.41,-0.988 0.44,-1.178 0.03,-0.189 0.223,-0.581 0.429,-0.871 0.206,-0.29 0.464,-0.781 0.572,-1.091 0.108,-0.31 0.258,-0.563 0.332,-0.563 0.075,0 0.42,-0.625 0.766,-1.389 0.346,-0.764 0.694,-1.389 0.772,-1.389 0.078,0 0.142,-0.167 0.142,-0.371 0,-0.203 0.088,-0.37 0.196,-0.37 0.108,0 0.15,-0.074 0.095,-0.164 -0.056,-0.09 0.014,-0.261 0.156,-0.378 0.141,-0.118 0.314,-0.44 0.383,-0.716 0.068,-0.275 0.257,-0.648 0.418,-0.826 0.161,-0.179 0.259,-0.358 0.217,-0.398 -0.042,-0.04 -0.181,0.04 -0.308,0.179 m -55.169,7.01 c -0.119,0.134 -0.94,1.609 -1.825,3.278 -0.885,1.668 -1.674,3.117 -1.753,3.219 -0.08,0.102 -0.542,0.977 -1.027,1.944 -0.485,0.968 -1.162,2.221 -1.505,2.786 -0.619,1.019 -1.236,2.178 -3.613,6.79 -0.68,1.318 -1.685,3.182 -2.234,4.142 -0.55,0.96 -1.171,2.079 -1.382,2.486 -0.626,1.215 -2.661,4.986 -4.396,8.148 -0.895,1.63 -2.17,3.963 -2.834,5.185 -2.965,5.452 -3.922,6.781 -6.487,9.009 l -0.974,0.847 1.212,2.572 c 0.667,1.415 1.329,2.822 1.472,3.128 7.904,16.893 16.182,33.34 16.765,33.308 0.255,-0.013 1.172,-0.126 2.037,-0.25 1.818,-0.26 3.861,-0.143 6.574,0.375 1.019,0.195 2.936,0.526 4.26,0.736 4.084,0.649 19.864,3.696 23.981,4.631 0.968,0.22 2.176,0.466 2.685,0.546 0.51,0.081 2.926,0.57 5.371,1.088 5.392,1.142 12.328,2.484 12.411,2.401 0.105,-0.104 -0.954,-3.819 -2.049,-7.19 -3.958,-12.185 -8.625,-23.946 -14.584,-36.756 -1.484,-3.19 -7.258,-14.314 -9.517,-18.334 -0.915,-1.629 -1.896,-3.379 -2.179,-3.889 -0.915,-1.644 -5.509,-9.224 -6.285,-10.37 -0.414,-0.611 -1.159,-1.778 -1.656,-2.592 -1.364,-2.238 -10.704,-15.666 -11.747,-16.889 -0.408,-0.479 -0.547,-0.546 -0.721,-0.349 m 66.906,8.167 c -0.062,0.164 -0.198,0.246 -0.3,0.182 -0.103,-0.063 -0.187,0.036 -0.188,0.22 -10e-4,0.184 -0.335,0.859 -0.741,1.5 -0.407,0.641 -0.739,1.245 -0.739,1.343 0,0.097 -0.071,0.177 -0.157,0.177 -0.19,0 -1.51,2.526 -1.51,2.89 0,0.142 -0.083,0.259 -0.185,0.259 -0.102,0 -0.185,0.086 -0.185,0.192 0,0.107 -0.167,0.372 -0.371,0.591 -0.203,0.219 -0.37,0.515 -0.37,0.658 0,0.263 -0.465,1.193 -0.854,1.707 -0.116,0.152 -0.265,0.584 -0.332,0.958 -0.067,0.375 -0.185,0.708 -0.263,0.741 -0.364,0.155 -2.244,3.821 -2.251,4.391 -0.002,0.142 -0.127,0.35 -0.278,0.463 -0.151,0.113 -0.301,0.373 -0.334,0.576 -0.033,0.204 -0.2,0.634 -0.37,0.955 -0.17,0.322 -0.512,1.28 -0.76,2.13 -0.248,0.85 -0.625,1.948 -0.838,2.44 -0.213,0.492 -0.387,1.076 -0.387,1.298 0,0.221 -0.206,0.79 -0.457,1.263 -0.252,0.473 -0.51,1.222 -0.572,1.665 -0.131,0.919 -0.616,2.583 -0.819,2.806 -0.151,0.167 -0.901,-0.959 -1.947,-2.921 -0.378,-0.709 -0.791,-1.376 -0.918,-1.481 -0.127,-0.105 -0.589,-0.858 -1.026,-1.673 -0.438,-0.815 -0.851,-1.523 -0.919,-1.574 -0.546,-0.411 -2.696,-3.856 -2.518,-4.034 0.058,-0.058 -0.05,-0.278 -0.24,-0.49 -0.19,-0.211 -0.645,-0.923 -1.01,-1.582 -0.651,-1.172 -1.095,-1.258 -0.807,-0.157 0.061,0.236 -0.035,0.594 -0.236,0.877 -0.187,0.263 -0.44,1.103 -0.563,1.867 -0.285,1.783 -0.263,1.691 -0.523,2.164 -0.122,0.222 -0.223,0.806 -0.223,1.296 -0.001,0.491 -0.082,1.184 -0.18,1.54 -0.321,1.162 -0.749,4.668 -0.881,7.222 -0.193,3.726 -0.184,3.977 0.136,3.992 0.6,0.028 0.731,-0.314 0.734,-1.927 0.002,-0.881 0.047,-1.935 0.1,-2.342 0.054,-0.408 0.116,-1.38 0.138,-2.161 0.022,-0.78 0.086,-1.39 0.143,-1.355 0.057,0.035 0.117,-0.277 0.134,-0.694 0.016,-0.417 0.128,-0.818 0.247,-0.892 0.12,-0.074 0.177,-0.207 0.128,-0.294 -0.157,-0.28 0.195,-3.081 0.403,-3.209 0.11,-0.068 0.213,-0.535 0.23,-1.037 0.016,-0.503 0.105,-1.014 0.198,-1.137 0.092,-0.122 0.19,-0.414 0.216,-0.648 0.156,-1.371 0.3,-1.376 1.012,-0.036 0.373,0.703 0.968,1.667 1.321,2.143 0.74,0.995 1.873,2.796 2.492,3.96 0.234,0.44 0.583,1.034 0.776,1.32 0.193,0.287 0.494,0.813 0.668,1.169 0.348,0.713 0.723,1.338 0.888,1.482 0.059,0.051 0.347,0.571 0.641,1.157 0.294,0.586 0.6,1.065 0.681,1.065 0.08,0 0.146,0.084 0.146,0.186 0,0.102 0.243,0.575 0.539,1.052 l 0.54,0.866 0.19,-0.728 c 0.721,-2.754 0.964,-3.655 1.294,-4.796 0.205,-0.709 0.334,-1.352 0.286,-1.429 -0.047,-0.077 0.072,-0.538 0.266,-1.025 0.496,-1.247 0.961,-2.693 0.96,-2.983 -10e-4,-0.135 0.291,-0.852 0.647,-1.594 0.357,-0.741 0.649,-1.422 0.649,-1.513 0.001,-0.255 1.006,-2.777 1.22,-3.062 0.105,-0.138 0.54,-1.085 0.967,-2.104 0.427,-1.018 1.193,-2.594 1.702,-3.502 0.509,-0.907 0.925,-1.803 0.925,-1.99 0,-0.188 0.084,-0.341 0.185,-0.341 0.102,0 0.186,-0.106 0.186,-0.234 0,-0.268 2.118,-3.994 2.474,-4.355 0.189,-0.191 0.241,0.023 0.266,1.112 0.017,0.741 0.123,2.389 0.234,3.662 0.112,1.273 0.228,2.648 0.258,3.056 0.03,0.407 0.148,1.24 0.262,1.852 0.114,0.611 0.246,1.611 0.294,2.222 0.048,0.611 0.178,1.403 0.288,1.759 0.11,0.357 0.244,0.982 0.297,1.389 0.053,0.407 0.117,0.866 0.141,1.018 0.025,0.153 0.11,0.695 0.191,1.204 0.08,0.509 0.173,1.093 0.206,1.296 0.034,0.204 0.068,0.413 0.076,0.463 0.008,0.051 0.371,-0.657 0.806,-1.574 0.436,-0.916 0.924,-1.875 1.084,-2.129 0.33,-0.523 0.971,-1.669 2.071,-3.704 0.413,-0.764 0.865,-1.504 1.005,-1.644 0.139,-0.141 0.209,-0.37 0.156,-0.509 -0.054,-0.14 -0.036,-0.254 0.039,-0.254 0.076,0 0.302,-0.313 0.503,-0.695 0.201,-0.382 0.512,-0.803 0.69,-0.936 0.179,-0.133 0.325,-0.409 0.325,-0.613 0,-0.203 0.233,-0.594 0.518,-0.869 0.619,-0.595 1.812,-2.533 1.985,-3.223 0.074,-0.294 0.219,-0.455 0.361,-0.401 0.13,0.05 0.288,-0.043 0.351,-0.207 0.079,-0.206 0.043,-0.254 -0.115,-0.156 -0.126,0.077 0.031,-0.189 0.349,-0.593 0.318,-0.403 0.811,-1.167 1.096,-1.697 0.285,-0.53 0.588,-0.921 0.672,-0.869 0.085,0.053 0.154,0.007 0.154,-0.101 0,-0.108 -0.071,-0.196 -0.157,-0.196 -0.242,0 -0.769,0.646 -0.769,0.943 0,0.146 -0.209,0.422 -0.463,0.613 -0.255,0.191 -0.463,0.431 -0.463,0.532 0,0.101 -0.15,0.318 -0.334,0.483 -0.499,0.448 -1.333,1.601 -1.333,1.843 0,0.306 -0.594,0.954 -0.774,0.843 -0.083,-0.051 -0.152,0.12 -0.152,0.38 0,0.261 -0.083,0.474 -0.185,0.474 -0.102,0 -0.185,0.087 -0.185,0.194 0,0.106 -0.209,0.402 -0.463,0.656 -0.255,0.255 -0.463,0.564 -0.463,0.687 0,0.123 -0.292,0.634 -0.648,1.135 -0.357,0.502 -0.648,1.027 -0.648,1.168 0,0.141 -0.084,0.205 -0.186,0.142 -0.101,-0.063 -0.185,-0.025 -0.185,0.085 0,0.11 -0.209,0.531 -0.465,0.937 -0.256,0.405 -0.418,0.737 -0.361,0.737 0.057,0 -0.1,0.271 -0.35,0.602 -0.251,0.331 -0.7,1.102 -0.999,1.713 -1.827,3.729 -2.221,4.079 -2.256,2.001 -0.007,-0.426 -0.083,-0.819 -0.169,-0.872 -0.085,-0.053 -0.17,-0.499 -0.187,-0.991 -0.017,-0.493 -0.102,-1.142 -0.188,-1.443 -0.086,-0.301 -0.117,-1.026 -0.068,-1.612 0.052,-0.625 0.015,-1.065 -0.091,-1.065 -0.098,0 -0.16,-0.312 -0.137,-0.694 0.023,-0.381 -0.043,-0.902 -0.148,-1.157 -0.104,-0.255 -0.172,-1.035 -0.15,-1.733 0.027,-0.863 -0.023,-1.229 -0.158,-1.146 -0.11,0.067 -0.199,0.034 -0.199,-0.074 0,-0.107 0.093,-0.196 0.206,-0.196 0.143,0 0.163,-0.271 0.063,-0.879 -0.078,-0.484 -0.134,-1.367 -0.124,-1.962 0.01,-0.596 -0.058,-1.283 -0.151,-1.528 -0.115,-0.301 -0.105,-0.446 0.031,-0.446 0.115,0 0.157,-0.177 0.098,-0.416 -0.057,-0.229 -0.158,-0.834 -0.225,-1.343 -0.14,-1.062 -0.179,-1.147 -0.337,-0.737 m -146.735,1.669 c -1.096,0.461 -1.202,1.115 -0.446,2.745 0.29,0.626 0.665,1.451 0.833,1.832 0.168,0.382 0.443,1.007 0.612,1.389 0.168,0.382 0.716,1.57 1.217,2.639 0.502,1.07 1.168,2.57 1.481,3.334 0.313,0.763 0.695,1.534 0.848,1.713 0.154,0.178 0.228,0.324 0.166,0.324 -0.063,0 0.091,0.408 0.341,0.906 0.251,0.499 0.457,0.978 0.46,1.065 0.002,0.087 0.167,0.367 0.366,0.621 0.199,0.255 0.364,0.609 0.366,0.787 0.002,0.178 0.088,0.324 0.19,0.324 0.101,0 0.185,0.122 0.185,0.27 0,0.566 1.715,3.548 2.373,4.126 2.072,1.819 4.626,-0.528 3.366,-3.093 -0.432,-0.88 -1.069,-2.064 -2.193,-4.08 -0.086,-0.153 -0.267,-0.487 -0.404,-0.741 -0.768,-1.433 -3.067,-5.457 -5.087,-8.905 -0.611,-1.043 -1.236,-2.112 -1.39,-2.376 -1.746,-2.994 -2.156,-3.354 -3.284,-2.88 m 13.149,25.7 c -1.266,0.855 -1.476,2.205 -0.558,3.578 1.896,2.835 5.958,0.533 4.411,-2.499 -0.746,-1.463 -2.542,-1.965 -3.853,-1.079 m 143.817,3.624 c -0.165,0.165 -0.358,0.487 -0.429,0.716 -0.071,0.23 -0.206,0.417 -0.301,0.417 -0.095,0 -0.173,0.083 -0.173,0.185 0,0.101 -0.298,0.599 -0.662,1.106 -0.364,0.507 -0.619,0.992 -0.565,1.078 0.053,0.086 -0.066,0.273 -0.264,0.416 -0.199,0.143 -0.361,0.402 -0.361,0.576 0,0.174 -0.107,0.426 -0.238,0.561 -0.381,0.391 -2.533,4.883 -3.215,6.71 -0.525,1.408 -0.728,1.865 -1.276,2.887 -0.3,0.56 -0.599,1.226 -0.664,1.481 -0.112,0.438 -0.262,-0.763 -0.178,-1.426 0.015,-0.123 -0.088,-0.501 -0.23,-0.84 -0.151,-0.361 -0.228,-1.017 -0.187,-1.583 0.039,-0.531 0.006,-0.966 -0.072,-0.967 -0.079,-10e-4 -0.166,-0.605 -0.193,-1.343 -0.028,-0.737 -0.138,-1.799 -0.244,-2.359 -0.107,-0.561 -0.215,-1.58 -0.241,-2.266 -0.025,-0.686 -0.091,-1.292 -0.146,-1.347 -0.088,-0.088 -1.079,1.259 -1.079,1.468 0,0.046 -0.229,0.336 -0.509,0.643 -0.28,0.306 -0.66,0.983 -0.845,1.504 -0.185,0.521 -0.497,1.108 -0.695,1.306 -0.197,0.197 -0.358,0.52 -0.358,0.718 0,0.197 -0.085,0.411 -0.188,0.475 -0.104,0.064 -0.146,0.185 -0.095,0.268 0.052,0.083 -0.03,0.255 -0.182,0.38 -0.152,0.126 -0.276,0.423 -0.276,0.659 0,0.236 -0.163,0.707 -0.363,1.046 -0.452,0.765 -0.948,2.102 -1.045,2.81 -0.039,0.294 -0.211,0.636 -0.381,0.76 -0.169,0.124 -0.259,0.353 -0.2,0.508 0.06,0.155 0.036,0.354 -0.052,0.443 -0.088,0.089 -0.334,0.942 -0.547,1.897 -0.212,0.954 -0.466,1.886 -0.565,2.071 -0.099,0.185 -0.18,0.55 -0.18,0.812 0,0.261 -0.164,0.781 -0.364,1.154 -0.2,0.373 -0.419,1.052 -0.488,1.508 -0.292,1.951 -0.73,2.048 -0.921,0.205 -0.067,-0.654 -0.188,-1.272 -0.268,-1.374 -0.08,-0.102 -0.206,-0.769 -0.281,-1.482 -0.075,-0.713 -0.256,-1.629 -0.401,-2.037 -0.146,-0.407 -0.304,-1.324 -0.352,-2.037 -0.123,-1.826 -0.437,-4.964 -0.519,-5.185 -0.037,-0.102 -0.251,0.231 -0.475,0.741 -0.224,0.509 -0.648,1.426 -0.943,2.037 -0.295,0.611 -0.659,1.486 -0.808,1.944 -0.15,0.459 -0.529,1.542 -0.843,2.408 -0.617,1.703 -1.05,3.262 -1.31,4.722 -0.091,0.509 -0.263,1.11 -0.383,1.336 -0.17,0.32 -0.166,0.473 0.017,0.695 0.484,0.582 0.819,0.173 1.007,-1.231 0.064,-0.476 0.269,-1.351 0.455,-1.944 0.187,-0.593 0.49,-1.641 0.673,-2.328 0.183,-0.688 0.413,-1.25 0.51,-1.25 0.098,0 0.13,-0.125 0.071,-0.278 -0.058,-0.153 -0.045,-0.278 0.029,-0.278 0.075,0 0.235,-0.419 0.357,-0.931 0.122,-0.513 0.35,-1.06 0.507,-1.217 0.157,-0.157 0.285,-0.41 0.285,-0.561 0,-0.152 0.084,-0.224 0.186,-0.161 0.101,0.063 0.187,0.463 0.189,0.89 0.003,0.427 0.092,1.151 0.199,1.61 0.231,0.995 0.285,1.288 0.62,3.333 0.763,4.657 1.33,7.586 1.502,7.757 0.209,0.21 1.995,-4.481 2.219,-5.83 0.123,-0.739 0.961,-3.892 1.276,-4.797 0.142,-0.408 0.396,-1.241 0.566,-1.852 0.17,-0.611 0.383,-1.278 0.475,-1.482 0.284,-0.633 0.726,-2.024 0.729,-2.293 0.001,-0.141 0.377,-1.046 0.834,-2.012 0.457,-0.965 0.785,-1.829 0.73,-1.919 -0.056,-0.091 -0.019,-0.165 0.082,-0.165 0.101,0 0.238,-0.187 0.306,-0.416 0.16,-0.544 1.24,-2.361 1.403,-2.361 0.07,0 0.122,0.187 0.115,0.416 -0.006,0.229 0.054,0.917 0.134,1.528 0.249,1.9 0.26,1.999 0.388,3.519 0.069,0.814 0.185,1.523 0.258,1.574 0.073,0.051 0.135,0.426 0.137,0.833 0.002,0.407 0.065,1.324 0.139,2.037 0.074,0.713 0.141,1.688 0.148,2.167 0.019,1.241 0.422,1.3 0.709,0.103 0.224,-0.931 1.009,-3.018 1.272,-3.381 0.074,-0.102 0.242,-0.56 0.373,-1.017 0.131,-0.458 0.354,-0.997 0.495,-1.199 0.142,-0.201 0.257,-0.467 0.257,-0.59 0,-0.218 0.811,-2.122 1.433,-3.366 0.169,-0.34 0.333,-0.782 0.364,-0.983 0.031,-0.201 0.264,-0.672 0.518,-1.047 0.255,-0.374 0.463,-0.824 0.463,-0.999 0,-0.175 0.112,-0.384 0.249,-0.466 0.292,-0.173 1.232,-1.999 1.232,-2.391 0,-0.148 0.125,-0.316 0.278,-0.375 0.153,-0.059 0.278,-0.231 0.278,-0.382 0,-0.152 0.156,-0.497 0.346,-0.768 0.19,-0.27 0.409,-0.699 0.485,-0.954 0.076,-0.255 0.267,-0.609 0.424,-0.788 0.369,-0.42 0.228,-0.555 -0.167,-0.16 m -174.699,32.981 c -0.509,0.082 -1.147,0.236 -1.416,0.343 -0.27,0.106 -0.534,0.15 -0.586,0.097 -0.053,-0.053 -0.257,-0.01 -0.454,0.096 -0.196,0.105 -0.589,0.233 -0.872,0.284 -0.525,0.096 -2.523,0.863 -2.691,1.034 -0.051,0.052 -0.672,0.386 -1.381,0.743 -0.709,0.356 -1.803,1.127 -2.431,1.712 -1.216,1.134 -1.439,1.221 -2.045,0.796 -0.842,-0.589 -5.258,-0.875 -7.106,-0.46 -1.637,0.368 -4.438,1.331 -4.338,1.491 0.055,0.091 -0.107,0.164 -0.362,0.164 -0.255,0 -0.518,0.09 -0.586,0.199 -0.067,0.109 -0.718,0.578 -1.446,1.042 -3.277,2.088 -6.029,6.23 -5.605,8.438 0.081,0.426 0.062,0.519 -0.067,0.321 -0.105,-0.16 -0.184,-0.186 -0.185,-0.061 -0.002,0.119 -0.059,0.362 -0.127,0.539 -0.076,0.197 -0.051,0.279 0.063,0.208 0.118,-0.073 0.182,0.274 0.174,0.942 -0.016,1.214 0.349,2.26 0.789,2.264 0.199,0.002 0.229,0.049 0.088,0.139 -0.15,0.095 -0.085,0.298 0.218,0.678 l 0.432,0.541 -0.623,0.728 c -0.508,0.594 -1.192,1.731 -1.305,2.17 -0.013,0.051 -0.172,0.426 -0.354,0.834 -1,2.241 -0.93,5.956 0.127,6.725 0.185,0.135 0.295,0.311 0.245,0.392 -0.05,0.081 0.276,0.509 0.725,0.951 0.449,0.442 0.775,0.87 0.725,0.951 -0.05,0.081 0.053,0.147 0.229,0.147 0.177,0 0.452,0.119 0.613,0.265 0.364,0.329 2.856,1.032 3.658,1.032 0.327,0 0.646,0.083 0.709,0.185 0.063,0.102 0.646,0.185 1.296,0.185 0.65,0 1.233,-0.083 1.296,-0.185 0.427,-0.69 0.636,-0.13 0.553,1.478 -0.159,3.062 2.025,7.082 3.936,7.245 0.078,0.007 0.235,0.09 0.35,0.186 0.115,0.095 0.907,0.378 1.759,0.628 5.921,1.738 13.732,-1.161 17.74,-6.582 1.148,-1.553 0.93,-1.494 2.884,-0.782 2.11,0.767 6.409,0.409 10.186,-0.849 l 0.926,-0.308 0.092,-1.295 c 0.198,-2.765 0.099,-3.131 -0.983,-3.632 -0.523,-0.243 -1.297,-0.703 -1.719,-1.023 -0.523,-0.397 -0.848,-0.53 -1.023,-0.419 -0.784,0.496 -2.45,0.014 -3.086,-0.894 -0.953,-1.361 -0.615,-2.52 0.857,-2.943 1.21,-0.349 2.203,-0.823 3.315,-1.585 0.433,-0.297 0.787,-0.485 0.787,-0.419 0,0.112 1.893,-1.46 2.64,-2.193 1.048,-1.028 -0.308,-0.535 -1.54,0.561 l -0.475,0.421 0.507,-1.529 c 0.448,-1.355 0.837,-3.356 1.187,-6.113 l 0.112,-0.881 0.828,0.57 c 1.118,0.769 3.038,2.377 3.034,2.541 -0.001,0.072 -0.382,0.536 -0.845,1.03 -0.498,0.531 -0.801,1.008 -0.741,1.166 0.164,0.427 0.769,-0.01 1.324,-0.957 0.546,-0.932 0.635,-0.972 1.075,-0.486 0.284,0.314 0.285,0.366 0.016,0.589 -0.445,0.369 -0.827,1.209 -0.814,1.79 0.012,0.51 0.015,0.511 0.186,0.084 0.096,-0.239 0.341,-0.478 0.546,-0.531 0.406,-0.107 0.671,-0.815 0.448,-1.2 -0.077,-0.133 0.089,-0.034 0.369,0.221 0.811,0.738 2.125,2.843 2.805,4.495 0.586,1.421 0.628,1.476 0.631,0.819 0.01,-2.084 -1.104,-4.918 -2.536,-6.449 -0.465,-0.496 -0.761,-0.902 -0.66,-0.902 0.575,0 1.777,-4.451 1.694,-6.274 -0.078,-1.711 -1.107,-3.836 -2.387,-4.93 -0.477,-0.407 -0.825,-0.816 -0.773,-0.908 0.051,-0.092 0.006,-0.114 -0.1,-0.049 -0.106,0.066 -0.295,-0.004 -0.421,-0.156 -0.126,-0.152 -0.381,-0.276 -0.566,-0.276 -0.185,0 -0.38,-0.07 -0.433,-0.156 -0.437,-0.707 -5.154,-1.225 -8.173,-0.899 l -1.302,0.141 -0.606,-0.86 c -0.334,-0.472 -0.658,-0.808 -0.721,-0.745 -0.147,0.147 -0.992,-0.638 -0.88,-0.818 0.154,-0.249 -2.557,-1.319 -4.065,-1.604 -2.113,-0.4 -2.31,-0.414 -3.345,-0.248 m 70.37,21.684 c -2.437,1.09 -3.278,1.493 -9.907,4.753 -3.31,1.628 -6.916,3.358 -8.012,3.844 l -1.993,0.884 0.326,0.52 c 0.329,0.522 2.93,3.887 4.684,6.058 l 0.941,1.164 -0.485,0.595 c -0.268,0.327 -0.752,0.924 -1.076,1.326 -0.744,0.924 -1.55,1.741 -2.258,2.288 -0.308,0.238 -0.405,0.383 -0.219,0.326 0.199,-0.06 0.286,-0.025 0.217,0.088 -0.067,0.108 -0.385,0.139 -0.742,0.072 -0.471,-0.089 -0.759,-0.021 -1.171,0.272 -0.301,0.214 -0.784,0.381 -1.074,0.371 -0.524,-0.019 -0.525,-0.019 -0.064,-0.151 0.36,-0.103 0.21,-0.159 -0.679,-0.255 -1.317,-0.141 -1.426,-0.184 -5.988,-2.37 -3.485,-1.67 -4.733,-2.152 -6.817,-2.633 -1.071,-0.247 -1.159,-0.244 -1.051,0.033 0.664,1.711 2.118,6.391 2.912,9.376 1.104,4.152 0.82,3.726 3.141,4.72 1.022,0.438 1.193,0.461 0.912,0.122 -0.175,-0.211 -0.056,-0.212 0.745,-0.004 1.106,0.287 1.33,0.433 0.698,0.455 -0.246,0.009 -0.016,0.12 0.51,0.248 0.527,0.128 1.444,0.206 2.037,0.174 0.84,-0.045 0.977,-0.018 0.617,0.119 -0.369,0.14 -0.266,0.163 0.503,0.115 0.531,-0.033 1.107,-0.177 1.28,-0.32 0.173,-0.142 0.446,-0.267 0.608,-0.278 0.162,-0.01 0.522,-0.031 0.801,-0.046 0.488,-0.027 2.407,-1.551 2.815,-2.235 0.096,-0.161 -0.238,0.07 -0.741,0.513 -0.503,0.442 -1.081,0.89 -1.285,0.994 -0.453,0.233 -0.239,0.024 0.768,-0.749 0.423,-0.324 1.036,-1.005 1.362,-1.514 0.327,-0.509 0.669,-0.925 0.76,-0.925 0.27,0 0.192,0.226 -0.237,0.682 -0.221,0.236 -0.306,0.429 -0.189,0.429 0.304,0 0.878,-0.937 0.812,-1.326 -0.058,-0.341 1.643,-2.713 2.159,-3.012 0.163,-0.094 0.017,0.181 -0.323,0.61 -0.341,0.43 -0.577,0.824 -0.524,0.876 0.052,0.053 0.285,-0.18 0.517,-0.517 0.233,-0.337 0.791,-1.052 1.241,-1.588 0.449,-0.536 0.84,-1.181 0.868,-1.433 0.05,-0.46 0.704,-1.274 2.675,-3.333 1.491,-1.556 1.942,-1.867 0.873,-0.601 -0.495,0.585 -0.827,1.064 -0.738,1.064 0.089,0 0.328,-0.254 0.532,-0.564 0.204,-0.311 0.632,-0.728 0.951,-0.928 0.32,-0.2 0.695,-0.509 0.834,-0.686 0.228,-0.292 0.221,-0.298 -0.075,-0.065 -0.293,0.23 -0.32,0.213 -0.261,-0.17 0.035,-0.235 0.212,-0.448 0.392,-0.474 0.18,-0.027 0.451,-0.225 0.601,-0.44 0.174,-0.248 0.395,-0.353 0.603,-0.287 0.194,0.062 0.434,-0.03 0.586,-0.224 0.235,-0.299 0.229,-0.306 -0.071,-0.07 -0.18,0.141 -0.372,0.214 -0.424,0.161 -0.138,-0.137 2.125,-2.364 2.402,-2.364 0.127,0 0.433,-0.22 0.68,-0.489 0.632,-0.688 2.019,-1.548 2.499,-1.548 0.512,0 0.94,-0.459 0.615,-0.66 -0.128,-0.079 -0.174,-0.06 -0.11,0.045 0.063,0.101 -0.006,0.183 -0.153,0.183 -0.204,0 -0.218,-0.059 -0.058,-0.251 0.115,-0.138 0.247,-0.213 0.294,-0.166 0.09,0.09 0.185,0.026 1.004,-0.673 1.105,-0.943 1.238,-1.036 1.342,-0.932 0.06,0.06 0.108,-0.03 0.108,-0.2 0,-0.17 0.088,-0.309 0.196,-0.309 0.108,0 0.145,-0.083 0.082,-0.185 -0.063,-0.102 -0.047,-0.185 0.035,-0.185 0.139,-10e-4 0.543,-0.311 1.72,-1.32 3.753,-3.219 3.406,6.291 -0.443,12.125 -0.46,0.698 -0.819,1.364 -0.797,1.482 0.022,0.117 -0.126,0.189 -0.33,0.159 -0.259,-0.038 -0.299,-0.006 -0.133,0.107 0.245,0.166 -0.844,2.783 -1.392,3.344 -0.133,0.137 -0.368,0.491 -0.521,0.787 -0.153,0.296 -0.367,0.538 -0.476,0.538 -0.109,0 0.029,-0.396 0.306,-0.879 0.277,-0.484 0.382,-0.755 0.232,-0.602 -0.149,0.152 -0.499,0.694 -0.776,1.203 -0.277,0.51 -0.374,0.765 -0.214,0.567 0.33,-0.411 0.383,-0.254 0.095,0.284 -0.107,0.2 -0.265,0.32 -0.351,0.267 -0.085,-0.053 -0.298,0.122 -0.472,0.388 -0.217,0.331 -0.238,0.443 -0.067,0.353 0.138,-0.072 0.042,0.042 -0.212,0.254 -0.371,0.308 -0.412,0.418 -0.207,0.551 0.202,0.131 0.153,0.233 -0.232,0.486 -0.268,0.175 -0.487,0.392 -0.487,0.481 0,0.089 -0.296,0.55 -0.657,1.023 -0.646,0.846 -0.651,0.866 -0.313,1.251 0.189,0.216 0.464,0.569 0.611,0.786 0.146,0.217 1.227,1.592 2.402,3.056 1.175,1.463 2.495,3.119 2.933,3.679 0.933,1.194 1.083,1.242 3.968,1.282 7.358,0.099 14.038,-3.785 17.361,-10.096 0.935,-1.774 1.078,-1.342 -1.527,-4.581 -2.808,-3.491 -3.369,-4.194 -5.334,-6.681 -0.866,-1.096 -2.101,-2.631 -2.746,-3.412 -0.644,-0.78 -1.27,-1.544 -1.391,-1.697 -3.449,-4.381 -3.571,-4.534 -6.574,-8.27 -1.461,-1.817 -3.128,-3.904 -3.704,-4.637 -1.238,-1.575 -1.003,-1.529 -3.085,-0.598 m -53.439,2.422 c -0.762,0.455 -1.839,1.455 -1.839,1.707 0,0.1 0.215,-0.02 0.478,-0.267 0.291,-0.274 0.646,-0.426 0.914,-0.391 0.313,0.041 0.531,-0.09 0.768,-0.463 0.183,-0.287 0.405,-0.573 0.495,-0.637 0.453,-0.322 -0.267,-0.277 -0.816,0.051 m 5.289,2.827 c -0.575,0.576 -0.689,1.912 -0.137,1.611 0.448,-0.243 1.489,-1.355 1.561,-1.666 0.114,-0.488 -0.92,-0.448 -1.424,0.055 m 34.447,18.812 c -0.186,0.205 -0.379,0.331 -0.43,0.28 -0.051,-0.051 0.059,-0.261 0.244,-0.466 0.186,-0.204 0.379,-0.33 0.43,-0.28 0.051,0.051 -0.059,0.261 -0.244,0.466 m -2.686,10.081 c -3.762,1.335 -5.046,2.96 -5.309,6.724 -0.082,1.173 -0.055,1.343 0.218,1.343 0.26,0 0.301,-0.156 0.248,-0.926 -0.035,-0.51 0.012,-0.926 0.106,-0.926 0.093,0 0.123,-0.047 0.066,-0.104 -0.407,-0.407 0.881,-3.012 1.978,-4.002 1.825,-1.645 6.034,-2.627 7.023,-1.639 0.104,0.104 0.36,0.189 0.568,0.188 0.547,-0.001 -0.499,-0.55 -1.472,-0.771 -1.502,-0.343 -2.206,-0.32 -3.426,0.113 m 70.917,16.844 c -0.779,0.336 -1.522,1.012 -1.415,1.289 0.054,0.142 -0.111,0.955 -0.366,1.809 -0.256,0.853 -0.542,1.864 -0.635,2.247 -0.094,0.383 -0.385,1.425 -0.648,2.315 -0.691,2.338 -1.355,4.795 -1.466,5.428 -0.142,0.804 -0.584,2.366 -0.94,3.32 -0.329,0.883 -0.461,1.405 -1.147,4.551 -0.09,0.416 -0.233,0.866 -0.316,1.001 -0.084,0.135 -0.18,0.421 -0.215,0.634 -0.252,1.544 -0.435,2.357 -0.601,2.666 -0.105,0.197 -0.139,0.411 -0.074,0.476 0.064,0.064 0.027,0.304 -0.082,0.533 -0.525,1.098 -1.441,5.842 -1.246,6.454 0.063,0.199 0.147,0.62 0.187,0.936 0.17,1.345 1.743,2.658 2.949,2.461 1.788,-0.291 3.617,-2.056 3.617,-3.49 0,-0.253 0.076,-0.506 0.169,-0.564 0.161,-0.1 0.27,-0.596 0.487,-2.232 0.117,-0.881 0.6,-3.438 0.822,-4.352 0.086,-0.356 0.378,-1.898 0.649,-3.426 0.271,-1.528 0.604,-3.361 0.742,-4.074 0.137,-0.713 0.249,-1.421 0.249,-1.574 -0.001,-0.153 0.131,-0.931 0.292,-1.729 0.162,-0.799 0.294,-1.814 0.294,-2.257 0,-0.442 0.09,-1.039 0.201,-1.326 0.111,-0.287 0.24,-0.771 0.286,-1.077 0.177,-1.169 0.26,-1.699 0.42,-2.685 0.091,-0.56 0.252,-1.691 0.358,-2.513 0.105,-0.822 0.248,-1.718 0.317,-1.992 0.432,-1.722 -1.368,-3.485 -2.888,-2.829 m -111.838,11.026 c -0.124,0.3 -0.162,0.654 -0.085,0.787 0.077,0.134 0.073,0.183 -0.009,0.108 -0.209,-0.189 -1.496,1.849 -2.169,3.436 -0.311,0.731 -0.629,1.37 -0.709,1.421 -0.158,0.102 -0.726,1.339 -1.655,3.611 -0.334,0.815 -0.696,1.649 -0.805,1.852 -0.109,0.204 -0.386,0.746 -0.616,1.204 -0.23,0.458 -0.423,0.751 -0.428,0.649 -0.006,-0.101 -0.577,0.944 -1.271,2.323 -0.693,1.378 -1.568,2.97 -1.944,3.536 -0.376,0.567 -0.684,1.117 -0.684,1.222 0,0.105 -0.281,0.6 -0.625,1.1 -0.343,0.499 -0.808,1.279 -1.033,1.733 -0.225,0.454 -0.61,0.995 -0.856,1.202 -0.245,0.207 -0.465,0.597 -0.487,0.867 -0.022,0.269 -0.099,0.454 -0.17,0.41 -0.07,-0.044 -0.342,0.191 -0.604,0.522 -1.481,1.878 -2.375,2.937 -3.493,4.143 -0.688,0.741 -1.25,1.435 -1.25,1.543 0,0.107 -0.105,0.194 -0.232,0.192 -0.396,-0.003 -6.62,6.241 -6.62,6.643 0,0.139 -0.116,0.207 -0.26,0.151 -0.157,-0.06 -0.557,0.254 -1.017,0.799 -0.416,0.494 -0.671,0.927 -0.566,0.962 0.105,0.035 -0.124,0.354 -0.509,0.709 -0.549,0.506 -0.6,0.53 -0.239,0.109 0.253,-0.295 0.328,-0.462 0.166,-0.37 -0.502,0.282 -3.082,3.145 -3.216,3.568 -0.07,0.22 -0.197,0.356 -0.283,0.303 -0.086,-0.053 -0.335,0.133 -0.552,0.414 -1.904,2.461 -2.157,2.848 -1.672,2.548 0.295,-0.183 0.214,0.208 -0.097,0.466 -0.236,0.196 -0.263,0.185 -0.166,-0.07 0.735,-1.915 -4.967,6.112 -8.335,11.733 -3.162,5.277 -6.284,11.483 -8.711,17.315 -1.771,4.256 -1.71,4.02 -1.226,4.7 0.226,0.318 0.354,0.578 0.284,0.578 -0.071,0 -0.021,0.129 0.11,0.287 0.184,0.222 0.27,0.234 0.381,0.053 0.11,-0.177 0.239,-0.147 0.543,0.128 0.445,0.403 0.898,1.136 0.581,0.94 -0.105,-0.065 -0.241,-0.037 -0.301,0.061 -0.124,0.201 0.53,0.617 0.701,0.446 0.06,-0.06 0.367,0.13 0.683,0.423 1.499,1.389 1.753,1.651 1.716,1.764 -0.022,0.067 0.098,0.234 0.267,0.371 0.216,0.175 0.266,0.181 0.168,0.018 -0.224,-0.374 0.161,-0.266 0.664,0.185 0.256,0.229 0.581,0.444 0.721,0.478 0.215,0.052 1.717,1.177 2.017,1.511 0.304,0.339 1.133,0.722 1.367,0.632 0.163,-0.062 0.376,0.053 0.518,0.28 0.132,0.212 0.346,0.386 0.474,0.386 0.128,0 0.233,0.083 0.233,0.185 0,1.243 3.167,-2.405 3.411,-3.929 0.126,-0.788 0.588,-1.51 0.858,-1.342 0.08,0.049 0.317,-0.14 0.527,-0.421 0.21,-0.282 0.529,-0.67 0.709,-0.864 0.227,-0.244 0.243,-0.306 0.051,-0.202 -0.165,0.09 -0.215,0.082 -0.124,-0.018 0.085,-0.092 0.252,-0.168 0.371,-0.168 0.331,0 1.816,-2.361 1.72,-2.736 -0.059,-0.235 0.091,-0.401 0.531,-0.585 0.463,-0.193 1.084,-0.922 2.53,-2.968 1.964,-2.779 2.239,-3.227 1.819,-2.968 -0.157,0.097 -0.192,0.074 -0.104,-0.07 0.074,-0.119 0.197,-0.177 0.275,-0.129 0.141,0.087 0.922,-0.784 2.378,-2.652 0.784,-1.007 2.512,-3.002 3.376,-3.899 0.251,-0.261 0.474,-0.586 0.495,-0.722 0.021,-0.136 0.461,-0.734 0.978,-1.328 0.517,-0.594 0.94,-1.159 0.94,-1.255 0,-0.096 0.728,-0.873 1.619,-1.728 0.89,-0.854 2.006,-2.136 2.479,-2.849 0.777,-1.172 2.206,-2.927 1.922,-2.361 -0.303,0.604 0.352,0.133 0.882,-0.635 0.329,-0.476 0.989,-1.264 1.468,-1.752 0.581,-0.592 0.847,-1.008 0.8,-1.252 -0.073,-0.378 0.335,-0.844 0.742,-0.849 0.205,-0.003 2.042,-1.888 3.553,-3.647 0.284,-0.33 1.288,-1.35 2.232,-2.266 0.944,-0.916 1.686,-1.753 1.649,-1.859 -0.037,-0.107 0.118,-0.319 0.345,-0.472 0.596,-0.401 3.613,-3.662 4.218,-4.558 0.546,-0.809 1.48,-1.771 1.418,-1.46 -0.021,0.102 -0.028,0.266 -0.016,0.365 0.031,0.252 2.615,-2.34 2.615,-2.622 0,-0.127 0.173,-0.323 0.385,-0.436 0.215,-0.115 0.341,-0.32 0.285,-0.464 -0.054,-0.141 -0.017,-0.307 0.082,-0.369 0.099,-0.061 0.132,-0.189 0.073,-0.283 -0.058,-0.095 0.104,-0.173 0.361,-0.173 0.699,0 0.862,-0.487 0.557,-1.664 -0.144,-0.555 -0.265,-1.345 -0.268,-1.756 -0.004,-0.41 -0.126,-1.288 -0.272,-1.95 -0.145,-0.662 -0.257,-1.454 -0.249,-1.759 l 0.016,-0.556 0.141,0.556 c 0.134,0.526 0.141,0.517 0.141,-0.186 0,-0.734 -0.262,-2.099 -0.304,-1.583 -0.046,0.555 -0.445,-0.154 -0.486,-0.86 -0.022,-0.387 -0.052,-0.866 -0.066,-1.063 -0.026,-0.366 -6.81,6.298 -7.252,7.125 -0.113,0.21 -0.47,0.545 -0.795,0.743 -0.324,0.197 -0.473,0.36 -0.329,0.36 0.228,0.001 -0.782,1.048 -1.787,1.853 -0.191,0.152 -0.633,0.652 -0.982,1.111 -0.349,0.458 -1.136,1.381 -1.748,2.05 -1.214,1.326 -3.109,3.44 -4.381,4.885 -0.444,0.504 -1.046,1.166 -1.337,1.47 -0.291,0.304 -0.731,0.857 -0.978,1.231 -0.247,0.373 -0.653,0.787 -0.903,0.921 -0.249,0.133 -0.496,0.375 -0.549,0.537 -0.052,0.162 -0.366,0.592 -0.697,0.956 -0.332,0.364 -1.019,1.197 -1.527,1.852 -0.508,0.655 -1.226,1.488 -1.594,1.851 -0.368,0.364 -0.702,0.757 -0.742,0.875 -0.04,0.117 -0.681,0.862 -1.424,1.654 -1.683,1.794 -1.805,1.943 -2.151,2.611 -0.154,0.299 -0.402,0.59 -0.551,0.647 -0.148,0.057 -0.499,0.505 -0.778,0.995 -0.28,0.49 -0.742,1.141 -1.028,1.446 -0.929,0.994 -1.855,2.194 -2.714,3.517 -0.464,0.714 -0.911,1.325 -0.994,1.359 -0.084,0.034 -0.287,0.346 -0.452,0.695 -0.166,0.348 -0.425,0.633 -0.577,0.633 -0.161,0 -0.235,0.108 -0.178,0.258 0.055,0.142 -0.111,0.454 -0.369,0.694 -0.257,0.24 -0.633,0.761 -0.837,1.157 -0.417,0.814 -0.598,1.065 -1.272,1.756 -0.261,0.268 -0.633,0.758 -0.827,1.089 -0.194,0.331 -0.46,0.601 -0.591,0.601 -0.13,0 -0.237,0.156 -0.237,0.345 0,0.19 -0.25,0.66 -0.556,1.044 -0.306,0.385 -0.556,0.758 -0.556,0.831 0,0.072 -0.172,0.331 -0.383,0.576 -0.211,0.245 -0.565,0.656 -0.787,0.914 -0.631,0.733 -1.792,2.499 -1.792,2.726 0,0.113 -0.271,0.497 -0.602,0.855 -0.331,0.358 -0.629,0.758 -0.663,0.889 -0.033,0.132 -0.429,0.756 -0.879,1.387 -0.451,0.631 -0.819,1.203 -0.819,1.27 0,0.068 -0.287,0.458 -0.638,0.868 -0.351,0.41 -0.8,1.09 -0.998,1.511 -0.369,0.783 -1.286,1.82 -1.038,1.172 0.066,-0.172 0.186,-0.314 0.266,-0.314 0.08,0 0.202,-0.229 0.272,-0.509 0.07,-0.28 0.433,-0.955 0.807,-1.501 0.374,-0.545 0.774,-1.154 0.889,-1.354 0.114,-0.2 0.427,-0.591 0.694,-0.87 0.267,-0.28 0.486,-0.597 0.486,-0.705 0,-0.108 0.36,-0.734 0.8,-1.39 0.44,-0.656 0.857,-1.313 0.926,-1.459 0.069,-0.147 0.413,-0.642 0.763,-1.1 0.35,-0.459 0.818,-1.167 1.039,-1.575 0.221,-0.407 0.461,-0.782 0.533,-0.833 0.072,-0.051 0.413,-0.509 0.758,-1.018 0.344,-0.51 0.733,-1.034 0.862,-1.166 0.13,-0.132 0.379,-0.549 0.555,-0.926 0.175,-0.378 0.422,-0.75 0.548,-0.827 0.126,-0.078 0.486,-0.59 0.8,-1.139 0.313,-0.549 0.694,-1.045 0.845,-1.103 0.151,-0.058 0.275,-0.221 0.275,-0.363 0,-0.142 0.521,-0.972 1.157,-1.846 0.637,-0.874 1.531,-2.108 1.987,-2.741 0.457,-0.634 0.919,-1.243 1.028,-1.354 0.108,-0.111 0.482,-0.619 0.829,-1.128 0.605,-0.887 1.75,-2.368 2.7,-3.491 0.246,-0.291 0.447,-0.608 0.447,-0.706 0,-0.097 0.401,-0.609 0.891,-1.138 0.491,-0.529 1.217,-1.378 1.615,-1.887 0.398,-0.509 1.018,-1.26 1.377,-1.669 0.36,-0.409 0.863,-1.03 1.117,-1.382 0.255,-0.351 0.757,-0.933 1.117,-1.294 0.359,-0.36 1.234,-1.404 1.944,-2.319 0.71,-0.915 1.634,-2.007 2.054,-2.427 0.419,-0.42 0.794,-0.85 0.833,-0.955 0.071,-0.193 2.245,-2.605 3.96,-4.393 0.509,-0.531 1.55,-1.662 2.314,-2.512 0.764,-0.851 2.155,-2.343 3.091,-3.316 0.936,-0.974 2.135,-2.229 2.664,-2.789 0.53,-0.56 0.906,-0.915 0.835,-0.789 -0.085,0.153 -0.032,0.193 0.159,0.12 0.157,-0.061 0.251,-0.167 0.208,-0.237 -0.043,-0.07 0.241,-0.472 0.631,-0.894 0.389,-0.423 0.661,-0.815 0.604,-0.873 -0.058,-0.057 -0.021,-0.105 0.081,-0.105 0.4,0 4.32,-4.043 4.207,-4.338 -0.062,-0.16 -0.02,-0.291 0.093,-0.291 0.113,0 0.205,-0.13 0.205,-0.289 0,-0.159 -0.073,-0.244 -0.161,-0.189 -0.281,0.174 -1.538,-4.121 -1.541,-5.263 0,-0.153 -0.218,-1.111 -0.483,-2.13 -0.337,-1.288 -0.486,-2.344 -0.492,-3.472 -0.004,-0.891 -0.071,-1.62 -0.147,-1.62 -0.076,0 -0.14,-0.188 -0.142,-0.417 -0.002,-0.338 -0.037,-0.364 -0.185,-0.139 -0.129,0.197 -0.147,0.099 -0.064,-0.335 0.098,-0.512 0.028,-0.71 -0.43,-1.204 -1.358,-1.464 -1.771,-2.852 -1.691,-5.678 0.061,-2.122 -0.019,-2.418 -0.4,-1.498 m 9.533,13.738 c 0.068,1.563 0.154,2.891 0.191,2.95 0.037,0.06 0.121,0.728 0.186,1.485 0.066,0.756 0.25,1.959 0.409,2.672 0.159,0.713 0.309,1.63 0.333,2.037 0.024,0.407 0.14,1.241 0.257,1.852 0.117,0.611 0.297,1.605 0.4,2.209 0.103,0.603 0.217,1.146 0.254,1.206 0.037,0.06 0.123,0.691 0.191,1.402 0.068,0.712 0.235,1.752 0.371,2.312 0.136,0.561 0.291,1.352 0.343,1.76 0.053,0.407 0.14,0.866 0.193,1.018 0.606,1.731 1.12,15.69 0.781,21.204 -0.402,6.556 -0.545,9.02 -0.58,10 -0.021,0.611 -0.105,2.194 -0.185,3.518 -0.08,1.325 -0.165,2.866 -0.188,3.426 -0.078,1.923 -0.064,10.279 0.021,11.76 0.047,0.814 0.116,2.023 0.154,2.685 0.111,1.917 0.656,6.809 0.94,8.426 0.52,2.969 0.887,4.633 1.059,4.815 0.23,0.24 0.033,-1.652 -0.221,-2.126 -0.206,-0.385 -0.534,-2.339 -0.653,-3.893 -0.07,-0.914 -0.236,-2.625 -0.378,-3.889 -0.182,-1.622 -0.283,-3.137 -0.333,-5.014 -0.032,-1.179 -0.102,-2.221 -0.156,-2.315 -0.054,-0.094 -0.043,-0.644 0.024,-1.223 0.067,-0.579 0.059,-1.014 -0.018,-0.966 -0.076,0.047 -0.102,-0.313 -0.056,-0.8 0.08,-0.863 0.309,-8.296 0.346,-11.256 0.01,-0.815 0.067,-1.565 0.127,-1.667 0.059,-0.101 0.117,-0.99 0.127,-1.974 0.011,-0.984 0.11,-2.288 0.221,-2.898 0.11,-0.61 0.189,-1.776 0.174,-2.591 -0.015,-0.815 0.044,-1.594 0.13,-1.731 0.252,-0.399 0.369,-11.106 0.159,-14.55 -0.286,-4.697 -0.804,-8.968 -1.344,-11.07 -0.209,-0.815 -0.438,-2.209 -0.509,-3.097 -0.072,-0.912 -0.229,-1.699 -0.359,-1.807 -0.126,-0.105 -0.193,-0.387 -0.147,-0.626 0.046,-0.238 -0.013,-0.759 -0.131,-1.156 -0.117,-0.397 -0.254,-1.138 -0.304,-1.648 -0.05,-0.509 -0.203,-1.342 -0.339,-1.852 -0.136,-0.509 -0.345,-1.884 -0.465,-3.055 -0.119,-1.171 -0.286,-2.588 -0.372,-3.148 -0.086,-0.56 -0.173,-1.602 -0.193,-2.315 -0.021,-0.713 -0.049,-1.622 -0.064,-2.021 -0.015,-0.418 -0.13,-0.76 -0.273,-0.807 -0.201,-0.068 -0.223,0.435 -0.123,2.758 m 7.428,-1.667 c -0.119,0.77 -0.352,2.074 -0.393,2.2 -0.017,0.051 -0.08,0.217 -0.14,0.37 -0.06,0.153 -0.193,0.793 -0.296,1.423 -0.103,0.629 -0.401,1.595 -0.662,2.147 -0.261,0.552 -0.475,1.047 -0.475,1.102 0,0.209 -1.919,4.15 -2.25,4.621 -0.248,0.353 -0.287,0.534 -0.136,0.628 0.117,0.072 0.287,-0.001 0.378,-0.163 0.091,-0.162 0.267,-0.406 0.392,-0.541 1.291,-1.399 3.349,-6.572 3.556,-8.939 0.063,-0.713 0.185,-1.713 0.273,-2.222 0.087,-0.509 0.09,-0.999 0.005,-1.089 -0.085,-0.09 -0.198,0.119 -0.252,0.463 m 85.857,18.005 c -1.713,0.463 -2.656,1.77 -2.746,3.805 -0.075,1.704 0.943,3.405 2.092,3.497 0.284,0.023 0.618,0.179 0.742,0.346 0.472,0.638 2.687,0.024 3.569,-0.991 1.952,-2.244 0.918,-6.115 -1.767,-6.618 -0.366,-0.069 -0.763,-0.154 -0.883,-0.188 -0.12,-0.035 -0.573,0.032 -1.007,0.149 m -122.082,2.401 c 0,0.032 -0.271,0.303 -0.602,0.602 l -0.602,0.544 0.544,-0.602 c 0.507,-0.561 0.66,-0.687 0.66,-0.544 m -5.092,4.942 c -0.398,0.407 -0.787,0.741 -0.864,0.741 -0.144,0 1.351,-1.469 1.503,-1.477 0.046,-0.003 -0.242,0.329 -0.639,0.736 m 27.874,0.644 c -0.129,0.155 -0.321,0.282 -0.426,0.282 -0.105,0 -0.04,-0.167 0.145,-0.372 0.383,-0.423 0.638,-0.341 0.281,0.09 m 22.612,7.25 c -0.947,0.332 -2.525,1.376 -3.139,2.077 -1.221,1.397 -1.978,2.572 -2.166,3.362 -0.012,0.051 -0.123,0.447 -0.247,0.879 -0.737,2.569 0.04,6.013 1.796,7.954 0.27,0.299 0.658,0.77 0.862,1.046 0.417,0.565 2.49,2.23 2.618,2.102 0.046,-0.045 -0.191,-0.304 -0.527,-0.575 -0.335,-0.271 -0.776,-0.639 -0.98,-0.816 -0.475,-0.415 -1.443,-1.658 -1.757,-2.256 -0.133,-0.255 -0.293,-0.505 -0.354,-0.556 -1.207,-1.005 -1.683,-5.631 -0.771,-7.5 0.099,-0.204 0.308,-0.662 0.463,-1.018 0.362,-0.831 1.528,-2.449 1.927,-2.674 0.169,-0.095 0.557,-0.408 0.863,-0.696 0.488,-0.459 2.199,-1.26 2.692,-1.26 0.098,0 0.178,-0.083 0.178,-0.185 0,-0.258 -0.506,-0.218 -1.458,0.116 m -61.314,4.375 c -0.585,0.804 -1.666,2.067 -1.473,1.72 0.225,-0.403 1.864,-2.507 1.953,-2.507 0.051,0 -0.165,0.354 -0.48,0.787 m 96.954,12.562 c -0.264,0.314 -0.43,0.652 -0.369,0.752 0.062,0.099 0.224,2.071 0.361,4.382 0.446,7.524 0.494,8.199 0.835,11.702 0.105,1.069 0.235,2.111 0.29,2.315 0.876,3.227 4.092,2.563 3.911,-0.809 -0.066,-1.248 -0.733,-6.427 -0.965,-7.496 -0.047,-0.22 -0.121,-0.649 -0.164,-0.955 -0.131,-0.94 -0.306,-1.995 -0.492,-2.963 -0.098,-0.509 -0.394,-2.217 -0.657,-3.796 -0.623,-3.74 -1.448,-4.68 -2.75,-3.132 m 3.533,24.337 c -2.55,0.877 -1.869,4.275 0.882,4.394 1.687,0.074 2.518,-1.668 1.702,-3.566 -0.31,-0.721 -1.648,-1.15 -2.584,-0.828 m -103.809,0.616 c -0.1,0.186 -0.328,0.457 -0.505,0.602 -0.2,0.162 -0.156,0.033 0.117,-0.34 0.486,-0.664 0.669,-0.788 0.388,-0.262 m -19.207,5.303 c -0.068,0.176 -0.046,0.375 0.048,0.441 0.094,0.066 0.627,0.431 1.184,0.81 1.33,0.906 1.91,1.346 3.175,2.409 0.577,0.486 1.119,0.883 1.203,0.883 0.147,0 0.541,0.311 1.857,1.467 0.325,0.286 1.347,1.01 2.27,1.61 0.923,0.599 2.157,1.443 2.742,1.874 0.584,0.432 1.129,0.786 1.211,0.787 0.081,0.002 0.349,0.232 0.596,0.512 0.246,0.28 0.45,0.413 0.454,0.297 0.003,-0.117 -0.307,-0.47 -0.689,-0.784 -1.235,-1.017 -2.104,-1.774 -2.416,-2.106 -0.168,-0.178 -0.366,-0.324 -0.44,-0.324 -0.189,0 -1.899,-1.157 -1.974,-1.335 -0.034,-0.081 -0.153,-0.146 -0.265,-0.146 -0.111,0 -0.48,-0.303 -0.818,-0.672 -0.338,-0.369 -0.615,-0.623 -0.615,-0.564 0,0.059 -0.194,-0.076 -0.43,-0.301 -0.521,-0.493 -0.937,-0.824 -1.792,-1.423 -0.356,-0.25 -0.761,-0.563 -0.898,-0.697 -0.138,-0.134 -0.533,-0.361 -0.88,-0.506 -0.346,-0.145 -0.629,-0.356 -0.629,-0.469 0,-0.113 -0.084,-0.154 -0.186,-0.091 -0.101,0.063 -0.185,0.047 -0.185,-0.035 0,-0.082 -0.396,-0.396 -0.88,-0.697 -0.483,-0.302 -1.023,-0.708 -1.2,-0.904 -0.298,-0.332 -0.329,-0.334 -0.443,-0.036 m 72.529,8.745 c -0.003,0.325 0.063,0.633 0.148,0.686 0.084,0.052 0.259,0.577 0.388,1.168 0.13,0.59 0.346,1.365 0.482,1.721 0.135,0.357 0.298,0.89 0.362,1.185 0.152,0.701 1.395,3.318 1.518,3.195 0.053,-0.052 -0.03,-0.33 -0.184,-0.617 -0.499,-0.933 -0.836,-1.8 -1.066,-2.744 -0.124,-0.509 -0.285,-1.009 -0.358,-1.111 -0.073,-0.102 -0.32,-0.935 -0.549,-1.852 -0.491,-1.967 -0.733,-2.499 -0.741,-1.631 m 17.731,23.308 c -0.195,0.195 -4.182,0.37 -5.792,0.254 -0.284,-0.021 -3.77,0.188 -4.815,0.288 -0.509,0.048 -1.655,0.144 -2.546,0.212 -1.131,0.086 -1.621,0.196 -1.621,0.361 0,0.174 0.263,0.216 0.972,0.158 1.689,-0.139 4.339,-0.253 8.45,-0.365 2.191,-0.059 4.046,-0.146 4.122,-0.193 0.134,-0.083 1.004,-0.151 4.403,-0.346 2.267,-0.129 2.188,-0.386 -0.106,-0.343 -1.076,0.019 -1.997,0.077 -2.047,0.127 -0.05,0.05 -0.282,0.018 -0.516,-0.071 -0.234,-0.089 -0.46,-0.126 -0.504,-0.082" />
      <path style="fill:#757575;fill-opacity:1;fill-rule:evenodd;stroke:none" id="path2-30" d="m 158.028,65.381 c -0.626,0.081 -1.476,0.32 -1.888,0.53 -0.412,0.211 -0.797,0.306 -0.854,0.213 -0.058,-0.094 0.042,-0.208 0.221,-0.255 0.245,-0.064 0.221,-0.091 -0.096,-0.107 -0.233,-0.012 -0.471,0.104 -0.53,0.258 -0.064,0.168 -0.304,0.264 -0.601,0.241 -0.272,-0.02 -0.617,0.039 -0.767,0.133 -0.277,0.172 -0.556,0.248 -1.169,0.316 -0.187,0.021 -0.545,0.228 -0.795,0.46 -0.251,0.231 -0.806,0.474 -1.234,0.538 -0.755,0.114 -2.196,0.761 -2.321,1.042 -0.034,0.076 -0.144,0.139 -0.245,0.139 -0.101,0 -0.297,0.104 -0.436,0.231 -0.14,0.128 -0.556,0.44 -0.926,0.695 -0.37,0.254 -0.936,0.692 -1.257,0.973 -0.322,0.281 -0.733,0.557 -0.913,0.614 -0.18,0.058 -0.328,0.171 -0.328,0.251 0,0.081 -0.374,0.549 -0.832,1.04 -0.457,0.492 -0.879,1.045 -0.938,1.23 -0.059,0.185 -0.226,0.336 -0.372,0.336 -0.146,0 -0.266,0.078 -0.266,0.173 0,0.335 -0.837,1.482 -1.165,1.595 -0.226,0.078 -0.296,0.227 -0.219,0.469 0.072,0.227 0.025,0.357 -0.131,0.36 -0.134,0.002 -0.53,0.731 -0.879,1.62 -0.349,0.889 -0.739,1.7 -0.866,1.802 -0.286,0.229 -0.687,1.7 -0.531,1.952 0.063,0.101 -0.068,0.478 -0.289,0.836 -0.245,0.396 -0.362,0.81 -0.299,1.052 0.058,0.22 0.029,0.491 -0.063,0.602 -0.427,0.514 -0.526,7.681 -0.125,9.076 0.058,0.204 0.276,0.912 0.483,1.574 0.208,0.662 0.379,1.323 0.379,1.467 10e-4,0.145 0.11,0.395 0.241,0.556 0.132,0.161 0.353,0.626 0.491,1.033 0.384,1.129 1.675,3.724 2.057,4.135 0.187,0.2 0.468,0.67 0.624,1.043 0.156,0.373 0.723,1.121 1.26,1.663 0.537,0.541 1.324,1.348 1.748,1.794 1.569,1.649 4.507,3.778 4.507,3.266 0,-0.123 0.13,-0.039 0.289,0.188 0.4,0.571 3.569,2.047 3.831,1.784 0.043,-0.043 0.547,0.084 1.121,0.281 0.573,0.197 1.29,0.398 1.593,0.446 0.303,0.047 0.618,0.126 0.701,0.174 0.467,0.271 6.154,0.474 7.593,0.27 3.706,-0.525 5.653,-1.164 8.792,-2.886 3.489,-1.913 4.301,-2.488 4.591,-3.249 0.105,-0.278 0.264,-0.461 0.353,-0.406 0.256,0.159 3.594,-3.806 3.83,-4.549 0.059,-0.189 0.174,-0.343 0.254,-0.343 0.381,0 2.721,-5.944 2.989,-7.593 0.628,-3.871 0.499,-9.332 -0.234,-9.828 -0.225,-0.152 -0.344,-0.912 -0.143,-0.912 0.156,0 0.122,-0.22 -0.145,-0.926 -0.058,-0.153 -0.119,-0.32 -0.135,-0.371 -0.103,-0.327 -0.558,-1.333 -0.941,-2.083 -0.248,-0.484 -0.45,-1.126 -0.45,-1.426 0,-0.3 -0.114,-0.613 -0.253,-0.694 -0.139,-0.082 -0.393,-0.422 -0.564,-0.756 -0.182,-0.356 -0.396,-0.556 -0.516,-0.481 -0.116,0.072 -0.155,0.044 -0.088,-0.063 0.064,-0.105 -0.089,-0.414 -0.342,-0.687 -0.253,-0.272 -0.46,-0.595 -0.46,-0.717 -0.001,-0.122 -0.251,-0.489 -0.556,-0.814 -0.305,-0.326 -0.555,-0.643 -0.555,-0.706 0,-0.063 -0.25,-0.325 -0.555,-0.582 -0.306,-0.258 -0.556,-0.543 -0.556,-0.635 0,-0.315 -0.651,-0.947 -1.852,-1.795 -0.662,-0.467 -1.428,-1.07 -1.702,-1.339 -0.635,-0.622 -4.765,-2.662 -5.98,-2.953 -0.508,-0.122 -0.974,-0.303 -1.036,-0.403 -0.061,-0.1 -0.697,-0.216 -1.413,-0.258 -0.715,-0.042 -1.686,-0.207 -2.157,-0.367 -0.583,-0.198 -1.144,-0.253 -1.76,-0.171 -0.586,0.078 -0.949,0.048 -1.031,-0.086 -0.143,-0.23 -1.469,-0.235 -3.189,-0.01 m -4.437,8.34 c 0.272,0.214 0.66,0.693 0.863,1.065 0.203,0.372 0.576,1.01 0.827,1.418 0.252,0.407 0.762,1.282 1.133,1.944 0.371,0.662 0.985,1.704 1.363,2.315 0.723,1.166 2.09,3.553 3.022,5.277 0.303,0.561 0.614,1.103 0.691,1.204 0.076,0.102 0.493,0.852 0.926,1.667 0.432,0.815 0.934,1.694 1.115,1.953 2.023,2.898 1.506,6.111 -0.945,5.875 -1.345,-0.129 -2.092,-0.924 -3.418,-3.634 -0.58,-1.186 -1.128,-2.282 -1.217,-2.435 -0.383,-0.654 -2.219,-4.612 -2.492,-5.37 -0.128,-0.356 -0.609,-1.44 -1.068,-2.407 -1.504,-3.167 -2.203,-4.711 -2.473,-5.46 -0.146,-0.405 -0.423,-1.005 -0.616,-1.332 -0.903,-1.53 0.903,-3.17 2.289,-2.08 m 14.628,25.448 c 1.382,0.906 1.653,3.323 0.495,4.432 -1.654,1.585 -4.634,0.15 -4.672,-2.249 -0.032,-1.984 2.478,-3.296 4.177,-2.183 m -11.652,57.935 c -0.195,1.036 1.102,2.511 1.69,1.923 0.095,-0.095 -0.688,-1.507 -1.204,-2.168 l -0.355,-0.456 -0.131,0.701 m -1.172,3.861 c -0.241,0.294 -0.399,0.574 -0.35,0.623 0.172,0.172 0.921,-0.593 0.855,-0.873 -0.05,-0.215 -0.175,-0.153 -0.505,0.25 m 1.874,2.848 c -1.113,1.141 -1.151,1.227 -0.494,1.107 0.604,-0.109 0.953,-0.397 1.304,-1.076 0.531,-1.028 0.175,-1.041 -0.81,-0.031 m -6.857,-0.709 c -1.209,0.204 -1.491,2.704 -0.366,3.253 0.966,0.473 1.658,0.282 2.337,-0.642 1.125,-1.529 0.051,-2.952 -1.971,-2.611 m -6.069,0.499 c -0.937,0.937 -0.236,2.193 1.173,2.101 0.941,-0.062 1.347,-0.519 0.461,-0.519 -0.501,0 -1.513,-0.537 -1.037,-0.549 0.255,-0.007 0.801,-0.516 0.801,-0.747 0,-0.697 -0.82,-0.864 -1.398,-0.286 m 12.777,4.535 c -1.705,0.759 -3.587,0.92 -5.637,0.48 -0.661,-0.141 -1.204,-0.243 -1.208,-0.225 -0.003,0.018 0.024,0.634 0.06,1.369 l 0.065,1.337 2.288,1.214 c 2.513,1.333 3.508,1.735 4.627,1.871 0.407,0.05 0.928,0.13 1.157,0.179 0.512,0.109 0.513,0.059 0.016,-1.722 -0.3,-1.075 -0.392,-1.869 -0.364,-3.15 0.021,-0.942 -0.028,-1.707 -0.108,-1.7 -0.08,0.007 -0.483,0.163 -0.896,0.347 m 96.464,31.422 c -0.494,0.129 -1.524,0.244 -2.288,0.255 -2.049,0.029 -3.003,0.184 -2.893,0.471 0.067,0.174 -0.068,0.218 -0.498,0.16 -0.559,-0.076 -3.142,0.698 -3.544,1.062 -0.097,0.087 -0.378,0.159 -0.625,0.159 -0.527,0 -2.623,0.982 -3.541,1.658 -0.352,0.259 -0.571,0.359 -0.487,0.221 0.121,-0.2 0.077,-0.21 -0.222,-0.05 -0.542,0.291 -2.16,1.536 -2.233,1.719 -0.034,0.085 -0.141,0.155 -0.239,0.155 -0.097,0 -0.61,0.292 -1.139,0.649 -0.53,0.356 -1.115,0.648 -1.3,0.648 -0.186,0 -0.296,0.067 -0.246,0.149 0.051,0.082 -0.568,0.721 -1.375,1.421 -0.808,0.7 -1.517,1.425 -1.576,1.611 -0.058,0.185 -0.247,0.338 -0.418,0.339 -0.452,0.003 -2.33,2.223 -3.313,3.914 -0.465,0.8 -0.907,1.455 -0.982,1.455 -0.076,0 -0.187,0.248 -0.248,0.551 -0.068,0.345 -0.199,0.518 -0.347,0.462 -0.257,-0.099 -0.882,0.968 -1.339,2.281 -0.151,0.437 -0.406,0.925 -0.565,1.085 -0.159,0.159 -0.243,0.435 -0.187,0.614 0.057,0.18 -0.027,0.433 -0.189,0.567 -0.459,0.381 -0.612,0.775 -0.829,2.144 -0.112,0.702 -0.318,1.453 -0.459,1.668 -0.628,0.964 -1.384,4.541 -1.468,6.951 -0.034,0.982 -0.109,1.861 -0.165,1.953 -0.057,0.092 -0.027,0.288 0.066,0.436 0.219,0.345 0.227,0.971 0.012,0.837 -0.236,-0.145 -0.374,1.018 -0.182,1.527 0.088,0.236 0.163,0.861 0.165,1.389 0.002,0.528 0.127,1.502 0.279,2.164 0.151,0.662 0.323,1.454 0.381,1.759 0.111,0.574 1.183,3.834 2.01,6.112 0.259,0.713 0.788,1.754 1.176,2.314 0.388,0.561 0.826,1.394 0.972,1.852 0.481,1.503 1.411,2.676 5.814,7.327 0.91,0.961 1.747,1.747 1.861,1.747 0.113,0 0.692,0.463 1.286,1.029 0.607,0.579 1.189,0.988 1.331,0.933 0.138,-0.053 0.338,0.068 0.445,0.267 0.107,0.2 0.283,0.364 0.391,0.364 0.108,0 0.418,0.157 0.688,0.349 1.76,1.248 7.448,3.782 8.313,3.702 0.281,-0.025 0.809,0.089 1.172,0.254 2.471,1.126 8.185,1.341 14.101,0.532 0.641,-0.087 1.132,-0.074 1.24,0.034 0.115,0.115 0.446,0.072 0.927,-0.121 0.412,-0.165 1.355,-0.436 2.096,-0.602 1.629,-0.367 2.15,-0.604 1.803,-0.819 -0.152,-0.094 0.096,-0.192 0.669,-0.265 1.096,-0.139 3.053,-1.052 5.356,-2.496 0.407,-0.256 1.099,-0.634 1.538,-0.841 0.816,-0.384 3.306,-2.503 5.67,-4.825 1.884,-1.851 4.658,-5.492 5.427,-7.124 0.36,-0.764 0.891,-1.734 1.18,-2.155 0.289,-0.421 0.601,-1.088 0.693,-1.482 0.092,-0.393 0.345,-1.156 0.561,-1.694 0.217,-0.539 0.394,-1.14 0.394,-1.336 0,-0.196 0.187,-0.531 0.416,-0.744 0.365,-0.34 0.418,-0.578 0.427,-1.906 0.005,-0.834 0.11,-2.225 0.234,-3.091 0.409,-2.857 0.529,-4.494 0.463,-6.286 -0.036,-0.973 -0.081,-2.371 -0.099,-3.106 -0.022,-0.862 -0.115,-1.369 -0.263,-1.425 -0.226,-0.087 -0.571,-2.401 -0.476,-3.197 0.026,-0.221 -0.037,-0.455 -0.142,-0.52 -0.104,-0.064 -0.19,-0.279 -0.19,-0.477 0,-0.197 -0.07,-0.359 -0.155,-0.359 -0.085,0 -0.431,-0.813 -0.769,-1.806 -0.338,-0.993 -0.818,-2.159 -1.067,-2.592 -0.248,-0.433 -0.403,-0.787 -0.344,-0.787 0.148,0 -0.584,-1.409 -1.229,-2.365 -0.324,-0.481 -0.619,-0.742 -0.753,-0.665 -0.121,0.069 -0.161,0.061 -0.089,-0.019 0.158,-0.175 -0.449,-1.415 -0.858,-1.755 -0.16,-0.133 -0.291,-0.354 -0.291,-0.491 0,-0.34 -4.881,-5.219 -5.973,-5.97 -0.483,-0.333 -0.879,-0.731 -0.879,-0.885 0,-0.154 -0.079,-0.231 -0.174,-0.172 -0.096,0.059 -0.332,-0.061 -0.524,-0.267 -0.511,-0.549 -2.132,-1.671 -2.415,-1.671 -0.133,0 -0.195,-0.076 -0.137,-0.17 0.098,-0.159 -0.381,-0.414 -3.047,-1.627 -0.56,-0.255 -1.326,-0.624 -1.702,-0.82 -0.404,-0.211 -1.104,-0.368 -1.717,-0.384 -0.568,-0.015 -0.941,-0.084 -0.829,-0.153 0.462,-0.286 -2.873,-1.207 -4.051,-1.12 -0.338,0.025 -0.879,-0.079 -1.204,-0.231 -0.931,-0.438 -2.961,-0.788 -3.048,-0.526 -0.088,0.264 -0.967,0.292 -0.967,0.031 0,-0.253 -2.15,-0.177 -3.268,0.116 m 7.605,9.171 c 1.031,0.469 1.312,2.861 0.638,5.419 -0.105,0.398 -0.222,1.023 -0.261,1.389 -0.183,1.738 -0.268,2.264 -0.626,3.857 -0.211,0.941 -0.386,2.066 -0.387,2.5 -0.002,0.434 -0.114,1.289 -0.25,1.9 -0.135,0.611 -0.253,1.285 -0.261,1.497 -0.008,0.213 -0.153,1.046 -0.322,1.852 -0.17,0.807 -0.337,1.674 -0.371,1.929 -0.128,0.958 -0.629,3.581 -0.865,4.537 -0.233,0.945 -0.821,4.34 -1.137,6.574 -0.021,0.153 -0.146,0.467 -0.276,0.698 -0.13,0.232 -0.197,0.485 -0.149,0.563 0.234,0.377 -0.955,2 -1.975,2.697 -1.139,0.778 -2.58,0.982 -3.003,0.425 -0.101,-0.134 -0.408,-0.389 -0.681,-0.567 -1.278,-0.832 -1.568,-3.321 -0.747,-6.408 0.34,-1.283 0.626,-2.643 0.601,-2.87 -0.006,-0.052 0.109,-0.38 0.254,-0.728 0.146,-0.348 0.287,-0.952 0.315,-1.342 0.027,-0.39 0.106,-0.792 0.175,-0.894 0.07,-0.102 0.173,-0.393 0.229,-0.648 0.057,-0.255 0.238,-0.963 0.402,-1.574 0.164,-0.611 0.456,-1.778 0.649,-2.593 0.194,-0.814 0.614,-2.356 0.935,-3.425 0.321,-1.07 0.695,-2.362 0.832,-2.871 0.137,-0.509 0.422,-1.564 0.633,-2.345 0.212,-0.781 0.385,-1.576 0.385,-1.768 0,-0.193 0.079,-0.429 0.177,-0.527 0.097,-0.097 0.296,-0.676 0.443,-1.287 0.146,-0.61 0.48,-1.839 0.743,-2.731 0.262,-0.891 0.433,-1.735 0.379,-1.876 -0.108,-0.28 0.617,-1.149 1.271,-1.524 0.45,-0.259 1.52,-0.192 2.25,0.141 m -8.048,41.357 c 3.923,2.476 0.841,9.378 -3.234,7.242 -0.305,-0.16 -0.649,-0.291 -0.764,-0.292 -0.115,0 -0.502,-0.358 -0.861,-0.795 -2.856,-3.487 1.115,-8.518 4.859,-6.155 m -43.789,25.744 c -0.102,0.029 -0.685,0.158 -1.296,0.288 -0.612,0.13 -1.191,0.306 -1.287,0.391 -0.097,0.086 -0.393,0.156 -0.658,0.156 -0.265,0 -0.561,0.076 -0.657,0.169 -0.097,0.093 -0.426,0.197 -0.732,0.23 -0.305,0.034 -0.926,0.291 -1.379,0.572 -0.452,0.28 -0.923,0.51 -1.045,0.51 -0.122,0 -0.269,0.124 -0.327,0.275 -0.06,0.156 -0.228,0.227 -0.39,0.165 -0.157,-0.06 -0.285,-0.015 -0.285,0.1 0,0.116 -0.208,0.289 -0.463,0.386 -0.254,0.097 -0.463,0.256 -0.463,0.353 0,0.097 -0.187,0.205 -0.416,0.24 -0.229,0.035 -0.395,0.17 -0.368,0.3 0.027,0.13 -0.061,0.211 -0.195,0.181 -0.135,-0.031 -0.628,0.376 -1.097,0.903 -0.468,0.528 -0.901,0.91 -0.962,0.849 -0.06,-0.06 -0.11,0.029 -0.11,0.199 0,0.17 -0.121,0.308 -0.268,0.308 -0.322,0 -1.213,1.121 -1.213,1.524 0,0.157 -0.209,0.422 -0.463,0.589 -0.255,0.167 -0.463,0.468 -0.463,0.669 0,0.202 -0.076,0.367 -0.17,0.367 -0.216,0 -1.026,1.445 -1.32,2.355 -0.124,0.385 -0.294,0.788 -0.378,0.895 -1.467,1.864 -1.915,11.284 -0.674,14.157 0.111,0.255 0.214,0.505 0.23,0.556 0.112,0.355 0.328,0.882 0.473,1.154 0.095,0.177 0.172,0.485 0.172,0.684 0,0.199 0.083,0.413 0.185,0.476 0.102,0.063 0.186,0.266 0.186,0.452 0,0.185 0.117,0.434 0.261,0.554 0.144,0.119 0.429,0.567 0.632,0.995 0.338,0.708 0.935,1.502 2.661,3.536 0.336,0.398 0.946,0.937 1.353,1.199 0.407,0.263 1.068,0.75 1.468,1.084 0.401,0.333 0.797,0.606 0.882,0.606 0.084,0 0.498,0.25 0.92,0.556 0.422,0.305 0.863,0.555 0.98,0.555 0.118,0 0.918,0.346 1.778,0.768 0.861,0.422 1.898,0.831 2.305,0.908 0.408,0.077 1.416,0.267 2.241,0.422 3.214,0.605 9.974,0.014 10.943,-0.956 0.169,-0.17 0.44,-0.317 0.603,-0.327 0.364,-0.024 2.98,-1.495 4.565,-2.567 1.192,-0.807 4.068,-3.929 4.834,-5.248 0.278,-0.478 0.606,-0.973 0.728,-1.1 0.123,-0.126 0.324,-0.543 0.447,-0.926 0.123,-0.383 0.331,-0.821 0.462,-0.974 0.131,-0.152 0.298,-0.611 0.372,-1.018 0.073,-0.408 0.236,-0.949 0.363,-1.204 0.411,-0.826 0.816,-2.937 0.579,-3.02 -0.147,-0.053 -0.116,-0.266 0.102,-0.704 0.306,-0.614 0.337,-2.514 0.06,-3.641 -0.057,-0.231 -0.022,-0.574 0.079,-0.762 0.172,-0.321 0.142,-0.492 -0.324,-1.873 -0.051,-0.153 -0.075,-0.39 -0.052,-0.528 0.026,-0.154 -0.045,-0.196 -0.185,-0.11 -0.143,0.088 -0.178,0.063 -0.096,-0.07 0.071,-0.116 0.04,-0.379 -0.071,-0.584 -0.139,-0.262 -0.141,-0.375 -0.003,-0.375 0.12,0 0.089,-0.206 -0.079,-0.532 -0.151,-0.292 -0.223,-0.584 -0.159,-0.648 0.064,-0.064 0.014,-0.116 -0.111,-0.116 -0.125,0 -0.173,-0.087 -0.108,-0.193 0.066,-0.106 0.038,-0.294 -0.063,-0.417 -0.101,-0.123 -0.283,-0.598 -0.405,-1.056 -0.123,-0.459 -0.589,-1.359 -1.037,-2 -0.448,-0.642 -0.814,-1.258 -0.814,-1.37 0,-0.949 -5.356,-5.89 -6.385,-5.89 -0.128,0 -0.514,-0.251 -0.859,-0.558 -0.345,-0.307 -0.984,-0.651 -1.42,-0.764 -0.436,-0.113 -0.873,-0.356 -0.971,-0.538 -0.149,-0.28 -0.83,-0.556 -1.569,-0.635 -0.102,-0.011 -0.557,-0.129 -1.011,-0.261 -0.454,-0.133 -1.121,-0.195 -1.481,-0.137 -0.361,0.057 -0.781,0.018 -0.934,-0.088 -0.21,-0.144 -0.164,-0.16 0.185,-0.063 0.255,0.07 0.397,0.058 0.316,-0.027 -0.08,-0.085 -0.705,-0.176 -1.389,-0.201 -0.683,-0.026 -1.429,-0.094 -1.658,-0.15 -0.314,-0.078 -0.418,-0.022 -0.42,0.224 -0.002,0.277 -0.029,0.285 -0.177,0.052 -0.133,-0.211 -0.226,-0.225 -0.391,-0.06 -0.132,0.132 -0.37,0.16 -0.61,0.072 -0.582,-0.214 -1.294,-0.353 -1.504,-0.293 m 1.824,5.804 c 0.168,0.186 0.399,0.832 0.512,1.435 0.113,0.602 0.222,1.179 0.243,1.281 0.021,0.102 0.142,0.81 0.269,1.574 0.126,0.764 0.358,2.097 0.516,2.963 0.35,1.924 0.583,3.468 0.727,4.815 0.059,0.56 0.19,1.339 0.289,1.731 0.1,0.393 0.149,0.746 0.109,0.786 -0.04,0.04 0.068,0.884 0.24,1.877 0.729,4.204 -1.093,6.69 -3.198,4.364 -0.687,-0.759 -1.173,-4.215 -1.53,-10.888 -0.281,-5.233 -0.485,-8.409 -0.566,-8.808 -0.238,-1.159 1.583,-2.02 2.389,-1.13 M 94.931,303.395 c -0.288,0.569 -0.646,1.137 -0.797,1.262 -0.151,0.125 -0.48,0.634 -0.732,1.132 -0.252,0.497 -0.746,1.304 -1.097,1.793 -0.351,0.488 -0.638,0.969 -0.638,1.069 0,0.099 -0.167,0.331 -0.371,0.516 -0.203,0.184 -0.37,0.406 -0.37,0.493 0,0.17 -1.018,1.672 -1.88,2.774 -0.29,0.371 -0.527,0.762 -0.527,0.868 0,0.107 -0.25,0.467 -0.556,0.802 -0.874,0.957 -0.717,1.256 1.276,2.416 0.548,0.32 1.382,0.936 1.851,1.369 1.043,0.962 1.987,1.741 2.112,1.741 0.051,0 0.36,0.25 0.687,0.555 0.327,0.306 0.673,0.556 0.768,0.556 0.096,0 0.4,0.214 0.675,0.476 0.276,0.262 0.876,0.738 1.335,1.057 0.458,0.32 1.444,1.084 2.191,1.7 0.747,0.615 1.663,1.326 2.037,1.58 0.373,0.254 0.746,0.566 0.827,0.695 0.082,0.128 0.373,0.351 0.648,0.496 0.275,0.145 0.822,0.57 1.216,0.946 0.846,0.806 0.991,0.728 1.925,-1.024 1.58,-2.965 1.399,-5.94 -0.519,-8.519 -1.803,-2.424 -2.278,-6.77 -0.899,-8.231 0.092,-0.097 0.166,-0.268 0.166,-0.381 0,-0.269 -2.333,-2.005 -3.099,-2.306 -0.33,-0.13 -0.546,-0.322 -0.481,-0.428 0.071,-0.114 0.029,-0.137 -0.103,-0.055 -0.251,0.154 -1.132,-0.355 -1.132,-0.655 0,-0.266 -1.515,-1.636 -1.816,-1.643 -0.136,-0.002 -0.184,-0.099 -0.11,-0.218 0.086,-0.14 0.05,-0.164 -0.106,-0.067 -0.159,0.098 -0.522,-0.176 -1.097,-0.829 l -0.86,-0.975 -0.524,1.035 m 119.381,2.783 c 2.315,0.98 1.723,4.563 -0.755,4.563 -2.23,0 -3.276,-2.775 -1.6,-4.245 0.72,-0.633 1.395,-0.724 2.355,-0.318 M 90.86,312.682 c 0.32,0.257 0.657,0.466 0.748,0.466 0.091,0 0.454,0.247 0.806,0.548 0.353,0.302 0.733,0.552 0.845,0.556 0.111,0.004 0.376,0.157 0.587,0.341 0.212,0.183 0.907,0.704 1.546,1.157 0.638,0.453 1.54,1.166 2.005,1.585 0.464,0.418 1.385,1.126 2.047,1.572 0.662,0.447 1.357,0.938 1.544,1.092 0.187,0.153 0.52,0.427 0.741,0.609 0.22,0.181 0.682,0.556 1.026,0.833 1.076,0.866 2.439,2.131 2.371,2.199 -0.11,0.11 -1.237,-0.508 -1.237,-0.678 0,-0.088 -0.146,-0.206 -0.324,-0.262 -0.178,-0.057 -0.545,-0.308 -0.815,-0.559 -0.27,-0.25 -0.937,-0.724 -1.481,-1.054 -0.545,-0.329 -1.295,-0.834 -1.666,-1.121 -0.371,-0.287 -0.732,-0.522 -0.802,-0.522 -0.136,0 -1.328,-0.929 -2.67,-2.08 -0.447,-0.383 -0.884,-0.697 -0.97,-0.697 -0.151,0 -0.383,-0.182 -1.71,-1.34 -0.319,-0.278 -0.685,-0.508 -0.812,-0.509 -0.127,-0.002 -0.232,-0.072 -0.232,-0.157 0,-0.085 -0.419,-0.426 -0.932,-0.758 -1.577,-1.022 -2.07,-1.502 -1.834,-1.786 0.134,-0.162 0.282,-0.188 0.421,-0.075 0.119,0.096 0.478,0.384 0.798,0.64 m 82.835,18.624 c -0.233,0.147 -0.232,0.171 0.009,0.18 0.603,0.022 -0.713,0.516 -1.932,0.724 -0.705,0.121 -1.455,0.318 -1.666,0.438 -0.211,0.121 -0.509,0.228 -0.662,0.24 -0.152,0.011 -0.527,0.038 -0.833,0.061 -0.496,0.036 -0.516,0.059 -0.185,0.215 0.304,0.143 0.271,0.16 -0.185,0.094 -0.782,-0.112 -3.691,0.237 -3.766,0.452 -0.034,0.099 -0.26,0.179 -0.503,0.179 -0.506,0 -0.527,0.941 -0.088,4.074 0.121,0.866 0.247,2.074 0.281,2.685 0.034,0.611 0.147,2.111 0.251,3.333 0.105,1.223 0.195,2.497 0.202,2.833 l 0.012,0.609 10.848,-0.028 10.847,-0.028 -0.117,-0.952 c -0.064,-0.524 -0.16,-1.182 -0.214,-1.463 l -0.098,-0.51 -1.698,0.093 c -1.868,0.102 -3.992,0.266 -4.831,0.371 -1.398,0.176 -3.479,0.293 -7.052,0.395 -6.987,0.201 -7.208,0.197 -7.273,-0.133 -0.043,-0.22 0.095,-0.295 0.552,-0.3 1.126,-0.01 3.8,-0.219 4.249,-0.331 0.467,-0.118 6.543,-0.283 12.426,-0.338 3.147,-0.029 3.472,-0.062 3.472,-0.351 0,-0.389 -0.71,-1.78 -1.115,-2.185 -0.163,-0.163 -0.417,-0.462 -0.563,-0.664 -0.363,-0.499 -1.9,-1.393 -3.137,-1.823 -2.455,-0.854 -4.815,-2.256 -4.815,-2.862 0,-0.094 -0.064,-0.2 -0.142,-0.234 -0.178,-0.077 -1.339,-2.603 -1.339,-2.912 0,-0.126 -0.1,-0.411 -0.222,-0.634 -0.123,-0.222 -0.201,-0.584 -0.175,-0.803 0.058,-0.479 -0.17,-0.658 -0.538,-0.425" />
      <path style="fill:#757575;fill-opacity:1;fill-rule:evenodd;stroke:none" id="path3-7" d="m 150.567,152.917 c -0.248,2.036 -0.791,4.524 -1.204,5.51 -0.306,0.734 -0.24,0.722 0.854,-0.148 0.651,-0.517 1.087,-0.547 1.073,-0.074 -0.004,0.122 -0.317,0.454 -0.695,0.739 -0.378,0.285 -1.127,0.944 -1.665,1.464 -0.538,0.52 -0.924,0.807 -0.859,0.637 0.077,-0.202 -0.337,-0.027 -1.202,0.506 -0.726,0.448 -1.715,0.912 -2.197,1.033 -1.395,0.347 -1.709,0.631 -1.708,1.541 0.003,1.69 1.963,3.089 3.315,2.366 0.347,-0.186 0.525,-0.126 1.303,0.445 4.289,3.149 11.044,2.311 12.16,-1.507 0.633,-2.167 -0.606,-6.092 -2.06,-6.521 -1.012,-0.299 -1.276,-0.72 -1.117,-1.78 0.102,-0.685 0.054,-0.863 -0.364,-1.321 -0.416,-0.457 -0.454,-0.47 -0.271,-0.097 0.233,0.477 -0.106,1.032 -0.757,1.238 -0.184,0.059 -0.368,0.248 -0.41,0.422 -0.056,0.235 -0.132,0.176 -0.3,-0.233 -0.259,-0.633 -0.144,-1.255 0.364,-1.969 0.399,-0.561 0.441,-0.724 0.185,-0.724 -0.096,0 -0.398,0.412 -0.672,0.916 -0.49,0.899 -0.876,1.224 -1.209,1.019 -0.344,-0.213 -0.145,-0.632 0.7,-1.477 l 0.867,-0.867 -0.804,-0.675 c -1.14,-0.957 -2.854,-2.245 -2.992,-2.247 -0.063,-0.001 -0.214,0.811 -0.335,1.804 m 1.84,6.898 c 0,0.102 -0.085,0.185 -0.189,0.185 -0.104,0 -0.283,0.207 -0.398,0.459 -0.218,0.479 -0.756,0.757 -1.311,0.676 -0.178,-0.026 -0.324,0.032 -0.324,0.128 0,0.097 -0.206,0.311 -0.459,0.477 -0.694,0.455 -0.898,-0.432 -0.258,-1.126 0.74,-0.802 2.939,-1.4 2.939,-0.799 m 3.143,1.523 c -0.588,0.476 -0.676,0.263 -0.155,-0.373 0.33,-0.403 0.455,-0.465 0.505,-0.25 0.037,0.157 -0.12,0.437 -0.35,0.623 m 2.448,1.069 c 0.104,0 0.14,0.13 0.079,0.288 -0.063,0.165 -0.032,0.239 0.073,0.174 0.5,-0.309 -0.066,1.276 -0.619,1.735 -0.396,0.329 -1.047,0.413 -1.309,0.169 -0.205,-0.192 -0.132,-1.696 0.092,-1.873 0.536,-0.424 1.046,-0.665 1.246,-0.588 0.136,0.053 0.334,0.095 0.438,0.095 m -5.567,1.096 c 0.573,0.539 0.555,1.393 -0.048,2.212 -1.531,2.083 -4.107,0.078 -2.686,-2.091 0.449,-0.685 2.057,-0.756 2.734,-0.121 m -6.981,-0.064 c 0.436,0.436 0.119,1.18 -0.51,1.197 -0.476,0.012 0.536,0.549 1.037,0.549 0.886,0 0.48,0.457 -0.461,0.519 -1.409,0.092 -2.11,-1.164 -1.173,-2.101 0.532,-0.532 0.712,-0.559 1.107,-0.164 m 63.976,1.18 c -0.455,0.302 -1.061,0.796 -1.346,1.097 -1.032,1.093 -1.189,1.239 -2.028,1.877 -0.973,0.739 -1.173,1.155 -0.265,0.55 l 0.602,-0.4 -0.648,0.568 c -0.657,0.576 -1.057,0.754 -0.816,0.364 0.083,-0.133 0.051,-0.163 -0.085,-0.08 -0.119,0.074 -0.168,0.212 -0.109,0.308 0.059,0.096 -0.044,0.229 -0.229,0.298 -0.184,0.068 -0.627,0.327 -0.983,0.575 -0.481,0.335 -0.535,0.35 -0.211,0.06 0.24,-0.215 0.364,-0.392 0.275,-0.392 -0.258,0 -2.508,1.878 -2.391,1.995 0.058,0.058 0.297,-0.054 0.53,-0.25 0.234,-0.196 0.004,0.033 -0.51,0.508 -0.514,0.475 -0.965,0.834 -1.002,0.797 -0.037,-0.037 0.171,-0.278 0.463,-0.534 0.292,-0.257 0.419,-0.469 0.283,-0.473 -0.136,-0.003 -0.72,0.459 -1.296,1.027 -0.655,0.645 -0.875,0.949 -0.586,0.809 l 0.463,-0.225 -0.449,0.488 c -0.431,0.469 -0.897,0.683 -0.663,0.305 0.064,-0.105 -0.01,-0.136 -0.175,-0.073 -0.256,0.099 -0.358,0.306 -0.317,0.648 0.015,0.126 -2.905,2.941 -3.051,2.941 -0.051,0 0.223,-0.395 0.607,-0.879 0.696,-0.874 0.696,-0.876 0.088,-0.324 -1.31,1.189 -3.195,3.429 -3.28,3.898 -0.085,0.472 -0.314,0.805 -2.049,2.98 -0.424,0.531 -0.855,1.117 -0.958,1.302 -0.104,0.184 -0.23,0.293 -0.281,0.242 -0.051,-0.051 0.229,-0.571 0.622,-1.156 0.393,-0.584 0.64,-1.063 0.548,-1.063 -0.091,0 -0.265,0.188 -0.386,0.417 -0.122,0.229 -0.487,0.75 -0.812,1.157 -0.796,1 -1.017,1.388 -0.591,1.043 0.173,-0.14 0.314,-0.201 0.314,-0.136 0,0.193 -0.963,1.674 -1.185,1.822 -0.467,0.312 -0.471,0.099 -0.009,-0.553 l 0.493,-0.694 -0.561,0.624 c -0.337,0.374 -0.518,0.739 -0.452,0.91 0.069,0.18 0.034,0.239 -0.094,0.16 -0.112,-0.069 -0.264,-0.028 -0.338,0.091 -0.083,0.135 -0.053,0.167 0.08,0.084 0.118,-0.072 0.214,-0.074 0.214,-0.004 0,0.271 -2.148,2.114 -2.466,2.115 -0.185,10e-4 -0.514,0.097 -0.732,0.213 -0.297,0.159 -0.413,0.159 -0.466,-0.001 -0.047,-0.138 -0.237,-0.083 -0.544,0.159 -0.363,0.286 -0.732,0.367 -1.604,0.353 -0.731,-0.012 -0.975,-0.063 -0.688,-0.143 0.267,-0.075 -0.103,-0.134 -0.926,-0.148 -1.148,-0.019 -3.431,-0.558 -2.574,-0.607 0.243,-0.013 0.244,-0.037 0.005,-0.188 -0.173,-0.109 -0.316,-0.104 -0.388,0.014 -0.134,0.217 -1.099,0.018 -1.099,-0.226 0,-0.091 -0.113,-0.165 -0.252,-0.165 -0.138,0 -0.951,-0.323 -1.805,-0.717 -1.926,-0.889 -5.695,-2.117 -7.665,-2.499 -0.815,-0.157 -1.69,-0.327 -1.944,-0.376 -0.255,-0.05 0.159,-0.046 0.92,0.007 0.761,0.053 1.536,0.178 1.722,0.278 0.186,0.1 0.564,0.155 0.839,0.123 0.935,-0.109 -3.258,-0.885 -5.974,-1.106 -4.281,-0.348 -7.74,0.295 -8.794,1.634 -0.187,0.239 -0.433,0.433 -0.546,0.433 -0.112,0 -0.204,0.116 -0.204,0.258 0,0.141 -0.167,0.454 -0.371,0.694 -0.32,0.378 -0.353,0.387 -0.243,0.067 0.114,-0.332 0.094,-0.343 -0.193,-0.109 -0.177,0.143 -0.281,0.365 -0.232,0.493 0.078,0.205 -0.11,1.022 -0.627,2.719 -0.085,0.281 -0.089,0.47 -0.009,0.42 0.217,-0.134 -0.014,1.641 -0.231,1.782 -0.102,0.066 -0.13,0.266 -0.061,0.444 0.068,0.177 0.178,0.268 0.244,0.202 0.067,-0.066 0.27,0.467 0.453,1.186 0.722,2.846 2.588,5.111 5.439,6.605 0.985,0.516 1.324,0.767 1.016,0.753 -0.255,-0.011 -0.728,-0.215 -1.053,-0.452 -0.716,-0.525 -1.208,-0.577 -0.619,-0.066 0.428,0.371 1.868,0.965 2.876,1.185 0.523,0.114 0.534,0.105 0.196,-0.159 -0.198,-0.154 -0.315,-0.281 -0.259,-0.281 0.292,0 1.4,0.459 1.67,0.691 0.192,0.166 0.475,0.222 0.74,0.147 0.294,-0.083 0.351,-0.066 0.181,0.052 -0.361,0.25 0.505,0.435 1.496,0.32 0.528,-0.062 0.638,-0.045 0.331,0.051 -0.399,0.124 -0.328,0.171 0.556,0.36 1.164,0.248 4.015,0.345 4.467,0.151 0.168,-0.071 0.626,-0.046 1.019,0.057 1.093,0.287 3.734,0.044 3.507,-0.322 -0.045,-0.073 0.745,-0.135 1.756,-0.136 1.598,-0.003 1.909,-0.056 2.387,-0.409 0.603,-0.447 1.05,-0.521 1.159,-0.194 0.052,0.157 0.235,0.159 0.71,0.006 0.351,-0.113 0.847,-0.242 1.102,-0.287 0.255,-0.046 1.046,-0.29 1.759,-0.543 0.713,-0.254 1.614,-0.516 2.002,-0.583 0.388,-0.067 0.844,-0.284 1.013,-0.482 0.17,-0.198 0.454,-0.36 0.632,-0.36 0.439,0 2.54,-1.064 3.113,-1.576 0.825,-0.738 1.508,-1.117 1.372,-0.762 -0.175,0.455 0.282,0.365 1.157,-0.228 0.93,-0.631 1.452,-1.135 1.452,-1.403 0,-0.109 0.208,-0.226 0.463,-0.261 0.575,-0.079 1.154,-0.576 1.035,-0.888 -0.056,-0.145 0.012,-0.195 0.18,-0.13 0.148,0.057 0.498,-0.049 0.777,-0.236 0.28,-0.187 0.572,-0.32 0.651,-0.297 0.079,0.024 0.216,-0.149 0.305,-0.383 0.089,-0.234 0.294,-0.536 0.457,-0.67 0.162,-0.135 0.241,-0.332 0.175,-0.438 -0.068,-0.111 -0.029,-0.138 0.091,-0.063 0.249,0.153 0.959,-0.188 0.959,-0.46 0,-0.105 -0.104,-0.13 -0.232,-0.057 -0.134,0.078 -0.167,0.063 -0.077,-0.035 0.085,-0.093 0.21,-0.175 0.278,-0.182 0.356,-0.038 1.258,-0.6 1.854,-1.156 0.372,-0.346 0.991,-0.841 1.374,-1.1 0.384,-0.258 0.746,-0.66 0.804,-0.892 0.058,-0.233 0.214,-0.465 0.347,-0.515 0.206,-0.079 0.837,-1.116 0.837,-1.375 0,-0.048 -0.145,0.028 -0.321,0.167 -0.176,0.14 0.103,-0.287 0.621,-0.949 0.518,-0.662 1.26,-1.686 1.648,-2.276 0.421,-0.639 0.758,-0.988 0.835,-0.864 0.086,0.139 0.167,0.107 0.245,-0.095 0.067,-0.177 0.04,-0.256 -0.067,-0.19 -0.328,0.203 -0.194,-0.189 0.368,-1.076 0.704,-1.11 0.938,-1.139 0.292,-0.036 -0.269,0.458 -0.408,0.833 -0.309,0.833 0.201,0 0.757,-0.896 1.865,-3.009 0.414,-0.789 0.679,-1.435 0.588,-1.435 -0.091,0 -0.269,0.252 -0.397,0.561 -0.128,0.309 -0.264,0.53 -0.303,0.492 -0.143,-0.144 0.478,-1.343 0.863,-1.667 0.226,-0.19 0.353,-0.455 0.293,-0.611 -0.058,-0.152 -0.029,-0.228 0.066,-0.17 0.496,0.307 3.165,-4.981 3.153,-6.248 -0.002,-0.227 -0.257,0.337 -0.566,1.254 -0.548,1.621 -1.657,3.848 -2.032,4.08 -0.102,0.063 0.224,-0.663 0.725,-1.612 1.22,-2.313 2.274,-6.055 1.946,-6.909 -0.06,-0.155 -0.022,-0.281 0.083,-0.281 0.105,0 0.23,0.145 0.276,0.324 0.047,0.178 0.084,-0.135 0.082,-0.695 -0.003,-0.931 -0.016,-0.963 -0.152,-0.37 -0.12,0.52 -0.14,0.419 -0.103,-0.511 0.029,-0.718 -0.016,-1.07 -0.118,-0.926 -0.108,0.152 -0.138,0.058 -0.085,-0.271 0.044,-0.279 0.004,-0.456 -0.091,-0.398 -0.094,0.058 -0.144,-0.04 -0.112,-0.218 0.103,-0.567 -0.797,-0.52 -1.719,0.091 m 2.083,4.362 c -0.018,0.306 -0.075,0.764 -0.128,1.019 l -0.095,0.463 0.199,-0.457 c 0.11,-0.251 0.167,-0.709 0.127,-1.018 l -0.071,-0.562 -0.032,0.555 m -61.213,3.519 c 0.058,2.17 0.171,3.816 0.371,5.427 0.353,2.832 8.834,0.826 8.763,-2.072 -0.014,-0.575 -0.5,-2.086 -0.527,-1.639 -0.009,0.145 -0.175,0.201 -0.431,0.147 -0.229,-0.049 -0.75,-0.129 -1.157,-0.179 -1.723,-0.209 -6.861,-2.776 -7,-3.497 -0.043,-0.225 -0.052,0.591 -0.019,1.813 m 43.794,5.787 c -0.575,0.77 -0.812,1.03 -1.31,1.435 -0.25,0.204 -0.012,-0.15 0.53,-0.787 1.01,-1.185 1.46,-1.56 0.78,-0.648 m -32.14,6.565 c 0.045,0.044 -1.147,0.079 -2.648,0.078 -1.5,-0.001 -2.957,0.058 -3.237,0.13 -0.291,0.076 -0.509,0.057 -0.509,-0.044 0,-0.313 6.089,-0.47 6.394,-0.164 m -7.804,0.817 c -0.396,0.267 -0.834,0.576 -0.973,0.689 -0.199,0.16 -0.238,0.13 -0.185,-0.143 0.037,-0.191 0.209,-0.367 0.381,-0.393 0.172,-0.025 0.503,-0.178 0.736,-0.341 0.232,-0.163 0.498,-0.296 0.592,-0.296 0.093,0 -0.155,0.218 -0.551,0.484 m 14.3,0.156 c 0.317,0.146 0.817,0.314 1.111,0.371 0.458,0.091 0.442,0.069 -0.113,-0.148 -1,-0.392 -1.707,-0.55 -0.998,-0.223 m 34.592,0.13 -0.353,0.399 0.509,-0.328 c 0.526,-0.338 0.625,-0.47 0.353,-0.47 -0.086,0 -0.315,0.179 -0.509,0.399 m -32.482,0.603 c 0.254,0.136 0.671,0.3 0.925,0.363 0.255,0.063 0.13,-0.045 -0.277,-0.241 -0.838,-0.403 -1.358,-0.5 -0.648,-0.122 m 31.816,0.248 c -0.497,0.578 -0.648,0.925 -0.268,0.617 0.311,-0.253 0.762,-0.942 0.616,-0.942 -0.038,0 -0.195,0.146 -0.348,0.325 m -10.431,4.764 c 0.494,0.107 1.763,0.775 1.763,0.928 0,0.107 -0.827,-0.139 -1.05,-0.313 -0.478,-0.372 -3.05,-0.307 -4.137,0.106 -3.356,1.273 -4.914,3.436 -4.986,6.922 -0.008,0.406 -0.103,0.602 -0.29,0.602 -0.328,0 -0.415,-2.857 -0.093,-3.056 0.102,-0.063 0.185,-0.276 0.185,-0.474 0,-1.093 1.648,-3.069 3.182,-3.815 2.414,-1.175 3.403,-1.339 5.426,-0.9 m -42.01,3.391 c -0.209,0.339 0.512,2.261 0.848,2.261 0.088,0 0.057,-0.187 -0.069,-0.416 -0.24,-0.436 -0.316,-0.687 -0.428,-1.406 -0.081,-0.516 -0.206,-0.673 -0.351,-0.439 m 2.918,4.746 c 0.047,0.319 0.855,0.986 0.855,0.706 0,-0.09 -0.203,-0.353 -0.45,-0.585 -0.35,-0.329 -0.439,-0.356 -0.405,-0.121 m 10.994,3.939 c -0.179,0.047 -0.47,0.047 -0.649,0 -0.178,-0.046 -0.032,-0.085 0.325,-0.085 0.356,0 0.502,0.039 0.324,0.085 m 2.037,0.19 c -0.28,0.043 -0.739,0.043 -1.019,0 -0.28,-0.042 -0.051,-0.077 0.509,-0.077 0.561,0 0.79,0.035 0.51,0.077 m 96.015,9.312 c 0,0.357 0.038,0.502 0.085,0.324 0.046,-0.178 0.046,-0.47 0,-0.648 -0.047,-0.178 -0.085,-0.032 -0.085,0.324 m -85.829,11.027 c -5.033,6.339 -17.87,8.54 -24.7,4.235 l -0.95,-0.598 0.099,1.325 c 0.055,0.729 0.086,1.701 0.07,2.159 -0.036,1.04 0.728,4.093 0.901,3.6 0.093,-0.267 0.146,-0.207 0.243,0.275 0.166,0.83 0.124,1.139 -0.078,0.57 -0.37,-1.045 0.042,1.752 0.485,3.291 0.553,1.925 0.668,2.205 0.548,1.338 l -0.09,-0.648 0.261,0.678 c 0.545,1.409 0.423,1.914 -0.701,2.915 -1.464,1.305 -2.154,2.015 -2.154,2.219 0,0.114 -0.073,0.207 -0.161,0.207 -0.242,0 -2.432,2.23 -2.432,2.476 0,0.117 -0.175,0.322 -0.389,0.456 -0.286,0.178 -0.352,0.182 -0.25,0.016 0.093,-0.15 0.064,-0.18 -0.084,-0.089 -0.124,0.077 -0.301,0.34 -0.395,0.585 -0.093,0.244 -0.296,0.445 -0.451,0.445 -0.155,0 -0.282,0.096 -0.282,0.214 0,0.117 -0.771,0.974 -1.713,1.903 -0.943,0.929 -2.02,2.062 -2.395,2.517 -1.057,1.285 -1.449,1.712 -4.273,4.664 -1.451,1.517 -2.763,2.998 -2.916,3.292 -0.153,0.293 -0.416,0.571 -0.585,0.616 -0.169,0.046 -0.562,0.447 -0.874,0.892 -0.312,0.445 -0.726,0.976 -0.921,1.179 -0.194,0.204 -0.74,0.871 -1.213,1.482 -0.474,0.611 -1.485,1.819 -2.247,2.685 -0.762,0.866 -1.776,2.074 -2.254,2.685 -0.478,0.611 -1.353,1.652 -1.943,2.313 -0.591,0.66 -1.074,1.299 -1.074,1.419 0,0.12 -0.07,0.247 -0.156,0.281 -0.085,0.034 -1.061,1.27 -2.167,2.747 -1.107,1.476 -2.066,2.726 -2.131,2.777 -0.065,0.051 -0.589,0.779 -1.164,1.617 -0.575,0.838 -1.338,1.907 -1.695,2.375 -0.357,0.468 -0.65,0.965 -0.65,1.105 0,0.139 -0.148,0.362 -0.33,0.495 -0.181,0.133 -0.597,0.658 -0.924,1.168 -0.327,0.509 -0.762,1.12 -0.967,1.358 -0.204,0.238 -0.371,0.522 -0.371,0.631 0,0.178 -0.538,0.946 -2.041,2.918 -0.272,0.356 -0.636,0.898 -0.809,1.204 -0.172,0.305 -0.808,1.264 -1.412,2.129 -0.604,0.866 -1.016,1.603 -0.915,1.637 0.215,0.074 0.854,-0.647 1.027,-1.158 0.15,-0.445 1.203,-1.951 2.211,-3.164 0.424,-0.509 0.88,-1.134 1.014,-1.389 0.134,-0.254 0.359,-0.548 0.5,-0.652 0.141,-0.103 0.271,-0.387 0.289,-0.63 0.019,-0.242 0.172,-0.477 0.342,-0.521 0.17,-0.045 0.463,-0.385 0.653,-0.756 0.189,-0.372 0.532,-0.829 0.761,-1.016 0.229,-0.187 0.417,-0.455 0.417,-0.596 0,-0.14 0.114,-0.321 0.253,-0.403 0.14,-0.081 0.432,-0.499 0.649,-0.929 0.217,-0.429 0.564,-0.871 0.77,-0.981 0.206,-0.111 0.333,-0.27 0.281,-0.353 -0.052,-0.084 0.133,-0.406 0.411,-0.715 0.722,-0.802 1.71,-2.213 1.71,-2.44 0,-0.106 0.085,-0.193 0.189,-0.193 0.105,0 0.265,-0.187 0.357,-0.417 0.092,-0.229 0.549,-0.875 1.016,-1.435 0.467,-0.56 0.896,-1.165 0.953,-1.345 0.057,-0.18 0.166,-0.288 0.243,-0.241 0.076,0.047 0.441,-0.389 0.811,-0.97 0.37,-0.58 0.889,-1.305 1.153,-1.61 1.122,-1.301 1.389,-1.635 1.39,-1.74 10e-4,-0.062 0.626,-0.762 1.389,-1.556 0.763,-0.794 1.388,-1.567 1.388,-1.717 0,-0.15 0.187,-0.362 0.416,-0.471 0.383,-0.182 0.691,-0.524 1.991,-2.208 0.729,-0.944 1.994,-2.426 2.762,-3.234 0.387,-0.408 0.824,-0.923 0.97,-1.144 0.146,-0.222 0.779,-0.955 1.407,-1.628 0.627,-0.674 1.147,-1.261 1.155,-1.305 0.007,-0.044 0.615,-0.715 1.351,-1.493 0.735,-0.777 1.41,-1.542 1.5,-1.699 0.089,-0.157 0.443,-0.531 0.785,-0.832 0.343,-0.301 1.156,-1.226 1.807,-2.056 1.223,-1.56 2.807,-3.108 2.992,-2.923 0.058,0.058 0.051,-0.037 -0.016,-0.211 -0.086,-0.225 0.007,-0.364 0.328,-0.486 0.248,-0.094 0.591,-0.386 0.763,-0.649 0.532,-0.811 7.241,-7.55 7.31,-7.342 0.036,0.108 0.131,0.155 0.212,0.106 0.132,-0.082 0.593,2.12 1.106,5.294 0.225,1.396 0.224,2.249 -0.002,1.275 -0.098,-0.423 -0.117,-0.124 -0.057,0.861 0.083,1.332 0.383,2.972 0.426,2.323 0.009,-0.134 0.105,-0.188 0.213,-0.121 0.129,0.08 0.088,0.242 -0.119,0.472 -0.288,0.318 -0.295,0.502 -0.077,2.065 0.131,0.943 0.223,2.069 0.203,2.502 -0.023,0.495 0.044,0.787 0.179,0.787 0.129,0 0.181,-0.183 0.128,-0.457 -0.048,-0.252 -0.016,-0.414 0.071,-0.36 0.087,0.054 0.15,0.489 0.14,0.967 -0.015,0.711 -0.045,0.784 -0.167,0.405 -0.1,-0.314 -0.158,0.071 -0.179,1.204 -0.085,4.659 -0.377,8.586 -1.03,13.889 -0.286,2.321 -0.342,3.373 -0.171,3.201 0.056,-0.056 0.17,-0.632 0.255,-1.281 l 0.152,-1.179 0.024,1.116 c 0.016,0.743 -0.073,1.254 -0.265,1.528 -0.158,0.226 -0.246,0.411 -0.194,0.411 0.051,0 -0.02,0.272 -0.159,0.603 -0.18,0.433 -0.206,0.837 -0.091,1.435 0.088,0.458 0.151,1.458 0.139,2.222 l -0.022,1.388 -0.125,-1.018 -0.125,-1.019 -0.07,1.297 c -0.038,0.713 -0.072,2.088 -0.076,3.055 -0.004,0.968 -0.061,1.843 -0.126,1.945 -0.182,0.284 0.162,10.15 0.481,13.796 0.734,8.369 2.013,15.838 4.172,24.352 1.605,6.33 1.773,6.769 2.701,7.038 1.071,0.31 3.736,0.51 3.813,0.286 0.075,-0.217 2.979,-0.568 3.767,-0.455 0.456,0.066 0.489,0.049 0.185,-0.094 -0.331,-0.156 -0.311,-0.179 0.185,-0.215 0.306,-0.023 0.681,-0.05 0.833,-0.061 0.153,-0.012 0.447,-0.117 0.653,-0.235 0.207,-0.118 0.915,-0.308 1.575,-0.422 1.449,-0.252 2.32,-0.571 2.037,-0.746 -0.116,-0.072 0.113,-0.252 0.528,-0.415 l 0.732,-0.287 0.02,-2.611 c 0.014,-1.969 -0.051,-2.778 -0.267,-3.294 -0.229,-0.548 -0.239,-0.718 -0.05,-0.854 0.167,-0.121 0.141,-0.14 -0.089,-0.066 -0.26,0.084 -0.324,-0.006 -0.324,-0.456 0,-0.309 0.072,-0.517 0.159,-0.463 0.303,0.188 0.23,-4.802 -0.081,-5.547 -0.22,-0.527 -0.24,-0.808 -0.089,-1.244 0.236,-0.675 0.237,-2.973 0.004,-5.878 -0.208,-2.6 -0.211,-8.533 -0.005,-10.926 0.1,-1.158 0.087,-1.8 -0.038,-1.879 -0.117,-0.075 -0.152,-0.752 -0.093,-1.792 0.052,-0.92 0.028,-1.741 -0.055,-1.825 -0.128,-0.13 0.264,-4.034 0.464,-4.611 0.038,-0.11 -0.012,-0.61 -0.111,-1.111 -0.098,-0.501 -0.173,-1.894 -0.165,-3.096 l 0.014,-2.185 -0.604,-0.254 c -0.332,-0.14 -0.787,-0.428 -1.012,-0.64 -0.225,-0.211 -0.48,-0.384 -0.567,-0.384 -0.244,0 -2.19,-2.201 -2.999,-3.393 -2.049,-3.019 -1.855,-7.545 0.441,-10.293 0.367,-0.439 0.729,-0.899 0.804,-1.023 0.707,-1.158 4.674,-3.015 4.674,-2.187 0,0.223 -0.155,0.346 -0.467,0.372 -1.56,0.129 -4.269,2.529 -5.171,4.579 -0.665,1.513 -0.759,1.827 -0.968,3.235 -0.216,1.459 0.161,3.243 0.961,4.543 0.251,0.407 0.532,0.907 0.625,1.111 0.093,0.204 0.344,0.554 0.558,0.779 0.213,0.225 0.388,0.488 0.388,0.583 0,0.096 0.387,0.495 0.861,0.887 0.473,0.393 0.952,0.798 1.064,0.9 0.113,0.101 0.516,0.393 0.898,0.648 0.621,0.415 0.695,0.548 0.713,1.296 0.019,0.778 0.03,0.795 0.159,0.252 0.076,-0.319 0.067,-1.105 -0.021,-1.747 -0.088,-0.641 -0.09,-1.213 -0.005,-1.271 0.086,-0.058 0.161,-0.553 0.167,-1.1 0.006,-0.548 -0.052,-0.895 -0.128,-0.771 -0.16,0.258 -0.37,-0.369 -0.369,-1.104 0,-0.33 0.046,-0.391 0.159,-0.212 0.286,0.451 0.355,-0.023 0.483,-3.308 0.158,-4.088 0.192,-4.568 0.452,-6.43 0.15,-1.069 0.155,-1.633 0.02,-1.886 -0.134,-0.251 -0.135,-0.517 -0.002,-0.867 0.105,-0.277 0.243,-2.553 0.305,-5.058 0.062,-2.505 0.186,-4.721 0.275,-4.924 0.105,-0.241 0.126,-0.03 0.059,0.602 -0.125,1.181 0.187,1.31 0.362,0.149 0.26,-1.737 0.031,-5.625 -0.284,-4.819 -0.134,0.343 -0.143,0.34 -0.155,-0.043 -0.007,-0.224 0.116,-0.48 0.275,-0.569 0.36,-0.202 0.602,-2.15 0.291,-2.343 -0.134,-0.083 -0.218,0.057 -0.234,0.391 -0.02,0.42 -0.04,0.442 -0.104,0.115 -0.043,-0.223 0.052,-0.605 0.212,-0.849 0.559,-0.854 0.762,-4.933 0.261,-5.243 -0.087,-0.054 -0.159,-0.265 -0.159,-0.469 0,-0.203 0.084,-0.319 0.186,-0.256 0.193,0.12 0.206,0.031 0.293,-1.944 0.03,-0.662 0.097,-1.537 0.15,-1.944 0.4,-3.087 0.473,-9.512 0.153,-13.537 l -0.133,-1.684 -1.064,1.34 m -18.586,6.673 c 0.062,0.161 0.064,0.484 0.006,0.717 -0.111,0.44 0.156,4.39 0.482,7.139 0.177,1.49 0.323,2.341 1.003,5.837 0.158,0.817 0.288,1.713 0.288,1.991 0,0.278 0.073,0.505 0.162,0.505 0.138,0 0.387,1.35 0.409,2.222 0.017,0.64 0.407,2.938 0.645,3.797 0.358,1.289 0.735,4.64 1.105,9.814 0.114,1.597 0.096,13.098 -0.022,14.167 -0.04,0.357 -0.115,1.44 -0.167,2.407 -0.053,0.968 -0.174,2.218 -0.271,2.778 -0.096,0.56 -0.222,2.477 -0.281,4.259 -0.058,1.783 -0.185,4.325 -0.282,5.649 -0.096,1.324 -0.163,3.677 -0.149,5.23 0.015,1.552 -0.029,2.879 -0.098,2.947 -0.17,0.171 -0.159,0.476 0.014,0.37 0.076,-0.047 0.156,0.885 0.177,2.072 0.06,3.351 0.221,6.461 0.419,8.084 0.1,0.815 0.227,2.072 0.283,2.793 0.056,0.721 0.23,1.971 0.388,2.778 0.158,0.806 0.375,1.966 0.483,2.577 0.107,0.612 0.311,1.376 0.452,1.699 0.141,0.324 0.291,0.824 0.333,1.111 0.078,0.525 0.46,1.891 0.821,2.931 0.105,0.306 0.378,1.097 0.606,1.759 0.227,0.663 0.55,1.454 0.718,1.76 0.354,0.645 0.681,2.083 0.344,1.51 -0.11,-0.188 -0.215,-0.439 -0.233,-0.559 -0.017,-0.119 -0.217,-0.517 -0.444,-0.884 -0.226,-0.366 -0.415,-0.74 -0.418,-0.83 -0.003,-0.09 -0.167,-0.497 -0.364,-0.904 -0.197,-0.407 -0.361,-0.951 -0.364,-1.209 -0.004,-0.257 -0.12,-0.632 -0.259,-0.833 -0.138,-0.201 -0.31,-0.759 -0.381,-1.241 -0.071,-0.481 -0.213,-0.927 -0.316,-0.991 -0.103,-0.063 -0.144,-0.226 -0.092,-0.362 0.052,-0.136 0.032,-0.274 -0.045,-0.306 -0.198,-0.082 -1.114,-3.985 -1.324,-5.639 -0.097,-0.764 -0.219,-1.459 -0.272,-1.544 -0.095,-0.154 -0.386,-2.731 -0.579,-5.139 -0.056,-0.69 -0.135,-1.546 -0.177,-1.903 -0.475,-4.087 -0.429,-12.555 0.117,-21.296 0.124,-1.986 0.247,-4.069 0.274,-4.63 0.027,-0.56 0.104,-1.935 0.171,-3.055 0.305,-5.086 0.354,-8.334 0.2,-13.333 -0.164,-5.364 -0.418,-8.416 -0.939,-11.296 -0.535,-2.959 -0.796,-4.46 -0.901,-5.186 -0.059,-0.407 -0.285,-1.741 -0.503,-2.963 -0.218,-1.222 -0.396,-2.575 -0.397,-3.006 -0.001,-0.526 -0.069,-0.744 -0.209,-0.664 -0.114,0.065 -0.155,0.059 -0.091,-0.013 0.065,-0.072 0.043,-0.464 -0.049,-0.871 -0.159,-0.711 -0.272,-1.453 -0.461,-3.038 -0.049,-0.408 -0.125,-0.991 -0.17,-1.297 -0.281,-1.926 -0.305,-6.203 -0.035,-6.203 0.154,0 0.331,0.131 0.393,0.292 m 7.231,0.587 c -0.366,4.86 -0.696,6.123 -2.614,9.986 -0.93,1.875 -1.737,2.968 -2.049,2.776 -0.205,-0.127 0.779,-2.37 1.097,-2.499 0.083,-0.034 0.151,-0.188 0.151,-0.342 0,-0.154 0.121,-0.502 0.268,-0.772 0.147,-0.27 0.407,-0.825 0.578,-1.232 0.17,-0.408 0.512,-1.173 0.758,-1.701 0.247,-0.528 0.521,-1.403 0.61,-1.945 0.196,-1.194 0.373,-2.001 0.52,-2.373 0.061,-0.152 0.125,-0.408 0.143,-0.568 0.182,-1.625 0.647,-2.774 0.538,-1.33 m -10.984,15.88 c -0.009,0.102 0.1,0.602 0.241,1.111 0.142,0.509 0.259,0.759 0.26,0.555 0.003,-0.394 -0.474,-1.98 -0.501,-1.666 m 1.774,17.359 c -0.044,0.23 -0.082,0.085 -0.084,-0.322 -0.002,-0.408 0.034,-0.596 0.081,-0.419 0.046,0.177 0.048,0.51 0.003,0.741 m -0.37,5.37 c -0.044,0.23 -0.082,0.086 -0.084,-0.322 -0.002,-0.407 0.034,-0.596 0.08,-0.419 0.047,0.177 0.048,0.511 0.004,0.741 m -1.482,22.222 c -0.044,0.231 -0.082,0.086 -0.084,-0.322 -0.002,-0.407 0.034,-0.595 0.081,-0.418 0.046,0.177 0.048,0.51 0.003,0.74 m 0.197,4.308 -0.015,1.852 -0.133,-1.296 c -0.197,-1.916 -0.185,-4.368 0.015,-3.241 0.082,0.458 0.142,1.667 0.133,2.685 m -47.012,2.09 c -0.143,0.276 -0.303,0.544 -0.356,0.595 -0.053,0.051 -0.197,0.322 -0.32,0.602 -0.123,0.28 -0.308,0.509 -0.411,0.509 -0.102,0 -0.308,0.292 -0.457,0.649 -0.149,0.356 -0.351,0.648 -0.448,0.648 -0.211,0 -1.221,1.748 -1.391,2.407 l -0.12,0.463 0.227,-0.463 c 0.249,-0.507 2.275,-3.506 3.629,-5.371 0.135,-0.186 0.168,-0.381 0.074,-0.438 -0.092,-0.057 -0.285,0.122 -0.427,0.399 M 95.926,302.5 c 0.127,0.153 0.162,0.278 0.078,0.278 -0.084,0 -0.053,0.099 0.068,0.22 0.296,0.296 0.817,0.365 0.66,0.088 -0.234,-0.415 -0.68,-0.864 -0.857,-0.864 -0.099,0 -0.076,0.125 0.051,0.278 m 58.646,3.194 c -0.046,0.179 -0.085,0.033 -0.085,-0.324 0,-0.356 0.039,-0.502 0.085,-0.324 0.047,0.179 0.047,0.47 0,0.648 m -55.128,0.271 c 0,0.157 0.146,0.4 0.325,0.54 0.299,0.235 0.303,0.228 0.046,-0.098 -0.153,-0.194 -0.25,-0.389 -0.216,-0.432 0.034,-0.044 0.013,-0.129 -0.047,-0.188 -0.059,-0.059 -0.108,0.021 -0.108,0.178 m 0.926,0.794 c 0.127,0.153 0.367,0.268 0.532,0.257 0.255,-0.019 0.251,-0.035 -0.022,-0.107 -0.179,-0.046 -0.324,-0.162 -0.324,-0.256 0,-0.094 -0.094,-0.172 -0.208,-0.172 -0.144,0 -0.137,0.086 0.022,0.278 m 54.387,0.602 c -0.046,0.178 -0.084,0.033 -0.084,-0.324 0,-0.356 0.038,-0.502 0.084,-0.324 0.047,0.178 0.047,0.47 0,0.648 m 19.263,6.574 c -0.045,0.229 -0.081,0.042 -0.081,-0.416 0,-0.459 0.036,-0.646 0.081,-0.417 0.044,0.229 0.044,0.604 0,0.833 m -15.718,11.621 c 0.003,0.17 -0.056,0.134 -0.154,-0.093 -0.087,-0.204 -0.157,-0.537 -0.154,-0.741 0.007,-0.438 0.298,0.352 0.308,0.834 m 16.088,0.044 c -0.044,0.23 -0.082,0.085 -0.084,-0.322 -0.002,-0.408 0.034,-0.596 0.08,-0.419 0.047,0.177 0.049,0.51 0.004,0.741 m 10.147,18.658 c 0.219,0.095 0.263,0.166 0.108,0.173 -0.144,0.008 -0.219,0.057 -0.165,0.11 0.122,0.123 0.705,-0.093 0.705,-0.261 0,-0.069 -0.229,-0.138 -0.509,-0.153 -0.44,-0.025 -0.459,-0.007 -0.139,0.131 m -7.914,0.873 c 0.23,0.044 0.563,0.043 0.74,-0.004 0.177,-0.046 -0.011,-0.082 -0.419,-0.08 -0.407,0.002 -0.552,0.04 -0.321,0.084" />
      <path style="fill:#ccac71;fill-rule:evenodd;stroke:none" id="path4-8" d="m 211.077,164.634 c 0.31,0.546 0.59,0.719 0.59,0.366 0,-0.102 -0.089,-0.185 -0.196,-0.185 -0.108,0 -0.155,-0.067 -0.105,-0.148 0.05,-0.082 -0.064,-0.246 -0.255,-0.365 -0.334,-0.208 -0.335,-0.196 -0.034,0.332 m 0.374,1.426 c 0.053,0.452 0.124,0.572 0.235,0.396 0.236,-0.372 0.2,-0.848 -0.072,-0.952 -0.174,-0.067 -0.218,0.083 -0.163,0.556 m -0.047,2.392 c -0.064,0.168 -0.073,0.348 -0.019,0.402 0.053,0.053 0.098,-0.021 0.099,-0.166 0.003,-0.216 0.035,-0.213 0.183,0.016 0.145,0.224 0.18,0.198 0.182,-0.139 0.003,-0.485 -0.275,-0.555 -0.445,-0.113 m -7.85,1.096 c -0.134,0.151 -0.307,0.235 -0.386,0.186 -0.079,-0.048 -0.143,0.029 -0.143,0.172 0,0.197 0.127,0.169 0.524,-0.113 0.289,-0.206 0.525,-0.41 0.525,-0.454 0,-0.169 -0.289,-0.053 -0.52,0.209 m 7.495,0.946 c -0.225,0.225 -0.128,0.422 0.155,0.314 0.152,-0.059 0.277,-0.181 0.277,-0.272 0,-0.194 -0.255,-0.219 -0.432,-0.042 m -10.412,1.005 c -0.055,0.09 0.049,0.115 0.233,0.057 0.221,-0.071 0.154,0.058 -0.197,0.382 -0.761,0.701 -0.525,0.73 0.276,0.034 0.643,-0.558 0.653,-0.584 0.231,-0.61 -0.243,-0.015 -0.487,0.047 -0.543,0.137 m -3.67,3.093 c -0.077,0.126 -0.041,0.223 0.082,0.223 0.154,0 0.144,0.093 -0.036,0.317 -0.168,0.21 -0.051,0.174 0.348,-0.106 0.681,-0.477 0.709,-0.52 0.332,-0.52 -0.148,0 -0.226,0.07 -0.174,0.154 0.053,0.085 0.014,0.155 -0.085,0.155 -0.1,0 -0.214,-0.1 -0.255,-0.223 -0.058,-0.173 -0.105,-0.173 -0.212,0 m -2.891,3.462 c -0.126,0.151 -0.324,0.221 -0.44,0.155 -0.115,-0.066 -0.148,-0.052 -0.073,0.031 0.076,0.084 0.045,0.264 -0.069,0.4 -0.113,0.137 -0.133,0.244 -0.044,0.239 0.163,-0.011 1.093,-1.101 0.939,-1.101 -0.047,0 -0.187,0.124 -0.313,0.276 m 13.601,0.265 c 0.058,0.094 -0.042,0.21 -0.221,0.257 -0.273,0.071 -0.277,0.088 -0.025,0.106 0.166,0.012 0.405,-0.103 0.532,-0.256 0.189,-0.228 0.175,-0.278 -0.081,-0.278 -0.171,0 -0.264,0.077 -0.205,0.171 m -14.994,1.314 c -0.064,0.103 -0.206,0.132 -0.317,0.064 -0.114,-0.071 -0.148,-0.039 -0.079,0.073 0.068,0.109 0.018,0.236 -0.11,0.281 -0.128,0.046 -0.184,0.136 -0.125,0.201 0.059,0.064 0.302,-0.091 0.541,-0.345 0.239,-0.255 0.383,-0.463 0.321,-0.463 -0.063,0 -0.167,0.085 -0.231,0.189 m -31.801,4.757 c 0.23,0.045 0.563,0.043 0.741,-0.004 0.177,-0.046 -0.012,-0.082 -0.419,-0.08 -0.408,0.002 -0.553,0.04 -0.322,0.084 m -4.352,0.458 c 0.293,0.187 1.014,0.195 1.127,0.013 0.047,-0.076 -0.239,-0.143 -0.636,-0.149 -0.419,-0.005 -0.625,0.052 -0.491,0.136 m 2.424,0.013 c -0.114,0.183 0.85,0.155 1.324,-0.038 0.265,-0.108 0.143,-0.144 -0.433,-0.126 -0.442,0.014 -0.843,0.088 -0.891,0.164 m 1.95,0.005 c 0.089,0.09 0.401,0.133 0.694,0.097 0.489,-0.061 0.476,-0.074 -0.163,-0.163 -0.398,-0.055 -0.625,-0.027 -0.531,0.066 m 27.293,0.352 c -0.023,0.297 0.009,0.307 0.24,0.075 0.329,-0.329 0.335,-0.416 0.026,-0.416 -0.132,0 -0.252,0.153 -0.266,0.341 m -22.456,-0.04 c -0.504,0.154 -0.356,0.258 0.648,0.456 0.551,0.109 0.552,0.108 0.111,-0.145 -0.327,-0.187 -0.376,-0.282 -0.185,-0.357 0.382,-0.151 -0.037,-0.118 -0.574,0.046 m 36.994,0.891 c -0.279,0.38 -0.671,0.906 -0.873,1.169 -0.279,0.364 -0.304,0.478 -0.104,0.478 0.145,0 0.228,-0.056 0.186,-0.124 -0.139,-0.225 0.483,-0.935 0.708,-0.806 0.12,0.069 0.159,0.059 0.086,-0.021 -0.162,-0.18 0.189,-0.883 0.381,-0.764 0.076,0.046 0.15,-0.076 0.164,-0.273 0.035,-0.462 0.044,-0.467 -0.548,0.341 M 187.5,185.741 c -0.063,0.102 -0.089,0.191 -0.057,0.199 0.61,0.151 0.713,0.126 0.508,-0.122 -0.26,-0.312 -0.301,-0.319 -0.451,-0.077 m -36.069,0.757 c -0.18,0.106 -0.279,0.27 -0.22,0.365 0.177,0.286 0.406,0.198 0.509,-0.196 0.054,-0.204 0.084,-0.368 0.068,-0.365 -0.016,0.003 -0.176,0.091 -0.357,0.196 m 20.483,0.641 c 0,0.131 0.121,0.186 0.277,0.127 0.169,-0.065 0.229,-0.029 0.154,0.093 -0.079,0.128 0.025,0.166 0.294,0.108 0.345,-0.076 0.369,-0.055 0.139,0.124 -0.228,0.176 -0.23,0.202 -0.012,0.143 0.503,-0.136 0.391,-0.447 -0.231,-0.638 -0.477,-0.146 -0.621,-0.136 -0.621,0.043 m 14.038,0.645 c -0.241,0.2 -0.35,0.364 -0.243,0.364 0.107,0 0.247,-0.085 0.311,-0.188 0.064,-0.104 0.18,-0.149 0.258,-0.101 0.078,0.048 0.142,-0.034 0.142,-0.182 0,-0.148 -0.007,-0.267 -0.016,-0.263 -0.008,0.003 -0.212,0.17 -0.452,0.37 m -9.081,1.459 c -0.207,0.131 -0.188,0.178 0.093,0.236 0.571,0.118 1.264,-0.055 0.97,-0.242 -0.32,-0.203 -0.736,-0.2 -1.063,0.006 m -27.129,0.866 c -0.181,0.471 -0.131,0.627 0.165,0.514 0.306,-0.118 0.374,-0.542 0.112,-0.704 -0.091,-0.056 -0.216,0.029 -0.277,0.19 m 0.027,2.206 c -0.048,0.254 -0.016,0.463 0.071,0.463 0.088,0 0.16,-0.209 0.16,-0.463 0,-0.255 -0.032,-0.463 -0.071,-0.463 -0.039,0 -0.111,0.208 -0.16,0.463 m 0.419,3.194 c 0.007,0.329 0.323,0.638 0.448,0.437 0.07,-0.113 0.075,-0.289 0.012,-0.39 -0.133,-0.216 -0.464,-0.25 -0.46,-0.047 m 2.198,3.308 c 0.322,0.656 1.538,1.76 1.854,1.683 0.256,-0.062 0.251,-0.092 -0.04,-0.219 -0.186,-0.08 -0.713,-0.53 -1.171,-1 -0.459,-0.47 -0.748,-0.679 -0.643,-0.464 m 2.305,2.001 c 0,0.127 0.091,0.235 0.201,0.24 0.11,0.005 0.367,0.074 0.571,0.153 0.439,0.171 0.358,0.081 -0.293,-0.325 -0.346,-0.216 -0.479,-0.235 -0.479,-0.068 m 1.591,0.71 c -0.158,0.517 -0.108,0.674 0.17,0.532 0.169,-0.087 0.432,-0.121 0.585,-0.076 0.233,0.068 0.236,0.052 0.017,-0.101 -0.144,-0.1 -0.387,-0.134 -0.54,-0.075 -0.181,0.069 -0.232,0.031 -0.145,-0.11 0.074,-0.119 0.088,-0.217 0.031,-0.217 -0.057,0 -0.11,0.021 -0.118,0.047 m 2.004,1.017 c 0.453,0.454 1.702,0.757 1.345,0.327 -0.126,-0.151 -0.312,-0.224 -0.413,-0.161 -0.102,0.063 -0.239,0.031 -0.304,-0.07 -0.065,-0.101 -0.313,-0.245 -0.553,-0.32 -0.43,-0.134 -0.431,-0.132 -0.075,0.224 m 17.851,0.609 -0.437,0.365 h 0.421 c 0.232,0 0.367,-0.055 0.3,-0.122 -0.067,-0.067 -0.029,-0.234 0.085,-0.371 0.29,-0.349 0.143,-0.298 -0.369,0.128 m -14.47,0.365 c -0.354,0.228 0.027,0.228 0.74,0 l 0.463,-0.149 -0.463,-0.015 c -0.254,-0.009 -0.588,0.065 -0.74,0.164 m 1.527,0.127 c 0.179,0.047 0.47,0.047 0.649,0 0.178,-0.046 0.032,-0.085 -0.324,-0.085 -0.357,0 -0.503,0.039 -0.325,0.085 m 8.741,0.042 c 0.057,0.093 0,0.217 -0.128,0.276 -0.128,0.059 -0.025,0.056 0.23,-0.005 0.706,-0.17 0.892,-0.44 0.304,-0.44 -0.281,0 -0.464,0.076 -0.406,0.169 m 1.687,0.114 c -0.351,0.266 -0.35,0.272 0.046,0.272 0.223,0 0.406,-0.088 0.406,-0.196 0,-0.108 0.083,-0.145 0.185,-0.082 0.102,0.063 0.185,0.026 0.185,-0.081 0,-0.276 -0.397,-0.234 -0.822,0.087 m -8.761,0.034 c 0.28,0.043 0.739,0.043 1.019,0 0.28,-0.042 0.051,-0.077 -0.51,-0.077 -0.56,0 -0.789,0.035 -0.509,0.077 m -0.787,0.31 c 0,0.152 1.133,0.228 1.223,0.082 0.052,-0.084 -0.201,-0.154 -0.564,-0.154 -0.362,0 -0.659,0.032 -0.659,0.072 m 10.822,21.271 -0.544,0.602 0.602,-0.544 c 0.331,-0.3 0.602,-0.57 0.602,-0.602 0,-0.143 -0.153,-0.017 -0.66,0.544 m -24.843,2.222 c -0.005,0.127 -0.068,0.398 -0.141,0.602 -0.106,0.297 -0.093,0.315 0.068,0.092 0.166,-0.231 0.2,-0.207 0.202,0.139 0.002,0.229 0.092,0.417 0.201,0.417 0.117,0 0.147,-0.16 0.073,-0.393 -0.069,-0.217 -0.142,-0.506 -0.162,-0.643 -0.05,-0.341 -0.23,-0.501 -0.241,-0.214 m 0.371,3.154 c 0.011,0.366 0.086,0.624 0.168,0.573 0.197,-0.121 0.185,-0.652 -0.022,-0.978 -0.113,-0.178 -0.159,-0.05 -0.146,0.405 m 7.026,3.837 c 0,0.356 0.038,0.502 0.085,0.324 0.047,-0.179 0.047,-0.47 0,-0.648 -0.047,-0.179 -0.085,-0.033 -0.085,0.324 m -5.952,0.123 c -0.009,0.119 -0.072,0.362 -0.141,0.54 -0.084,0.22 -0.055,0.281 0.093,0.189 0.14,-0.086 0.222,0.017 0.231,0.294 0.008,0.235 0.054,0.331 0.103,0.213 0.048,-0.118 0.007,-0.493 -0.091,-0.833 -0.098,-0.34 -0.186,-0.522 -0.195,-0.403 m 1.212,6.45 c 0.059,0.152 0.181,0.23 0.272,0.174 0.262,-0.162 0.194,-0.451 -0.106,-0.451 -0.165,0 -0.23,0.109 -0.166,0.277 m 0.52,2.333 c -0.069,0.112 -10e-4,0.328 0.152,0.481 0.246,0.246 0.267,0.223 0.185,-0.203 -0.102,-0.533 -0.153,-0.575 -0.337,-0.278 m 0.173,1.05 c -0.141,0.092 -0.153,0.284 -0.037,0.595 0.128,0.342 0.21,0.395 0.325,0.211 0.117,-0.191 0.073,-0.959 -0.055,-0.945 -0.014,0.002 -0.119,0.064 -0.233,0.139 m 0.671,2.599 c 0,0.184 -0.086,0.42 -0.191,0.525 -0.132,0.132 -0.103,0.191 0.092,0.191 0.189,0 0.284,-0.176 0.284,-0.524 0,-0.289 -0.041,-0.525 -0.092,-0.525 -0.051,0 -0.093,0.15 -0.093,0.333 m -0.067,1.277 c -0.065,0.065 -0.117,0.209 -0.115,0.319 0.001,0.11 0.091,0.075 0.199,-0.077 0.146,-0.208 0.17,-0.09 0.096,0.463 -0.056,0.407 -0.055,0.636 0.002,0.508 0.056,-0.128 0.163,-0.195 0.238,-0.149 0.074,0.046 0.099,-0.163 0.055,-0.464 -0.083,-0.568 -0.27,-0.805 -0.475,-0.6 m -10.599,4.528 c -0.351,0.395 -0.35,0.396 0.064,0.179 0.229,-0.121 0.417,-0.299 0.417,-0.398 0,-0.263 -0.089,-0.222 -0.481,0.219 m -4.25,3.723 -0.732,0.787 0.787,-0.732 c 0.732,-0.681 0.872,-0.842 0.732,-0.842 -0.03,0 -0.384,0.354 -0.787,0.787 m 21.626,6.25 c 0,0.356 0.038,0.502 0.084,0.324 0.047,-0.178 0.047,-0.47 0,-0.648 -0.046,-0.178 -0.084,-0.033 -0.084,0.324 m 12.41,19.303 c 0.026,0.126 0.285,0.335 0.577,0.463 0.787,0.347 0.818,0.287 0.118,-0.229 -0.721,-0.532 -0.757,-0.544 -0.695,-0.234 m 35.742,1.901 c 0.002,0.407 0.04,0.552 0.084,0.322 0.044,-0.231 0.042,-0.564 -0.004,-0.741 -0.046,-0.177 -0.082,0.011 -0.08,0.419 m -48.893,4.166 c 0,0.357 0.038,0.503 0.085,0.324 0.046,-0.178 0.046,-0.469 0,-0.648 -0.047,-0.178 -0.085,-0.032 -0.085,0.324 m 0.538,1.883 c -0.014,0.17 -0.079,0.462 -0.145,0.648 -0.093,0.262 -0.068,0.292 0.108,0.13 0.125,-0.116 0.191,-0.408 0.145,-0.649 -0.046,-0.24 -0.094,-0.299 -0.108,-0.129 m -55.298,10.853 c 0.076,0.278 0.04,0.404 -0.106,0.371 -0.121,-0.028 -0.247,0.108 -0.279,0.302 -0.056,0.336 -0.04,0.334 0.32,-0.026 0.309,-0.309 0.339,-0.442 0.164,-0.723 -0.194,-0.312 -0.203,-0.305 -0.099,0.076" />
   </g>
</svg>
