<?xml version="1.0" encoding="UTF-8" standalone="no"?>
<svg xmlns:dc="http://purl.org/dc/elements/1.1/" xmlns:cc="http://creativecommons.org/ns#" xmlns:rdf="http://www.w3.org/1999/02/22-rdf-syntax-ns#" xmlns:svg="http://www.w3.org/2000/svg" xmlns="http://www.w3.org/2000/svg" viewBox="0 0 225.741 279.815" height="279.815" width="225.741" version="1.1" id="svg">
   <metadata id="metadata13">
      <rdf:RDF>
         <cc:Work rdf:about="">
            <dc:format>image/svg+xml</dc:format>
            <dc:type rdf:resource="http://purl.org/dc/dcmitype/StillImage" />
            <dc:title></dc:title>
         </cc:Work>
      </rdf:RDF>
   </metadata>
   <defs id="defs11" />
   <g transform="translate(-76.623599,-603.61758)" id="g1278">
      <path style="fill:#757575;fill-opacity:1;fill-rule:evenodd;stroke:none" id="path0-49" d="m 192.0866,722.67958 c -1.181,0.288 -2.328,1.164 -2.848,2.177 -0.377,0.733 0.107,0.624 0.611,-0.138 0.622,-0.94 1.395,-1.413 2.746,-1.68 0.586,-0.115 1.065,-0.282 1.065,-0.371 0,-0.188 -0.778,-0.182 -1.574,0.012 m 2.903,1.764 c -1.064,0.961 -2.329,2.495 -2.18,2.644 0.166,0.165 3.11,-2.899 3.026,-3.149 -0.036,-0.11 -0.417,0.118 -0.846,0.505 m 2.704,0.759 c -0.061,0.06 -0.034,0.374 0.058,0.696 0.408,1.423 -0.01,2.517 -1.166,3.049 -0.764,0.351 -0.995,0.897 -0.286,0.677 0.616,-0.191 1.343,-0.746 1.709,-1.304 0.504,-0.77 0.213,-3.647 -0.315,-3.118 m -19.959,9.706 c -1.779,0.383 -6.296,1.995 -6.296,2.248 0,0.25 0.042,0.239 3.231,-0.849 8.04,-2.741 14.047,-1.411 21.289,4.712 2.062,1.744 2.666,1.833 0.83,0.123 -5.757,-5.365 -12.635,-7.615 -19.054,-6.234 m 3.547,4.218 c -0.216,0.993 -0.445,1.994 -0.51,2.223 -0.115,0.409 0.166,0.593 0.379,0.247 0.121,-0.196 0.844,-3.636 0.844,-4.018 0,-0.821 -0.374,-0.009 -0.713,1.548 m -7.254,-0.185 c -0.002,0.077 -0.086,0.708 -0.186,1.403 -0.174,1.198 0.011,2.362 0.254,1.607 0.2,-0.621 0.295,-3.149 0.118,-3.149 -0.1,0 -0.184,0.063 -0.186,0.139 m 13.943,1.338 c -0.43,0.809 -0.71,1.515 -0.622,1.569 0.232,0.144 1.683,-2.317 1.683,-2.854 0,-0.481 -0.339,-0.07 -1.061,1.285 m -18.68,-0.271 c -1.112,1.697 -0.98,4.35 0.217,4.35 0.374,0 0.329,-0.166 -0.152,-0.556 -0.724,-0.587 -0.534,-1.982 0.561,-4.12 0.188,-0.366 -0.359,-0.081 -0.626,0.326 m 23.33,2.544 c -0.169,0.331 -0.546,0.951 -0.838,1.376 -0.593,0.868 -0.629,0.986 -0.298,0.985 0.281,0 1.806,-2.417 1.806,-2.861 0,-0.318 -0.405,-0.016 -0.67,0.5 m -51.937,1.855 c -0.329,0.533 -3.34,5.592 -6.691,11.242 -3.351,5.65 -6.115,10.294 -6.142,10.322 -0.027,0.027 -3.168,0.68 -6.981,1.452 -3.812,0.772 -7.051,1.443 -7.198,1.492 -0.172,0.057 1.944,2.315 6.02,6.423 12.466,12.563 18.823,19.423 21.324,23.009 0.912,1.307 1.594,4.561 1.919,9.155 0.111,1.581 0.259,3.157 0.328,3.503 l 0.125,0.628 3.701,1.083 c 31.17,9.125 55.286,8.992 77.262,-0.427 l 3.158,-1.354 0.213,-1.89 c 0.117,-1.04 0.338,-2.313 0.492,-2.83 1.131,-3.809 8.532,-12.79 20.764,-25.199 l 5.224,-5.299 -1.057,-0.326 c -0.582,-0.179 -3.237,-1.03 -5.899,-1.891 l -4.842,-1.565 -8.399,-10.298 c -4.62,-5.663 -8.858,-10.866 -9.418,-11.562 -0.56,-0.695 -1.118,-1.245 -1.24,-1.222 -0.122,0.023 -4.793,3.762 -10.38,8.308 l -10.158,8.265 -0.218,1.179 c -0.976,5.275 -6.531,8.84 -14.855,9.534 -1.398,0.117 -1.482,0.103 -1.482,-0.245 0,-0.336 0.166,-0.379 1.898,-0.487 6.812,-0.426 12.335,-3.667 13.567,-7.961 0.171,-0.593 0.27,-1.118 0.221,-1.167 -0.104,-0.105 -2.127,1.528 -3.186,2.571 -2.484,2.447 -7.17,4.582 -10.056,4.582 -2.265,-10e-4 -7.384,-1.297 -8.931,-2.263 -3.925,-2.448 -3.8,-2.407 -3.424,-1.14 0.777,2.616 3.242,4.517 6.295,4.854 1.224,0.136 1.817,0.774 0.713,0.768 -3.722,-0.019 -7.838,-3.465 -7.838,-6.562 0,-0.601 -0.126,-0.712 -3.287,-2.9 -1.808,-1.251 -3.87,-2.703 -4.583,-3.226 -0.713,-0.523 -3.505,-2.565 -6.204,-4.537 -4.424,-3.233 -15.102,-11.162 -18.736,-13.913 l -1.421,-1.076 -0.598,0.97 m 57.043,0.923 c -0.011,0.825 -0.405,1.862 -1.007,2.652 -0.565,0.74 -0.494,1.067 0.115,0.526 0.879,-0.782 1.74,-3.78 1.086,-3.78 -0.102,0 -0.189,0.271 -0.194,0.602 m 33.063,40.508 c 0.063,0.102 -0.097,0.461 -0.355,0.8 -2.2,2.884 -3.814,9.485 -4.118,16.84 -0.094,2.259 -0.177,2.917 -0.37,2.917 -0.603,0 -0.167,-7.161 0.698,-11.482 0.955,-4.768 3.442,-10.213 4.145,-9.075 m -89.905,0.511 c 0.002,0.28 0.344,1.467 0.761,2.639 2.194,6.163 3.013,9.878 3.163,14.348 0.047,1.405 0.01,1.672 -0.24,1.721 -0.252,0.049 -0.314,-0.271 -0.423,-2.19 -0.242,-4.282 -1.109,-8.181 -2.903,-13.057 -1.145,-3.111 -1.308,-3.971 -0.754,-3.971 0.306,0 0.395,0.114 0.396,0.51 m 83.361,27.28 c -16.93,7.225 -38.51,8.925 -59.659,4.698 -5.53,-1.105 -15.809,-3.735 -20.861,-5.337 -0.331,-0.105 -0.344,0.293 -0.374,11.509 -0.017,6.39 -0.101,13.257 -0.185,15.261 -0.085,2.003 -0.129,3.617 -0.098,3.586 0.03,-0.031 0.822,0.186 1.759,0.481 11.833,3.729 24.575,5.801 38.093,6.193 10.298,0.298 18.933,-1.104 32.129,-5.218 1.456,-0.454 13.471,-4.537 13.569,-4.611 0.027,-0.021 -0.036,-1.196 -0.142,-2.612 -0.539,-7.249 -0.769,-12.1 -0.869,-18.36 -0.061,-3.794 -0.161,-6.894 -0.223,-6.89 -0.062,0.005 -1.474,0.589 -3.139,1.3 m 0.249,29.281 c -10.366,3.578 -17.942,5.778 -23.776,6.904 -14.8,2.859 -36.488,1.127 -54.585,-4.359 -1.689,-0.512 -3.094,-0.906 -3.121,-0.875 -0.028,0.031 -0.147,2.181 -0.264,4.778 -0.117,2.597 -0.421,8.264 -0.674,12.593 -0.253,4.328 -0.541,9.287 -0.64,11.018 -0.098,1.732 -0.231,3.669 -0.294,4.306 l -0.115,1.157 h 45.577 45.577 l -0.004,-0.509 c -0.002,-0.28 -0.125,-1.551 -0.273,-2.824 -0.674,-5.808 -2.17,-21.514 -2.834,-29.746 l -0.315,-3.912 -4.259,1.469" />
      <path style="fill:#757575;fill-opacity:1;fill-rule:evenodd;stroke:none" id="path1-0" d="m 81.623599,648.43258 v 39.815 H 116.7976 c 23.25,0 35.214,-0.063 35.289,-0.185 0.074,-0.119 3.083,-0.186 8.422,-0.186 4.569,0 8.439,-0.05 8.6,-0.112 0.631,-0.242 0.323,-0.912 -1.751,-3.809 -2.353,-3.286 -2.92,-4.865 -2.303,-6.408 0.379,-0.947 0.333,-0.944 1.477,-0.082 0.509,0.383 2.28,1.686 3.936,2.894 4.159,3.035 5.055,4.154 5.374,6.71 l 0.136,1.085 10.45,0.048 c 11.079,0.051 10.742,0.076 10.749,-0.805 0.006,-0.775 1.127,-2.643 2.143,-3.572 1.287,-1.176 2.147,-1.489 6.378,-2.318 1.885,-0.369 3.668,-0.721 3.963,-0.783 l 0.537,-0.111 -0.129,1.261 c -0.231,2.253 -0.726,2.724 -4.052,3.85 -1.758,0.596 -2.755,1.207 -2.692,1.652 l 0.058,0.408 8.565,0.048 c 5.497,0.031 8.565,0.114 8.565,0.231 0,0.121 13.191,0.184 38.426,0.184 h 38.426 v -39.815 -39.815 H 189.4946 81.623599 v 39.815 m 94.537001,-9.224 c 3.906,1.266 4.735,3.902 2.469,7.853 -1.773,3.093 -1.886,3.977 -0.582,4.554 2.499,1.105 3.33,0.915 27.65,-6.336 11.249,-3.354 17.831,-4.681 26.675,-5.38 4.385,-0.347 5.733,-0.084 5.733,1.119 0,1.095 -0.225,1.178 -3.636,1.342 -8.708,0.416 -14.539,1.475 -25.253,4.588 -4.802,1.395 -16.729,4.894 -20.926,6.14 -7.8,2.313 -12.116,1.934 -13.417,-1.18 -0.616,-1.474 -0.356,-2.639 1.23,-5.513 1.677,-3.039 1.614,-3.868 -0.354,-4.658 -5.19,-2.084 -21.669,2.258 -32.722,8.623 -3.062,1.763 -3.009,1.746 -3.694,1.207 -1.009,-0.794 -0.43,-1.658 2.198,-3.278 10.463,-6.451 28.307,-11.131 34.629,-9.081 m -32.361,1.955 c 0.594,0.778 0.206,1.416 -1.443,2.376 -2.026,1.179 -3.317,2.254 -6.037,5.033 -2.3,2.348 -2.673,2.659 -3.056,2.541 -1.287,-0.395 -1.226,-1.132 0.247,-2.993 4.047,-5.108 9.094,-8.521 10.289,-6.957 m 102.163,1.634 c 0.16,0.16 0.291,0.484 0.291,0.72 0,2.626 -12.97,5.875 -14.044,3.518 -0.557,-1.222 0.288,-1.672 3.396,-1.812 2.357,-0.106 4.142,-0.573 7.129,-1.864 2.088,-0.902 2.769,-1.021 3.228,-0.562" />
      <path style="fill:#ece5dd;fill-opacity:1;fill-rule:evenodd;stroke:none" id="path2-9" d="m 166.8086,639.16758 c -6.553,1.114 -17.276,4.64 -21.851,7.187 -5.765,3.209 -6.721,4.078 -5.657,5.142 0.633,0.633 0.669,0.622 3.352,-0.95 11.109,-6.511 28.359,-11.05 33.261,-8.752 1.962,0.92 1.932,1.491 -0.298,5.583 -3.368,6.183 1.852,8.859 11.656,5.974 29.483,-8.674 30.076,-8.837 35.881,-9.816 4.456,-0.751 6.759,-0.994 10.938,-1.154 3.337,-0.128 4.015,-0.33 4.015,-1.197 0,-1.595 -1.696,-1.752 -9.537,-0.885 -7.809,0.864 -12.523,1.913 -24.074,5.359 -20.021,5.973 -22.304,6.575 -24.443,6.437 -2.899,-0.186 -3.492,-1.147 -2.208,-3.577 2.031,-3.845 1.994,-3.752 2.005,-4.955 0.039,-3.985 -5.154,-5.735 -13.04,-4.396 m -24.46,1.648 c -1.748,0.426 -5.38,3.289 -7.905,6.228 -2.274,2.647 -2.605,3.53 -1.468,3.916 0.704,0.239 0.896,0.095 3.833,-2.871 1.969,-1.989 3.294,-3.16 4.218,-3.731 3.082,-1.905 3.441,-2.358 2.562,-3.236 -0.256,-0.257 -0.533,-0.457 -0.614,-0.445 -0.081,0.012 -0.363,0.075 -0.626,0.139 m 100.703,2.43 c -3.05,1.368 -4.953,1.87 -7.679,2.027 -3.049,0.175 -4.111,0.976 -2.832,2.133 1.902,1.721 13.713,-1.61 13.713,-3.867 0,-1.209 -0.963,-1.297 -3.202,-0.293 m -52.169,78.347 c -2.296,0.398 -4.257,1.862 -4.544,3.39 l -0.109,0.58 -1.701,0.016 c -5.781,0.054 -11.72,4.644 -13.948,10.781 -0.43,1.186 -0.706,1.612 -1.65,2.546 -2.994,2.962 -2.935,6.315 0.168,9.606 0.866,0.918 1.044,0.854 1.044,-0.375 0,-2.727 6.525,-5.094 11.952,-4.336 4.49,0.626 7.278,2.103 11.414,6.045 1.207,1.15 2.569,2.349 3.025,2.663 0.603,0.415 0.831,0.696 0.831,1.025 0,0.579 0.062,0.572 1.136,-0.117 2.727,-1.75 3.457,-4.394 2.066,-7.484 -0.481,-1.068 -0.604,-1.622 -0.698,-3.148 -0.267,-4.335 -1.363,-8.091 -2.982,-10.219 -0.574,-0.755 -0.582,-0.733 0.315,-0.853 1.577,-0.212 2.385,-1.582 2.385,-4.042 0,-4.146 -3.95,-6.903 -8.704,-6.078 m 2.83,1.192 c -0.022,0.102 -0.272,0.211 -0.555,0.243 -1.593,0.177 -3.023,1.025 -3.399,2.014 -0.089,0.235 -0.29,0.428 -0.445,0.428 -0.877,0 0.486,-1.893 1.812,-2.516 0.974,-0.458 2.675,-0.569 2.587,-0.169 m 2.192,1.262 c -0.017,0.42 -2.995,3.338 -3.199,3.134 -0.167,-0.167 -0.011,-0.446 0.669,-1.196 1.572,-1.733 2.553,-2.484 2.53,-1.938 m 2.28,1.361 c 0.065,0.17 0.169,0.795 0.231,1.389 l 0.113,1.081 -0.94,0.94 c -0.673,0.673 -1.059,0.923 -1.355,0.879 -0.666,-0.097 -0.587,-0.408 0.189,-0.733 1.228,-0.516 1.604,-1.48 1.237,-3.17 -0.16,-0.737 0.269,-1.053 0.525,-0.386 m -12.514,9.406 c 3.658,0.775 9.528,4.217 12.143,7.121 0.844,0.936 -0.029,0.858 -1.046,-0.095 -7.253,-6.792 -14.279,-8.383 -22.884,-5.18 -2.635,0.98 -2.445,0.94 -2.445,0.517 0,-0.398 5.44,-2.32 7.407,-2.617 1.587,-0.239 5.119,-0.108 6.825,0.254 m -3.638,2.423 c 0.107,0.107 -0.282,2.453 -0.62,3.742 -0.238,0.905 -0.823,1.15 -0.664,0.278 0.179,-0.983 0.726,-3.66 0.795,-3.889 0.071,-0.24 0.315,-0.305 0.489,-0.131 m -7.632,1.983 c -0.005,1.402 -0.258,2.917 -0.489,2.917 -0.28,0 -0.322,-0.768 -0.131,-2.361 0.118,-0.978 0.622,-1.431 0.62,-0.556 m 14.816,-0.306 c 0,0.362 -1.568,3.038 -1.78,3.038 -0.387,0 -0.325,-0.216 0.5,-1.746 0.618,-1.146 1.28,-1.814 1.28,-1.292 m -19.259,0.664 c 0,0.121 -0.182,0.596 -0.405,1.055 -0.592,1.223 -0.669,2.609 -0.17,3.06 0.411,0.373 0.522,0.851 0.196,0.851 -1.033,0 -1.454,-2.263 -0.722,-3.878 0.533,-1.174 1.101,-1.735 1.101,-1.088 m 23.333,2.587 c 0,0.301 -1.227,2.462 -1.551,2.73 -0.595,0.494 -0.471,-0.212 0.246,-1.4 0.412,-0.683 0.749,-1.31 0.749,-1.393 0,-0.083 0.125,-0.15 0.278,-0.15 0.153,0 0.278,0.096 0.278,0.213 m -53.324,1.757 c -1.284,0.571 -1.256,0.524 -0.634,1.059 0.63,0.541 0.637,0.538 1.271,-0.544 0.617,-1.052 0.601,-1.065 -0.637,-0.515 m 58.137,1.687 c -0.003,1.544 -1.324,3.794 -1.894,3.225 -0.161,-0.161 -0.093,-0.339 0.276,-0.724 0.638,-0.666 1.064,-1.709 1.064,-2.603 0,-0.394 0.056,-0.772 0.124,-0.839 0.31,-0.311 0.432,-0.044 0.43,0.941 m 25.557,3.148 c 0,0.488 1.923,2.424 2.207,2.222 0.743,-0.53 1.537,-1.271 1.453,-1.356 -0.134,-0.134 -3.66,-0.969 -3.66,-0.866 m -108.703,18.044 c -0.662,0.833 -1.304,1.653 -1.426,1.823 -0.188,0.26 3.515,-0.333 4.982,-0.798 0.148,-0.047 -2.041,-2.541 -2.23,-2.541 -0.068,0 -0.664,0.682 -1.326,1.516 m 87.244,-0.568 c -0.097,0.242 -0.279,0.843 -0.405,1.335 -1.054,4.116 -6.735,7.401 -13.83,7.997 -1.744,0.147 -2.061,0.461 -0.463,0.46 7.121,-0.005 14.245,-4.374 14.965,-9.178 0.142,-0.947 -0.001,-1.277 -0.267,-0.614 m -26.596,3.172 c 0.515,3.23 3.992,6.065 7.441,6.065 1.265,0 0.932,-0.283 -0.617,-0.524 -3.227,-0.502 -5.868,-2.759 -6.286,-5.373 -0.065,-0.411 -0.242,-0.794 -0.391,-0.851 -0.225,-0.086 -0.251,0.034 -0.147,0.683 m 74.992,2.545 c -0.922,1.065 -1.55,1.939 -1.455,2.027 0.176,0.164 4.937,1.692 5.018,1.611 0.051,-0.051 -1.776,-5.345 -1.88,-5.449 -0.034,-0.034 -0.791,0.781 -1.683,1.811 m -110.27,14.413 c 0,0.288 0.532,2.059 1.183,3.935 1.757,5.07 2.706,9.398 2.706,12.349 0,1.308 0.166,2.267 0.393,2.267 0.928,0 -0.59,-8.627 -2.529,-14.375 -0.761,-2.253 -1.383,-4.232 -1.383,-4.398 0,-0.165 -0.083,-0.301 -0.185,-0.301 -0.102,0 -0.185,0.236 -0.185,0.523 m 89.567,0.079 c -1.907,2.542 -3.505,8.387 -4.006,14.657 -0.283,3.538 -0.256,5.112 0.087,5.112 0.232,0 0.278,-0.387 0.279,-2.361 0.004,-6.348 1.461,-12.86 3.712,-16.591 0.402,-0.667 0.731,-1.259 0.731,-1.316 0,-0.285 -0.401,-0.036 -0.803,0.499 m -5.308,25.823 c -17.059,7.515 -38.314,9.266 -60,4.941 -4.923,-0.982 -18.575,-4.506 -20.876,-5.389 -0.157,-0.061 -0.235,0.091 -0.235,0.459 0,0.634 -0.575,0.423 6.482,2.384 22.658,6.296 37.906,7.408 56.481,4.119 8.444,-1.496 20.917,-5.704 20.924,-7.059 0.003,-0.666 -0.053,-0.655 -2.776,0.545 m -2.778,30.377 c -22.285,7.573 -33.624,8.905 -53.888,6.331 -7.544,-0.959 -17.85,-3.23 -23.409,-5.16 -1.388,-0.482 -1.406,-0.48 -1.406,0.13 0,0.5 0.061,0.527 3.287,1.487 18.895,5.62 40.013,7.191 55.2,4.107 8.735,-1.774 27.268,-7.739 27.072,-8.713 l -0.096,-0.479 -6.76,2.297" />
      <path style="fill:#ece5dd;fill-opacity:1;fill-rule:evenodd;stroke:none" id="path3-1" d="m 172.0406,638.74558 c 0.178,0.046 0.47,0.046 0.648,0 0.178,-0.047 0.032,-0.085 -0.324,-0.085 -0.357,0 -0.502,0.038 -0.324,0.085 m -6.986,38.802 c -0.617,1.543 -0.05,3.122 2.303,6.408 1.81,2.529 2.318,3.489 1.998,3.778 -0.026,0.023 -3.917,0.085 -8.648,0.139 l -8.601,0.097 -0.033,1.587 c -0.019,0.872 -0.177,2.079 -0.352,2.681 -0.364,1.254 -0.01,0.906 -5.561,5.467 -5.099,4.191 -16.265,13.816 -19.444,16.762 -0.306,0.283 -0.974,0.896 -1.486,1.361 -15.114,13.743 -23.378,23.286 -23.738,27.41 -0.217,2.488 8.435,15.169 15.558,22.802 l 1.628,1.744 4.563,-0.93 4.564,-0.93 6.047,-10.206 6.047,-10.206 -0.944,-0.915 c -0.698,-0.676 -6.082,-5.221 -6.563,-5.54 -0.054,-0.036 20.271,-25.274 30.908,-38.378 3.554,-4.378 3.945,-4.709 6.286,-5.32 4.443,-1.159 6.829,-4.279 6.273,-8.205 -0.384,-2.708 -1.196,-3.732 -5.392,-6.794 -1.656,-1.208 -3.427,-2.511 -3.936,-2.894 -1.144,-0.862 -1.098,-0.865 -1.477,0.082 m 40.681,3.938 c -5.412,1.099 -6.885,1.942 -8.124,4.648 -1.871,4.086 0.194,7.633 5.333,9.163 3.047,0.906 -0.776,-3.504 30.403,35.074 1.813,2.244 4.084,5.054 5.046,6.243 2.044,2.527 1.988,2.322 0.869,3.225 -0.484,0.39 -1.796,1.466 -2.917,2.39 -1.12,0.924 -3.453,2.837 -5.185,4.25 -1.731,1.413 -3.523,2.929 -3.981,3.369 -0.459,0.44 -0.997,0.917 -1.197,1.061 -0.272,0.196 -0.314,0.325 -0.165,0.513 1.772,2.245 15.984,19.648 16.337,20.006 0.359,0.364 1.311,0.758 3.62,1.497 l 3.132,1.002 1.119,-1.312 c 0.615,-0.721 1.752,-2.02 2.527,-2.886 6.706,-7.491 15.516,-19.221 17.806,-23.705 1.494,-2.928 0.661,-5.309 -3.79,-10.832 -6.423,-7.968 -25.832,-25.986 -42.737,-39.672 -2.875,-2.327 -3.319,-3.192 -3.319,-6.462 v -1.177 l -8.565,-0.048 -8.565,-0.048 -0.058,-0.408 c -0.063,-0.445 0.934,-1.056 2.692,-1.652 2.134,-0.722 3.355,-1.392 3.642,-1.997 0.412,-0.868 0.613,-3.077 0.278,-3.057 -0.142,0.008 -2.032,0.375 -4.201,0.815 m -28.313,62.319 c -2.299,0.336 -5.55,1.674 -6.702,2.759 -1.02,0.959 -1.181,8.372 -0.28,12.792 1.374,6.735 4.375,8.844 10.648,7.482 1.471,-0.319 0.376,3.246 -1.146,3.729 -0.887,0.282 -0.031,0.767 3.06,1.733 5.553,1.736 8.798,1.28 13.588,-1.91 2.448,-1.629 2.441,-1.62 1.627,-2.335 -3.265,-2.867 -5.733,-9.755 -3.841,-10.72 2.688,-1.372 3.744,-3.734 2.157,-4.826 -0.456,-0.314 -1.818,-1.513 -3.025,-2.663 -5.286,-5.038 -10.235,-6.897 -16.086,-6.041" />
   </g>

</svg>
