<?xml version="1.0" encoding="UTF-8" standalone="no"?>
<svg xmlns:dc="http://purl.org/dc/elements/1.1/" xmlns:cc="http://creativecommons.org/ns#" xmlns:rdf="http://www.w3.org/1999/02/22-rdf-syntax-ns#" xmlns:svg="http://www.w3.org/2000/svg" xmlns="http://www.w3.org/2000/svg" viewBox="0 0 158.70717 250.05675" height="250.05675" width="158.70717" version="1.1" id="svg">
   <metadata id="metadata13">
      <rdf:RDF>
         <cc:Work rdf:about="">
            <dc:format>image/svg+xml</dc:format>
            <dc:type rdf:resource="http://purl.org/dc/dcmitype/StillImage" />
            <dc:title></dc:title>
         </cc:Work>
      </rdf:RDF>
   </metadata>
   <defs id="defs11" />
   <g transform="translate(-332.68673,205.0593)" id="g1315">
      <path style="fill:#ece5dd;fill-opacity:1;fill-rule:evenodd;stroke:none" d="m 401.46489,-193.01803 c -0.746,10.2 0.007,12.726 4.094,13.742 l 1.256,0.312 1.081,-0.539 c 0.594,-0.296 1.45,-0.879 1.902,-1.295 0.452,-0.417 0.861,-0.718 0.91,-0.669 0.212,0.212 -1.213,1.505 -2.281,2.069 -1.004,0.529 -1.126,0.648 -0.879,0.852 0.194,0.162 0.286,0.563 0.286,1.249 0,1.003 0.004,1.009 0.509,0.91 0.28,-0.055 1.014,-0.195 1.631,-0.31 0.711,-0.132 1.592,-0.492 2.407,-0.982 l 1.286,-0.774 -0.064,-3.237 -0.064,-3.237 0.676,-0.882 c 1.365,-1.78 1.719,-3.29 1.072,-4.579 -0.808,-1.614 -1.906,-1.11 -2.935,1.346 l -0.715,1.707 -0.127,-1.204 c -0.5,-4.744 -1.697,-5.881 -5.592,-5.311 -2.111,0.309 -2.992,0.216 -3.832,-0.405 l -0.503,-0.372 -0.118,1.609 m 6.935,2.916 c 0.708,0.678 0.577,0.774 -0.273,0.197 -0.372,-0.252 -0.923,-0.513 -1.225,-0.579 -0.838,-0.184 -0.655,-0.431 0.204,-0.274 0.43,0.078 0.985,0.36 1.294,0.656 m -5.508,0.131 c -0.311,0.33 -0.657,0.766 -0.769,0.97 -0.195,0.354 -0.204,0.351 -0.209,-0.071 -0.004,-0.272 0.251,-0.684 0.664,-1.074 0.832,-0.784 1.085,-0.643 0.314,0.175 m 11.361,1.029 c -0.219,0.242 -0.309,0.684 -0.311,1.529 -0.002,0.836 -0.056,1.107 -0.182,0.912 -0.099,-0.153 -0.184,-0.612 -0.189,-1.019 l -0.01,-0.741 -0.455,0.556 c -0.554,0.676 -0.598,0.456 -0.077,-0.387 0.374,-0.605 1.305,-1.415 1.455,-1.266 0.042,0.042 -0.062,0.229 -0.231,0.416 m -6.935,0.993 c -0.282,0.283 -0.491,0.074 -0.334,-0.335 0.092,-0.241 0.173,-0.265 0.337,-0.1 0.165,0.164 0.165,0.268 -0.003,0.435 m -3.836,-0.034 c 0,0.136 -0.104,0.282 -0.231,0.324 -0.138,0.046 -0.232,-0.085 -0.232,-0.324 0,-0.239 0.094,-0.37 0.232,-0.324 0.127,0.042 0.231,0.188 0.231,0.324 m 1.204,1.281 c 0,0.501 0.057,1.064 0.127,1.25 0.113,0.301 0.092,0.31 -0.192,0.08 -0.245,-0.199 -0.307,-0.492 -0.266,-1.25 0.067,-1.242 0.331,-1.306 0.331,-0.08 m 0.833,3.435 c 0.306,-0.001 0.743,-0.068 0.972,-0.149 0.257,-0.091 0.417,-0.075 0.417,0.043 0,0.376 -1.38,0.638 -2.103,0.399 -0.814,-0.269 -1.131,-0.645 -0.366,-0.435 0.288,0.079 0.775,0.143 1.08,0.142 m -36.641,12.23 c -0.167,0.166 -0.305,0.234 -0.306,0.151 -0.002,-0.084 -0.064,-0.059 -0.139,0.055 -0.075,0.115 -0.732,0.507 -1.46,0.873 l -1.325,0.665 -0.113,-0.451 c -0.24,-0.959 -1.635,-1.052 -2.674,-0.178 -0.496,0.417 -0.561,0.429 -0.793,0.149 -1.435,-1.735 -4.238,-1.292 -9.918,1.567 -3.968,1.997 -3.754,1.767 -3.758,4.041 -0.008,5.046 1.513,7.868 4.479,8.313 1.218,0.183 1.306,0.058 0.789,-1.111 -0.773,-1.749 -2.132,-7.984 -1.885,-8.649 0.126,-0.338 0.181,-0.142 0.864,3.092 0.323,1.528 0.851,3.632 1.174,4.676 0.659,2.13 0.653,2.125 2.162,1.53 l 0.934,-0.367 0.86,1.293 c 0.473,0.712 0.88,1.294 0.903,1.294 0.024,0 0.616,-0.216 1.316,-0.481 0.699,-0.264 1.719,-0.649 2.266,-0.855 0.547,-0.206 0.922,-0.427 0.834,-0.491 -0.222,-0.161 -2.661,-3.876 -2.661,-4.052 0,-0.274 1.272,-3.381 1.686,-4.117 0.428,-0.762 0.611,-0.887 0.814,-0.558 0.815,1.318 2.861,0.234 2.873,-1.522 0.008,-1.202 0.357,-0.837 2.937,3.072 l 2.627,3.98 0.642,-0.268 c 0.354,-0.148 0.644,-0.205 0.646,-0.127 0.001,0.078 0.064,0.052 0.138,-0.056 0.075,-0.109 0.816,-0.469 1.647,-0.801 l 1.51,-0.603 -3.239,-5.033 c -3.745,-5.818 -3.442,-5.42 -3.83,-5.031 m -5.667,3.087 c 0.189,1.001 -0.051,2.93 -0.365,2.93 -0.082,0 -0.11,-0.563 -0.063,-1.25 0.046,-0.687 -0.002,-1.621 -0.106,-2.073 -0.2,-0.864 -0.092,-1.374 0.185,-0.879 0.089,0.159 0.246,0.732 0.349,1.272 m -4.288,1.451 c 0.725,2.221 1.375,6.664 0.975,6.664 -0.107,0 -0.236,-0.271 -0.286,-0.602 -0.05,-0.331 -0.186,-1.257 -0.303,-2.058 -0.117,-0.802 -0.413,-2.286 -0.659,-3.299 -0.648,-2.678 -0.498,-3.066 0.273,-0.705 m -3.126,2.891 c 0.291,1.21 0.827,3.177 1.19,4.373 0.74,2.432 0.726,2.363 0.49,2.363 -0.351,0 -1.915,-4.9 -2.24,-7.017 -0.103,-0.673 -0.236,-1.474 -0.296,-1.779 -0.306,-1.56 0.387,0.106 0.856,2.06 m -12.732,3.575 c -0.534,0.295 -0.973,0.481 -0.975,0.413 -0.001,-0.067 -0.064,-0.03 -0.139,0.083 -0.074,0.114 -0.412,0.348 -0.751,0.521 -0.749,0.384 -1.106,-0.111 3.439,4.768 1.961,2.105 3.565,3.926 3.565,4.047 0,0.245 -0.082,0.269 2.365,-0.692 0.945,-0.371 1.645,-0.722 1.556,-0.78 -0.296,-0.195 -7.668,-8.431 -7.759,-8.668 -0.123,-0.32 -0.19,-0.304 -1.301,0.308 m 24.982,14.411 c -2.48,0.049 -2.827,0.093 -2.731,0.344 0.061,0.159 0.111,2.531 0.111,5.273 v 4.985 h 6.666 c 3.667,0 6.666,-0.062 6.666,-0.139 -0.001,-0.076 -0.166,-2.305 -0.368,-4.954 -0.201,-2.648 -0.367,-5.002 -0.369,-5.231 l -0.003,-0.417 -3.565,0.041 c -1.96,0.023 -4.843,0.067 -6.407,0.098 m -11.093,0.555 -3.75,0.055 10e-4,2.82 c 0,1.551 0.056,3.895 0.123,5.209 l 0.121,2.39 4.825,-0.13 c 2.653,-0.071 4.833,-0.146 4.844,-0.167 0.011,-0.021 -0.107,-2.35 -0.261,-5.176 l -0.28,-5.139 -0.936,0.042 c -0.515,0.023 -2.624,0.067 -4.687,0.096 m -12.453,0.612 c -1.375,0.073 -2.605,0.142 -2.732,0.154 -0.257,0.024 -0.341,14.223 -0.109,18.538 l 0.123,2.277 4.83,-0.133 c 2.657,-0.074 4.836,-0.148 4.843,-0.165 0.023,-0.059 -0.606,-20.772 -0.633,-20.819 -0.043,-0.077 -3.655,0.008 -6.322,0.148 m 31.25,1.016 c 1.172,0.261 0.049,0.429 -3.25,0.486 -3.128,0.053 -3.739,0.111 -4.166,0.391 -0.557,0.365 -0.683,0.167 -0.177,-0.278 0.775,-0.68 5.54,-1.057 7.593,-0.599 m -19.398,0.272 c 0.244,0.244 0.8,0.433 1.621,0.552 1.664,0.24 1.737,0.235 1.674,-0.112 -0.091,-0.5 0.468,-0.723 1.127,-0.45 1.974,0.818 -1.716,1.792 -3.783,0.998 -0.146,-0.055 -0.264,0.077 -0.301,0.337 -0.034,0.244 -0.212,0.458 -0.412,0.496 -0.313,0.06 -0.337,-0.014 -0.228,-0.697 0.096,-0.598 0.06,-0.788 -0.165,-0.875 -0.349,-0.133 -0.973,0.394 -1.051,0.888 -0.031,0.197 -0.14,0.334 -0.242,0.304 -0.316,-0.091 -0.105,-0.761 0.41,-1.299 0.586,-0.611 0.854,-0.639 1.35,-0.142 m -7.211,1.943 c 0.001,0.364 -4.334,0.627 -5.729,0.348 -1.254,-0.251 -0.454,-0.433 2.152,-0.491 3.524,-0.077 3.577,-0.075 3.577,0.143 m 23.044,1.914 c 0,1.797 -0.327,2.048 -0.466,0.358 l -0.095,-1.161 -0.258,0.787 c -0.248,0.756 -0.57,1.06 -0.57,0.537 0,-0.429 0.41,-1.494 0.707,-1.837 0.51,-0.59 0.682,-0.259 0.682,1.316 m -13.498,-0.613 c 0.314,0.314 0.448,0.626 0.409,0.951 -0.054,0.438 0.043,0.521 1.005,0.865 1.687,0.604 1.408,0.923 -0.328,0.376 -0.944,-0.297 -0.971,-0.295 -1.37,0.104 -0.466,0.466 -1.184,0.452 -1.275,-0.025 -0.041,-0.214 0.167,-0.424 0.644,-0.648 1.865,-0.879 0.563,-1.946 -1.421,-1.164 -1.467,0.578 -1.659,0.306 -0.231,-0.328 1.661,-0.737 1.947,-0.752 2.567,-0.131 m -10.959,0.624 c 0.165,0.267 -0.391,0.39 -1.751,0.39 -1.178,0 -1.637,-0.149 -1.349,-0.437 0.183,-0.183 2.985,-0.14 3.1,0.047 m 25.673,2.063 c 0.66,0.354 0.367,0.457 -1.309,0.461 -0.917,0.003 -1.666,-0.044 -1.666,-0.103 0,-0.422 2.331,-0.702 2.975,-0.358 m -26.864,0.344 c 0,0.224 -0.474,0.391 -1.111,0.391 -0.638,0 -1.112,-0.167 -1.112,-0.391 0,-0.091 0.5,-0.165 1.112,-0.165 0.611,0 1.111,0.074 1.111,0.165 m 2.09,2.634 c -0.222,0.222 -4.916,0.626 -5.348,0.461 -0.576,-0.221 -0.203,-0.467 0.804,-0.531 2.669,-0.167 4.749,-0.135 4.544,0.07 m 15.274,1.807 c -2.501,0.575 -1.444,2.269 2.664,4.266 1.289,0.627 2.436,1.252 2.55,1.389 0.172,0.207 0.39,0.175 1.268,-0.186 1.109,-0.456 1.709,-0.556 1.709,-0.285 0,0.154 -0.834,0.503 -2.253,0.944 -0.374,0.116 -1.212,0.614 -1.863,1.107 -2.438,1.845 -4.073,2.412 -8.013,2.776 -7.822,0.723 -8.132,0.776 -7.943,1.375 0.404,1.279 1.76,2.131 6.831,4.291 4.734,2.016 7.162,2.554 11.575,2.566 l 3.24,0.008 3.148,-1.085 c 1.732,-0.596 4.107,-1.565 5.278,-2.153 2.451,-1.229 3.011,-1.397 5.232,-1.572 1.922,-0.152 1.878,0.011 0.555,-2.09 -1.902,-3.021 -4.435,-6.142 -4.985,-6.142 -1.277,0 -9.803,-2.358 -12.283,-3.396 -3.808,-1.595 -5.579,-2.074 -6.71,-1.813 m -17.046,2.363 c 0.039,0.121 -0.192,0.24 -0.541,0.278 -0.821,0.091 -1.629,-0.013 -1.629,-0.209 0,-0.367 2.051,-0.431 2.17,-0.069 m 2.142,2.198 c -0.087,0.411 -6.009,0.679 -6.253,0.283 -0.172,-0.277 0.528,-0.373 3.144,-0.432 3.12,-0.071 3.156,-0.069 3.109,0.149 m 75.225,4.37 c -4.738,0.362 -12.992,1.422 -15.826,2.033 -1.738,0.375 -2.472,1.283 -4.327,5.356 -9.872,21.671 -18.049,40.137 -20.09,45.37 -0.218,0.56 -1.158,2.935 -2.088,5.278 -5.287,13.324 -5.15,12.478 -5.362,33.056 -0.141,13.606 -0.268,18.273 -0.664,24.444 -0.14,2.189 -0.038,2.316 2.181,2.695 2.104,0.36 4.48,1.004 4.645,1.261 0.075,0.116 0.138,1.461 0.139,2.988 0.002,1.528 0.059,5.091 0.126,7.917 l 0.122,5.139 h 5.711 5.711 l -0.001,-0.694 c -10e-4,-0.787 0.582,-12.902 0.622,-12.945 0.015,-0.016 2.443,0.38 5.397,0.879 2.954,0.499 5.85,0.908 6.435,0.908 h 1.065 v -0.98 c 0,-0.539 -0.162,-2.185 -0.36,-3.657 -0.375,-2.781 -0.621,-7.219 -0.934,-16.844 -0.197,-6.058 -0.235,-6.779 -0.654,-12.593 -0.843,-11.69 -0.249,-15.651 4.002,-26.698 2.577,-6.698 2.791,-7.33 4.163,-12.309 1.486,-5.395 2.118,-7.284 3.148,-9.402 l 0.801,-1.651 -1.48,-2.927 c -2.121,-4.194 -5.169,-8.657 -7.369,-10.793 -0.666,-0.647 -0.954,-0.778 -1.837,-0.834 -0.562,-0.036 0.045,-0.386 0.67,-0.386 1.611,-0.001 6.209,5.986 9.059,11.796 0.69,1.406 1.352,2.639 1.472,2.741 0.12,0.102 0.311,0.54 0.424,0.973 0.113,0.433 0.495,1.463 0.848,2.288 0.354,0.826 0.629,1.721 0.613,1.99 -0.036,0.604 0.902,3.04 8.143,21.138 8.932,22.324 12.401,31.488 19.14,50.556 3.41,9.649 3.059,9.085 4.174,6.71 1.067,-2.271 8.015,-11.511 8.911,-11.85 0.068,-0.025 1.678,2.584 3.578,5.798 l 3.455,5.845 4.646,-4.199 c 2.556,-2.31 4.646,-4.263 4.646,-4.342 0,-0.123 -6.562,-14.113 -7.029,-14.985 -0.127,-0.237 -0.027,-0.532 0.384,-1.139 2.374,-3.509 2.288,-4.122 -1.105,-7.83 -3.837,-4.194 -5.758,-8.609 -14.441,-33.179 -6.54,-18.509 -8.628,-24.36 -10.309,-28.885 -0.682,-1.833 -1.429,-3.875 -1.66,-4.537 -0.582,-1.665 -4.298,-11.423 -5.466,-14.352 -1.537,-3.857 -3.174,-7.492 -3.787,-8.409 l -0.568,-0.85 -3.519,-0.022 c -1.935,-0.012 -4.435,0.048 -5.555,0.133 m -67.315,3.448 c 4.932,2.145 5.727,2.284 9.444,1.651 1.563,-0.266 1.894,-0.256 1.562,0.046 -0.249,0.228 -3.713,0.763 -4.903,0.758 -1.545,-0.007 -2.425,-0.277 -5.256,-1.61 -1.433,-0.675 -2.977,-1.325 -3.43,-1.445 -0.453,-0.12 -0.856,-0.313 -0.895,-0.429 -0.124,-0.374 1.052,-0.026 3.478,1.029 m 3.546,2.988 c 2.226,0.775 5.082,0.936 8.26,0.465 1.277,-0.189 0.929,0.241 -0.371,0.457 -2.137,0.356 -3.92,0.432 -5.214,0.222 -1.403,-0.228 -5.295,-1.459 -5.295,-1.675 0,-0.184 1.351,0.089 2.62,0.531" id="path0" />
      <path style="fill:#757575;fill-opacity:1;fill-rule:evenodd;stroke:none" d="m 414.77789,-179.26403 c -2.53,1.809 -3.606,2.345 -5.381,2.676 -2.704,0.504 -2.682,0.487 -3.592,2.752 -1.351,3.36 -2.525,4.034 -8.434,4.835 -5.429,0.736 -7.639,2.553 -9.806,8.056 -1.246,3.166 -3.746,5.863 -9.5,10.249 -0.636,0.486 -1.157,0.899 -1.157,0.918 0,0.02 1.045,-0.038 2.321,-0.128 1.277,-0.089 2.354,-0.131 2.393,-0.092 0.039,0.039 0.206,3.484 0.37,7.655 0.165,4.171 0.324,7.607 0.353,7.636 0.386,0.387 7.064,-4.418 10.067,-7.243 l 1.472,-1.384 0.331,1.055 c 0.339,1.082 1.151,2.798 2.085,4.406 0.29,0.5 0.766,1.534 1.057,2.297 0.291,0.764 0.809,1.897 1.151,2.518 0.342,0.621 0.622,1.211 0.622,1.311 0,0.325 -9.973,3.255 -12.778,3.754 -2.384,0.425 -3.583,1.029 -2.709,1.364 0.59,0.226 3.576,4.265 4.929,6.667 1.038,1.842 0.896,1.806 6.5,1.604 4.986,-0.18 6.167,-0.414 10.21,-2.023 4.375,-1.742 16.119,-3.34 24.562,-3.342 2.057,-0.001 2.636,-0.053 2.559,-0.232 -0.055,-0.127 -0.515,-1.148 -1.021,-2.269 -1.285,-2.843 -2.539,-6.644 -3.273,-9.918 l -0.623,-2.782 0.977,-1.613 c 4.478,-7.39 6.473,-13.688 6.491,-20.502 0.021,-7.862 -1.438,-9.372 -13.694,-14.16 -4.054,-1.584 -4.272,-1.736 -4.435,-3.096 -0.273,-2.274 -0.243,-2.259 -2.047,-0.969 m 8.874,20.562 c -2.022,7.554 -8.569,15.886 -19.429,24.725 -2.042,1.662 -6.389,4.091 -6.389,3.57 0,-0.097 0.771,-0.547 1.713,-0.999 2.139,-1.027 4.089,-2.496 7.639,-5.754 9.938,-9.123 14.209,-14.865 16.027,-21.544 0.518,-1.903 0.52,-1.91 0.717,-1.788 0.1,0.061 -0.017,0.815 -0.278,1.79 m -28.53,0.295 c -0.069,0.276 -0.131,3.297 -0.137,6.713 -0.012,6.113 0.071,7.296 0.734,10.517 0.131,0.635 -0.184,0.873 -0.367,0.277 -1.076,-3.511 -1.296,-18.009 -0.273,-18.009 0.093,0 0.113,0.226 0.043,0.502 m -34.418,3.515 c -1.222,0.458 -3.373,1.257 -4.779,1.776 -1.406,0.519 -2.595,1.005 -2.641,1.079 -0.077,0.126 0.418,4.07 0.522,4.152 0.026,0.021 2.88,-0.198 6.343,-0.485 3.463,-0.288 6.521,-0.526 6.797,-0.531 0.497,-0.008 0.493,-0.018 -0.597,-1.536 -0.603,-0.84 -1.537,-2.381 -2.075,-3.423 -0.537,-1.043 -1.06,-1.889 -1.162,-1.88 -0.102,0.009 -1.185,0.391 -2.408,0.848 m 64.718,16.544 c -3.767,4.756 -12.695,12.495 -19.206,16.647 -2.519,1.607 -2.112,0.964 0.506,-0.797 5.771,-3.884 14.087,-11.148 18.096,-15.807 0.95,-1.103 1.474,-1.141 0.604,-0.043" id="path1" />
      <path style="fill:#757575;fill-opacity:1;fill-rule:evenodd;stroke:none" d="m 407.15689,-190.49103 c 0.392,0.14 0.924,0.449 1.183,0.687 0.442,0.407 0.458,0.409 0.266,0.04 -0.223,-0.43 -1.275,-1.002 -1.819,-0.989 -0.188,0.005 -0.022,0.123 0.37,0.262 m -4.674,0.57 c -0.316,0.36 -0.575,0.754 -0.575,0.876 0,0.122 0.209,-0.085 0.464,-0.46 0.255,-0.376 0.609,-0.767 0.787,-0.871 0.178,-0.104 0.228,-0.191 0.111,-0.194 -0.117,-0.003 -0.471,0.289 -0.787,0.649 m 11.119,1.282 c -0.423,0.458 -0.767,0.897 -0.766,0.976 10e-4,0.079 0.378,-0.265 0.838,-0.763 0.459,-0.499 0.804,-0.938 0.765,-0.976 -0.038,-0.039 -0.415,0.305 -0.837,0.763 m -10.49,0.471 c -0.074,0.119 -0.051,0.301 0.05,0.402 0.124,0.124 0.23,0.113 0.32,-0.032 0.074,-0.119 0.051,-0.301 -0.051,-0.402 -0.123,-0.124 -0.23,-0.113 -0.319,0.032 m 3.796,0.092 c 0,0.153 0.083,0.278 0.185,0.278 0.102,0 0.185,-0.125 0.185,-0.278 0,-0.152 -0.083,-0.277 -0.185,-0.277 -0.102,0 -0.185,0.125 -0.185,0.277 m 6.895,1.019 c 0,0.356 0.038,0.502 0.085,0.324 0.046,-0.178 0.046,-0.47 0,-0.648 -0.047,-0.178 -0.085,-0.033 -0.085,0.324 m -9.385,0.462 c -0.131,0.875 -0.042,1.207 0.325,1.202 0.151,-0.002 0.142,-0.053 -0.026,-0.159 -0.18,-0.115 -0.212,-0.388 -0.118,-1.016 0.071,-0.473 0.087,-0.859 0.036,-0.859 -0.051,0 -0.149,0.374 -0.217,0.832 m -13.899,2.049 c -8.002,1.084 -19.934,5.266 -26.352,9.235 -2.769,1.714 -3.351,2.532 -2.444,3.439 0.672,0.672 0.789,0.634 4.135,-1.341 9.402,-5.549 24.848,-9.882 31.307,-8.783 l 0.906,0.155 -0.129,-0.988 c -0.228,-1.749 -0.237,-1.763 -1.167,-1.89 -1.326,-0.182 -4.229,-0.101 -6.256,0.173 m 64.259,0.946 c -9.849,0.823 -19.593,2.97 -32.704,7.205 -1.266,0.409 -1.095,0.989 0.489,1.663 1.438,0.611 0.935,0.697 7.956,-1.359 11.989,-3.51 17.546,-4.544 26.624,-4.955 3.043,-0.138 3.515,-0.311 3.515,-1.29 0,-1.279 -1.595,-1.621 -5.88,-1.264 m -48.309,0.274 c -0.19,0.11 -0.759,0.161 -1.265,0.112 -0.538,-0.051 -0.817,-0.023 -0.673,0.069 0.4,0.253 1.721,0.185 2.11,-0.11 0.422,-0.319 0.324,-0.359 -0.172,-0.071 m -41.867,0.663 c -2.558,0.65 -9.731,7.47 -9.731,9.252 0,1.768 1.388,1.465 3.341,-0.728 2.008,-2.256 3.785,-3.825 5.826,-5.146 2.427,-1.571 2.591,-1.721 2.541,-2.32 -0.081,-0.986 -0.783,-1.361 -1.977,-1.058 m 45.204,1.955 c -0.392,0.386 -1.184,0.944 -1.759,1.241 -0.576,0.297 -0.982,0.544 -0.902,0.549 0.38,0.024 2.335,-1.143 2.898,-1.731 0.857,-0.892 0.66,-0.941 -0.237,-0.059 m 55.343,0.59 c -2.857,1.257 -4.775,1.744 -7.554,1.919 -2.978,0.188 -3.786,0.802 -2.745,2.088 1.625,2.006 13.91,-1.36 13.91,-3.812 0,-1.285 -1.008,-1.34 -3.611,-0.195 m -66.387,3.189 c 0.001,0.711 0.714,2.498 1.087,2.729 0.111,0.069 0.033,-0.27 -0.174,-0.753 -0.207,-0.482 -0.426,-1.239 -0.486,-1.681 -0.141,-1.023 -0.43,-1.223 -0.427,-0.295 m -1.585,2.689 c -0.373,1.698 -0.036,2.929 1.101,4.022 0.947,0.911 0.954,0.725 0.07,-2.088 -0.84,-2.674 -0.963,-2.879 -1.171,-1.934 m -25.249,1.923 c -1.263,0.546 -2.328,1.025 -2.369,1.066 -0.04,0.04 1.347,2.285 3.082,4.989 1.736,2.704 3.202,5.036 3.258,5.182 0.125,0.325 2.669,-0.55 2.673,-0.919 0.003,-0.221 -3.967,-10.653 -4.216,-11.08 -0.098,-0.168 -0.742,0.034 -2.428,0.762 m -5.546,2.327 c -0.442,0.203 -0.763,0.41 -0.712,0.46 0.05,0.05 0.495,-0.119 0.988,-0.376 1.064,-0.553 0.873,-0.612 -0.276,-0.084 m -3.618,1.451 c 0.072,0.459 0.126,1.417 0.121,2.13 -0.008,1.031 0.027,1.202 0.171,0.833 0.231,-0.59 0.094,-2.959 -0.2,-3.434 -0.185,-0.301 -0.201,-0.221 -0.092,0.471 m -4.554,0.556 c -0.002,0.051 0.239,1.056 0.537,2.234 0.297,1.178 0.647,2.991 0.776,4.028 0.13,1.037 0.303,1.886 0.385,1.886 0.183,0 0.198,0.261 -0.13,-2.234 -0.304,-2.308 -1.514,-6.875 -1.568,-5.914 m 7.771,1.219 c -0.006,2.091 -1.528,3.414 -2.747,2.388 l -0.555,-0.466 -0.376,0.528 c -0.206,0.29 -0.707,1.382 -1.112,2.426 l -0.736,1.898 1.302,2.022 c 0.716,1.112 1.371,2.022 1.457,2.022 0.085,0 1.945,-0.692 4.132,-1.537 l 3.977,-1.537 -2.671,-4.049 c -1.468,-2.228 -2.67,-3.89 -2.671,-3.695 m -11.029,0.911 c 0.054,0.203 0.227,1.113 0.385,2.021 0.237,1.364 1.81,6.677 2.056,6.945 0.286,0.312 0.17,-0.353 -0.306,-1.759 -0.308,-0.908 -0.857,-2.86 -1.221,-4.337 -0.364,-1.477 -0.741,-2.81 -0.837,-2.963 -0.137,-0.216 -0.154,-0.195 -0.077,0.093 m -3.03,1.18 c -0.045,1.435 1.53,7.541 2.137,8.284 0.279,0.341 0.283,0.341 0.159,-0.02 -0.07,-0.204 -0.286,-0.829 -0.479,-1.389 -0.194,-0.56 -0.679,-2.435 -1.078,-4.166 -0.399,-1.732 -0.732,-2.951 -0.739,-2.709 m -5.648,3.281 c -1.011,0.451 -1.874,0.855 -1.917,0.898 -0.119,0.119 7.784,8.807 8.011,8.807 0.109,0 0.365,-0.117 0.569,-0.259 0.204,-0.143 1.494,-0.693 2.866,-1.223 1.371,-0.529 2.522,-0.989 2.557,-1.022 0.077,-0.074 -1.43,-2.31 -1.557,-2.31 -0.051,0 -0.61,0.175 -1.243,0.39 -3.571,1.209 -6.119,-0.498 -6.936,-4.645 -0.161,-0.817 -0.342,-1.479 -0.403,-1.471 -0.06,0.009 -0.936,0.384 -1.947,0.835 m 77.303,1.77 c -0.793,3.079 -2.469,6.748 -4.334,9.492 -3.984,5.859 -15.562,17.014 -19.372,18.664 -1.408,0.61 -2.053,0.936 -1.986,1.003 0.347,0.347 4.61,-2.142 6.751,-3.943 8.112,-6.82 14.223,-13.618 16.734,-18.612 1.308,-2.601 2.82,-7.004 2.511,-7.313 -0.053,-0.053 -0.19,0.266 -0.304,0.709 m -84.548,1.34 c -0.708,0.305 -1.311,0.569 -1.34,0.587 -0.029,0.018 0.237,2.773 0.591,6.122 0.519,4.905 0.758,8.595 1.229,18.96 0.322,7.079 0.615,12.902 0.651,12.94 0.036,0.038 2.859,0.008 6.274,-0.068 l 6.208,-0.137 -0.367,-0.466 c -0.485,-0.616 -0.465,-1.13 0.05,-1.321 0.437,-0.161 0.795,-0.203 6.62,-0.762 5.277,-0.506 6.348,-0.841 8.889,-2.774 0.782,-0.596 1.705,-1.086 2.637,-1.401 0.788,-0.266 1.483,-0.564 1.543,-0.662 0.154,-0.249 -0.766,-0.02 -1.733,0.432 l -0.795,0.37 -0.738,-0.488 c -0.406,-0.269 -1.592,-0.889 -2.635,-1.377 -3.023,-1.415 -4.095,-2.636 -3.212,-3.662 0.938,-1.09 2.8,-0.793 7.577,1.211 2.791,1.171 6.699,2.271 11.739,3.306 0.445,0.091 0.471,-2.737 0.063,-6.715 -0.095,-0.916 -0.274,-4.864 -0.398,-8.771 l -0.227,-7.105 -1.011,0.119 c -0.556,0.065 -2.061,0.167 -3.345,0.226 -1.285,0.059 -4.085,0.263 -6.224,0.453 -6.481,0.575 -31.258,2.543 -31.341,2.488 -0.024,-0.016 1.874,-0.766 4.218,-1.668 2.344,-0.901 4.239,-1.702 4.211,-1.779 -0.028,-0.077 -1.432,-1.625 -3.119,-3.44 -1.688,-1.815 -3.441,-3.721 -3.897,-4.236 l -0.829,-0.935 -1.289,0.553 m 55.777,-0.118 c -0.239,1.121 -0.354,10.902 -0.15,12.732 0.268,2.406 0.775,5.111 0.939,5.01 0.071,-0.044 -0.029,-0.939 -0.223,-1.989 -0.413,-2.244 -0.683,-13.882 -0.358,-15.407 0.1,-0.47 0.119,-0.855 0.041,-0.855 -0.077,0 -0.19,0.229 -0.249,0.509 m -16.772,12.5 c 0.008,0.026 0.197,2.475 0.419,5.442 l 0.405,5.395 -6.632,0.137 c -3.647,0.075 -6.674,0.093 -6.726,0.041 -0.052,-0.052 -0.111,-2.499 -0.13,-5.439 l -0.036,-5.344 5.093,-0.097 c 2.8,-0.054 5.655,-0.116 6.342,-0.139 0.688,-0.023 1.257,-0.021 1.265,0.004 m -15.383,0.834 c 10e-4,0.076 0.124,2.139 0.275,4.583 0.15,2.444 0.274,4.757 0.275,5.139 l 0.003,0.694 h -4.994 -4.994 l -0.052,-5.178 -0.052,-5.177 1.203,-0.064 c 2.504,-0.132 8.334,-0.13 8.336,0.003 m -11.6,3.426 c 0.327,8.786 0.511,17.779 0.369,17.911 -0.088,0.082 -2.341,0.187 -5.007,0.235 l -4.846,0.088 -0.064,-10.39 c -0.035,-5.715 -0.021,-10.447 0.031,-10.515 0.083,-0.107 5.116,-0.405 8.359,-0.495 l 1.04,-0.029 0.118,3.195 m 18.913,-1.71 c -1.072,0.165 -1.857,0.445 -2.03,0.726 -0.166,0.267 -0.075,0.25 0.659,-0.127 0.532,-0.274 1.154,-0.325 4.009,-0.325 1.859,0 3.38,-0.049 3.38,-0.11 0,-0.275 -4.497,-0.398 -6.018,-0.164 m -14.97,0.333 c -0.167,0.185 -0.347,0.622 -0.399,0.972 -0.091,0.607 -0.087,0.612 0.08,0.107 0.21,-0.636 0.718,-1.23 1.051,-1.23 0.392,0 0.693,0.715 0.433,1.028 -0.322,0.389 -0.074,0.938 0.288,0.637 0.152,-0.126 0.276,-0.347 0.276,-0.491 0,-0.257 0.15,-0.257 3.518,-0.01 0.916,0.067 1.294,-0.69 0.539,-1.08 -0.718,-0.372 -1.094,-0.237 -1.094,0.393 0,0.428 -0.058,0.475 -0.458,0.374 -0.253,-0.063 -0.964,-0.168 -1.583,-0.233 -0.824,-0.086 -1.172,-0.208 -1.307,-0.46 -0.235,-0.438 -0.95,-0.442 -1.344,-0.007 m -10.123,1.876 -1.944,0.102 1.193,0.125 c 1.369,0.143 4.413,-0.006 4.825,-0.236 0.298,-0.166 -0.805,-0.164 -4.074,0.009 m 26.423,1.035 c -0.171,0.36 -0.308,0.839 -0.304,1.065 0.007,0.333 0.412,-0.505 0.563,-1.164 0.062,-0.268 0.324,0.947 0.36,1.666 0.04,0.789 0.05,0.769 0.199,-0.37 0.246,-1.875 -0.19,-2.513 -0.818,-1.197 m -15.034,0.352 c -0.509,0.245 -0.818,0.452 -0.685,0.46 0.132,0.008 0.491,-0.115 0.797,-0.273 0.99,-0.512 2.098,-0.297 2.168,0.419 0.05,0.525 -0.018,0.627 -0.58,0.861 -0.743,0.311 -1.013,0.655 -0.676,0.863 0.293,0.181 0.71,0.046 1.198,-0.388 0.356,-0.317 0.411,-0.316 1.385,0.029 1.433,0.505 1.627,0.327 0.232,-0.213 -1.08,-0.419 -1.154,-0.486 -1.154,-1.038 0,-1.217 -1.062,-1.502 -2.685,-0.72 m -11.204,0.475 c -0.311,0.099 0.054,0.15 1.111,0.153 1.038,0.004 1.448,-0.048 1.204,-0.153 -0.46,-0.198 -1.698,-0.198 -2.315,0 m 78.321,2.628 c -4.937,5.232 -11.057,10.443 -16.992,14.468 -1.154,0.782 -2.014,1.422 -1.913,1.422 0.304,0 5.141,-3.261 7.48,-5.042 4.081,-3.108 9.257,-7.898 12.621,-11.68 2.102,-2.362 1.277,-1.788 -1.196,0.832 m -52.58,-0.3 c -0.463,0.278 -0.463,0.278 0.161,0.159 0.343,-0.065 1.118,-0.124 1.722,-0.129 0.649,-0.007 0.999,-0.073 0.857,-0.163 -0.401,-0.255 -2.244,-0.165 -2.74,0.133 m -26.435,0.187 c 0.059,0.06 0.497,0.108 0.972,0.108 0.475,0 0.913,-0.048 0.972,-0.108 0.06,-0.059 -0.378,-0.108 -0.972,-0.108 -0.594,0 -1.032,0.049 -0.972,0.108 m 1.092,2.499 c -2.593,0.165 -3.186,0.356 -1.105,0.356 1.977,0 4.226,-0.211 4.226,-0.397 0,-0.087 -0.188,-0.146 -0.417,-0.131 -0.229,0.015 -1.446,0.092 -2.704,0.172 m -0.583,4.245 c 0.366,0.236 1.798,0.236 1.944,0 0.072,-0.116 -0.321,-0.184 -1.053,-0.182 -0.823,0.002 -1.087,0.056 -0.891,0.182 m 0.093,2.213 c -2.065,0.095 -2.147,0.112 -1.147,0.244 1.197,0.157 4.51,-0.012 4.943,-0.254 0.295,-0.164 -0.002,-0.163 -3.796,0.01 m 9.766,7.125 c 0.381,0.149 1.84,0.812 3.244,1.474 3.544,1.671 5.419,1.869 9.119,0.96 1.383,-0.339 0.647,-0.345 -1.389,-0.01 -3.186,0.523 -4,0.379 -8.023,-1.416 -1.357,-0.606 -2.732,-1.141 -3.055,-1.19 -0.572,-0.086 -0.569,-0.081 0.104,0.182 m 3.108,3.029 c 0.037,1.169 11.477,2.302 11.477,1.136 0,-0.087 -0.104,-0.123 -0.231,-0.08 -2.328,0.784 -6.571,0.355 -11.019,-1.113 -0.127,-0.042 -0.229,-0.016 -0.227,0.057 m 49.903,18.929 c -0.299,0.129 -0.239,0.162 0.309,0.172 2.063,0.04 7.513,8.352 11.204,17.091 1.119,2.649 1.814,3.33 0.79,0.774 -0.322,-0.804 -0.738,-1.898 -0.924,-2.43 -0.185,-0.533 -0.427,-1.074 -0.538,-1.204 -0.11,-0.13 -0.665,-1.194 -1.232,-2.366 -2.109,-4.353 -5.077,-8.712 -7.534,-11.064 -1.224,-1.172 -1.409,-1.259 -2.075,-0.973 m 69.789,89.123 c -0.419,0.532 -8.129,7.532 -9.419,8.553 -0.509,0.403 -0.988,0.782 -1.064,0.843 -0.076,0.061 0.12,1.687 0.437,3.615 l 0.575,3.504 -1.081,0.931 c -9.756,8.401 -15.741,15.238 -14.918,17.043 0.805,1.768 12.708,3.161 20.28,2.373 l 1.451,-0.151 6.02,-10.926 c 3.31,-6.01 6.146,-11.184 6.301,-11.5 l 0.282,-0.574 -4.073,-7.012 c -4.338,-7.466 -4.266,-7.365 -4.791,-6.699 m -96.551,23.805 c -2.721,5.785 -5.541,8.994 -14.478,16.472 -7.319,6.125 -8.675,7.868 -6.954,8.945 1.015,0.636 9.262,0.432 14.398,-0.355 6.484,-0.995 23.116,-4.217 23.468,-4.547 0.024,-0.022 -0.204,-4.868 -0.506,-10.769 -0.302,-5.901 -0.551,-10.979 -0.552,-11.285 l -0.002,-0.555 h -7.195 -7.194 l -0.985,2.094" id="path2" />
      <path style="fill:#757575;fill-opacity:1;fill-rule:evenodd;stroke:none" d="m 404.87389,-199.63503 c -1.133,0.513 -2.687,1.714 -3.079,2.378 -0.178,0.3 -0.515,0.595 -0.75,0.654 -3.038,0.762 -4.627,6.045 -3.503,11.644 0.577,2.875 0.586,3.507 0.091,6.714 l -0.386,2.503 0.941,2.966 c 0.518,1.631 0.942,3.085 0.942,3.231 0,0.345 0.103,0.338 1.77,-0.119 3.081,-0.846 3.722,-1.309 4.516,-3.267 1.138,-2.809 1.174,-2.871 1.81,-3.136 1.483,-0.62 0.693,-2.646 -1.181,-3.03 -3.146,-0.645 -4.484,-2.247 -4.894,-5.858 -0.206,-1.815 -0.182,-2.57 0.233,-7.231 l 0.218,-2.443 0.57,0.406 c 0.638,0.455 2.051,0.524 4.841,0.234 2.886,-0.299 4.402,1.538 4.552,5.516 0.042,1.104 0.183,0.979 0.799,-0.71 0.779,-2.136 1.808,-2.705 2.787,-1.541 0.972,1.155 0.58,2.982 -1.143,5.334 -0.473,0.646 -0.474,0.655 -0.378,3.578 0.115,3.496 0.01,3.338 1.502,2.274 1.414,-1.009 1.471,-0.973 1.687,1.056 0.158,1.481 0.118,1.444 2.881,2.644 1.799,0.781 2.349,0.974 1.92,0.676 -0.108,-0.075 -0.581,-1.761 -1.05,-3.747 l -0.855,-3.611 -0.089,-4.167 c -0.183,-8.442 -1.614,-10.737 -7.952,-12.757 -2.316,-0.738 -5.403,-0.825 -6.8,-0.191 m -1.949,9.433 c -0.064,0.103 -0.188,0.144 -0.276,0.089 -0.088,-0.054 -0.209,-0.019 -0.268,0.077 -0.22,0.356 0.229,0.365 0.549,0.012 0.183,-0.202 0.282,-0.366 0.221,-0.366 -0.06,0 -0.162,0.084 -0.226,0.188 m 10.783,2.095 c -0.073,0.187 -0.128,0.52 -0.122,0.741 0.012,0.381 0.021,0.378 0.192,-0.05 0.1,-0.248 0.154,-0.581 0.122,-0.741 -0.048,-0.238 -0.082,-0.229 -0.192,0.05 m -4.126,7.55 c -0.16,0.259 0.244,0.352 0.45,0.103 0.154,-0.185 0.134,-0.245 -0.08,-0.245 -0.155,0 -0.322,0.064 -0.37,0.142 m -10.54,3.073 c 0.153,0.937 0.446,2.095 0.651,2.573 0.258,0.603 0.292,0.803 0.111,0.653 -0.674,-0.559 -1.076,-2.068 -1.137,-4.261 -0.033,-1.182 -0.025,-1.816 0.019,-1.408 0.043,0.407 0.203,1.507 0.356,2.443 m -4.103,21.445 c 0,1.019 0.031,1.412 0.069,0.874 0.037,-0.538 0.037,-1.372 -10e-4,-1.852 -0.038,-0.48 -0.069,-0.04 -0.068,0.978 m -0.381,0.371 c 0.001,0.611 0.036,0.839 0.077,0.506 0.041,-0.333 0.04,-0.833 -0.002,-1.111 -0.042,-0.279 -0.076,-0.006 -0.075,0.605 m -0.178,5.648 c 0,0.866 0.032,1.22 0.071,0.787 0.039,-0.433 0.039,-1.141 0,-1.574 -0.039,-0.433 -0.071,-0.079 -0.071,0.787 m -17.055,0.313 c 0.178,0.046 0.47,0.046 0.648,0 0.178,-0.047 0.032,-0.085 -0.324,-0.085 -0.357,0 -0.503,0.038 -0.324,0.085 m -18.334,1.481 c 0.179,0.047 0.47,0.047 0.648,0 0.179,-0.046 0.033,-0.084 -0.324,-0.084 -0.356,0 -0.502,0.038 -0.324,0.084 m 35.923,1.539 c 0,0.357 0.038,0.503 0.085,0.324 0.046,-0.178 0.046,-0.469 0,-0.648 -0.047,-0.178 -0.085,-0.032 -0.085,0.324 m -13.134,0.648 c 10e-4,0.612 0.036,0.839 0.077,0.506 0.041,-0.332 0.04,-0.832 -0.002,-1.111 -0.042,-0.278 -0.076,-0.006 -0.075,0.605 m -5.848,0.227 c 0.328,0.041 0.912,0.041 1.296,0.001 0.384,-0.04 0.115,-0.073 -0.598,-0.074 -0.713,-0.001 -1.027,0.032 -0.698,0.073 m -9.996,0.185 c 0.331,0.041 0.872,0.041 1.203,0 0.332,-0.041 0.061,-0.074 -0.601,-0.074 -0.662,0 -0.933,0.033 -0.602,0.074 m -10.004,0.555 c 0.328,0.041 0.912,0.042 1.296,0.002 0.384,-0.04 0.115,-0.074 -0.598,-0.074 -0.713,-0.001 -1.027,0.032 -0.698,0.072 m 58.65,0.654 -0.544,0.602 0.601,-0.544 c 0.561,-0.507 0.687,-0.66 0.544,-0.66 -0.031,0 -0.302,0.271 -0.601,0.602 m -65.591,-0.289 c 0.179,0.046 0.47,0.046 0.648,0 0.179,-0.047 0.033,-0.085 -0.324,-0.085 -0.356,0 -0.502,0.038 -0.324,0.085 m -7.581,1.446 c 10e-4,0.611 0.035,0.839 0.077,0.506 0.041,-0.333 0.04,-0.833 -0.002,-1.111 -0.042,-0.278 -0.076,-0.006 -0.075,0.605 m 32.121,0.224 c 0.23,0.044 0.563,0.042 0.74,-0.004 0.177,-0.046 -0.011,-0.083 -0.419,-0.08 -0.407,0.002 -0.552,0.04 -0.321,0.084 m 39.118,1.258 c -0.759,0.764 -1.338,1.389 -1.287,1.389 0.051,0 0.713,-0.625 1.472,-1.389 0.759,-0.764 1.338,-1.389 1.287,-1.389 -0.051,0 -0.713,0.625 -1.472,1.389 m -53.378,-0.147 c 0.231,0.044 0.564,0.043 0.741,-0.004 0.177,-0.046 -0.011,-0.082 -0.419,-0.08 -0.407,0.002 -0.552,0.04 -0.322,0.084 m 22.694,0.887 c 10e-4,0.612 0.036,0.839 0.077,0.506 0.041,-0.332 0.041,-0.832 -0.002,-1.111 -0.042,-0.278 -0.076,-0.006 -0.075,0.605 m -36.212,-0.146 c 0.23,0.044 0.563,0.042 0.74,-0.004 0.178,-0.046 -0.011,-0.083 -0.418,-0.081 -0.408,0.002 -0.553,0.04 -0.322,0.085 m 5.282,0.702 c 10e-4,0.509 0.037,0.696 0.08,0.414 0.043,-0.281 0.041,-0.698 -0.003,-0.926 -0.044,-0.228 -0.078,0.003 -0.077,0.512 m 14.272,0.741 c 0,0.916 0.031,1.315 0.07,0.885 0.038,-0.43 0.039,-1.18 10e-4,-1.667 -0.039,-0.487 -0.07,-0.135 -0.071,0.782 m 44.194,0.37 c -0.45,0.458 -0.777,0.833 -0.726,0.833 0.051,0 0.461,-0.375 0.911,-0.833 0.45,-0.458 0.776,-0.833 0.725,-0.833 -0.051,0 -0.461,0.375 -0.91,0.833 m -37.731,0.556 c 0.002,0.407 0.039,0.552 0.084,0.322 0.044,-0.231 0.042,-0.564 -0.004,-0.741 -0.046,-0.177 -0.083,0.011 -0.08,0.419 m 0.376,0.185 c 0.002,0.509 0.038,0.696 0.08,0.414 0.043,-0.281 0.041,-0.698 -0.002,-0.926 -0.044,-0.228 -0.079,0.003 -0.078,0.512 m 53.081,-0.139 -0.449,0.509 0.477,-0.418 c 0.262,-0.23 0.546,-0.355 0.632,-0.278 0.085,0.077 0.095,0.037 0.021,-0.091 -0.175,-0.304 -0.163,-0.309 -0.681,0.278 m -16.016,0.278 -0.544,0.602 0.602,-0.544 c 0.561,-0.507 0.687,-0.66 0.544,-0.66 -0.032,0 -0.303,0.271 -0.602,0.602 m -2.407,1.666 -0.544,0.602 0.602,-0.544 c 0.561,-0.507 0.687,-0.659 0.544,-0.659 -0.032,0 -0.303,0.27 -0.602,0.601 m -24.652,0.695 c 0,0.662 0.034,0.933 0.075,0.602 0.041,-0.331 0.041,-0.873 0,-1.204 -0.041,-0.331 -0.075,-0.06 -0.075,0.602 m 40.676,-0.046 -1.013,1.064 1.065,-1.012 c 0.989,-0.94 1.15,-1.117 1.012,-1.117 -0.029,0 -0.508,0.479 -1.064,1.065 m -77.864,-0.786 c 0.423,0.147 1.541,0.188 1.457,0.052 -0.05,-0.08 -0.44,-0.139 -0.867,-0.131 -0.426,0.008 -0.692,0.043 -0.59,0.079 m 77.954,1.249 -0.732,0.787 0.787,-0.732 c 0.732,-0.681 0.872,-0.842 0.732,-0.842 -0.03,0 -0.385,0.354 -0.787,0.787 m -55.603,0.832 c 0.886,0.034 2.386,0.034 3.334,0 0.947,-0.034 0.222,-0.061 -1.611,-0.061 -1.834,-0.001 -2.609,0.027 -1.723,0.061 m -16.095,0.881 c 0.002,0.509 0.038,0.695 0.08,0.414 0.043,-0.282 0.042,-0.699 -0.002,-0.926 -0.044,-0.228 -0.079,0.002 -0.078,0.512 m 68.924,0.509 -1.292,1.342 1.343,-1.291 c 1.247,-1.199 1.427,-1.394 1.291,-1.394 -0.028,0 -0.632,0.604 -1.342,1.343 m -73.375,-0.845 c 0.178,0.047 0.47,0.047 0.648,0 0.179,-0.046 0.033,-0.084 -0.324,-0.084 -0.356,0 -0.502,0.038 -0.324,0.084 m 72.262,2.511 -0.919,0.973 0.972,-0.919 c 0.535,-0.506 0.972,-0.943 0.972,-0.973 0,-0.138 -0.171,0.016 -1.025,0.919 m -67.626,4.491 c 0.002,0.509 0.038,0.696 0.08,0.414 0.043,-0.281 0.042,-0.698 -0.002,-0.926 -0.044,-0.227 -0.079,0.003 -0.078,0.512 m -5.559,-0.515 c 0.281,0.042 0.698,0.041 0.926,-0.003 0.227,-0.044 -0.003,-0.078 -0.512,-0.077 -0.509,0.001 -0.696,0.037 -0.414,0.08 m 4.259,4.259 c 0.281,0.043 0.698,0.042 0.926,-0.002 0.228,-0.044 -0.003,-0.079 -0.512,-0.078 -0.509,0.002 -0.696,0.038 -0.414,0.08 m -8.055,0.187 c 0.333,0.041 0.833,0.04 1.111,-0.002 0.279,-0.042 0.006,-0.076 -0.605,-0.075 -0.611,0.001 -0.839,0.035 -0.506,0.077 m 22.682,7.215 c 0.178,0.047 0.47,0.047 0.648,0 0.178,-0.046 0.033,-0.084 -0.324,-0.084 -0.356,0 -0.502,0.038 -0.324,0.084 m 44.398,17.708 c 0,0.032 0.271,0.303 0.602,0.602 l 0.602,0.544 -0.544,-0.602 c -0.507,-0.561 -0.66,-0.687 -0.66,-0.544 m -23.194,110.637 c 1.553,0.031 4.095,0.031 5.648,0 1.553,-0.031 0.282,-0.057 -2.824,-0.057 -3.107,0 -4.377,0.026 -2.824,0.057" id="path3" />
   </g>
</svg>
