<?xml version="1.0" encoding="UTF-8" standalone="no"?>
<svg xmlns:dc="http://purl.org/dc/elements/1.1/" xmlns:cc="http://creativecommons.org/ns#" xmlns:rdf="http://www.w3.org/1999/02/22-rdf-syntax-ns#" xmlns:svg="http://www.w3.org/2000/svg" xmlns="http://www.w3.org/2000/svg" viewBox="0 0 209.78072 285.32508" height="285.32507" width="209.78072" version="1.1" id="svg">
   <metadata id="metadata13">
      <rdf:RDF>
         <cc:Work rdf:about="">
            <dc:format>image/svg+xml</dc:format>
            <dc:type rdf:resource="http://purl.org/dc/dcmitype/StillImage" />
            <dc:title></dc:title>
         </cc:Work>
      </rdf:RDF>
   </metadata>
   <defs id="defs11" />
   <g transform="translate(-95.128266,-57.165903)" id="svgg-1">
      <path style="fill:#ece5dd;fill-opacity:1;fill-rule:evenodd;stroke:none" id="path0-94" d="m 286.481,64.078 c -12.396,1.282 -32.805,8.103 -34.897,11.663 -1.101,1.875 -0.087,9.609 2.764,21.083 1.943,7.817 2.772,8.525 8.798,7.52 2.372,-0.396 2.491,-0.348 2.668,1.076 0.588,4.743 1.094,8.217 1.215,8.343 0.342,0.358 4.76,-4.965 7.627,-9.192 2.151,-3.171 1.599,-2.826 6.455,-4.031 9.861,-2.448 14.741,-4.796 16.296,-7.843 1.335,-2.614 0.874,-9.277 -1.405,-20.342 -1.55,-7.527 -3.169,-8.934 -9.521,-8.277 m -3.687,10.881 c 3.251,1.698 3.625,6.792 0.921,12.562 -3.928,8.381 -10.484,9.419 -15.96,2.528 -4.472,-5.627 -4.243,-11.367 0.508,-12.749 1.529,-0.444 4.917,0.406 5.522,1.386 0.214,0.345 0.382,0.236 1.19,-0.769 2.496,-3.104 5.421,-4.211 7.819,-2.958 m -65.089,16.384 c -0.572,0.895 -0.893,2.483 -0.989,4.89 l -0.097,2.437 -1.504,0.503 c -3.737,1.249 -7.757,0.654 -11.74,-1.741 l -1.48,-0.889 -0.093,2.793 c -0.148,4.432 -1.11,6.992 -3.56,9.482 -2.736,2.78 -4.228,3.018 -7.677,1.225 -4.15,-2.158 -6.208,-0.943 -6.199,3.661 0.007,3.426 1.448,5.324 4.903,6.459 4.908,1.612 5.279,7.363 0.745,11.543 l -1.257,1.16 1.399,1.854 c 5.452,7.222 10.087,8.778 16.534,5.548 2.77,-1.388 2.814,-1.43 2.668,-2.598 -0.186,-1.49 -0.147,-4.641 0.062,-5.032 0.112,-0.208 0.558,-0.433 1.118,-0.562 3.517,-0.812 7.033,-3.94 9.097,-8.095 2.4,-4.827 2.518,-9.284 0.455,-17.17 -1.764,-6.743 -1.822,-7.058 -1.836,-9.867 -0.012,-2.245 0.047,-2.783 0.433,-4.019 0.369,-1.177 0.405,-1.476 0.209,-1.713 -0.342,-0.411 -0.882,-0.352 -1.191,0.131 m -1.721,13.989 c 0.296,0.327 0.332,0.669 1.134,10.752 0.177,2.225 -3.061,3.544 -6.413,2.613 -1.864,-0.518 -0.909,-1.706 1.239,-1.541 0.984,0.075 1.864,0.034 2.498,-0.118 l 0.98,-0.236 -0.114,-1.688 c -0.063,-0.928 -0.257,-3.469 -0.431,-5.646 -0.309,-3.857 -0.309,-3.965 0.031,-4.213 0.464,-0.34 0.715,-0.321 1.076,0.077 m 39.664,19.789 c -3.319,0.695 -11.03,3.144 -10.956,3.48 0.047,0.209 0.488,2.873 0.981,5.919 l 0.896,5.539 0.558,0.342 c 1.619,0.994 8.199,2.933 8.458,2.492 0.337,-0.574 0.754,-3.512 0.902,-6.355 0.171,-3.268 0.36,-4.12 1.05,-4.734 0.401,-0.357 0.397,-0.43 -0.234,-4.397 -0.416,-2.609 -0.376,-2.554 -1.655,-2.286 m -78.681,6.833 c -5.581,0.76 -13.433,3.583 -23.325,8.385 -29.607,14.373 -45.53,33.033 -50.753,59.477 -2.931,14.838 -0.012,22.068 9.771,24.205 8.154,1.781 12.416,-1.184 21.049,-14.643 9.975,-15.55 14.264,-20.847 20.714,-25.582 12.94,-9.497 19.018,1.284 12.307,21.831 -1.147,3.511 -1.647,4.614 -5.174,11.41 -5.807,11.189 -6.669,13.788 -5.412,16.304 4.595,9.195 31.053,15.562 53.844,12.957 16.2,-1.852 27.58,-6.631 30.631,-12.863 1.926,-3.934 1.396,-6.921 -2.742,-15.444 -4.28,-8.814 -4.602,-11.026 -2.688,-18.454 0.5,-1.939 0.89,-3.125 3.5,-10.648 3.583,-10.325 2.481,-17.191 -4.553,-28.376 -1.07,-1.703 -1.143,-2.064 -0.499,-2.49 1.47,-0.975 7.448,10.845 8.525,16.857 0.888,4.958 0.249,8.841 -2.867,17.435 -3.732,10.289 -4.369,14.931 -2.365,17.214 8.204,9.344 21.138,8.188 28.912,-2.585 8.692,-12.044 10.285,-36.241 3.026,-45.964 -2.49,-3.335 -8.703,-2.395 -15.776,2.387 -5.989,4.049 -7.351,7.412 -7.352,18.153 -0.001,8.923 -0.775,14.036 -2.127,14.036 -0.731,0 -0.893,-0.556 -0.55,-1.883 0.574,-2.213 0.812,-5.082 0.919,-11.08 0.201,-11.211 1.042,-14.36 4.796,-17.953 0.845,-0.809 0.884,-0.624 -0.6,-2.841 -4.072,-6.085 -5.795,-10.095 -5.84,-13.585 l -0.023,-1.879 -1.618,-1.044 c -6.749,-4.358 -14.352,-7.22 -21.623,-8.139 -2.687,-0.34 -6.823,-0.562 -7.54,-0.404 l -0.546,0.12 0.169,1.116 c 0.22,1.452 0.195,1.497 -1.353,2.499 -8.494,5.495 -14.178,4.068 -21.481,-5.392 -2.442,-3.164 -5.321,-3.959 -11.356,-3.137 m 81.589,1.321 c -0.095,0.185 -0.23,1.538 -0.3,3.006 -0.207,4.342 -1.025,8.123 -1.836,8.485 -0.755,0.337 -6.37,-1.145 -8.992,-2.372 -2.199,-1.029 -2.524,-0.83 -3.098,1.899 -0.897,4.264 0.12,8.311 3.471,13.805 0.609,0.999 2.83,4.396 3.037,4.644 0.025,0.031 0.827,-0.457 1.78,-1.084 3.144,-2.069 6.659,-3.588 9.674,-4.18 1.329,-0.261 1.592,-0.368 1.496,-0.61 -1.661,-4.167 -2.616,-8.918 -3.135,-15.61 -0.435,-5.599 -1.41,-9.314 -2.097,-7.983 M 104.074,222.41 c 0,1.019 -0.436,3.835 -1.29,8.331 -1.608,8.462 -1.467,12.817 0.569,17.613 1.429,3.366 4.288,6.461 5.969,6.461 h 0.546 l -0.109,-1.158 c -0.06,-0.636 -0.364,-2.199 -0.676,-3.472 -1.445,-5.901 -1.081,-8.61 1.561,-11.609 2.447,-2.778 4.356,-2.57 6.924,0.754 2.769,3.583 4.578,4.467 6.075,2.969 l 0.454,-0.453 -0.844,-0.966 c -1.982,-2.265 -2.618,-4.274 -2.771,-8.75 -0.107,-3.105 -0.255,-4.033 -0.87,-5.463 l -0.373,-0.867 -1.055,0.173 c -3.961,0.652 -9.688,-0.929 -13.268,-3.661 l -0.842,-0.643 v 0.741" />
      <path style="fill:#757575;fill-opacity:1;fill-rule:evenodd;stroke:none" id="path1-78" d="m 286.296,62.336 c -14.651,1.761 -33.577,8.322 -36.188,12.545 -1.313,2.124 -0.575,9.571 2,20.179 l 0.621,2.561 -0.485,-0.119 c -5.26,-1.283 -10.054,-6.018 -13.315,-13.15 -4.675,-10.225 -7.38,-12.834 -15.237,-14.694 -10.288,-2.436 -19.771,-1.33 -29.19,3.402 -2.956,1.485 -3.012,1.504 -3.982,1.366 -14.469,-2.058 -29.594,6.756 -33.199,19.349 -0.451,1.574 -0.607,2.359 -1.68,8.447 -1.259,7.154 -3.069,10.235 -10.819,18.426 -6.341,6.702 -8.195,9.275 -9.547,13.249 -1.288,3.786 -1.042,9.112 0.619,13.4 l 0.352,0.909 -2.336,1.671 c -15.804,11.304 -25.696,24.645 -30.644,41.327 -3.563,12.014 -4.104,21.834 -1.501,27.246 0.96,1.997 0.838,4.246 -0.64,11.741 -2.514,12.749 -0.21,22.311 6.207,25.763 3.729,2.006 4.96,-0.291 3.389,-6.324 -1.177,-4.522 -0.87,-7.282 1.083,-9.738 1.633,-2.054 2.493,-1.983 4.276,0.356 3.082,4.043 5.231,5.166 7.724,4.034 2.082,-0.946 2.487,-2.77 0.963,-4.338 -1.812,-1.865 -2.538,-4.085 -2.542,-7.776 -0.003,-2.502 -0.32,-4.545 -0.926,-5.957 l -0.35,-0.818 0.928,-0.309 c 3.68,-1.222 7.733,-5.927 15.067,-17.491 5.976,-9.422 9.238,-13.788 13.423,-17.963 10.926,-10.903 17.907,-9.903 17.356,2.488 -0.335,7.523 -2.308,13.715 -7.644,23.993 -7.213,13.894 -7.625,16.326 -3.502,20.708 l 1.375,1.461 -1.309,2.388 c -10.531,19.209 -27.299,61.129 -29.585,73.962 -2.016,11.316 0.407,19.674 6.23,21.485 13.904,4.326 28.495,-1.518 44.86,-17.966 10.728,-10.783 21.375,-18.023 35.278,-23.991 3.767,-1.616 4.63,-1.79 4.63,-0.93 0,0.527 -0.088,0.579 -3.056,1.806 -3.205,1.325 -10.668,4.915 -10.522,5.061 0.047,0.047 0.778,0.217 1.625,0.377 6.093,1.156 11.873,4.459 23.804,13.602 12.257,9.391 17.988,12.755 24.75,14.526 14.989,3.927 31.419,-6.01 32.767,-19.816 1.302,-13.333 -11.189,-34.769 -40.443,-69.403 -2.057,-2.436 -3.934,-4.668 -4.17,-4.96 l -0.43,-0.532 0.41,-1.065 c 1.379,-3.584 0.596,-7.439 -3.019,-14.861 -1.017,-2.088 -2.047,-4.233 -2.289,-4.766 l -0.439,-0.971 1.477,1.169 c 9.364,7.404 21.937,4.774 29.184,-6.104 8.065,-12.106 10.004,-34.393 3.936,-45.228 l -0.555,-0.992 1.362,-1.415 c 4.988,-5.183 6.171,-9.644 4.87,-18.36 -0.761,-5.096 -0.666,-6.366 0.798,-10.671 1.759,-5.175 1.785,-5.3 1.768,-8.681 -0.025,-5.031 -1.729,-9.641 -4.835,-13.079 -0.351,-0.389 -0.61,-0.776 -0.575,-0.86 0.035,-0.083 0.771,-1.206 1.637,-2.495 l 1.574,-2.342 2.408,-0.576 c 12.723,-3.043 18.097,-5.93 19.474,-10.462 0.853,-2.81 0.076,-11.012 -1.948,-20.556 -1.681,-7.925 -4.321,-10.079 -11.323,-9.238 m 5.317,1.767 c 1.038,0.262 1.983,1.177 2.778,2.693 2.141,4.08 4.654,20.733 3.692,24.459 -1.051,4.07 -5.645,6.591 -17.26,9.471 -4.662,1.156 -3.898,0.668 -6.07,3.877 -2.599,3.838 -7.187,9.471 -7.715,9.471 -0.188,0 -0.429,-1.401 -1.016,-5.92 -0.555,-4.27 -0.518,-4.205 -2.161,-3.824 -4.268,0.99 -6.987,0.319 -8.033,-1.982 -0.933,-2.05 -3.559,-13.297 -4.354,-18.644 -0.913,-6.146 -0.593,-8.025 1.636,-9.588 6.959,-4.882 32.502,-11.524 38.503,-10.013 m -12.118,10.622 c -1.642,0.45 -3.336,1.718 -4.609,3.453 -0.643,0.875 -0.686,0.9 -1.065,0.62 -6.125,-4.529 -11.513,1.044 -7.919,8.191 4.009,7.974 11.107,9.826 15.557,4.059 5.973,-7.743 4.721,-18.152 -1.964,-16.323 m -60.894,16.13 c 0.545,0.209 0.684,0.739 0.392,1.498 -1.209,3.144 -1.005,5.749 1.096,14.036 1.754,6.914 2.01,10.437 1.025,14.074 -1.593,5.882 -6.307,10.98 -10.962,11.853 l -0.679,0.127 -0.123,1.325 c -0.068,0.729 -0.033,2.116 0.078,3.084 l 0.201,1.759 -0.509,0.415 c -0.28,0.228 -1.342,0.826 -2.361,1.329 -6.613,3.266 -11.057,1.799 -16.62,-5.485 -1.715,-2.246 -1.744,-1.681 0.186,-3.667 3.331,-3.429 3.718,-6.412 1.228,-9.456 -0.695,-0.85 -0.874,-0.955 -2.956,-1.741 -3.22,-1.214 -4.958,-4.237 -4.344,-7.557 0.608,-3.288 2.613,-4.483 5.191,-3.095 0.662,0.356 1.662,0.877 2.223,1.156 5.02,2.505 10.817,-4.89 10.103,-12.888 -0.098,-1.089 -0.074,-1.33 0.119,-1.214 0.132,0.08 0.692,0.432 1.245,0.783 4.023,2.559 8.522,3.174 12.456,1.704 l 0.984,-0.368 -0.064,-1.347 c -0.112,-2.365 0.671,-5.81 1.419,-6.246 0.382,-0.223 0.317,-0.215 0.672,-0.079 m -3.749,14.654 c -0.095,0.192 -0.032,1.835 0.154,4.028 0.172,2.037 0.371,4.508 0.441,5.492 l 0.128,1.788 -0.704,0.247 c -0.421,0.147 -1.525,0.247 -2.741,0.249 l -2.037,0.002 -0.058,0.497 c -0.161,1.392 5.293,1.298 6.62,-0.115 l 0.413,-0.439 -0.303,-4.138 c -0.359,-4.899 -0.616,-7.539 -0.758,-7.768 -0.179,-0.29 -0.987,-0.18 -1.155,0.157 m 42.307,20.401 c 0.122,0.551 0.364,2.015 0.536,3.252 l 0.315,2.25 -0.474,0.511 c -0.587,0.634 -0.869,1.886 -0.871,3.873 -0.003,3.154 -0.735,7.353 -1.282,7.351 -2.245,-0.011 -8.783,-2.535 -8.977,-3.466 -0.381,-1.826 -1.79,-10.878 -1.742,-11.196 0.062,-0.414 1.626,-0.932 8.577,-2.841 3.679,-1.01 3.635,-1.013 3.918,0.266 m -73.125,6.037 c 2.104,0.495 2.867,1.072 4.778,3.609 6.622,8.792 13.547,10.248 21.44,4.51 l 0.9,-0.654 -0.131,-1.399 -0.132,-1.398 3.676,0.101 c 8.756,0.242 17.426,2.993 25.645,8.139 l 2.155,1.349 0.091,2.129 c 0.157,3.636 1.538,6.875 5.55,13.007 l 1.664,2.544 -1.27,1.364 c -3.459,3.714 -4.062,6.159 -4.327,17.53 -0.164,7.07 -0.315,8.866 -0.93,11.111 -0.26,0.948 -0.223,1.26 0.177,1.474 1.427,0.764 2.009,-2.579 2.238,-12.863 0.269,-12.05 1.101,-14.459 6.35,-18.396 7.336,-5.501 14.336,-6.781 17.086,-3.122 7.118,9.469 5.773,32.739 -2.623,45.355 -7.591,11.405 -21.13,12.857 -29.555,3.168 -1.835,-2.111 -1.455,-6.132 1.345,-14.227 4.014,-11.606 4.159,-12.181 4.14,-16.482 -0.025,-5.511 -1.744,-10.627 -5.918,-17.606 -1.745,-2.917 -2.163,-3.409 -2.644,-3.108 -0.59,0.37 -0.428,0.919 0.899,3.043 6.582,10.537 7.67,17.631 4.228,27.579 -0.617,1.782 -1.568,4.532 -2.115,6.111 -3.671,10.609 -3.521,13.288 1.31,23.333 4.325,8.992 4.739,11.859 2.303,15.959 -6.338,10.667 -36.464,16.034 -61.158,10.895 -12.108,-2.52 -20.796,-6.875 -23.112,-11.584 -1.334,-2.713 -0.819,-4.27 5.57,-16.844 4.389,-8.637 5.62,-11.877 6.854,-18.047 4.577,-22.873 -9.47,-24.229 -25.795,-2.489 -1.338,1.782 -3.85,5.55 -9.39,14.087 -8.344,12.857 -12.476,15.682 -20.517,14.025 -10.797,-2.224 -13.493,-10.455 -9.186,-28.039 5.853,-23.895 20.41,-40.729 47.018,-54.373 15.738,-8.07 26.854,-11.33 33.386,-9.791 m 75.79,2.84 c 0.432,1.391 0.805,4.084 1.093,7.898 0.367,4.852 1.214,9.238 2.413,12.5 0.319,0.866 0.621,1.701 0.672,1.855 0.073,0.222 -0.19,0.326 -1.26,0.497 -3.101,0.495 -6.85,2.064 -10.061,4.211 -0.999,0.668 -1.834,1.194 -1.855,1.169 -2.101,-2.562 -5.676,-9.17 -6.577,-12.158 -0.777,-2.576 -0.273,-7.429 0.908,-8.751 l 0.509,-0.57 1.163,0.588 c 2.914,1.471 9.33,3.109 9.778,2.497 0.698,-0.955 1.329,-4.419 1.512,-8.305 0.188,-4 0.757,-4.478 1.705,-1.431 m -152.878,88.72 c 3.067,1.755 6.336,2.523 10.105,2.372 l 2.33,-0.093 0.234,0.579 c 0.682,1.687 0.801,2.392 0.94,5.579 0.206,4.731 0.766,6.543 2.706,8.76 0.902,1.031 0.957,1.514 0.219,1.909 -1.922,1.029 -3.279,0.314 -5.935,-3.126 -2.582,-3.345 -4.308,-3.572 -6.76,-0.889 -2.517,2.754 -3.003,5.818 -1.736,10.939 1.365,5.515 1.225,6.201 -1.002,4.924 -3.805,-2.183 -6.43,-8.189 -6.441,-14.739 -0.006,-3.089 0.131,-4.203 1.186,-9.68 0.401,-2.08 0.817,-4.586 0.924,-5.569 0.108,-0.983 0.237,-2.061 0.287,-2.396 l 0.09,-0.608 0.716,0.612 c 0.393,0.337 1.355,0.979 2.137,1.426" />
      <path style="fill:#858484;fill-rule:evenodd;stroke:none" id="path2-4" d="m 216.541,96.667 c 0,0.662 0.033,0.933 0.074,0.602 0.042,-0.332 0.042,-0.873 0,-1.204 -0.041,-0.331 -0.074,-0.06 -0.074,0.602 m 43.505,8.09 c 0.179,0.047 0.47,0.047 0.648,0 0.179,-0.046 0.033,-0.084 -0.324,-0.084 -0.356,0 -0.502,0.038 -0.324,0.084 m -1.845,30.15 c 0.002,0.51 0.037,0.696 0.08,0.415 0.043,-0.282 0.041,-0.699 -0.002,-0.926 -0.044,-0.228 -0.079,0.002 -0.078,0.511 m -14.262,12.13 c 0,0.458 0.036,0.646 0.081,0.417 0.044,-0.229 0.044,-0.604 0,-0.834 -0.045,-0.229 -0.081,-0.041 -0.081,0.417 m 0,1.667 c 0,0.458 0.036,0.646 0.081,0.416 0.044,-0.229 0.044,-0.604 0,-0.833 -0.045,-0.229 -0.081,-0.042 -0.081,0.417 m 1.694,33.426 c 0,1.935 0.027,2.701 0.061,1.703 0.033,-0.998 0.033,-2.582 -10e-4,-3.519 -0.033,-0.936 -0.06,-0.12 -0.06,1.816 m -1.701,4.907 c 0,0.357 0.038,0.502 0.085,0.324 0.046,-0.178 0.046,-0.47 0,-0.648 -0.047,-0.178 -0.085,-0.032 -0.085,0.324 m -142.202,22.5 c 10e-4,0.815 0.033,1.125 0.072,0.69 0.04,-0.436 0.039,-1.103 -0.001,-1.482 -0.04,-0.379 -0.072,-0.023 -0.071,0.792 m 13.316,16.517 c 0.179,0.046 0.47,0.046 0.648,0 0.179,-0.047 0.033,-0.085 -0.324,-0.085 -0.356,0 -0.502,0.038 -0.324,0.085 m -6.855,18.576 c 0,0.356 0.038,0.502 0.085,0.324 0.046,-0.179 0.046,-0.47 0,-0.648 -0.047,-0.179 -0.085,-0.033 -0.085,0.324" />
      <path style="fill:#949494;fill-rule:evenodd;stroke:none" id="path3-50" d="m 269.215,77.168 c 0.23,0.044 0.564,0.043 0.741,-0.004 0.177,-0.046 -0.012,-0.082 -0.419,-0.08 -0.407,0.002 -0.552,0.04 -0.322,0.084 m 28.989,11.536 c 0,0.56 0.034,0.789 0.077,0.509 0.042,-0.28 0.042,-0.738 0,-1.019 -0.043,-0.28 -0.077,-0.05 -0.077,0.51 m -104.639,22.535 c 0.178,0.046 0.47,0.046 0.648,0 0.178,-0.047 0.032,-0.085 -0.324,-0.085 -0.357,0 -0.502,0.038 -0.324,0.085 m 27.959,3.576 c 0,0.356 0.039,0.502 0.085,0.324 0.047,-0.178 0.047,-0.47 0,-0.648 -0.046,-0.178 -0.085,-0.033 -0.085,0.324 m 0,2.037 c 0,0.356 0.039,0.502 0.085,0.324 0.047,-0.178 0.047,-0.47 0,-0.648 -0.046,-0.178 -0.085,-0.033 -0.085,0.324 m 35.013,18.704 c 0,0.56 0.035,0.789 0.077,0.509 0.043,-0.28 0.043,-0.739 0,-1.019 -0.042,-0.28 -0.077,-0.051 -0.077,0.51 m 1.654,0.74 c 0,0.357 0.038,0.503 0.085,0.324 0.046,-0.178 0.046,-0.47 0,-0.648 -0.047,-0.178 -0.085,-0.032 -0.085,0.324 m -43.515,0.498 c 0.178,0.047 0.47,0.047 0.648,0 0.178,-0.046 0.032,-0.084 -0.324,-0.084 -0.356,0 -0.502,0.038 -0.324,0.084 m -22.832,2.512 c 0.768,0.817 0.934,0.964 0.934,0.825 0,-0.03 -0.396,-0.425 -0.88,-0.879 l -0.879,-0.826 0.825,0.88 m 8.575,4.345 c 0.282,0.043 0.698,0.042 0.926,-0.002 0.228,-0.044 -0.002,-0.079 -0.512,-0.078 -0.509,0.002 -0.695,0.038 -0.414,0.08 m 41.862,4.312 c 0,0.662 0.034,0.933 0.075,0.602 0.041,-0.331 0.041,-0.873 0,-1.204 -0.041,-0.331 -0.075,-0.06 -0.075,0.602 m -119.139,13.102 -1.012,1.065 1.064,-1.013 c 0.99,-0.94 1.15,-1.117 1.013,-1.117 -0.029,0 -0.508,0.479 -1.065,1.065 m 119.323,17.731 c 0.001,0.611 0.035,0.839 0.077,0.506 0.041,-0.333 0.04,-0.833 -0.002,-1.111 -0.043,-0.278 -0.076,-0.006 -0.075,0.605 m 1.485,6.482 c 0,0.713 0.034,0.982 0.074,0.597 0.04,-0.384 0.039,-0.967 -0.001,-1.296 -0.041,-0.329 -0.074,-0.014 -0.073,0.699 m 1.656,1.018 c 0,0.459 0.036,0.646 0.08,0.417 0.044,-0.229 0.044,-0.604 0,-0.833 -0.044,-0.23 -0.08,-0.042 -0.08,0.416 m -49.446,60.689 c 0.281,0.042 0.698,0.041 0.926,-0.003 0.228,-0.044 -0.003,-0.079 -0.512,-0.077 -0.509,0.001 -0.696,0.037 -0.414,0.08 m 5.648,-0.002 c 0.23,0.044 0.563,0.042 0.74,-0.004 0.178,-0.046 -0.011,-0.083 -0.418,-0.08 -0.408,0.002 -0.553,0.04 -0.322,0.084" />
      <path style="fill:#595956;fill-rule:evenodd;stroke:none" id="path4-3" d="m 250.981,78.519 c 0,0.56 0.035,0.789 0.078,0.509 0.042,-0.28 0.042,-0.739 0,-1.019 -0.043,-0.28 -0.078,-0.051 -0.078,0.51 m 17.538,12.465 c 0,0.032 0.27,0.303 0.601,0.602 l 0.602,0.544 -0.544,-0.602 c -0.507,-0.561 -0.659,-0.687 -0.659,-0.544 m 6.435,3.591 c 0.229,0.044 0.604,0.044 0.833,0 0.229,-0.044 0.042,-0.08 -0.417,-0.08 -0.458,0 -0.645,0.036 -0.416,0.08 m -7.278,18.805 -0.732,0.787 0.787,-0.732 c 0.732,-0.681 0.873,-0.842 0.733,-0.842 -0.031,0 -0.385,0.354 -0.788,0.787 m -83.559,0.139 c 0,0.356 0.038,0.502 0.085,0.324 0.046,-0.179 0.046,-0.47 0,-0.649 -0.047,-0.178 -0.085,-0.032 -0.085,0.325 m 28.429,3.834 c 0.229,0.044 0.604,0.044 0.834,0 0.229,-0.044 0.041,-0.08 -0.417,-0.08 -0.458,0 -0.646,0.036 -0.417,0.08 m -22.277,13.99 -0.732,0.787 0.787,-0.732 c 0.732,-0.681 0.872,-0.842 0.732,-0.842 -0.03,0 -0.384,0.354 -0.787,0.787 m -10.315,0.272 c 0.331,0.042 0.872,0.042 1.203,0 0.331,-0.041 0.061,-0.074 -0.601,-0.074 -0.662,0 -0.933,0.033 -0.602,0.074 m 12.916,6.533 c 0.398,0.408 0.765,0.741 0.816,0.741 0.051,0 -0.233,-0.333 -0.63,-0.741 -0.398,-0.407 -0.765,-0.741 -0.816,-0.741 -0.051,0 0.233,0.334 0.63,0.741 m -67.88,21.065 -0.638,0.694 0.694,-0.638 c 0.647,-0.594 0.78,-0.75 0.638,-0.75 -0.03,0 -0.343,0.312 -0.694,0.694 m -3.61,3.611 -0.732,0.787 0.787,-0.732 c 0.732,-0.681 0.872,-0.842 0.732,-0.842 -0.03,0 -0.384,0.354 -0.787,0.787 m 128.335,3.148 -0.919,0.972 0.973,-0.919 c 0.534,-0.505 0.972,-0.942 0.972,-0.972 0,-0.138 -0.172,0.016 -1.026,0.919 m -5.598,11.435 c 0,0.357 0.038,0.503 0.085,0.324 0.046,-0.178 0.046,-0.469 0,-0.648 -0.047,-0.178 -0.085,-0.032 -0.085,0.324 m -3.333,0.556 c 0,0.356 0.038,0.502 0.084,0.324 0.047,-0.178 0.047,-0.47 0,-0.648 -0.046,-0.178 -0.084,-0.033 -0.084,0.324 m 4.818,0.093 c 0.002,0.407 0.04,0.552 0.085,0.321 0.044,-0.23 0.042,-0.563 -0.004,-0.74 -0.047,-0.177 -0.083,0.011 -0.081,0.419 m -4.818,1.759 c 0,0.356 0.038,0.502 0.084,0.324 0.047,-0.178 0.047,-0.47 0,-0.648 -0.046,-0.178 -0.084,-0.033 -0.084,0.324 m -91.808,8.75 -1.106,1.157 1.158,-1.105 c 0.636,-0.608 1.157,-1.129 1.157,-1.157 0,-0.137 -0.183,0.03 -1.209,1.105 m 86.635,17.916 c 0,0.561 0.035,0.79 0.077,0.51 0.043,-0.28 0.043,-0.739 0,-1.019 -0.042,-0.28 -0.077,-0.051 -0.077,0.509 m -110.342,14.306 -0.732,0.787 0.787,-0.732 c 0.732,-0.681 0.872,-0.842 0.732,-0.842 -0.03,0 -0.384,0.354 -0.787,0.787 m 32.601,15.139 c 0.398,0.407 0.765,0.741 0.816,0.741 0.051,0 -0.233,-0.334 -0.63,-0.741 -0.398,-0.407 -0.765,-0.741 -0.816,-0.741 -0.051,0 0.233,0.334 0.63,0.741 m -56.324,3.704 c 0,0.865 0.032,1.22 0.071,0.787 0.039,-0.433 0.039,-1.142 0,-1.574 -0.039,-0.433 -0.071,-0.079 -0.071,0.787 m 8.312,14.444 c 0,0.357 0.038,0.502 0.084,0.324 0.047,-0.178 0.047,-0.47 0,-0.648 -0.046,-0.178 -0.084,-0.032 -0.084,0.324" />
   </g>
</svg>
