<?xml version="1.0" encoding="UTF-8" standalone="no"?>
<svg xmlns:dc="http://purl.org/dc/elements/1.1/" xmlns:cc="http://creativecommons.org/ns#" xmlns:rdf="http://www.w3.org/1999/02/22-rdf-syntax-ns#" xmlns:svg="http://www.w3.org/2000/svg" xmlns="http://www.w3.org/2000/svg" viewBox="0 0 138.84252 304.59182" height="304.59183" width="138.84251" version="1.1" id="svg">
   <metadata id="metadata13">
      <rdf:RDF>
         <cc:Work rdf:about="">
            <dc:format>image/svg+xml</dc:format>
            <dc:type rdf:resource="http://purl.org/dc/dcmitype/StillImage" />
            <dc:title></dc:title>
         </cc:Work>
      </rdf:RDF>
   </metadata>
   <defs id="defs11" />
   <g transform="translate(-277.59692,-319.34238)" style="display:inline" id="layer1">
      <g transform="translate(69.512192,71.909164)" id="g5175" style="display:inline">
         <g id="svgg-10" transform="translate(57.112071,217.02168)">
            <path d="m 187.037,94.93 c -9.046,0.652 -14.444,3.382 -14.444,7.304 0,0.593 -0.082,1.128 -0.181,1.189 -1.347,0.833 -0.289,4.352 1.487,4.944 0.209,0.07 0.189,0.187 -0.107,0.602 -2.176,3.058 -1.413,4.55 2.603,5.089 5.3,0.712 10.795,-1.269 16.535,-5.959 1.016,-0.83 1.42,-1.067 1.486,-0.87 0.548,1.645 2.242,4.442 3.379,5.579 1.444,1.444 1.519,1.472 1.839,0.7 1.608,-3.883 5.687,-2.432 4.334,1.541 -0.516,1.514 -3.012,3.655 -4.26,3.655 -0.205,0 -0.585,1.334 -1.101,3.865 l -0.128,0.625 0.789,-0.44 c 8.587,-4.787 10.225,-24.341 2.179,-26.014 -0.643,-0.133 -1.76,-0.452 -2.482,-0.708 -2.385,-0.846 -8.125,-1.376 -11.928,-1.102 m -5.668,20.147 c -0.225,0.587 0.011,1.311 0.447,1.372 0.802,0.114 1.305,-0.847 0.74,-1.412 -0.306,-0.305 -1.064,-0.28 -1.187,0.04 m 10.52,-0.04 c -0.565,0.565 -0.062,1.526 0.738,1.412 0.462,-0.065 0.618,-0.483 0.441,-1.186 -0.123,-0.493 -0.785,-0.62 -1.179,-0.226 m -6.333,1.326 c 0,0.037 -0.209,1.09 -0.463,2.341 -0.255,1.25 -0.463,2.383 -0.463,2.518 0,0.541 2.191,0.825 2.362,0.306 0.053,-0.163 -0.178,-0.232 -0.779,-0.232 -1.094,0 -1.107,-0.051 -0.659,-2.489 0.426,-2.321 0.44,-2.511 0.187,-2.511 -0.102,0 -0.185,0.031 -0.185,0.067 m 5.648,5.978 c -0.751,0.592 -2.24,1.174 -3.01,1.176 -1.032,0.002 -1.103,0.648 -0.172,1.58 1.634,1.633 3.634,0.618 3.942,-2.001 0.135,-1.155 -0.036,-1.326 -0.76,-0.755 m -0.074,2.067 c -0.567,1.11 -1.779,1.341 -2.677,0.508 -0.683,-0.633 -0.626,-0.753 0.484,-1.001 0.536,-0.12 1.307,-0.42 1.713,-0.666 l 0.739,-0.448 0.057,0.437 c 0.032,0.241 -0.111,0.767 -0.316,1.17 m -8.121,0.199 c -2.296,0.793 -3.159,3.381 -1.778,5.329 0.189,0.266 0.426,0.618 0.528,0.783 0.128,0.207 0.393,0.282 0.857,0.243 0.37,-0.03 1.134,0.1 1.697,0.29 1.292,0.436 2.013,0.143 2.93,-1.19 2.109,-3.065 -0.695,-6.677 -4.234,-5.455 m -2.483,15.944 c -0.17,0.104 -0.363,0.544 -0.431,0.977 -0.067,0.433 -0.161,0.926 -0.209,1.096 -0.097,0.345 1.88,0.887 2.142,0.588 0.275,-0.314 0.744,-2.366 0.578,-2.532 -0.253,-0.253 -1.732,-0.345 -2.08,-0.129 m -11.267,60.438 c 0,0.15 -0.289,3.26 -0.642,6.911 -2.906,30.054 -2.959,37.553 -0.461,65.248 1.114,12.348 4.329,43.102 4.526,43.3 0.513,0.513 18.099,-1.244 18.499,-1.848 0.023,-0.035 -0.017,-1.938 -0.09,-4.23 -0.531,-16.763 -0.653,-56.765 -0.185,-60.699 0.112,-0.944 0.007,-1.934 -0.563,-5.278 -2.888,-16.948 -4.543,-29.379 -5.185,-38.949 l -0.224,-3.352 -3.692,-0.127 c -4.904,-0.168 -10.113,-0.683 -11.659,-1.151 -0.206,-0.063 -0.324,0.001 -0.324,0.175 m 47.265,2.53 c 0,0.356 0.039,0.502 0.085,0.324 0.047,-0.179 0.047,-0.47 0,-0.649 -0.046,-0.178 -0.085,-0.032 -0.085,0.325" id="path0-63" style="fill:#757575;fill-opacity:1;fill-rule:evenodd;stroke:none" />
            <path d="m 264.663,35.694 c -0.59,0.507 -5.959,9.349 -5.959,9.815 -0.001,0.859 1.387,1.513 2.154,1.016 0.373,-0.242 5.821,-9.131 5.93,-9.676 0.216,-1.082 -1.269,-1.889 -2.125,-1.155 m 3.915,11.76 c -4.786,3.868 -4.979,4.107 -4.235,5.244 0.668,1.02 1.179,0.759 5.692,-2.899 5.28,-4.281 5.377,-4.403 4.325,-5.456 -0.827,-0.827 -1.076,-0.692 -5.782,3.111 m 5.178,7.295 c -2.728,1.39 -5.106,2.653 -5.284,2.806 -0.772,0.667 -0.14,2.26 0.896,2.26 0.824,0 10.541,-5.117 10.801,-5.687 0.372,-0.815 -0.362,-1.906 -1.283,-1.906 -0.093,0 -2.402,1.137 -5.13,2.527 m 3.604,8.947 c -5.07,0.561 -5.323,0.647 -5.323,1.796 0,1.514 -0.008,1.513 6.612,0.81 6.286,-0.667 6.166,-0.628 6.166,-2.002 0,-1.322 -0.558,-1.367 -7.455,-0.604 m -50.196,21.88 c -7.466,16.662 -18.893,37.721 -24.324,44.827 -0.442,0.578 -0.803,1.107 -0.803,1.175 0,0.069 -0.241,0.35 -0.536,0.626 l -0.536,0.5 0.264,1.657 c 1.304,8.213 7.521,15.693 16.178,19.465 1.527,0.665 5.25,1.798 5.097,1.552 -0.093,-0.151 0.276,-1.698 0.466,-1.952 0.076,-0.102 0.322,-0.852 0.547,-1.667 0.772,-2.795 2.395,-7.807 6.387,-19.728 7.502,-22.403 10.487,-33.039 11.419,-40.687 l 0.231,-1.896 -0.51,-0.532 c -0.477,-0.499 -2.749,-1.942 -2.98,-1.893 -0.058,0.012 -0.337,-0.099 -0.621,-0.245 -1.484,-0.768 -5.949,-1.876 -8.369,-2.078 l -1.463,-0.122 -0.447,0.998 m -35.617,26.663 c -0.669,0.194 -1.671,1.249 -1.845,1.942 -0.114,0.456 -0.147,0.466 -1.16,0.323 -1.312,-0.184 -2.13,-0.187 -3.111,-0.012 -0.763,0.136 -0.775,0.129 -0.991,-0.523 -0.152,-0.463 -0.3,-0.629 -0.492,-0.556 -0.151,0.058 -0.312,0.106 -0.357,0.106 -0.045,0 0.045,0.245 0.201,0.546 1.188,2.298 -1.644,4.741 -3.659,3.156 -0.61,-0.48 -1.082,-1.687 -0.94,-2.401 0.087,-0.432 0.046,-0.561 -0.176,-0.561 -0.771,0 -0.561,1.965 0.309,2.892 1.54,1.639 4.468,1.067 5.13,-1.003 0.291,-0.913 0.31,-0.928 1.476,-1.152 1.303,-0.25 3.493,0.071 3.628,0.532 0.858,2.934 3.931,3.562 5.579,1.141 0.229,-0.337 0.417,-0.8 0.417,-1.028 0,-0.229 0.145,-0.472 0.324,-0.54 0.178,-0.067 0.853,-0.418 1.499,-0.779 1.597,-0.892 1.268,-1.253 -0.365,-0.402 -0.65,0.338 -1.226,0.637 -1.281,0.665 -0.056,0.027 -0.206,-0.239 -0.333,-0.592 -0.515,-1.424 -2.256,-2.216 -3.853,-1.754 m 2.446,0.917 c 0.863,0.533 1.327,1.775 1.031,2.762 -0.819,2.734 -4.839,2.155 -4.839,-0.696 0,-1.926 2.149,-3.092 3.808,-2.066 m -22.5,33.005 c -11.693,18.576 -17.409,33.14 -14.963,38.121 2.824,5.75 10.536,6.496 15.19,1.469 4.39,-4.742 9.403,-21.514 11.158,-37.334 l 0.124,-1.12 -0.77,-0.509 c -2.234,-1.479 -5.604,-2.52 -8.158,-2.521 l -1.389,-0.001 -1.192,1.895 M 187.5,315.396 c -1.485,0.347 -6.508,0.908 -9.169,1.023 -2.686,0.116 -2.733,0.126 -3.016,0.6 -0.351,0.586 -1.525,1.814 -2.374,2.484 l -0.626,0.493 0.983,0.002 c 1.306,0.003 2.628,0.345 2.628,0.681 0,0.208 -0.148,0.232 -0.695,0.116 -0.381,-0.081 -1.402,-0.144 -2.268,-0.141 l -1.574,0.006 -1.704,1.132 -1.704,1.133 1.519,-0.006 c 1.544,-0.006 2.537,0.235 2.537,0.616 0,0.152 -0.301,0.168 -1.065,0.056 -2.431,-0.353 -3.795,-0.182 -4.985,0.628 -1.414,0.962 -2.71,2.045 -3.207,2.679 l -0.399,0.509 h 12.42 c 8.958,0 12.421,-0.057 12.421,-0.205 0,-1.164 2.286,-4.168 3.727,-4.899 l 0.897,-0.454 -0.468,-1.064 c -0.606,-1.378 -2.906,-5.605 -3.037,-5.581 -0.055,0.01 -0.434,0.096 -0.841,0.192 m 33.148,0.823 c -1.993,0.434 -4.191,0.638 -8.178,0.758 l -3.92,0.118 -0.246,0.46 c -0.136,0.253 -0.787,0.948 -1.449,1.545 l -1.202,1.085 h 1.22 c 1.34,0 2.443,0.295 2.332,0.623 -0.041,0.123 -0.295,0.172 -0.61,0.118 -0.297,-0.051 -1.295,-0.093 -2.218,-0.093 h -1.679 l -1.562,1.008 c -0.859,0.554 -1.62,1.054 -1.691,1.111 -0.07,0.057 0.596,0.107 1.482,0.112 0.955,0.005 1.788,0.106 2.047,0.249 0.716,0.394 0.215,0.598 -0.942,0.384 -2.221,-0.41 -3.497,-0.176 -5.086,0.933 -1.316,0.919 -3.346,2.728 -3.184,2.837 0.039,0.026 5.589,0.015 12.333,-0.024 l 12.262,-0.073 0.742,-1.533 c 0.804,-1.662 1.974,-2.906 3.331,-3.545 l 0.738,-0.348 -1.524,-2.949 c -0.839,-1.622 -1.606,-2.965 -1.705,-2.984 -0.099,-0.019 -0.68,0.075 -1.291,0.208 m -29.892,6.826 c -1.142,0.769 -1.792,1.497 -2.465,2.764 -0.783,1.474 -0.888,1.413 2.45,1.413 1.629,0 2.963,-0.074 2.963,-0.164 0,-0.239 -0.919,-2.937 -1.315,-3.861 -0.409,-0.953 -0.439,-0.955 -1.633,-0.152 m 33.316,0.066 c -1.11,0.705 -1.969,1.717 -2.614,3.08 l -0.533,1.124 1.575,0.053 c 0.866,0.03 2.274,0.03 3.129,0 l 1.556,-0.053 -0.861,-2.313 c -0.966,-2.594 -1.043,-2.659 -2.252,-1.891 m -62.232,5.059 c -0.088,0.166 -0.238,0.645 -0.333,1.065 L 161.336,330 h 16.554 c 11.51,0 16.554,-0.06 16.554,-0.196 0,-0.107 -0.093,-0.565 -0.206,-1.016 l -0.207,-0.821 -16.015,-0.048 c -14.606,-0.044 -16.03,-0.022 -16.176,0.251 m 33.236,0.51 c -0.609,1.456 -2.29,1.32 16.304,1.32 h 16.565 l -0.267,-0.88 c -0.146,-0.483 -0.267,-0.921 -0.269,-0.972 -0.001,-0.051 -7.217,-0.092 -16.037,-0.092 h -16.035 l -0.261,0.624" id="path1-20" style="fill:#757575;fill-opacity:1;fill-rule:evenodd;stroke:none" />
            <path d="m 191.828,116.343 c 0.14,0.178 0.432,0.314 0.648,0.302 0.375,-0.02 0.376,-0.026 0.024,-0.112 -0.204,-0.05 -0.495,-0.187 -0.648,-0.303 -0.242,-0.184 -0.245,-0.169 -0.024,0.113 m 23.469,81.275 c -4.934,2.546 -16.902,4.275 -29.834,4.311 -2.852,0.008 -4.138,0.038 -2.859,0.067 l 2.327,0.052 0.226,3.374 c 1.476,22.031 9.547,66.486 19.892,109.578 l 0.423,1.759 2.31,0.168 c 5.297,0.383 15.669,-0.733 16.573,-1.783 0.025,-0.028 -0.187,-2.51 -0.47,-5.514 -0.283,-3.005 -0.732,-8.005 -0.998,-11.111 -0.266,-3.107 -0.521,-6.024 -0.567,-6.482 -0.045,-0.458 -0.212,-2.375 -0.37,-4.259 -0.158,-1.884 -0.328,-3.884 -0.377,-4.445 -0.33,-3.71 -0.9,-10.781 -1.381,-17.129 -0.308,-4.074 -0.604,-7.949 -0.658,-8.611 -0.102,-1.284 -1.124,-16.559 -1.294,-19.352 -0.056,-0.917 -0.182,-2.875 -0.281,-4.352 -0.208,-3.102 -0.676,-12.045 -0.828,-15.833 -0.057,-1.426 -0.142,-3.093 -0.189,-3.704 -0.046,-0.611 -0.137,-3.153 -0.203,-5.648 -0.065,-2.496 -0.147,-4.587 -0.181,-4.647 -0.035,-0.061 -0.073,-1.665 -0.085,-3.565 -0.012,-1.9 -0.036,-3.451 -0.053,-3.446 -0.017,0.005 -0.522,0.262 -1.123,0.572 m -38.119,4.18 c 0.23,0.044 0.564,0.042 0.741,-0.004 0.177,-0.046 -0.012,-0.083 -0.419,-0.081 -0.407,0.002 -0.552,0.04 -0.322,0.085 m -0.743,114.634 c 0.433,0.039 1.141,0.039 1.574,0 0.433,-0.039 0.079,-0.071 -0.787,-0.071 -0.866,0 -1.22,0.032 -0.787,0.071" id="path2-6" style="fill:#757575;fill-opacity:1;fill-rule:evenodd;stroke:none" />
            <path d="m 240.208,70.327 c -0.103,0.193 -0.48,1.514 -0.838,2.936 -1.021,4.052 -1.191,4.301 -1.078,1.579 0.161,-3.91 -0.778,-5.735 -1.252,-2.434 -0.277,1.933 -1.121,5.555 -1.293,5.555 -0.171,0 -0.372,-1.116 -0.375,-2.077 -0.002,-0.911 -0.496,-1.91 -1.074,-2.173 -0.643,-0.293 -0.688,-0.19 -0.936,2.147 -0.262,2.481 -0.939,5.263 -1.801,7.401 -0.349,0.866 -0.635,1.602 -0.635,1.636 0,0.034 0.312,0.118 0.694,0.186 1.603,0.287 4.333,1.045 5.299,1.472 l 1.037,0.459 1.639,-2.35 c 3.064,-4.393 4.253,-6.736 4.129,-8.136 -0.04,-0.453 -0.466,-0.218 -1.346,0.741 l -0.892,0.972 0.549,-1.205 c 1.049,-2.299 1.384,-4.801 0.65,-4.856 -0.208,-0.015 -0.238,0.04 -1.646,3.051 -1.176,2.516 -1.352,2.709 -0.763,0.834 0.879,-2.795 1.041,-5.325 0.376,-5.877 -0.199,-0.165 -0.297,-0.134 -0.444,0.139 m -46.791,37.477 c -2.445,2.02 -6.15,4.36 -8.047,5.083 -1.111,0.423 -1.148,0.469 -0.91,1.152 0.199,0.57 0.23,0.585 0.975,0.452 0.974,-0.173 1.797,-0.171 3.09,0.011 l 1.024,0.144 0.233,-0.644 c 0.894,-2.471 4.725,-2.477 5.618,-0.009 0.127,0.353 0.277,0.619 0.333,0.592 0.055,-0.028 0.628,-0.326 1.273,-0.662 l 1.173,-0.611 -0.815,-0.872 c -0.956,-1.021 -1.63,-2.125 -2.451,-4.014 l -0.594,-1.367 -0.902,0.745 m 8.508,3.521 c -0.668,0.178 -1.411,0.866 -2.067,1.916 -0.255,0.407 -0.487,0.768 -0.515,0.802 -0.029,0.033 -0.223,-0.03 -0.432,-0.142 -0.543,-0.291 -3.347,1.186 -3.352,1.766 -0.002,0.214 -0.191,0.665 -0.42,1.002 -1.648,2.421 -4.721,1.793 -5.579,-1.141 -0.135,-0.461 -2.325,-0.782 -3.628,-0.532 -1.166,0.224 -1.185,0.239 -1.476,1.152 -0.453,1.418 -2.085,2.265 -3.591,1.863 l -0.723,-0.193 0.12,1.064 c 0.212,1.873 1.468,5.953 1.825,5.93 0.023,-0.002 0.376,-0.123 0.783,-0.27 3.358,-1.209 6.317,1.993 4.711,5.099 -0.355,0.687 -0.417,1.065 -0.379,2.303 0.05,1.64 -0.154,3.214 -0.749,5.779 -0.582,2.511 0.185,3.339 3.26,3.523 4.206,0.25 9.637,-3.239 9.114,-5.857 -0.93,-4.65 -0.835,-11.109 0.223,-15.137 0.425,-1.62 0.449,-1.659 1.085,-1.796 0.907,-0.196 2.447,-1.222 3.021,-2.014 1.844,-2.547 1.078,-5.733 -1.231,-5.117 m -10.438,1.69 c -0.698,0.353 -1.302,1.377 -1.302,2.207 0,2.851 4.02,3.43 4.839,0.696 0.604,-2.014 -1.646,-3.86 -3.537,-2.903 m -8.367,0.593 c -0.05,0.05 -0.791,0.199 -1.648,0.332 l -1.558,0.242 0.055,1.474 c 0.062,1.622 0.201,1.847 1.261,2.046 1.379,0.259 2.844,-1.033 2.844,-2.508 0,-0.908 -0.613,-1.927 -0.954,-1.586 m -0.633,1.313 c 0.82,0.819 -0.152,2.24 -1.005,1.469 -0.451,-0.409 -0.476,-0.967 -0.064,-1.422 0.375,-0.415 0.687,-0.429 1.069,-0.047 m 10.558,0.12 c 0.369,0.527 0.364,0.864 -0.018,1.287 -0.601,0.664 -1.407,0.256 -1.407,-0.712 0,-0.899 0.934,-1.276 1.425,-0.575 m -7.084,1.167 c 0.054,0.054 -0.087,1.158 -0.313,2.454 -0.458,2.624 -0.444,2.672 0.741,2.592 0.557,-0.038 0.741,0.019 0.741,0.227 0,0.399 -1.652,0.484 -2.216,0.114 l -0.424,-0.278 0.438,-2.186 c 0.648,-3.237 0.667,-3.289 1.033,-2.923 m 6.075,6.534 c -0.005,3.119 -3.28,4.415 -4.526,1.79 -0.365,-0.769 -0.26,-1.013 0.434,-1.013 0.852,0 2.183,-0.481 3.005,-1.086 0.907,-0.667 1.088,-0.615 1.087,0.309 m -1.667,0.702 c -0.459,0.247 -1.209,0.514 -1.667,0.594 l -0.832,0.145 0.588,0.594 c 1.018,1.028 2.427,0.606 2.831,-0.85 0.318,-1.147 0.316,-1.149 -0.92,-0.483 m -8.538,7.656 c -2.362,0.459 -4.831,5.666 -5.985,12.618 l -0.11,0.662 1.236,0.227 c 0.68,0.126 1.515,0.344 1.855,0.486 0.46,0.193 0.618,0.202 0.62,0.036 0.008,-0.698 0.752,-4.274 0.935,-4.495 0.264,-0.319 1.317,-0.343 2.129,-0.049 1.695,0.613 3.711,-3.013 3.843,-6.912 0.061,-1.816 -2.098,-3.045 -4.523,-2.573 m 26.309,16.539 c 0.454,0.484 0.85,0.88 0.88,0.88 0.139,0 -0.008,-0.167 -0.826,-0.934 l -0.879,-0.826 0.825,0.88 m -36.854,38.611 -0.638,0.694 0.695,-0.638 c 0.646,-0.594 0.779,-0.75 0.638,-0.75 -0.031,0 -0.344,0.312 -0.695,0.694 m 1.168,133.878 c 0.178,0.046 0.47,0.046 0.648,0 0.178,-0.047 0.032,-0.085 -0.324,-0.085 -0.357,0 -0.503,0.038 -0.324,0.085 m 33.429,0.562 c 0.333,0.041 0.833,0.04 1.111,-0.002 0.278,-0.042 0.006,-0.076 -0.605,-0.075 -0.611,10e-4 -0.839,0.036 -0.506,0.077 m -3.707,2.407 c 0.331,0.041 0.873,0.041 1.204,0 0.331,-0.041 0.06,-0.075 -0.602,-0.075 -0.662,0 -0.933,0.034 -0.602,0.075 m -14.581,3.986 c -0.002,0.298 0.252,0.321 3.099,0.283 l 3.102,-0.041 -2.955,-0.056 c -2.075,-0.04 -2.998,-0.124 -3.099,-0.283 -0.1,-0.158 -0.145,-0.128 -0.147,0.097 m 22.035,0.324 -10.834,0.097 10.776,0.045 c 7.033,0.028 10.816,-0.021 10.891,-0.142 0.063,-0.101 0.089,-0.165 0.057,-0.141 -0.031,0.025 -4.932,0.088 -10.89,0.141 m -22.454,0.509 c 1.248,0.032 3.289,0.032 4.537,0 1.248,-0.032 0.227,-0.058 -2.269,-0.058 -2.495,0 -3.516,0.026 -2.268,0.058 m 15.278,0.186 c 3.845,0.028 10.136,0.028 13.981,0 3.845,-0.028 0.699,-0.051 -6.991,-0.051 -7.689,0 -10.835,0.023 -6.99,0.051" id="path4-5" style="fill:#ece5ddff;fill-rule:evenodd;stroke:none" />
         </g>
         <a transform="translate(57.112071,217.02168)" id="a5158">
            <path style="fill:#ece5dd;fill-opacity:1;fill-rule:evenodd;stroke:none" id="path3-15" d="m 251.389,43.299 c -0.405,0.259 -1.834,2.536 -5.265,8.389 -2.59,4.419 -4.766,8.058 -4.835,8.087 -0.326,0.137 -8.44,5.823 -8.823,6.183 -0.615,0.577 -0.895,1.624 -0.669,2.502 0.259,1.004 4.62,7.223 4.757,6.781 0.057,-0.183 0.233,-1.207 0.392,-2.276 0.565,-3.792 1.524,-2.455 1.346,1.877 -0.113,2.722 0.057,2.473 1.078,-1.579 0.756,-3.004 0.913,-3.381 1.282,-3.075 0.665,0.552 0.503,3.082 -0.376,5.877 -0.589,1.875 -0.413,1.682 0.763,-0.834 1.432,-3.062 1.455,-3.105 1.653,-3.069 0.721,0.131 0.391,2.578 -0.657,4.874 l -0.549,1.205 0.892,-0.972 c 2.045,-2.229 1.773,0.21 -0.427,3.832 -0.94,1.547 -0.61,2.047 1.35,2.047 0.859,0 8.032,-4.558 9.977,-6.341 0.335,-0.307 1.943,-0.633 9.057,-1.836 4.758,-0.805 8.927,-1.595 9.266,-1.755 1.139,-0.541 1.771,-2.136 1.297,-3.271 -0.367,-0.879 -17.387,-25.605 -18.184,-26.417 -0.616,-0.629 -2.499,-0.758 -3.325,-0.229 m -51.528,90.78 c -0.539,0.591 -0.972,1.242 -0.972,1.462 0,4.229 -10.265,7.803 -12.522,4.359 -0.355,-0.541 -0.501,-0.519 -2.323,0.347 l -1.234,0.586 -0.35,1.204 c -0.383,1.319 -0.433,1.346 -1.934,1.049 l -0.678,-0.134 -0.202,0.941 c -0.294,1.37 -0.321,1.325 1.235,2.081 0.789,0.383 1.627,0.846 1.863,1.029 l 0.429,0.332 -0.674,4.249 c -2.772,17.483 -6.074,28.404 -10.148,33.57 -0.79,1.001 -2.901,2.838 -3.486,3.033 -0.338,0.113 -0.711,11.032 -0.415,12.137 0.075,0.279 0.252,0.417 0.539,0.417 0.234,0 1.412,0.162 2.617,0.361 10.778,1.777 31.938,0.585 40.666,-2.291 4.411,-1.454 6.058,-2.631 6.066,-4.336 0.06,-13.129 1.504,-27.722 3.636,-36.76 0.54,-2.288 0.583,-2.189 -1.141,-2.61 -9.548,-2.332 -18.846,-12.168 -19.666,-20.805 -0.141,-1.486 -0.15,-1.487 -1.306,-0.221 m -28.148,186.073 c -0.229,0.032 -0.417,0.184 -0.417,0.336 0,0.205 0.11,0.242 0.417,0.142 0.597,-0.195 2.519,-0.153 3.332,0.073 0.832,0.231 1.145,-0.054 0.383,-0.349 -0.503,-0.195 -2.863,-0.323 -3.715,-0.202 m 33.056,0.136 c -0.309,0.32 -0.076,0.387 1.296,0.374 0.789,-0.008 1.789,0.056 2.222,0.141 0.799,0.158 1.111,-0.074 0.463,-0.342 -0.474,-0.196 -3.818,-0.341 -3.981,-0.173 m -13.725,2.049 c -1.567,0.816 -3.044,2.708 -3.705,4.746 -0.099,0.305 -0.864,0.324 -12.611,0.324 -11.502,0 -12.506,0.025 -12.506,0.306 0,0.283 1.215,0.3 15.926,0.232 13.999,-0.066 15.926,-0.108 15.926,-0.352 0,-0.239 -0.457,-0.27 -3.24,-0.22 -3.661,0.066 -3.496,0.157 -2.671,-1.476 0.689,-1.365 1.988,-2.707 3.18,-3.283 0.484,-0.234 0.833,-0.501 0.776,-0.594 -0.126,-0.204 -0.001,-0.241 -1.075,0.317 m 33.26,0.091 c -1.258,0.622 -2.423,1.935 -3.229,3.637 l -0.722,1.528 h -12.492 c -8.203,0 -12.491,0.063 -12.491,0.185 0,0.122 5.463,0.185 16.019,0.185 14.115,0 16.018,-0.033 16.018,-0.278 0,-0.236 -0.483,-0.278 -3.24,-0.278 -2.097,0 -3.241,-0.067 -3.241,-0.19 0,-1.096 2.266,-3.884 3.673,-4.518 0.424,-0.191 0.771,-0.419 0.771,-0.505 0,-0.238 -0.203,-0.193 -1.066,0.234 m -56.897,0.792 c 0,0.201 0.253,0.236 1.17,0.162 0.644,-0.052 1.614,10e-4 2.157,0.118 1.044,0.224 1.332,0.159 0.957,-0.216 -0.346,-0.347 -4.284,-0.406 -4.284,-0.064 m 33.149,0.113 c 0,0.109 0.666,0.187 1.62,0.19 0.891,0.002 1.933,0.077 2.315,0.166 0.795,0.184 0.957,-0.08 0.219,-0.36 -0.633,-0.241 -4.154,-0.237 -4.154,0.004" />
         </a>
      </g>
   </g>

</svg>
