<?xml version="1.0" encoding="UTF-8" standalone="no"?>
<svg xmlns:dc="http://purl.org/dc/elements/1.1/" xmlns:cc="http://creativecommons.org/ns#" xmlns:rdf="http://www.w3.org/1999/02/22-rdf-syntax-ns#" xmlns:svg="http://www.w3.org/2000/svg" xmlns="http://www.w3.org/2000/svg" viewBox="0 0 148.30634 249.30406" height="249.30406" width="148.30634" version="1.1" id="svg">
   <metadata id="metadata13">
      <rdf:RDF>
         <cc:Work rdf:about="">
            <dc:format>image/svg+xml</dc:format>
            <dc:type rdf:resource="http://purl.org/dc/dcmitype/StillImage" />
            <dc:title></dc:title>
         </cc:Work>
      </rdf:RDF>
   </metadata>
   <defs id="defs11" />
   <g transform="translate(-125.76767,-75.303884)" id="svgg-2">
      <path style="fill:#ece5dd;fill-opacity:1;fill-rule:evenodd;stroke:none" id="path0-0" d="m 207.149,90.212 c -1.136,0.599 -2.377,1.974 -3.495,3.872 -0.566,0.962 -1.249,1.955 -1.518,2.207 -0.269,0.252 -0.643,0.808 -0.833,1.236 -0.189,0.428 -0.89,1.538 -1.557,2.468 -0.743,1.034 -1.26,1.957 -1.331,2.376 -0.24,1.408 -0.472,1.998 -1.023,2.6 -0.955,1.045 -0.934,0.276 0.025,-0.911 0.212,-0.263 0.427,-0.846 0.478,-1.296 0.136,-1.195 0.615,-2.126 1.895,-3.685 0.625,-0.761 1.136,-1.434 1.136,-1.496 0,-0.33 -3.75,1.761 -4.188,2.336 -2.41,3.159 -2,9.095 0.917,13.29 2.425,3.487 2.618,4.828 1.13,7.86 -1.336,2.722 -6.961,8.733 -8.895,9.504 -1.528,0.61 -5.694,0.637 -7.35,0.047 l -1.07,-0.381 -0.874,0.957 c -5.922,6.487 -9.177,12.327 -7.824,14.036 0.816,1.03 3.148,2.048 7.084,3.092 10.207,2.706 19.542,1.323 25.76,-3.817 0.461,-0.381 0.718,-0.433 2.143,-0.433 8.401,0 11.56,-2.794 23.453,-20.745 3.12,-4.708 6.207,-9.261 6.862,-10.12 1.283,-1.68 2.783,-4.49 3.333,-6.24 l 0.341,-1.087 -0.535,-0.427 c -0.295,-0.235 -0.897,-0.518 -1.337,-0.629 -0.441,-0.111 -0.802,-0.229 -0.802,-0.262 0,-0.033 0.167,-0.712 0.37,-1.508 0.616,-2.408 0.3,-3.434 -1.314,-4.269 -0.681,-0.352 -0.688,-0.35 -0.757,0.226 -0.032,0.273 -0.155,0.527 -0.273,0.566 -0.149,0.049 -0.186,-0.147 -0.121,-0.634 l 0.094,-0.704 -0.805,-0.093 c -3.615,-0.416 -11.431,0.18 -13.243,1.009 -1.514,0.693 -1.657,1.044 -1.392,3.426 0.318,2.865 -0.089,4.543 -1.45,5.967 -1.387,1.451 -1.084,3.452 0.834,5.504 l 0.797,0.853 -4.79,4.862 c -2.635,2.673 -4.867,4.861 -4.961,4.861 -0.383,0 -1.035,-3.029 -1.04,-4.831 -0.005,-1.999 -0.211,-1.562 2.568,-5.447 0.656,-0.917 1.163,-1.696 1.128,-1.731 -0.035,-0.036 0.11,-0.399 0.323,-0.807 0.65,-1.249 0.636,-2.253 -0.06,-4.379 -0.727,-2.217 -0.724,-2.215 -1.157,-0.702 -0.39,1.361 -1.351,3.145 -1.608,2.986 -0.101,-0.062 0.012,-0.483 0.261,-0.979 0.241,-0.478 0.673,-1.595 0.96,-2.483 l 0.522,-1.612 -0.308,-2.052 c -0.407,-2.712 -0.636,-3.077 -0.622,-0.992 0.011,1.68 -0.446,3.238 -1.11,3.79 -0.467,0.387 -0.454,0.058 0.04,-1.021 0.522,-1.14 0.925,-4.61 0.588,-5.054 -0.093,-0.122 -0.709,-0.401 -1.37,-0.621 -2.412,-0.802 -2.663,-1.611 -1.571,-5.06 0.715,-2.26 0.719,-2.597 0.037,-3.279 -0.655,-0.655 -1.441,-0.7 -2.495,-0.144 m -28.353,3.633 c -1.554,2.367 -2.712,3.383 -3.508,3.078 -0.196,-0.076 -0.289,-0.001 -0.291,0.233 -0.001,0.189 -0.124,0.552 -0.273,0.807 -0.149,0.255 -0.48,0.9 -0.736,1.435 -0.571,1.195 -0.487,1.21 -1.185,-0.209 -0.964,-1.958 -2.175,-2.055 -3,-0.239 -0.6,1.322 -0.351,2.517 0.782,3.746 l 0.742,0.805 -0.319,0.541 c -0.265,0.449 -0.284,0.644 -0.108,1.148 0.559,1.603 -0.034,2.958 -1.294,2.958 h -0.595 l 0.868,0.575 c 0.477,0.316 1.26,1.074 1.738,1.683 0.479,0.61 1.514,1.593 2.3,2.185 0.785,0.592 1.413,1.105 1.394,1.141 -0.018,0.035 -0.001,0.046 0.037,0.024 0.039,-0.021 0.422,0.166 0.85,0.417 0.647,0.379 1.391,0.598 1.396,0.41 0.053,-2.31 0.643,-3.102 2.311,-3.102 3.672,0 5.208,-1.552 6.294,-6.363 0.158,-0.699 0.458,-1.51 0.666,-1.804 0.618,-0.867 0.654,-1.667 0.118,-2.598 -0.378,-0.657 -0.506,-1.243 -0.683,-3.123 -0.351,-3.742 -0.305,-3.573 -0.861,-3.209 -1.424,0.934 -4.431,0.405 -5.46,-0.96 l -0.485,-0.642 -0.698,1.063 m 37.926,2.081 c 0,0.56 0.035,0.789 0.077,0.509 0.043,-0.28 0.043,-0.738 0,-1.018 -0.042,-0.28 -0.077,-0.051 -0.077,0.509 m -32.555,0.926 c -0.063,0.102 -0.262,0.185 -0.443,0.185 -0.18,0 -0.721,0.199 -1.201,0.442 -1.092,0.553 -1.031,0.192 0.065,-0.387 0.816,-0.432 1.788,-0.58 1.579,-0.24 m 52.732,0.463 c 0.002,0.407 0.04,0.552 0.084,0.322 0.044,-0.231 0.042,-0.564 -0.004,-0.741 -0.046,-0.177 -0.083,0.011 -0.08,0.419 m -27.96,0.633 c 0.19,0.729 -0.478,3.187 -0.78,2.869 -0.171,-0.179 0.367,-3.224 0.569,-3.224 0.065,0 0.16,0.16 0.211,0.355 m -25.235,0.941 c 0,0.305 -0.086,0.555 -0.191,0.555 -0.256,0 -0.43,-0.488 -0.298,-0.833 0.183,-0.477 0.489,-0.304 0.489,0.278 m -12.718,0.728 c 0.648,0.247 1.792,1.294 1.792,1.641 0,0.214 -0.157,0.147 -0.584,-0.251 -0.322,-0.299 -0.53,-0.448 -0.464,-0.332 0.173,0.306 -0.079,1.918 -0.299,1.918 -0.118,0 -0.141,-0.437 -0.064,-1.187 l 0.121,-1.187 -0.559,-0.247 c -0.836,-0.37 -0.787,-0.676 0.057,-0.355 m 62.511,1.529 c 1.194,1.168 1.55,2.747 1.091,4.837 -0.253,1.151 -0.645,1.394 -0.505,0.313 0.324,-2.503 -0.236,-4.929 -1.227,-5.309 -0.28,-0.107 -0.365,-0.431 -0.113,-0.431 0.082,0 0.421,0.265 0.754,0.59 m -4.604,0.481 c 0.926,0.927 1.184,1.907 1.024,3.895 -0.238,2.963 -0.594,2.841 -0.577,-0.198 0.012,-2.353 -0.081,-2.737 -0.877,-3.611 -0.226,-0.248 -0.596,-0.417 -0.914,-0.417 -0.309,0 -0.486,-0.078 -0.419,-0.185 0.255,-0.413 1.074,-0.173 1.763,0.516 m -4.706,-0.374 c 0.77,0.509 1.151,2.861 0.871,5.373 -0.25,2.24 -0.521,1.492 -0.522,-1.441 -0.001,-2.596 -0.203,-3.704 -0.677,-3.704 -0.085,0 -0.155,-0.083 -0.155,-0.185 0,-0.217 0.194,-0.234 0.483,-0.043 m 12.848,0.938 c 0.744,0.745 1.027,1.823 0.819,3.121 -0.246,1.532 -0.652,1.539 -0.509,0.009 0.127,-1.363 -0.111,-2.28 -0.803,-3.103 -0.59,-0.702 -0.203,-0.722 0.493,-0.027 m -50.739,0.402 c 0,0.101 -0.171,0.185 -0.381,0.185 -0.21,0 -0.33,-0.084 -0.267,-0.185 0.063,-0.102 0.235,-0.186 0.381,-0.186 0.147,0 0.267,0.084 0.267,0.186 m 30.806,1.666 c 0,0.866 0.032,1.22 0.071,0.787 0.039,-0.433 0.039,-1.141 0,-1.574 -0.039,-0.433 -0.071,-0.078 -0.071,0.787 m -0.389,1.019 c 0.002,0.407 0.04,0.552 0.085,0.322 0.044,-0.231 0.042,-0.564 -0.004,-0.741 -0.046,-0.177 -0.083,0.011 -0.081,0.419 m -34.724,-0.006 c 0.371,0.252 1.116,0.557 1.657,0.678 1.175,0.263 1.339,0.623 0.197,0.433 -0.946,-0.157 -1.955,-0.645 -2.437,-1.178 -0.469,-0.519 -0.241,-0.493 0.583,0.067 m 57.198,0.978 c -0.066,0.382 -0.205,1.361 -0.308,2.176 -0.104,0.815 -0.275,1.752 -0.381,2.083 -0.216,0.674 -0.634,0.838 -0.472,0.185 0.057,-0.229 0.158,-1 0.223,-1.713 0.065,-0.712 0.247,-1.775 0.404,-2.361 0.319,-1.193 0.726,-1.475 0.534,-0.37 m -63.631,8.472 c 0.345,0.357 0.669,0.648 0.72,0.648 0.051,0 -0.19,-0.291 -0.535,-0.648 -0.346,-0.356 -0.67,-0.648 -0.721,-0.648 -0.051,0 0.19,0.292 0.536,0.648 m 36.309,11.25 c 0.318,1.176 0.114,8.574 -0.279,10.139 -0.867,3.45 -3.36,7.408 -4.665,7.408 -0.24,0 -0.06,-0.246 0.608,-0.83 2.763,-2.417 3.874,-5.827 4.065,-12.475 0.065,-2.249 0.034,-3.937 -0.081,-4.352 -0.103,-0.372 -0.113,-0.677 -0.024,-0.677 0.09,0 0.259,0.354 0.376,0.787 M 165,139.907 c 0.346,0.357 0.67,0.649 0.721,0.649 0.051,0 -0.19,-0.292 -0.536,-0.649 -0.345,-0.356 -0.67,-0.648 -0.721,-0.648 -0.051,0 0.19,0.292 0.536,0.648 m 8.197,12.078 c 0.281,0.042 0.698,0.041 0.926,-0.003 0.228,-0.044 -0.003,-0.079 -0.512,-0.077 -0.509,0.001 -0.696,0.037 -0.414,0.08 m 13.612,2.594 c 0.333,0.041 0.833,0.04 1.111,-0.002 0.278,-0.042 0.006,-0.076 -0.605,-0.075 -0.611,10e-4 -0.839,0.035 -0.506,0.077 m 5.48,9.68 c 0,0.968 0.031,1.364 0.069,0.88 0.038,-0.484 0.038,-1.276 0,-1.759 -0.038,-0.484 -0.069,-0.088 -0.069,0.879 m -3.347,1.945 c 0.001,0.509 0.037,0.695 0.08,0.414 0.042,-0.282 0.041,-0.698 -0.003,-0.926 -0.044,-0.228 -0.079,0.002 -0.077,0.512 m -0.188,3.426 c 0,0.458 0.036,0.645 0.08,0.416 0.045,-0.229 0.045,-0.604 0,-0.833 -0.044,-0.229 -0.08,-0.042 -0.08,0.417 m -14.784,0.601 -0.544,0.602 0.602,-0.544 c 0.331,-0.299 0.602,-0.57 0.602,-0.601 0,-0.143 -0.153,-0.018 -0.66,0.543 m 14.225,0.417 c 0.002,0.408 0.04,0.552 0.084,0.322 0.044,-0.23 0.043,-0.564 -0.004,-0.741 -0.046,-0.177 -0.082,0.012 -0.08,0.419 m 0.37,2.222 c 0.002,0.408 0.04,0.553 0.084,0.322 0.045,-0.23 0.043,-0.563 -0.003,-0.74 -0.047,-0.178 -0.083,0.011 -0.081,0.418 m -0.547,1.204 c 0,0.56 0.035,0.789 0.078,0.509 0.042,-0.28 0.042,-0.738 0,-1.018 -0.043,-0.28 -0.078,-0.051 -0.078,0.509 m -19.419,1.713 -0.543,0.602 0.601,-0.544 c 0.331,-0.299 0.602,-0.57 0.602,-0.602 0,-0.143 -0.153,-0.017 -0.66,0.544 m 19.785,0.324 c 0,0.458 0.036,0.646 0.08,0.417 0.044,-0.229 0.044,-0.604 0,-0.834 -0.044,-0.229 -0.08,-0.041 -0.08,0.417 m -0.533,2.408 c 0.018,1.142 0.363,1.686 0.412,0.651 0.022,-0.443 0.016,-0.44 -0.086,0.041 -0.082,0.379 -0.14,0.2 -0.228,-0.692 l -0.117,-1.204 0.019,1.204 m 4.251,4.444 c 0,0.866 0.032,1.22 0.071,0.787 0.039,-0.433 0.039,-1.141 0,-1.574 -0.039,-0.433 -0.071,-0.079 -0.071,0.787 m -0.197,8.056 c 0.001,0.509 0.037,0.695 0.08,0.414 0.042,-0.282 0.041,-0.699 -0.003,-0.926 -0.044,-0.228 -0.079,0.002 -0.077,0.512 m -0.195,4.722 c 0,0.356 0.038,0.502 0.084,0.324 0.047,-0.178 0.047,-0.47 0,-0.648 -0.046,-0.179 -0.084,-0.033 -0.084,0.324 m -8.149,2.407 c 0,0.357 0.039,0.502 0.085,0.324 0.047,-0.178 0.047,-0.47 0,-0.648 -0.046,-0.178 -0.085,-0.032 -0.085,0.324 m 0.371,2.037 c 0,0.357 0.038,0.503 0.085,0.324 0.046,-0.178 0.046,-0.47 0,-0.648 -0.047,-0.178 -0.085,-0.032 -0.085,0.324 m -0.548,0.556 c 0,0.458 0.036,0.646 0.08,0.416 0.044,-0.229 0.044,-0.604 0,-0.833 -0.044,-0.229 -0.08,-0.042 -0.08,0.417 m 0.373,2.315 c 0.001,0.509 0.037,0.695 0.08,0.414 0.042,-0.282 0.041,-0.698 -0.003,-0.926 -0.044,-0.228 -0.079,0.002 -0.077,0.512 m -0.55,1.388 c 0,0.662 0.034,0.933 0.075,0.602 0.041,-0.331 0.041,-0.872 0,-1.203 -0.041,-0.331 -0.075,-0.061 -0.075,0.601 m 0.375,2.871 c 0.001,0.815 0.033,1.125 0.072,0.689 0.039,-0.435 0.039,-1.102 -0.001,-1.481 -0.04,-0.379 -0.072,-0.023 -0.071,0.792 m 7.58,-0.463 c 0,0.458 0.036,0.646 0.08,0.417 0.044,-0.23 0.044,-0.605 0,-0.834 -0.044,-0.229 -0.08,-0.041 -0.08,0.417 m 14.857,4.86 c -2.403,1.36 -20.369,11.87 -20.535,12.012 -0.092,0.079 -0.002,0.413 0.202,0.755 0.202,0.337 5.016,8.322 10.699,17.743 5.682,9.422 10.87,18.026 11.528,19.121 0.658,1.094 1.27,1.99 1.359,1.99 0.089,0 -0.126,-0.477 -0.477,-1.059 -0.351,-0.583 -0.578,-1.113 -0.504,-1.178 0.074,-0.064 3.194,-2.34 6.933,-5.058 l 6.797,-4.94 -0.713,-1.984 c -4.49,-12.486 -13.773,-37.936 -13.869,-38.023 -0.068,-0.062 -0.708,0.218 -1.42,0.621 m -42.65,13.374 c -0.045,1.205 -1.877,11.826 -2.429,14.086 -1.059,4.336 -1.441,4.984 -3.054,5.186 -0.569,0.071 -1.037,0.224 -1.04,0.339 -0.044,1.73 2.532,22.455 2.773,22.31 0.159,-0.096 3.784,-0.607 8.056,-1.137 l 7.768,-0.963 2.951,-19.682 c 1.622,-10.826 2.916,-19.717 2.875,-19.759 -0.042,-0.041 -4.032,-0.22 -8.867,-0.397 -4.835,-0.177 -8.84,-0.393 -8.899,-0.481 -0.06,-0.088 -0.12,0.136 -0.134,0.498 m 69.86,62.368 -0.544,0.602 0.602,-0.544 c 0.561,-0.507 0.687,-0.66 0.544,-0.66 -0.032,0 -0.303,0.271 -0.602,0.602 m -59.357,11.659 c 0.548,0.596 0.943,0.757 0.943,0.382 0,-0.062 -0.057,-0.055 -0.127,0.014 -0.07,0.07 -0.424,-0.145 -0.787,-0.478 l -0.66,-0.605 0.631,0.687 m 65.343,7.129 c 0.23,0.044 0.564,0.043 0.741,-0.004 0.177,-0.046 -0.012,-0.082 -0.419,-0.08 -0.407,0.002 -0.552,0.04 -0.322,0.084 m -10.28,0.367 c 0.178,0.047 0.47,0.047 0.648,0 0.179,-0.046 0.033,-0.085 -0.324,-0.085 -0.356,0 -0.502,0.039 -0.324,0.085 m 12.685,0.003 c 0.23,0.044 0.605,0.044 0.834,0 0.229,-0.044 0.041,-0.08 -0.417,-0.08 -0.458,0 -0.646,0.036 -0.417,0.08 m -7.685,0.193 c 0.891,0.033 2.35,0.033 3.241,0 0.891,-0.034 0.162,-0.062 -1.62,-0.062 -1.783,0 -2.512,0.028 -1.621,0.062 m -75.648,6.659 c 0.229,0.044 0.604,0.044 0.833,0 0.23,-0.044 0.042,-0.08 -0.416,-0.08 -0.459,0 -0.646,0.036 -0.417,0.08 m 13.336,1.482 c 0.23,0.044 0.563,0.042 0.74,-0.004 0.177,-0.046 -0.011,-0.083 -0.419,-0.08 -0.407,0.002 -0.552,0.039 -0.321,0.084 m 4.262,0.19 c 0.435,0.039 1.102,0.038 1.481,-0.001 0.379,-0.04 0.023,-0.072 -0.792,-0.072 -0.815,0.001 -1.125,0.034 -0.689,0.073 m 16.754,0.177 c 0.178,0.046 0.47,0.046 0.648,0 0.178,-0.047 0.032,-0.085 -0.324,-0.085 -0.357,0 -0.502,0.038 -0.324,0.085 m -19.72,0.188 c 0.23,0.045 0.564,0.043 0.741,-0.003 0.177,-0.047 -0.012,-0.083 -0.419,-0.081 -0.408,0.002 -0.553,0.04 -0.322,0.084 m 7.787,0.193 c 1.457,0.031 3.791,0.031 5.185,0 1.394,-0.031 0.202,-0.057 -2.65,-0.057 -2.852,0 -3.993,0.026 -2.535,0.057 m 11.195,-0.006 c 0.281,0.043 0.698,0.042 0.926,-0.002 0.227,-0.044 -0.003,-0.079 -0.512,-0.077 -0.509,0.001 -0.696,0.037 -0.414,0.079 m 3.612,0.187 c 0.332,0.041 0.832,0.04 1.111,-0.002 0.278,-0.042 0.006,-0.076 -0.605,-0.075 -0.612,10e-4 -0.839,0.036 -0.506,0.077" />
      <path style="fill:#ece5dd;fill-opacity:1;fill-rule:evenodd;stroke:none" id="path1-23" d="m 156.7,148.282 c -0.743,0.517 -1.973,2.434 -3.835,5.977 -0.99,1.885 -1.865,3.51 -1.944,3.611 -0.078,0.102 -1.017,1.936 -2.086,4.074 -7.141,14.288 -10.739,26.063 -14.118,46.204 -3.649,21.746 -4.636,31.017 -3.508,32.963 0.736,1.27 2.517,1.737 7.752,2.032 1.923,0.109 4.09,0.318 4.814,0.465 3.132,0.634 11.293,1.087 13.784,0.764 1.93,-0.251 2.393,-1.001 3.439,-5.576 0.927,-4.054 1.811,-9.693 4.195,-26.759 3.006,-21.524 2.725,-20.423 6.803,-26.667 2.39,-3.658 9.58,-13.115 9.803,-12.892 0.026,0.026 -0.07,0.718 -0.214,1.537 -0.485,2.754 -1.207,8.072 -1.959,14.411 -1.436,12.113 -2.256,16.785 -3.89,22.163 -0.549,1.805 -0.568,1.782 2.293,2.721 1.245,0.409 3.552,1.278 5.127,1.931 5.844,2.423 6.411,2.595 6.845,2.073 0.432,-0.521 0.912,-4.932 1.196,-10.992 0.156,-3.324 0.366,-7.503 0.467,-9.285 0.289,-5.104 0.554,-17.683 0.556,-26.411 l 0.002,-7.985 -1.065,0.248 c -1.934,0.45 -3.284,-0.371 -4.348,-2.645 -0.591,-1.262 -0.915,-2.807 -0.541,-2.576 0.117,0.072 0.213,0.254 0.213,0.403 0,0.149 0.244,0.807 0.541,1.463 1.194,2.634 2.211,3.287 4.344,2.793 0.687,-0.16 1.411,-0.29 1.608,-0.29 0.448,0 0.472,0.31 0.035,0.439 -0.178,0.052 0.383,0.079 1.247,0.06 l 1.571,-0.036 1.431,2.125 c 2.337,3.469 3.482,5.605 8.541,15.931 4.168,8.506 8.67,14.83 13.341,18.739 1.335,1.116 1.481,1.077 1.613,-0.431 0.14,-1.605 0.915,-3.212 2.492,-5.166 3.59,-4.446 3.4,-6.692 -1.023,-12.124 -0.913,-1.12 -2.466,-3.162 -3.452,-4.537 -4.042,-5.635 -4.645,-6.431 -5.802,-7.664 -1.57,-1.672 -4.135,-3.711 -7.238,-5.757 -4.965,-3.271 -7.95,-5.491 -7.954,-5.914 -0.004,-0.487 -0.939,-2.149 -1.556,-2.766 -1.891,-1.891 -5.328,-2.186 -7.545,-0.647 -0.369,0.255 -0.832,0.341 -1.853,0.341 -0.749,0 -2.861,0.214 -4.694,0.475 -4.648,0.664 -6.252,0.597 -6.919,-0.287 -1.656,-2.192 -3.311,-2.975 -7.65,-3.614 -2.458,-0.362 -3.796,-0.77 -6.993,-2.132 -2.766,-1.178 -3.186,-1.264 -3.866,-0.79 m 30.886,6.978 c -0.463,0.445 -7.004,4.919 -9.412,6.437 -2.488,1.57 -7.029,3.954 -7.202,3.781 -0.141,-0.141 -0.226,-0.086 1.865,-1.192 2.455,-1.298 5.724,-3.351 10.489,-6.587 3.475,-2.359 5.215,-3.356 4.26,-2.439 m -25.919,1.374 c 0,0.083 -0.745,1.729 -1.656,3.657 -2.782,5.891 -10.721,26.379 -14.202,36.653 -3.311,9.772 -5.261,17.767 -6.197,25.408 -0.377,3.08 -0.549,3.81 -0.832,3.527 -0.137,-0.138 0.185,-3.205 0.686,-6.527 1.788,-11.859 6.186,-25.392 16.73,-51.482 2.449,-6.059 5.471,-12.266 5.471,-11.236 m 27.131,7.249 c -0.063,0.2 -0.028,0.678 0.078,1.062 0.18,0.652 -0.412,13.921 -0.655,14.669 -0.497,1.532 -0.431,-3.901 0.133,-10.99 0.113,-1.418 0.149,-3.077 0.08,-3.685 -0.093,-0.823 -0.063,-1.145 0.118,-1.26 0.351,-0.222 0.375,-0.202 0.246,0.204 m 9.998,0.191 c 0.063,0.102 0.264,0.185 0.445,0.185 1.265,0 4.869,3.354 9.154,8.519 1.732,2.088 3.879,4.524 4.772,5.413 0.892,0.89 1.54,1.669 1.439,1.731 -0.28,0.173 -3.899,-3.57 -6.46,-6.681 -4.442,-5.397 -7.333,-8.193 -8.913,-8.619 -0.372,-0.1 -0.724,-0.306 -0.782,-0.457 -0.118,-0.307 0.166,-0.382 0.345,-0.091 m -22.5,3.918 c 0,0.495 -1.752,2.414 -4.588,5.024 -1.665,1.532 -3.272,3.082 -3.571,3.445 -0.473,0.574 -0.544,0.609 -0.544,0.265 0,-0.272 1.182,-1.534 3.783,-4.04 2.081,-2.004 3.977,-3.928 4.213,-4.275 0.438,-0.643 0.707,-0.803 0.707,-0.419 m 10.926,4.843 c 0,0.031 -0.166,0.959 -0.368,2.062 -1.068,5.809 -2.793,22.495 -3.056,29.547 -0.155,4.157 -0.283,5.556 -0.51,5.556 -1.1,0 1.905,-31.783 3.488,-36.898 0.082,-0.262 0.446,-0.481 0.446,-0.267 m -28.31,10.016 c -0.657,1.756 -3.328,19.171 -5.111,33.325 -0.79,6.269 -0.884,6.803 -1.149,6.538 -0.349,-0.349 1.919,-17.929 3.838,-29.751 1.261,-7.77 1.824,-10.322 2.442,-11.069 0.37,-0.448 0.362,-0.064 -0.02,0.957" />
      <path style="fill:#757575;fill-opacity:1;fill-rule:evenodd;stroke:none" id="path2-75" d="m 173.938,80.645 c -0.329,0.143 -1.005,0.64 -1.5,1.104 -0.86,0.804 -0.93,0.834 -1.501,0.635 -1.812,-0.632 -4.698,0.695 -5.456,2.509 -0.242,0.578 -0.278,0.593 -1.439,0.604 -2.873,0.027 -5.96,2.803 -6.212,5.586 -0.113,1.241 -0.562,1.73 -2.13,2.319 -2.303,0.864 -3.709,3.011 -3.639,5.555 0.044,1.579 0.034,1.618 -0.823,3.258 -1.332,2.547 -1.194,3.434 0.787,5.09 0.904,0.755 1.865,1.214 2.546,1.214 0.248,0 0.411,0.063 0.363,0.141 -0.188,0.305 0.274,1.989 0.658,2.397 0.911,0.97 2.458,0.951 3.643,-0.046 l 0.522,-0.44 0.399,0.541 c 1.125,1.521 3.57,0.838 4.662,-1.304 0.341,-0.668 0.378,-0.687 1.174,-0.598 0.759,0.086 0.882,0.036 1.64,-0.662 0.788,-0.726 0.846,-0.748 1.491,-0.55 1.416,0.435 2.212,-0.718 1.749,-2.535 -0.244,-0.957 -0.247,-1.152 -0.022,-1.404 0.368,-0.411 0.33,-0.598 -0.226,-1.11 -1.417,-1.305 -1.554,-3.532 -0.3,-4.847 0.911,-0.955 1.872,-0.477 2.72,1.355 l 0.435,0.937 0.322,-0.842 c 0.177,-0.464 0.435,-0.937 0.574,-1.052 0.138,-0.116 0.339,-0.533 0.446,-0.929 0.169,-0.63 0.261,-0.719 0.741,-0.719 0.731,0 1.816,-0.995 3.001,-2.752 l 0.926,-1.371 0.72,0.843 c 1.518,1.776 5.349,1.549 6.289,-0.372 1.247,-2.553 0.182,-5.964 -1.868,-5.98 -0.698,-0.005 -0.933,-0.231 -1.365,-1.311 -0.563,-1.407 -1.579,-2.016 -3.597,-2.154 l -1.476,-0.101 0.011,-0.855 c 0.027,-2.011 -2.11,-3.09 -4.265,-2.154 m 30.56,7.125 c -1.594,0.147 -2.003,0.445 -2.174,1.585 l -0.122,0.814 -1.24,0.054 -1.24,0.055 -0.213,2.87 c -0.118,1.579 -0.261,3.396 -0.318,4.039 l -0.105,1.168 1.013,-0.549 c 1.287,-0.697 1.275,-0.635 -0.268,1.314 -1.371,1.732 -1.941,2.909 -1.826,3.77 l 0.071,0.536 0.139,-0.556 c 0.253,-1.01 0.852,-2.133 1.792,-3.36 0.511,-0.666 1.048,-1.497 1.194,-1.846 0.145,-0.349 0.589,-1.029 0.986,-1.51 0.397,-0.482 1.13,-1.572 1.629,-2.423 3.214,-5.485 7.649,-5.365 5.814,0.158 -0.948,2.852 -0.716,4.032 0.886,4.509 2.454,0.731 2.803,1.167 3.185,3.975 0.115,0.847 0.254,1.657 0.308,1.8 0.111,0.287 -0.901,3.491 -1.442,4.57 -0.391,0.779 -0.427,0.959 -0.157,0.792 0.329,-0.203 0.98,-1.619 1.404,-3.054 0.464,-1.566 0.347,-1.659 1.285,1.019 0.644,1.84 0.675,3.044 0.108,4.138 -0.493,0.95 -0.544,0.873 0.673,1.028 l 0.972,0.125 v -2.092 -2.091 l 1.491,0.068 c 2.795,0.127 3.552,-1.597 3.133,-7.135 -0.106,-1.398 0.385,-2.051 1.994,-2.653 1.908,-0.714 9.321,-1.241 12.224,-0.87 l 1.158,0.149 v -2.232 c 0,-1.817 0.049,-2.231 0.266,-2.231 0.16,0 0.258,0.167 0.244,0.416 -0.141,2.614 0.055,4.361 0.503,4.473 0.251,0.063 0.804,0.445 1.228,0.848 l 0.771,0.733 -0.117,-0.853 c -0.065,-0.47 -0.117,-2.093 -0.117,-3.607 v -2.752 l -10.973,0.1 c -6.034,0.056 -11.239,0.133 -11.566,0.173 l -0.595,0.073 -0.054,-1.515 -0.053,-1.515 -0.87,-0.056 -0.87,-0.056 -0.121,-0.813 c -0.067,-0.447 -0.268,-0.944 -0.447,-1.106 -0.627,-0.568 -5.804,-0.825 -9.583,-0.477 m -2.962,3.665 c 0.754,1.218 1.293,2.662 1.075,2.88 -0.207,0.207 -1.917,-3.157 -1.748,-3.435 0.143,-0.235 0.228,-0.164 0.673,0.555 m 13.661,1.046 c 0.823,1.756 0.829,1.778 0.461,1.778 -0.269,0 -1.26,-1.868 -1.497,-2.824 -0.266,-1.068 0.325,-0.472 1.036,1.046 m -3.886,0.468 c 0.617,0.618 0.802,2.051 0.263,2.051 -0.171,0 -0.278,-0.174 -0.278,-0.451 0,-0.719 -0.344,-1.429 -0.743,-1.533 -0.377,-0.099 -0.462,-0.267 -0.244,-0.485 0.225,-0.225 0.455,-0.129 1.002,0.418 m 5.945,8.023 c 0.057,6.462 0.004,7.646 -0.324,7.318 -0.486,-0.486 -0.46,-14.401 0.028,-14.401 0.184,0 0.248,1.513 0.296,7.083 m -2.21,-5.668 c 1.126,0.186 0.796,0.437 -0.574,0.437 -1.768,0 -3.555,-0.206 -3.438,-0.396 0.114,-0.183 2.976,-0.212 4.012,-0.041 m -31.62,1.535 c -0.73,0.176 -1.266,0.472 -1.589,0.877 -0.185,0.231 -0.105,0.208 0.265,-0.077 0.291,-0.224 0.812,-0.46 1.16,-0.525 0.347,-0.066 0.677,-0.193 0.732,-0.283 0.056,-0.09 0.076,-0.156 0.045,-0.145 -0.032,0.01 -0.308,0.079 -0.613,0.153 m 25.033,2.098 c -0.186,0.791 -0.304,1.583 -0.263,1.76 0.123,0.532 0.721,-1.738 0.658,-2.497 -0.052,-0.627 -0.093,-0.55 -0.395,0.737 m -25.126,-0.048 c 0,0.338 0.077,0.53 0.186,0.463 0.101,-0.063 0.185,-0.271 0.185,-0.463 0,-0.192 -0.084,-0.4 -0.185,-0.463 -0.109,-0.067 -0.186,0.125 -0.186,0.463 m -12.345,1.04 c 0.497,0.27 0.522,0.341 0.463,1.364 -0.034,0.594 0,1.041 0.077,0.994 0.076,-0.048 0.139,-0.457 0.139,-0.909 0,-0.939 0.078,-0.984 0.707,-0.406 l 0.454,0.417 -0.215,-0.413 c -0.251,-0.483 -1.461,-1.35 -1.869,-1.339 -0.155,0.004 -0.045,0.135 0.244,0.292 m 41.747,0.164 c -0.063,0.203 -0.114,0.835 -0.113,1.404 0.002,1.174 -0.275,2.347 -0.793,3.363 -0.195,0.383 -0.271,0.696 -0.169,0.696 0.487,0 1.183,-1.944 1.264,-3.528 0.09,-1.768 0.011,-2.583 -0.189,-1.935 m 20.56,1.28 c 0.855,0.974 1.032,1.75 0.908,3.986 -0.08,1.429 -0.056,1.862 0.088,1.609 0.933,-1.642 -0.07,-6.227 -1.362,-6.227 -0.104,0 0.06,0.284 0.366,0.632 m -5.979,-0.264 c -0.063,0.102 0.005,0.138 0.154,0.081 1.069,-0.411 2.03,1.777 1.942,4.421 -0.06,1.788 0.066,2.322 0.287,1.218 0.249,-1.247 0.118,-3.566 -0.248,-4.371 -0.47,-1.037 -1.806,-1.881 -2.135,-1.349 m -3.378,0.419 c 0.543,0.412 0.691,1.226 0.711,3.901 0.022,3.047 0.328,2.607 0.371,-0.535 0.029,-2.079 -0.42,-3.598 -1.063,-3.598 -0.298,0 -0.3,0.019 -0.019,0.232 m 12.797,0.885 c 0.569,0.675 0.743,1.488 0.636,2.964 -0.08,1.102 0.078,1.477 0.29,0.688 0.39,-1.455 -0.13,-3.799 -0.909,-4.098 -0.505,-0.193 -0.507,-0.137 -0.017,0.446 m 2.687,0.972 c -0.163,0.684 -0.232,1.245 -0.153,1.245 0.08,0 0.277,0.05 0.438,0.112 0.316,0.121 0.381,-0.888 0.131,-2.052 -0.105,-0.491 -0.15,-0.416 -0.416,0.695 m -53.774,-0.792 c -0.063,0.101 0.011,0.185 0.163,0.185 0.153,0 0.33,-0.084 0.393,-0.185 0.063,-0.102 -0.011,-0.186 -0.164,-0.186 -0.152,0 -0.329,0.084 -0.392,0.186 m 11.834,1.465 c -0.554,0.683 -0.864,1.312 -0.646,1.312 0.278,0 1.166,-1.244 1.096,-1.535 -0.043,-0.177 -0.182,-0.108 -0.45,0.223 m -16.186,0.889 c 0,0.422 1.567,1.227 2.497,1.282 l 0.929,0.055 -0.773,-0.167 c -0.849,-0.183 -1.826,-0.634 -2.329,-1.075 -0.178,-0.157 -0.324,-0.199 -0.324,-0.095 m 57.345,1.885 c -0.169,0.702 -0.308,1.64 -0.308,2.085 0,0.444 -0.077,1.078 -0.172,1.408 -0.095,0.331 -0.103,0.601 -0.018,0.601 0.236,0 0.561,-1.083 0.561,-1.87 0,-0.612 0.122,-1.405 0.475,-3.084 0.22,-1.048 -0.264,-0.273 -0.538,0.86 m -47.296,4.412 c 0.282,0.043 0.698,0.041 0.926,-0.003 0.228,-0.043 -0.002,-0.078 -0.512,-0.077 -0.509,0.001 -0.695,0.037 -0.414,0.08 m -16.529,2.201 c -0.001,0.112 0.504,0.776 1.121,1.474 1.544,1.75 2.478,3.725 2.949,6.238 0.96,5.121 1.151,5.97 1.6,7.09 0.264,0.658 0.557,1.197 0.651,1.197 0.095,0 0.079,-0.174 -0.036,-0.388 -0.52,-0.972 -0.975,-2.728 -1.483,-5.723 -0.806,-4.755 -1.498,-6.457 -3.426,-8.426 -0.399,-0.407 -0.872,-0.949 -1.05,-1.203 -0.179,-0.255 -0.325,-0.371 -0.326,-0.259 m 36.745,16.431 c -0.02,6.698 -0.809,9.456 -3.531,12.35 -0.699,0.743 -1.104,1.26 -0.9,1.15 1.907,-1.031 3.901,-4.617 4.554,-8.191 0.242,-1.324 0.268,-9.114 0.032,-9.533 -0.078,-0.139 -0.148,1.762 -0.155,4.224 m -55.265,-0.386 c 0,1.345 8.854,11.388 12.223,13.864 1.645,1.209 3.333,2.254 3.331,2.061 -0.001,-0.075 -0.597,-0.505 -1.325,-0.954 -3.801,-2.345 -8.875,-7.654 -13.636,-14.266 -0.326,-0.453 -0.593,-0.77 -0.593,-0.705 m 16.499,23.008 c 0.804,0.418 2.761,2.334 2.761,2.702 0,0.335 4.004,0.171 7.143,-0.292 1.724,-0.255 3.676,-0.466 4.338,-0.469 0.926,-0.005 1.364,-0.105 1.899,-0.434 l 0.695,-0.427 -1.714,-0.214 c -0.942,-0.118 -2.651,-0.339 -3.796,-0.492 -2.759,-0.367 -8.839,-0.837 -10.695,-0.826 l -1.482,0.008 0.851,0.444 m 10.724,5.208 c -5.518,3.716 -8.021,5.291 -10.431,6.565 -1.138,0.601 -2.001,1.095 -1.917,1.096 1.01,0.021 14.308,-8.261 16.23,-10.107 0.522,-0.501 0.069,-0.216 -3.882,2.446 m -23.835,2.525 c -3.185,6.694 -10.894,26.342 -14.258,36.343 -3.621,10.762 -6.69,24.283 -6.515,28.698 0.034,0.86 0.268,-0.405 0.634,-3.42 1.163,-9.604 4.289,-20.592 10.51,-36.945 6.204,-16.307 8.018,-20.831 10.002,-24.953 0.87,-1.808 1.524,-3.287 1.453,-3.287 -0.071,0 -0.893,1.604 -1.826,3.564 m 26.705,-1.435 c 0.342,1.781 1.895,3.82 3.113,4.087 0.564,0.124 3.646,-0.456 3.646,-0.686 0,-0.07 -0.479,-0.012 -1.065,0.128 -2.718,0.65 -4.126,-0.117 -5.295,-2.886 -0.278,-0.659 -0.458,-0.948 -0.399,-0.643 m 5.942,15.371 c -0.164,14.75 -0.412,22.044 -1.222,36.025 -0.192,3.315 -0.603,6.43 -0.928,7.037 -0.424,0.793 -0.726,0.708 -8.063,-2.278 -1.635,-0.666 -3.594,-1.395 -4.351,-1.62 -2.675,-0.794 -2.79,-1 -1.941,-3.494 1.068,-3.141 2.275,-9.764 3.243,-17.8 1.224,-10.155 1.712,-13.899 2.146,-16.466 0.248,-1.469 0.426,-2.696 0.395,-2.727 -0.218,-0.217 -7.258,9.104 -9.671,12.804 -3.34,5.124 -3.414,5.309 -4.35,10.833 -0.518,3.058 -4.059,28.036 -3.985,28.11 0.031,0.032 4.004,0.222 8.829,0.422 4.824,0.201 9.062,0.407 9.419,0.459 0.633,0.092 2.342,-0.76 3.889,-1.938 0.869,-0.662 18.975,-11.181 21.203,-12.318 4.995,-2.55 6.955,-3.701 6.873,-4.038 -0.043,-0.178 -4.35,-10.261 -9.571,-22.408 l -9.494,-22.085 h -1.146 -1.147 l -0.128,11.482 m -3.741,-8.121 c -0.012,0.902 -0.113,2.931 -0.225,4.51 -0.277,3.9 -0.475,9.189 -0.341,9.065 0.21,-0.193 0.921,-14.058 0.751,-14.647 -0.128,-0.442 -0.169,-0.206 -0.185,1.072 m 11.327,-1.23 c 1.576,0.781 4.218,3.44 8.554,8.61 2.827,3.371 5.87,6.554 6.073,6.351 0.06,-0.06 -0.194,-0.342 -0.565,-0.625 -0.746,-0.568 -3.383,-3.538 -6.414,-7.219 -3.096,-3.761 -7.137,-7.489 -8.118,-7.488 -0.154,0 0.057,0.167 0.47,0.371 m -24.332,3.786 c -0.239,0.351 -1.822,1.946 -3.519,3.546 -3.209,3.025 -4.009,3.838 -4.305,4.374 -0.096,0.175 0.347,-0.202 0.986,-0.838 0.638,-0.636 2.327,-2.247 3.753,-3.58 2.329,-2.178 4.071,-4.143 3.669,-4.14 -0.083,0.001 -0.346,0.288 -0.584,0.638 m 10.921,6.435 c -0.932,4.998 -1.738,11.251 -2.42,18.759 -0.665,7.327 -1.113,16.334 -0.803,16.143 0.097,-0.06 0.23,-1.759 0.295,-3.774 0.243,-7.502 1.825,-23.451 3.014,-30.403 0.251,-1.466 0.422,-2.699 0.38,-2.741 -0.042,-0.042 -0.252,0.865 -0.466,2.016 m -27.852,7.637 c -0.81,1.697 -3.645,19.62 -5.217,32.974 -0.36,3.056 -0.698,5.868 -0.752,6.25 -0.053,0.382 -0.031,0.695 0.049,0.695 0.08,0 0.419,-2.23 0.753,-4.954 1.647,-13.429 4.588,-32.854 5.234,-34.572 0.404,-1.074 0.365,-1.299 -0.067,-0.393 m 79.357,101.21 c -0.713,0.169 -1.957,1.101 -4.185,3.132 -2.669,2.434 -2.951,2.531 -5.95,2.047 -3.158,-0.509 -3.249,-0.15 -3.382,13.391 l -0.089,9.027 0.807,0.006 c 0.443,0.002 2.598,0.043 4.788,0.089 16.891,0.359 34.958,-1.05 38.287,-2.986 l 0.787,-0.457 v -1.26 c 0,-1.464 -0.559,-2.493 -2.517,-4.633 -4.147,-4.535 -16.233,-13.152 -24.099,-17.185 -2.681,-1.375 -3.112,-1.488 -4.447,-1.171 m -4.437,5.252 c 0.304,0.463 3.678,3.055 5.728,4.399 1.136,0.745 1.574,1.28 1.047,1.28 -1.03,0 -7.386,-5.084 -7.386,-5.908 0,-0.343 0.313,-0.226 0.611,0.229 m -73.721,1.43 c -0.85,0.338 -1.312,2.59 -1.783,8.693 -0.249,3.221 -0.382,5.848 -0.767,15.108 l -0.109,2.607 1.116,0.501 c 2.056,0.922 5.918,1.583 11.591,1.981 5.262,0.37 27.782,0.008 30.05,-0.483 3.299,-0.714 -6.636,-13.663 -17.914,-23.346 -5.536,-4.754 -5.507,-4.745 -14.09,-4.132 l -2.701,0.193 -2.206,-0.579 c -1.214,-0.318 -2.332,-0.609 -2.484,-0.645 -0.153,-0.037 -0.469,0.009 -0.703,0.102 m 10.169,2.721 c 1.026,1.535 3.372,4.565 4.301,5.556 0.397,0.423 0.507,0.66 0.37,0.798 -0.504,0.503 -5.804,-6.415 -5.804,-7.575 0,-0.402 0.174,-0.214 1.133,1.221 m 94.793,10.311 c 0,0.185 -0.32,0.299 -1.065,0.381 -0.586,0.065 -4.398,0.572 -8.472,1.127 -11.853,1.615 -11.949,1.623 -19.63,1.637 -6.648,0.011 -8.92,-0.136 -9.722,-0.632 -0.519,-0.321 -0.008,-0.409 0.962,-0.166 2.806,0.702 15.053,0.216 24.131,-0.958 14.363,-1.857 13.796,-1.8 13.796,-1.389 m -102.195,10.28 c 4.66,0.837 16.578,1.319 33.908,1.371 1.418,0.004 1.991,0.069 1.991,0.227 0,0.392 -0.481,0.401 -13.348,0.252 -14.423,-0.168 -17.274,-0.323 -21.838,-1.195 -1.782,-0.34 -3.761,-0.677 -4.398,-0.748 -0.636,-0.071 -1.157,-0.202 -1.157,-0.29 0,-0.305 1.817,-0.161 4.842,0.383" />
      <path style="fill:#757575;fill-opacity:1;fill-rule:evenodd;stroke:none" id="path3-9" d="m 200.926,91.004 c 0,0.316 1.537,3.31 1.606,3.129 0.099,-0.261 -1.096,-2.914 -1.397,-3.1 -0.115,-0.071 -0.209,-0.084 -0.209,-0.029 m 13.333,0.303 c 0,0.407 1.33,3.08 1.417,2.846 0.08,-0.216 -0.724,-2.135 -1.151,-2.744 -0.191,-0.273 -0.266,-0.302 -0.266,-0.102 m -3.668,1.571 c 0.342,0.186 0.583,0.547 0.768,1.15 l 0.269,0.879 0.019,-0.754 c 0.022,-0.836 -0.541,-1.567 -1.196,-1.553 -0.294,0.006 -0.269,0.056 0.14,0.278 m 26.385,1.196 c -0.199,0.717 -0.063,5.563 0.154,5.493 0.253,-0.081 0.313,-2.07 0.128,-4.197 -0.104,-1.191 -0.195,-1.609 -0.282,-1.296 m -20.206,2.87 c -0.162,3.29 -0.002,10.532 0.242,10.967 0.123,0.22 0.085,-12.765 -0.04,-13.744 -0.026,-0.204 -0.117,1.046 -0.202,2.777 m -5.289,-1.582 c -0.345,0.117 -0.132,0.162 0.834,0.177 0.713,0.011 1.754,0.071 2.315,0.135 0.696,0.078 0.96,0.054 0.833,-0.076 -0.244,-0.25 -3.387,-0.437 -3.982,-0.236 m -43.598,13.143 c -0.711,0.742 -1.491,1.046 -2.113,0.822 -0.457,-0.165 -0.526,-0.118 -0.955,0.649 -1.137,2.031 -3.571,2.766 -4.581,1.384 -0.286,-0.391 -0.258,-0.423 -2.116,2.344 -5.384,8.012 -6.214,14.553 -3.185,25.092 1.144,3.98 3.367,9.083 4.187,9.613 2.895,1.869 8.398,3.117 15.602,3.537 2.445,0.142 5.32,0.35 6.389,0.46 2.631,0.273 7.613,0.917 7.995,1.034 0.316,0.096 0.396,-0.153 0.869,-2.74 0.203,-1.107 0.261,-1.07 -1.667,-1.07 -5.207,0 -14.032,-2.498 -15.536,-4.398 -1.353,-1.709 1.902,-7.549 7.824,-14.036 l 0.874,-0.957 1.07,0.381 c 2.811,1.001 7.301,0.432 9.127,-1.156 l 0.833,-0.726 -0.535,-1.545 c -1.631,-4.707 -4.413,-8.83 -7.198,-10.67 -0.575,-0.379 -2.141,-1.683 -3.482,-2.898 -2.919,-2.645 -3.164,-2.624 -3.605,0.31 -0.13,0.866 -0.442,0.893 -1.625,0.143 -1.106,-0.701 -1.092,-0.622 0.111,0.63 2.076,2.16 2.766,3.842 3.631,8.857 0.304,1.765 0.766,3.798 1.026,4.52 0.525,1.454 0.543,1.545 0.313,1.545 -0.354,0 -1.214,-2.427 -1.635,-4.618 -0.246,-1.28 -0.605,-3.157 -0.799,-4.173 -0.442,-2.316 -1.274,-4.034 -2.766,-5.709 -0.617,-0.692 -1.121,-1.338 -1.121,-1.435 0,-0.359 -0.106,-0.474 -1.29,-1.406 -0.666,-0.524 -1.526,-1.371 -1.912,-1.882 -0.738,-0.978 -1.496,-1.63 -2.483,-2.139 -0.741,-0.381 -0.635,-0.401 -1.247,0.237 m -11.402,20.732 c 0,0.34 3.007,4.294 5.227,6.874 3.512,4.082 7.045,7.297 9.589,8.726 0.735,0.414 0.951,0.719 0.509,0.719 -0.348,-0.001 -2.826,-1.639 -4.399,-2.909 -4.128,-3.333 -12.51,-13.573 -11.111,-13.573 0.102,0 0.185,0.073 0.185,0.163 m 65.594,121.736 c -0.106,0.128 -3.28,2.479 -7.054,5.225 l -6.861,4.993 0.493,0.84 c 0.271,0.462 0.619,1.089 0.771,1.395 0.258,0.514 13.986,23.156 15.247,25.146 0.497,0.784 0.597,0.857 0.862,0.63 0.532,-0.455 0.881,-0.479 2.809,-0.193 2.482,0.369 2.85,0.229 5.348,-2.023 2.729,-2.46 3.942,-3.282 4.84,-3.282 0.401,0 0.729,-0.055 0.729,-0.122 0,-0.25 -16.729,-32.841 -16.857,-32.841 -0.074,0 -0.221,0.104 -0.327,0.232 m -54.479,14.907 c -4.327,0.541 -7.936,1.052 -8.02,1.136 -0.145,0.146 0.86,23.112 1.019,23.271 0.042,0.042 1.071,0.338 2.287,0.66 l 2.211,0.583 3.426,-0.212 c 1.884,-0.116 4.03,-0.211 4.768,-0.209 l 1.343,0.002 v -1.157 c 0.001,-0.637 0.209,-6.525 0.464,-13.086 0.255,-6.56 0.442,-11.938 0.416,-11.949 -0.026,-0.012 -3.587,0.421 -7.914,0.961 m 65.552,23.174 c 0,0.626 3.782,3.699 6.435,5.23 1.405,0.811 1.197,0.35 -0.272,-0.605 -1.975,-1.283 -5.097,-3.65 -5.654,-4.286 -0.28,-0.321 -0.509,-0.473 -0.509,-0.339 m -63.685,4.048 c 1.167,2.067 3.16,4.694 4.593,6.053 0.992,0.94 0.635,0.389 -1.334,-2.063 -1.049,-1.307 -2.297,-2.979 -2.774,-3.715 -1.036,-1.603 -1.328,-1.768 -0.485,-0.275 m 91.463,10.715 c -1.171,0.139 -3.925,0.506 -6.12,0.814 -10.805,1.518 -24.146,2.206 -27.815,1.435 -0.688,-0.144 -1.25,-0.205 -1.25,-0.135 0,0.437 3.18,0.643 9.907,0.643 7.882,0 7.94,-0.005 18.796,-1.502 4.024,-0.555 7.922,-1.06 8.664,-1.123 1.463,-0.125 2.047,-0.445 0.746,-0.408 -0.439,0.012 -1.757,0.136 -2.928,0.276 m -101.667,9.903 c 0.764,0.083 2.431,0.368 3.704,0.633 4.705,0.98 36.193,1.964 35.334,1.104 -0.054,-0.054 -6.005,-0.177 -13.225,-0.275 -14.211,-0.192 -18.548,-0.42 -22.647,-1.195 -1.365,-0.257 -2.948,-0.457 -3.518,-0.444 -1.029,0.025 -1.026,0.026 0.352,0.177" />
      <path style="fill:#2c2c2c;fill-rule:evenodd;stroke:none" id="path4-2" d="m 216.71,94.444 c 0,0.357 0.038,0.503 0.084,0.325 0.047,-0.179 0.047,-0.47 0,-0.649 -0.046,-0.178 -0.084,-0.032 -0.084,0.324 m 0.404,2.686 c 0,1.833 0.027,2.558 0.061,1.611 0.034,-0.948 0.034,-2.448 0,-3.334 -0.034,-0.886 -0.062,-0.111 -0.061,1.723 m -33.549,-2.373 c 0.178,0.047 0.47,0.047 0.648,0 0.178,-0.046 0.032,-0.084 -0.324,-0.084 -0.357,0 -0.502,0.038 -0.324,0.084 m -6.632,1.4 -0.544,0.602 0.602,-0.544 c 0.331,-0.299 0.602,-0.57 0.602,-0.601 0,-0.144 -0.153,-0.018 -0.66,0.543 m 9.18,-0.185 c 0.006,1.561 0.243,2.383 0.764,2.652 0.944,0.488 1.166,1.032 0.842,2.064 -0.153,0.487 -0.326,1.164 -0.386,1.504 -0.059,0.339 -0.272,0.848 -0.473,1.13 -0.306,0.43 -1.04,2.928 -1.428,4.856 -0.136,0.678 1.13,2.05 2.314,2.507 2.032,0.784 8.373,0.347 8.09,-0.558 -0.07,-0.223 -0.218,-0.78 -0.329,-1.238 -0.111,-0.458 -0.209,-0.848 -0.217,-0.866 -0.008,-0.018 -0.487,0.077 -1.063,0.211 -2.757,0.641 -5.244,0.461 -6.15,-0.445 -0.518,-0.518 -0.224,-1.598 1.029,-3.78 2.27,-3.952 1.839,-6.357 -1.421,-7.92 -1.339,-0.642 -1.574,-0.66 -1.572,-0.117 m 26.526,-0.289 c 0.178,0.047 0.47,0.047 0.648,0 0.178,-0.046 0.032,-0.084 -0.324,-0.084 -0.357,0 -0.502,0.038 -0.324,0.084 m -3.707,0.798 c 0,0.357 0.038,0.503 0.085,0.325 0.046,-0.179 0.046,-0.47 0,-0.649 -0.047,-0.178 -0.085,-0.032 -0.085,0.324 m 34.309,-0.076 c -0.204,0.031 -1.1,0.111 -1.991,0.176 l -1.62,0.119 v 1.176 c 0,1.505 -0.29,1.425 4.294,1.185 4.441,-0.233 4.78,-0.33 4.78,-1.367 0,-1.237 -2.308,-1.782 -5.463,-1.289 m -92.893,2.275 c -3.111,2.053 -7.385,6.64 -7.385,7.926 0,1.75 1.417,1.472 3.247,-0.636 1.474,-1.698 3.758,-3.832 4.966,-4.641 0.869,-0.581 0.992,-0.908 0.9,-2.394 -0.086,-1.388 -0.025,-1.379 -1.728,-0.255 m 81.55,-0.766 c 0.484,0.038 1.276,0.038 1.759,0 0.484,-0.038 0.088,-0.069 -0.879,-0.069 -0.968,0 -1.364,0.031 -0.88,0.069 m -19.349,1.379 c 0.13,0.159 0.206,0.404 0.17,0.545 -0.036,0.14 -0.031,0.192 0.012,0.115 0.043,-0.077 0.163,-0.088 0.266,-0.024 0.114,0.07 0.108,-0.035 -0.017,-0.267 -0.112,-0.21 -0.308,-0.444 -0.435,-0.521 -0.178,-0.107 -0.177,-0.072 0.004,0.152 m 4.003,1.911 c 0.001,1.222 0.031,1.698 0.067,1.057 0.036,-0.64 0.036,-1.64 -0.001,-2.222 -0.037,-0.582 -0.066,-0.058 -0.066,1.165 m 36.689,-1.302 c -2.857,1.257 -4.775,1.744 -7.554,1.919 -2.978,0.188 -3.786,0.802 -2.745,2.088 1.624,2.005 13.91,-1.361 13.91,-3.812 0,-1.285 -1.008,-1.34 -3.611,-0.195 m -81.495,0.9 c -0.063,0.163 -0.071,0.404 -0.019,0.534 0.053,0.131 0.102,0.036 0.11,-0.211 l 0.015,-0.449 0.432,0.406 c 0.331,0.312 0.432,0.341 0.432,0.125 0,-0.155 -0.042,-0.239 -0.093,-0.188 -0.051,0.051 -0.244,-0.044 -0.428,-0.21 -0.307,-0.278 -0.345,-0.278 -0.449,-0.007 m -0.423,1.009 c 0.025,0.43 0.108,0.782 0.183,0.782 0.134,0 -0.001,-1.303 -0.153,-1.476 -0.042,-0.048 -0.056,0.264 -0.03,0.694 m 41.69,0.041 c 0,0.458 0.037,0.646 0.081,0.417 0.044,-0.23 0.044,-0.605 0,-0.834 -0.044,-0.229 -0.081,-0.041 -0.081,0.417 m 4.074,0.185 c 0,0.458 0.037,0.646 0.081,0.417 0.044,-0.229 0.044,-0.604 0,-0.834 -0.044,-0.229 -0.081,-0.041 -0.081,0.417 m -46.52,0.848 c 0.35,0.415 0.674,0.725 0.72,0.688 0.046,-0.037 -0.241,-0.377 -0.636,-0.755 l -0.72,-0.688 0.636,0.755 m 27.472,0.335 c -0.111,0.12 -0.145,0.38 -0.076,0.578 0.107,0.303 0.143,0.273 0.232,-0.192 0.124,-0.646 0.111,-0.677 -0.156,-0.386 m 36.646,1.039 c 0,0.56 0.035,0.79 0.077,0.51 0.043,-0.281 0.043,-0.739 0,-1.019 -0.042,-0.28 -0.077,-0.051 -0.077,0.509 m -4.811,0.371 c 0,0.662 0.034,0.933 0.075,0.601 0.041,-0.331 0.041,-0.872 0,-1.203 -0.041,-0.331 -0.075,-0.06 -0.075,0.602 m -8.161,-0.278 c 0.002,0.407 0.04,0.552 0.085,0.322 0.044,-0.231 0.042,-0.564 -0.004,-0.741 -0.046,-0.177 -0.083,0.011 -0.081,0.419 m 16.118,0.185 c 0.001,0.509 0.037,0.696 0.08,0.414 0.042,-0.281 0.041,-0.698 -0.003,-0.926 -0.044,-0.228 -0.079,0.003 -0.077,0.512 m -12.784,0.926 c 0.002,0.407 0.04,0.552 0.084,0.322 0.044,-0.23 0.043,-0.564 -0.004,-0.741 -0.046,-0.177 -0.082,0.012 -0.08,0.419 m -75.148,0.917 c -1.282,1.283 0.092,2.623 1.797,1.753 l 0.754,-0.385 -0.93,-0.911 c -1.082,-1.06 -1.032,-1.046 -1.621,-0.457 m 66.814,0.194 c 0.002,0.407 0.04,0.552 0.085,0.322 0.044,-0.23 0.042,-0.564 -0.004,-0.741 -0.046,-0.177 -0.083,0.012 -0.081,0.419 m 7.801,0.556 c 0.023,0.933 0.374,1.248 0.416,0.373 0.021,-0.44 0.016,-0.437 -0.084,0.041 -0.09,0.431 -0.126,0.366 -0.231,-0.414 l -0.124,-0.926 0.023,0.926 m -7.264,0.308 c -0.015,0.374 -0.132,0.721 -0.259,0.773 -0.182,0.073 -0.18,0.096 0.006,0.108 0.314,0.019 0.456,-0.389 0.359,-1.035 -0.067,-0.451 -0.082,-0.43 -0.106,0.154 m -49.391,0.942 -0.544,0.601 0.647,-0.555 c 0.356,-0.306 0.682,-0.576 0.725,-0.602 0.043,-0.025 -0.003,-0.046 -0.103,-0.046 -0.1,0 -0.426,0.271 -0.725,0.602 m 70.888,0.139 c 0,0.356 0.038,0.502 0.084,0.324 0.047,-0.179 0.047,-0.47 0,-0.649 -0.046,-0.178 -0.084,-0.032 -0.084,0.325 m -26.825,19.814 c 0,1.172 0.03,1.651 0.067,1.065 0.036,-0.585 0.036,-1.544 0,-2.129 -0.037,-0.586 -0.067,-0.107 -0.067,1.064 m -0.39,4.074 c 0,0.459 0.036,0.646 0.08,0.417 0.044,-0.229 0.044,-0.604 0,-0.833 -0.044,-0.229 -0.08,-0.042 -0.08,0.416 m 0.373,0.463 c 0.001,0.51 0.037,0.696 0.08,0.414 0.042,-0.281 0.041,-0.698 -0.003,-0.925 -0.044,-0.228 -0.079,0.002 -0.077,0.511 m -48.201,5.741 c 0.345,0.357 0.67,0.648 0.721,0.648 0.05,0 -0.191,-0.291 -0.536,-0.648 -0.346,-0.356 -0.67,-0.648 -0.721,-0.648 -0.051,0 0.19,0.292 0.536,0.648 m 0.833,1.389 c 0.708,0.713 1.328,1.296 1.379,1.296 0.051,0 -0.486,-0.583 -1.194,-1.296 -0.707,-0.713 -1.328,-1.296 -1.379,-1.296 -0.051,0 0.487,0.583 1.194,1.296 m 1.204,0.614 c 0,0.031 0.271,0.302 0.602,0.601 l 0.601,0.544 -0.543,-0.602 c -0.507,-0.561 -0.66,-0.687 -0.66,-0.543 m 42.397,1.932 -0.638,0.695 0.694,-0.638 c 0.647,-0.594 0.78,-0.751 0.639,-0.751 -0.031,0 -0.344,0.312 -0.695,0.694 m -36.394,9.466 c 0.092,0.149 1.034,0.068 1.034,-0.089 0,-0.039 -0.255,-0.071 -0.567,-0.071 -0.311,0 -0.522,0.072 -0.467,0.16 m 4.413,0.153 c 0.179,0.046 0.47,0.046 0.649,0 0.178,-0.047 0.032,-0.085 -0.325,-0.085 -0.356,0 -0.502,0.038 -0.324,0.085 m 1.207,3.34 c 0.333,0.041 0.833,0.04 1.112,-0.002 0.278,-0.043 0.005,-0.076 -0.606,-0.075 -0.611,0.001 -0.838,0.035 -0.506,0.077 m 11.035,8.691 c -0.03,0.491 0.214,0.429 0.35,-0.088 0.049,-0.188 -0.004,-0.343 -0.117,-0.343 -0.113,0 -0.218,0.194 -0.233,0.431 m 13.008,1.515 c -0.058,0.095 0.01,0.27 0.153,0.388 0.153,0.127 0.303,0.145 0.366,0.042 0.059,-0.095 -0.01,-0.27 -0.152,-0.388 -0.154,-0.128 -0.303,-0.145 -0.367,-0.042 m -9.104,4.845 c 0,2.597 0.026,3.659 0.058,2.361 0.031,-1.299 0.031,-3.424 0,-4.723 -0.032,-1.298 -0.058,-0.236 -0.058,2.362 m 10.66,-3.612 c 0.239,0.255 0.368,0.463 0.287,0.463 -0.081,0 -0.042,0.127 0.087,0.283 0.129,0.155 0.28,0.236 0.336,0.18 0.056,-0.056 0.523,0.296 1.038,0.782 0.516,0.485 0.272,0.196 -0.54,-0.644 -0.812,-0.84 -1.514,-1.527 -1.56,-1.527 -0.046,0 0.113,0.209 0.352,0.463 m -28.101,2.392 -0.325,0.386 0.436,-0.37 c 0.24,-0.204 0.476,-0.343 0.525,-0.309 0.049,0.034 0.123,0.027 0.166,-0.015 0.042,-0.043 -0.048,-0.077 -0.2,-0.077 -0.153,0 -0.423,0.173 -0.602,0.385 m -0.892,1.451 -0.544,0.602 0.602,-0.544 c 0.331,-0.299 0.602,-0.57 0.602,-0.602 0,-0.143 -0.153,-0.017 -0.66,0.544 m -1.111,0.556 -0.544,0.601 0.602,-0.543 c 0.331,-0.3 0.602,-0.57 0.602,-0.602 0,-0.143 -0.153,-0.017 -0.66,0.544 m -2.744,2.524 c -0.593,0.598 -0.996,1.139 -0.895,1.201 0.1,0.062 0.285,-0.011 0.411,-0.163 0.126,-0.151 0.16,-0.275 0.075,-0.275 -0.085,0 0.255,-0.417 0.757,-0.926 0.502,-0.51 0.871,-0.926 0.821,-0.926 -0.051,0 -0.577,0.49 -1.169,1.089 m 17.891,1.689 c 0,0.356 0.038,0.502 0.085,0.324 0.046,-0.179 0.046,-0.47 0,-0.649 -0.047,-0.178 -0.085,-0.032 -0.085,0.325 m 24.387,2.449 c 0.654,0.68 1.266,1.189 1.36,1.131 0.094,-0.058 -0.186,-0.469 -0.622,-0.913 -0.436,-0.444 -0.834,-0.767 -0.883,-0.717 -0.05,0.049 -0.305,-0.096 -0.568,-0.324 -0.262,-0.228 0.059,0.143 0.713,0.823 m 0.663,0.328 c 0.397,0.408 0.681,0.741 0.63,0.741 -0.051,0 -0.418,-0.333 -0.816,-0.741 -0.397,-0.407 -0.681,-0.74 -0.63,-0.74 0.051,0 0.418,0.333 0.816,0.74 m -20.952,7.778 c 0,0.968 0.031,1.364 0.069,0.88 0.038,-0.484 0.038,-1.276 0,-1.76 -0.038,-0.483 -0.069,-0.087 -0.069,0.88 m -0.197,6.667 c 0,0.56 0.035,0.789 0.077,0.509 0.043,-0.28 0.043,-0.738 0,-1.018 -0.042,-0.281 -0.077,-0.051 -0.077,0.509 m -0.19,4.259 c 0,0.458 0.036,0.646 0.08,0.417 0.044,-0.229 0.044,-0.604 0,-0.834 -0.044,-0.229 -0.08,-0.041 -0.08,0.417 m -0.193,3.333 c 0,0.357 0.039,0.503 0.085,0.324 0.047,-0.178 0.047,-0.469 0,-0.648 -0.046,-0.178 -0.085,-0.032 -0.085,0.324 m -0.177,3.334 c 0,0.458 0.036,0.646 0.08,0.416 0.044,-0.229 0.044,-0.604 0,-0.833 -0.044,-0.229 -0.08,-0.042 -0.08,0.417 m -7.786,1.666 c 0,0.357 0.039,0.503 0.085,0.324 0.047,-0.178 0.047,-0.469 0,-0.648 -0.046,-0.178 -0.085,-0.032 -0.085,0.324 m -0.362,0.926 c 0,0.459 0.036,0.646 0.08,0.417 0.044,-0.229 0.044,-0.604 0,-0.833 -0.044,-0.23 -0.08,-0.042 -0.08,0.416 m 7.965,2.13 c 0.001,0.509 0.037,0.696 0.08,0.414 0.043,-0.281 0.041,-0.698 -0.003,-0.926 -0.043,-0.228 -0.078,0.003 -0.077,0.512 m -27.229,16.336 c 0.28,0.043 0.739,0.043 1.019,0 0.28,-0.042 0.051,-0.077 -0.51,-0.077 -0.56,0 -0.789,0.035 -0.509,0.077 m 4.911,0.187 c 0.333,0.041 0.833,0.04 1.111,-0.002 0.278,-0.042 0.006,-0.076 -0.605,-0.075 -0.611,10e-4 -0.839,0.036 -0.506,0.077 m 4.904,0.184 c 0.28,0.042 0.738,0.042 1.019,0 0.28,-0.043 0.05,-0.078 -0.51,-0.078 -0.56,0 -0.789,0.035 -0.509,0.078 m 4.911,0.186 c 0.333,0.042 0.833,0.041 1.111,-10e-4 0.278,-0.043 0.006,-0.076 -0.605,-0.075 -0.611,0.001 -0.839,0.035 -0.506,0.076 m 54.672,64.369 c 0,0.031 0.271,0.302 0.602,0.601 l 0.602,0.544 -0.544,-0.602 c -0.507,-0.561 -0.66,-0.686 -0.66,-0.543 m -61.435,1.559 c 0.484,0.038 1.276,0.038 1.759,0 0.484,-0.038 0.088,-0.069 -0.879,-0.069 -0.968,0 -1.364,0.031 -0.88,0.069 m -6.667,0.367 c 0.281,0.043 0.739,0.043 1.019,0 0.28,-0.042 0.051,-0.077 -0.509,-0.077 -0.56,0 -0.79,0.035 -0.51,0.077 m 63.985,14.631 c 0.333,0.042 0.833,0.041 1.111,-0.002 0.279,-0.042 0.006,-0.076 -0.605,-0.075 -0.611,0.002 -0.839,0.036 -0.506,0.077 m 7.771,0 c 0.328,0.041 0.912,0.041 1.296,10e-4 0.384,-0.04 0.115,-0.073 -0.598,-0.074 -0.713,-0.001 -1.027,0.032 -0.698,0.073 m -5.737,0.552 c 0.229,0.044 0.604,0.044 0.833,0 0.229,-0.044 0.042,-0.08 -0.416,-0.08 -0.459,0 -0.646,0.036 -0.417,0.08 m 7.778,0 c 0.229,0.044 0.604,0.044 0.833,0 0.229,-0.044 0.042,-0.08 -0.417,-0.08 -0.458,0 -0.645,0.036 -0.416,0.08 m -66.204,8.145 c 0.178,0.047 0.47,0.047 0.648,0 0.178,-0.046 0.033,-0.084 -0.324,-0.084 -0.356,0 -0.502,0.038 -0.324,0.084 m 8.531,0.197 c 1.916,0.03 4.999,0.03 6.852,0 1.852,-0.031 0.284,-0.055 -3.485,-0.055 -3.768,0 -5.284,0.025 -3.367,0.055 m 12.395,0.174 c 0.178,0.046 0.47,0.046 0.648,0 0.178,-0.047 0.033,-0.085 -0.324,-0.085 -0.356,0 -0.502,0.038 -0.324,0.085 m -22.037,0.185 c 0.178,0.047 0.47,0.047 0.648,0 0.178,-0.047 0.033,-0.085 -0.324,-0.085 -0.356,0 -0.502,0.038 -0.324,0.085 m 4.357,0.193 c 0.435,0.04 1.102,0.039 1.481,-10e-4 0.379,-0.04 0.023,-0.072 -0.792,-0.071 -0.815,10e-4 -1.125,0.033 -0.689,0.072 m 13.056,0.001 c 0.487,0.038 1.237,0.038 1.667,-0.001 0.429,-0.039 0.031,-0.07 -0.886,-0.07 -0.916,0.001 -1.268,0.033 -0.781,0.071" />
   </g>
</svg>
