<?xml version="1.0" encoding="UTF-8" standalone="no"?>
<svg xmlns:dc="http://purl.org/dc/elements/1.1/" xmlns:cc="http://creativecommons.org/ns#" xmlns:rdf="http://www.w3.org/1999/02/22-rdf-syntax-ns#" xmlns:svg="http://www.w3.org/2000/svg" xmlns="http://www.w3.org/2000/svg" viewBox="0 0 249.96497 235.23192" height="235.23192" width="249.96497" version="1.1" id="svg">
   <metadata id="metadata13">
      <rdf:RDF>
         <cc:Work rdf:about="">
            <dc:format>image/svg+xml</dc:format>
            <dc:type rdf:resource="http://purl.org/dc/dcmitype/StillImage" />
            <dc:title></dc:title>
         </cc:Work>
      </rdf:RDF>
   </metadata>
   <defs id="defs11" />
   <g id="g1304">
      <path style="fill:#ece5dd;fill-opacity:1;fill-rule:evenodd;stroke:none" id="path0-1" d="m 145.3417,29.222539 c -3.921,0.086 -9.588,0.191 -12.592,0.234 -3.872,0.055 -6.083,0.17 -7.593,0.396 -3.311,0.496 -16.738,0.616 -20.582,0.183 -2.848,-0.32 -4.464,-0.297 -7.604996,0.111 -0.785,0.102 -2.126,0.214 -2.979,0.248 -1.954,0.079 -2.645,0.38 -5.067,2.206 -3.381,2.549 -3.824,4.489 -2.859,12.531 0.87,7.253 0.924,8.686 1.032,27.222 0.105,17.805 0.316,27.497 0.658,30.092001 0.107,0.815 0.272,5.44 0.367,10.278 0.095,4.838 0.227,9.223 0.292,9.743 l 0.119,0.947 3.358,0.395 c 5.788,0.68 5.809,0.681 5.912,0.281 0.063,-0.248 0.095,-0.205 0.11,0.15 0.034,0.765 -0.201,1.217 -1.587,3.063 -0.706,0.94 -1.653,2.336 -2.104,3.102 -0.452,0.766 -0.91,1.393 -1.018,1.393 -0.92,0 -12.121,-9.497 -12.121,-10.277 0,-0.123 -0.408,-0.477 -0.907,-0.787 -1.138,-0.707 -2.437,-2.585 -3.812,-5.511 -1.385,-2.948 -1.319,-2.914 -5.373,-2.823 -3.273,0.073 -3.982,0.227 -3.982,0.864 0,0.593 0.486,0.782 2.291,0.89 l 1.755,0.104 -0.368,0.498 c -0.202,0.274 -0.431,0.95 -0.509,1.502 -0.077,0.552 -0.322,1.354 -0.544,1.783 -0.536,1.036 -0.549,0.987 0.607,2.283 1.367,1.532 2.421,2.338 3.527,2.699 1.983,0.647 2.685,1.159 2.685,1.959 0,1.689 4.626,7.731 11.019,14.393 1.019,1.061 1.757,1.875 1.64,1.807 -0.153,-0.088 -0.246,0.732 -0.335,2.979 -0.067,1.705 -0.198,4.059 -0.291,5.23 -0.093,1.171 -0.226,3.692 -0.296,5.602 l -0.127,3.472 h 0.573 c 0.75,0 0.837,-0.184 0.401,-0.845 -0.197,-0.299 -0.359,-0.623 -0.36,-0.719 -0.001,-0.096 0.242,0.209 0.54,0.678 0.598,0.943 1.578,1.591 3.162,2.092 0.561,0.177 1.802,0.652 2.759,1.055 2.594,1.093 3.649,1.255 8.003996,1.233 4.907,-0.026 7.844,0.255 9.837,0.939 2.067,0.71 2.6,0.806 3.34,0.602 0.585,-0.161 0.624,-0.145 0.554,0.223 -0.044,0.231 0.269,1.051 0.753,1.967 2.851,5.407 -0.084,11.009 -7.006,13.374 l -1.481,0.506 19.907,-0.073 c 12.335,-0.045 20.682,-0.148 21.945,-0.272 6.253,-0.616 14.105,-0.744 18.64,-0.305 4.885,0.472 5.39,0.301 8.872,-3.009 4.167,-3.961 4.34,-5.107 4.318,-28.65 -0.005,-4.481 -0.114,-11.606 -0.243,-15.833 -0.216,-7.085 -0.139,-11.048 0.223,-11.409 0.056,-0.056 0.713,0.121 1.46,0.393 1.76,0.641 3.428,0.585 5.073,-0.17 1.442,-0.662 2.842,-0.81 9.835,-1.038 6.72,-0.219 6.263,-0.139 10.618,-1.848 5.943,-2.332 6.489,-4.062 2.935,-9.301 -0.775,-1.143 -2.771,-7.443 -2.447,-7.723 0.088,-0.077 1.077,-0.833001 2.197,-1.682001 5.21,-3.948 15.278,-16.109 15.278,-18.454 0,-0.891 0.399,-1.194 2.552,-1.934 1.222,-0.421 2.397,-1.266 3.793,-2.73 1.223,-1.282 1.292,-1.626 0.599,-2.993 -0.288,-0.568 -0.463,-1.226 -0.463,-1.739 0,-0.618 -0.12,-0.969 -0.479,-1.395 l -0.48,-0.57 1.545,-0.01 c 1.849,-0.013 2.817,-0.293 2.895,-0.839 0.114,-0.798 -0.346,-0.906 -4.111,-0.966 -4.512,-0.072 -4.326,-0.167 -5.846,2.972 -1.651,3.412 -2.967,5.359 -3.986,5.9 -0.459,0.243 -0.834,0.543 -0.834,0.665 0,0.391 -7.835,7.236 -10.942,9.56 -1.988,1.487 -1.905,1.521 -3.932,-1.587 -0.947,-1.452 -1.977,-2.931 -2.289,-3.287 -0.506,-0.579 -0.591,-0.852 -0.786,-2.539 -0.375,-3.246 -3.746,-11.974 -5.829,-15.094 -1.168,-1.749 -6.52,-5.711 -7.029,-5.203 -0.653,0.654 1.216,-3.606 2.075,-4.726 0.326,-0.425 0.345,-0.427 1.337,-0.148 2.693,0.757 3.964,0.262 4.812,-1.874 1.289,-3.246 1.916,-4.078 3.263,-4.329 1.198,-0.224 1.264,-0.327 1.014,-1.572 -0.286,-1.422 -0.268,-2.411 0.064,-3.527 0.152,-0.512 0.345,-1.431 0.428,-2.043 l 0.152,-1.111 -1.743,-0.421 c -2.178,-0.525 -3.915,-1.385 -5.2,-2.574 l -0.994,-0.92 -0.858,0.525 c -0.472,0.289 -1.179,0.585 -1.571,0.657 -0.514,0.095 -1.04,0.437 -1.876,1.219 -1.165,1.09 -1.744,1.389 -1.481,0.763 0.549,-1.301 0.227,-3.009 -0.566,-3.009 -1.69,0 -3.454,3.978 -2.122,4.788 l 0.556,0.338 -0.393,0.354 c -0.57,0.512 -1.894,2.421 -2.457,3.541 -0.266,0.531 -0.64,1.049 -0.83,1.15 -0.19,0.102 -0.537,0.709 -0.77,1.35 -0.425,1.161 -1.764,4.011 -2.001,4.256 -0.068,0.071 -0.116,-2.179 -0.106,-5 0.048,-13.685 -1.738,-16.518 -10.15,-16.099 -0.946,0.047 -3.137,-0.025 -4.869,-0.159 -9.748,-0.758 -12.494,-0.832 -22.5,-0.613 m 28.186,10.37 c 5.806,1.522 7.836,6.234 5.976,13.868 l -0.675,2.769 -1.155,1.081 c -2.819,2.637 -7.654,3.773 -17.054,4.008 -2.241,0.056 -5.241,0.246 -6.667,0.421 -2.217,0.273 -4.065,0.312 -12.777,0.272 -5.602,-0.026 -12.602,0.04 -15.556,0.147 -17.66,0.641 -17.563,0.651 -21.75,-2.216 -4.993996,-3.421 -6.095996,-6.923 -3.704,-11.768 2.507,-5.078 5.617,-6.394 18.139,-7.675 9.435,-0.966 9.56,-0.974 13.148,-0.842 1.885,0.069 5.218,0.188 7.408,0.265 5.836,0.205 21.561,-0.082 24.463,-0.447 5.816,-0.73 7.024,-0.716 10.204,0.117 m -10.315,6.666 c -1.121,0.077 -4.662,0.226 -7.871,0.332 -14.925,0.495 -15.421,0.536 -15.334,1.288 l 0.057,0.493 3.981,-0.013 c 7.774,-0.027 15.677,-0.223 17.728,-0.44 1.144,-0.121 3.686,-0.236 5.648,-0.254 l 3.569,-0.033 0.055,-0.568 c 0.1,-1.027 -1.759,-1.218 -7.833,-0.805 m -49.537,0.84 c -1.373,0.163 -1.509,0.234 -1.447,0.763 0.078,0.668 0.551,0.774 2.928,0.653 1.342,-0.068 2.627,0 4.146,0.22 1.911,0.277 2.572,0.292 5,0.11 1.539,-0.116 3.938,-0.191 5.331,-0.168 2.782,0.046 3.179,-0.075 3.079,-0.937 l -0.056,-0.479 -6.574,-0.016 c -3.616,-0.009 -7.741,-0.062 -9.167,-0.119 -1.425,-0.057 -2.884,-0.069 -3.24,-0.027 m 24.352,7.611 c -1.936,0.124 -4.477,0.179 -5.649,0.12 -1.484,-0.074 -2.915,-0.009 -4.722,0.214 -2.18,0.269 -3.241,0.295 -6.666,0.163 -6.616,-0.255 -9.399,-0.148 -9.597,0.368 -0.315,0.822 0.201,0.944 4.072,0.964 2.02,0.01 4.589,0.117 5.71,0.238 1.49,0.161 2.608,0.168 4.166,0.027 4.757,-0.43 7.753,-0.591 8.982,-0.483 0.713,0.062 2.546,0.021 4.074,-0.091 1.528,-0.113 5.507,-0.222 8.843,-0.243 6.543,-0.04 6.831,-0.084 6.539,-1.005 -0.212,-0.665 -7.658,-0.794 -15.752,-0.272 m 37.567,16.284 c 0.113,3.006 0.401,4.323 1.422,6.509 1.832,3.923 2.365,4.553 8.066,9.542 l 4.69,4.105 5.516,3.168 c 3.034,1.742 6.266,3.48 7.183,3.863 0.917,0.383 2.533,1.07 3.593,1.526 1.448,0.623001 2.103,0.812001 2.639,0.761001 1.286,-0.123 0.544,1.089 -0.939,1.533 -2.95,0.884 -13.288,-4.453001 -22.152,-11.435001 -4.006,-3.156 -8.657,-9.717 -10.087,-14.231 -0.518,-1.632 -0.766,-6.85 -0.362,-7.604 0.331,-0.619 0.321,-0.673 0.431,2.263 m 21.503,-0.814 c 2.433,1.827 4.712,4.421 6.026,6.859 1.421,2.635 0.919,2.22 -3.532,-2.926 -4.642,-5.366 -4.86,-5.71 -2.494,-3.933 m 44.66,-0.031 c -0.631,0.175 -1.23,0.68 -1.23,1.038 0,0.142 -0.25,0.4 -0.555,0.574 -0.306,0.173 -0.641,0.572 -0.746,0.887 -0.104,0.315 -0.396,0.852 -0.648,1.193 -0.253,0.342 -0.459,0.767 -0.459,0.944 0,0.177 -0.353,0.559 -0.784,0.849 -1.048,0.704 -1.293,1.381 -0.683,1.89 0.247,0.206 0.574,0.324 0.726,0.263 0.153,-0.061 0.724,-0.219 1.268,-0.352 1.155,-0.281 1.628,-0.651 1.793,-1.4 0.073,-0.334 0.319,-0.643 0.644,-0.811 0.362,-0.188 0.731,-0.698 1.183,-1.638 0.42,-0.873 0.892,-1.544 1.31,-1.863 1.343,-1.024 0.096,-2.103 -1.819,-1.574 m -131.376,3.013 c 1.146,0.345 2.434,1.267 2.941,2.106 0.232,0.383 0.607,0.924 0.834,1.201 0.227,0.278 0.515,0.82 0.639,1.204 0.124,0.385 0.625,1.125 1.113,1.646 1.113,1.188 1.372,2.045 1.146,3.797 -0.09,0.701 -0.113,1.275 -0.05,1.275 0.172,0 0.01,1.33 -0.219,1.796 -0.619,1.261 1.361,5.056 2.637,5.056 0.928,0 4.262,3.289 5.262,5.191 l 0.684,1.302 0.667,-0.125 c 1.163,-0.218 7.806,-0.169 10.788,0.081 4.332,0.362 23.806,0.01 28.333,-0.513 3.633,-0.419 6.111,-0.479 7.306,-0.179 0.932,0.235 1.155,0.741 1.671,3.802001 0.362,2.144 1.947,6.981 3.408,10.401 1.575,3.687 1.561,3.343 0.177,4.495 -2.319,1.931 -6.506,2.942 -13.766,3.326 -1.833,0.096 -5.125,0.316 -7.314,0.488 -2.955,0.232 -6.951,0.331 -15.499,0.384 l -11.516,0.071 -0.074,0.591 c -0.074,0.586 -0.075,0.585 -0.104,-0.084 -0.016,-0.372 -0.321,-1.895 -0.678,-3.385 -0.356,-1.49 -0.648,-2.727 -0.648,-2.75 0,-0.022 1.98,-0.064 4.398,-0.093 2.419,-0.029 6.357,-0.137 8.75,-0.239 2.394,-0.102 6.269,-0.216 8.611,-0.252 4.983,-0.077 4.352,0.017 4.352,-0.648 0,-0.396 -0.113,-0.583 -0.416,-0.69 -0.634,-0.225 -12.208,-0.071 -15.88,0.211 -2.175,0.166 -3.758,0.195 -4.815,0.087 -0.937,-0.096 -2.249,-0.091 -3.241,0.013 -0.916,0.096 -1.729,0.176 -1.805,0.178 -0.077,0.002 -0.141,0.149 -0.144,0.327 -0.004,0.296 -1.84,-4.262 -2.392,-5.938 -0.277,-0.842 -0.586,-1.004 -1.154,-0.606 -0.698,0.489 -2.088,0.38 -3.19,-0.251 -2.074,-1.186 -2.805,-1.092 -5.392,0.696 -3.279,2.267 -5.645,1.847 -5.645,-1.001 0,-1.781 -3.447,0.153 -6.091,3.419 -0.795,0.981 -1.583,1.898 -1.751,2.038 -0.168,0.139 -0.307,0.431 -0.308,0.648 -0.003,0.433 -1.28,2.772 -1.289,2.361 -0.003,-0.141 -0.26,-0.772 -0.571,-1.404 -1.051996,-2.136 -0.881996,-4.349 0.552,-7.204 l 0.691,-1.374 -0.365,-0.712 c -0.201,-0.391 -0.674,-1.13 -1.051996,-1.641 -1.411,-1.909 -1.59,-3.236001 -0.849,-6.297001 0.334,-1.382 0.393,-1.891 0.231,-2.009 -0.135,-0.099 -0.089,-0.116 0.123,-0.048 0.186,0.061 0.453,0.11 0.591996,0.11 0.424,0 1.186,1.18 2.054,3.179 1.331,3.066001 2.094,3.373001 5.655,2.273 0.351,-0.109 1.463,1.781001 2.215,3.761001 0.568,1.497 0.541,1.512 1.729,-0.925 1.838,-3.769001 1.911,-5.003001 0.382,-6.413001 -1.695,-1.562 -1.762,-2.273 -0.459,-4.831 0.688,-1.35 0.753,-1.595 0.704,-2.68 -0.06,-1.334 -0.082,-1.284 0.664,-1.525 0.846,-0.274 0.969,-0.629 0.609,-1.762 -0.968,-3.036 -3.769,-3.735 -3.106,-0.775 0.301,1.345 0.24,1.362 -1.005,0.272 -0.705,-0.617 -1.439,-1.054 -2.198,-1.31 -0.626,-0.21 -1.342,-0.54 -1.592,-0.731 l -0.453,-0.349 -1.028,0.92 c -1.263,1.13 -3.586,2.306 -5.194996,2.629 -1.201,0.242 -1.204,0.244 -1.261,0.922 -0.069,0.813 -0.207,0.841 -0.836,0.17 -0.262,-0.281 -1.266,-1.301 -2.231,-2.269 -4.685,-4.698 -2.454,-9.842 4.421,-10.192 1.719996,-0.088 3.066996,-0.285 4.721996,-0.69 3.544,-0.868 5.009,-0.987 6.521,-0.532 m -12.045996,19.732 c 0.038,0.399 0.005,0.685 -0.074,0.637 -0.142,-0.088 -0.207,-1.362 -0.069,-1.362 0.041,0 0.105,0.326 0.143,0.725 M 167.0087,103.95954 c -1.171,0.024 -3.38,0.134 -4.907,0.244 -1.528,0.109 -4.528,0.236 -6.667,0.281 -2.139,0.046 -5.264,0.165 -6.944,0.265 -1.681,0.101 -3.999,0.186 -5.152,0.19 -2.215,0.007 -2.811,0.165 -2.811,0.747 0,0.711 0.606,0.804 4.345,0.665 1.939,-0.072 6.358,-0.205 9.821,-0.297 3.463,-0.091 6.88,-0.25 7.593,-0.353 0.713,-0.103 3.05,-0.191 5.194,-0.194 3.928,-0.006 4.343,-0.072 4.343,-0.694 0,-0.427 -1.146,-0.98 -1.945,-0.938 -0.407,0.021 -1.699,0.059 -2.87,0.084 m -38.471,1.125 c -2.96,0.059 -3.635,0.301 -3.337,1.198 0.12,0.359 7.109,0.38 7.688,0.023 0.888,-0.548 0.298,-1.4 -0.914,-1.318 -0.338,0.022 -1.884,0.066 -3.437,0.097 m -2.253,8.781 c 0.331,0.619 0.111,6.265 -0.295,7.56 -2.062,6.584 -8.674,13.727 -17.314,18.706 -0.764,0.44 -1.912,1.17 -2.552,1.623 -2.853,2.021 -8.577996,4.25 -10.347996,4.029 -1.859,-0.232 -2.774,-1.467 -1.199,-1.618 0.495,-0.047 1.558,-0.388 2.361,-0.757 0.803,-0.369 2.127,-0.923 2.941,-1.23 2.877996,-1.085 13.148996,-7.107 14.283996,-8.375 0.19,-0.212 1.096,-1.018 2.013,-1.791 7.63,-6.431 9.99,-10.47 9.621,-16.465 -0.13,-2.112 0.006,-2.582 0.488,-1.682 m -19.49,1.033 c -7.165996,8.508 -7.563996,8.941 -7.563996,8.229 0,-1.415 5.678996,-8.001 7.407996,-8.592 0.408,-0.139 0.466,-0.005 0.156,0.363 m -45.670996,0.706 c -0.577,0.405 -0.516,0.676 0.298,1.331 0.441,0.354 0.931,1.034 1.294,1.793 0.352,0.737 0.755,1.301 1.014,1.419 0.255,0.116 0.538,0.507 0.697,0.963 0.281,0.806 0.186,0.749 2.407,1.458 1.586,0.505 2.032,-1.074 0.544,-1.924 -0.514,-0.294 -0.737,-0.546 -0.738,-0.837 -10e-4,-0.23 -0.151,-0.567 -0.333,-0.749 -0.183,-0.183 -0.443,-0.6 -0.579,-0.927 -0.135,-0.327 -0.507,-0.83 -0.825,-1.118 -0.319,-0.288 -0.671,-0.683 -0.783,-0.879 -0.455,-0.795 -2.181,-1.101 -2.996,-0.53 m 38.499,2.241 c -0.206,0.391 -0.379,0.652 -0.384,0.579 -0.013,-0.213 0.607,-1.444 0.687,-1.364 0.04,0.04 -0.096,0.393 -0.303,0.785 m 30.110996,5.387 c -0.042,0.281 -0.077,0.051 -0.077,-0.509 0,-0.56 0.035,-0.789 0.077,-0.509 0.043,0.28 0.043,0.738 0,1.018 m -58.809996,0.955 c -0.186,0.116 -0.195,0.191 -0.034,0.291 0.255,0.157 0.445,0.018 0.351,-0.256 -0.038,-0.112 -0.169,-0.126 -0.317,-0.035 m 58.994996,1.823 c -0.042,0.28 -0.077,0.051 -0.077,-0.509 0,-0.56 0.035,-0.789 0.077,-0.509 0.043,0.28 0.043,0.738 0,1.018 m 3.71,0.924 c -0.585,0.037 -1.544,0.037 -2.129,0 -0.586,-0.037 -0.107,-0.067 1.065,-0.067 1.171,0 1.65,0.03 1.064,0.067 m 6.204,-0.006 c -0.229,0.044 -0.604,0.044 -0.833,0 -0.229,-0.044 -0.042,-0.08 0.416,-0.08 0.459,0 0.646,0.036 0.417,0.08 m 15.926,7.778 c -0.229,0.044 -0.604,0.044 -0.833,0 -0.229,-0.044 -0.042,-0.081 0.416,-0.081 0.459,0 0.646,0.037 0.417,0.081 m -62.665996,9.684 c -0.013,0.378 -0.032,0.395 -0.105,0.092 -0.05,-0.203 -0.269,-0.572 -0.488,-0.818 l -0.398,-0.448 0.503,0.355 c 0.331,0.234 0.498,0.514 0.488,0.819 m 77.804996,-0.683 c 0,0.032 -0.271,0.303 -0.602,0.602 l -0.602,0.544 0.544,-0.602 c 0.507,-0.561 0.66,-0.687 0.66,-0.544 m -45.022,6.217 c -0.214,0.634 -0.421,1.121 -0.46,1.082 -0.039,-0.039 0.104,-0.589 0.319,-1.224 0.214,-0.634 0.421,-1.122 0.46,-1.083 0.039,0.039 -0.105,0.59 -0.319,1.225 m -35.272996,1.642 c -0.185,0.28 -0.568,0.926 -0.851,1.435 -0.551,0.993 -0.724,1.022 -0.215,0.037 0.401,-0.775 1.201,-1.981 1.314,-1.981 0.049,0 -0.062,0.229 -0.248,0.509 m 33.556996,2.574 c -0.257,0.494 -0.471,0.838 -0.476,0.764 -0.013,-0.209 0.794,-1.811 0.873,-1.732 0.038,0.039 -0.14,0.475 -0.397,0.968 m -35.541996,2.241 c -0.046,0.178 -0.085,0.032 -0.085,-0.324 0,-0.357 0.039,-0.503 0.085,-0.325 0.047,0.179 0.047,0.47 0,0.649 m 33.955996,1.138 c -0.314,0.622 -0.61,1.13 -0.658,1.13 -0.049,0 0.177,-0.539 0.502,-1.198 0.325,-0.658 0.621,-1.167 0.658,-1.129 0.038,0.037 -0.188,0.576 -0.502,1.197 m -43.634996,47.718 c -0.603,0.456 -1.701,1.131 -2.439,1.501 -0.739,0.369 -1.343,0.708 -1.343,0.754 0,0.072 2.792,3.773 3.157,4.185 0.077,0.087 0.423,0.055 0.769,-0.07 0.533,-0.193 0.723,-0.18 1.236,0.085 0.876,0.454 1.645,-0.375 2.16,-2.328 l 0.248,-0.942 -1.205,-1.921 c -1.482,-2.36 -1.272,-2.257 -2.583,-1.264 m -51.595,0.038 c -0.936,0.984 -4.202,5.111 -5.115,6.463 l -0.772,1.145 0.571,0.571 c 0.528,0.529 0.566,0.651 0.508,1.66 -0.139,2.415 1.802,2.845 4.209,0.932 0.377,-0.3 0.849,-0.545 1.05,-0.545 0.2,0 0.71,-0.267 1.132,-0.594 1.299,-1.005 5.86,-4.803 5.86,-4.88 0,-0.04 -0.861,-0.479 -1.914,-0.976 -2.163,-1.021 -3.14,-1.813 -4.164,-3.38 l -0.709,-1.086 -0.656,0.69 m 150.609996,1.31 c -1.212,1.703 -3.294,6.905 -3.089,7.72 0.329,1.31 2.702,2.863 4.376,2.863 0.619,0 4.079,-4.079 5.602,-6.603 0.085,-0.141 -0.293,-0.342 -1.121,-0.594 -1.633,-0.497 -2.789,-1.25 -4.207,-2.74 l -1.156,-1.214 -0.405,0.568 m 40.814,0.145 c -0.509,0.142 -2.415,0.399 -4.234,0.572 l -3.309,0.313 0.121,1.182 c 0.109,1.061 1.113,5.549 1.278,5.714 0.623,0.623 4.546,0.309 6.177,-0.494 l 1.171,-0.576 v -3.507 c 0,-1.929 -0.063,-3.497 -0.139,-3.484 -0.076,0.013 -0.555,0.139 -1.065,0.28" />
      <path style="fill:#757575;fill-opacity:1;fill-rule:evenodd;stroke:none" id="path1-2" d="m 117.6567,5.139539 c -2.546,0.079 -5.504,0.237 -6.574,0.352 -1.069,0.114 -3.444,0.284 -5.278,0.377 -12.489996,0.639 -19.892996,4.541 -22.715996,11.974 l -0.594,1.564 -1.832,0.926 c -5.31,2.683 -7.004,4.227 -5.876,5.354 0.549,0.55 1.046,0.459 2.685,-0.491 0.815,-0.472 2.103,-1.218 2.863,-1.657 0.759,-0.44 1.393,-0.782 1.409,-0.761 0.016,0.021 -0.088,0.747 -0.231,1.613 -0.448,2.72 -0.512,9.953 -0.147,16.759 0.535,9.992 0.429,21.549 -0.311,33.889 -0.293,4.891 0.079,30.883001 0.489,34.167001 0.307,2.455 0.732,11.132 0.576,11.753 -0.083,0.33 -0.204,0.4 -0.571,0.33 -0.256,-0.049 -0.466,-0.007 -0.466,0.094 0,0.529 9.588,8.896 11.467,10.007 l 0.719,0.424 0.603,-1.072 c 0.718,-1.278 2.008,-3.156 2.972,-4.325 1.157,-1.404 1.147,-1.788 -0.05,-1.915 -2.894,-0.308 -7.706,-0.888 -8.046,-0.97 -0.543,-0.131 -0.658,-1.76 -0.731,-10.345 -0.037,-4.352 -0.166,-8 -0.352,-10 -0.432,-4.625001 -0.651,-14.052001 -0.757,-32.592001 -0.098,-17.083 -0.17,-18.994 -0.945,-25.186 -0.994,-7.936 -0.48,-10.399 2.661,-12.766 2.278,-1.716 3.552,-2.326 4.857,-2.326 0.574,0 2.04,-0.133 3.258,-0.296 1.762,-0.236 2.896,-0.267 5.547996,-0.151 7.012,0.306 20.497,0.2 23.241,-0.182 1.867,-0.26 3.811,-0.359 7.685,-0.39 7.169,-0.058 17.769,-0.271 20.019,-0.404 1.113,-0.065 3.364,0.01 5.556,0.187 6.586,0.529 10.656,0.756 14.147,0.789 8.508,0.079 9.657,1.722 10.011,14.318 0.093,3.3 0.206,6.037 0.252,6.083 0.119,0.12 0.896,-1.492 1.495,-3.102 0.284,-0.764 0.701,-1.556 0.926,-1.76 0.224,-0.203 0.765,-1.009 1.201,-1.79 0.436,-0.781 1.163,-1.843 1.616,-2.361 0.483,-0.551 0.715,-0.941 0.561,-0.941 -1.416,0 -0.927,-2.728 0.797,-4.452 1.475,-1.475 2.674,-0.385 2.033,1.848 -0.271,0.946 -0.113,0.913 1.077,-0.222 0.752,-0.717 1.332,-1.099 1.9,-1.25 0.449,-0.119 1.249,-0.463 1.778,-0.763 0.929,-0.528 0.968,-0.535 1.154,-0.187 1.136,2.122 6.923,4.115 10.795,3.717 6.239,-0.641 7.113,-5.069 2.01,-10.183 -4.741,-4.75 -10.983,-6.306 -16.03,-3.996 l -1.029,0.471 -0.67,-0.455 c -1.27,-0.862 -2.73,-0.52 -4.383,1.025 l -1.164,1.09 -0.333,-1.794 c -1.088,-5.866 -2.609,-8.77 -6.935,-13.243 -4.931,-5.099 -11.621,-6.601 -25.858,-5.808 -4.442,0.247 -11.562,-0.071 -14.63,-0.655 -2.332,-0.443 -12.936,-0.599 -21.852,-0.32 m -39.990996,9.756 c -2.558,0.65 -9.731,7.47 -9.731,9.252 0,1.768 1.388,1.465 3.341,-0.728 2.008,-2.256 3.785,-3.825 5.826,-5.146 2.427,-1.571 2.591,-1.721 2.541,-2.32 -0.081,-0.986 -0.783,-1.361 -1.977,-1.058 m 90.268996,24.252 c -0.458,0.035 -2.375,0.238 -4.259,0.452 -3.827,0.434 -23.041,0.597 -32.315,0.274 -3.638,-0.127 -4.915,-0.101 -7.037,0.142 -1.426,0.163 -4.676,0.508 -7.222,0.765 -11.082,1.119 -14.256,2.491 -16.701,7.221 -2.610996,5.052 -1.441996,8.534 4.104,12.224 3.433,2.285 4.89,2.452 16.671,1.911 2.546,-0.116 10.504,-0.228 17.685,-0.248 10.727,-0.03 13.518,-0.091 15.648,-0.34 1.461,-0.17 4.033,-0.303 5.892,-0.304 2.671,-0.002 4.065,-0.11 7.315,-0.568 6.478,-0.911 7.488,-1.259 9.733,-3.352 l 1.26,-1.175 0.624,-2.555 c 1.092,-4.465 1.005,-6.733 -0.37,-9.664 -1.221,-2.604 -2.418,-3.466 -6.04,-4.351 -2.152,-0.525 -2.897,-0.59 -4.988,-0.432 m 2.396,6.906 c 0.706,0.203 0.93,0.457 0.934,1.057 0.005,0.631 -0.162,0.658 -4.323,0.706 -2.153,0.024 -4.914,0.15 -6.137,0.279 -1.222,0.129 -4.097,0.249 -6.389,0.266 -2.291,0.018 -6.375,0.099 -9.074,0.181 -5.443,0.164 -5.737,0.117 -5.487,-0.88 0.175,-0.699 -0.091,-0.679 16.598,-1.267 8.541,-0.301 12.469,-0.45 12.872,-0.488 0.204,-0.02 0.657,0.046 1.006,0.146 m -50.859,1.018 c 1.327,0.217 2.431,0.235 5.926,0.094 7.146,-0.288 7.537,-0.254 7.537,0.664 0,1.081 -5.256,1.365 -16.944,0.914 -3.95,-0.152 -4.466,-0.338 -3.811,-1.374 0.337,-0.533 4.759,-0.713 7.292,-0.298 m 34.05,7.398 c 0.91,0.396 0.278,1.705 -0.795,1.646 -3.615,-0.198 -22.861,0.317 -25.903,0.693 -1.213,0.15 -2.737,0.17 -4.908,0.064 -1.731,-0.084 -4.701,-0.159 -6.599,-0.166 -3.699,-0.015 -4.049,-0.096 -4.049,-0.943 0,-0.866 2.955,-1.074 8.982,-0.634 2.794,0.204 3.491,0.193 6.203,-0.101 1.698,-0.185 4.867,-0.355 7.13,-0.384 2.241,-0.028 6.241,-0.129 8.889,-0.223 5.255,-0.188 10.561,-0.165 11.05,0.048 m 82.775,9.114 c -0.137,0.06 -0.746,0.787 -1.353,1.615 l -1.103,1.507 1.786,0.188 c 3.774,0.399 2.925,2.052 -1.085,2.113 l -0.893,0.013 0.384,0.488 c 0.265,0.337 0.383,0.759 0.383,1.362 0,0.576 0.158,1.17 0.463,1.744 0.738,1.386 0.661,1.627 -1.064,3.349 -1.55,1.546 -2.389,2.091 -4.16,2.7 -1.469,0.506 -1.812,0.802 -1.755,1.515 0.038,0.468 -0.22,1.033 -1.157,2.535 -1.41,2.26 -1.41,2.261 0.151,1.53 3.093,-1.447 5.947,-3.448 6.134,-4.3 0.16,-0.726 0.382,-0.833 0.953,-0.459 1.076,0.705 3.504,-0.914 2.651,-1.767 -0.649,-0.649 -0.478,-1.401 0.47,-2.069 0.458,-0.323 0.833,-0.732 0.833,-0.908 0,-0.177 0.203,-0.562 0.451,-0.857 0.248,-0.294 0.589,-0.881 0.758,-1.303 0.169,-0.422 0.46,-0.816 0.647,-0.876 0.186,-0.059 0.51,-0.397 0.719,-0.75 0.481,-0.817 1.132,-1.067 2.474,-0.95 l 1.067,0.093 0.46,-0.786 c 0.929,-1.585 0.701,-1.865 -3.256,-4.001 -3.066,-1.655 -4.21,-2.054 -4.958,-1.726 m -61.12,5.241 c -0.377,0.665 -0.166,5.006 0.339,6.939 1.646,6.306 6.85,12.681 14.734,18.051 10.733,7.310001 17.494,9.837001 18.965,7.089001 0.177,-0.333 0.125,-0.359 -0.712,-0.359 -0.66,0 -1.347,-0.201 -2.542,-0.743001 -0.9,-0.409 -2.47,-1.094 -3.489,-1.522 -2.009,-0.845 -11.332,-6.112 -12.947,-7.315 -9.743,-7.256 -13.695,-12.834 -13.974,-19.722 -0.104,-2.578 -0.142,-2.825 -0.374,-2.418 m 20.937,1.075 c 2.652,3.146 7.435,8.568 7.5,8.503 0.542,-0.542 -3.392,-5.601 -5.941,-7.64 -1.437,-1.15 -2.12,-1.528 -1.559,-0.863 m -89.012,3.125 c -4.145,1.069 -6.725,1.54 -7.863996,1.434 -3.395,-0.316 -6.859,2.254 -6.859,5.088 0,1.967 0.571,3.148 2.361,4.882 0.892,0.864 1.815,1.833 2.052,2.155 0.553,0.751 0.773,0.74 0.773,-0.04 0,-0.588 0.044,-0.631 0.758,-0.746 2.108996,-0.337 4.894996,-1.739 6.264996,-3.153 0.625,-0.644 0.626,-0.644 1.069,-0.296 0.244,0.192 1.021,0.57 1.727,0.84 0.8,0.306 1.633,0.804 2.208,1.321 l 0.924,0.831 -0.111,-1.192 c -0.232,-2.481 1.421,-2.605 2.824,-0.21 1.037,1.769 0.94,2.863 -0.275,3.105 l -0.562,0.113 0.104,1.163 c 0.099,1.11 0.065,1.239 -0.747,2.818 -1.243,2.418 -1.208,2.976 0.286,4.482 1.788,1.804 1.758,2.575 -0.259,6.780001 -1.321,2.753 -1.22,2.685 -1.783,1.204 -0.636,-1.674 -1.879,-4.028001 -2.125,-4.026001 -0.116,0.001 -0.669,0.125 -1.229,0.276 -2.596,0.697001 -3.415,0.265001 -4.569,-2.408 -1.741,-4.033 -2.198996,-4.21 -2.902996,-1.127 -0.685,3.001 -0.459,4.266001 1.117996,6.243001 0.295,0.37 0.69,1.013 0.878,1.43 l 0.342,0.759 -0.658,1.255 c -1.344996,2.566 -1.602996,5.206 -0.682,6.995 0.639,1.241 0.843,1.237 1.395,-0.029 0.587,-1.346 0.507,-1.222 1.838,-2.85 2.603,-3.184 3.231,-3.699 5.437,-4.458 1.45,-0.499 1.507,-0.48 1.507,0.495 0,2.956 2.321,3.085 6.197,0.346 1.804,-1.275 2.49,-1.304 4.718,-0.203 0.758,0.375 1.527,0.681 1.709,0.681 0.775,0 1.859,-0.623 2.3,-1.322 l 0.451,-0.715 h 3.665 c 3.762,0 4.109,0.064 4.109,0.749 0,0.856 -0.541,0.983 -4.249,0.997 -1.924,0.008 -3.552,0.067 -3.617,0.132 -0.262,0.262 2.165,6.111 2.477,5.967 0.163,-0.075 2.338,-0.152 4.833,-0.172 2.495,-0.019 5.579,-0.126 6.852,-0.238 2.68,-0.237 13.181,-0.331 13.937,-0.125 1.596,0.434 0.533,1.868 -1.247,1.682 -0.614,-0.064 -3.741,-0.023 -6.949,0.09 -3.209,0.113 -8.35,0.264 -11.425,0.336 -3.076,0.071 -5.632,0.17 -5.68,0.218 -0.049,0.049 0.178,1.213 0.504,2.587 l 0.592,2.5 h 11.384 c 16.279,0 26.994,-0.679 32.468,-2.057 2.358,-0.594 3.128,-0.97 4.417,-2.156 l 1.056,-0.973 -1.295,-3.055 c -0.712,-1.681 -1.493,-3.639 -1.734,-4.352 -1.191,-3.521 -1.595,-4.967 -1.863,-6.667 -0.593,-3.772001 -1.186,-3.968001 -9.258,-3.057001 -4.991,0.564 -23.351,0.834 -28.796,0.423 -2.418,-0.182 -4.774,-0.235 -7.13,-0.161 l -3.518,0.11 -0.648,-1.236 c -0.974,-1.857 -4.229,-5.06 -5.143,-5.06 -1.229,0 -2.913,-2.878 -2.744,-4.691 0.474,-5.097 0.361,-5.968 -0.962,-7.403 -0.487,-0.529 -0.997,-1.295 -1.133,-1.702 -0.137,-0.408 -0.388,-0.908 -0.559,-1.112 -0.171,-0.203 -0.543,-0.717 -0.826,-1.142 -1.142,-1.712 -4.148,-2.866 -6.133,-2.353 m 112.222,4.342 c -3.71,1.216 -6.253,1.68 -11.25,2.055 -3.211,0.241 -3.274,0.275 -2.538,1.358 2.291,3.371 4.382,6.287 4.545,6.338 0.613,0.189 11.946,-9.178 12.628,-10.437 0.299,-0.551 0.539,-0.6 -3.385,0.686 m -48.048,26.658001 c 0.64,0.342 0.789,0.866 0.367,1.288 -0.353,0.353 -0.61,0.374 -4.495,0.38 -2.266,0.004 -4.704,0.094 -5.417,0.201 -0.713,0.107 -3.421,0.221 -6.018,0.254 -2.597,0.033 -6.881,0.15 -9.518,0.26 -5.141,0.214 -5.701,0.151 -5.815,-0.646 -0.108,-0.749 0.293,-0.829 5.086,-1.015 2.529,-0.098 5.765,-0.246 7.191,-0.328 1.426,-0.083 3.259,-0.12 4.074,-0.083 0.815,0.037 2.773,-0.05 4.352,-0.194 3.457,-0.314 9.69,-0.386 10.193,-0.117 m -105.131996,5.445 c -1.609,0.749 -5.129,2.724 -5.57,3.125 -1.038,0.943 -0.147,2.821 1.247,2.63 1.002,-0.138 2.081,0.216 2.384,0.784 0.104,0.194 0.528,0.691 0.941,1.105 0.414,0.413 0.752,0.931 0.752,1.15 0,0.219 0.121,0.444 0.269,0.501 0.148,0.057 0.362,0.386 0.476,0.732 0.114,0.345 0.472,0.814 0.796,1.041 1.115,0.783 1.315,1.335 0.688,1.902 -1.075,0.973 1.145,2.418 2.577,1.678 0.569,-0.295 0.749,-0.144 0.749,0.626 0,0.408 0.499,0.864 2.122,1.943 1.694,1.127 4.999,2.819 4.874,2.495 -0.054,-0.14 -0.572,-1.004 -1.151,-1.921 -0.841,-1.332 -1.039,-1.789 -0.985,-2.276 0.08,-0.721 -0.334,-1.035 -2.267,-1.72 -1.446,-0.513 -2.455,-1.243 -3.805,-2.756 -1.128,-1.265 -1.213,-1.642 -0.624,-2.772 0.212,-0.407 0.447,-1.196 0.523,-1.753 0.075,-0.558 0.236,-1.133 0.357,-1.278 0.235,-0.284 -0.707,-0.5 -2.176,-0.5 -2.395,0 -1.936,-1.539 0.56,-1.882 0.855,-0.117 1.582,-0.235 1.617,-0.263 0.13,-0.103 -1.866,-2.587 -2.253,-2.802 -0.592,-0.331 -1.033,-0.286 -2.101,0.211 m 59.839996,5.939 c 0.35,5.907 -2.183,10.386 -9.16,16.204 -0.662,0.551 -1.662,1.437 -2.222,1.967 -1.905,1.802 -11.234,7.388 -14.352,8.593 -0.610996,0.236 -1.938996,0.794 -2.949996,1.239 -1.011,0.446 -2.202,0.86 -2.646,0.92 -1.375,0.189 -0.383,1.174 1.326,1.316 1.971,0.163 8.219996,-2.415 10.545996,-4.35 0.295,-0.246 0.961,-0.659 1.482,-0.919 8.081,-4.038 16.738,-13.487 17.969,-19.615 0.439,-2.186 0.562,-6.391 0.199,-6.836 -0.282,-0.346 -0.295,-0.25 -0.192,1.481 m -20.261,-0.083 c -2.489,1.967 -5.723996,5.846 -6.363996,7.63 -0.138,0.386 0.027,0.424 0.315,0.072 0.113,-0.138 1.663996,-1.95 3.446996,-4.027 4.346,-5.064 4.328,-5.039 2.602,-3.675 m 103.849,2.199 c -4.204,1.668 -4.322,1.688 -10.341,1.782 -5.967,0.093 -8.266,0.33 -9.817,1.011 -1.935,0.849 -3.093,0.904 -5.03,0.236 l -1.59,-0.548 -0.17,2.331 c -0.112,1.542 -0.093,4.433 0.056,8.535 0.502,13.838 0.358,34.346 -0.266,37.793 -0.722,3.992 -1.195,4.87 -4.085,7.584 -3.216,3.022 -4.15,3.277 -9.931,2.714 -2.968,-0.29 -12.035,-0.153 -15.556,0.234 -4.196,0.46 -43.796,0.778 -43.796,0.351 0,-0.067 0.604,-0.302 1.343,-0.524 6.774,-2.032 10.117,-8.146 7.191,-13.152 -0.387,-0.662 -0.756,-1.423 -0.821,-1.691 -0.106,-0.443 -0.198,-0.488 -0.998,-0.484 -0.529,0.002 -1.66,-0.259 -2.826,-0.652 -2.241,-0.756 -6.968,-1.212 -10.393,-1.003 -2.315,0.141 -4.643996,-0.122 -6.130996,-0.692 -0.638,-0.246 -1.953,-0.745 -2.92,-1.11 -0.968,-0.364 -2.281,-0.922 -2.918,-1.24 -0.915,-0.455 -1.293,-0.551 -1.805,-0.455 l -0.648,0.122 v -3.246 c 0,-1.785 0.085,-4.268 0.19,-5.517 0.104,-1.25 0.256,-3.772 0.338,-5.606 l 0.149,-3.333 -1.681,-1.766 c -0.925,-0.971 -2.556,-2.747 -3.625,-3.946 l -1.945,-2.181 -0.065,0.891 c -0.035,0.49 0.033,3.682 0.151,7.095 0.165,4.733 0.164,6.708 -0.001,8.333 -0.119,1.171 -0.27,3.958 -0.336,6.193 l -0.119,4.064 -8.148,1.249 c -9.452,1.449 -12,2.012 -14.408,3.185 -2.7,1.316 -6.068,4.44 -7.994,7.417 -0.535,0.827 -1.576,2.211 -2.312,3.077 -0.737,0.866 -2.867,3.866 -4.734,6.667 -1.868,2.801 -4.315,6.342 -5.439,7.87 -1.124,1.528 -2.393,3.403 -2.82,4.167 -1.96,3.506 -2.5,4.329 -4.438,6.759 -1.137,1.426 -2.242,2.951 -2.456,3.389 l -0.389,0.796 0.458,0.87 c 0.873,1.662 2.456,3.007 4.682,3.982 2.391,1.047 2.17,1.108 4.811,-1.329 0.998,-0.921 2.693,-2.352 3.766,-3.181 1.074,-0.829 2.508,-2.012 3.187,-2.63 0.678,-0.618 1.859,-1.619 2.623,-2.224 0.763,-0.605 2.128,-1.904 3.031,-2.886 0.904,-0.983 2.871,-3.037 4.373,-4.565 1.501,-1.528 3.378,-3.603 4.17,-4.612 l 1.441,-1.834 0.271,0.538 c 0.149,0.296 0.919,1.705 1.711,3.13 0.792,1.426 2.293,4.176 3.336,6.112 2.104,3.905 2.93,5.144 5.863,8.792 2.609,3.245 2.57,3.224 4.435,2.339 1.398,-0.664 3.961,-2.435 3.961,-2.737 0,-0.232 -1.518,-5.029 -3.301,-10.431 -2.342,-7.099 -2.993,-9.686 -2.522,-10.031 0.866,-0.633 4.317,-1.36 6.438,-1.357 l 0.959,0.002 0.044,1.063 c 0.024,0.585 0.201,1.438 0.394,1.897 0.236,0.562 0.384,1.495 0.456,2.87 0.276,5.285 2.011,8.579 6.735,12.786 3.116,2.775 4.526,3.503 8.24,4.256 1.254,0.255 2.675996,0.594 3.159996,0.753 0.677,0.224 1.937,0.306 5.463,0.356 2.52,0.036 7.288,0.155 10.595,0.265 5.937,0.197 10.324,0.148 32.413,-0.363 4.329,-0.1 10.018,-0.263 12.642,-0.362 2.624,-0.1 4.999,-0.136 5.277,-0.081 1.245,0.246 9.133,-2.02 10.811,-3.104 l 1.087,-0.703 -0.259,0.598 c -0.143,0.33 -0.436,0.988 -0.651,1.462 -0.501,1.106 -0.398,1.362 1.22,3.033 1.611,1.664 2.647,2.368 4.303,2.926 0.73,0.246 1.379,0.499 1.442,0.562 0.613,0.613 1.449,-0.24 4.126,-4.208 1.724,-2.556 2.994,-4.193 4.545,-5.861 1.184,-1.273 2.622,-3.023 3.195,-3.889 1.552,-2.345 2.671,-3.841 7.063,-9.44 l 3.991,-5.088 0.13,0.736 c 0.213,1.205 0.519,7.55 0.521,10.79 0.002,3.463 0.21,5.653 0.846,8.928 0.248,1.273 0.451,2.785 0.451,3.359 0.001,0.726 0.102,1.169 0.332,1.453 l 0.33,0.408 3.793,-0.384 c 2.086,-0.211 4.183,-0.501 4.66,-0.644 0.476,-0.144 0.902,-0.225 0.946,-0.182 0.18,0.181 1.046,-1.108 1.163,-1.731 0.244,-1.303 -0.086,-8.598 -0.581,-12.835 -0.401,-3.432 -0.513,-5.456 -0.636,-11.481 -0.083,-4.023 -0.241,-8.398 -0.351,-9.722 -0.11,-1.325 -0.332,-4.366 -0.492,-6.76 -0.781,-11.642 -0.91,-12.684 -2.23,-18.049 -0.599,-2.432 -0.637,-2.775 -0.638,-5.741 -0.003,-4.475 -0.46,-10.382 -1.113,-14.366 -0.772,-4.711 -1.711,-9.624 -1.837,-9.61 -0.057,0.006 -1.743,0.661 -3.745,1.456 m -22.002,18.81 c 0.787,2.241 1.892,5.451 2.457,7.133 1.337,3.985 4.133,9.892 6.758,14.28 3.852,6.44 3.846,6.646 -0.315,10.97 -2.852,2.964 -5.15,6.289 -7.058,10.21 -0.694,1.426 -1.551,3.043 -1.903,3.594 l -0.642,1.003 -0.119,-4.799 c -0.141,-5.67 -0.335,-9.816 -0.853,-18.216 -0.37,-6.001 -0.366,-12.4 0.016,-28.156 0.009,-0.357 0.064,-0.523 0.123,-0.371 0.058,0.153 0.75,2.112 1.536,4.352 m -104.824996,72.605 c -0.099,0.261 -0.18,0.557 -0.18,0.657 0,0.275 -0.542,1.291 -1.05,1.97 -0.438,0.585 -0.466,0.594 -0.988,0.324 -2.013,-1.041 -2.323,-0.359 -2.573,5.648 -0.145,3.486 -0.28,3.882 -1.615,4.726 -1.717,1.085 -4.515,4.237 -4.515,5.086 0,2.329 2.402,2.334 7.396,0.016 1.279,-0.594 2.618,-1.173 2.974,-1.287 1.998,-0.641 2.204,-1.015 4.03,-7.321 2.229,-7.697 2.095,-8.353 -2.016,-9.916 -1.249,-0.474 -1.245,-0.475 -1.463,0.097 m -62.898,4.244 c -0.216,0.152 -1.202,1.486 -2.192,2.965 -2.05,3.063 -2.345,3.356 -4.097,4.071 -5.994,2.443 -8.779,4.993 -8.544,7.824 0.253,3.052 4.282,2.908 11.482,-0.409 3.054,-1.408 3.926,-2.05 4.742,-3.496 0.643,-1.141 0.895,-1.29 1.674,-0.997 0.979,0.37 4.125,-0.881 5.519,-2.196 0.742,-0.7 0.764,-1.114 0.182,-3.5 -0.47,-1.925 -0.797,-2.159 -1.818,-1.3 -2.094,1.762 -4.854,1.394 -4.407,-0.588 0.41,-1.819 -1.194,-3.317 -2.541,-2.374 m 153.457996,0.151 c -2.148,0.666 -5.185,5.627 -5.185,8.472 0,1.146 0.402,1.631 2.19,2.636 3.488,1.962 4.877,2.358 6.263,1.788 0.533,-0.22 0.628,-0.201 1.135,0.226 1.181,0.993 12.741,1.253 14.589,0.327 3.044,-1.525 1.98,-6.44 -1.671,-7.716 -0.777,-0.271 -1.591,-0.325 -4.913,-0.325 h -3.982 l -0.354,-0.785 c -0.398,-0.88 -0.756,-1.071 -1.485,-0.794 -1.55,0.589 -4.26,-0.835 -5,-2.628 -0.634,-1.535 -0.598,-1.507 -1.587,-1.201 m 45.651,0.739 c -1.779,0.927 -4.277,1.183 -6.009,0.616 -1.233,-0.403 -1.433,-0.382 -1.992,0.21 -1.758,1.861 -2.666,4.208 -2.687,6.944 l -0.014,1.806 0.905,1.499 0.906,1.5 2.592,-0.132 c 2.759,-0.14 3.349,-0.309 3.871,-1.106 l 0.315,-0.481 0.56,0.471 0.56,0.471 h 3.866 c 6.13,0 12.944,-1.194 14.638,-2.566 1.396,-1.131 0.356,-6.159 -1.665,-8.05 -2.236,-2.091 -4.62,-2.415 -7.886,-1.073 -3.411,1.402 -4.528,1.431 -5.085,0.131 -0.223,-0.52 -0.493,-0.837 -0.776,-0.913 -0.572,-0.153 -0.418,-0.202 -2.099,0.673" />
      <path style="fill:#a49c9c;fill-rule:evenodd;stroke:none" id="path4-9" d="m 154.1847,28.965539 c 0.229,0.044 0.604,0.044 0.833,0 0.229,-0.044 0.042,-0.08 -0.416,-0.08 -0.459,0 -0.646,0.036 -0.417,0.08 m -14.074,0.37 c 0.229,0.044 0.604,0.044 0.833,0 0.229,-0.044 0.042,-0.08 -0.416,-0.08 -0.459,0 -0.646,0.036 -0.417,0.08 m -5.648,0.187 c 0.28,0.043 0.738,0.043 1.018,0 0.28,-0.042 0.051,-0.077 -0.509,-0.077 -0.56,0 -0.789,0.035 -0.509,0.077 m 27.872,-10e-4 c 0.231,0.044 0.564,0.042 0.741,-0.004 0.177,-0.046 -0.011,-0.083 -0.419,-0.08 -0.407,0.002 -0.552,0.04 -0.322,0.084 m 8.148,0.555 c 0.231,0.045 0.564,0.043 0.741,-0.003 0.177,-0.047 -0.011,-0.083 -0.419,-0.081 -0.407,0.002 -0.552,0.04 -0.322,0.084 m -50.094,0.182 c 0.178,0.047 0.47,0.047 0.648,0 0.178,-0.046 0.032,-0.084 -0.324,-0.084 -0.357,0 -0.503,0.038 -0.324,0.084 m 49.259,8.704 c 0.178,0.047 0.47,0.047 0.648,0 0.178,-0.047 0.032,-0.085 -0.324,-0.085 -0.356,0 -0.502,0.038 -0.324,0.085 m -12.59,0.931 c 0.281,0.043 0.698,0.042 0.926,-0.002 0.228,-0.044 -0.003,-0.079 -0.512,-0.078 -0.509,0.002 -0.696,0.038 -0.414,0.08 m -18.799,0.19 c 0.738,0.035 1.947,0.035 2.685,0 0.739,-0.035 0.134,-0.064 -1.342,-0.064 -1.477,0 -2.081,0.029 -1.343,0.064 m 8.241,0 c 0.687,0.035 1.812,0.035 2.5,0 0.687,-0.036 0.125,-0.065 -1.25,-0.065 -1.375,0 -1.938,0.029 -1.25,0.065 m 30.509,1.031 c 0,0.032 0.271,0.303 0.602,0.602 l 0.602,0.544 -0.544,-0.602 c -0.507,-0.561 -0.66,-0.687 -0.66,-0.544 m -12.731,5.07 c 0.178,0.047 0.469,0.047 0.648,0 0.178,-0.046 0.032,-0.085 -0.324,-0.085 -0.357,0 -0.503,0.039 -0.324,0.085 m -10.093,0.374 c 0.229,0.044 0.604,0.044 0.833,0 0.229,-0.045 0.042,-0.081 -0.416,-0.081 -0.459,0 -0.646,0.036 -0.417,0.081 m -3.426,0.182 c 0.178,0.046 0.47,0.046 0.648,0 0.178,-0.047 0.033,-0.085 -0.324,-0.085 -0.356,0 -0.502,0.038 -0.324,0.085 m -34.167,0.188 c 0.23,0.044 0.605,0.044 0.834,0 0.229,-0.044 0.041,-0.08 -0.417,-0.08 -0.458,0 -0.646,0.036 -0.417,0.08 m 29.815,0 c 0.229,0.044 0.604,0.044 0.834,0 0.229,-0.044 0.041,-0.08 -0.417,-0.08 -0.458,0 -0.646,0.036 -0.417,0.08 m -4.812,0.185 c 0.23,0.045 0.563,0.043 0.74,-0.003 0.177,-0.047 -0.011,-0.083 -0.419,-0.081 -0.407,0.002 -0.552,0.04 -0.321,0.084 m -16.669,0.185 c 0.229,0.044 0.604,0.044 0.833,0 0.229,-0.044 0.042,-0.08 -0.417,-0.08 -0.458,0 -0.645,0.036 -0.416,0.08 m 16.751,1.303 c 0.683,0.036 1.85,0.036 2.592,10e-4 0.743,-0.036 0.184,-0.065 -1.241,-0.065 -1.426,0 -2.034,0.029 -1.351,0.064 m -54.790996,6.344 c 0,0.764 0.033,1.077 0.073,0.695 0.04,-0.382 0.04,-1.007 0,-1.389 -0.04,-0.382 -0.073,-0.069 -0.073,0.694 m 63.227996,-0.606 c 0.333,0.041 0.833,0.04 1.111,-0.002 0.279,-0.042 0.006,-0.076 -0.605,-0.075 -0.611,0.001 -0.839,0.036 -0.506,0.077 m -6.114,0.185 c 0.331,0.041 0.872,0.041 1.203,0 0.331,-0.041 0.061,-0.075 -0.601,-0.075 -0.662,0 -0.933,0.034 -0.602,0.075 m -30.368,0.552 c 0.23,0.045 0.563,0.043 0.74,-0.003 0.177,-0.047 -0.011,-0.083 -0.419,-0.081 -0.407,0.002 -0.552,0.04 -0.321,0.084 m 29.352,0.928 c 0.281,0.043 0.698,0.042 0.926,-0.002 0.227,-0.044 -0.003,-0.079 -0.512,-0.078 -0.509,0.002 -0.696,0.038 -0.414,0.08 m 3.333,0.185 c 0.282,0.043 0.698,0.042 0.926,-0.002 0.228,-0.044 -0.002,-0.079 -0.512,-0.078 -0.509,0.002 -0.695,0.038 -0.414,0.08 m -14.071,0.189 c 0.487,0.038 1.237,0.038 1.667,-0.001 0.43,-0.039 0.031,-0.07 -0.885,-0.07 -0.917,0.001 -1.269,0.033 -0.782,0.071 m 4.809,-0.009 c 0.179,0.047 0.47,0.047 0.648,0 0.179,-0.046 0.033,-0.084 -0.324,-0.084 -0.356,0 -0.502,0.038 -0.324,0.084 m -9.812,5.746 c 0.282,0.043 0.698,0.042 0.926,-0.002 0.228,-0.044 -0.003,-0.079 -0.512,-0.078 -0.509,0.002 -0.695,0.038 -0.414,0.08 m 16.389,-0.002 c 0.23,0.045 0.563,0.043 0.74,-0.003 0.177,-0.047 -0.011,-0.083 -0.419,-0.081 -0.407,0.002 -0.552,0.04 -0.321,0.084 m 5.275,-0.003 c 0.178,0.047 0.47,0.047 0.648,0 0.179,-0.046 0.033,-0.085 -0.324,-0.085 -0.356,0 -0.502,0.039 -0.324,0.085 m -27.498,0.189 c 0.231,0.044 0.564,0.042 0.741,-0.004 0.177,-0.046 -0.011,-0.083 -0.419,-0.081 -0.407,0.002 -0.552,0.04 -0.322,0.085 m -5.557,0.185 c 0.229,0.044 0.604,0.044 0.833,0 0.229,-0.045 0.042,-0.081 -0.417,-0.081 -0.458,0 -0.646,0.036 -0.416,0.081 m 89.163,16.35 c 0,0.357 0.038,0.503 0.085,0.324 0.046,-0.178 0.046,-0.47 0,-0.648 -0.047,-0.178 -0.085,-0.032 -0.085,0.324 m -112.777996,0.741 c 0,0.357 0.038,0.502 0.085,0.324 0.046,-0.178 0.046,-0.47 0,-0.648 -0.047,-0.178 -0.085,-0.032 -0.085,0.324 m 24.818996,2.5 c 0.002,0.407 0.04,0.552 0.084,0.322 0.044,-0.23 0.043,-0.564 -0.004,-0.741 -0.046,-0.177 -0.082,0.012 -0.08,0.419 m 0.509,7.743 c 0,0.032 0.27,0.303 0.601,0.602 l 0.602,0.544 -0.544,-0.602 c -0.507,-0.561 -0.659,-0.687 -0.659,-0.544 m -30.312996,2.442 c 10e-4,0.611 0.035,0.839 0.076,0.506 0.042,-0.333 0.041,-0.833 -10e-4,-1.111 -0.043,-0.278 -0.076,-0.006 -0.075,0.605 m 130.395996,1.621 -0.732,0.787 0.787,-0.732 c 0.732,-0.681 0.873,-0.842 0.733,-0.842 -0.031,0 -0.385,0.354 -0.788,0.787 m -1.669,1.851 -0.544,0.602 0.602,-0.544 c 0.561,-0.507 0.687,-0.659 0.544,-0.659 -0.032,0 -0.303,0.27 -0.602,0.601 m -86.053,1.757 c 0.534,0.038 1.409,0.038 1.944,0 0.535,-0.037 0.097,-0.068 -0.972,-0.068 -1.07,0 -1.507,0.031 -0.972,0.068 m 16.581,0.371 c 0.589,0.037 1.506,0.037 2.037,-0.001 0.531,-0.037 0.048,-0.067 -1.072,-0.067 -1.12,10e-4 -1.555,0.031 -0.965,0.068 m 59.81,4.255001 c 0.282,0.043 0.698,0.042 0.926,-0.002 0.228,-0.044 -0.002,-0.079 -0.512,-0.078 -0.509,0.002 -0.695,0.038 -0.414,0.08 m -39.904,1.856 c 0.539,0.038 1.372,0.037 1.852,-0.001 0.481,-0.038 0.04,-0.069 -0.978,-0.068 -1.019,0 -1.412,0.032 -0.874,0.069 m -16.95,0.732 c 0.178,0.046 0.47,0.046 0.648,0 0.178,-0.047 0.032,-0.085 -0.324,-0.085 -0.357,0 -0.503,0.038 -0.324,0.085 m -3.98,0.188 c 0.231,0.044 0.564,0.043 0.741,-0.004 0.177,-0.046 -0.011,-0.082 -0.419,-0.08 -0.407,0.002 -0.552,0.04 -0.322,0.084 m -16.117,0.188 c 0.329,0.041 0.912,0.042 1.296,0.002 0.385,-0.041 0.116,-0.074 -0.597,-0.075 -0.713,-0.001 -1.028,0.032 -0.699,0.073 m 33.986,0.55 c 0.178,0.046 0.47,0.046 0.648,0 0.178,-0.047 0.032,-0.085 -0.324,-0.085 -0.357,0 -0.503,0.038 -0.324,0.085 m 4.066,0.009 c 0.683,0.036 1.849,0.036 2.592,10e-4 0.743,-0.036 0.184,-0.065 -1.242,-0.065 -1.426,0 -2.033,0.029 -1.35,0.064 m -17.215,0.546 c 0.179,0.047 0.47,0.047 0.649,0 0.178,-0.046 0.032,-0.085 -0.324,-0.085 -0.357,0 -0.503,0.039 -0.325,0.085 m 5.741,0.005 c 0.28,0.043 0.739,0.043 1.019,0 0.28,-0.042 0.051,-0.077 -0.51,-0.077 -0.56,0 -0.789,0.035 -0.509,0.077 m -9.256,0.186 c 0.281,0.042 0.698,0.041 0.925,-0.003 0.228,-0.044 -0.002,-0.079 -0.511,-0.077 -0.51,10e-4 -0.696,0.037 -0.414,0.08 m -3.424,5.928 c 0.435,0.04 1.102,0.039 1.481,-0.001 0.38,-0.04 0.023,-0.072 -0.792,-0.071 -0.814,0.001 -1.125,0.033 -0.689,0.072 m -8.801,0.548 c 0.178,0.046 0.47,0.046 0.648,0 0.178,-0.047 0.032,-0.085 -0.324,-0.085 -0.357,0 -0.503,0.038 -0.324,0.085 m 15.555,0.926 c 0.179,0.046 0.47,0.046 0.648,0 0.179,-0.047 0.033,-0.085 -0.324,-0.085 -0.356,0 -0.502,0.038 -0.324,0.085 m -6.386,0.188 c 0.23,0.045 0.563,0.043 0.74,-0.003 0.177,-0.047 -0.011,-0.083 -0.419,-0.081 -0.407,0.002 -0.552,0.04 -0.321,0.084 m 34.569,1.212 -0.544,0.602 0.602,-0.544 c 0.561,-0.507 0.687,-0.66 0.544,-0.66 -0.032,0 -0.303,0.271 -0.602,0.602 m -45.024,4.722 c 1.202,0.032 3.119,0.032 4.259,-0.001 1.14,-0.032 0.156,-0.059 -2.186,-0.058 -2.343,0 -3.276,0.026 -2.073,0.059 m -1.677,7.035 c 0.585,0.037 1.544,0.037 2.129,0 0.586,-0.037 0.107,-0.067 -1.064,-0.067 -1.172,0 -1.651,0.03 -1.065,0.067 m 7.5,-0.006 c 0.229,0.044 0.604,0.044 0.833,0 0.229,-0.044 0.042,-0.08 -0.417,-0.08 -0.458,0 -0.645,0.036 -0.416,0.08 m 43.43,1.166 c 0,0.458 0.036,0.645 0.08,0.416 0.044,-0.229 0.044,-0.604 0,-0.833 -0.044,-0.229 -0.08,-0.042 -0.08,0.417 m 0.185,5.185 c 0,0.458 0.036,0.646 0.08,0.416 0.044,-0.229 0.044,-0.604 0,-0.833 -0.044,-0.229 -0.08,-0.042 -0.08,0.417 m -27.689,1.427 c 0.229,0.044 0.604,0.044 0.833,0 0.229,-0.044 0.042,-0.081 -0.417,-0.081 -0.458,0 -0.645,0.037 -0.416,0.081 m 27.891,5.98 c 0,0.968 0.031,1.364 0.069,0.88 0.038,-0.484 0.038,-1.276 0,-1.759 -0.038,-0.484 -0.069,-0.088 -0.069,0.879 m -94.094996,2.685 c 0.002,0.408 0.04,0.553 0.085,0.322 0.044,-0.23 0.042,-0.563 -0.004,-0.74 -0.046,-0.178 -0.083,0.011 -0.081,0.418 m 81.515996,0.88 -0.544,0.602 0.602,-0.544 c 0.561,-0.507 0.687,-0.66 0.544,-0.66 -0.032,0 -0.303,0.271 -0.602,0.602 m -82.066996,9.213 c 0,0.458 0.036,0.646 0.08,0.417 0.044,-0.23 0.044,-0.605 0,-0.834 -0.044,-0.229 -0.08,-0.041 -0.08,0.417 m 94.455996,5.185 c 0,0.764 0.033,1.077 0.072,0.695 0.04,-0.382 0.04,-1.007 0,-1.389 -0.039,-0.382 -0.072,-0.07 -0.072,0.694 m -3.406,16.62 -0.638,0.695 0.695,-0.638 c 0.382,-0.351 0.694,-0.664 0.694,-0.695 0,-0.141 -0.157,-0.008 -0.751,0.638 m -19.758,3.517 c 0.585,0.037 1.544,0.037 2.129,0 0.586,-0.037 0.107,-0.067 -1.064,-0.067 -1.172,0 -1.651,0.03 -1.065,0.067 m -39.346,0.741 c 0.538,0.037 1.372,0.037 1.852,-10e-4 0.48,-0.038 0.04,-0.069 -0.978,-0.069 -1.019,0.001 -1.412,0.032 -0.874,0.07 m 23.978,-0.004 c 0.281,0.042 0.698,0.041 0.926,-0.003 0.228,-0.044 -0.003,-0.079 -0.512,-0.077 -0.509,10e-4 -0.696,0.037 -0.414,0.08" />
   </g>
</svg>
