<?xml version="1.0" encoding="UTF-8" standalone="no"?>
<svg xmlns:dc="http://purl.org/dc/elements/1.1/" xmlns:cc="http://creativecommons.org/ns#" xmlns:rdf="http://www.w3.org/1999/02/22-rdf-syntax-ns#" xmlns:svg="http://www.w3.org/2000/svg" xmlns="http://www.w3.org/2000/svg" viewBox="0 0 315.74216 255.78674" height="255.78674" width="315.74216" version="1.1" id="svg">
   <metadata id="metadata13">
      <rdf:RDF>
         <cc:Work rdf:about="">
            <dc:format>image/svg+xml</dc:format>
            <dc:type rdf:resource="http://purl.org/dc/dcmitype/StillImage" />
            <dc:title></dc:title>
         </cc:Work>
      </rdf:RDF>
   </metadata>
   <defs id="defs11" />
   <g transform="translate(194.53149,375.87128)" id="g5303">
      <path style="fill:#757575;fill-opacity:1;fill-rule:evenodd;stroke:none" id="path0-43" d="m -88.88133,-370.55054 c -5.651,1.528 -8.995,5.948 -8.759,11.577 0.045,1.069 0.179,2.111 0.298,2.315 0.118,0.204 0.369,0.787 0.557,1.296 0.538,1.457 7.856,17.13 7.999,17.13 0.187,0 20.068,-9.256 20.208,-9.408 0.064,-0.071 -0.671,-1.827 -1.636,-3.902 -0.964,-2.074 -1.782,-3.908 -1.817,-4.074 -0.111,-0.524 -4.324,-9.448 -4.764,-10.092 -2.697,-3.948 -7.813,-5.998 -12.086,-4.842 m 133.48601,24.985 c 0.054,0.143 2.777,3.735 6.049,7.982 3.273,4.248 5.92,7.753 5.883,7.79 -0.037,0.037 -4.84,-1.055 -10.674,-2.427 -5.833,-1.371 -10.729,-2.494 -10.879,-2.494 -0.236,0 -0.211,59.672 0.024,59.961 0.024,0.029 4.367,-0.902 9.651,-2.069 14.471,-3.196 15.989,-3.516 16.105,-3.4 0.059,0.058 -3.024,5.211 -6.851,11.451 -3.827,6.24 -6.938,11.363 -6.913,11.385 0.024,0.022 3.919,-0.114 8.656,-0.302 4.736,-0.188 9.527,-0.348 10.648,-0.356 3.694,-0.027 27.405,-0.962 27.519,-1.086 0.061,-0.066 0.603,-1.685 1.203,-3.597 l 1.093,-3.476 0.111,48.198 c 0.062,26.509 0.124,56.851 0.139,67.426 l 0.027,19.227 0.542,0.541 c 0.743,0.744 1.806,0.755 2.62,0.028 l 0.575,-0.513 0.091,-73.978 0.092,-73.977 0.459,-1.423 0.459,-1.424 1.516,0.98 c 0.834,0.539 3.46,2.242 5.836,3.785 2.375,1.542 4.354,2.804 4.398,2.804 0.043,0 0.079,-3.75 0.079,-8.333 0,-4.583 -0.023,-8.333 -0.051,-8.333 -0.028,0 -2.714,1.083 -5.968,2.407 -6.972,2.838 -6.944,2.832 -6.944,1.311 0,-3.059 -3.474,-3.184 -3.669,-0.132 l -0.078,1.229 h -13.312 -13.311 v -19.26 -19.259 h 15.561 15.561 l 5.698,3.14 c 3.134,1.727 5.849,3.197 6.033,3.268 0.345,0.133 0.417,-11.347 0.073,-11.691 -0.071,-0.071 -2.196,0.708 -4.722,1.732 -2.526,1.024 -4.647,1.804 -4.714,1.734 -0.066,-0.07 -1.092,-3.127 -2.279,-6.794 -1.188,-3.667 -2.578,-7.937 -3.09,-9.491 l -0.93,-2.824 h -26.208 c -22.409,0 -26.194,0.038 -26.108,0.26 m -117.19001,14.717 c -5.398,2.509 -10,4.644 -10.226,4.746 -0.437,0.197 6.606,15.927 8.231,18.381 4.544,6.864 15.364,6.265 19.2,-1.063 1.33001,-2.541 1.70601,-5.753 0.96301,-8.245 -0.238,-0.801 -8.11901,-18.174 -8.32701,-18.356 -0.014,-0.013 -4.443,2.029 -9.841,4.537 m -18.726,-0.839 c -2.355,1.034 -14.033,6.131 -25.952,11.325 l -21.67,9.445 -0.112,0.648 c -0.062,0.356 -0.167,1.333 -0.233,2.169 l -0.12,1.522 1.925,-0.851 c 3.671,-1.623 43.059,-18.811 47.573,-20.76 2.495,-1.078 4.558,-1.973 4.583,-1.988 0.081,-0.051 -1.521,-3.426 -1.618,-3.408 -0.052,0.009 -2.021,0.863 -4.376,1.898 m 190.85501,27.251 v 11.945 h 8.334 8.333 v -11.945 -11.944 h -8.333 -8.334 v 11.944 m -148.007,19.998 c -2.596,0.366 -4.643,0.93 -6.388,1.758 -7.10201,3.373 -5.55101,11.503 2.437,12.779 2.037,0.325 2.462,0.076 1.07,-0.628 l -1.137,-0.574 h 2.541 c 2.854,0 4.142,-0.249 7.077,-1.367 l 1.759,-0.67 -1.296,-0.098 c -0.894,-0.068 -1.181,-0.143 -0.926,-0.243 0.204,-0.08 0.954,-0.395 1.667,-0.7 0.713,-0.304 1.365,-0.57 1.449,-0.59 0.084,-0.019 0.3,0.428 0.479,0.995 0.535,1.696 3.258,6.269 3.74,6.281 0.062,0.002 0.419,-0.457 0.793,-1.021 3.05,-4.594 6.585,-3.003 5.2,2.341 l -0.283,1.092 1.678,2.222 c 0.922,1.222 1.734,2.221 1.804,2.221 0.721,0 3.949,-1.222 3.879,-1.468 -0.046,-0.16 -1.056,-2.571 -2.246,-5.358 -1.189,-2.786 -2.11,-5.12 -2.046,-5.185 0.064,-0.065 0.37,-0.205 0.679,-0.311 l 0.563,-0.193 -2.648,-2.552 c -1.471,-1.418 -2.565,-2.608 -2.46,-2.678 0.104,-0.069 0.922,-0.708 1.816,-1.421 l 1.627,-1.297 -1.457,-0.684 c -5.331,-2.508 -12.975,-3.553 -19.371,-2.651 m 4.952,18.082 c -2.508,0.567 -2.971,0.794 -2.756,1.354 0.109,0.284 0.271,0.316 1.105,0.218 0.961,-0.113 0.979,-0.106 1.037,0.393 0.113,0.98 1.262,0.672 1.262,-0.338 0,-0.465 0.091,-0.548 0.787,-0.719 1.593,-0.39 1.713,-0.456 1.713,-0.937 0,-0.623 -0.278,-0.62 -3.148,0.029 m -8.843,1.007 c -0.441,0.45 0.002,1.006 0.803,1.006 0.252,0 0.355,0.13 0.355,0.449 0,0.44 0.425,1.032 0.74,1.032 0.245,0 0.741,-0.553 0.741,-0.825 0,-0.133 0.166,-0.286 0.37,-0.339 0.484,-0.127 0.674,-0.651 0.35,-0.966 -0.286,-0.279 -3.138,-0.582 -3.359,-0.357 m -95.90501,2.098 c -1.394,1.277 -1.426,6.294 -0.05,7.815 0.418,0.462 35.349,0.312 35.864,-0.154 1.273,-1.152 1.12,-7.119 -0.2,-7.805 -0.171,-0.089 -8.135,-0.201 -17.699,-0.25 l -17.389,-0.089 -0.526,0.483 m 99.43501,1.454 c -1.607,1.549 -1.801,1.872 -1.334,2.213 0.395,0.289 2.131,0.837 2.256,0.712 0.107,-0.107 0.541,-4.175 0.445,-4.175 -0.039,0 -0.655,0.562 -1.367,1.25 m 0.128,4.847 c -0.223,0.088 0.761,0.201 2.466,0.283 1.56,0.076 2.878,0.096 2.929,0.045 0.371,-0.37 -4.529,-0.668 -5.395,-0.328 m 28.75,5.168 c -2.622,0.679 -4.768,1.318 -4.768,1.42 0,0.102 0.534,1.961 1.188,4.131 l 1.188,3.946 -0.54,1.598 c -0.297,0.879 -0.54,1.703 -0.54,1.83 0,0.127 1.354,0.914 3.009,1.748 1.655,0.835 3.031,1.535 3.057,1.556 0.026,0.022 1.799,9.907 3.94,21.967 2.141,12.06 3.9109997,21.984 3.9339997,22.052 0.047,0.142 24.4580003,-17.186 24.5390003,-17.419 0.029,-0.085 -0.284,-3.224 -0.695,-6.975 -0.719,-6.55 -0.749,-7.575 -0.206,-7.017 0.094,0.097 0.482,3.092 0.862,6.657 0.381,3.565 0.754,6.553 0.831,6.64 0.168,0.192 6.469,-4.27 6.469,-4.58 0,-0.376 -4.965,-12.331 -5.97,-14.375 -1.087,-2.211 -3.38,-4.757 -5.353,-5.945 -0.575,-0.346 -2.0070003,-1.28 -3.1830003,-2.077 -4.057,-2.748 -10.604,-5.183 -16.79,-6.243 -1.8079997,-0.31 -1.4709997,0.154 -3.8909997,-5.353 -1.167,-2.654 -2.164,-4.819 -2.217,-4.811 -0.053,0.008 -2.241,0.571 -4.864,1.25 m -17.885,4.569 c -6.451,1.663 -11.762,3.056 -11.803,3.097 -0.041,0.041 -0.581,2.444 -1.199,5.34 -0.619,2.897 -1.167,5.409 -1.218,5.583 -0.082,0.283 0.113,0.324 1.777,0.371 l 1.869,0.053 -6.415,1.933 -6.41601,1.934 -2.434,1.654 c -1.338,0.91 -3.517,2.423 -4.841,3.361 -1.324,0.938 -3.782,2.661 -5.463,3.829 -7.533,5.236 -28.609,20.199 -33.611,23.863 -8.315,6.09 -9.185,6.85 -9.639,8.422 -0.878,3.04 0.442,9.708 2.981,15.059 l 0.993,2.093 0.601,-0.311 c 0.331,-0.172 1.189,-0.678 1.907,-1.126 1.995,-1.245 3.113,-1.528 8.125,-2.059 l 1.264,-0.134 -1.484,-1.469 c -1.797,-1.778 -1.898,-1.836 -4.059,-2.334 -3.205,-0.739 -3.937,-2.621 -1.356,-3.486 0.779,-0.261 5.35,-0.278 6.706,-0.025 2.147,0.401 5.147,2.556 6.924,4.975 0.519,0.707 0.615,0.757 1.481,0.764 0.51,0.004 1.593,0.182 2.408,0.396 2.335,0.613 2.186,0.683 2.422,-1.136 0.863,-6.622 0.069,-12.157 -2.07,-14.444 -1.206,-1.29 -0.871,-1.791 0.378,-0.566 1.899,1.864 2.599,4.02 2.601,8.02 0.001,1.604 0.04,2.916 0.087,2.916 0.047,0 2.672,-0.8 5.834,-1.779 3.161,-0.979 9.164,-2.812 13.34,-4.075 7.623,-2.304 8.744,-2.729 11.482,-4.351 8.05901,-4.775 11.00201,-13.621 8.04201,-24.165 -0.387,-1.376 -0.498,-2.044 -0.365,-2.177 0.295,-0.295 0.489,0.019 0.901,1.455 3.017,10.521 0.572,19.17 -6.94801,24.576 -1.45,1.042 -3.836,2.366 -4.269,2.367 -0.127,10e-4 -0.232,0.05 -0.232,0.109 0,0.161 3.514,29.574 3.566,29.855 0.028,0.146 0.792,-0.278 1.95901,-1.087 1.313,-0.911 1.973,-1.267 2.104,-1.136 0.29,0.29 0.12,0.451 -1.98,1.881 -1.07,0.728 -1.94501,1.371 -1.94501,1.428 0,0.294 2.98601,25.216 3.06401,25.572 l 0.091,0.416 h 26.478 c 26.34199971,0 26.47799971,-0.002 26.47799971,-0.37 0,-0.424 -10.18500001,-57.839 -10.27700001,-57.931 -0.033,-0.034 -6.6279997,4.61 -14.6559997,10.319 -11.908,8.469 -14.625,10.326 -14.757,10.089 -0.213,-0.38 -1.741,0.753 14.69,-10.905 7.996,-5.673 14.555,-10.331 14.577,-10.35 0.021,-0.019 -1.249,-7.282 -2.823,-16.138 -1.574,-8.856 -3.335,-18.774 -3.913,-22.039 l -1.051,-5.936 -3.207,-1.656 c -1.763,-0.911 -3.208,-1.703 -3.209,-1.759 -0.002,-0.057 0.281,-0.948 0.629,-1.981 l 0.633,-1.879 -0.804,-2.649 c -1.638,-5.395 -1.616,-5.334 -1.925,-5.316 -0.163,0.009 -5.573,1.377 -12.023,3.039 m -148.92101,0.516 c -1.284,0.649 -3.257,4.814 -2.674,5.646 0.444,0.635 4.633,0.631 5.209,-0.005 1.911,-2.112 2.931,-5.127 1.91,-5.641 -0.615,-0.31 -3.832,-0.309 -4.445,0 m 27.529,1.766 c -0.834,0.922 0.249,2.291 1.278,1.616 0.589,-0.386 0.729,-0.953 0.371,-1.5 -0.361,-0.552 -1.201,-0.611 -1.649,-0.116 m 4.984,-0.047 c -0.621,0.622 -0.114,1.931 0.749,1.931 0.455,0 1.044,-0.677 1.044,-1.2 0,-0.903 -1.152,-1.372 -1.793,-0.731 m 30.265,11.653 v 8.982 h 8.028 8.028 l 0.63,-0.424 c 0.394,-0.265 0.853,-0.869 1.23,-1.62 2.256,-4.489 1.529,-13.639 -1.23,-15.496 l -0.63,-0.423 h -8.028 -8.028 v 8.981 m -11.852,3.241 v 8.518 h 1.852 1.852 v -8.518 -8.519 h -1.852 -1.852 v 8.519 m -23.968,-7.116 c -0.345,0.345 -0.426,4.481 -0.099,5.091 0.257,0.481 1.034,0.465 1.298,-0.028 0.324,-0.605 0.161,-4.949 -0.194,-5.174 -0.399,-0.251 -0.673,-0.221 -1.005,0.111 m 236.88501,2.925 c -2.623,1.541 -4.988,2.969 -5.257,3.172 -0.268,0.204 -4.746,2.873 -9.95,5.93 -8.554,5.026 -9.502,5.63 -9.879,6.296 -0.582,1.027 -0.566,2.358 0.04,3.499 0.656,1.233 0.116,2.174 -1.713,2.989 -1.109,0.493 -1.308,1.049 -0.508,1.414 0.384,0.175 0.618,0.142 1.343,-0.19 0.483,-0.222 1.176,-0.465 1.541,-0.54 0.533,-0.111 0.963,-0.483 2.197,-1.898 0.843,-0.967 1.633,-1.865 1.755,-1.995 0.275,-0.293 3.555,0.293 5.406,0.965 1.265,0.459 1.311,0.445 0.904,-0.266 -0.377,-0.66 -0.407,-0.618 1.06,-1.467 1.52,-0.88 1.427,-0.912 2.297,0.784 0.541,1.053 0.467,1.428 -0.409,2.096 -0.485,0.37 -0.59,0.545 -0.438,0.728 0.11,0.132 0.207,0.496 0.216,0.807 l 0.016,0.566 0.666,-0.391 c 2.141,-1.255 2.465,-2.73 1.122,-5.109 -0.477,-0.846 -0.536,-1.065 -0.332,-1.254 0.33,-0.304 6.63,-3.982 6.822,-3.982 0.199,0 11.868,-6.83 12.203,-7.143 0.221,-0.206 0.162,-0.406 -0.395,-1.342 l -0.656,-1.1 0.72,-0.405 c 0.909,-0.511 0.919,-0.431 -0.345,-2.613 -1.181,-2.036 -1.168,-2.028 -2.114,-1.385 l -0.671,0.456 -0.225,-0.543 c -0.419,-1.013 -0.431,-1.009 -5.416,1.921 m -236.98401,6.216 c -0.327,0.61 -0.246,4.746 0.099,5.091 0.332,0.332 0.606,0.362 1.005,0.11 0.355,-0.224 0.518,-4.568 0.194,-5.174 -0.264,-0.492 -1.041,-0.508 -1.298,-0.027 m -2.229,16.956 v 3.056 h 1.401 c 1.247,0 1.391,0.036 1.307,0.324 -0.189,0.647 -4.93,25.912 -4.93,26.271 0,0.203 -2.084,11.356 -4.63,24.783 -2.546,13.427 -4.63,24.527 -4.63,24.666 0,0.429 4.388,0.36 4.517,-0.072 0.053,-0.178 2.187,-11.366 4.743,-24.861 2.555,-13.495 4.85,-25.579 5.099,-26.852 0.249,-1.273 0.959,-5.023 1.578,-8.333 0.619,-3.31 1.281,-6.644 1.471,-7.408 0.189,-0.763 0.561,-2.555 0.826,-3.981 0.264,-1.426 0.568,-3.03 0.674,-3.565 l 0.193,-0.972 h 0.966 0.966 l 1.543,8.194 c 0.849,4.507 1.873,9.903 2.276,11.991 0.403,2.088 2.96,15.546 5.682,29.908 l 4.949,26.111 2.259,0.052 c 1.579,0.036 2.258,-0.011 2.258,-0.157 0,-0.203 -14.157,-75.028 -14.357,-75.881 -0.088,-0.374 -0.039,-0.422 0.383,-0.37 0.51,0.063 0.742,0.601 4.342,10.059 0.504,1.324 6.455,16.783 13.225,34.352 l 12.308,31.945 2.235,0.052 c 1.414,0.033 2.235,-0.017 2.235,-0.135 0,-0.103 -4.758,-12.543 -10.574,-27.645 -17.477,-45.386 -18.686,-48.53 -18.686,-48.597 0,-0.035 0.5,-0.064 1.112,-0.064 h 1.111 v -2.963 -2.963 h -10.926 -10.926 v 3.055 m 181.38901,0.11 c -2.959,2.135 -3.331,2.462 -3.313,2.907 0.012,0.276 0.589,5.733 1.282,12.127 1.232,11.355 1.3,12.521 0.699,11.92 -0.074,-0.074 -0.696,-5.319 -1.382,-11.655 -0.686,-6.336 -1.273,-11.715 -1.304,-11.953 -0.051,-0.392 -0.699,0.023 -6.6300003,4.242 -3.616,2.572 -9.13799999,6.499 -12.271,8.727 -4.985,3.544 -5.685,4.101 -5.605,4.461 0.05,0.226 2.387,13.369 5.192,29.207 2.806,15.838 5.138,28.9 5.183,29.028 0.063,0.18 1.879,0.231 8.235,0.231 H 17.50668 v -11.481 -11.482 h 29.445 29.444 v -3.395 -3.396 l -1.098,-3.659 c -0.604,-2.013 -1.142,-3.704 -1.197,-3.758 -0.109,-0.109 -5.177,-1.157 -5.249,-1.086 -0.065,0.064 1.997,7.001 2.178,7.331 0.1,0.181 1.019,0.449 2.621,0.766 l 2.468,0.487 -27.628,0.022 -27.628,0.022 -0.103,-0.787 c -0.235,-1.793 -0.832,-8.547 -0.762,-8.618 0.042,-0.042 0.728,0.418 1.524,1.022 8.742,6.626 11.642,7.096 16.388,2.657 l 1.586,-1.485 2.055,0.402 c 1.13,0.221 2.105,0.351 2.168,0.289 0.062,-0.062 -0.365,-1.705 -0.949,-3.651 -1.203,-4.011 -1.219,-3.828 0.31,-3.559 1.432,0.252 1.15,-0.217 2.426,4.049 0.602,2.014 1.153,3.717 1.224,3.784 0.179,0.169 5.048,1.132 5.16,1.021 0.097,-0.097 -1.96,-7.163 -2.151,-7.39 -0.086,-0.102 -4.387,-1.068 -4.755,-1.068 -0.036,0 0.826,-1.146 1.915,-2.546 4.905,-6.307 13.942,-19.01 13.942,-19.597 0,-0.1 1.422,-1.006 3.159,-2.014 3.274,-1.898 3.885,-2.408 3.868,-3.229 -0.02,-0.919 -3.585,-8.268 -3.987,-8.218 -0.195,0.025 -1.23,0.142 -2.299,0.261 -1.07,0.119 -1.966,0.231 -1.992,0.249 -0.025,0.019 0.12,0.517 0.323,1.108 0.62,1.803 0.975,4.123 0.892,5.838 -0.11,2.274 -0.347,2.565 -0.879,1.08 -1.428,-3.99 -4.38,-6.468 -8.233,-6.909 l -0.945,-0.108 -9.775,8.061 c -5.377,4.434 -9.805,8.061 -9.84,8.061 -0.035,0 -1.927,-4.665 -4.206,-10.367 -2.278,-5.703 -4.183,-10.365 -4.234,-10.362 -0.051,0.004 -1.593,1.09 -3.426,2.413 m 1.946,35.446 c 0.578,1.935 1.03,3.545 1.005,3.578 -0.069,0.09 -3.302,-0.557 -3.456,-0.692 -0.074,-0.065 0.155,-1.606 0.509,-3.424 0.354,-1.818 0.65,-3.357 0.658,-3.421 0.026,-0.203 0.211,0.368 1.284,3.959 m 5.614,-2.773 c 0.467,0.07 0.968,0.223 1.114,0.339 0.215,0.171 2.35,6.896 2.345,7.388 -10e-4,0.197 -0.881,0.146 -1.832,-0.108 l -0.813,-0.216 -1.083,-3.612 c -1.163,-3.878 -1.223,-4.165 -0.833,-4.016 0.139,0.054 0.636,0.155 1.102,0.225 m 8.682,1.689 c 0.785,0.126 0.632,-0.22 2.1,4.752 0.998,3.381 1.036,3.191 -0.572,2.871 l -1.245,-0.248 -1.08,-3.609 c -1.29,-4.311 -1.271,-4.153 -0.492,-3.997 0.331,0.067 0.911,0.171 1.289,0.231 m 17.295,4.352 c 0.757,2.601 1.969,6.554 2.03,6.617 0.097,0.102 5.162,1.113 5.231,1.045 0.11,-0.11 -2.052,-7.228 -2.257,-7.432 -0.115,-0.114 -1.166,-0.391 -2.338,-0.616 -1.171,-0.225 -2.315,-0.453 -2.542,-0.507 l -0.412,-0.098 0.288,0.991 m 7.904,0.954 c 0.051,0.132 0.567,1.824 1.148,3.76 l 1.057,3.52 2.595,0.51 c 1.427,0.28 2.623,0.481 2.658,0.446 0.065,-0.064 -2.066,-7.353 -2.184,-7.471 -0.338,-0.338 -5.392,-1.072 -5.274,-0.765 m -33.489,33.145 c -0.05,0.133 -0.069,1.529 -0.041,3.104 l 0.052,2.862 h 11.018 11.019 v -3.055 -3.056 l -10.978,-0.048 c -8.87,-0.038 -10.995,-0.001 -11.07,0.193" />
      <path style="fill:#999999;fill-opacity:1;fill-rule:evenodd;stroke:none" id="path1-1" d="m -99.35633,-356.26154 c -20.952,4.673 -35.905,21.587 -39.707,44.912 l -0.081,0.494 1.15,-0.521 c 0.997,-0.451 30.247,-13.222 45.676,-19.942 2.897,-1.261 5.298,-2.325 5.337,-2.364 0.075,-0.075 -0.405,-1.125 -5.512,-12.05 -1.856,-3.972 -3.725,-8.063 -4.153,-9.091 l -0.778,-1.869 -1.932,0.431 m 27.419,0.751 c 0,0.049 0.702,1.603 1.56,3.452 0.858,1.85 2.89,6.238 4.516,9.752 1.626,3.514 4.843,10.456 7.149,15.428 4.66201,10.051 4.82801,10.523 4.68301,13.368 -0.491,9.678 -12.08001,14.271 -19.10801,7.573 -1.606,-1.532 -3.579,-5.454 -11.121,-22.11 -0.484,-1.069 -0.906,-1.975 -0.936,-2.011 -0.065,-0.078 -3.641,1.469 -30.539,13.215 -10.898,4.759 -20.703,9.038 -21.788,9.51 l -1.973,0.858 -0.12,0.907 c -0.066,0.499 -0.064,6.124 0.006,12.501 0.127,11.717 -0.012,18.115 -0.562,25.761 -0.135,1.884 -0.208,3.488 -0.162,3.565 0.046,0.076 6.274,0.138 13.84,0.138 12.974,0 13.774,0.019 14.056,0.331 1.361,1.504 1.357,6.254 -0.006,7.676 l -0.49,0.512 h -7.003 -7.002 v 2.13 2.129 l 0.88,10e-4 c 0.649,0.001 1.025,0.117 1.435,0.445 l 0.555,0.444 0.093,3.768 0.093,3.768 8.193,0.093 8.194,0.092 0.587,0.554 c 0.507,0.478 1.136,1.614 1.515,2.733 0.097,0.286 0.385,0.324 2.416,0.324 3.412,0 3.958,0.641 4.139,4.847 0.197,4.588 -0.573,5.672 -4.086,5.749 l -2.367,0.053 -0.448,1.102 c -0.246,0.607 -0.743,1.399 -1.104,1.76 l -0.656,0.656 -8.192,0.093 -8.191,0.092 -0.093,4.445 c -0.13,6.229 0.798,5.648 -9.009,5.648 h -7.287 v 2.963 2.963 h -1.04 c -0.988,0 -1.035,0.021 -0.932,0.416 0.268,1.029 3.562,9.396 3.699,9.397 0.085,0.001 3.945,-2.259 8.578,-5.023 6.27,-3.74 8.477,-4.971 8.633,-4.815 0.299,0.299 0.682,0.051 -8.605,5.578 l -8.462,5.038 0.377,0.954 c 0.208,0.525 5.755,14.913 12.327,31.973 6.572,17.06 12.118,31.456 12.324,31.991 l 0.374,0.972 h 30.092 30.09201 l -0.102,-0.787 c -0.056,-0.433 -0.748,-6.245 -1.538,-12.916 -0.79001,-6.672 -1.45501,-12.157 -1.47901,-12.189 -0.024,-0.033 -5.301,3.607 -11.728,8.089 -9.866,6.88 -11.71,8.1 -11.848,7.837 -0.137,-0.261 1.765,-1.654 11.676,-8.552 11.687,-8.135 11.838,-8.248 11.749,-8.797 -0.05,-0.305 -0.852,-7.013 -1.782,-14.907 -0.929,-7.893 -1.747,-14.488 -1.816,-14.655 -0.127,-0.303 -3.716,0.707 -15.867,4.466 -8.432,2.609 -10.978,3.394 -11.509,3.547 -0.321,0.092 -0.637,0.306 -0.701,0.474 -0.133,0.345 -0.539,3.889 -0.556,4.854 l -0.012,0.631 2.037,0.81 c 3.823,1.522 5.718,2.12 7.196,2.273 1.655,0.171 2.255,0.504 2.771,1.542 0.757,1.522 -0.204,2.229 -3.872,2.849 -1.937,0.328 -3.342,0.691 -4.706,1.216 -2.785,1.071 -5.72,1.908 -7.963,2.27 -2.946,0.476 -3.879,1.011 -6.279,3.593 -5.595,6.02 -8.069,7.463 -11.004,6.416 -0.67,-0.238 -0.777,-0.221 -1.925,0.316 -4.525,2.118 -6.185,-0.627 -2.948,-4.876 0.908,-1.192 3.267,-5.414 3.267,-5.848 0,-0.09 -1.021,-0.164 -2.268,-0.164 -6.038,10e-4 -6.549,-1.983 -1.308,-5.077 1.101,-0.65 2.021,-1.193 2.043,-1.207 0.023,-0.013 -0.28,-0.645 -0.673,-1.403 -3.047,-5.878 -4.491,-14.112 -2.954,-16.846 0.873,-1.555 14.105,-11.183 46.863,-34.099 9.36,-6.548 8.238,-5.96 15.51901,-8.136 l 5.834,-1.742 -1.713,-0.054 c -0.942,-0.029 -1.713,-0.131 -1.713,-0.228 0,-0.195 2.185,-10.486 2.319,-10.922 0.059,-0.19 1.327,-0.593 4.022,-1.276 4.548,-1.153 4.356,-1.054 3.87,-2.007 -0.767,-1.503 -2.573,-2.632 -4.223,-2.639 -0.525,-0.002 -1.587,-0.125 -2.36,-0.273 l -1.403,-0.268 -23.47401,14 c -12.91,7.701 -27.14,16.189 -31.622,18.863 -6.534,3.9 -8.179,4.808 -8.304,4.588 -0.196,-0.346 -1.108,0.25 7.101,-4.643 3.921,-2.338 18.004,-10.734 31.296,-18.657 27.74401,-16.539 24.40301,-14.485 24.02301,-14.773 -0.861,-0.654 -1.505,-5.934 -1.722,-14.119 -0.13,-4.918 -0.062,-4.627 -1.141,-4.899 -5.52601,-1.389 -7.53801,-7.166 -3.79901,-10.905 4.77701,-4.777 20.02001,-5.177 28.78001,-0.754 1.327,0.669 1.384,0.454 -0.539,2.034 -0.891,0.733 -1.643,1.39 -1.672,1.461 -0.028,0.071 1.082,1.235 2.466,2.587 1.385,1.352 2.487,2.488 2.45,2.525 -0.037,0.037 -0.323,0.175 -0.636,0.306 l -0.569,0.24 1.263,2.962 c 0.695,1.629 1.293,3.037 1.328,3.128 0.035,0.092 7.018,-3.981 15.5179997,-9.052 8.50000001,-5.07 16.579,-9.889 17.954,-10.708 1.3750003,-0.82 2.6750003,-1.602 2.8900003,-1.739 0.331,-0.211 0.425,-0.208 0.613,0.018 0.186,0.224 -0.822,0.889 -6.2240003,4.107 -9.456,5.632 -30.3279997,18.086 -30.3789997,18.126 -0.025,0.02 0.361,0.987 0.858,2.151 1.721,4.035 4.039,9.528 4.39,10.402 0.407,1.016 0.341,1.003 2.407,0.485 1.91,-0.479 1.449,-1.024 3.963,4.69 l 2.093,4.757 0.7589997,0.118 c 5.73,0.897 13.305,3.561 17.001,5.98 8.0680003,5.278 8.0300003,5.23 12.4510003,15.958 1.558,3.782 2.906,6.881 2.996,6.887 0.09,0.006 3.528,-2.389 7.642,-5.322 8.263,-5.892 8.108,-5.733 5.943,-6.099 l -0.744,-0.126 0.513,-0.395 c 1.131,-0.872 1.292,-1.797 0.512,-2.945 l -0.464,-0.683 0.899,0.107 c 1.182,0.14 2.032,-0.53 2.192,-1.729 l 0.104,-0.771 0.689,0.725 c 0.878,0.923 1.866,1.007 2.78,0.238 l 0.579,-0.488 -0.125,0.946 c -0.163,1.229 0.689,2.251 1.878,2.251 h 0.697 l -0.771,0.713 c -0.945,0.872 -1.028,1.636 -0.297,2.714 l 0.475,0.7 -0.684,-0.111 c -1.367,-0.222 -2.477,0.729 -2.493,2.136 -0.005,0.402 -0.03,0.394 -0.509,-0.161 -0.558,-0.645 -1.138,-0.992 -1.65,-0.988 -0.315,0.003 -0.541,0.107 -1.514,0.697 -0.381,0.23 -0.388,0.215 -0.27,-0.648 0.101,-0.747 0.079,-0.853 -0.142,-0.68 -0.144,0.112 -3.47,2.478 -7.392,5.256 -3.921,2.779 -7.243,5.158 -7.381,5.286 -0.24,0.222 7.793,20.827 8.12,20.827 0.279,0 19.762,-16.219 20.512,-17.075 0.471,-0.539 1.016,-1.161 1.21,-1.381 l 0.352,-0.401 -0.778,0.175 c -0.427,0.096 -1.014,0.297 -1.304,0.447 -1.001,0.517 -1.919,0.269 -1.812,-0.489 0.047,-0.327 0.347,-0.587 1.153,-0.998 0.755,-0.385 1.208,-0.763 1.475,-1.231 l 0.386,-0.674 -0.504,-0.995 c -1.516,-2.998 -1.41,-3.1 10.331,-9.969 5.092,-2.979 9.362,-5.513 9.487,-5.629 0.181,-0.168 0.152,-0.658 -0.139,-2.339 -0.202,-1.169 -1.033,-6.715 -1.847,-12.323 -1.452,-10.007 -1.783,-12.109 -1.929,-12.255 -0.04,-0.041 -4.438,0.099 -9.774,0.31 -10.944,0.432 -11.077,0.435 -11.073,0.244 10e-4,-0.077 3.121,-5.221 6.933,-11.431 3.811,-6.211 6.909,-11.313 6.883,-11.339 -0.025,-0.026 -3.458,0.701 -7.627,1.616 -4.17,0.914 -9.873,2.165 -12.674,2.778 -2.801,0.614 -5.238,1.161 -5.415,1.216 -0.306,0.095 -0.326,-0.9 -0.371,-18.459 l -0.047,-18.56 -2.037,-0.728 c -9.927,-3.552 -18.644,-3.824 -31.5550003,-0.986 -11.2049997,2.462 -15.6599997,2.395 -21.3769997,-0.323 -6.141,-2.919 -12.03,-8.503 -19.649,-18.63 -7.43,-9.876 -13.385,-15.075 -22.48901,-19.633 -3.021,-1.512 -9.467,-3.954 -9.467,-3.586 m 95.30401,57.755 c 0.328,0.501 1.374,0.896 2.037,0.769 l 0.461,-0.088 -0.463,0.485 c -1.017,1.067 -1.009,2.144 0.026,3.224 0.339,0.354 0.398,0.486 0.18,0.402 -1.212,-0.465 -2.545,0.592 -2.545,2.016 v 0.936 l -0.607,-0.589 c -1.009,-0.977 -1.965,-0.973 -3.05,0.016 l -0.417,0.379 -10e-4,-0.634 c -0.001,-1.278 -1.309,-2.441 -2.419,-2.151 -0.485,0.127 -0.453,0.007 0.198,-0.733 0.386,-0.441 0.555,-0.827 0.555,-1.268 0,-0.442 -0.169,-0.828 -0.555,-1.268 -0.651,-0.741 -0.683,-0.861 -0.198,-0.734 1.078,0.282 2.233,-0.637 2.374,-1.89 l 0.096,-0.852 0.51,0.489 c 0.853,0.817 1.837,0.828 2.706,0.029 l 0.715,-0.657 0.058,0.844 c 0.031,0.465 0.184,1.038 0.339,1.275 m -119.25701,7.856 c 0.44,0.386 0.826,0.556 1.268,0.556 0.442,0 0.828,-0.17 1.268,-0.556 0.808,-0.71 0.8,-0.713 0.8,0.307 0,1.194 0.772,1.915 2.05,1.915 0.843,0 0.858,0.01 0.459,0.289 -1.113,0.78 -1.193,2.139 -0.185,3.178 l 0.588,0.607 h -0.867 c -1.29,0 -2.048,0.723 -2.03,1.934 l 0.014,0.882 -0.493,-0.47 c -1.041,-0.992 -1.851,-1.028 -2.993,-0.133 l -0.648,0.508 v -0.82 c 0,-0.86 -0.819,-1.901 -1.495,-1.901 -0.157,0 -6.801,3.547 -14.766,7.882 -15.644,8.516 -14.8,8.081 -14.892,7.666 -0.046,-0.209 3.759,-2.362 14.21,-8.04 16.901,-9.182 16.593,-8.946 14.573,-11.165 l -0.38,-0.417 h 0.77 c 1.165,0 1.967,-0.781 1.974,-1.923 0.007,-1.011 -0.023,-1 0.775,-0.299 m -44.936,36.945 v 2.129 h 4.722 4.723 v -2.129 -2.13 h -4.723 -4.722 v 2.13 m -1.582,23.51 c -1.098,1.098 0.067,2.823 1.557,2.304 1.47,-0.513 1.039,-2.759 -0.53,-2.759 -0.361,0 -0.741,0.168 -1.027,0.455 m 212.84101,9.396 -3.463,2.052 0.732,1.333 c 0.873,1.591 0.941,2.433 0.284,3.518 -0.417,0.69 -0.428,0.771 -0.163,1.281 0.175,0.34 0.301,1.178 0.333,2.227 0.042,1.356 0.146,1.881 0.533,2.701 0.701,1.484 0.649,1.905 -0.413,3.306 -0.366,0.482 -0.459,0.8 -0.421,1.43 0.067,1.08 -0.139,1.263 -3.83,3.406 -2.309,1.341 -3.084,1.886 -3.293,2.315 -0.747,1.538 -8.604,12.557 -12.996,18.226 -1.453,1.876 -2.619,3.43 -2.592,3.453 0.027,0.024 1.799,0.393 3.938,0.821 2.138,0.428 5.326,1.067 7.083,1.42 1.813,0.364 3.305,0.577 3.449,0.493 1.806,-1.05 13.741,-10.343 13.348,-10.392 l -0.47,-0.06 0.563,-0.641 c 0.83,-0.945 0.823,-1.899 -0.02,-2.78 l -0.552,-0.577 0.973,-0.094 c 1.275,-0.122 1.829,-0.707 1.829,-1.93 v -0.842 l 0.655,0.575 c 0.495,0.434 0.832,0.575 1.382,0.575 0.55,0 0.888,-0.141 1.383,-0.575 l 0.654,-0.575 v 0.677 c 0,1.359 0.788,2.139 2.158,2.139 h 0.658 l -0.574,0.655 c -0.435,0.495 -0.575,0.832 -0.575,1.382 0,0.551 0.14,0.888 0.575,1.383 l 0.574,0.655 h -0.866 c -1.238,0 -1.95,0.717 -1.95,1.966 v 0.884 l -0.655,-0.635 c -0.9,-0.873 -1.871,-0.866 -2.784,0.02 l -0.635,0.615 v -0.859 c 0,-0.632 -0.114,-0.992 -0.429,-1.359 l -0.43,-0.499 -6.999,5.25 c -6.157,4.618 -6.947,5.267 -6.561,5.386 0.241,0.075 4.125,0.859 8.632,1.744 6.783,1.33 8.194,1.659 8.193,1.908 -0.001,0.165 -0.293,1.79 -0.648,3.611 l -0.647,3.311 v 14.698 14.699 h 10.003 10.003 l -0.049,-24.583 -0.049,-24.583 -1.325,-3.149 c -4.51,-10.718 -8.413,-17.353 -13.169,-22.388 -3.104,-3.287 -5.395,-7.625 -7.27,-13.769 -0.319,-1.044 -0.594,-1.893 -0.612,-1.887 -0.017,0.005 -1.59,0.934 -3.495,2.062 m -4.4,4.617 c -0.011,0.774 0.208,1.646 0.386,1.537 0.247,-0.153 0.182,-1.041 -0.115,-1.56 l -0.265,-0.463 -0.006,0.486 m -213.89601,7.41 c 0,0.399 2.414,13.029 2.55,13.342 0.119,0.274 0.284,0.222 1.339,-0.416 0.662,-0.401 1.27,-0.751 1.35,-0.778 0.129,-0.043 -4.024,-11.102 -4.509,-12.009 -0.204,-0.381 -0.73,-0.481 -0.73,-0.139 m -6.616,4.159 -1.688,4.241 -1.224,6.463 c -0.674,3.555 -1.201,6.526 -1.172,6.603 0.028,0.076 2.064,-1.058 4.522,-2.522 l 4.471,-2.66 -0.239,-1.257 c -0.132,-0.691 -0.794,-4.215 -1.472,-7.831 -0.678,-3.616 -1.295,-6.732 -1.372,-6.926 -0.102,-0.259 -0.583,0.765 -1.826,3.889 m 10.739,9.383 c -0.737,0.431 -1.34,0.909 -1.341,1.062 -0.002,0.247 11.328,60.217 11.571,61.25 l 0.099,0.416 h 7.774 c 4.276,0 7.774,-0.062 7.774,-0.139 0.001,-0.248 -24.349,-63.378 -24.444,-63.375 -0.051,10e-4 -0.696,0.355 -1.433,0.786 m -10.401,6.211 c -2.485,1.496 -4.588,2.846 -4.672,2.999 -0.11,0.199 -8.683,45.14 -10.076,52.824 l -0.126,0.694 h 15.412 15.413 l -0.098,-0.509 c -0.053,-0.28 -2.583,-13.613 -5.62,-29.63 -3.038,-16.016 -5.567,-29.115 -5.619,-29.11 -0.052,0.006 -2.129,1.235 -4.614,2.732 m -11.584,9.731 c -7.179,15.851 -12.084,33.128 -12.639,44.518 l -0.111,2.268 h 2.323 c 2.255,0 2.326,-0.012 2.425,-0.416 0.307,-1.259 9.208,-48.53 9.161,-48.655 -0.031,-0.082 -0.552,0.947 -1.159,2.285 m 185.88501,9.147 c 0.062,0.688 0.255,2.771 0.428,4.63 l 0.314,3.38 h 12.255 12.255 l 3.101,-2.33 c 1.705,-1.281 3.073,-2.356 3.038,-2.389 -0.066,-0.062 -5.955,-1.25 -9.707,-1.957 l -2.237,-0.422 -1.774,1.558 c -2.711,2.38 -3.602,2.857 -5.319,2.845 -2.361,-0.016 -5.661,-1.637 -10.167,-4.996 -2.52,-1.878 -2.326,-1.85 -2.187,-0.319 m 80.125,19.182 v 18.457 h 4.175 4.175 l -0.101,-0.602 c -0.056,-0.331 -0.314,-1.893 -0.573,-3.472 -1.123,-6.83 -3.466,-17.664 -5.386,-24.907 -1.003,-3.784 -2.123,-7.749 -2.22,-7.855 -0.038,-0.043 -0.07,8.228 -0.07,18.379 m -50.615,-13.593 c -1.612,1.21 -2.98,2.25 -3.04,2.311 -0.061,0.06 6.466,0.104 14.504,0.096 l 14.614,-0.013 -3.518,-0.714 c -1.936,-0.392 -5.519,-1.1 -7.963,-1.573 -3.957,-0.765 -10.298,-2.017 -11.297,-2.229 -0.256,-0.055 -1.268,0.595 -3.3,2.122 m -21.746,16.35 -0.787,0.581 v 2.467 2.467 h 21.019 21.018 v -3.055 -3.056 l -20.231,0.007 -20.232,0.008 -0.787,0.581 m -184.37801,0.703 c 0.699,0.244 1.384,0.015 2.024,-0.676 l 0.456,-0.492 v 0.589 c 0,1.501 0.746,2.243 2.256,2.243 h 0.75 l -0.67,0.741 c -0.87,0.963 -0.904,1.756 -0.116,2.655 l 0.554,0.63 -0.853,0.096 c -1.139,0.129 -1.744,0.734 -1.873,1.873 l -0.096,0.853 -0.631,-0.554 c -0.983,-0.863 -2.087,-0.698 -3.065,0.459 -0.308,0.365 -0.318,0.346 -0.324,-0.585 -0.009,-1.351 -0.519,-1.924 -1.829,-2.049 -0.902,-0.087 -0.942,-0.111 -0.59,-0.358 1.079,-0.756 1.145,-2.129 0.151,-3.154 l -0.589,-0.607 h 0.856 c 1.31,0 1.995,-0.654 1.995,-1.903 v -0.944 l 0.514,0.493 c 0.283,0.271 0.769,0.581 1.08,0.69 m 208.77601,11.479 v 2.963 h 8.519 8.518 v -2.963 -2.963 h -8.518 -8.519 v 2.963" />
      <path style="fill:#ece5dd;fill-opacity:1;fill-rule:evenodd;stroke:none" id="path2-49" d="m -69.71533,-346.98054 c -0.56,0.268 -1.643,0.776 -2.407,1.127 -0.764,0.352 -1.889,0.875 -2.5,1.162 -0.611,0.288 -1.778,0.83 -2.593,1.204 -0.815,0.374 -1.981,0.916 -2.592,1.204 -0.611,0.288 -1.736,0.812 -2.5,1.165 -5.306,2.453 -6.473,3.064 -6.369,3.336 1.072,2.793 5.452,11.669 5.733,11.617 0.185,-0.035 1.448,-0.597 2.806,-1.25 1.358,-0.653 2.513,-1.188 2.566,-1.188 0.053,0 1.222,-0.541 2.599,-1.203 1.377,-0.662 2.618,-1.204 2.758,-1.204 0.141,0 0.297,-0.067 0.347,-0.149 0.051,-0.082 1.16,-0.637 2.465,-1.233 5.243,-2.397 6.57,-3.086 6.466,-3.357 -0.595,-1.55 -5.436,-11.734 -5.575,-11.728 -0.102,0.004 -0.644,0.228 -1.204,0.497 m 139.53401,41.34 c 0,10.644 0.022,14.998 0.05,9.676 0.027,-5.321 0.027,-14.03 0,-19.352 -0.028,-5.321 -0.05,-0.967 -0.05,9.676 m -50.83,6.547 c 0,1.302 -0.813,2.157 -2.052,2.157 h -0.605 l 0.407,0.433 c 0.862,0.919 0.856,2.108 -0.017,3.039 l -0.39,0.417 h 0.605 c 1.239,0 2.052,0.855 2.052,2.157 v 0.659 l 0.655,-0.575 c 0.831,-0.73 1.737,-0.772 2.591,-0.12 l 0.596,0.455 0.105,-0.779 c 0.143,-1.068 0.955,-1.797 2.001,-1.797 h 0.757 l -0.575,-0.655 c -0.404,-0.46 -0.575,-0.843 -0.575,-1.289 0,-0.447 0.171,-0.83 0.575,-1.29 l 0.575,-0.655 h -0.563 c -1.26,0 -2.251,-0.924 -2.252,-2.1 l -10e-4,-0.525 -0.57,0.479 c -0.822,0.692 -1.808,0.657 -2.664,-0.095 l -0.655,-0.575 v 0.659 m -115.55601,9.372 c 0,1.3 -0.744,2.044 -2.044,2.044 h -0.772 l 0.575,0.655 c 0.77,0.877 0.794,1.879 0.065,2.67 -0.31,0.337 -5.925,3.488 -14.398,8.081 -15.727,8.526 -14.821,8.013 -14.586,8.249 0.11,0.11 5.596,-2.773 14.787,-7.77 13.056,-7.099 14.664,-7.927 15.104,-7.773 0.744,0.259 1.118,0.783 1.223,1.712 l 0.094,0.839 0.631,-0.553 c 0.858,-0.754 1.681,-0.747 2.556,0.021 l 0.654,0.574 0.001,-0.621 c 0.001,-1.318 1.424,-2.484 2.526,-2.069 0.24,0.091 0.162,-0.078 -0.258,-0.56 -0.823,-0.943 -0.832,-1.884 -0.027,-2.8 l 0.574,-0.655 h -0.772 c -1.299,0 -2.044,-0.744 -2.044,-2.044 v -0.581 l -0.57,0.479 c -1.009,0.849 -1.744,0.846 -2.764,-0.013 l -0.555,-0.466 v 0.581 m 194.49101,-0.05 c 0.178,0.046 0.47,0.046 0.648,0 0.179,-0.047 0.033,-0.085 -0.324,-0.085 -0.356,0 -0.502,0.038 -0.324,0.085 m 2.232,2.465 c 0,0.56 0.034,0.789 0.077,0.509 0.042,-0.28 0.042,-0.738 0,-1.019 -0.043,-0.28 -0.077,-0.05 -0.077,0.51 m -92.3710003,1.722 c -2.241,1.344 -10.429,6.235 -18.1949997,10.868 -11.712,6.987 -15.738,9.552 -13.86,8.831 0.2,-0.077 22.8619997,-13.56 34.72,-20.658 1.579,-0.945 1.991,-1.327 1.562,-1.444 -0.084,-0.023 -1.986,1.058 -4.2270003,2.403 m -51.2789997,12.139 c -0.069,0.111 0.4,0.206 1.203,0.244 0.724,0.034 1.355,-10e-4 1.402,-0.078 0.047,-0.076 -0.371,-0.138 -0.929,-0.138 -0.558,0 -1.138,-0.048 -1.289,-0.106 -0.151,-0.057 -0.325,-0.023 -0.387,0.078 m -7.375,2.569 c 0.333,0.041 0.833,0.041 1.111,-0.002 0.279,-0.042 0.006,-0.076 -0.605,-0.075 -0.611,10e-4 -0.839,0.036 -0.506,0.077 m 0.321,0.977 c -0.309,0.133 -0.268,0.161 0.242,0.172 0.364,0.008 0.567,-0.062 0.499,-0.172 -0.134,-0.216 -0.239,-0.216 -0.741,0 m 10.292,3.556 c -0.008,0.173 -0.16,0.4 -0.338,0.503 -0.179,0.104 -0.231,0.192 -0.116,0.195 0.306,0.008 0.675,-0.5 0.564,-0.775 -0.061,-0.154 -0.1,-0.126 -0.11,0.077 m -7.285,3.25 c -0.039,0.076 -0.01,0.389 0.064,0.694 0.128,0.53 0.134,0.523 0.114,-0.139 -0.02,-0.705 -0.052,-0.804 -0.178,-0.555 m -1.903,1.759 -0.919,0.972 0.972,-0.919 c 0.904,-0.854 1.057,-1.025 0.919,-1.025 -0.029,0 -0.467,0.437 -0.972,0.972 m 2.086,4.161 c 0.329,0.041 0.912,0.042 1.296,0.002 0.385,-0.04 0.116,-0.074 -0.597,-0.075 -0.713,0 -1.028,0.032 -0.699,0.073 m -0.088,0.555 c 0.28,0.042 0.738,0.042 1.018,0 0.28,-0.043 0.051,-0.077 -0.509,-0.077 -0.56,0 -0.789,0.034 -0.509,0.077 m -81.66701,1.487 -2.083,0.059 v 2.124 2.123 h -4.908 -4.907 v -2.129 -2.13 h -2.13 -2.129 v 2.13 2.129 h -16.033 -16.033 l -0.541,0.541 -0.541,0.542 v 3.255 3.255 h 2.129 2.13 v 3.148 3.148 h -2.13 -2.129 v 10.848 10.847 l 0.571,0.572 0.571,0.571 26.023,-0.114 c 28.51,-0.126 26.674,-0.046 27.105,-1.179 0.113,-0.297 0.161,-6.776 0.131,-17.394 l -0.05,-16.92 -0.497,-0.498 c -0.388,-0.388 -0.725,-0.516 -1.538,-0.583 l -1.041,-0.086 0.057,-2.199 c 0.031,-1.21 0.056,-2.181 0.056,-2.159 0,0.022 -0.937,0.066 -2.083,0.099 m 61.713,14.438 c -9.268,5.537 -23.31,13.911 -31.204,18.608 -15.85,9.434 -14.898,8.844 -14.658,9.083 0.106,0.106 6.774,-3.763 17.369,-10.079 9.458,-5.638 23.631,-14.083 31.496,-18.766 7.864,-4.683 14.30201,-8.568 14.30501,-8.634 0.028,-0.491 -2.378,0.869 -17.30801,9.788 m 43.08601,-7.044 c -0.201,0.214 -0.141,0.599 0.348,2.243 0.326,1.091 0.611,2.067 0.634,2.169 0.024,0.102 0.111,0.344 0.194,0.537 0.1,0.234 -0.045,0.95 -0.435,2.139 -0.323,0.983 -0.586,1.911 -0.586,2.061 0,0.256 0.6,0.598 4.741,2.705 l 1.524,0.776 0.199,0.983 c 0.109,0.542 0.238,1.276 0.286,1.633 0.048,0.356 0.259,1.564 0.468,2.685 0.21,1.12 0.416,2.287 0.459,2.592 0.043,0.306 0.17,1.03 0.282,1.611 0.112,0.58 0.239,1.288 0.282,1.574 0.043,0.285 0.25,1.436 0.459,2.556 0.209,1.12 0.418,2.287 0.463,2.593 0.045,0.305 0.253,1.472 0.463,2.592 0.209,1.121 0.414,2.287 0.454,2.593 0.041,0.305 0.159,0.93 0.263,1.389 0.104,0.458 0.231,1.166 0.281,1.574 0.051,0.407 0.185,1.215 0.297,1.795 0.113,0.58 0.241,1.289 0.284,1.574 0.044,0.286 0.375,2.145 0.736,4.131 0.361,1.986 0.69,3.861 0.731,4.166 0.041,0.306 0.16,0.931 0.264,1.389 0.103,0.459 0.233,1.167 0.286,1.574 0.054,0.408 0.277,1.717 0.496,2.909 0.4699997,2.561 0.7919997,2.036 -2.792,4.555 -1.477,1.038 -2.769,1.955 -2.871,2.037 -0.102,0.082 -1.685,1.206 -3.518,2.497 -1.834,1.291 -3.417,2.416 -3.519,2.5 -0.102,0.083 -1.393,0.999 -2.87,2.036 -1.477,1.036 -2.769,1.952 -2.87,2.036 -0.102,0.084 -1.394,1.002 -2.871,2.041 -1.477,1.039 -2.77,1.958 -2.875,2.043 -0.104,0.085 -0.438,0.312 -0.741,0.505 -0.303,0.193 -0.592,0.399 -0.643,0.457 -0.051,0.058 -0.843,0.637 -1.759,1.287 -0.917,0.65 -1.703,1.21 -1.747,1.244 -0.044,0.035 0.012,0.156 0.125,0.269 0.169,0.169 4.813,-2.845 6.251,-4.057 0.102,-0.086 1.977,-1.422 4.167,-2.968 2.19,-1.547 4.065,-2.88 4.167,-2.963 0.101,-0.083 1.976,-1.417 4.166,-2.963 2.19,-1.546 4.067,-2.882 4.172,-2.968 0.104,-0.086 0.438,-0.314 0.741,-0.507 0.302,-0.193 0.592,-0.399 0.643,-0.458 0.051,-0.059 1.134,-0.845 2.407,-1.748 1.273,-0.903 2.412,-1.715 2.531,-1.806 0.2119997,-0.161 0.4699997,0.739 0.7009997,2.448 0.048,0.357 0.259,1.565 0.468,2.686 0.21,1.12 0.416,2.287 0.459,2.592 0.043,0.306 0.17,1.03 0.282,1.61 0.112,0.581 0.239,1.289 0.282,1.574 0.043,0.286 0.25,1.436 0.459,2.557 0.209,1.12 0.416,2.287 0.459,2.592 0.043,0.306 0.17,1.031 0.282,1.611 0.112,0.58 0.239,1.288 0.282,1.574 0.043,0.285 0.249,1.436 0.458,2.556 0.21,1.121 0.416,2.287 0.459,2.593 0.043,0.305 0.17,1.03 0.282,1.61 0.112,0.58 0.239,1.289 0.282,1.574 0.043,0.286 0.249,1.436 0.459,2.557 0.209,1.12 0.414,2.287 0.454,2.592 0.041,0.306 0.159,0.931 0.263,1.389 0.104,0.458 0.229,1.167 0.277,1.574 0.048,0.407 0.173,1.116 0.278,1.574 0.104,0.458 0.233,1.167 0.286,1.574 0.053,0.408 0.268,1.658 0.478,2.778 0.21,1.12 0.415,2.287 0.455,2.593 0.041,0.305 0.159,0.93 0.263,1.388 0.104,0.459 0.232,1.167 0.285,1.575 0.052,0.407 0.388,2.324 0.74500001,4.259 0.357,1.935 0.692,3.81 0.744,4.166 0.34,2.339 0.562,3.159 0.838,3.097 0.157,-0.034 0.27199999,-0.141 0.25499999,-0.237 -0.017,-0.096 -0.20199999,-1.091 -0.41199999,-2.211 -0.21,-1.121 -0.422,-2.329 -0.472,-2.686 -0.049,-0.356 -0.261,-1.564 -0.471,-2.685 -0.209,-1.12 -0.417,-2.287 -0.463,-2.592 -0.045,-0.306 -0.253,-1.473 -0.46200001,-2.593 -0.21,-1.12 -0.416,-2.287 -0.459,-2.593 -0.043,-0.305 -0.17,-1.03 -0.282,-1.61 -0.113,-0.58 -0.24,-1.288 -0.284,-1.574 -0.043,-0.286 -0.374,-2.144 -0.735,-4.13 -0.362,-1.986 -0.691,-3.861 -0.731,-4.167 -0.041,-0.306 -0.16,-0.931 -0.264,-1.389 -0.104,-0.458 -0.233,-1.167 -0.286,-1.574 -0.054,-0.407 -0.394,-2.366 -0.756,-4.352 -0.361,-1.986 -0.694,-3.861 -0.74,-4.166 -0.045,-0.306 -0.254,-1.473 -0.463,-2.593 -0.21,-1.12 -0.416,-2.287 -0.459,-2.593 -0.043,-0.305 -0.17,-1.03 -0.282,-1.61 -0.113,-0.58 -0.239,-1.288 -0.282,-1.574 -0.043,-0.286 -0.25,-1.436 -0.459,-2.556 -0.21,-1.121 -0.414,-2.287 -0.455,-2.593 -0.04,-0.306 -0.158,-0.931 -0.262,-1.389 -0.104,-0.458 -0.229,-1.167 -0.277,-1.574 -0.049,-0.407 -0.174,-1.116 -0.278,-1.574 -0.105,-0.458 -0.236,-1.25 -0.291,-1.759 l -0.101,-0.926 5.969,-4.213 c 3.28300001,-2.316 6.055,-4.281 6.159,-4.366 0.105,-0.085 0.438,-0.313 0.741,-0.506 0.303,-0.193 0.592,-0.402 0.643,-0.463 0.051,-0.062 1.884,-1.375 4.074,-2.919 2.1900003,-1.543 4.0650003,-2.873 4.1670003,-2.954 0.869,-0.695 2.72,-1.921 2.792,-1.849 0.087,0.087 0.522,3.609 0.703,5.696 0.049,0.56 0.218,2.102 0.375,3.426 0.158,1.324 0.334,2.949 0.391,3.611 0.125,1.437 0.186,2.005 0.439,4.074 0.105,0.866 0.249,2.199 0.319,2.963 0.184,2.008 0.187,2.036 0.34,3.102 0.094,0.661 0.224,0.972 0.407,0.972 0.297,0 0.296,-0.018 -0.188,-4.167 -0.154,-1.324 -0.329,-2.949 -0.389,-3.611 -0.121,-1.347 -0.141,-1.528 -0.542,-4.907 -0.157,-1.324 -0.332,-2.949 -0.39,-3.611 -0.058,-0.662 -0.139,-1.496 -0.18,-1.852 -0.591,-5.06 -0.674,-6.139 -0.486,-6.366 0.171,-0.205 1.092,-0.861 3.79,-2.701 0.218,-0.149 1.313,-0.946 2.434,-1.771 2.193,-1.616 14.469,-10.356 15.345,-10.925 l 0.531,-0.345 -0.068,0.843 -0.068,0.843 0.573,-0.437 c 0.987,-0.753 2.237,-0.526 2.992,0.542 l 0.417,0.589 v -0.71 c 0,-1.131 1.018,-2.049 2.135,-1.923 0.959,0.108 0.956,0.112 0.421,-0.612 -0.593,-0.802 -0.516,-1.73 0.207,-2.475 0.618,-0.638 0.587,-0.849 -0.123,-0.849 -0.845,0 -1.574,-0.982 -1.5,-2.022 0.059,-0.843 0.04,-0.89 -0.283,-0.691 -1.236,0.761 -1.519,0.822 -2.212,0.473 -0.222,-0.113 -0.631,-0.467 -0.909,-0.788 l -0.504,-0.583 -0.005,0.67 c -0.009,1.228 -1.207,2.124 -2.507,1.875 l -0.511,-0.097 0.438,0.591 c 0.703,0.951 0.608,1.956 -0.256,2.703 l -0.693,0.599 0.712,0.114 c 0.617,0.098 1.534,0.744 1.314,0.925 -0.123,0.101 -14.577,10.382 -18.343,13.048 -3.685,2.608 -3.61,2.562 -3.627,2.211 -0.007,-0.127 -0.136,-1.273 -0.286,-2.546 -0.151,-1.273 -0.277,-2.44 -0.279,-2.593 -0.002,-0.152 -0.059,-0.736 -0.127,-1.296 -0.068,-0.56 -0.264,-2.303 -0.435,-3.874 -0.206,-1.883 -0.391,-2.881 -0.544,-2.932 -0.284,-0.094 -0.298,0.607 -0.054,2.644 0.097,0.812 0.225,2.018 0.283,2.681 0.122,1.372 0.149,1.613 0.544,4.907 0.412,3.437 0.397,3.72 -0.217,4.115 -0.28,0.179 -0.671,0.473 -0.868,0.652 -0.198,0.179 -0.421,0.326 -0.497,0.326 -0.075,0 -0.247,0.109 -0.381,0.242 -0.135,0.134 -2.037,1.508 -4.2260003,3.053 -2.19,1.546 -4.067,2.881 -4.172,2.967 -0.104,0.086 -0.438,0.314 -0.741,0.507 -0.303,0.194 -0.592,0.402 -0.643,0.463 -0.051,0.061 -1.301,0.958 -2.77799999,1.994 -1.47700001,1.037 -2.77000001,1.953 -2.87500001,2.038 -0.104,0.085 -0.438,0.312 -0.741,0.505 -0.303,0.194 -0.592,0.4 -0.643,0.458 -0.495,0.571 -5.447,3.873 -5.553,3.703 -0.104,-0.169 -0.5729997,-2.74 -0.6589997,-3.616 -0.01,-0.102 -0.116,-0.643 -0.235,-1.203 -0.118,-0.561 -0.251,-1.311 -0.295,-1.667 -0.043,-0.357 -0.164,-1.023 -0.268,-1.482 -0.104,-0.458 -0.232,-1.166 -0.285,-1.574 -0.053,-0.407 -0.268,-1.657 -0.478,-2.777 -0.21,-1.121 -0.417,-2.287 -0.46,-2.593 -0.043,-0.306 -0.17,-1.03 -0.282,-1.61 -0.112,-0.58 -0.239,-1.289 -0.281,-1.574 -0.043,-0.286 -0.37,-2.103 -0.726,-4.038 -0.357,-1.935 -0.691,-3.81 -0.743,-4.167 -0.051,-0.356 -0.389,-2.273 -0.75,-4.259 -0.362,-1.986 -0.694,-3.861 -0.74,-4.167 -0.045,-0.305 -0.254,-1.472 -0.463,-2.592 -0.21,-1.121 -0.416,-2.287 -0.459,-2.593 -0.043,-0.306 -0.175,-1.053 -0.292,-1.662 -0.187,-0.972 -0.31,-1.733 -0.352,-2.179 -0.007,-0.076 -1.075,-0.677 -2.373,-1.336 -1.299,-0.66 -2.695,-1.388 -3.102,-1.62 -0.408,-0.231 -0.761,-0.428 -0.786,-0.437 -0.042,-0.015 0.592,-2.054 0.832,-2.673 0.059,-0.153 0.114,-0.334 0.123,-0.402 0.009,-0.068 0.073,-0.18 0.143,-0.25 0.07,-0.07 0.05,-0.329 -0.044,-0.576 -0.093,-0.247 -0.207,-0.634 -0.251,-0.861 -0.044,-0.226 -0.209,-0.767 -0.366,-1.201 -0.157,-0.434 -0.29,-0.829 -0.297,-0.878 -0.007,-0.048 -0.051,-0.193 -0.097,-0.321 -0.046,-0.129 -0.191,-0.66 -0.322,-1.181 -0.199,-0.793 -0.277,-0.905 -0.479,-0.687 m -137.97901,2.268 c 1.016,1.016 0.632,2.584 -0.732,2.992 -1.839,0.552 -3.135,-1.74 -1.705,-3.017 0.797,-0.713 1.708,-0.704 2.437,0.025 m 4.719,0.654 c 0.358,0.547 0.218,1.114 -0.371,1.5 -1.029,0.675 -2.112,-0.694 -1.278,-1.616 0.448,-0.495 1.288,-0.436 1.649,0.116 m 4.791,-0.208 c 0.678,0.495 0.148,1.976 -0.707,1.976 -0.488,0 -1.04,-0.588 -1.04,-1.108 0,-0.963 0.964,-1.441 1.747,-0.868 m -35.027,4.52 c 0.589,0.037 1.506,0.037 2.037,0 0.531,-0.038 0.049,-0.068 -1.071,-0.067 -1.121,0 -1.555,0.031 -0.966,0.067 m 55.688,10.419 v 8.518 h -13.148 -13.148 l -0.015,-0.972 c -0.008,-0.535 -0.062,-0.847 -0.12,-0.694 -0.226,0.593 -0.792,0.714 -1.241,0.264 -0.345,-0.345 -0.426,-4.481 -0.099,-5.091 0.239,-0.449 1.021,-0.469 1.275,-0.034 0.135,0.232 0.188,-0.33 0.188,-1.991 0,-1.661 -0.053,-2.223 -0.188,-1.991 -0.254,0.435 -1.036,0.414 -1.275,-0.034 -0.327,-0.61 -0.246,-4.746 0.099,-5.091 0.449,-0.45 1.015,-0.329 1.241,0.264 0.058,0.153 0.112,-0.16 0.12,-0.694 l 0.015,-0.973 h 13.148 13.148 v 8.519 m 26.921,-8.009 c 0.545,1.862 0.651,6.19 0.208,8.502 -0.152,0.798 -0.277,1.472 -0.277,1.498 -0.001,0.295 4.647,-0.007 5.056,-0.329 1.655,-1.302 1.854,-7.532 0.304,-9.503 -0.504,-0.641 -5.475,-0.799 -5.291,-0.168 m -50.81,8.009 v 5.185 h 8.796 8.797 v -5.185 -5.185 h -8.797 -8.796 v 5.185 m 15.193,0.185 c 0.863,0 1.192,1.78 0.463,2.509 -0.936,0.936 -2.515,0.264 -2.502,-1.065 0.009,-0.931 0.9,-1.765 1.63,-1.525 0.135,0.045 0.319,0.081 0.409,0.081 m 91.76101,12.762 c -0.058,0.094 -0.022,0.387 0.079,0.653 0.101,0.266 0.227,0.669 0.279,0.896 0.052,0.226 0.258,1.015 0.457,1.754 0.363,1.345 0.454,1.879 0.707,4.12 0.915,8.138 -2.975,15.877 -9.68001,19.257 -0.203,0.103 -0.495,0.271 -0.648,0.375 -0.153,0.103 -0.682,0.361 -1.177,0.573 -0.604,0.259 -0.838,0.447 -0.713,0.572 0.621,0.621 5.55201,-2.508 7.74101,-4.912 1.748,-1.92 3.765,-5.27 4.07,-6.759 0.028,-0.135 0.111,-0.385 0.185,-0.555 0.619,-1.42 1.115,-7.483 0.746,-9.106 -0.058,-0.255 -0.141,-0.797 -0.185,-1.204 -0.043,-0.407 -0.165,-1.116 -0.269,-1.574 -0.105,-0.458 -0.23,-1.042 -0.277,-1.296 -0.048,-0.255 -0.176,-0.692 -0.284,-0.973 -0.109,-0.28 -0.148,-0.509 -0.087,-0.509 0.06,0 0.028,-0.104 -0.072,-0.231 -0.1,-0.128 -0.237,-0.461 -0.304,-0.741 -0.122,-0.51 -0.371,-0.659 -0.568,-0.34 m 109.021,7.186 c 0.281,0.042 0.698,0.041 0.926,-0.003 0.227,-0.044 -0.003,-0.078 -0.512,-0.077 -0.509,0.001 -0.696,0.037 -0.414,0.08 m -189.87301,6.551 c -9,5.36 -8.86,5.271 -8.593,5.511 0.26,0.233 17.322,-10.017 17.147,-10.301 -0.095,-0.153 -2.741,1.328 -8.554,4.79 m -13.972,8.316 c -0.612,0.393 -1.208,0.72 -1.326,0.728 -0.117,0.007 -0.172,0.171 -0.122,0.364 0.105,0.401 3.008,-1.14 3.017,-1.601 0.007,-0.378 -0.393,-0.248 -1.569,0.509 m 52.87,3.116 c 0,0.084 0.21,0.35 0.466,0.591 0.502,0.471 1.571,2.055 1.651,2.444 0.026,0.131 0.149,0.485 0.272,0.787 0.601,1.471 0.851,4.879 0.521,7.09 -0.119,0.798 -0.096,0.972 0.128,0.972 0.718,0 0.788,-5.354 0.101,-7.685 -0.625,-2.12 -3.139,-5.483 -3.139,-4.199 m -63.241,3.08 c -2.608,1.559 -4.471,2.788 -4.508,2.974 -0.086,0.424 -0.307,0.54 4.76,-2.501 3.777,-2.267 5.051,-3.191 4.332,-3.141 -0.077,0.005 -2.139,1.206 -4.584,2.668 m 229.61101,0.418 c -0.024,1.147 -0.805,1.904 -1.961,1.904 h -0.77 l 0.38,0.417 c 1.012,1.112 1.04,1.904 0.104,2.941 l -0.691,0.765 0.622,-0.137 c 0.97,-0.213 0.842,-0.106 -6.513,5.437 -7.143,5.385 -7.251,5.449 -8.39,5.016 -0.401,-0.153 -0.465,-0.143 -0.315,0.046 0.102,0.131 0.667,1.872 1.253,3.869 l 1.067,3.632 1.286,0.23 c 0.707,0.126 1.317,0.198 1.355,0.16 0.113,-0.113 -2.077,-7.211 -2.291,-7.425 -0.259,-0.26 13.69,-10.746 14.091,-10.593 0.403,0.155 0.762,0.922 0.778,1.663 0.016,0.769 -0.02,0.756 0.545,0.191 0.847,-0.848 1.866,-0.845 2.88,0.009 l 0.57,0.479 v -0.815 c 0,-1.279 1.062,-2.152 2.301,-1.891 l 0.57,0.12 -0.582,-0.621 c -0.996,-1.066 -0.97,-2.305 0.064,-3.119 l 0.475,-0.374 h -0.873 c -1.247,0 -1.955,-0.714 -1.955,-1.974 v -0.892 l -0.481,0.519 c -0.955,1.029 -1.957,1.071 -2.945,0.121 l -0.555,-0.534 -0.019,0.856 m -55.503,9.59 c -0.147,0.936 -0.162,1.02 -0.687,3.745 -0.24,1.245 -0.382,2.318 -0.316,2.384 0.108,0.108 3.351,0.829 3.393,0.754 0.017,-0.031 -1.988,-6.789 -2.179,-7.346 -0.053,-0.153 -0.148,0.055 -0.211,0.463 m 5.614,0.585 c 0,0.232 2.099,7.192 2.207,7.32 0.11,0.131 0.663,0.26 1.933,0.451 0.859,0.13 0.899,0.456 -0.504,-4.19 l -0.978,-3.24 -0.912,-0.214 c -1.067,-0.25 -1.746,-0.299 -1.746,-0.127 m 8.149,1.57 c 0,0.146 2.059,7.221 2.136,7.34 0.075,0.115 2.678,0.545 2.678,0.441 0,-0.062 -0.475,-1.725 -1.056,-3.696 -1.11,-3.767 -1.157,-3.849 -2.316,-4.022 -0.335,-0.05 -0.797,-0.121 -1.026,-0.157 -0.229,-0.036 -0.416,0.006 -0.416,0.094 m 8.148,1.635 c 0,0.115 0.463,1.747 1.029,3.627 0.566,1.88 0.977,3.501 0.915,3.602 -0.063,0.102 0.077,0.186 0.313,0.188 0.235,0.002 0.944,0.112 1.576,0.245 0.631,0.132 1.109,0.178 1.063,0.103 -0.047,-0.075 -0.549,-1.706 -1.117,-3.624 -1.122,-3.793 -1.195,-3.931 -2.129,-4.048 -0.347,-0.044 -0.861,-0.13 -1.141,-0.191 -0.32,-0.07 -0.509,-0.033 -0.509,0.098 m 8.063,1.559 c 0.651,1.929 2.116,7.196 2.037,7.323 -0.058,0.094 -1.489,1.198 -3.18,2.453 -2.273,1.687 -2.976,2.297 -2.694,2.34 0.253,0.038 1.412,-0.718 3.477,-2.269 1.703,-1.279 3.229,-2.324 3.391,-2.322 0.162,0.003 0.626,0.082 1.03,0.175 0.974,0.226 0.995,0.528 -0.246,-3.628 l -1.099,-3.681 -1.393,-0.299 c -0.944,-0.202 -1.37,-0.232 -1.323,-0.092 m 16.197,2.962 c 0.013,0.213 2.219,7.396 2.294,7.472 0.104,0.103 2.575,0.612 2.643,0.544 0.039,-0.039 -2.138,-7.387 -2.206,-7.449 -0.051,-0.046 -2.733,-0.603 -2.731,-0.567 m 8.149,1.622 c 0.017,0.459 2.21,7.213 2.277,7.011 0.283,-0.849 1.217,-6.205 1.1,-6.309 -0.076,-0.067 -0.68,-0.223 -1.342,-0.346 -0.662,-0.123 -1.391,-0.268 -1.62,-0.323 -0.229,-0.054 -0.416,-0.069 -0.415,-0.033 m -127.317,8.501 c -0.611,0.402 -1.553,1.044 -2.09301,1.426 -0.54,0.382 -6.165,4.312 -12.5,8.732 -12.967,9.047 -11.931,8.29 -11.684,8.538 0.124,0.123 3.815,-2.348 11.102,-7.432 6.004,-4.19 11.999,-8.352 13.323,-9.25 3.11301,-2.112 3.37901,-2.328 3.14901,-2.559 -0.124,-0.124 -0.554,0.057 -1.297,0.545 m 70.648,20.547 v 14.815 h 29.567 29.567 l -0.122,-5.03 c -0.068,-2.767 -0.123,-9.433 -0.123,-14.815 v -9.785 h -29.444 -29.445 v 14.815 m 51.81,-5.046 -0.05,3.102 -21.065,0.047 -21.065,0.047 v -2.578 -2.577 l 0.777,-0.571 0.778,-0.572 h 20.338 20.338 l -0.051,3.102 m -227.18001,-2.186 c 0,1.312 -1.135,2.385 -2.282,2.155 l -0.564,-0.113 0.381,0.419 c 0.986,1.082 1.058,2.055 0.224,3.005 l -0.575,0.655 h 0.757 c 1.053,0 1.858,0.728 2.003,1.814 l 0.107,0.795 0.408,-0.383 c 0.867,-0.814 2.003,-0.818 2.868,-0.01 l 0.562,0.525 v -0.795 c 0,-1.192 0.76,-1.946 1.961,-1.946 h 0.887 l -0.591,-0.578 c -0.829,-0.81 -0.835,-1.908 -0.016,-2.841 l 0.573,-0.653 -0.548,0.109 c -1.142,0.229 -2.266,-0.782 -2.266,-2.036 v -0.732 l -0.417,0.379 c -1.06,0.966 -1.895,1.032 -2.817,0.222 l -0.655,-0.575 v 0.584 m 207.13001,11.862 v 3.055 h -11.019 -11.018 l -0.052,-2.862 c -0.028,-1.575 -0.009,-2.971 0.041,-3.104 0.075,-0.194 2.2,-0.231 11.07,-0.193 l 10.978,0.048 v 3.056 m 20.092,0 v 3.148 h -8.518 -8.519 v -3.148 -3.148 h 8.519 8.518 v 3.148" />
      <path style="fill:#ece5dd;fill-opacity:1;fill-rule:evenodd;stroke:none" id="path3-2" d="m 69.91468,-305.64054 v 19.26 h 13.241 13.24 l 0.006,-1.158 c 0.003,-0.636 0.108,-1.286 0.232,-1.443 1.435,-1.821 3.651,-0.752 3.651,1.761 0,1.143 -0.241,1.199 6.574,-1.535 3.26,-1.307 6.364,-2.519 6.899,-2.694 3.217,-1.05 3.413,-1.015 -5.834,-1.029 l -8.38,-0.013 v -11.945 -11.944 h 8.241 c 4.533,0 8.24,-0.063 8.24,-0.139 -0.001,-0.077 -0.73,-0.513 -1.621,-0.971 -0.89,-0.458 -4.333,-2.312 -7.649,-4.12 l -6.031,-3.289 h -15.405 -15.404 v 19.259 m -111.667,31.591 -1.389,0.625 1.169,0.003 c 3.581,0.01 -3.977,2.399 -7.8,2.465 l -2.187,0.039 1.044,0.493 c 1.498,0.707 1.474,0.756 -0.33,0.683 -1.294,-0.052 -1.603,-0.015 -1.527,0.181 0.052,0.136 0.094,1.204 0.094,2.375 0,1.89 0.031,2.096 0.278,1.85 0.282,-0.283 1.657,-0.259 2.963,0.05 0.716,0.17 0.835,1.18 0.15,1.277 -0.244,0.035 -0.428,0.211 -0.463,0.444 -0.142,0.957 -1.296,0.872 -1.412,-0.104 -0.038,-0.316 -0.171,-0.49 -0.376,-0.49 -0.174,0 -0.501,-0.129 -0.727,-0.287 l -0.41,-0.288 0.092,1.352 c 0.05,0.744 0.179,2.686 0.286,4.315 0.374,5.698 0.787,7.647 1.746,8.24 0.713,0.44 3.012,0.925 4.417,0.931 1.662,0.007 3.463,1.141 4.231,2.664 0.21,0.417 0.405,0.784 0.433,0.816 0.041,0.047 14.506,-3.61 15.683,-3.964 0.257,-0.078 0.392,0.165 0.723,1.303 0.246,0.848 0.505,1.399 0.656,1.399 0.315,0 0.315,-0.32 -0.001,-1.226 -0.137,-0.395 -0.302,-0.936 -0.367,-1.203 l -0.119,-0.484 3.136,-0.794 3.136,-0.794 -0.283,-0.666 c -0.156,-0.366 -0.45,-1.083 -0.652,-1.592 -0.758,-1.907 -2.991,-7.043 -3.13,-7.197 -0.079,-0.089 -1.043,0.14 -2.142,0.508 -1.098,0.368 -2.059,0.607 -2.135,0.531 -0.075,-0.076 -0.879,-1.13 -1.787,-2.341 l -1.651,-2.204 0.27,-0.852 c 1.767,-5.586 -2.772,-7.006 -5.498,-1.72 -0.289,0.561 -0.442,0.427 -1.826,-1.6 -1.256,-1.837 -1.904,-3.06 -2.355,-4.438 -0.174,-0.531 -0.369,-0.956 -0.433,-0.945 -0.065,0.011 -0.743,0.301 -1.507,0.645 m 1.495,7.406 c 0.413,0.498 -0.034,0.877 -1.37,1.162 -1.119,0.238 -1.221,0.299 -1.129,0.665 0.061,0.245 -0.035,0.572 -0.246,0.832 -0.457,0.565 -1.13,0.38 -1.276,-0.35 -0.1,-0.499 -0.129,-0.511 -0.846,-0.35 -0.823,0.185 -1.257,-0.022 -1.257,-0.597 0,-0.79 5.57,-2.029 6.124,-1.362 m -7.252,5.728 -0.231,2.165 -0.755,-0.121 c -2.295,-0.367 -2.409,-1.073 -0.468,-2.912 1.837,-1.741 1.739,-1.799 1.454,0.868 m 2.851,3.811 c 0.733,0.112 1.411,0.278 1.508,0.371 0.216,0.206 -4.118,0.208 -5.176,0.002 l -0.741,-0.144 0.649,-0.199 c 0.865,-0.266 2.143,-0.276 3.76,-0.03 m -136.96201,11.467 c 0.142,0.542 -2.419,4.776 -3.029,5.008 -0.253,0.096 -1.263,0.175 -2.245,0.175 h -1.785 l 2.366,1.759 2.366,1.759 h 4.894 4.894 v -3.148 -3.148 h -2.681 -2.681 l -1.045,-1.389 c -1.138,-1.512 -1.199,-1.57 -1.054,-1.016 m 16.89,0.143 c -1.43,1.277 -0.134,3.569 1.705,3.017 0.872,-0.261 1.273,-0.808 1.273,-1.737 0,-1.589 -1.777,-2.354 -2.978,-1.28 m 6.312,15.41 v 8.518 h 11.296 11.296 v -8.518 -8.519 h -11.296 -11.296 v 8.519 m 20,0 v 5.185 h -8.797 -8.796 v -5.185 -5.185 h 8.796 8.797 v 5.185 m 203.23701,13.322 c -0.304,0.186 -0.904,0.556 -1.334,0.822 l -0.781,0.483 0.383,0.65 c 0.45,0.763 0.471,0.757 -0.986,0.266 -1.228,-0.413 -4.255,-1.091 -4.896,-1.096 -0.37,-0.002 -1.494,1.168 -5.405,5.632 l -0.985,1.125 0.986,0.109 c 3.653,0.406 6.913,3.134 8.135,6.807 0.917,2.755 1.149,-1.978 0.262,-5.342 -0.282,-1.07 -0.552,-2.12 -0.599,-2.333 -0.082,-0.367 0.009,-0.395 1.642,-0.503 0.951,-0.062 2.024,-0.166 2.384,-0.231 l 0.655,-0.117 1.675,3.643 c 1.904,4.142 1.775,4.003 2.599,2.808 0.745,-1.081 0.767,-1.56 0.134,-2.897 -0.385,-0.815 -0.491,-1.341 -0.527,-2.629 -0.061,-2.163 -0.49,-3.148 -1.126,-2.586 -0.097,0.086 -0.473,0.333 -0.837,0.551 l -0.662,0.394 0.082,-0.557 c 0.053,-0.364 -0.031,-0.682 -0.242,-0.916 -0.312,-0.344 -0.302,-0.37 0.255,-0.687 0.662,-0.377 0.688,-2.185 0.045,-3.236 l -0.305,-0.5 -0.552,0.34 m -172.66001,35.211 c -3.022,0.594 -2.418,2.663 0.997,3.408 2.004,0.438 2.353,0.639 4.12,2.379 1.842,1.815 1.838,1.79 0.278,1.794 -3.366,0.01 -6.002,0.668 -8.472,2.118 -0.917,0.538 -2.509,1.445 -3.539,2.017 -3.491,1.937 -4.931,3.304 -4.392,4.171 0.646,1.04 2.958,1.637 5.566,1.436 1.079,-0.083 1.531,-0.056 1.531,0.09 0,0.469 -2.313,4.639 -3.267,5.891 -3.237,4.249 -1.577,6.994 2.948,4.876 1.148,-0.537 1.255,-0.554 1.925,-0.316 2.874,1.025 5.536,-0.481 10.582,-5.989 1.913,-2.088 3.553,-3.516 4.173,-3.635 0.219,-0.042 1.31,-0.214 2.423,-0.383 2.282,-0.347 5.191,-1.166 8.068,-2.272 1.364,-0.525 2.769,-0.888 4.706,-1.216 3.668,-0.62 4.629,-1.327 3.872,-2.849 -0.516,-1.036 -1.116,-1.371 -2.771,-1.545 -1.5,-0.158 -3.227,-0.689 -6.474,-1.992 -3.373,-1.353 -6.543,-2.257 -7.918,-2.257 -0.519,0 -0.747,-0.172 -1.606,-1.21 -3.291,-3.979 -7.641,-5.519 -12.75,-4.516" />
   </g>
</svg>
