<?xml version="1.0" encoding="UTF-8" standalone="no"?>
<svg xmlns:dc="http://purl.org/dc/elements/1.1/" xmlns:cc="http://creativecommons.org/ns#" xmlns:rdf="http://www.w3.org/1999/02/22-rdf-syntax-ns#" xmlns:svg="http://www.w3.org/2000/svg" xmlns="http://www.w3.org/2000/svg" viewBox="0 0 184.01711 218.66035" height="218.66035" width="184.01711" version="1.1" id="svg">
   <metadata id="metadata13">
      <rdf:RDF>
         <cc:Work rdf:about="">
            <dc:format>image/svg+xml</dc:format>
            <dc:type rdf:resource="http://purl.org/dc/dcmitype/StillImage" />
            <dc:title></dc:title>
         </cc:Work>
      </rdf:RDF>
   </metadata>
   <defs id="defs11" />
   <g transform="matrix(-0.60198582,0,0,0.60198582,135.79464,-275.40437)" id="svgg-7">
      <g transform="translate(-127.4168,437.99526)" id="g1084">
         <path d="m 195.511,33.835 c 0.231,0.044 0.564,0.042 0.741,-0.004 0.177,-0.046 -0.011,-0.083 -0.419,-0.081 -0.407,0.002 -0.552,0.04 -0.322,0.085 m -50.926,4.629 c 0.231,0.045 0.564,0.043 0.741,-0.003 0.177,-0.047 -0.011,-0.083 -0.419,-0.081 -0.407,0.002 -0.552,0.04 -0.322,0.084 m -1.109,0.559 c 0.332,0.041 0.832,0.04 1.111,-0.002 0.278,-0.042 0.006,-0.076 -0.606,-0.075 -0.611,0.001 -0.838,0.036 -0.505,0.077 m 56.279,3.506 c -0.182,0.182 0.246,0.621 0.592,0.607 0.198,-0.007 0.155,-0.07 -0.127,-0.183 -0.236,-0.095 -0.377,-0.256 -0.314,-0.359 0.13,-0.21 0.035,-0.251 -0.151,-0.065 m -9.983,19.642 c 0.333,0.041 0.833,0.041 1.111,-0.002 0.278,-0.042 0.006,-0.076 -0.605,-0.075 -0.611,10e-4 -0.839,0.036 -0.506,0.077 m 0.83,1.66 c 0.178,0.047 0.47,0.047 0.648,0 0.178,-0.046 0.032,-0.084 -0.324,-0.084 -0.357,0 -0.502,0.038 -0.324,0.084 m 10.392,6.447 c 0,1.018 0.031,1.411 0.069,0.873 0.037,-0.538 0.037,-1.371 -10e-4,-1.852 -0.038,-0.48 -0.069,-0.04 -0.068,0.979 m -1.49,1.018 c 0,0.662 0.033,0.933 0.074,0.602 0.041,-0.331 0.041,-0.873 0,-1.204 -0.041,-0.331 -0.074,-0.06 -0.074,0.602 m -6.406,13.282 c 0.328,0.041 0.912,0.042 1.296,0.002 0.384,-0.04 0.115,-0.074 -0.598,-0.075 -0.713,-10e-4 -1.027,0.032 -0.698,0.073 m -36.679,3.339 c -0.061,0.483 -0.16,1.713 -0.221,2.731 -0.06,1.019 -0.154,2.394 -0.208,3.056 -0.054,0.662 -0.125,5.412 -0.157,10.555 -0.074,11.628 -0.174,12.255 -2.946,18.455 -1.711,3.828 -0.704,6.717 2.895,8.309 0.685,0.303 1.247,0.655 1.25,0.783 0.003,0.144 0.273,0.231 0.716,0.231 h 0.712 l 0.228,1.065 c 0.212,0.989 0.785,3.07 1.389,5.046 0.82,2.682 3.052,7.748 4.003,9.082 0.2,0.282 0.364,0.563 0.364,0.624 0,1.419 5.647,6.644 8.823,8.165 2.712,1.299 10.622,2.432 10.622,1.521 0,-0.161 0.368,-0.341 0.976,-0.477 4.052,-0.907 9.262,-4.606 12.526,-8.893 1.821,-2.393 5.202,-8.431 5.202,-9.292 0,-0.118 0.125,-0.166 0.277,-0.107 0.2,0.076 0.278,-0.02 0.278,-0.341 0,-0.443 0.007,-0.445 0.673,-0.167 3.049,1.274 9.476,-0.925 12.368,-4.232 l 0.818,-0.935 -1.259,-1.039 c -0.692,-0.571 -1.804,-1.523 -2.472,-2.115 l -1.213,-1.076 -0.59,0.305 c -0.846,0.438 -1.211,0.052 -0.519,-0.548 l 0.491,-0.426 -1.746,-1.737 c -0.96,-0.956 -2.515,-2.627 -3.454,-3.714 l -1.708,-1.977 -0.737,2.301 -0.736,2.3 h -3.111 -3.11 l 0.12,-1.435 c 0.292,-3.504 -1.814,-15.841 -2.65,-15.52 -6.225,2.389 -13.12,-2.719 -16.111,-11.934 l -0.691,-2.129 -1.453,-0.031 c -4.154,-0.087 -8.557,-2.08 -12.419,-5.621 l -1.084,-0.993 -1.694,0.047 c -1.294,0.036 -1.979,-0.043 -2.898,-0.333 -0.662,-0.208 -1.256,-0.38 -1.319,-0.382 -0.063,-0.001 -0.164,0.394 -0.225,0.878 m 36.593,1.66 c 0.281,0.043 0.698,0.042 0.926,-0.002 0.227,-0.044 -0.003,-0.079 -0.512,-0.078 -0.509,0.002 -0.696,0.038 -0.414,0.08 m 66.108,4.63 c 0.28,0.042 0.739,0.042 1.019,0 0.28,-0.043 0.051,-0.077 -0.509,-0.077 -0.561,0 -0.79,0.034 -0.51,0.077 m -96.291,6.202 c 1.005,0.555 2.074,1.991 2.554,3.429 0.637,1.909 0.226,2.751 -0.631,1.289 -2.065,-3.524 -4.457,-4.521 -6.85,-2.854 -1.092,0.762 -1.125,-0.288 -0.041,-1.338 1.185,-1.149 3.413,-1.384 4.968,-0.526 m 68.282,3.387 c 0.346,0.357 0.67,0.648 0.721,0.648 0.051,0 -0.19,-0.291 -0.536,-0.648 -0.345,-0.356 -0.67,-0.648 -0.721,-0.648 -0.05,0 0.191,0.292 0.536,0.648 m -15.37,2.963 c 0.656,0.662 1.234,1.204 1.285,1.204 0.051,0 -0.444,-0.542 -1.1,-1.204 -0.656,-0.662 -1.235,-1.203 -1.286,-1.203 -0.051,0 0.445,0.541 1.101,1.203 m -53.34,-0.324 c 2.484,2.499 1.939,8.935 -0.758,8.935 -2.855,0 -4.41,-6.434 -2.172,-8.984 0.836,-0.951 1.953,-0.933 2.93,0.049 m 46.939,2.871 -0.544,0.601 0.602,-0.543 c 0.561,-0.507 0.687,-0.66 0.544,-0.66 -0.032,0 -0.303,0.271 -0.602,0.602 m 4.364,19.085 c 0,0.032 0.271,0.303 0.602,0.602 l 0.601,0.544 -0.543,-0.602 c -0.507,-0.561 -0.66,-0.687 -0.66,-0.544 m -45.825,6.378 c -0.408,2.846 -1.941,4.476 -4.222,4.486 -1.205,0.006 -1.262,-0.563 -0.092,-0.913 0.846,-0.252 2.049,-1.355 2.229,-2.043 0.091,-0.351 0.048,-0.393 -0.297,-0.297 -1.322,0.371 -4.571,0.352 -4.571,-0.026 0,-0.422 1.672,-1.037 4.63,-1.702 2.469,-0.555 2.473,-0.554 2.323,0.495 m 35.023,5.694 c -1.725,6.037 -5.488,11.52 -9.844,14.345 -0.814,0.528 -1.51,0.99 -1.548,1.028 -0.037,0.037 1.034,-0.435 2.382,-1.05 4.335,-1.979 9.799,-3.994 14.771,-5.45 0.411,-0.12 -0.549,-1.388 -1.883,-2.484 -1.906,-1.567 -2.965,-3.598 -3.417,-6.554 l -0.144,-0.946 -0.317,1.111 m 29.367,5.22 c 0.178,0.047 0.469,0.047 0.648,0 0.178,-0.046 0.032,-0.084 -0.324,-0.084 -0.357,0 -0.503,0.038 -0.324,0.084 m 5.282,9.082 c 0.436,0.04 1.102,0.039 1.482,-10e-4 0.379,-0.04 0.023,-0.072 -0.792,-0.071 -0.815,10e-4 -1.125,0.033 -0.69,0.072 m -48.477,2.085 c -0.458,0.186 -0.979,0.385 -1.157,0.442 -0.179,0.057 -0.324,0.23 -0.324,0.384 0,0.211 0.309,0.113 1.25,-0.396 1.732,-0.938 1.803,-1.068 0.231,-0.43 m -47.951,0.586 c 0.127,0.239 2.139,3.761 4.471,7.827 2.333,4.067 4.258,7.481 4.278,7.588 0.019,0.107 0.178,0.28 0.353,0.385 3.161,1.893 5.892,4.177 4.987,4.171 -0.312,-0.002 -5.521,-2.954 -8.468,-4.798 -3.426,-2.144 -3.561,-2.191 -4.065,-1.422 -1.502,2.292 0.66,7.396 6.063,14.31 3.28,4.197 4.164,4.69 5.85,3.26 2.887,-2.45 6.428,-4.863 9.997,-6.814 1.569,-0.857 2.224,-1.308 2.111,-1.454 -0.09,-0.116 -0.953,-1.211 -1.917,-2.433 -0.963,-1.223 -2.842,-3.681 -4.174,-5.463 -3.712,-4.969 -6.391,-7.769 -11.211,-11.721 -0.993,-0.814 -1.805,-1.583 -1.805,-1.709 0,-0.229 -2.499,-1.092 -4.815,-1.663 -0.662,-0.164 -1.357,-0.342 -1.544,-0.398 -0.303,-0.089 -0.315,-0.054 -0.111,0.334 m 10.081,3.245 c 0.102,0.099 0.893,0.706 1.759,1.349 0.866,0.642 1.943,1.511 2.395,1.93 0.788,0.732 0.8,0.737 0.305,0.114 -0.592,-0.744 -1.611,-1.598 -3.07,-2.574 -1.241,-0.828 -1.644,-1.066 -1.389,-0.819 m 86.709,0.193 c 0.328,0.041 0.912,0.042 1.296,0.002 0.384,-0.04 0.115,-0.074 -0.598,-0.074 -0.713,-0.001 -1.027,0.031 -0.698,0.072 m 6.862,5.189 c 0.538,0.037 1.371,0.037 1.852,-10e-4 0.48,-0.038 0.04,-0.069 -0.979,-0.068 -1.018,0 -1.411,0.031 -0.873,0.069 m 2.216,1.293 c 0.331,0.041 0.872,0.041 1.203,0 0.331,-0.041 0.061,-0.075 -0.601,-0.075 -0.662,0 -0.933,0.034 -0.602,0.075 M 71.733,181.238 c -0.29,0.388 -0.572,0.748 -0.626,0.799 -0.25,0.234 -1.462,2.047 -2.002,2.996 -0.329,0.578 -0.697,1.084 -0.817,1.124 -0.133,0.044 -0.202,0.394 -0.177,0.893 0.545,10.892 0.881,13.659 2.171,17.888 0.809,2.653 0.129,2.647 -1.128,-0.01 -2.196,-4.644 -2.998,-12.397 -1.828,-17.675 0.088,-0.393 0.064,-0.41 -0.255,-0.185 -1.125,0.79 -3.923,5.12 -3.923,6.07 0,0.107 -0.093,0.195 -0.208,0.195 -0.142,0 -0.149,0.073 -0.021,0.232 0.102,0.127 0.369,2.065 0.592,4.305 0.224,2.241 0.563,4.983 0.756,6.094 0.618,3.577 -0.662,2.708 -1.747,-1.186 -0.645,-2.314 -0.84,-6.795 -0.352,-8.095 0.268,-0.716 -0.569,0.231 -1.629,1.842 -1.56,2.371 -3.309,7.179 -2.612,7.179 0.44,0 1.214,3.453 1.012,4.512 -0.154,0.804 -0.773,0.571 -1.322,-0.499 -0.529,-1.029 -0.717,-2.604 -0.417,-3.493 l 0.206,-0.613 -0.344,0.443 c -1.036,1.334 -1.736,6.233 -1.326,9.279 0.527,3.905 3.43,13.715 6.385,21.574 0.269,0.713 0.724,1.963 1.013,2.778 0.288,0.815 0.995,2.732 1.57,4.259 0.575,1.528 1.175,3.132 1.333,3.563 0.393,1.069 0.436,1.077 1.912,0.333 5.958,-3 18.729,-7.8 22.139,-8.321 0.104,-0.016 0.273,-0.078 0.375,-0.137 0.102,-0.059 1.143,-0.344 2.315,-0.632 2.422,-0.596 2.406,-0.588 2.506,-1.309 0.491,-3.55 0.644,-5.437 0.735,-9.052 0.059,-2.343 0.223,-6.134 0.364,-8.426 0.427,-6.933 -0.294,-10.248 -3.714,-17.066 -1.33,-2.653 -3.302,-5.851 -2.799,-4.538 0.055,0.143 -0.137,0.386 -0.451,0.571 -1.899,1.122 -2.612,3.65 -3.122,11.062 -0.307,4.467 -1.468,9.23 -2.251,9.23 -0.26,0 -0.341,-0.094 -0.278,-0.324 0.174,-0.636 0.318,-1.704 0.569,-4.232 l 0.255,-2.564 -1.523,-1.601 c -6.753,-7.096 -12.122,-20 -10.974,-26.371 0.319,-1.771 0.31,-1.794 -0.362,-0.892 m 110.86,17.709 c 0,0.032 0.27,0.303 0.601,0.602 l 0.602,0.544 -0.544,-0.602 c -0.507,-0.561 -0.659,-0.687 -0.659,-0.544 m 150.069,14.757 c 0.163,0.601 0.722,1.863 0.794,1.791 0.042,-0.042 -0.136,-0.525 -0.396,-1.073 -0.26,-0.548 -0.439,-0.871 -0.398,-0.718 m -15.578,18.055 c 0.002,0.408 0.04,0.553 0.084,0.322 0.044,-0.23 0.043,-0.564 -0.004,-0.741 -0.046,-0.177 -0.082,0.012 -0.08,0.419 m 0.196,5.926 c 0.001,0.611 0.035,0.839 0.076,0.506 0.042,-0.333 0.041,-0.833 -10e-4,-1.111 -0.043,-0.278 -0.076,-0.006 -0.075,0.605 m -155.385,18.056 c 0,0.356 0.038,0.502 0.085,0.324 0.046,-0.178 0.046,-0.47 0,-0.648 -0.047,-0.179 -0.085,-0.033 -0.085,0.324 M 317.28,257.5 c 0.001,0.611 0.035,0.839 0.076,0.506 0.042,-0.333 0.041,-0.833 -10e-4,-1.111 -0.043,-0.278 -0.076,-0.006 -0.075,0.605 m -156.1,5 c 0.001,1.12 0.031,1.555 0.068,0.965 0.037,-0.589 0.037,-1.506 -10e-4,-2.037 -0.037,-0.531 -0.067,-0.048 -0.067,1.072 m 155.904,0.926 c 0.002,0.407 0.04,0.552 0.084,0.322 0.044,-0.231 0.043,-0.564 -0.004,-0.741 -0.046,-0.177 -0.082,0.012 -0.08,0.419 m -154.634,5.278 c 0,0.356 0.038,0.502 0.085,0.324 0.047,-0.178 0.047,-0.47 0,-0.648 -0.047,-0.179 -0.085,-0.033 -0.085,0.324 m -1.09,4.907 c 0,0.815 0.033,1.125 0.072,0.69 0.039,-0.436 0.039,-1.103 -10e-4,-1.482 -0.04,-0.379 -0.072,-0.023 -0.071,0.792 m 1.279,0 c 0.002,0.408 0.04,0.552 0.085,0.322 0.044,-0.23 0.042,-0.564 -0.004,-0.741 -0.047,-0.177 -0.083,0.012 -0.081,0.419 m 0.182,4.722 c 0,0.357 0.038,0.503 0.084,0.324 0.047,-0.178 0.047,-0.469 0,-0.648 -0.046,-0.178 -0.084,-0.032 -0.084,0.324 m 0.189,5.093 c 0.002,0.407 0.04,0.552 0.084,0.322 0.044,-0.231 0.043,-0.564 -0.004,-0.741 -0.046,-0.177 -0.082,0.012 -0.08,0.419 m -1.471,0.555 c 0.001,0.612 0.035,0.839 0.077,0.506 0.041,-0.332 0.04,-0.832 -0.002,-1.111 -0.042,-0.278 -0.076,-0.006 -0.075,0.605 m 1.66,5.278 c 0,0.459 0.036,0.646 0.08,0.417 0.044,-0.229 0.044,-0.604 0,-0.833 -0.044,-0.23 -0.08,-0.042 -0.08,0.416 m -1.477,2.222 c 0,0.561 0.035,0.79 0.077,0.51 0.043,-0.28 0.043,-0.739 0,-1.019 -0.042,-0.28 -0.077,-0.051 -0.077,0.509 m 1.662,3.704 c 0,0.459 0.036,0.646 0.08,0.417 0.044,-0.229 0.044,-0.604 0,-0.833 -0.044,-0.23 -0.08,-0.042 -0.08,0.416 m -1.477,3.704 c 0,0.56 0.035,0.789 0.077,0.509 0.043,-0.28 0.043,-0.738 0,-1.018 -0.042,-0.28 -0.077,-0.051 -0.077,0.509 m 1.662,2.407 c 0,0.459 0.036,0.646 0.08,0.417 0.044,-0.229 0.044,-0.604 0,-0.833 -0.044,-0.23 -0.08,-0.042 -0.08,0.416 m 0.185,5.926 c 0,0.459 0.036,0.646 0.08,0.417 0.045,-0.229 0.045,-0.604 0,-0.833 -0.044,-0.23 -0.08,-0.042 -0.08,0.416 m 0.19,6.852 c 0,0.56 0.035,0.789 0.078,0.509 0.042,-0.28 0.042,-0.738 0,-1.018 -0.043,-0.28 -0.078,-0.051 -0.078,0.509 m 0.186,7.407 c 0,0.561 0.034,0.79 0.077,0.51 0.042,-0.28 0.042,-0.739 0,-1.019 -0.043,-0.28 -0.077,-0.051 -0.077,0.509 m 0.185,7.593 c 0,0.56 0.034,0.789 0.077,0.509 0.042,-0.28 0.042,-0.738 0,-1.018 -0.043,-0.28 -0.077,-0.051 -0.077,0.509 m 0.19,8.611 c 0.001,0.713 0.035,0.982 0.075,0.598 0.04,-0.384 0.039,-0.968 -0.002,-1.296 -0.041,-0.329 -0.074,-0.015 -0.073,0.698 m 0.187,9.722 c 0,0.764 0.033,1.077 0.073,0.695 0.039,-0.382 0.039,-1.007 0,-1.389 -0.04,-0.382 -0.073,-0.069 -0.073,0.694 m 0.19,12.593 c 0,0.968 0.031,1.363 0.069,0.88 0.038,-0.484 0.038,-1.276 0,-1.76 -0.038,-0.483 -0.069,-0.088 -0.069,0.88" id="path3-6" style="fill:#79562f;fill-rule:evenodd;stroke:none" />
         <path d="m 230.972,34.572 c 0.178,0.047 0.47,0.047 0.648,0 0.179,-0.046 0.033,-0.085 -0.324,-0.085 -0.356,0 -0.502,0.039 -0.324,0.085 m 14.259,0.741 c 0.179,0.046 0.47,0.046 0.649,0 0.178,-0.047 0.032,-0.085 -0.324,-0.085 -0.357,0 -0.503,0.038 -0.325,0.085 m -84.315,9.826 -0.638,0.694 0.694,-0.638 c 0.647,-0.594 0.78,-0.751 0.638,-0.751 -0.031,0 -0.343,0.313 -0.694,0.695 m 34.35,1.944 -0.544,0.602 0.602,-0.544 c 0.561,-0.507 0.687,-0.66 0.544,-0.66 -0.032,0 -0.303,0.271 -0.602,0.602 m 53.345,7.732 c 0.398,0.407 0.765,0.741 0.816,0.741 0.051,0 -0.233,-0.334 -0.631,-0.741 -0.398,-0.408 -0.765,-0.741 -0.816,-0.741 -0.051,0 0.233,0.333 0.631,0.741 m 1.937,1.898 c 0.767,0.818 0.933,0.965 0.933,0.826 0,-0.03 -0.395,-0.426 -0.879,-0.88 l -0.88,-0.826 0.826,0.88 m -82.134,22.963 -0.544,0.602 0.602,-0.544 c 0.331,-0.299 0.602,-0.57 0.602,-0.602 0,-0.143 -0.153,-0.017 -0.66,0.544 m 67.466,65.831 c 0.534,0.037 1.409,0.037 1.944,0 0.535,-0.038 0.097,-0.068 -0.972,-0.068 -1.07,0 -1.507,0.03 -0.972,0.068 m 6.206,0.181 c 0.281,0.043 0.698,0.042 0.926,-0.002 0.228,-0.044 -0.003,-0.079 -0.512,-0.077 -0.509,0.001 -0.696,0.037 -0.414,0.079 m 3.055,0.184 c 0.23,0.044 0.564,0.042 0.741,-0.004 0.177,-0.046 -0.012,-0.083 -0.419,-0.081 -0.407,0.002 -0.552,0.04 -0.322,0.085 m 1.852,0.185 c 0.23,0.044 0.564,0.043 0.741,-0.004 0.177,-0.046 -0.012,-0.082 -0.419,-0.08 -0.408,0.002 -0.552,0.04 -0.322,0.084 m -113.058,8.145 c 0.178,0.046 0.47,0.046 0.648,0 0.179,-0.047 0.033,-0.085 -0.324,-0.085 -0.356,0 -0.502,0.038 -0.324,0.085 m 52.408,4.336 c -0.535,0.312 -0.973,0.609 -0.973,0.662 0,0.102 1.647,-0.813 1.936,-1.076 0.313,-0.287 0.028,-0.164 -0.963,0.414 m -5.188,3.226 c -0.533,0.359 -0.97,0.694 -0.97,0.743 0,0.049 0.459,-0.215 1.019,-0.587 0.89,-0.591 1.151,-0.809 0.969,-0.809 -0.026,0 -0.485,0.294 -1.018,0.653 m -2.312,1.665 c -0.586,0.46 -1.065,0.876 -1.065,0.925 0,0.05 0.5,-0.298 1.111,-0.773 0.984,-0.764 1.226,-0.989 1.065,-0.988 -0.026,0 -0.526,0.376 -1.111,0.836 m -2.516,1.895 -0.695,0.695 0.656,-0.556 c 0.361,-0.305 0.736,-0.617 0.832,-0.694 0.097,-0.077 0.115,-0.139 0.039,-0.139 -0.075,0 -0.449,0.312 -0.832,0.694 m 113.902,6.03 c 0.176,0.141 0.26,0.324 0.185,0.407 -0.075,0.083 -0.035,0.092 0.088,0.022 0.123,-0.071 0.727,0.125 1.342,0.436 0.616,0.31 1.119,0.522 1.119,0.471 0,-0.051 -0.688,-0.431 -1.528,-0.843 -0.84,-0.413 -1.383,-0.635 -1.206,-0.493 m -117.461,1.933 -0.638,0.694 0.694,-0.638 c 0.646,-0.594 0.78,-0.75 0.638,-0.75 -0.031,0 -0.343,0.312 -0.694,0.694 m 121.121,-0.056 c 0,0.051 0.25,0.222 0.555,0.38 0.306,0.158 0.556,0.246 0.556,0.195 0,-0.051 -0.25,-0.222 -0.556,-0.38 -0.305,-0.158 -0.555,-0.246 -0.555,-0.195 m -189.269,5.612 -0.639,0.694 0.695,-0.638 c 0.646,-0.594 0.78,-0.751 0.638,-0.751 -0.031,0 -0.343,0.313 -0.694,0.695 m 199.399,0.991 c 0.252,0.312 1.907,1.53 1.907,1.403 0,-0.045 -0.479,-0.441 -1.065,-0.88 -0.586,-0.44 -0.964,-0.675 -0.842,-0.523 m -135.917,0.272 c -0.718,0.389 -0.637,0.524 0.092,0.153 0.699,-0.355 0.822,-0.447 0.587,-0.437 -0.093,0.004 -0.399,0.132 -0.679,0.284 m 138.379,1.619 c 0,0.045 0.306,0.316 0.68,0.601 0.374,0.286 0.622,0.424 0.55,0.309 -0.146,-0.237 -1.23,-1.039 -1.23,-0.91 m -234.572,2.442 c 10e-4,0.611 0.036,0.838 0.077,0.506 0.041,-0.333 0.04,-0.833 -0.002,-1.112 -0.042,-0.278 -0.076,-0.005 -0.075,0.606 m 78.347,8.384 c -1.031,0.991 -2.489,2.474 -3.241,3.297 -1.31,1.434 -1.298,1.426 0.269,-0.185 0.9,-0.925 2.4,-2.407 3.333,-3.294 0.934,-0.887 1.656,-1.614 1.605,-1.615 -0.051,-0.002 -0.936,0.807 -1.966,1.797 m -5.451,5.736 -0.638,0.694 0.694,-0.638 c 0.646,-0.594 0.78,-0.75 0.638,-0.75 -0.031,0 -0.343,0.312 -0.694,0.694 m -1.206,1.389 -0.543,0.602 0.601,-0.544 c 0.331,-0.299 0.602,-0.57 0.602,-0.602 0,-0.143 -0.153,-0.017 -0.66,0.544 m 43.994,4.305 c 0.345,0.357 0.669,0.649 0.72,0.649 0.051,0 -0.19,-0.292 -0.535,-0.649 -0.346,-0.356 -0.67,-0.648 -0.721,-0.648 -0.051,0 0.19,0.292 0.536,0.648 m -48.914,1.897 c -0.694,0.838 -0.741,0.937 -0.511,1.079 0.141,0.087 0.174,0.059 0.09,-0.078 -0.075,-0.12 -0.006,-0.264 0.155,-0.326 0.159,-0.061 0.246,-0.18 0.193,-0.265 -0.052,-0.085 0.052,-0.236 0.231,-0.337 0.18,-0.1 0.278,-0.231 0.219,-0.29 -0.059,-0.059 -0.229,0.039 -0.377,0.217 m 178.983,7.178 c 0,1.12 0.031,1.554 0.068,0.965 0.037,-0.589 0.036,-1.506 -0.001,-2.037 -0.037,-0.531 -0.068,-0.049 -0.067,1.072 m -1.138,9.537 c 0,0.356 0.039,0.502 0.085,0.324 0.047,-0.179 0.047,-0.47 0,-0.648 -0.046,-0.179 -0.085,-0.033 -0.085,0.324 m 0.193,2.963 c 0,0.458 0.036,0.645 0.08,0.416 0.044,-0.229 0.044,-0.604 0,-0.833 -0.044,-0.229 -0.08,-0.042 -0.08,0.417 m -191.726,2.61 c -0.213,0.417 -0.347,0.799 -0.299,0.847 0.049,0.049 0.144,-0.084 0.211,-0.295 0.067,-0.212 0.214,-0.385 0.326,-0.385 0.111,0 0.15,-0.052 0.086,-0.117 -0.064,-0.064 -0.033,-0.272 0.068,-0.463 0.102,-0.19 0.143,-0.346 0.09,-0.346 -0.052,0 -0.269,0.342 -0.482,0.759 m 191.916,0.908 c 0,0.56 0.035,0.789 0.077,0.509 0.043,-0.28 0.043,-0.738 0,-1.018 -0.042,-0.28 -0.077,-0.051 -0.077,0.509 m 0.192,4.63 c 0,0.764 0.033,1.076 0.073,0.694 0.04,-0.382 0.04,-1.007 0,-1.389 -0.04,-0.382 -0.073,-0.069 -0.073,0.695 m 0.2,8.333 c 0,1.884 0.028,2.655 0.061,1.713 0.034,-0.942 0.034,-2.484 0,-3.426 -0.033,-0.942 -0.061,-0.171 -0.061,1.713 M 65.88,246.773 c -0.718,0.389 -0.637,0.524 0.092,0.153 0.698,-0.355 0.822,-0.447 0.587,-0.437 -0.094,0.004 -0.399,0.132 -0.679,0.284 m -2.223,1.205 c -0.244,0.142 -0.316,0.402 -0.291,1.059 l 0.032,0.87 0.073,-0.822 c 0.042,-0.483 0.201,-0.919 0.384,-1.058 0.373,-0.284 0.256,-0.313 -0.198,-0.049 m 196.484,1.227 c 0.23,0.044 0.564,0.043 0.741,-0.004 0.177,-0.046 -0.012,-0.082 -0.419,-0.08 -0.407,0.002 -0.552,0.04 -0.322,0.084 m 2.128,-0.003 c 0.178,0.046 0.469,0.046 0.648,0 0.178,-0.047 0.032,-0.085 -0.324,-0.085 -0.357,0 -0.503,0.038 -0.324,0.085 m 55.03,3.946 c 0,1.884 0.028,2.655 0.061,1.713 0.034,-0.942 0.034,-2.484 0,-3.426 -0.033,-0.942 -0.061,-0.171 -0.061,1.713 m -253.73,-0.926 c 0,0.459 0.036,0.646 0.08,0.417 0.044,-0.229 0.044,-0.604 0,-0.833 -0.044,-0.23 -0.08,-0.042 -0.08,0.416 m 0.181,2.871 c 0.002,0.407 0.04,0.552 0.085,0.322 0.044,-0.231 0.042,-0.564 -0.004,-0.741 -0.046,-0.177 -0.083,0.011 -0.081,0.419 m 0.182,2.314 c 0,0.357 0.038,0.503 0.085,0.324 0.046,-0.178 0.046,-0.469 0,-0.648 -0.047,-0.178 -0.085,-0.032 -0.085,0.324 m 0.193,2.037 c 0,0.459 0.036,0.646 0.08,0.417 0.044,-0.229 0.044,-0.604 0,-0.833 -0.044,-0.229 -0.08,-0.042 -0.08,0.416 m 252.974,2.037 c 0,0.764 0.033,1.077 0.073,0.695 0.04,-0.382 0.04,-1.007 0,-1.389 -0.04,-0.382 -0.073,-0.069 -0.073,0.694 m -252.789,0 c 0,0.459 0.036,0.646 0.08,0.417 0.044,-0.229 0.044,-0.604 0,-0.833 -0.044,-0.229 -0.08,-0.042 -0.08,0.416 m 0.181,1.945 c 0.002,0.407 0.04,0.552 0.084,0.322 0.045,-0.231 0.043,-0.564 -0.003,-0.741 -0.047,-0.177 -0.083,0.012 -0.081,0.419 m 0.182,1.759 c 0,0.357 0.038,0.503 0.084,0.324 0.047,-0.178 0.047,-0.47 0,-0.648 -0.046,-0.178 -0.084,-0.032 -0.084,0.324 m 252.234,0.926 c 0,0.56 0.035,0.789 0.077,0.509 0.043,-0.28 0.043,-0.738 0,-1.018 -0.042,-0.28 -0.077,-0.051 -0.077,0.509 m -0.19,3.519 c 0,0.458 0.036,0.645 0.08,0.416 0.044,-0.229 0.044,-0.604 0,-0.833 -0.044,-0.229 -0.08,-0.042 -0.08,0.417 m -0.189,3.055 c 0.002,0.408 0.04,0.552 0.084,0.322 0.045,-0.23 0.043,-0.564 -0.003,-0.741 -0.047,-0.177 -0.083,0.012 -0.081,0.419 m -0.189,2.685 c 0,0.357 0.038,0.503 0.085,0.324 0.047,-0.178 0.047,-0.469 0,-0.648 -0.047,-0.178 -0.085,-0.032 -0.085,0.324 m -155.466,28.249 c -0.581,1.167 -1.016,2.122 -0.966,2.122 0.123,0 2.169,-4.097 2.087,-4.179 -0.035,-0.036 -0.54,0.89 -1.121,2.057 m -2.169,4.159 c -0.208,0.407 -0.337,0.741 -0.286,0.741 0.051,0 0.263,-0.334 0.471,-0.741 0.208,-0.408 0.336,-0.741 0.285,-0.741 -0.051,0 -0.262,0.333 -0.47,0.741 m -11.482,19.444 c -0.217,0.306 -0.354,0.556 -0.303,0.556 0.051,0 0.271,-0.25 0.488,-0.556 0.218,-0.305 0.354,-0.555 0.303,-0.555 -0.051,0 -0.27,0.25 -0.488,0.555 m -67.95,0.463 c 0,0.102 0.119,0.394 0.265,0.648 0.146,0.255 0.265,0.38 0.265,0.278 0,-0.102 -0.119,-0.393 -0.265,-0.648 -0.146,-0.255 -0.265,-0.38 -0.265,-0.278 m 65.913,2.5 c -0.217,0.306 -0.354,0.556 -0.303,0.556 0.051,0 0.271,-0.25 0.488,-0.556 0.218,-0.305 0.354,-0.555 0.303,-0.555 -0.051,0 -0.27,0.25 -0.488,0.555 m -64.629,0.253 c 0,0.201 0.92,1.969 1.024,1.969 0.051,0 -0.127,-0.437 -0.395,-0.972 -0.517,-1.028 -0.629,-1.206 -0.629,-0.997 m 63.703,1.043 c -0.217,0.306 -0.354,0.556 -0.303,0.556 0.051,0 0.271,-0.25 0.488,-0.556 0.218,-0.305 0.354,-0.555 0.303,-0.555 -0.05,0 -0.27,0.25 -0.488,0.555 m -1.31,1.806 c -0.439,0.586 -0.675,0.964 -0.522,0.842 0.311,-0.252 1.53,-1.907 1.403,-1.907 -0.045,0 -0.441,0.479 -0.881,1.065 m -60.634,0.602 c 0.258,0.509 0.511,0.926 0.562,0.926 0.051,0 -0.119,-0.417 -0.377,-0.926 -0.258,-0.509 -0.511,-0.926 -0.562,-0.926 -0.051,0 0.119,0.417 0.377,0.926 m 0.995,1.759 c 0.1,0.204 0.317,0.537 0.483,0.741 l 0.302,0.37 -0.182,-0.37 c -0.1,-0.204 -0.318,-0.537 -0.484,-0.741 l -0.301,-0.37 0.182,0.37 m 56.329,1.898 c -0.634,0.79 -0.845,1.102 -0.471,0.695 0.854,-0.928 1.816,-2.13 1.706,-2.13 -0.046,0 -0.602,0.646 -1.235,1.435 m -55.293,-0.15 c 0.154,0.299 0.365,0.595 0.468,0.659 0.103,0.063 0.012,-0.181 -0.202,-0.544 -0.469,-0.795 -0.661,-0.878 -0.266,-0.115 m 53.422,2.373 -0.638,0.694 0.694,-0.638 c 0.646,-0.594 0.78,-0.751 0.638,-0.751 -0.031,0 -0.343,0.313 -0.694,0.695 m -1.576,1.759 -0.544,0.602 0.602,-0.544 c 0.331,-0.299 0.602,-0.57 0.602,-0.602 0,-0.143 -0.153,-0.017 -0.66,0.544 m -48.974,0.133 c 0.216,0.303 0.486,0.608 0.602,0.68 0.116,0.071 -0.023,-0.176 -0.308,-0.55 -0.619,-0.812 -0.853,-0.915 -0.294,-0.13 m 46.671,2.32 c -0.45,0.459 -0.776,0.834 -0.725,0.834 0.051,0 0.46,-0.375 0.91,-0.834 0.45,-0.458 0.776,-0.833 0.725,-0.833 -0.051,0 -0.46,0.375 -0.91,0.833 m -2.136,1.991 -1.105,1.158 1.158,-1.106 c 0.636,-0.608 1.157,-1.128 1.157,-1.157 0,-0.137 -0.183,0.03 -1.21,1.105 m -39.994,0.88 c 1.015,1.018 1.887,1.852 1.938,1.852 0.051,0 -0.738,-0.834 -1.753,-1.852 C 90.93,345.833 90.058,345 90.007,345 c -0.051,0 0.738,0.833 1.752,1.852 m 37.503,1.223 c -1.627,1.371 -1.823,1.621 -0.433,0.551 1.018,-0.785 1.914,-1.611 1.709,-1.576 -0.041,0.006 -0.616,0.468 -1.276,1.025 m -2.318,1.849 -0.555,0.477 0.602,-0.398 c 0.331,-0.219 0.602,-0.435 0.602,-0.479 0,-0.138 -0.079,-0.09 -0.649,0.4 m -5.092,3.039 c -0.764,0.397 -1.324,0.726 -1.246,0.732 0.197,0.012 2.727,-1.27 2.727,-1.383 0,-0.125 0.061,-0.151 -1.481,0.651 M 99.259,352.49 c 0,0.051 0.25,0.222 0.556,0.38 0.305,0.158 0.555,0.246 0.555,0.195 0,-0.051 -0.25,-0.222 -0.555,-0.38 -0.306,-0.158 -0.556,-0.245 -0.556,-0.195 m 9.861,3.193 c 0.179,0.047 0.47,0.047 0.649,0 0.178,-0.046 0.032,-0.084 -0.325,-0.084 -0.356,0 -0.502,0.038 -0.324,0.084 m 4.169,0.004 c 0.231,0.044 0.564,0.042 0.741,-0.004 0.177,-0.047 -0.011,-0.083 -0.419,-0.081 -0.407,0.002 -0.552,0.04 -0.322,0.085 m 137.498,16.478 c 0.178,0.046 0.47,0.046 0.648,0 0.178,-0.047 0.033,-0.085 -0.324,-0.085 -0.356,0 -0.502,0.038 -0.324,0.085 m -1.667,0.185 c 0.179,0.046 0.47,0.046 0.649,0 0.178,-0.047 0.032,-0.085 -0.325,-0.085 -0.356,0 -0.502,0.038 -0.324,0.085 m -5.37,0.555 c 0.178,0.047 0.47,0.047 0.648,0 0.178,-0.046 0.033,-0.084 -0.324,-0.084 -0.356,0 -0.502,0.038 -0.324,0.084 m -1.942,0.189 c 0.23,0.044 0.563,0.043 0.74,-0.004 0.178,-0.046 -0.011,-0.082 -0.418,-0.08 -0.408,0.002 -0.553,0.04 -0.322,0.084 m -56.577,0.182 c 0.179,0.046 0.47,0.046 0.649,0 0.178,-0.047 0.032,-0.085 -0.324,-0.085 -0.357,0 -0.503,0.038 -0.325,0.085 m 54.354,0.003 c 0.231,0.044 0.564,0.043 0.741,-0.004 0.177,-0.046 -0.011,-0.082 -0.419,-0.08 -0.407,0.002 -0.552,0.04 -0.322,0.084 m -2.407,0.185 c 0.23,0.045 0.564,0.043 0.741,-0.003 0.177,-0.047 -0.012,-0.083 -0.419,-0.081 -0.407,0.002 -0.552,0.04 -0.322,0.084 m -47.78,0.185 c 0.229,0.044 0.604,0.044 0.833,0 0.23,-0.044 0.042,-0.08 -0.416,-0.08 -0.459,0 -0.646,0.036 -0.417,0.08 m 45.185,0 c 0.229,0.044 0.605,0.044 0.834,0 0.229,-0.044 0.041,-0.08 -0.417,-0.08 -0.458,0 -0.646,0.036 -0.417,0.08 m -42.592,0.185 c 0.229,0.045 0.604,0.045 0.833,0 0.229,-0.044 0.042,-0.08 -0.417,-0.08 -0.458,0 -0.645,0.036 -0.416,0.08 m 39.725,0.003 c 0.281,0.042 0.698,0.041 0.925,-0.003 0.228,-0.044 -0.002,-0.079 -0.511,-0.077 -0.51,10e-4 -0.696,0.037 -0.414,0.08 m -36.855,0.185 c 0.28,0.042 0.739,0.042 1.019,0 0.28,-0.043 0.051,-0.078 -0.51,-0.078 -0.56,0 -0.789,0.035 -0.509,0.078 m 33.615,0.001 c 0.332,0.041 0.832,0.04 1.111,-0.002 0.278,-0.042 0.006,-0.076 -0.606,-0.075 -0.611,10e-4 -0.838,0.036 -0.505,0.077 m -27.874,0.179 c 0.178,0.046 0.47,0.046 0.648,0 0.178,-0.047 0.032,-0.085 -0.324,-0.085 -0.357,0 -0.502,0.038 -0.324,0.085 m 23.799,0.006 c 0.333,0.041 0.833,0.041 1.112,-0.002 0.278,-0.042 0.006,-0.076 -0.606,-0.075 -0.611,0.001 -0.838,0.036 -0.506,0.077 m -20.274,0.188 c 0.589,0.037 1.506,0.037 2.037,0 0.531,-0.038 0.049,-0.068 -1.071,-0.067 -1.121,0 -1.555,0.03 -0.966,0.067 m 6.475,10e-4 c 0.687,0.035 1.812,0.035 2.5,0 0.687,-0.036 0.125,-0.065 -1.25,-0.065 -1.375,0 -1.938,0.029 -1.25,0.065 m 7.037,-10e-4 c 0.586,0.037 1.544,0.037 2.13,0 0.585,-0.037 0.106,-0.067 -1.065,-0.067 -1.172,0 -1.651,0.03 -1.065,0.067" id="path4-56" style="fill:#a06c34;fill-rule:evenodd;stroke:none" />
         <path d="m 185.749,27.989 c -2.954,0.489 -5.168,2.568 -5.744,5.392 l -0.217,1.066 -0.774,-0.622 c -7.502,-6.029 -15.418,-6.525 -20.44,-1.279 l -1.147,1.199 -1.815,-0.129 c -4.907,-0.348 -9.497,0.99 -11.954,3.483 -1.386,1.407 -1.415,1.371 1.111,1.369 3.606,-0.004 5.844,0.793 8.194,2.919 2.905,2.629 3.445,2.384 6.951,-3.153 4.556,-7.195 5.841,-7.308 15.653,-1.375 4.102,2.48 6.677,3.771 9.224,4.624 2.738,0.918 3.013,0.79 4.011,-1.853 2.175,-5.762 4.955,-7.656 9.161,-6.241 1.745,0.587 1.742,0.609 0.139,-0.818 -4.465,-3.974 -8.035,-5.298 -12.353,-4.582 m 7.981,6.385 c -1.587,0.79 -2.586,2.346 -3.828,5.96 -1.079,3.14 -2.219,3.602 -5.868,2.382 -2.674,-0.895 -5.559,-2.33 -9.809,-4.877 -8.516,-5.106 -9.022,-5.073 -12.987,0.859 -4.212,6.302 -5.428,6.793 -8.867,3.582 -2.565,-2.394 -4.506,-3.153 -8.239,-3.222 l -2.002,-0.036 -0.41,0.998 c -0.388,0.948 -0.656,2.015 -0.887,3.528 -0.097,0.641 -0.153,0.689 -1.07,0.902 -3.305,0.769 -5.774,3.168 -6.521,6.333 -0.52,2.207 -0.436,2.345 0.721,1.188 2.796,-2.796 5.259,-2.868 10.317,-0.304 7.235,3.67 8.397,3.456 13.09,-2.408 6.116,-7.64 8.752,-8.596 12.497,-4.531 5.064,5.495 14.578,7.152 19.022,3.312 3.029,-2.616 12.008,-7.049 11.01,-5.435 -0.238,0.387 0.192,0.114 1.555,-0.985 0.79,-0.636 1.867,-1.449 2.394,-1.805 0.526,-0.357 0.959,-0.747 0.962,-0.867 0.003,-0.121 0.171,-0.272 0.375,-0.337 0.204,-0.065 0.371,-0.19 0.371,-0.28 0,-0.24 -3.529,-2.606 -3.716,-2.491 -0.088,0.055 -0.514,-0.124 -0.947,-0.398 -2.419,-1.527 -5.362,-1.966 -7.163,-1.068 m 13.727,8.718 c -7.136,12.057 -9.632,27.335 -6.425,39.33 5.304,19.844 25.878,37.943 49.99,43.977 1.942,0.486 2.771,0.623 2.914,0.48 0.241,-0.241 0.36,-0.193 -2.631,-1.056 -23.749,-6.848 -43.871,-24.989 -48.891,-44.078 -3.009,-11.442 -1.071,-25.449 5.221,-37.73 1.129,-2.205 0.994,-2.904 -0.178,-0.923 m 27.278,-1.075 c -0.056,0.09 1.568,1.597 3.609,3.349 7.577,6.501 13.379,12.151 17.516,17.056 3.738,4.432 5.291,5.546 6.833,4.902 2.08,-0.87 1.903,-6.014 -0.359,-10.423 -1.093,-2.13 -1.52,-2.047 -0.68,0.131 1.503,3.899 1.846,8.359 0.699,9.106 -0.659,0.43 -2.544,-1.17 -4.929,-4.183 -4.983,-6.293 -12.5,-13.218 -20.078,-18.497 -2.426,-1.689 -2.45,-1.702 -2.611,-1.441 m -37.825,2.044 c -3.051,1.531 -5.391,3.056 -7.28,4.747 -5.043,4.51 -14.932,3.052 -20.904,-3.082 -2.991,-3.072 -4.518,-2.411 -10.133,4.386 -5.103,6.176 -7.092,6.667 -13.338,3.293 -4.727,-2.555 -5.145,-2.726 -6.649,-2.726 -1.694,0 -3.194,0.68 -4.687,2.126 l -0.989,0.957 0.287,1.7 c 0.158,0.935 0.529,2.42 0.825,3.3 0.493,1.468 0.511,1.608 0.215,1.702 -0.533,0.169 -2.33,2.178 -2.83,3.165 -1.207,2.382 -1.418,6.08 -0.527,9.241 0.451,1.6 0.29,1.433 2.433,2.535 3.913,2.012 8.853,-2.927 10.963,-10.961 1.637,-6.232 3.128,-6.336 12.926,-0.904 11.8,6.543 12.909,6.593 15.725,0.705 2.515,-5.257 5.543,-6.678 10.618,-4.981 1.079,0.361 1.957,1.163 0.926,0.847 -4.565,-1.403 -8.025,-0.477 -9.47,2.533 -0.305,0.634 -0.819,1.804 -1.143,2.6 -2.592,6.365 -5.667,6.296 -17.417,-0.392 -8.739,-4.973 -9.486,-4.979 -10.913,-0.081 -2.69,9.234 -8.768,14.11 -13.29,10.661 l -0.632,-0.482 0.134,0.442 c 1.624,5.352 7.732,8.856 12.442,7.138 l 0.776,-0.284 0.561,0.994 c 0.702,1.244 1.454,2.106 2.42,2.776 0.943,0.653 0.959,0.633 0.643,-0.875 -0.969,-4.621 -0.549,-8.462 1.051,-9.603 1.897,-1.352 4.909,-0.028 11.366,4.998 3.853,3 4.256,3.03 6.266,0.473 3.624,-4.611 7.285,-4.774 9.49,-0.423 1.483,2.928 3.784,3.797 6.441,2.433 0.373,-0.192 0.588,-0.215 0.726,-0.077 0.138,0.138 -0.185,0.374 -1.084,0.795 -2.904,1.358 -5.171,0.554 -6.941,-2.462 -1.958,-3.337 -4.208,-3.366 -6.867,-0.089 -0.504,0.621 -1.174,1.45 -1.49,1.842 -1.902,2.359 -3.4,1.998 -8.519,-2.05 -8.487,-6.714 -10.734,-6.077 -9.944,2.818 0.108,1.223 0.2,2.411 0.203,2.641 0.012,0.923 3.92,1.294 5.945,0.563 0.655,-0.236 0.819,-0.217 2.222,0.264 1.302,0.447 1.766,0.515 3.303,0.482 l 1.788,-0.037 1.082,0.992 c 2.924,2.681 6.243,4.525 9.459,5.257 1.727,0.392 2.457,0.393 2.457,0.003 0,-1.154 1.908,-3.44 3.154,-3.777 2.047,-0.553 3.55,0.844 6.516,6.054 2.528,4.443 3.607,5.271 5.746,4.409 0.584,-0.236 0.359,0.364 -0.278,0.741 -2.211,1.31 -4.136,-0.092 -7.268,-5.299 -3.082,-5.122 -4.529,-5.74 -6.739,-2.875 -0.947,1.228 -0.945,1.299 0.027,1.19 l 0.787,-0.089 0.696,2.148 c 2.992,9.231 9.885,14.343 16.116,11.952 0.836,-0.321 2.942,12.016 2.65,15.52 l -0.12,1.435 h 3.11 3.111 l 0.736,-2.3 0.737,-2.301 1.708,1.977 c 0.939,1.087 2.494,2.758 3.454,3.714 l 1.746,1.737 -0.491,0.426 c -0.692,0.6 -0.327,0.986 0.519,0.548 l 0.59,-0.305 1.213,1.076 c 0.668,0.592 1.78,1.544 2.472,2.115 l 1.259,1.039 -0.818,0.935 c -2.892,3.307 -9.319,5.506 -12.368,4.232 -0.666,-0.278 -0.673,-0.276 -0.673,0.167 0,0.321 -0.078,0.417 -0.278,0.341 -0.152,-0.059 -0.277,-0.011 -0.277,0.107 0,0.861 -3.381,6.899 -5.202,9.292 -3.264,4.287 -8.474,7.986 -12.526,8.893 -0.745,0.167 -0.976,0.299 -0.976,0.559 0,0.403 0.318,0.424 2.037,0.137 1.618,-0.27 1.265,-0.164 3.727,-1.122 5.934,-2.308 11.083,-8.594 13.249,-16.174 l 0.317,-1.111 0.145,0.95 c 0.447,2.929 1.585,5.114 3.412,6.549 0.652,0.513 1.395,1.264 1.652,1.67 0.256,0.406 0.504,0.738 0.551,0.738 0.047,0 1.234,-0.285 2.637,-0.634 6.54,-1.627 12.355,-2.498 19.445,-2.913 l 3.746,-0.219 1.717,-0.883 c 0.944,-0.486 2.693,-1.368 3.886,-1.96 2.805,-1.391 2.781,-1.455 -0.549,-1.45 -1.502,0.002 -3.292,-0.065 -3.978,-0.15 l -1.246,-0.153 1.26,-0.63 c 3.075,-1.538 5.479,-5.391 6.505,-10.425 0.593,-2.911 0.301,-4.223 -0.47,-2.111 -2.551,6.994 -4.427,10.305 -6.696,11.821 -0.588,0.392 -1.156,0.812 -1.261,0.932 -0.22,0.251 -3.576,-0.781 -5.642,-1.734 -0.987,-0.456 -1.137,-0.579 -0.833,-0.689 2.995,-1.079 5.976,-3.92 7.634,-7.275 0.669,-1.354 0.663,-2.262 -0.011,-1.519 -0.134,0.149 -1.122,1.27 -2.193,2.492 -2.94,3.351 -5.791,5.834 -6.701,5.834 -0.605,0 -4.287,-2.359 -6.873,-4.401 -0.869,-0.686 -1.954,-1.539 -2.412,-1.895 -1.029,-0.799 -1.03,-0.783 0.072,-1.179 2.511,-0.903 7.603,-5.387 6.908,-6.083 -0.254,-0.254 -0.958,0.202 -5.313,3.438 -1.731,1.287 -3.219,2.34 -3.306,2.341 -0.689,0.004 -8.071,-8 -11.754,-12.745 -2.724,-3.509 -2.617,-3.319 -1.944,-3.466 2.584,-0.568 5.447,-2.147 7.526,-4.149 1.808,-1.742 1.94,-2.453 0.271,-1.466 -6.587,3.896 -8.745,5.061 -9.039,4.879 -0.56,-0.346 -5.16,-6.785 -6.915,-9.68 -1.802,-2.972 -5.677,-10.705 -5.446,-10.867 0.182,-0.128 4.098,-1.069 5.785,-1.39 3.23,-0.614 3.006,-1.208 -0.456,-1.208 -2.299,0 -3.434,0.345 -4.958,1.508 -0.768,0.586 -0.607,0.799 -1.793,-2.362 -1.49,-3.968 -1.51,-3.597 0.209,-3.846 2.594,-0.375 6.665,-0.563 9.853,-0.454 2.31,0.079 3.156,0.05 3.257,-0.113 0.192,-0.31 0.197,-0.308 -1.851,-0.846 -3.603,-0.947 -8.034,-0.835 -11.374,0.287 -1.881,0.632 -1.635,0.845 -2.572,-2.229 -1.626,-5.341 -2.016,-8.361 -1.541,-11.945 l 0.122,-0.926 1.945,0.058 c 1.069,0.032 3.427,0.222 5.24,0.422 3.127,0.346 3.649,0.346 3.649,-0.003 0,-1.114 -6.646,-2.245 -9.352,-1.592 -0.611,0.148 -1.167,0.272 -1.235,0.275 -0.13,0.007 -0.032,-0.439 0.624,-2.844 l 0.4,-1.462 4.92,0.12 c 2.706,0.066 5.962,0.233 7.235,0.37 3.172,0.343 3.549,-0.026 0.923,-0.9 -3.254,-1.084 -7.587,-1.341 -10.923,-0.647 -0.967,0.201 -1.778,0.366 -1.8,0.368 -0.117,0.006 1.084,-2.545 1.961,-4.165 1.068,-1.975 1.587,-2.79 3.027,-4.759 l 0.907,-1.241 1.147,0.625 c 1.916,1.044 4.494,1.553 4.698,0.928 0.147,-0.449 -2.42,-1.718 -4.556,-2.252 l -0.634,-0.158 0.591,-0.674 0.591,-0.673 0.692,0.333 c 2.484,1.198 7.255,2.072 7.521,1.379 0.192,-0.5 -3.788,-1.993 -5.958,-2.235 -1.828,-0.205 -1.855,-0.137 1.327,-3.29 3.178,-3.148 3.029,-3.059 4.175,-2.506 1.553,0.75 4.999,1.203 5.311,0.697 0.326,-0.527 -2.78,-1.822 -4.369,-1.822 -0.396,0 -0.772,-0.083 -0.835,-0.185 -0.183,-0.297 -0.31,-0.25 -2.997,1.098 m 55.42,48.137 c -0.143,0.232 1.904,2.132 2.776,2.577 2.23,1.137 4.804,1.261 6.875,0.329 2.019,-0.908 2.343,-1.771 0.473,-1.259 -2.547,0.698 -5.451,0.317 -8.262,-1.083 -1.547,-0.77 -1.705,-0.818 -1.862,-0.564 m -56.219,4.561 c -2.201,0.444 -4.663,1.573 -4.783,2.193 -0.073,0.38 -0.427,0.422 4.649,-0.545 1.811,-0.345 3.869,-0.681 4.574,-0.747 1.64,-0.152 1.843,-0.503 0.519,-0.896 -1.137,-0.338 -3.299,-0.34 -4.959,-0.005 m -36.724,3.31 c -1.345,0.377 -2.716,1.861 -2.197,2.38 0.129,0.129 0.356,0.073 0.712,-0.176 2.393,-1.667 4.785,-0.67 6.85,2.854 0.857,1.462 1.268,0.62 0.631,-1.289 -1.005,-3.012 -3.378,-4.503 -5.996,-3.769 m 70.798,3.321 c 0,0.41 1.975,2.662 3.289,3.75 6.217,5.147 15.151,6.873 24.396,4.713 2.758,-0.645 2.568,-1.099 -0.312,-0.746 -10.012,1.227 -19.479,-1.249 -25.776,-6.741 -1.475,-1.287 -1.597,-1.361 -1.597,-0.976 m -70.714,2.996 c -2.238,2.55 -0.683,8.984 2.172,8.984 2.697,0 3.242,-6.436 0.758,-8.935 -0.977,-0.982 -2.094,-1 -2.93,-0.049 m -3.675,2.503 c 0,0.56 0.035,0.789 0.077,0.509 0.043,-0.28 0.043,-0.738 0,-1.018 -0.042,-0.28 -0.077,-0.051 -0.077,0.509 m -0.513,1.528 c -0.041,0.127 -0.338,1.178 -0.659,2.335 -0.963,3.475 -1.56,5.177 -2.736,7.804 -2.757,6.157 -1.581,9.814 3.655,11.368 2.006,0.595 2.176,-0.044 0.239,-0.901 -3.599,-1.592 -4.606,-4.481 -2.895,-8.309 1.87,-4.183 2.719,-7.273 2.971,-10.816 0.109,-1.529 0.089,-1.713 -0.188,-1.713 -0.171,0 -0.345,0.104 -0.387,0.232 m 55.604,3.426 c -1.994,1.298 -3.78,2.456 -3.969,2.573 -0.692,0.427 -0.044,0.681 1.12,0.439 2.58,-0.535 7.469,-4.218 6.876,-5.178 -0.199,-0.321 -0.264,-0.286 -4.027,2.166 m 17.831,9.878 c -1.726,2.38 -2.619,3.413 -3.787,4.382 -1.089,0.904 -1.215,1.28 -0.397,1.184 1.968,-0.233 4.434,-2.566 5.431,-5.14 1.039,-2.68 0.518,-2.858 -1.247,-0.426 m 24.656,6.649 c -1.297,1.885 -1.41,2.2 -0.215,0.602 0.438,-0.585 1,-1.335 1.248,-1.666 0.249,-0.331 0.376,-0.602 0.283,-0.602 -0.093,0 -0.685,0.75 -1.316,1.666 m -87.818,3.904 c -2.958,0.665 -4.63,1.28 -4.63,1.702 0,0.378 3.249,0.397 4.571,0.026 0.345,-0.096 0.388,-0.054 0.297,0.297 -0.18,0.688 -1.383,1.791 -2.229,2.043 -1.17,0.35 -1.113,0.919 0.092,0.913 2.281,-0.01 3.814,-1.64 4.222,-4.486 0.15,-1.049 0.146,-1.05 -2.323,-0.495 m 103.148,15.911 c 0,0.206 0.123,0.371 0.277,0.371 0.889,0 4.007,1.369 5.129,2.253 1.721,1.355 1.963,3.602 0.56,5.201 -0.349,0.398 -0.49,0.287 1.649,1.292 4.102,1.928 7.437,4.993 9.442,8.68 0.447,0.822 1.296,2.008 1.887,2.636 10.95,11.636 5.471,30.196 -15.807,53.549 -3.946,4.329 -14.662,14.722 -15.182,14.722 -0.061,0 -0.257,-1.438 -0.436,-3.195 -0.376,-3.688 -1.75,-14.945 -2.436,-19.953 -0.479,-3.504 -2.215,-13.228 -3.716,-20.818 -1.228,-6.213 -3.234,-14.459 -5.431,-22.33 -0.139,-0.498 -0.751,-0.758 -0.751,-0.32 0,0.145 0.286,1.755 0.637,3.579 1.678,8.736 3.302,17.426 3.993,21.37 0.42,2.394 1.22,6.81 1.78,9.815 0.559,3.005 1.307,7.296 1.662,9.537 0.907,5.734 2.757,16.752 3.31,19.722 0.649,3.479 0.825,3.161 -1.521,2.742 -21.632,-3.87 -43.415,-14.75 -61.4,-30.667 -8.024,-7.102 -17.286,-17.454 -21.521,-24.055 -0.704,-1.096 -1.053,-1.369 -1.282,-0.998 -0.262,0.422 5.148,7.978 9.087,12.69 12.251,14.66 26.677,26.096 43.496,34.481 4.165,2.076 5.973,3.094 8.055,4.535 16.591,11.478 30.239,16.39 36.107,12.996 6.662,-3.854 13.667,-17.113 19.938,-37.736 0.634,-2.086 1.091,-3.194 1.845,-4.476 5.085,-8.64 7.467,-17.403 6.541,-24.061 -0.524,-3.769 -1.558,-6.165 -4.549,-10.539 -0.218,-0.319 -0.813,-0.992 -1.322,-1.495 -0.509,-0.504 -1.092,-1.25 -1.297,-1.657 -1.868,-3.721 -6.387,-7.933 -10.255,-9.557 -0.544,-0.229 -1.012,-0.431 -1.04,-0.45 -0.028,-0.018 0.078,-0.524 0.237,-1.124 0.809,-3.073 -1.247,-5.436 -5.846,-6.719 -1.725,-0.482 -1.84,-0.483 -1.84,-0.021 m -38.148,2.786 c -11.96,1.019 -24.042,4.345 -34.401,9.472 -3.203,1.585 -3.247,1.613 -3.022,1.976 0.11,0.178 0.702,10e-4 2.441,-0.731 22.277,-9.372 46.7,-11.463 65.896,-5.642 1.205,0.365 1.595,0.421 1.705,0.243 0.19,-0.307 0.096,-0.371 -1.416,-0.969 -8.839,-3.5 -21.106,-5.21 -31.203,-4.349 m -103.612,1.941 c -7.796,1.446 -18.901,5.051 -29.537,9.589 -7.787,3.323 -15.878,7.295 -15.772,7.743 0.078,0.33 21.867,38.888 22.14,39.18 0.404,0.43 10.581,-3.517 18.814,-7.299 9.241,-4.244 22.443,-11.447 25.23,-13.765 l 0.569,-0.473 -1.996,-3.694 c -1.099,-2.031 -2.16,-3.985 -2.359,-4.341 l -0.361,-0.648 0.432,0.555 c 4.58,5.874 7.233,8.426 8.759,8.426 0.608,0 0.621,-0.477 0.017,-0.629 -1.5,-0.377 -7.07,-7.417 -9.179,-11.602 -1.461,-2.898 -1.853,-5.498 -1.022,-6.767 0.504,-0.769 0.639,-0.722 4.065,1.422 2.947,1.844 8.156,4.796 8.468,4.798 0.9,0.006 -2.042,-2.452 -4.988,-4.166 -1.565,-0.911 -3.833,-2.671 -4.258,-3.304 -2.153,-3.206 -6.787,-1.186 -5.728,2.497 0.283,0.985 0.864,3.737 0.803,3.805 -0.017,0.02 -2.634,-4.772 -5.815,-10.648 -3.181,-5.876 -5.845,-10.775 -5.921,-10.887 -0.098,-0.145 -0.781,-0.085 -2.361,0.208 m 8.544,2.509 c -0.925,0.728 -0.362,2.394 0.808,2.394 0.621,0 1.297,-0.724 1.297,-1.389 0,-0.666 -0.676,-1.389 -1.297,-1.389 -0.176,0 -0.54,0.173 -0.808,0.384 m 0.36,16.296 c 4.575,8.767 8.342,16.003 8.37,16.08 0.31,0.847 -36.932,18.068 -38.408,17.76 -0.348,-0.072 -17.551,-33.763 -17.417,-34.111 0.146,-0.381 10.561,-5.529 15.126,-7.477 7.712,-3.291 21.67,-8.124 23.625,-8.18 0.326,-0.01 1.673,2.455 8.704,15.928 m 11.745,-14.577 c 0,0.139 0.812,0.918 1.805,1.732 4.715,3.865 7.51,6.767 10.932,11.35 3.157,4.227 6.552,8.519 6.74,8.519 1.37,0 -5.89,-11.01 -9.994,-15.155 -0.974,-0.984 -1.611,-1.665 -1.414,-1.512 0.329,0.257 0.337,0.253 0.104,-0.044 -0.139,-0.177 -0.315,-0.283 -0.392,-0.236 -0.169,0.105 -0.785,-0.543 -0.648,-0.681 0.054,-0.053 -0.05,-0.213 -0.231,-0.355 -0.299,-0.235 -0.305,-0.229 -0.074,0.066 0.389,0.496 0.063,0.387 -0.738,-0.248 -0.397,-0.314 -0.681,-0.638 -0.63,-0.719 0.05,-0.082 -0.054,-0.137 -0.231,-0.123 -0.177,0.014 -0.302,-0.076 -0.278,-0.2 0.024,-0.123 -0.071,-0.18 -0.213,-0.126 -0.141,0.054 -0.319,-0.003 -0.396,-0.128 -0.096,-0.154 -0.063,-0.178 0.102,-0.076 0.162,0.1 0.198,0.077 0.108,-0.067 -0.073,-0.12 -0.201,-0.176 -0.283,-0.125 -0.082,0.051 -0.485,-0.151 -0.896,-0.448 -1.579,-1.145 -3.373,-1.901 -3.373,-1.424 m 87.129,-0.126 c -7.992,0.675 -17.537,2.85 -28.361,6.464 -8.252,2.754 -16.587,6.051 -16.418,6.492 0.137,0.358 0.312,0.33 2.474,-0.404 24.089,-8.174 43.218,-12.008 51.379,-10.298 3.397,0.712 7.722,3.447 6.668,4.217 -0.72,0.527 -6.387,0.687 -10.53,0.298 -1.539,-0.144 -2.166,0.009 -1.748,0.428 0.564,0.564 10.597,1.262 12.13,0.844 2.244,-0.613 2.516,-2.198 0.671,-3.922 -3.662,-3.423 -8.877,-4.743 -16.265,-4.119 m -95.274,0.483 c -1.483,0.751 -0.411,2.984 1.126,2.347 1.049,-0.434 1.092,-2.013 0.065,-2.403 -0.599,-0.228 -0.633,-0.226 -1.191,0.056 m -4.206,1.246 c -0.784,0.315 -1.086,1.036 -0.739,1.764 0.703,1.475 2.861,0.673 2.462,-0.916 -0.093,-0.371 -0.972,-1.085 -1.261,-1.024 -0.031,0.007 -0.238,0.086 -0.462,0.176 m -18.853,2.005 c -1.012,0.466 -3.133,2.773 -5.463,5.942 -5.089,6.921 -6.305,8.51 -7.201,9.411 -0.863,0.867 -1.734,1.359 -1.978,1.115 -0.369,-0.369 1.437,-4.582 3.61,-8.418 0.696,-1.227 0.774,-2.14 0.107,-1.233 -3.493,4.744 -5.488,9.852 -4.142,10.604 1.331,0.743 3.438,-1.035 7.441,-6.282 1.203,-1.578 2.952,-3.868 3.884,-5.091 1.89,-2.475 4.012,-4.722 4.46,-4.722 1.351,0 -0.225,10.464 -3.96,26.296 -1.131,4.794 -1.353,6.953 -0.77,7.476 1.182,1.06 3.083,-1.053 7.721,-8.587 5.057,-8.214 6.569,-9.724 6.569,-6.562 0,0.442 0.084,0.636 0.277,0.636 0.575,0 0.249,-2.227 -0.397,-2.719 -1.012,-0.77 -2.514,0.943 -7.98,9.108 -1.841,2.75 -3.768,5.459 -4.282,6.019 l -0.935,1.018 -0.008,-0.577 c -0.005,-0.318 0.452,-2.436 1.016,-4.708 5.636,-22.724 6.196,-30.645 2.031,-28.726 m 21.587,0.703 c -0.719,0.914 -0.15,2.105 1.005,2.105 0.794,0 1.467,-0.763 1.299,-1.474 -0.264,-1.12 -1.625,-1.493 -2.304,-0.631 m -57.887,16.992 c -2.057,0.896 -2.537,3.454 -0.947,5.044 2.787,2.787 7.107,-1.17 4.509,-4.13 -0.973,-1.108 -2.322,-1.454 -3.562,-0.914 m 227.874,2.412 c 0,0.061 0.464,0.915 1.031,1.897 6.847,11.859 10.207,25.762 8.228,34.044 -0.536,2.245 -0.557,3.424 -0.185,10.371 0.358,6.674 0.383,30.417 0.039,36.666 -2.861,52.031 -13.959,85.438 -33.28,100.183 -2.241,1.71 -2.194,1.642 -1.018,1.499 20.34,-2.467 46.331,-9.044 58.889,-14.9 l 2.685,-1.252 0.05,-3.683 c 0.028,-2.025 0.125,-3.728 0.217,-3.784 0.202,-0.126 -0.061,-10.139 -0.451,-17.137 -0.153,-2.75 -0.445,-8.125 -0.649,-11.944 -0.93,-17.395 -2.278,-32.219 -4.1,-45.093 l -0.577,-4.074 0.301,-2.592 c 0.618,-5.318 0.726,-7.169 0.725,-12.408 -0.003,-12.987 -2.163,-24.993 -6.196,-34.444 -0.609,-1.426 -1.118,-2.739 -1.133,-2.917 -0.014,-0.178 -0.091,-0.324 -0.171,-0.324 -0.08,0 -0.131,-0.063 -0.114,-0.139 0.102,-0.442 -2.369,-5.328 -4.331,-8.565 -3.14,-5.181 -6.131,-8.966 -10.691,-13.531 -3.577,-3.581 -9.269,-8.416 -9.269,-7.873 m -240.599,3.836 c -0.333,0.319 -0.454,0.471 -0.269,0.338 0.303,-0.218 0.326,-0.197 0.236,0.207 -1.177,5.278 -0.376,13.041 1.823,17.692 1.257,2.657 1.937,2.663 1.128,0.01 -1.261,-4.134 -1.808,-8.65 -2.163,-17.855 -0.044,-1.146 0.005,-1.121 -0.755,-0.392 m 15.928,6.556 c -1.03,0.568 -1.181,1.67 -0.343,2.508 0.854,0.854 1.962,0.683 2.516,-0.389 0.69,-1.333 -0.859,-2.843 -2.173,-2.119 m -21.223,0.962 c -0.317,0.497 -0.345,0.605 -0.104,0.409 0.292,-0.238 0.313,-0.231 0.203,0.065 -0.271,0.721 -0.355,3.81 -0.148,5.41 0.447,3.446 1.913,6.995 2.499,6.047 0.053,-0.086 -0.06,-1.065 -0.252,-2.176 -0.192,-1.111 -0.526,-3.811 -0.742,-6.001 -0.497,-5.032 -0.551,-5.171 -1.456,-3.754 m 26.635,1.532 c -0.204,0.203 -0.371,0.455 -0.371,0.559 0,0.105 -0.335,0.554 -0.746,0.999 -0.41,0.445 -0.985,1.247 -1.278,1.782 l -0.531,0.972 -0.305,-0.59 c -0.543,-1.05 -1.694,-1.233 -2.524,-0.403 -1.333,1.333 0.177,3.387 1.852,2.521 0.63,-0.326 0.635,-0.317 0.383,0.734 -0.098,0.407 -0.262,2.157 -0.366,3.889 -0.314,5.248 -0.745,9.657 -1.045,10.694 -0.067,0.231 0.011,0.324 0.273,0.324 0.783,0 1.944,-4.763 2.251,-9.23 0.51,-7.412 1.223,-9.94 3.122,-11.062 0.314,-0.185 0.506,-0.428 0.451,-0.571 -0.503,-1.313 1.469,1.885 2.799,4.538 3.416,6.81 4.138,10.124 3.72,17.066 -0.521,8.652 -0.562,11.843 -0.15,11.735 0.608,-0.159 2.222,-13.532 1.998,-16.55 -0.356,-4.784 -2.425,-10.098 -5.719,-14.688 -0.552,-0.771 -1.063,-1.593 -1.134,-1.829 -0.366,-1.204 -1.867,-1.703 -2.68,-0.89 m 52.777,6.25 c -0.458,0.685 -0.947,1.474 -1.086,1.754 -0.14,0.28 -0.313,0.472 -0.386,0.427 -0.073,-0.045 -0.135,0.019 -0.137,0.142 -0.003,0.123 -1.085,1.89 -2.404,3.927 -4.102,6.333 -9.998,16.079 -12.634,20.882 -0.433,0.79 -0.864,1.39 -0.957,1.333 -0.093,-0.058 -0.114,0.038 -0.047,0.213 0.082,0.214 0.052,0.274 -0.093,0.185 -0.144,-0.089 -0.174,-0.029 -0.092,0.185 0.082,0.214 0.052,0.275 -0.093,0.185 -0.144,-0.089 -0.175,-0.029 -0.092,0.186 0.073,0.191 0.048,0.272 -0.064,0.203 -0.103,-0.064 -0.186,-0.007 -0.186,0.126 0,0.132 -0.294,0.733 -0.653,1.334 -2.237,3.744 -8.476,16.007 -11.432,22.47 -0.501,1.094 -0.657,1.302 -0.763,1.018 -0.412,-1.099 -7.653,-20.626 -7.807,-21.052 -0.28,-0.775 -2.962,-0.461 -9.138,1.07 -3.425,0.849 -3.216,0.536 -2.104,3.152 2.941,6.912 8.632,21.497 8.456,21.673 -0.041,0.041 -1.485,0.488 -3.209,0.995 -9.834,2.889 -21.579,8.42 -28.706,13.517 -0.861,0.617 -1.648,1.121 -1.747,1.121 -0.235,0 -0.234,0.316 0,0.461 0.1,0.061 1.413,-0.565 2.917,-1.393 3.393,-1.867 11.128,-5.692 14.587,-7.214 5.439,-2.392 16.415,-6.531 16.651,-6.279 0.161,0.173 2.22,6.746 2.79,8.909 l 0.625,2.369 -0.544,1.492 c -1.052,2.883 -2.782,8.724 -3.693,12.472 -1.053,4.329 -0.998,3.998 -0.666,3.998 0.173,0 0.57,-1.118 1.232,-3.472 5.533,-19.659 19.131,-47.786 39.661,-82.036 2.778,-4.634 3.262,-5.61 2.776,-5.601 -0.071,0.001 -0.503,0.563 -0.962,1.248 m -84.106,1.845 c -0.449,0.541 -0.316,2.796 0.228,3.854 1.244,2.423 1.874,0.103 0.827,-3.048 -0.33,-0.994 -0.678,-1.26 -1.055,-0.806 m 103.736,49.034 c 0,4.632 0.324,23.523 0.644,37.593 0.15,6.62 0.319,14.245 0.374,16.944 0.054,2.699 0.138,5.866 0.185,7.037 0.048,1.172 0.131,3.713 0.186,5.649 0.528,18.675 1.785,50.179 2.01,50.405 0.587,0.586 0.592,-0.856 0.111,-26.887 -0.528,-28.529 -1.733,-67.814 -2.679,-87.315 -0.15,-3.106 -0.274,-5.877 -0.275,-6.157 0,-0.329 -0.099,-0.509 -0.278,-0.509 -0.236,0 -0.278,0.483 -0.278,3.24" id="path0-93" style="fill:#757575;fill-opacity:1;fill-rule:evenodd;stroke:none" />
         <path d="m 225.533,34.52 c -0.039,0.034 -1,0.117 -2.137,0.186 -1.137,0.068 -2.22,0.152 -2.407,0.187 -0.188,0.035 -0.799,0.118 -1.359,0.185 -0.934,0.112 -3.086,0.419 -3.982,0.569 -3.277,0.547 -9.971,2.548 -10.587,3.164 -0.245,0.245 -1.254,1.065 -2.244,1.822 -0.989,0.758 -2.039,1.576 -2.333,1.82 l -0.535,0.442 1.488,0.293 c 1.98,0.39 3.748,1.181 3.748,1.677 0,0.776 -3.433,0.288 -6.152,-0.875 -0.246,-0.106 -0.999,0.532 -3.304,2.798 l -2.985,2.934 1.706,0.317 c 1.953,0.362 3.764,0.925 5.053,1.57 2.871,1.438 -2.543,1.076 -6.281,-0.42 l -1.246,-0.498 -0.505,0.618 -0.505,0.619 1.256,0.319 c 2.126,0.54 4.057,1.677 3.834,2.259 -0.225,0.585 -3.281,-0.13 -4.974,-1.165 l -0.863,-0.527 -1.018,1.417 c -1.956,2.722 -4.757,7.74 -4.757,8.521 0,0.103 0.41,0.068 0.973,-0.081 3.45,-0.918 8.097,-0.68 11.852,0.605 1.782,0.611 2.133,1.309 0.551,1.099 -2.434,-0.323 -4.994,-0.492 -9.156,-0.606 l -4.577,-0.124 -0.205,0.538 c -0.308,0.811 -0.99,3.585 -0.903,3.673 0.043,0.042 0.533,-0.042 1.089,-0.186 2.833,-0.735 9.451,0.436 9.451,1.672 0,0.365 -0.415,0.366 -3.248,0.008 -1.219,-0.154 -3.398,-0.334 -4.844,-0.399 l -2.628,-0.119 -0.142,0.538 c -0.6,2.266 -0.094,6.884 1.258,11.478 1.145,3.89 1.023,3.682 1.932,3.295 3.359,-1.431 9.054,-1.576 13.181,-0.334 2.107,0.635 1.346,0.773 -4.815,0.874 -5.296,0.087 -8.322,0.326 -8.718,0.687 -0.085,0.078 0.321,1.38 0.902,2.895 1.441,3.758 1.279,3.521 1.993,2.918 1.906,-1.61 7.175,-2.34 7.665,-1.063 0.154,0.403 0.035,0.453 -1.931,0.806 -2.915,0.523 -5.976,1.343 -5.976,1.6 0,0.284 2.743,6.199 2.994,6.455 0.119,0.123 0.161,0.094 0.121,-0.084 -0.188,-0.853 4.76,-2.425 7.556,-2.401 3.679,0.032 4.229,0.842 0.903,1.33 -1.222,0.179 -3.617,0.597 -5.323,0.929 l -3.101,0.603 1.039,1.844 c 1.544,2.74 3.557,5.77 5.931,8.925 l 2.115,2.812 0.688,-0.312 c 1.13,-0.514 4.045,-2.13 6.698,-3.715 3.376,-2.017 3.945,-1.408 0.975,1.044 -2.006,1.655 -3.787,2.637 -6.119,3.371 l -1.543,0.486 2.126,2.739 c 4.273,5.507 11.309,13.081 12.147,13.076 0.161,-10e-4 1.876,-1.177 3.812,-2.613 3.518,-2.612 4.608,-3.302 4.842,-3.067 0.67,0.67 -3.663,4.691 -6.37,5.91 -0.738,0.333 -1.342,0.651 -1.343,0.706 -0.001,0.538 9.168,7.029 9.929,7.029 0.839,0 3.742,-2.55 6.648,-5.841 2.872,-3.251 3.595,-3.554 2.287,-0.96 -1.648,3.268 -3.983,5.658 -6.783,6.939 l -1.055,0.484 1.107,0.525 c 0.61,0.289 2.036,0.825 3.171,1.191 l 2.063,0.666 1.103,-0.749 c 2.655,-1.803 4.439,-4.727 6.719,-11.012 0.898,-2.473 1.212,-2.677 1.177,-0.762 -0.09,4.923 -3.8,11.324 -7.247,12.506 l -0.693,0.238 0.834,0.128 c 1.65,0.255 5.11,0.374 5.961,0.205 0.5,-0.1 0.937,-0.104 1.031,-0.01 0.094,0.094 0.393,-0.035 0.706,-0.304 0.298,-0.256 0.593,-0.466 0.654,-0.466 0.062,-0.001 0.325,-0.188 0.585,-0.417 0.26,-0.229 0.835,-0.723 1.277,-1.098 2.81,-2.38 5.252,-5.183 8.226,-9.442 0.314,-0.449 0.73,-0.828 0.926,-0.842 3.056,-0.221 7.323,-2.611 8.336,-4.67 1.077,-2.188 0.524,-8.569 -0.895,-10.337 -0.142,-0.176 -0.036,-0.232 0.441,-0.232 1.879,0 5.338,-4.027 5.806,-6.759 0.43,-2.514 0.037,-6.104 -1.105,-10.075 -0.395,-1.376 -0.555,-2.229 -0.451,-2.415 0.087,-0.158 0.713,-1.704 1.391,-3.436 1.384,-3.539 1.61,-4.082 2.849,-6.84 0.318,-0.706 1.037,-2.373 1.599,-3.703 0.562,-1.331 1.173,-2.753 1.358,-3.161 3.705,-8.184 5.003,-16.668 3.408,-22.282 -0.579,-2.039 -0.54,-1.912 -0.714,-2.347 -0.082,-0.204 -0.331,-0.829 -0.554,-1.389 -0.224,-0.56 -0.607,-1.322 -0.853,-1.693 -0.245,-0.371 -0.898,-1.397 -1.452,-2.28 -1.1,-1.752 -2.711,-3.606 -3.833,-4.41 -3.352,-2.402 -3.442,-2.455 -6.642,-3.934 -2.871,-1.326 -8.138,-2.493 -14.259,-3.158 -1.577,-0.171 -8.666,-0.227 -9.662,-0.076 -0.458,0.07 -1.197,0.059 -1.641,-0.024 -2.97,-0.555 -12.137,-1.163 -12.516,-0.831 m -16.97,7.438 c 0.059,0.059 -0.421,1.163 -1.066,2.454 -7.404,14.818 -8.445,30.874 -2.831,43.634 7.569,17.201 27.464,32.968 48.16,38.167 1.202,0.302 1.75,0.824 0.865,0.824 -4.34,0 -18.9,-6.119 -26.713,-11.227 -25.907,-16.935 -34.094,-43.041 -21.597,-68.866 1.789,-3.696 2.834,-5.334 3.182,-4.986 m 28.584,1.308 c 7.501,5.25 15.338,12.43 20.263,18.562 3.252,4.048 4.641,5.02 5.328,3.728 0.667,-1.257 -0.084,-6.248 -1.364,-9.061 -0.48,-1.053 -0.3,-1.709 0.253,-0.921 2.652,3.787 3.383,10.713 1.238,11.731 -1.627,0.772 -3.238,-0.332 -7.01,-4.803 -4.57,-5.418 -13.45,-13.881 -21.198,-20.202 -0.101,-0.083 0.163,-0.448 0.325,-0.448 0.08,0 1.054,0.636 2.165,1.414 m 16.834,49.353 c 2.736,1.417 5.875,1.859 8.412,1.184 1.487,-0.396 1.816,0.017 0.648,0.813 -2.912,1.984 -7.503,1.295 -10.241,-1.537 -0.552,-0.569 -0.73,-1.412 -0.254,-1.195 0.077,0.035 0.723,0.366 1.435,0.735 m -20.279,13.211 c 6.152,4.465 13.945,6.136 24.307,5.213 4.329,-0.386 0.608,1.007 -4.162,1.558 -9.443,1.091 -19.122,-2.477 -23.43,-8.637 -0.791,-1.131 -0.102,-1.134 1.057,-0.006 0.564,0.55 1.567,1.392 2.228,1.872 m -18.793,5.84 c 0.707,1.143 -4.496,4.918 -7.288,5.288 -1.148,0.152 -1.424,-0.422 -0.406,-0.844 0.302,-0.125 2.031,-1.215 3.843,-2.422 3.297,-2.197 3.634,-2.374 3.851,-2.022 m 15.564,11.087 c -0.41,2.396 -2.879,5.504 -5.005,6.299 -1.292,0.484 -1.579,0.487 -1.579,0.018 0,-0.204 0.071,-0.37 0.158,-0.37 0.425,0 2.728,-2.434 4.264,-4.507 1.817,-2.451 2.401,-2.841 2.162,-1.44 m -97.728,31.412 c -0.06,0.06 -1.975,0.234 -2.884,0.262 -0.632,0.02 -0.772,-0.272 5.019,10.431 6.501,12.016 6.1,11.296 5.959,10.694 -0.059,-0.255 -0.154,-0.88 -0.212,-1.389 -0.057,-0.51 -0.221,-1.24 -0.365,-1.624 -1.317,-3.511 3.86,-6.075 5.602,-2.775 0.281,0.531 3.631,3.195 4.018,3.195 0.05,0 -1.944,-3.548 -4.432,-7.884 -2.488,-4.337 -4.524,-7.918 -4.524,-7.959 0,-0.137 -2.075,-2.12 -2.243,-2.143 -0.289,-0.041 -0.423,-0.079 -1.368,-0.385 -0.809,-0.263 -4.399,-0.595 -4.57,-0.423 m 4.205,2.988 c 0.483,0.186 0.819,1.148 0.609,1.748 -0.383,1.099 -2.14,1.107 -2.522,0.012 -0.421,-1.209 0.689,-2.229 1.913,-1.76 m 4.077,2.557 c 0.25,0.25 0.454,0.67 0.454,0.934 0,0.264 -0.204,0.684 -0.454,0.934 -0.25,0.25 -0.671,0.455 -0.934,0.455 -0.264,0 -0.685,-0.205 -0.935,-0.455 -0.25,-0.25 -0.454,-0.67 -0.454,-0.934 0,-0.264 0.204,-0.684 0.454,-0.934 0.25,-0.25 0.671,-0.455 0.935,-0.455 0.263,0 0.684,0.205 0.934,0.455 m -4.445,1.296 c 0.858,0.857 0.301,2.323 -0.882,2.323 -0.571,0 -1.441,-0.714 -1.441,-1.183 0,-1.36 1.411,-2.052 2.323,-1.14 m 3.405,2.441 c 0.439,0.558 0.467,0.792 0.174,1.435 -0.621,1.364 -2.568,0.807 -2.568,-0.734 0,-1.142 1.664,-1.629 2.394,-0.701 m -59.802,9.361 c -0.662,0.396 -1.694,0.988 -2.294,1.315 -0.599,0.327 -1.278,0.7 -1.508,0.828 -1.484,0.823 -3.549,3.995 -4.084,6.27 -1.55,6.595 3.689,19.807 10.845,27.347 l 1.433,1.509 0.133,-3.05 c 0.074,-1.677 0.236,-3.647 0.36,-4.376 0.223,-1.315 0.222,-1.325 -0.149,-1.065 -1.538,1.077 -3.361,-1.247 -2.025,-2.583 0.721,-0.722 1.611,-0.67 2.372,0.137 l 0.59,0.625 0.435,-0.82 c 0.239,-0.45 0.734,-1.128 1.099,-1.506 0.365,-0.378 0.764,-0.912 0.887,-1.186 0.648,-1.446 2.392,-1.284 3.134,0.292 0.246,0.523 0.948,1.659 1.559,2.525 2.289,3.243 4.569,8.62 5.013,11.825 0.342,2.472 0.185,2.256 1.412,1.941 1.248,-0.32 4.188,-1.193 4.273,-1.269 0.045,-0.041 -22.143,-39.382 -22.255,-39.46 -0.014,-0.01 -0.568,0.306 -1.23,0.701 m 2.682,7.797 c 2.073,1.174 2.073,4.275 0,5.449 -1.563,0.885 -3.564,0.285 -4.331,-1.299 -1.373,-2.838 1.606,-5.693 4.331,-4.15 m 61.612,1.984 c 0.257,0.458 1.238,2.27 2.181,4.027 0.943,1.757 1.753,3.195 1.799,3.195 0.047,0 0.404,-0.269 0.795,-0.597 l 0.71,-0.596 -1.541,-1.62 c -0.848,-0.891 -2.105,-2.352 -2.793,-3.246 -1.566,-2.036 -1.733,-2.205 -1.151,-1.163 m -59.691,10.634 c 1.543,0.798 0.95,3.069 -0.801,3.069 -1.492,0 -2.126,-1.704 -1.038,-2.792 0.6,-0.6 1.076,-0.672 1.839,-0.277" id="path1-74" style="fill:#999999;fill-opacity:1;fill-rule:evenodd;stroke:none" />
         <path d="m 164.118,33.245 c -1.189,0.603 -1.731,1.253 -4.014,4.811 -3.676,5.729 -4.219,6.012 -6.887,3.589 -2.708,-2.459 -8.005,-3.978 -10.517,-3.014 -0.647,0.248 -0.201,0.351 1.606,0.371 3.497,0.037 5.666,0.894 8.181,3.229 3.477,3.23 4.47,2.795 8.957,-3.928 3.676,-5.507 4.358,-5.549 12.376,-0.767 7.474,4.458 12.027,6.28 14.039,5.616 0.875,-0.289 1.367,-1.059 2.232,-3.494 2.118,-5.964 5.093,-7.301 10.2,-4.585 1.803,0.959 2.239,0.843 0.681,-0.182 -0.585,-0.385 -1.126,-0.789 -1.201,-0.897 -0.074,-0.109 -0.137,-0.139 -0.139,-0.067 -0.001,0.072 -0.565,-0.085 -1.252,-0.349 -4.383,-1.683 -7.336,0.225 -9.572,6.182 -0.677,1.804 -1.071,2.277 -1.896,2.277 -1.863,0 -6.436,-2.115 -12.5,-5.782 -5.843,-3.534 -8.012,-4.168 -10.294,-3.01 m 34.03,9.608 c -3.541,1.386 -7.027,3.367 -9.252,5.255 -2.076,1.763 -2.755,1.986 -6.026,1.979 -5.34,-0.012 -9.493,-1.736 -13.252,-5.502 -3.713,-3.72 -5.997,-2.89 -11.846,4.304 -5.099,6.271 -6.273,6.531 -13.281,2.939 -5.255,-2.693 -7.722,-2.626 -10.591,0.288 -1.245,1.264 -1.112,1.576 0.178,0.416 2.859,-2.571 4.997,-2.593 9.473,-0.096 7.932,4.425 9.688,4.141 15.052,-2.435 5.439,-6.667 7.044,-7.349 10.16,-4.314 6.347,6.183 15.758,7.58 20.797,3.09 1.904,-1.697 4.593,-3.439 7.616,-4.933 1.451,-0.718 2.639,-1.376 2.639,-1.463 0,-0.2 0.167,-0.247 -1.667,0.472 m -20.185,16.148 c -2.184,0.585 -3.14,1.581 -4.808,5.016 -2.984,6.146 -4.343,6.119 -15.748,-0.314 -9.744,-5.496 -11.492,-5.407 -13.028,0.669 -2.221,8.785 -7.55,13.51 -11.947,10.592 -0.947,-0.628 -1.296,-0.512 -0.488,0.162 4.399,3.67 10.613,-0.769 13.265,-9.475 1.836,-6.027 2.13,-6.057 10.81,-1.114 12.922,7.359 15.156,7.261 18.437,-0.81 1.52,-3.739 4.621,-5.1 9.016,-3.957 1.286,0.335 1.744,0.272 0.985,-0.134 -1.459,-0.781 -4.749,-1.103 -6.494,-0.635 m -27.911,16.386 c -1.789,0.886 -2.383,4.747 -1.457,9.481 0.474,2.42 0.739,2.064 0.466,-0.626 -0.961,-9.463 1.441,-10.159 10.408,-3.015 4.977,3.966 6.293,4.128 8.629,1.063 3.217,-4.223 5.559,-4.741 7.458,-1.649 1.888,3.076 2.501,3.526 4.801,3.526 1.325,0 1.739,-0.077 2.505,-0.463 1.353,-0.683 1.23,-0.931 -0.218,-0.438 -2.815,0.96 -4.29,0.298 -5.936,-2.665 -2.251,-4.051 -5.14,-4.221 -8.485,-0.499 -3.441,3.829 -2.883,3.879 -8.987,-0.807 -4.841,-3.716 -7.385,-4.798 -9.184,-3.908 m 28.004,15.138 c -0.796,0.486 -1.598,1.464 -2.115,2.581 -0.473,1.02 -0.372,1.57 0.144,0.783 2.517,-3.844 4,-3.399 7.411,2.223 3.14,5.175 5.009,6.521 7.198,5.186 0.634,-0.386 0.847,-0.883 0.278,-0.648 -1.989,0.821 -3.126,0.126 -5.002,-3.057 -0.57,-0.968 -1.442,-2.445 -1.939,-3.284 -2.1,-3.543 -4.195,-4.87 -5.975,-3.784 m 52.777,55.22 c -16.424,0.988 -32.711,5.884 -45.826,13.775 -1.418,0.853 -2.624,1.505 -2.681,1.448 -0.057,-0.057 -0.104,-0.015 -0.104,0.093 0,0.108 -0.432,0.474 -0.96,0.813 -0.528,0.339 -1.531,1.057 -2.227,1.595 -0.697,0.538 -1.36,0.999 -1.473,1.023 -1.677,0.364 -3.444,4.033 -2.896,6.016 0.169,0.613 -1.158,2.449 -2.892,4.004 -0.212,0.189 -0.352,0.356 -0.311,0.37 0.04,0.014 -0.242,0.519 -0.628,1.121 -0.695,1.087 -1.575,3.032 -1.576,3.484 -10e-4,0.129 -1.23,0.833 -2.732,1.563 -3.003,1.459 -6.502,3.583 -8.934,5.422 -2.712,2.051 -4.268,3.365 -4.171,3.522 0.052,0.083 -0.101,0.201 -0.338,0.26 -0.887,0.223 -10.236,9.987 -10.249,10.703 -0.002,0.136 -1.11,2.08 -2.461,4.321 -20.55,34.068 -34.555,62.936 -40.295,83.054 -0.793,2.779 -1.111,3.653 -1.305,3.578 -0.568,-0.218 1.867,-9.665 4.135,-16.044 l 0.653,-1.836 -0.601,-2.339 c -0.331,-1.287 -1.093,-3.856 -1.692,-5.709 l -1.091,-3.37 -2.728,0.929 c -9.088,3.095 -18.399,7.22 -27.872,12.349 l -3.292,1.782 0.118,0.84 c 2.213,15.753 6.522,33.096 11.065,44.544 0.566,1.425 1.055,2.717 1.086,2.87 0.031,0.153 0.107,0.319 0.17,0.37 0.063,0.051 0.422,0.801 0.799,1.667 7.673,17.617 19.202,27.568 32.05,27.664 2.547,0.019 4.491,-0.166 4.722,-0.45 0.051,-0.062 0.806,-0.333 1.677,-0.603 6.817,-2.107 14.674,-8.371 22.113,-17.63 0.9,-1.12 1.794,-2.178 1.987,-2.351 0.193,-0.172 0.344,-0.362 0.336,-0.421 -0.008,-0.059 0.724,-1.126 1.626,-2.371 0.903,-1.245 1.875,-2.618 2.161,-3.051 0.286,-0.433 0.592,-0.787 0.68,-0.787 0.089,0 0.141,-0.063 0.116,-0.139 -0.062,-0.193 1.183,-2.083 1.373,-2.083 0.084,0 0.134,-0.063 0.111,-0.139 -0.059,-0.194 0.645,-1.343 0.823,-1.343 0.08,0 0.145,-0.125 0.145,-0.278 0,-0.152 0.167,-0.444 0.371,-0.648 0.204,-0.203 0.377,-0.433 0.386,-0.509 0.018,-0.155 4.814,-8.234 4.974,-8.38 0.057,-0.05 0.118,-0.179 0.136,-0.285 0.05,-0.285 1.586,-2.937 1.778,-3.069 0.091,-0.062 0.153,-0.168 0.139,-0.236 -0.048,-0.222 0.796,-1.78 0.964,-1.78 0.09,0 0.112,-0.083 0.049,-0.185 -0.063,-0.102 -0.026,-0.185 0.081,-0.185 0.108,0 0.176,-0.064 0.15,-0.143 -0.025,-0.078 0.758,-1.724 1.741,-3.657 l 1.788,-3.515 -0.249,-9.722 c -0.661,-25.778 -0.809,-42.037 -0.383,-42.037 0.314,0 0.381,0.839 0.761,9.537 1.26,28.82 2.433,71.069 2.802,100.969 0.136,11.031 0.103,10.698 1.028,10.46 0.07,-0.018 0.57,0.049 1.111,0.149 1.501,0.277 9.207,1.476 10.151,1.579 0.459,0.05 1.125,0.126 1.482,0.169 2.775,0.334 3.806,0.441 5.37,0.557 0.764,0.057 1.764,0.142 2.222,0.19 0.986,0.102 2.528,0.229 4.445,0.367 0.764,0.055 1.847,0.139 2.407,0.187 0.56,0.048 2.019,0.13 3.241,0.182 1.222,0.053 3.389,0.148 4.815,0.211 3.334,0.149 18.05,0.149 21.666,-0.001 5.683,-0.235 10.604,-0.505 13.797,-0.758 0.56,-0.045 1.727,-0.132 2.592,-0.195 0.866,-0.063 1.783,-0.143 2.037,-0.179 0.255,-0.035 1.172,-0.115 2.037,-0.177 0.866,-0.062 1.866,-0.149 2.223,-0.193 0.356,-0.045 1.064,-0.126 1.574,-0.18 11.735,-1.245 19.748,-2.38 32.222,-4.566 l 2.222,-0.389 1.667,-1.253 c 18.838,-14.166 30.352,-46.734 33.324,-94.259 0.914,-14.62 0.951,-33.202 0.094,-47.407 -0.182,-3.017 -0.17,-3.341 0.178,-4.682 2.127,-8.214 -0.028,-19.498 -6.003,-31.427 -2.763,-5.519 -2.972,-5.788 -6.482,-8.388 -5.034,-3.728 -14.549,-9.516 -13.857,-8.429 0.084,0.132 0.557,0.851 1.051,1.597 5.326,8.05 4.194,19.302 -3.241,32.207 -0.841,1.46 -1.281,2.527 -1.912,4.63 -6.97,23.251 -15.307,37.571 -22.668,38.936 -6.659,1.235 -19.181,-3.984 -33.725,-14.055 -2.018,-1.398 -3.789,-2.405 -7.13,-4.053 -17.588,-8.683 -32.697,-20.741 -45.295,-36.151 -3.137,-3.836 -8.131,-10.844 -8.131,-11.408 0,-0.789 0.653,-0.173 2.345,2.214 14.863,20.969 38.015,38.882 61.637,47.69 6.257,2.333 21.7,6.439 22.229,5.91 0.046,-0.045 -0.168,-1.451 -0.475,-3.124 -0.683,-3.723 -2.131,-12.343 -3.139,-18.69 -0.413,-2.597 -1.164,-6.93 -1.67,-9.629 -0.505,-2.699 -1.377,-7.517 -1.938,-10.707 -0.927,-5.277 -2.475,-13.564 -4.07,-21.793 -0.547,-2.827 -0.579,-3.16 -0.31,-3.266 0.442,-0.174 0.445,-0.166 1.475,3.544 2.379,8.567 4.218,16.934 6.694,30.463 1.377,7.524 2.986,19.308 3.984,29.166 0.16,1.579 0.331,3.062 0.381,3.296 0.12,0.56 3.327,-2.294 9.531,-8.481 25.677,-25.604 33.455,-47.015 21.523,-59.245 -0.554,-0.568 -1.287,-1.584 -1.628,-2.258 -1.928,-3.798 -6.013,-7.606 -9.933,-9.258 -1.762,-0.743 -1.755,-0.733 -1.157,-1.637 1.787,-2.7 -0.086,-5.245 -4.928,-6.698 -1.174,-0.352 -1.451,-0.502 -1.375,-0.745 0.079,-0.249 -0.132,-0.343 -1.16,-0.517 -0.691,-0.117 -2.131,-0.422 -3.201,-0.677 -11.557,-2.756 -22.924,-3.851 -33.426,-3.22 m 12.13,7.224 c 8.497,0.749 21.93,4.379 20.188,5.455 -0.1,0.062 -1.352,-0.223 -2.782,-0.634 -19.015,-5.455 -42.19,-3.337 -64.687,5.914 -1.655,0.681 -2.431,0.917 -2.567,0.782 -0.352,-0.353 0.045,-0.618 3.431,-2.286 14.199,-6.994 31.889,-10.512 46.417,-9.231 m -116.944,5.118 c -10.98,3.205 -18.754,6.101 -28.241,10.521 -4.238,1.974 -9.465,4.771 -9.403,5.031 0.115,0.486 17.284,33.95 17.42,33.952 2.192,0.027 38.442,-16.963 38.238,-17.921 -0.168,-0.788 -16.569,-31.879 -16.811,-31.867 -0.153,0.007 -0.694,0.135 -1.203,0.284 m 117.939,1.253 c 5.714,1.319 10.271,5.903 7.363,7.407 -1.629,0.842 -8.394,0.651 -12.756,-0.361 -0.736,-0.171 -0.559,-0.899 0.185,-0.76 2.992,0.557 11.898,0.23 11.898,-0.437 0,-0.411 -2.064,-1.981 -3.65,-2.777 -7.152,-3.589 -26.1,-0.384 -54.673,9.249 -1.683,0.567 -2.246,0.69 -2.358,0.514 -0.328,-0.516 -0.402,-0.478 5.496,-2.82 13.799,-5.477 26.997,-9.066 37.778,-10.273 2.305,-0.258 9.202,-0.092 10.717,0.258 m -125.8,3.258 c 2.064,1.104 0.991,9.732 -3.429,27.587 -1.332,5.38 -1.512,6.296 -1.237,6.296 0.332,0 2.446,-2.882 5.909,-8.055 5.288,-7.9 6.619,-9.179 7.587,-7.297 0.339,0.659 0.308,2.204 -0.044,2.204 -0.164,0 -0.278,-0.17 -0.278,-0.416 -0.002,-0.63 -0.364,-1.806 -0.557,-1.806 -0.594,0 -2.89,3.135 -5.833,7.963 -4.391,7.203 -6.19,9.35 -7.549,9.009 -1.152,-0.29 -1.059,-1.644 0.603,-8.731 3.187,-13.592 4.905,-24.317 4.037,-25.194 -0.487,-0.491 -2.546,1.837 -8.138,9.201 -3.827,5.039 -5.415,6.665 -6.773,6.937 -2.264,0.453 -2.351,-1.402 -0.255,-5.389 1.212,-2.305 3.311,-5.648 3.547,-5.648 0.448,0 0.251,0.556 -0.962,2.719 -5.293,9.439 -3.272,9.639 3.395,0.337 6.27,-8.749 8.226,-10.654 9.977,-9.717 m 19.768,44.485 c -3.054,4.072 -8.333,12.629 -11.482,18.611 -1.337,2.541 -1.633,3.404 -0.412,1.204 1.911,-3.444 8.329,-13.988 11.44,-18.796 1.066,-1.647 1.272,-2.109 0.454,-1.019 M 86.759,238.51 c -6.755,2.056 -12.351,4.278 -18.957,7.525 l -4.328,2.127 0.126,2.724 c 0.07,1.499 0.157,3.017 0.195,3.373 0.038,0.357 0.119,1.315 0.181,2.13 0.349,4.595 1.019,10.997 1.881,17.98 l 0.322,2.61 2.235,-1.522 c 7.844,-5.341 18.68,-10.394 28.267,-13.181 1.622,-0.471 2.949,-0.93 2.949,-1.02 0,-0.297 -2.977,-8.114 -4.992,-13.108 -3.38,-8.378 -4.336,-10.553 -4.638,-10.546 -0.153,0.003 -1.611,0.412 -3.241,0.908" id="path2-5" style="fill:#999999;fill-opacity:1;fill-rule:evenodd;stroke:none" />
         <path d="m 195.511,33.835 c 0.231,0.044 0.564,0.042 0.741,-0.004 0.177,-0.046 -0.011,-0.083 -0.419,-0.081 -0.407,0.002 -0.552,0.04 -0.322,0.085 m -50.926,4.629 c 0.231,0.045 0.564,0.043 0.741,-0.003 0.177,-0.047 -0.011,-0.083 -0.419,-0.081 -0.407,0.002 -0.552,0.04 -0.322,0.084 m -1.109,0.559 c 0.332,0.041 0.832,0.04 1.111,-0.002 0.278,-0.042 0.006,-0.076 -0.606,-0.075 -0.611,0.001 -0.838,0.036 -0.505,0.077 m 56.279,3.506 c -0.182,0.182 0.246,0.621 0.592,0.607 0.198,-0.007 0.155,-0.07 -0.127,-0.183 -0.236,-0.095 -0.377,-0.256 -0.314,-0.359 0.13,-0.21 0.035,-0.251 -0.151,-0.065 m -9.983,19.642 c 0.333,0.041 0.833,0.041 1.111,-0.002 0.278,-0.042 0.006,-0.076 -0.605,-0.075 -0.611,10e-4 -0.839,0.036 -0.506,0.077 m 0.83,1.66 c 0.178,0.047 0.47,0.047 0.648,0 0.178,-0.046 0.032,-0.084 -0.324,-0.084 -0.357,0 -0.502,0.038 -0.324,0.084 m 10.392,6.447 c 0,1.018 0.031,1.411 0.069,0.873 0.037,-0.538 0.037,-1.371 -10e-4,-1.852 -0.038,-0.48 -0.069,-0.04 -0.068,0.979 m -1.49,1.018 c 0,0.662 0.033,0.933 0.074,0.602 0.041,-0.331 0.041,-0.873 0,-1.204 -0.041,-0.331 -0.074,-0.06 -0.074,0.602 m -6.406,13.282 c 0.328,0.041 0.912,0.042 1.296,0.002 0.384,-0.04 0.115,-0.074 -0.598,-0.075 -0.713,-10e-4 -1.027,0.032 -0.698,0.073 m -36.679,3.339 c -0.061,0.483 -0.16,1.713 -0.221,2.731 -0.06,1.019 -0.154,2.394 -0.208,3.056 -0.054,0.662 -0.125,5.412 -0.157,10.555 -0.074,11.628 -0.174,12.255 -2.946,18.455 -1.711,3.828 -0.704,6.717 2.895,8.309 0.685,0.303 1.247,0.655 1.25,0.783 0.003,0.144 0.273,0.231 0.716,0.231 h 0.712 l 0.228,1.065 c 0.212,0.989 0.785,3.07 1.389,5.046 0.82,2.682 3.052,7.748 4.003,9.082 0.2,0.282 0.364,0.563 0.364,0.624 0,1.419 5.647,6.644 8.823,8.165 2.712,1.299 10.622,2.432 10.622,1.521 0,-0.161 0.368,-0.341 0.976,-0.477 4.052,-0.907 9.262,-4.606 12.526,-8.893 1.821,-2.393 5.202,-8.431 5.202,-9.292 0,-0.118 0.125,-0.166 0.277,-0.107 0.2,0.076 0.278,-0.02 0.278,-0.341 0,-0.443 0.007,-0.445 0.673,-0.167 3.049,1.274 9.476,-0.925 12.368,-4.232 l 0.818,-0.935 -1.259,-1.039 c -0.692,-0.571 -1.804,-1.523 -2.472,-2.115 l -1.213,-1.076 -0.59,0.305 c -0.846,0.438 -1.211,0.052 -0.519,-0.548 l 0.491,-0.426 -1.746,-1.737 c -0.96,-0.956 -2.515,-2.627 -3.454,-3.714 l -1.708,-1.977 -0.737,2.301 -0.736,2.3 h -3.111 -3.11 l 0.12,-1.435 c 0.292,-3.504 -1.814,-15.841 -2.65,-15.52 -6.225,2.389 -13.12,-2.719 -16.111,-11.934 l -0.691,-2.129 -1.453,-0.031 c -4.154,-0.087 -8.557,-2.08 -12.419,-5.621 l -1.084,-0.993 -1.694,0.047 c -1.294,0.036 -1.979,-0.043 -2.898,-0.333 -0.662,-0.208 -1.256,-0.38 -1.319,-0.382 -0.063,-0.001 -0.164,0.394 -0.225,0.878 m 36.593,1.66 c 0.281,0.043 0.698,0.042 0.926,-0.002 0.227,-0.044 -0.003,-0.079 -0.512,-0.078 -0.509,0.002 -0.696,0.038 -0.414,0.08 m 66.108,4.63 c 0.28,0.042 0.739,0.042 1.019,0 0.28,-0.043 0.051,-0.077 -0.509,-0.077 -0.561,0 -0.79,0.034 -0.51,0.077 m -96.291,6.202 c 1.005,0.555 2.074,1.991 2.554,3.429 0.637,1.909 0.226,2.751 -0.631,1.289 -2.065,-3.524 -4.457,-4.521 -6.85,-2.854 -1.092,0.762 -1.125,-0.288 -0.041,-1.338 1.185,-1.149 3.413,-1.384 4.968,-0.526 m 68.282,3.387 c 0.346,0.357 0.67,0.648 0.721,0.648 0.051,0 -0.19,-0.291 -0.536,-0.648 -0.345,-0.356 -0.67,-0.648 -0.721,-0.648 -0.05,0 0.191,0.292 0.536,0.648 m -15.37,2.963 c 0.656,0.662 1.234,1.204 1.285,1.204 0.051,0 -0.444,-0.542 -1.1,-1.204 -0.656,-0.662 -1.235,-1.203 -1.286,-1.203 -0.051,0 0.445,0.541 1.101,1.203 m -53.34,-0.324 c 2.484,2.499 1.939,8.935 -0.758,8.935 -2.855,0 -4.41,-6.434 -2.172,-8.984 0.836,-0.951 1.953,-0.933 2.93,0.049 m 46.939,2.871 -0.544,0.601 0.602,-0.543 c 0.561,-0.507 0.687,-0.66 0.544,-0.66 -0.032,0 -0.303,0.271 -0.602,0.602 m 4.364,19.085 c 0,0.032 0.271,0.303 0.602,0.602 l 0.601,0.544 -0.543,-0.602 c -0.507,-0.561 -0.66,-0.687 -0.66,-0.544 m -45.825,6.378 c -0.408,2.846 -1.941,4.476 -4.222,4.486 -1.205,0.006 -1.262,-0.563 -0.092,-0.913 0.846,-0.252 2.049,-1.355 2.229,-2.043 0.091,-0.351 0.048,-0.393 -0.297,-0.297 -1.322,0.371 -4.571,0.352 -4.571,-0.026 0,-0.422 1.672,-1.037 4.63,-1.702 2.469,-0.555 2.473,-0.554 2.323,0.495 m 35.023,5.694 c -1.725,6.037 -5.488,11.52 -9.844,14.345 -0.814,0.528 -1.51,0.99 -1.548,1.028 -0.037,0.037 1.034,-0.435 2.382,-1.05 4.335,-1.979 9.799,-3.994 14.771,-5.45 0.411,-0.12 -0.549,-1.388 -1.883,-2.484 -1.906,-1.567 -2.965,-3.598 -3.417,-6.554 l -0.144,-0.946 -0.317,1.111 m 29.367,5.22 c 0.178,0.047 0.469,0.047 0.648,0 0.178,-0.046 0.032,-0.084 -0.324,-0.084 -0.357,0 -0.503,0.038 -0.324,0.084 m 5.282,9.082 c 0.436,0.04 1.102,0.039 1.482,-10e-4 0.379,-0.04 0.023,-0.072 -0.792,-0.071 -0.815,10e-4 -1.125,0.033 -0.69,0.072 m -48.477,2.085 c -0.458,0.186 -0.979,0.385 -1.157,0.442 -0.179,0.057 -0.324,0.23 -0.324,0.384 0,0.211 0.309,0.113 1.25,-0.396 1.732,-0.938 1.803,-1.068 0.231,-0.43 m -47.951,0.586 c 0.127,0.239 2.139,3.761 4.471,7.827 2.333,4.067 4.258,7.481 4.278,7.588 0.019,0.107 0.178,0.28 0.353,0.385 3.161,1.893 5.892,4.177 4.987,4.171 -0.312,-0.002 -5.521,-2.954 -8.468,-4.798 -3.426,-2.144 -3.561,-2.191 -4.065,-1.422 -1.502,2.292 0.66,7.396 6.063,14.31 3.28,4.197 4.164,4.69 5.85,3.26 2.887,-2.45 6.428,-4.863 9.997,-6.814 1.569,-0.857 2.224,-1.308 2.111,-1.454 -0.09,-0.116 -0.953,-1.211 -1.917,-2.433 -0.963,-1.223 -2.842,-3.681 -4.174,-5.463 -3.712,-4.969 -6.391,-7.769 -11.211,-11.721 -0.993,-0.814 -1.805,-1.583 -1.805,-1.709 0,-0.229 -2.499,-1.092 -4.815,-1.663 -0.662,-0.164 -1.357,-0.342 -1.544,-0.398 -0.303,-0.089 -0.315,-0.054 -0.111,0.334 m 10.081,3.245 c 0.102,0.099 0.893,0.706 1.759,1.349 0.866,0.642 1.943,1.511 2.395,1.93 0.788,0.732 0.8,0.737 0.305,0.114 -0.592,-0.744 -1.611,-1.598 -3.07,-2.574 -1.241,-0.828 -1.644,-1.066 -1.389,-0.819 m 86.709,0.193 c 0.328,0.041 0.912,0.042 1.296,0.002 0.384,-0.04 0.115,-0.074 -0.598,-0.074 -0.713,-0.001 -1.027,0.031 -0.698,0.072 m 6.862,5.189 c 0.538,0.037 1.371,0.037 1.852,-10e-4 0.48,-0.038 0.04,-0.069 -0.979,-0.068 -1.018,0 -1.411,0.031 -0.873,0.069 m 2.216,1.293 c 0.331,0.041 0.872,0.041 1.203,0 0.331,-0.041 0.061,-0.075 -0.601,-0.075 -0.662,0 -0.933,0.034 -0.602,0.075 M 71.733,181.238 c -0.29,0.388 -0.572,0.748 -0.626,0.799 -0.25,0.234 -1.462,2.047 -2.002,2.996 -0.329,0.578 -0.697,1.084 -0.817,1.124 -0.133,0.044 -0.202,0.394 -0.177,0.893 0.545,10.892 0.881,13.659 2.171,17.888 0.809,2.653 0.129,2.647 -1.128,-0.01 -2.196,-4.644 -2.998,-12.397 -1.828,-17.675 0.088,-0.393 0.064,-0.41 -0.255,-0.185 -1.125,0.79 -3.923,5.12 -3.923,6.07 0,0.107 -0.093,0.195 -0.208,0.195 -0.142,0 -0.149,0.073 -0.021,0.232 0.102,0.127 0.369,2.065 0.592,4.305 0.224,2.241 0.563,4.983 0.756,6.094 0.618,3.577 -0.662,2.708 -1.747,-1.186 -0.645,-2.314 -0.84,-6.795 -0.352,-8.095 0.268,-0.716 -0.569,0.231 -1.629,1.842 -1.56,2.371 -3.309,7.179 -2.612,7.179 0.44,0 1.214,3.453 1.012,4.512 -0.154,0.804 -0.773,0.571 -1.322,-0.499 -0.529,-1.029 -0.717,-2.604 -0.417,-3.493 l 0.206,-0.613 -0.344,0.443 c -1.036,1.334 -1.736,6.233 -1.326,9.279 0.527,3.905 3.43,13.715 6.385,21.574 0.269,0.713 0.724,1.963 1.013,2.778 0.288,0.815 0.995,2.732 1.57,4.259 0.575,1.528 1.175,3.132 1.333,3.563 0.393,1.069 0.436,1.077 1.912,0.333 5.958,-3 18.729,-7.8 22.139,-8.321 0.104,-0.016 0.273,-0.078 0.375,-0.137 0.102,-0.059 1.143,-0.344 2.315,-0.632 2.422,-0.596 2.406,-0.588 2.506,-1.309 0.491,-3.55 0.644,-5.437 0.735,-9.052 0.059,-2.343 0.223,-6.134 0.364,-8.426 0.427,-6.933 -0.294,-10.248 -3.714,-17.066 -1.33,-2.653 -3.302,-5.851 -2.799,-4.538 0.055,0.143 -0.137,0.386 -0.451,0.571 -1.899,1.122 -2.612,3.65 -3.122,11.062 -0.307,4.467 -1.468,9.23 -2.251,9.23 -0.26,0 -0.341,-0.094 -0.278,-0.324 0.174,-0.636 0.318,-1.704 0.569,-4.232 l 0.255,-2.564 -1.523,-1.601 c -6.753,-7.096 -12.122,-20 -10.974,-26.371 0.319,-1.771 0.31,-1.794 -0.362,-0.892 m 110.86,17.709 c 0,0.032 0.27,0.303 0.601,0.602 l 0.602,0.544 -0.544,-0.602 c -0.507,-0.561 -0.659,-0.687 -0.659,-0.544 m 150.069,14.757 c 0.163,0.601 0.722,1.863 0.794,1.791 0.042,-0.042 -0.136,-0.525 -0.396,-1.073 -0.26,-0.548 -0.439,-0.871 -0.398,-0.718 m -15.578,18.055 c 0.002,0.408 0.04,0.553 0.084,0.322 0.044,-0.23 0.043,-0.564 -0.004,-0.741 -0.046,-0.177 -0.082,0.012 -0.08,0.419 m 0.196,5.926 c 0.001,0.611 0.035,0.839 0.076,0.506 0.042,-0.333 0.041,-0.833 -10e-4,-1.111 -0.043,-0.278 -0.076,-0.006 -0.075,0.605 m -155.385,18.056 c 0,0.356 0.038,0.502 0.085,0.324 0.046,-0.178 0.046,-0.47 0,-0.648 -0.047,-0.179 -0.085,-0.033 -0.085,0.324 M 317.28,257.5 c 0.001,0.611 0.035,0.839 0.076,0.506 0.042,-0.333 0.041,-0.833 -10e-4,-1.111 -0.043,-0.278 -0.076,-0.006 -0.075,0.605 m -156.1,5 c 0.001,1.12 0.031,1.555 0.068,0.965 0.037,-0.589 0.037,-1.506 -10e-4,-2.037 -0.037,-0.531 -0.067,-0.048 -0.067,1.072 m 155.904,0.926 c 0.002,0.407 0.04,0.552 0.084,0.322 0.044,-0.231 0.043,-0.564 -0.004,-0.741 -0.046,-0.177 -0.082,0.012 -0.08,0.419 m -154.634,5.278 c 0,0.356 0.038,0.502 0.085,0.324 0.047,-0.178 0.047,-0.47 0,-0.648 -0.047,-0.179 -0.085,-0.033 -0.085,0.324 m -1.09,4.907 c 0,0.815 0.033,1.125 0.072,0.69 0.039,-0.436 0.039,-1.103 -10e-4,-1.482 -0.04,-0.379 -0.072,-0.023 -0.071,0.792 m 1.279,0 c 0.002,0.408 0.04,0.552 0.085,0.322 0.044,-0.23 0.042,-0.564 -0.004,-0.741 -0.047,-0.177 -0.083,0.012 -0.081,0.419 m 0.182,4.722 c 0,0.357 0.038,0.503 0.084,0.324 0.047,-0.178 0.047,-0.469 0,-0.648 -0.046,-0.178 -0.084,-0.032 -0.084,0.324 m 0.189,5.093 c 0.002,0.407 0.04,0.552 0.084,0.322 0.044,-0.231 0.043,-0.564 -0.004,-0.741 -0.046,-0.177 -0.082,0.012 -0.08,0.419 m -1.471,0.555 c 0.001,0.612 0.035,0.839 0.077,0.506 0.041,-0.332 0.04,-0.832 -0.002,-1.111 -0.042,-0.278 -0.076,-0.006 -0.075,0.605 m 1.66,5.278 c 0,0.459 0.036,0.646 0.08,0.417 0.044,-0.229 0.044,-0.604 0,-0.833 -0.044,-0.23 -0.08,-0.042 -0.08,0.416 m -1.477,2.222 c 0,0.561 0.035,0.79 0.077,0.51 0.043,-0.28 0.043,-0.739 0,-1.019 -0.042,-0.28 -0.077,-0.051 -0.077,0.509 m 1.662,3.704 c 0,0.459 0.036,0.646 0.08,0.417 0.044,-0.229 0.044,-0.604 0,-0.833 -0.044,-0.23 -0.08,-0.042 -0.08,0.416 m -1.477,3.704 c 0,0.56 0.035,0.789 0.077,0.509 0.043,-0.28 0.043,-0.738 0,-1.018 -0.042,-0.28 -0.077,-0.051 -0.077,0.509 m 1.662,2.407 c 0,0.459 0.036,0.646 0.08,0.417 0.044,-0.229 0.044,-0.604 0,-0.833 -0.044,-0.23 -0.08,-0.042 -0.08,0.416 m 0.185,5.926 c 0,0.459 0.036,0.646 0.08,0.417 0.045,-0.229 0.045,-0.604 0,-0.833 -0.044,-0.23 -0.08,-0.042 -0.08,0.416 m 0.19,6.852 c 0,0.56 0.035,0.789 0.078,0.509 0.042,-0.28 0.042,-0.738 0,-1.018 -0.043,-0.28 -0.078,-0.051 -0.078,0.509 m 0.186,7.407 c 0,0.561 0.034,0.79 0.077,0.51 0.042,-0.28 0.042,-0.739 0,-1.019 -0.043,-0.28 -0.077,-0.051 -0.077,0.509 m 0.185,7.593 c 0,0.56 0.034,0.789 0.077,0.509 0.042,-0.28 0.042,-0.738 0,-1.018 -0.043,-0.28 -0.077,-0.051 -0.077,0.509 m 0.19,8.611 c 0.001,0.713 0.035,0.982 0.075,0.598 0.04,-0.384 0.039,-0.968 -0.002,-1.296 -0.041,-0.329 -0.074,-0.015 -0.073,0.698 m 0.187,9.722 c 0,0.764 0.033,1.077 0.073,0.695 0.039,-0.382 0.039,-1.007 0,-1.389 -0.04,-0.382 -0.073,-0.069 -0.073,0.694 m 0.19,12.593 c 0,0.968 0.031,1.363 0.069,0.88 0.038,-0.484 0.038,-1.276 0,-1.76 -0.038,-0.483 -0.069,-0.088 -0.069,0.88" id="path958" style="fill:#ece5dd;fill-opacity:1;fill-rule:evenodd;stroke:none" />
         <path d="m 230.972,34.572 c 0.178,0.047 0.47,0.047 0.648,0 0.179,-0.046 0.033,-0.085 -0.324,-0.085 -0.356,0 -0.502,0.039 -0.324,0.085 m 14.259,0.741 c 0.179,0.046 0.47,0.046 0.649,0 0.178,-0.047 0.032,-0.085 -0.324,-0.085 -0.357,0 -0.503,0.038 -0.325,0.085 m -84.315,9.826 -0.638,0.694 0.694,-0.638 c 0.647,-0.594 0.78,-0.751 0.638,-0.751 -0.031,0 -0.343,0.313 -0.694,0.695 m 34.35,1.944 -0.544,0.602 0.602,-0.544 c 0.561,-0.507 0.687,-0.66 0.544,-0.66 -0.032,0 -0.303,0.271 -0.602,0.602 m 53.345,7.732 c 0.398,0.407 0.765,0.741 0.816,0.741 0.051,0 -0.233,-0.334 -0.631,-0.741 -0.398,-0.408 -0.765,-0.741 -0.816,-0.741 -0.051,0 0.233,0.333 0.631,0.741 m 1.937,1.898 c 0.767,0.818 0.933,0.965 0.933,0.826 0,-0.03 -0.395,-0.426 -0.879,-0.88 l -0.88,-0.826 0.826,0.88 m -82.134,22.963 -0.544,0.602 0.602,-0.544 c 0.331,-0.299 0.602,-0.57 0.602,-0.602 0,-0.143 -0.153,-0.017 -0.66,0.544 m 67.466,65.831 c 0.534,0.037 1.409,0.037 1.944,0 0.535,-0.038 0.097,-0.068 -0.972,-0.068 -1.07,0 -1.507,0.03 -0.972,0.068 m 6.206,0.181 c 0.281,0.043 0.698,0.042 0.926,-0.002 0.228,-0.044 -0.003,-0.079 -0.512,-0.077 -0.509,0.001 -0.696,0.037 -0.414,0.079 m 3.055,0.184 c 0.23,0.044 0.564,0.042 0.741,-0.004 0.177,-0.046 -0.012,-0.083 -0.419,-0.081 -0.407,0.002 -0.552,0.04 -0.322,0.085 m 1.852,0.185 c 0.23,0.044 0.564,0.043 0.741,-0.004 0.177,-0.046 -0.012,-0.082 -0.419,-0.08 -0.408,0.002 -0.552,0.04 -0.322,0.084 m -113.058,8.145 c 0.178,0.046 0.47,0.046 0.648,0 0.179,-0.047 0.033,-0.085 -0.324,-0.085 -0.356,0 -0.502,0.038 -0.324,0.085 m 52.408,4.336 c -0.535,0.312 -0.973,0.609 -0.973,0.662 0,0.102 1.647,-0.813 1.936,-1.076 0.313,-0.287 0.028,-0.164 -0.963,0.414 m -5.188,3.226 c -0.533,0.359 -0.97,0.694 -0.97,0.743 0,0.049 0.459,-0.215 1.019,-0.587 0.89,-0.591 1.151,-0.809 0.969,-0.809 -0.026,0 -0.485,0.294 -1.018,0.653 m -2.312,1.665 c -0.586,0.46 -1.065,0.876 -1.065,0.925 0,0.05 0.5,-0.298 1.111,-0.773 0.984,-0.764 1.226,-0.989 1.065,-0.988 -0.026,0 -0.526,0.376 -1.111,0.836 m -2.516,1.895 -0.695,0.695 0.656,-0.556 c 0.361,-0.305 0.736,-0.617 0.832,-0.694 0.097,-0.077 0.115,-0.139 0.039,-0.139 -0.075,0 -0.449,0.312 -0.832,0.694 m 113.902,6.03 c 0.176,0.141 0.26,0.324 0.185,0.407 -0.075,0.083 -0.035,0.092 0.088,0.022 0.123,-0.071 0.727,0.125 1.342,0.436 0.616,0.31 1.119,0.522 1.119,0.471 0,-0.051 -0.688,-0.431 -1.528,-0.843 -0.84,-0.413 -1.383,-0.635 -1.206,-0.493 m -117.461,1.933 -0.638,0.694 0.694,-0.638 c 0.646,-0.594 0.78,-0.75 0.638,-0.75 -0.031,0 -0.343,0.312 -0.694,0.694 m 121.121,-0.056 c 0,0.051 0.25,0.222 0.555,0.38 0.306,0.158 0.556,0.246 0.556,0.195 0,-0.051 -0.25,-0.222 -0.556,-0.38 -0.305,-0.158 -0.555,-0.246 -0.555,-0.195 m -189.269,5.612 -0.639,0.694 0.695,-0.638 c 0.646,-0.594 0.78,-0.751 0.638,-0.751 -0.031,0 -0.343,0.313 -0.694,0.695 m 199.399,0.991 c 0.252,0.312 1.907,1.53 1.907,1.403 0,-0.045 -0.479,-0.441 -1.065,-0.88 -0.586,-0.44 -0.964,-0.675 -0.842,-0.523 m -135.917,0.272 c -0.718,0.389 -0.637,0.524 0.092,0.153 0.699,-0.355 0.822,-0.447 0.587,-0.437 -0.093,0.004 -0.399,0.132 -0.679,0.284 m 138.379,1.619 c 0,0.045 0.306,0.316 0.68,0.601 0.374,0.286 0.622,0.424 0.55,0.309 -0.146,-0.237 -1.23,-1.039 -1.23,-0.91 m -234.572,2.442 c 10e-4,0.611 0.036,0.838 0.077,0.506 0.041,-0.333 0.04,-0.833 -0.002,-1.112 -0.042,-0.278 -0.076,-0.005 -0.075,0.606 m 78.347,8.384 c -1.031,0.991 -2.489,2.474 -3.241,3.297 -1.31,1.434 -1.298,1.426 0.269,-0.185 0.9,-0.925 2.4,-2.407 3.333,-3.294 0.934,-0.887 1.656,-1.614 1.605,-1.615 -0.051,-0.002 -0.936,0.807 -1.966,1.797 m -5.451,5.736 -0.638,0.694 0.694,-0.638 c 0.646,-0.594 0.78,-0.75 0.638,-0.75 -0.031,0 -0.343,0.312 -0.694,0.694 m -1.206,1.389 -0.543,0.602 0.601,-0.544 c 0.331,-0.299 0.602,-0.57 0.602,-0.602 0,-0.143 -0.153,-0.017 -0.66,0.544 m 43.994,4.305 c 0.345,0.357 0.669,0.649 0.72,0.649 0.051,0 -0.19,-0.292 -0.535,-0.649 -0.346,-0.356 -0.67,-0.648 -0.721,-0.648 -0.051,0 0.19,0.292 0.536,0.648 m -48.914,1.897 c -0.694,0.838 -0.741,0.937 -0.511,1.079 0.141,0.087 0.174,0.059 0.09,-0.078 -0.075,-0.12 -0.006,-0.264 0.155,-0.326 0.159,-0.061 0.246,-0.18 0.193,-0.265 -0.052,-0.085 0.052,-0.236 0.231,-0.337 0.18,-0.1 0.278,-0.231 0.219,-0.29 -0.059,-0.059 -0.229,0.039 -0.377,0.217 m 178.983,7.178 c 0,1.12 0.031,1.554 0.068,0.965 0.037,-0.589 0.036,-1.506 -0.001,-2.037 -0.037,-0.531 -0.068,-0.049 -0.067,1.072 m -1.138,9.537 c 0,0.356 0.039,0.502 0.085,0.324 0.047,-0.179 0.047,-0.47 0,-0.648 -0.046,-0.179 -0.085,-0.033 -0.085,0.324 m 0.193,2.963 c 0,0.458 0.036,0.645 0.08,0.416 0.044,-0.229 0.044,-0.604 0,-0.833 -0.044,-0.229 -0.08,-0.042 -0.08,0.417 m -191.726,2.61 c -0.213,0.417 -0.347,0.799 -0.299,0.847 0.049,0.049 0.144,-0.084 0.211,-0.295 0.067,-0.212 0.214,-0.385 0.326,-0.385 0.111,0 0.15,-0.052 0.086,-0.117 -0.064,-0.064 -0.033,-0.272 0.068,-0.463 0.102,-0.19 0.143,-0.346 0.09,-0.346 -0.052,0 -0.269,0.342 -0.482,0.759 m 191.916,0.908 c 0,0.56 0.035,0.789 0.077,0.509 0.043,-0.28 0.043,-0.738 0,-1.018 -0.042,-0.28 -0.077,-0.051 -0.077,0.509 m 0.192,4.63 c 0,0.764 0.033,1.076 0.073,0.694 0.04,-0.382 0.04,-1.007 0,-1.389 -0.04,-0.382 -0.073,-0.069 -0.073,0.695 m 0.2,8.333 c 0,1.884 0.028,2.655 0.061,1.713 0.034,-0.942 0.034,-2.484 0,-3.426 -0.033,-0.942 -0.061,-0.171 -0.061,1.713 M 65.88,246.773 c -0.718,0.389 -0.637,0.524 0.092,0.153 0.698,-0.355 0.822,-0.447 0.587,-0.437 -0.094,0.004 -0.399,0.132 -0.679,0.284 m -2.223,1.205 c -0.244,0.142 -0.316,0.402 -0.291,1.059 l 0.032,0.87 0.073,-0.822 c 0.042,-0.483 0.201,-0.919 0.384,-1.058 0.373,-0.284 0.256,-0.313 -0.198,-0.049 m 196.484,1.227 c 0.23,0.044 0.564,0.043 0.741,-0.004 0.177,-0.046 -0.012,-0.082 -0.419,-0.08 -0.407,0.002 -0.552,0.04 -0.322,0.084 m 2.128,-0.003 c 0.178,0.046 0.469,0.046 0.648,0 0.178,-0.047 0.032,-0.085 -0.324,-0.085 -0.357,0 -0.503,0.038 -0.324,0.085 m 55.03,3.946 c 0,1.884 0.028,2.655 0.061,1.713 0.034,-0.942 0.034,-2.484 0,-3.426 -0.033,-0.942 -0.061,-0.171 -0.061,1.713 m -253.73,-0.926 c 0,0.459 0.036,0.646 0.08,0.417 0.044,-0.229 0.044,-0.604 0,-0.833 -0.044,-0.23 -0.08,-0.042 -0.08,0.416 m 0.181,2.871 c 0.002,0.407 0.04,0.552 0.085,0.322 0.044,-0.231 0.042,-0.564 -0.004,-0.741 -0.046,-0.177 -0.083,0.011 -0.081,0.419 m 0.182,2.314 c 0,0.357 0.038,0.503 0.085,0.324 0.046,-0.178 0.046,-0.469 0,-0.648 -0.047,-0.178 -0.085,-0.032 -0.085,0.324 m 0.193,2.037 c 0,0.459 0.036,0.646 0.08,0.417 0.044,-0.229 0.044,-0.604 0,-0.833 -0.044,-0.229 -0.08,-0.042 -0.08,0.416 m 252.974,2.037 c 0,0.764 0.033,1.077 0.073,0.695 0.04,-0.382 0.04,-1.007 0,-1.389 -0.04,-0.382 -0.073,-0.069 -0.073,0.694 m -252.789,0 c 0,0.459 0.036,0.646 0.08,0.417 0.044,-0.229 0.044,-0.604 0,-0.833 -0.044,-0.229 -0.08,-0.042 -0.08,0.416 m 0.181,1.945 c 0.002,0.407 0.04,0.552 0.084,0.322 0.045,-0.231 0.043,-0.564 -0.003,-0.741 -0.047,-0.177 -0.083,0.012 -0.081,0.419 m 0.182,1.759 c 0,0.357 0.038,0.503 0.084,0.324 0.047,-0.178 0.047,-0.47 0,-0.648 -0.046,-0.178 -0.084,-0.032 -0.084,0.324 m 252.234,0.926 c 0,0.56 0.035,0.789 0.077,0.509 0.043,-0.28 0.043,-0.738 0,-1.018 -0.042,-0.28 -0.077,-0.051 -0.077,0.509 m -0.19,3.519 c 0,0.458 0.036,0.645 0.08,0.416 0.044,-0.229 0.044,-0.604 0,-0.833 -0.044,-0.229 -0.08,-0.042 -0.08,0.417 m -0.189,3.055 c 0.002,0.408 0.04,0.552 0.084,0.322 0.045,-0.23 0.043,-0.564 -0.003,-0.741 -0.047,-0.177 -0.083,0.012 -0.081,0.419 m -0.189,2.685 c 0,0.357 0.038,0.503 0.085,0.324 0.047,-0.178 0.047,-0.469 0,-0.648 -0.047,-0.178 -0.085,-0.032 -0.085,0.324 m -155.466,28.249 c -0.581,1.167 -1.016,2.122 -0.966,2.122 0.123,0 2.169,-4.097 2.087,-4.179 -0.035,-0.036 -0.54,0.89 -1.121,2.057 m -2.169,4.159 c -0.208,0.407 -0.337,0.741 -0.286,0.741 0.051,0 0.263,-0.334 0.471,-0.741 0.208,-0.408 0.336,-0.741 0.285,-0.741 -0.051,0 -0.262,0.333 -0.47,0.741 m -11.482,19.444 c -0.217,0.306 -0.354,0.556 -0.303,0.556 0.051,0 0.271,-0.25 0.488,-0.556 0.218,-0.305 0.354,-0.555 0.303,-0.555 -0.051,0 -0.27,0.25 -0.488,0.555 m -67.95,0.463 c 0,0.102 0.119,0.394 0.265,0.648 0.146,0.255 0.265,0.38 0.265,0.278 0,-0.102 -0.119,-0.393 -0.265,-0.648 -0.146,-0.255 -0.265,-0.38 -0.265,-0.278 m 65.913,2.5 c -0.217,0.306 -0.354,0.556 -0.303,0.556 0.051,0 0.271,-0.25 0.488,-0.556 0.218,-0.305 0.354,-0.555 0.303,-0.555 -0.051,0 -0.27,0.25 -0.488,0.555 m -64.629,0.253 c 0,0.201 0.92,1.969 1.024,1.969 0.051,0 -0.127,-0.437 -0.395,-0.972 -0.517,-1.028 -0.629,-1.206 -0.629,-0.997 m 63.703,1.043 c -0.217,0.306 -0.354,0.556 -0.303,0.556 0.051,0 0.271,-0.25 0.488,-0.556 0.218,-0.305 0.354,-0.555 0.303,-0.555 -0.05,0 -0.27,0.25 -0.488,0.555 m -1.31,1.806 c -0.439,0.586 -0.675,0.964 -0.522,0.842 0.311,-0.252 1.53,-1.907 1.403,-1.907 -0.045,0 -0.441,0.479 -0.881,1.065 m -60.634,0.602 c 0.258,0.509 0.511,0.926 0.562,0.926 0.051,0 -0.119,-0.417 -0.377,-0.926 -0.258,-0.509 -0.511,-0.926 -0.562,-0.926 -0.051,0 0.119,0.417 0.377,0.926 m 0.995,1.759 c 0.1,0.204 0.317,0.537 0.483,0.741 l 0.302,0.37 -0.182,-0.37 c -0.1,-0.204 -0.318,-0.537 -0.484,-0.741 l -0.301,-0.37 0.182,0.37 m 56.329,1.898 c -0.634,0.79 -0.845,1.102 -0.471,0.695 0.854,-0.928 1.816,-2.13 1.706,-2.13 -0.046,0 -0.602,0.646 -1.235,1.435 m -55.293,-0.15 c 0.154,0.299 0.365,0.595 0.468,0.659 0.103,0.063 0.012,-0.181 -0.202,-0.544 -0.469,-0.795 -0.661,-0.878 -0.266,-0.115 m 53.422,2.373 -0.638,0.694 0.694,-0.638 c 0.646,-0.594 0.78,-0.751 0.638,-0.751 -0.031,0 -0.343,0.313 -0.694,0.695 m -1.576,1.759 -0.544,0.602 0.602,-0.544 c 0.331,-0.299 0.602,-0.57 0.602,-0.602 0,-0.143 -0.153,-0.017 -0.66,0.544 m -48.974,0.133 c 0.216,0.303 0.486,0.608 0.602,0.68 0.116,0.071 -0.023,-0.176 -0.308,-0.55 -0.619,-0.812 -0.853,-0.915 -0.294,-0.13 m 46.671,2.32 c -0.45,0.459 -0.776,0.834 -0.725,0.834 0.051,0 0.46,-0.375 0.91,-0.834 0.45,-0.458 0.776,-0.833 0.725,-0.833 -0.051,0 -0.46,0.375 -0.91,0.833 m -2.136,1.991 -1.105,1.158 1.158,-1.106 c 0.636,-0.608 1.157,-1.128 1.157,-1.157 0,-0.137 -0.183,0.03 -1.21,1.105 m -39.994,0.88 c 1.015,1.018 1.887,1.852 1.938,1.852 0.051,0 -0.738,-0.834 -1.753,-1.852 C 90.93,345.833 90.058,345 90.007,345 c -0.051,0 0.738,0.833 1.752,1.852 m 37.503,1.223 c -1.627,1.371 -1.823,1.621 -0.433,0.551 1.018,-0.785 1.914,-1.611 1.709,-1.576 -0.041,0.006 -0.616,0.468 -1.276,1.025 m -2.318,1.849 -0.555,0.477 0.602,-0.398 c 0.331,-0.219 0.602,-0.435 0.602,-0.479 0,-0.138 -0.079,-0.09 -0.649,0.4 m -5.092,3.039 c -0.764,0.397 -1.324,0.726 -1.246,0.732 0.197,0.012 2.727,-1.27 2.727,-1.383 0,-0.125 0.061,-0.151 -1.481,0.651 M 99.259,352.49 c 0,0.051 0.25,0.222 0.556,0.38 0.305,0.158 0.555,0.246 0.555,0.195 0,-0.051 -0.25,-0.222 -0.555,-0.38 -0.306,-0.158 -0.556,-0.245 -0.556,-0.195 m 9.861,3.193 c 0.179,0.047 0.47,0.047 0.649,0 0.178,-0.046 0.032,-0.084 -0.325,-0.084 -0.356,0 -0.502,0.038 -0.324,0.084 m 4.169,0.004 c 0.231,0.044 0.564,0.042 0.741,-0.004 0.177,-0.047 -0.011,-0.083 -0.419,-0.081 -0.407,0.002 -0.552,0.04 -0.322,0.085 m 137.498,16.478 c 0.178,0.046 0.47,0.046 0.648,0 0.178,-0.047 0.033,-0.085 -0.324,-0.085 -0.356,0 -0.502,0.038 -0.324,0.085 m -1.667,0.185 c 0.179,0.046 0.47,0.046 0.649,0 0.178,-0.047 0.032,-0.085 -0.325,-0.085 -0.356,0 -0.502,0.038 -0.324,0.085 m -5.37,0.555 c 0.178,0.047 0.47,0.047 0.648,0 0.178,-0.046 0.033,-0.084 -0.324,-0.084 -0.356,0 -0.502,0.038 -0.324,0.084 m -1.942,0.189 c 0.23,0.044 0.563,0.043 0.74,-0.004 0.178,-0.046 -0.011,-0.082 -0.418,-0.08 -0.408,0.002 -0.553,0.04 -0.322,0.084 m -56.577,0.182 c 0.179,0.046 0.47,0.046 0.649,0 0.178,-0.047 0.032,-0.085 -0.324,-0.085 -0.357,0 -0.503,0.038 -0.325,0.085 m 54.354,0.003 c 0.231,0.044 0.564,0.043 0.741,-0.004 0.177,-0.046 -0.011,-0.082 -0.419,-0.08 -0.407,0.002 -0.552,0.04 -0.322,0.084 m -2.407,0.185 c 0.23,0.045 0.564,0.043 0.741,-0.003 0.177,-0.047 -0.012,-0.083 -0.419,-0.081 -0.407,0.002 -0.552,0.04 -0.322,0.084 m -47.78,0.185 c 0.229,0.044 0.604,0.044 0.833,0 0.23,-0.044 0.042,-0.08 -0.416,-0.08 -0.459,0 -0.646,0.036 -0.417,0.08 m 45.185,0 c 0.229,0.044 0.605,0.044 0.834,0 0.229,-0.044 0.041,-0.08 -0.417,-0.08 -0.458,0 -0.646,0.036 -0.417,0.08 m -42.592,0.185 c 0.229,0.045 0.604,0.045 0.833,0 0.229,-0.044 0.042,-0.08 -0.417,-0.08 -0.458,0 -0.645,0.036 -0.416,0.08 m 39.725,0.003 c 0.281,0.042 0.698,0.041 0.925,-0.003 0.228,-0.044 -0.002,-0.079 -0.511,-0.077 -0.51,10e-4 -0.696,0.037 -0.414,0.08 m -36.855,0.185 c 0.28,0.042 0.739,0.042 1.019,0 0.28,-0.043 0.051,-0.078 -0.51,-0.078 -0.56,0 -0.789,0.035 -0.509,0.078 m 33.615,0.001 c 0.332,0.041 0.832,0.04 1.111,-0.002 0.278,-0.042 0.006,-0.076 -0.606,-0.075 -0.611,10e-4 -0.838,0.036 -0.505,0.077 m -27.874,0.179 c 0.178,0.046 0.47,0.046 0.648,0 0.178,-0.047 0.032,-0.085 -0.324,-0.085 -0.357,0 -0.502,0.038 -0.324,0.085 m 23.799,0.006 c 0.333,0.041 0.833,0.041 1.112,-0.002 0.278,-0.042 0.006,-0.076 -0.606,-0.075 -0.611,0.001 -0.838,0.036 -0.506,0.077 m -20.274,0.188 c 0.589,0.037 1.506,0.037 2.037,0 0.531,-0.038 0.049,-0.068 -1.071,-0.067 -1.121,0 -1.555,0.03 -0.966,0.067 m 6.475,10e-4 c 0.687,0.035 1.812,0.035 2.5,0 0.687,-0.036 0.125,-0.065 -1.25,-0.065 -1.375,0 -1.938,0.029 -1.25,0.065 m 7.037,-10e-4 c 0.586,0.037 1.544,0.037 2.13,0 0.585,-0.037 0.106,-0.067 -1.065,-0.067 -1.172,0 -1.651,0.03 -1.065,0.067" id="path960" style="fill:#a06c34;fill-rule:evenodd;stroke:none" />
      </g>
   </g>
</svg>
