<?xml version="1.0" encoding="UTF-8" standalone="no"?>
<svg xmlns:dc="http://purl.org/dc/elements/1.1/" xmlns:cc="http://creativecommons.org/ns#" xmlns:rdf="http://www.w3.org/1999/02/22-rdf-syntax-ns#" xmlns:svg="http://www.w3.org/2000/svg" xmlns="http://www.w3.org/2000/svg" viewBox="0 0 252.96893 272.87441" height="272.87442" width="252.96892" version="1.1" id="svg">
   <metadata id="metadata13">
      <rdf:RDF>
         <cc:Work rdf:about="">
            <dc:format>image/svg+xml</dc:format>
            <dc:type rdf:resource="http://purl.org/dc/dcmitype/StillImage" />
            <dc:title></dc:title>
         </cc:Work>
      </rdf:RDF>
   </metadata>
   <defs id="defs11" />
   <g transform="translate(212.7714,-264.90377)" style="display:inline" id="layer3">
      <g transform="translate(-286.1554,191.33477)" id="svgg">
         <path style="fill:#757575;fill-opacity:1;fill-rule:evenodd;stroke:none" id="path0-15" d="m 245.093,78.636 c -6.361,0.552 -13.175,4.345 -15.604,8.685 -0.164,0.294 -0.268,0.282 -1.393,-0.169 -7.307,-2.923 -15.603,3.05 -14.13,10.173 0.633,3.061 0.443,3.502 -2.07,4.804 -5.817,3.014 -7.213,11.614 -2.828,17.422 0.4,0.529 0.69,1.014 0.644,1.076 -0.045,0.063 -0.042,0.087 0.008,0.054 0.05,-0.033 0.529,0.346 1.065,0.842 7.542,6.975 23.278,8.15 31.797,2.374 1.802,-1.222 3.046,-1.767 3.867,-1.696 0.135,0.012 0.723,0.477 1.308,1.035 1.497,1.427 2.42,1.791 4.845,1.906 2.542,0.12 7.31,-0.634 9.624,-1.523 0.236,-0.09 0.274,0.378 0.274,3.355 v 3.46 l 1.756,0.481 1.756,0.481 -0.063,2.126 c -0.034,1.169 -0.204,5.751 -0.377,10.182 -0.173,4.43 -0.31,8.067 -0.304,8.081 0.008,0.022 4.796,-0.452 4.841,-0.479 0.009,-0.005 0.423,-1.926 0.922,-4.269 0.944,-4.44 1.029,-4.631 1.771,-3.959 0.294,0.265 0.476,0.273 1.576,0.065 4.948,-0.933 7.474,1.121 7.474,6.078 0,5.624 -3.745,10.247 -9.322,11.509 -1.218,0.276 -1.331,0.341 -1.385,0.805 -0.182,1.565 5.373,-0.344 7.867,-2.703 1.131,-1.069 2.84,-3.363 2.84,-3.811 0,-0.113 0.083,-0.206 0.185,-0.206 0.102,0 0.17,-0.063 0.152,-0.139 -0.018,-0.076 0.158,-0.745 0.39,-1.486 1.248,-3.978 0.643,-7.777 -1.593,-10.015 l -1.177,-1.178 3.365,-6.508 c 3.58,-6.923 4.186,-8.01 6.854,-12.297 2.07,-3.326 2.822,-4.91 3.313,-6.979 1.537,-6.47 -1.447,-13.307 -7.301,-16.725 -2.382,-1.39 -3.427,-2.549 -4.275,-4.737 -2.369,-6.117 -8.74,-9.203 -13.608,-6.592 -3.654,1.959 -3.984,1.882 -6.27,-1.456 -3.495,-5.103 -10.758,-8.592 -16.794,-8.067 m 21.654,17.442 c 2.109,0.987 4.549,3.921 4.549,5.469 0,0.357 0.029,0.36 1.267,0.125 3.203,-0.607 6.164,1.598 6.711,4.999 0.429,2.661 -1.109,8.039 -2.199,7.693 -0.607,-0.193 -0.6,-0.521 0.054,-2.539 1.379,-4.258 0.908,-6.824 -1.513,-8.243 -1.084,-0.635 -3.073,-0.724 -4.097,-0.182 -0.932,0.492 -1.275,0.277 -1.528,-0.955 -0.933,-4.549 -5.439,-6.88 -9.466,-4.897 -1.58,0.778 -2.637,0.305 -1.611,-0.721 1.493,-1.493 5.437,-1.87 7.833,-0.749 m -32.348,0.068 c 2.398,0.893 4.547,3.636 2.991,3.817 -0.374,0.044 -0.623,-0.121 -1.141,-0.753 -3.272,-3.994 -9.232,-1.959 -9.545,3.259 -0.102,1.704 -0.208,1.794 -1.601,1.355 -5.557,-1.752 -8.744,5.205 -3.691,8.057 0.873,0.493 1.008,0.641 0.959,1.059 -0.122,1.056 -1.978,0.479 -3.299,-1.026 -3.575,-4.072 -1.015,-9.78 4.388,-9.783 l 1.701,-0.001 0.119,-0.633 c 0.837,-4.464 4.976,-6.892 9.119,-5.351 m -10.14,33.607 c -1.239,0.239 -2.447,0.685 -3.353,1.235 -1.821,1.106 -1.832,1.116 -1.832,1.649 0,0.712 0.637,0.681 1.685,-0.082 1.428,-1.039 2.955,-1.495 5.248,-1.565 2.219,-0.068 2.613,-0.25 2.145,-0.99 -0.179,-0.283 -2.836,-0.452 -3.893,-0.247 m 18.797,0.792 c -1.29,0.155 -2.534,0.531 -2.729,0.824 -0.492,0.741 0.239,1.113 1.449,0.738 3.16,-0.98 7.459,0.071 10.321,2.523 1.609,1.377 2.652,0.635 1.09,-0.776 -2.795,-2.525 -6.522,-3.743 -10.131,-3.309 m -13.68,4.787 c -0.05,0.08 -0.847,2.768 -1.772,5.972 -0.925,3.204 -1.889,6.523 -2.143,7.374 -0.95,3.19 -0.193,6.362 1.398,5.857 0.483,-0.154 0.458,-0.49 -0.1,-1.312 -0.806,-1.189 -0.694,-1.866 1.675,-10.094 1.674,-5.817 2.09,-7.48 1.922,-7.684 -0.234,-0.281 -0.834,-0.351 -0.98,-0.113 m -85.302,3.113 c -1.273,0.252 -3.454,0.658 -4.846,0.903 -3.929,0.69 -5.221,1.193 -5.265,2.05 -0.011,0.198 -0.032,1.424 -0.047,2.722 l -0.027,2.361 -5.88,0.007 c -8.719,0.01 -9.751,0.253 -9.95,2.352 -0.225,2.374 -0.163,2.271 -1.36,2.254 -0.578,-0.009 -1.343,-0.089 -1.699,-0.179 -0.356,-0.09 -1.64,-0.216 -2.851,-0.281 l -2.204,-0.118 -1.368,-1.442 c -2.211,-2.33 -1.898,-2.276 -16.955,-2.89 l -3.099,-0.126 -1.172,0.577 c -1.072,0.528 -2.373,1.7 -3.759,3.387 -1.582,1.925 -4.159,9.126 -4.631,12.941 -0.044,0.356 -0.169,1.356 -0.278,2.222 -0.54,4.304 -0.188,11.663 0.737,15.417 0.094,0.382 0.128,0.694 0.075,0.694 -0.053,0 -0.008,0.107 0.1,0.236 0.108,0.13 0.23,0.443 0.272,0.695 0.042,0.252 0.137,0.598 0.211,0.768 0.075,0.17 0.158,0.42 0.186,0.555 0.18,0.881 1.674,3.898 2.391,4.831 0.373,0.485 0.678,0.919 0.678,0.964 0,0.231 1.079,1.108 2.005,1.631 l 1.047,0.591 4.442,0.223 c 3.141,0.157 4.512,0.165 4.679,0.026 0.159,-0.132 1.456,-0.167 3.894,-0.108 l 3.656,0.089 1.193,-1.037 c 5.554,-4.83 7.824,-11.868 8.13,-25.204 0.118,-5.166 0.129,-5.279 0.508,-5.333 0.812,-0.117 0.873,0.245 0.862,5.107 -0.025,10.667 -1.51,17.186 -5.149,22.606 -0.885,1.318 -0.633,2.028 0.393,1.11 0.468,-0.419 0.708,-0.43 1.089,-0.049 0.232,0.232 0.802,0.303 2.744,0.343 1.549,0.031 2.963,0.171 3.841,0.381 3.498,0.833 14.056,-0.755 15.476,-2.329 1.192,-1.322 -1.513,-10.597 -5.288,-18.126 -2.051,-4.093 -2.49,-6.374 -1.763,-9.173 0.898,-3.456 2.545,-3.076 6.418,1.481 3.932,4.628 5.038,5.484 12.859,9.964 8.871,5.08 7.191,3.766 17.283,13.529 l 7.3,7.063 0.941,-0.042 c 1.952,-0.087 3.127,-0.884 4.211,-2.857 0.271,-0.494 0.463,-0.898 0.427,-0.898 -0.037,0 0.053,-0.403 0.199,-0.896 0.244,-0.819 0.931,-5.004 1.115,-6.789 0.042,-0.407 0.168,-1.407 0.28,-2.222 0.112,-0.815 0.237,-1.857 0.278,-2.315 0.041,-0.458 0.155,-1.708 0.254,-2.778 0.484,-5.257 0.475,-5.097 0.651,-11.481 l 0.145,-5.278 -2.097,-2.037 c -1.153,-1.12 -2.073,-2.12 -2.044,-2.222 0.029,-0.102 -0.012,-0.122 -0.09,-0.044 -0.17,0.171 -4.428,-3.951 -4.354,-4.215 0.028,-0.102 -0.013,-0.121 -0.093,-0.041 -0.079,0.079 -0.745,-0.453 -1.479,-1.182 l -1.335,-1.326 -4.413,0.035 c -3.545,0.029 -4.472,0.088 -4.708,0.302 -0.185,0.168 -0.693,0.267 -1.361,0.267 h -1.067 l 0.036,-1.435 c 0.077,-3.17 0.033,-3.56 -0.42,-3.733 -0.229,-0.087 -0.75,-0.306 -1.158,-0.488 -0.407,-0.181 -0.784,-0.336 -0.837,-0.346 -0.417,-0.072 -3.7,-1.682 -3.7,-1.814 0,-0.093 -0.083,-0.117 -0.185,-0.054 -0.102,0.063 -0.185,0.042 -0.185,-0.047 0,-0.307 -1.583,-0.205 -3.889,0.251 m 77.164,-0.035 c -1.622,1.504 0.06,4.1 2.107,3.252 0.675,-0.28 1.099,-1.031 1.099,-1.945 0,-1.532 -2.058,-2.371 -3.206,-1.307 m 20.871,0.652 c -1.879,0.8 -1.359,3.716 0.663,3.716 1.291,0 2.043,-0.745 2.043,-2.025 0,-1.178 -1.585,-2.169 -2.706,-1.691 m -98.156,2.944 c 0.065,0.696 0.168,1.517 0.23,1.825 l 0.112,0.559 -2.472,0.123 c -1.359,0.067 -3.312,0.173 -4.34,0.235 l -1.869,0.113 -0.122,-1.442 c -0.067,-0.794 -0.086,-1.479 -0.043,-1.522 0.111,-0.111 6.906,-1.111 7.719,-1.136 l 0.668,-0.02 0.117,1.265 m -55.842,8.216 c 0.366,0.366 0.256,0.733 -0.631,2.093 -3.752,5.749 -5.499,13.258 -4.667,20.053 0.356,2.912 0.331,3.27 -0.236,3.336 -1.552,0.18 -1.974,-7.725 -0.722,-13.523 1.25,-5.79 5.088,-13.127 6.256,-11.959 m 72.601,12.058 c 0.296,0.357 0.313,8.766 0.019,9.121 -0.272,0.327 -0.624,0.341 -0.874,0.034 -0.374,-0.457 -0.504,-8.724 -0.144,-9.085 0.376,-0.375 0.725,-0.4 0.999,-0.07 m 81.788,0.323 c -3.142,1.279 -6.823,1.556 -9.964,0.749 -1.73,-0.444 -2.166,-0.37 -2.166,0.367 0,0.438 1.771,1.005 4.033,1.291 4.183,0.529 10.798,-1.189 10.039,-2.607 -0.245,-0.458 -0.353,-0.447 -1.942,0.2 m -26.175,2.166 c -0.155,0.296 0.068,9.642 0.243,10.162 0.038,0.115 0.597,0.304 1.242,0.42 1.656,0.298 13.057,2.071 13.949,2.169 0.408,0.045 2.11,0.25 3.782,0.456 11.949,1.471 16.138,1.2 21.319,-1.379 2.514,-1.252 4.6,-2.94 4.371,-3.536 -0.23,-0.599 -0.666,-0.493 -1.823,0.445 -6.018,4.878 -12.074,5.148 -34.964,1.562 -2.291,-0.359 -4.729,-0.74 -5.416,-0.846 l -1.25,-0.193 -0.014,-1.227 c -0.052,-4.466 -0.29,-8.017 -0.548,-8.18 -0.411,-0.26 -0.703,-0.212 -0.891,0.147 M 83.57,179.152 c 0.424,0.424 1.349,4.16 1.12,4.524 -0.362,0.579 -0.97,0.485 -1.241,-0.19 -1.207,-3.011 -1.135,-5.59 0.121,-4.334 m 83.652,5.646 c 0,1.916 1.688,3.793 3.748,4.166 1.338,0.243 1.285,1.406 -0.065,1.406 -1.703,0 -4.07,-1.841 -4.684,-3.645 -0.401,-1.176 -0.39,-2.394 0.024,-2.626 0.485,-0.271 0.977,0.081 0.977,0.699 m 12.346,17.918 c -0.292,0.292 -0.088,0.99 0.406,1.391 0.291,0.236 1.315,1.138 2.274,2.004 1.872,1.688 35.559,31.874 36.178,32.417 0.357,0.314 0.585,0.245 6.574,-1.982 3.412,-1.268 16.87,-6.269 29.907,-11.111 22.768,-8.458 24.259,-9.053 24.047,-9.605 -0.209,-0.546 -1.29,-0.181 -19.266,6.505 -10.268,3.819 -23.619,8.777 -29.668,11.019 l -10.998,4.076 -0.576,-0.537 c -0.316,-0.296 -6.617,-5.936 -14.002,-12.534 -7.384,-6.597 -13.925,-12.475 -14.537,-13.061 -1.128,-1.083 -2.078,-1.949 -4.074,-3.719 -0.611,-0.541 -1.402,-1.256 -1.759,-1.589 -3.136,-2.925 -4.132,-3.648 -4.506,-3.274 m -19.757,18.862 c -0.315,0.381 -1.273,-1.503 10.963,21.57 5.644,10.644 10.425,19.748 10.624,20.231 0.199,0.483 0.429,0.879 0.511,0.88 0.082,0 0.098,0.084 0.035,0.185 -0.063,0.102 -0.042,0.186 0.046,0.186 0.089,0 0.448,0.604 0.798,1.342 0.351,0.739 0.701,1.371 0.778,1.405 0.077,0.034 0.093,0.138 0.035,0.231 -0.057,0.094 -0.032,0.17 0.056,0.17 0.088,0 0.447,0.604 0.798,1.342 0.351,0.739 0.687,1.385 0.747,1.436 0.179,0.15 3.217,6.017 3.124,6.031 -0.047,0.008 0.051,0.149 0.217,0.315 0.165,0.166 2.105,3.709 4.309,7.873 2.204,4.165 4.113,7.717 4.243,7.895 0.26,0.354 -2.013,0.512 61.331,-4.249 12.833,-0.965 25,-1.878 27.037,-2.03 4.339,-0.323 4.537,-0.359 4.537,-0.816 0,-0.76 0.158,-0.768 -25.926,1.197 -48.237,3.633 -66.116,4.951 -66.175,4.877 -0.06,-0.077 -1.12,-2.077 -22.712,-42.853 -15.527,-29.322 -14.485,-27.392 -14.834,-27.459 -0.162,-0.031 -0.406,0.077 -0.542,0.241" />
         <path style="fill:#757575;fill-opacity:1;fill-rule:evenodd;stroke:none" id="path1-9" d="m 217.636,129.074 c 0,0.357 0.038,0.502 0.084,0.324 0.047,-0.178 0.047,-0.47 0,-0.648 -0.046,-0.178 -0.084,-0.032 -0.084,0.324 m -0.182,8.241 c 0.002,0.407 0.04,0.552 0.084,0.322 0.045,-0.231 0.043,-0.564 -0.003,-0.741 -0.047,-0.177 -0.083,0.011 -0.081,0.419 M 125,140.855 c -5.678,0.675 -7.107,1.231 -8.404,3.271 -1.401,2.201 -2.099,6.393 -1.139,6.831 0.727,0.331 0.955,-0.022 1.094,-1.691 0.438,-5.249 1.674,-6.164 9.494,-7.03 5.131,-0.567 5.322,-0.616 5.221,-1.335 -0.087,-0.612 -1.42,-0.622 -6.266,-0.046 m 92.275,5.164 c 0.002,0.509 0.038,0.695 0.08,0.414 0.043,-0.282 0.042,-0.699 -0.002,-0.926 -0.044,-0.228 -0.079,0.002 -0.078,0.512 m -104.613,14.308 c -0.144,0.094 -0.24,1.951 -0.31,5.969 -0.219,12.641 -2.3,19.087 -7.827,24.238 l -1.467,1.367 -3.575,-0.132 c -3.839,-0.142 -4.113,-0.092 -4.113,0.75 0,0.574 0.101,0.589 4.5,0.695 l 3.667,0.088 1.08,-0.899 c 0.594,-0.495 1.391,-1.278 1.771,-1.742 0.39,-0.475 0.782,-0.79 0.901,-0.722 0.116,0.066 0.156,0.059 0.089,-0.016 -0.067,-0.074 0.426,-0.942 1.096,-1.927 3.622,-5.33 4.978,-10.971 5.174,-21.523 0.096,-5.167 0.078,-5.684 -0.211,-5.972 -0.348,-0.349 -0.467,-0.375 -0.775,-0.174 m 47.051,2.131 c -0.05,0.129 -0.068,2.191 -0.041,4.583 l 0.05,4.348 h 0.556 0.555 l 0.053,-4.167 c 0.028,-2.291 0.006,-4.354 -0.05,-4.583 -0.114,-0.463 -0.962,-0.6 -1.123,-0.181 m 116.256,13.468 c 0,0.356 0.038,0.502 0.085,0.324 0.046,-0.178 0.046,-0.47 0,-0.648 -0.047,-0.178 -0.085,-0.033 -0.085,0.324 m -0.085,7.001 c -0.278,0.184 -1.32,1.083 -2.315,1.998 -9.968,9.165 -16.881,13.444 -23.179,14.347 -6.23,0.894 -13.88,-2.59 -16.23,-7.39 l -0.549,-1.121 -1.363,-0.01 -1.362,-0.01 0.122,0.509 c 1.524,6.322 9.141,11.233 17.418,11.228 9.586,-0.005 18.258,-4.917 28.45,-16.115 2.805,-3.083 2.677,-2.717 1.133,-3.227 -0.687,-0.227 -1.333,-0.442 -1.435,-0.478 -0.102,-0.036 -0.413,0.085 -0.69,0.269 m -109.835,1.271 c -1.319,1.318 1.873,5.708 4.43,6.092 1.518,0.227 2.008,-0.991 0.502,-1.247 -2.004,-0.34 -3.751,-2.182 -3.757,-3.96 -0.003,-0.8 -0.719,-1.341 -1.175,-0.885 m 112.747,2.025 c -10.234,11.716 -19.477,17.222 -29.561,17.61 -9.124,0.352 -17.362,-4.728 -19.43,-11.981 -0.339,-1.189 -0.319,-1.182 -2.426,-0.837 -7.699,1.26 -15.358,4.632 -24.879,10.954 -4.176,2.772 -12.593,8.852 -12.593,9.097 0,0.239 28.752,26.04 29.115,26.126 0.144,0.034 1.111,-0.248 2.148,-0.627 2.016,-0.737 27.85,-10.329 46.125,-17.127 11.342,-4.218 11.58,-4.289 11.744,-3.458 0.099,0.504 -0.282,0.654 -23.206,9.176 -35.188,13.08 -36.977,13.734 -37.198,13.6 -0.115,-0.07 -7.781,-6.923 -17.035,-15.229 -9.254,-8.305 -17.011,-15.243 -17.236,-15.417 l -0.411,-0.316 -7.978,12.538 c -4.387,6.896 -8.118,12.788 -8.289,13.094 l -0.312,0.555 10.406,19.63 c 5.723,10.796 10.46,19.688 10.526,19.76 0.067,0.071 0.525,-0.121 1.018,-0.428 14.614,-9.096 40.094,-0.655 45.203,14.974 0.175,0.534 0.366,0.972 0.426,0.972 0.219,0 47.103,-3.518 50.529,-3.792 4.402,-0.351 4.282,-0.353 4.504,0.063 0.429,0.8 -0.035,0.954 -3.695,1.232 -17.991,1.363 -81.661,6.122 -88.487,6.613 l -0.623,0.045 -4.1,-7.728 c -2.255,-4.25 -4.141,-7.728 -4.192,-7.728 -0.051,-10e-4 -1.347,11.249 -2.88,24.999 l -2.788,25 h 47.678 47.678 l 2.425,0.463 c 8.035,1.535 19.453,3.588 19.529,3.512 0.378,-0.379 6.619,-31.6 10.196,-51.012 0.61,-3.311 1.817,-9.852 2.683,-14.537 0.865,-4.686 2.955,-16.102 4.644,-25.371 1.689,-9.268 3.149,-17.139 3.245,-17.491 0.705,-2.596 -5.638,-15.578 -11.177,-22.874 -4.387,-5.778 -9.906,-9.067 -23.826,-14.198 -1.375,-0.507 -3.143,-1.166 -3.929,-1.466 -1.801,-0.687 -1.421,-0.857 -3.571,1.604 m -170.079,3.154 c -1.26,1.601 0.632,5.029 3.615,6.549 0.5,0.255 1.454,0.963 2.121,1.574 2.833,2.597 7.491,4.444 7.491,2.97 0,-0.51 -0.091,-0.583 -1.296,-1.033 -2.398,-0.894 -4.536,-2.148 -3.148,-1.845 0.407,0.089 2.241,0.335 4.074,0.546 1.833,0.211 3.629,0.432 3.99,0.493 0.761,0.126 1.205,-0.239 1.016,-0.835 -0.156,-0.491 -0.226,-0.507 -4.08,-0.944 -5.623,-0.638 -7.812,-1.191 -9.939,-2.512 -2.264,-1.404 -3.322,-3.296 -2.485,-4.441 0.655,-0.896 -0.666,-1.403 -1.359,-0.522 m 64.524,7.104 c 0.398,0.408 0.765,0.741 0.816,0.741 0.051,0 -0.233,-0.333 -0.631,-0.741 -0.398,-0.407 -0.765,-0.74 -0.816,-0.74 -0.051,0 0.233,0.333 0.631,0.74 m -37.024,3.44 c -0.883,0.882 -0.303,1.095 3.042,1.115 5.699,0.034 7.839,1.431 12.356,8.063 2.321,3.408 2.779,3.923 3.411,3.833 0.703,-0.1 0.622,-0.66 -0.257,-1.789 -0.45,-0.578 -1.645,-2.259 -2.655,-3.736 -4.157,-6.079 -6.988,-7.777 -12.964,-7.777 -2.155,0 -2.696,0.053 -2.933,0.291 m 43.173,4.028 c -0.053,0.137 -3.674,5.254 -8.048,11.372 l -7.952,11.124 1.582,2.982 c 1.041,1.963 1.645,2.919 1.765,2.799 1.184,-1.184 16.144,-25.325 15.88,-25.627 -0.924,-1.055 -3.141,-2.875 -3.227,-2.65 m -30.64,14.183 c -4.099,0.79 -7.492,1.475 -7.541,1.523 -0.176,0.176 0.895,4.049 1.121,4.049 0.324,0 16.235,-3.874 16.34,-3.979 0.179,-0.179 -1.87,-3.058 -2.166,-3.043 -0.165,0.009 -3.654,0.661 -7.754,1.45 m 2.315,4.907 c -5.385,1.305 -8.472,2.135 -8.472,2.277 0,0.124 0.66,2.957 1.467,6.297 1.929,7.98 3.091,13.257 3.621,16.443 l 0.431,2.592 0.742,0.659 c 1.801,1.598 11.976,5.671 19.85,7.945 0.662,0.191 2.703,0.806 4.537,1.366 4.201,1.284 7.87,2.317 7.87,2.216 0,-0.043 -4.838,-9.205 -10.752,-20.36 -9.082,-17.132 -10.734,-20.364 -10.637,-20.805 0.173,-0.788 0.395,-0.823 -8.657,1.37 m 49.57,47.712 c -3.649,0.354 -9.223,2.207 -11.27,3.746 -0.308,0.232 7.643,16.023 8.571,17.023 0.116,0.124 35.225,-2.411 35.377,-2.554 0.142,-0.133 -0.772,-2.412 -1.506,-3.756 -5.219,-9.551 -18.46,-15.693 -31.172,-14.459 m -17.508,58.184 c -0.069,0.147 -1.412,12.279 -1.366,12.329 0.182,0.193 115.416,0.255 115.777,0.062 0.573,-0.307 2.977,-7.91 2.615,-8.271 -0.051,-0.052 -4.377,-0.881 -9.614,-1.844 -5.236,-0.963 -10.187,-1.879 -11.002,-2.036 -1.289,-0.249 -96.297,-0.485 -96.41,-0.24" />
         <path style="fill:#ece5dd;fill-opacity:1;fill-rule:evenodd;stroke:none" id="path2-7" d="m 217.454,107.685 c 0.002,0.408 0.04,0.552 0.084,0.322 0.045,-0.23 0.043,-0.564 -0.003,-0.741 -0.047,-0.177 -0.083,0.012 -0.081,0.419 m 27.083,15.153 c -0.611,0.334 -1.581,0.912 -2.155,1.284 -5.648,3.663 -16.266,4.654 -23.385,2.183 -0.602,-0.209 -1.115,-0.359 -1.139,-0.333 -0.064,0.067 -0.24,6.03 -0.363,12.269 -0.137,6.934 -0.426,18.327 -0.574,22.636 -0.113,3.279 -0.105,3.387 0.274,3.704 0.367,0.308 0.397,0.563 0.513,4.493 0.153,5.187 0.036,4.863 1.855,5.141 0.801,0.123 3.039,0.474 4.974,0.782 9.373,1.49 15.613,2.215 21.482,2.499 5.177,0.249 10.645,-1.499 13.728,-4.39 0.77,-0.722 1.457,-0.662 1.457,0.128 0,1.044 -4.013,3.631 -7.315,4.717 -3.85,1.266 -8.869,1.317 -17.661,0.182 -3.685,-0.476 -3.661,-0.477 -3.557,0.154 0.046,0.28 0.263,3.176 0.482,6.435 0.395,5.895 0.4,5.932 0.973,7.1 1.2,2.447 4.147,4.964 7.181,6.134 9.615,3.708 17.319,0.553 32.658,-13.373 1.094,-0.993 2.077,-1.805 2.185,-1.805 0.134,0 0.158,-0.716 0.074,-2.269 -0.068,-1.247 -0.244,-4.935 -0.393,-8.194 -0.41,-9.037 -0.504,-10.922 -0.548,-10.975 -0.023,-0.027 -0.332,0.073 -0.687,0.221 -1.161,0.485 -3.055,0.756 -3.383,0.484 -0.586,-0.486 -0.092,-1.302 0.791,-1.307 4.668,-0.023 9.827,-6.019 9.845,-11.442 0.015,-4.807 -2.706,-7.074 -7.305,-6.084 -1.262,0.272 -1.951,0.182 -1.951,-0.256 0,-0.366 -0.553,-0.162 -0.647,0.238 -0.054,0.23 -0.464,2.152 -0.911,4.272 -0.447,2.12 -0.841,3.882 -0.877,3.916 -0.121,0.113 -4.812,0.507 -4.907,0.412 -0.051,-0.051 0.084,-4.613 0.302,-10.137 0.217,-5.523 0.327,-10.103 0.245,-10.176 -0.082,-0.074 -0.928,-0.333 -1.878,-0.576 l -1.729,-0.442 0.134,-3.408 c 0.129,-3.286 0.121,-3.404 -0.216,-3.308 -7.982,2.27 -11.637,2.141 -14.528,-0.517 -1.288,-1.184 -1.536,-1.216 -3.044,-0.392 m -16.435,7.025 c 0.89,0.702 0.064,1.204 -1.991,1.209 -2.156,0.005 -3.588,0.42 -5.303,1.537 -1.315,0.857 -1.827,0.846 -1.827,-0.037 0,-1.715 7.542,-3.956 9.121,-2.709 m 19.082,0.797 c 3.607,0.733 7.75,3.86 6.314,4.766 -0.235,0.148 -0.55,-0.017 -1.482,-0.778 -2.962,-2.418 -6.486,-3.3 -9.997,-2.502 -1.482,0.338 -1.834,0.269 -1.834,-0.358 0,-0.654 0.395,-0.859 2.5,-1.298 0.885,-0.184 3.183,-0.097 4.499,0.17 m -16.685,4.83 c 0.064,0.168 -0.833,3.606 -1.995,7.639 -2.4,8.335 -2.483,8.872 -1.566,10.195 l 0.549,0.793 -0.427,0.346 c -0.496,0.401 -0.879,0.272 -1.489,-0.505 -0.989,-1.256 -0.951,-2.874 0.15,-6.469 0.403,-1.318 1.327,-4.48 2.052,-7.026 0.726,-2.546 1.362,-4.775 1.415,-4.954 0.127,-0.429 1.148,-0.444 1.311,-0.019 m -6.584,2.961 c 1.348,1.292 0.47,3.407 -1.41,3.397 -1.178,-0.007 -1.949,-0.833 -1.949,-2.089 0,-1.731 2.074,-2.539 3.359,-1.308 m 20.363,1.013 c 1.77,1.896 -0.911,4.657 -2.782,2.865 -1.412,-1.353 -0.542,-3.44 1.434,-3.44 0.668,0 0.905,0.101 1.348,0.575 m -113.074,1.926 c -0.148,0.237 -1.194,0.41 -5.138,0.845 -7.892,0.872 -8.995,1.7 -9.544,7.163 l -0.154,1.528 h 0.681 0.681 l 0.124,-1.157 c 0.346,-3.229 0.073,-3.132 9.183,-3.297 3.718,-0.067 6.78,-0.134 6.806,-0.149 0.218,-0.126 0.008,-4.816 -0.22,-4.904 -0.787,-0.302 -2.239,-0.319 -2.419,-0.029 m 4.583,3.367 c 0.178,0.047 0.47,0.047 0.648,0 0.178,-0.046 0.033,-0.084 -0.324,-0.084 -0.356,0 -0.502,0.038 -0.324,0.084 m -9.435,13.213 c -1.202,0.47 -1.91,4.401 -1.251,6.945 0.157,0.607 0.981,2.562 1.832,4.344 3.827,8.022 6.369,16.291 5.505,17.906 -0.869,1.624 -11.489,3.548 -15.185,2.751 -4.585,-0.989 -7.438,-0.596 -7.438,1.023 0,2.933 4.368,4.969 12.685,5.913 3.854,0.437 3.924,0.453 4.08,0.944 0.189,0.596 -0.255,0.961 -1.016,0.835 -0.361,-0.061 -2.157,-0.282 -3.99,-0.493 -1.833,-0.211 -3.667,-0.457 -4.074,-0.546 -1.39,-0.303 0.754,0.952 3.148,1.844 1.005,0.375 1.31,0.574 1.355,0.888 0.088,0.608 0.86,0.695 6.053,0.679 5.476,-0.017 7.87,-0.182 7.87,-0.543 0,-0.7 0.506,-0.83 3.224,-0.83 5.976,0 8.807,1.698 12.964,7.777 1.01,1.477 2.205,3.158 2.655,3.736 0.879,1.129 0.96,1.689 0.257,1.789 -0.632,0.09 -1.09,-0.425 -3.411,-3.833 -4.481,-6.581 -6.676,-8.03 -12.205,-8.059 -1.496,-0.008 -2.763,0.029 -2.816,0.082 -0.088,0.088 0.373,1.974 3.495,14.293 1.005,3.967 1.09,4.205 1.461,4.116 0.619,-0.149 14.955,-2.864 15.119,-2.864 0.081,0 0.593,0.696 1.137,1.546 0.876,1.368 1.052,1.544 1.52,1.528 0.722,-0.026 1.05,0.482 0.62,0.958 -0.365,0.402 -0.25,0.597 0.35,0.597 0.351,0 0.64,0.416 1.751,2.518 1.094,2.071 1.372,2.474 1.566,2.269 1.719,-1.814 15.718,-22.025 15.745,-22.732 l 0.032,-0.815 -5.172,-5.157 c -2.845,-2.836 -5.214,-5.157 -5.265,-5.157 -0.05,0 -3.376,-3.204 -7.39,-7.12 -9.593,-9.36 -8.808,-8.739 -16.605,-13.133 -8.157,-4.597 -9.488,-5.597 -12.975,-9.756 -3.14,-3.745 -4.427,-4.715 -5.631,-4.243 m 117.987,4.173 c 1.325,1.325 -2.976,2.938 -7.858,2.945 -4.222,0.007 -6.679,-0.693 -6.117,-1.743 0.255,-0.475 0.45,-0.471 2.877,0.066 3.13,0.692 8.69,-0.101 10.774,-1.536 0.018,-0.013 0.164,0.108 0.324,0.268 m -163.161,6.746 c 0,0.967 0.031,1.363 0.069,0.88 0.038,-0.484 0.038,-1.276 0,-1.76 -0.038,-0.484 -0.069,-0.088 -0.069,0.88 m 1.287,-0.278 c 10e-4,0.611 0.035,0.839 0.077,0.506 0.041,-0.333 0.04,-0.833 -0.002,-1.111 -0.043,-0.278 -0.076,-0.006 -0.075,0.605 m 151.609,28.114 c 0,0.031 0.271,0.302 0.602,0.601 l 0.602,0.544 -0.544,-0.601 c -0.507,-0.561 -0.66,-0.687 -0.66,-0.544 m 11.713,7.106 c 0.178,0.047 0.47,0.047 0.648,0 0.178,-0.046 0.033,-0.084 -0.324,-0.084 -0.356,0 -0.502,0.038 -0.324,0.084 m -44.815,65.556 c 0.178,0.046 0.47,0.046 0.648,0 0.179,-0.047 0.033,-0.085 -0.324,-0.085 -0.356,0 -0.502,0.038 -0.324,0.085 m 0.185,1.296 c 0.179,0.047 0.47,0.047 0.649,0 0.178,-0.046 0.032,-0.084 -0.325,-0.084 -0.356,0 -0.502,0.038 -0.324,0.084 m 27.454,8.206 c 0.605,0.611 1.141,1.111 1.192,1.111 0.051,0 -0.402,-0.5 -1.007,-1.111 -0.604,-0.611 -1.141,-1.111 -1.192,-1.111 -0.051,0 0.402,0.5 1.007,1.111 m -1.026,0.787 c 0.767,0.818 0.934,0.965 0.934,0.826 0,-0.03 -0.396,-0.426 -0.88,-0.88 l -0.88,-0.826 0.826,0.88 m 5.748,9.239 c 0,0.087 0.209,0.159 0.463,0.159 0.255,0 0.463,-0.032 0.463,-0.071 0,-0.039 -0.208,-0.111 -0.463,-0.159 -0.254,-0.049 -0.463,-0.017 -0.463,0.071" />
         <path style="fill:#ece5dd;fill-opacity:1;fill-rule:evenodd;stroke:none" id="path3-76" d="m 262.407,95.49 c -1.715,0.29 -3.703,1.33 -3.703,1.936 0,0.588 0.496,0.614 1.671,0.087 4.478,-2.01 8.982,0.347 9.742,5.097 0.15,0.94 0.428,1.052 1.579,0.638 4.708,-1.693 7.556,2.75 5.542,8.645 -0.662,1.938 -0.652,2.366 0.056,2.366 0.827,0 2.095,-4.621 1.924,-7.011 -0.278,-3.885 -3.732,-6.376 -7.412,-5.346 -0.307,0.085 -0.51,0.07 -0.51,-0.04 0,-3.298 -5.167,-7.002 -8.889,-6.372 m -32.537,0.583 c -2.487,0.891 -4.5,3.497 -4.5,5.825 0,0.471 -0.049,0.518 -0.416,0.397 -1.452,-0.477 -4.1,0.107 -5.498,1.214 -3.017,2.39 -2.232,7.817 1.394,9.627 1.318,0.659 2.267,-0.177 0.985,-0.868 -5.59,-3.013 -2.482,-10.748 3.412,-8.494 1.118,0.428 1.28,0.292 1.349,-1.129 0.266,-5.455 6.894,-7.746 9.793,-3.385 0.727,1.093 1.91,0.816 1.327,-0.311 -1.221,-2.362 -5.204,-3.822 -7.846,-2.876 M 139.617,141.3 c -1.891,0.281 -3.593,0.541 -3.782,0.578 -0.313,0.06 -0.473,2.434 -0.185,2.723 0.037,0.036 1.956,0.005 4.266,-0.07 l 4.2,-0.137 -0.123,-1.132 c -0.242,-2.213 -0.321,-2.523 -0.637,-2.498 -0.165,0.013 -1.848,0.254 -3.739,0.536 m -52.842,9.568 c -4.366,5.963 -6.971,18.838 -4.908,24.264 0.458,1.204 1.34,0.583 1.084,-0.764 -1.378,-7.246 0.385,-15.921 4.517,-22.238 0.744,-1.139 0.819,-1.341 0.609,-1.657 -0.399,-0.602 -0.621,-0.535 -1.302,0.395 m -4.143,28.499 c -0.421,0.752 1.064,4.841 1.673,4.607 0.509,-0.195 0.503,-0.555 -0.039,-2.56 -0.661,-2.442 -1.103,-2.996 -1.634,-2.047 m 196.585,4.469 c -8.872,10.062 -15.05,14.845 -22.314,17.273 -10.339,3.456 -20.508,0.495 -24.84,-7.231 -0.54,-0.963 -1.392,-3.137 -1.229,-3.137 0.04,0 -0.016,-0.255 -0.125,-0.566 -0.315,-0.904 -1.18,-0.724 -1.151,0.24 0.143,4.705 6.257,10.783 12.701,12.625 11.162,3.191 23.391,-2.296 35.826,-16.075 2.845,-3.152 2.802,-3.089 2.365,-3.526 -0.417,-0.417 -0.554,-0.373 -1.233,0.397 m -104.458,35.978 -8.112,12.76 0.305,0.588 c 0.401,0.776 -0.402,1.924 8.868,-12.668 7.801,-12.279 8.086,-12.76 7.777,-13.102 -0.177,-0.195 -0.412,-0.351 -0.524,-0.347 -0.111,0.005 -3.853,5.75 -8.314,12.769 m -15.87,-0.049 c -0.153,0.062 -4.098,1.04 -8.767,2.172 -8.727,2.117 -9.1,2.246 -8.574,2.966 0.268,0.367 17.865,-3.709 18.449,-4.274 0.535,-0.518 -0.32,-1.185 -1.108,-0.864 m 41.574,49.678 c -3.363,0.362 -6.622,1.305 -9.658,2.794 -2.379,1.167 -2.569,1.41 -1.83,2.346 0.02,0.025 0.689,-0.326 1.487,-0.78 14.368,-8.188 37.533,-0.35 42.81,14.484 0.237,0.665 1.358,0.928 1.358,0.318 0,-1.036 -1.853,-4.691 -3.514,-6.932 -6.054,-8.167 -19.3,-13.451 -30.653,-12.23 m -17.677,58.417 c -0.123,0.149 -0.195,0.42 -0.16,0.603 0.062,0.32 2.069,0.337 48.488,0.433 44.936,0.093 48.523,0.123 49.812,0.419 3.616,0.83 19.69,3.662 19.854,3.498 0.825,-0.825 0.436,-0.957 -6.706,-2.271 -3.718,-0.684 -8.634,-1.606 -10.926,-2.05 l -4.167,-0.807 -47.985,-0.047 c -41.848,-0.041 -48.015,-0.013 -48.21,0.222" />
         <path style="fill:#b48e4f;fill-rule:evenodd;stroke:none" id="path4" d="m 244.493,78.651 c 0.282,0.043 0.698,0.042 0.926,-0.002 0.228,-0.044 -0.002,-0.079 -0.512,-0.078 -0.509,0.002 -0.695,0.038 -0.414,0.08 m 2.683,-0.002 c 0.229,0.044 0.604,0.044 0.833,0 0.229,-0.044 0.042,-0.08 -0.416,-0.08 -0.459,0 -0.646,0.036 -0.417,0.08 m -10.185,2.011 c -0.484,0.252 -0.88,0.5 -0.88,0.55 0,0.083 1.833,-0.783 2.022,-0.955 0.229,-0.208 -0.373,0.005 -1.142,0.405 m -2.132,1.289 c -0.534,0.36 -0.97,0.694 -0.97,0.743 0,0.049 0.458,-0.215 1.018,-0.587 0.89,-0.591 1.152,-0.809 0.97,-0.809 -0.027,0 -0.485,0.294 -1.018,0.653 m 21.622,-0.41 c 0,0.043 0.355,0.312 0.788,0.598 0.432,0.285 0.689,0.4 0.569,0.256 -0.229,-0.279 -1.357,-0.988 -1.357,-0.854 M 260,84.352 c 0.553,0.56 1.048,1.018 1.098,1.018 0.051,0 -0.36,-0.458 -0.913,-1.018 -0.553,-0.56 -1.047,-1.019 -1.098,-1.019 -0.051,0 0.36,0.459 0.913,1.019 m -28.34,0.231 -1.012,1.065 1.065,-1.012 c 0.586,-0.557 1.065,-1.036 1.065,-1.065 0,-0.137 -0.177,0.023 -1.118,1.012 m 30.562,2.639 c 0.218,0.306 0.437,0.556 0.488,0.556 0.051,0 -0.085,-0.25 -0.303,-0.556 -0.217,-0.305 -0.437,-0.555 -0.488,-0.555 -0.051,0 0.086,0.25 0.303,0.555 m 8.287,0.131 c 0.229,0.044 0.604,0.044 0.834,0 0.229,-0.044 0.041,-0.08 -0.417,-0.08 -0.458,0 -0.646,0.036 -0.417,0.08 m 1.947,0.002 c 0.282,0.043 0.698,0.042 0.926,-0.002 0.228,-0.044 -0.002,-0.079 -0.512,-0.078 -0.509,0.002 -0.695,0.038 -0.414,0.08 m -54.076,0.421 c -0.331,0.202 -0.602,0.407 -0.602,0.456 0,0.049 0.291,-0.083 0.648,-0.294 0.356,-0.21 0.648,-0.415 0.648,-0.456 0,-0.119 -0.058,-0.094 -0.694,0.294 m 44.398,0.245 c 0,0.032 0.271,0.303 0.602,0.602 l 0.601,0.544 -0.543,-0.602 c -0.507,-0.561 -0.66,-0.687 -0.66,-0.544 m 12.978,0.011 c 0.191,0.171 1.281,0.672 1.281,0.589 0,-0.107 -1.027,-0.658 -1.225,-0.658 -0.073,0 -0.098,0.031 -0.056,0.069 m -59.189,1.274 -0.919,0.972 0.972,-0.919 c 0.535,-0.506 0.973,-0.943 0.973,-0.972 0,-0.139 -0.172,0.015 -1.026,0.919 M 266.62,88.81 c -0.692,0.375 -0.65,0.532 0.047,0.171 0.305,-0.158 0.555,-0.326 0.555,-0.375 0,-0.119 -0.02,-0.112 -0.602,0.204 m 10.695,0.013 c 0.943,0.836 1.29,1.08 0.926,0.651 -0.201,-0.239 -0.534,-0.52 -0.739,-0.625 -0.205,-0.105 -0.289,-0.117 -0.187,-0.026 m 1.389,1.05 c 0,0.032 0.271,0.302 0.602,0.602 l 0.601,0.544 -0.543,-0.602 c -0.507,-0.561 -0.66,-0.687 -0.66,-0.544 m 2.884,4.386 c 0.068,0.255 0.201,0.588 0.295,0.741 0.119,0.193 0.134,0.137 0.048,-0.185 -0.068,-0.255 -0.201,-0.588 -0.296,-0.741 -0.119,-0.193 -0.133,-0.136 -0.047,0.185 m 0.449,1.182 c 0,0.199 0.551,1.226 0.658,1.226 0.051,0 -0.045,-0.271 -0.214,-0.602 -0.344,-0.676 -0.444,-0.817 -0.444,-0.624 m -50.694,0.242 c 0.178,0.047 0.469,0.047 0.648,0 0.178,-0.046 0.032,-0.084 -0.324,-0.084 -0.357,0 -0.503,0.038 -0.324,0.084 m 53.935,3.297 c 0.414,0.344 1.587,0.978 1.296,0.7 -0.102,-0.097 -0.518,-0.363 -0.926,-0.592 -0.407,-0.229 -0.574,-0.278 -0.37,-0.108 m 2.315,1.417 c 1.166,1.158 2.773,2.545 2.037,1.759 -0.459,-0.49 -1.167,-1.148 -1.574,-1.462 -0.408,-0.315 -0.616,-0.448 -0.463,-0.297 m -76.215,1.811 c -0.942,0.54 -2.87,2.455 -3.238,3.217 -0.119,0.246 -0.029,0.187 0.225,-0.147 0.991,-1.303 2.267,-2.487 3.258,-3.025 0.584,-0.317 0.979,-0.578 0.877,-0.58 -0.102,-0.001 -0.607,0.239 -1.122,0.535 m 79.457,1.588 c 0.742,1.031 0.947,1.222 0.534,0.497 -0.193,-0.338 -0.512,-0.754 -0.709,-0.926 -0.208,-0.181 -0.135,-0.002 0.175,0.429 m 1.331,2.22 c 0.169,0.355 0.341,0.613 0.381,0.573 0.085,-0.085 -0.478,-1.219 -0.604,-1.219 -0.047,0 0.053,0.291 0.223,0.646 m -84.675,0.483 c -0.163,0.315 -0.263,0.605 -0.223,0.646 0.04,0.04 0.212,-0.218 0.381,-0.573 0.381,-0.799 0.249,-0.86 -0.158,-0.073 m 71.815,1.371 c 0.002,0.408 0.04,0.553 0.084,0.322 0.045,-0.23 0.043,-0.563 -0.004,-0.74 -0.046,-0.178 -0.082,0.011 -0.08,0.418 m -72.433,0.111 c -0.113,0.326 -0.2,0.685 -0.193,0.797 0.007,0.112 0.132,-0.123 0.278,-0.521 0.146,-0.399 0.233,-0.757 0.194,-0.797 -0.04,-0.039 -0.165,0.195 -0.279,0.521 m -0.511,3.593 c -0.001,0.917 0.031,1.315 0.07,0.885 0.038,-0.43 0.039,-1.18 0.001,-1.666 -0.039,-0.487 -0.07,-0.136 -0.071,0.781 m 87.395,0.185 c 10e-4,0.51 0.037,0.696 0.08,0.414 0.042,-0.281 0.041,-0.698 -0.003,-0.926 -0.044,-0.227 -0.079,0.003 -0.077,0.512 m -74.498,0.371 c 0.346,0.356 0.67,0.648 0.721,0.648 0.051,0 -0.19,-0.292 -0.536,-0.648 -0.345,-0.357 -0.669,-0.649 -0.72,-0.649 -0.051,0 0.19,0.292 0.535,0.649 m 74.498,1.481 c 10e-4,0.509 0.037,0.696 0.08,0.414 0.042,-0.281 0.041,-0.698 -0.003,-0.926 -0.044,-0.227 -0.079,0.003 -0.077,0.512 m -86.35,3.31 c 0,0.2 0.736,1.598 0.841,1.598 0.051,0 -0.086,-0.355 -0.304,-0.788 -0.429,-0.851 -0.537,-1.013 -0.537,-0.81 m 1.693,2.894 c 0.818,1.238 3.477,3.581 4.877,4.298 0.562,0.287 0.144,-0.062 -1.199,-1.004 -1.32,-0.925 -2.557,-2.057 -3.497,-3.202 -0.546,-0.664 -0.565,-0.674 -0.181,-0.092 m 81.711,2.083 c -0.637,1.082 -0.679,1.174 -0.354,0.787 0.376,-0.448 0.7,-1.018 0.579,-1.018 -0.049,0 -0.15,0.104 -0.225,0.231 m -43.226,1.296 c 0.767,0.818 0.934,0.965 0.934,0.826 0,-0.03 -0.396,-0.426 -0.88,-0.88 l -0.88,-0.825 0.826,0.879 m 14.777,0.787 c 0.049,0.255 0.121,0.463 0.16,0.463 0.039,0 0.071,-0.208 0.071,-0.463 0,-0.254 -0.072,-0.462 -0.16,-0.462 -0.088,0 -0.12,0.208 -0.071,0.462 m -47.918,0.37 c 0,0.124 1.875,1.058 1.958,0.975 0.038,-0.038 -0.387,-0.292 -0.944,-0.566 -0.558,-0.273 -1.014,-0.457 -1.014,-0.409 m 38.658,0.968 c 0.331,0.041 0.873,0.041 1.204,0 0.331,-0.041 0.06,-0.075 -0.602,-0.075 -0.662,0 -0.933,0.034 -0.602,0.075 m -36.065,0.329 c 0.255,0.146 0.546,0.265 0.648,0.265 0.102,0 -0.023,-0.119 -0.278,-0.265 -0.254,-0.145 -0.546,-0.265 -0.648,-0.265 -0.102,0 0.023,0.12 0.278,0.265 m 13.845,1.89 c 0.23,0.045 0.563,0.043 0.741,-0.003 0.177,-0.047 -0.012,-0.083 -0.419,-0.081 -0.408,0.002 -0.553,0.04 -0.322,0.084 m 31.368,1.397 c -0.015,0.891 0.035,1.621 0.111,1.621 0.076,0 0.116,-0.521 0.087,-1.158 -0.088,-1.967 -0.169,-2.157 -0.198,-0.463 m -35.531,-1.206 c 0.486,0.038 1.236,0.038 1.666,-0.001 0.43,-0.039 0.032,-0.07 -0.885,-0.07 -0.917,0.001 -1.268,0.033 -0.781,0.071 m 59.392,2.086 c -0.41,0.815 -0.703,1.481 -0.652,1.481 0.051,0 0.428,-0.666 0.837,-1.481 0.41,-0.815 0.704,-1.482 0.653,-1.482 -0.051,0 -0.428,0.667 -0.838,1.482 m -42.917,0.683 c 0.179,0.047 0.47,0.047 0.649,0 0.178,-0.047 0.032,-0.085 -0.324,-0.085 -0.357,0 -0.503,0.038 -0.325,0.085 m 1.112,1.296 c 0.178,0.047 0.469,0.047 0.648,0 0.178,-0.046 0.032,-0.084 -0.324,-0.084 -0.357,0 -0.503,0.038 -0.324,0.084 m 39.398,2.65 c -0.41,0.815 -0.704,1.482 -0.653,1.482 0.051,0 0.428,-0.667 0.838,-1.482 0.41,-0.814 0.703,-1.481 0.652,-1.481 -0.051,0 -0.428,0.667 -0.837,1.481 m -17.902,1.204 c 0,0.713 0.034,0.982 0.074,0.598 0.04,-0.384 0.039,-0.968 -0.002,-1.296 -0.041,-0.329 -0.073,-0.015 -0.072,0.698 m 15.124,4.167 c -0.511,1.018 -0.888,1.852 -0.837,1.852 0.051,0 0.511,-0.834 1.022,-1.852 0.511,-1.019 0.888,-1.852 0.837,-1.852 -0.051,0 -0.511,0.833 -1.022,1.852 m -15.308,0.741 c 0,0.763 0.033,1.076 0.072,0.694 0.04,-0.382 0.04,-1.007 0,-1.389 -0.039,-0.382 -0.072,-0.069 -0.072,0.695 m 15.401,2.592 c 0.397,0.408 0.764,0.741 0.815,0.741 0.051,0 -0.232,-0.333 -0.63,-0.741 -0.398,-0.407 -0.765,-0.741 -0.816,-0.741 -0.051,0 0.233,0.334 0.631,0.741 m -126.512,1.667 c 0,0.764 0.032,1.076 0.072,0.694 0.04,-0.382 0.04,-1.007 0,-1.389 -0.04,-0.382 -0.072,-0.069 -0.072,0.695 m 110.926,0.555 c 0,0.764 0.032,1.077 0.072,0.695 0.04,-0.382 0.04,-1.007 0,-1.389 -0.04,-0.382 -0.072,-0.07 -0.072,0.694 m -128.535,-0.613 c 0.178,0.047 0.47,0.047 0.648,0 0.179,-0.046 0.033,-0.084 -0.324,-0.084 -0.356,0 -0.502,0.038 -0.324,0.084 m 22.685,0.751 c 1.044,0.034 2.753,0.034 3.797,0 1.044,-0.033 0.189,-0.06 -1.899,-0.06 -2.087,0 -2.942,0.027 -1.898,0.06 m 7.872,1.468 c 0.942,0.899 3.564,3.414 5.826,5.589 l 4.115,3.953 0.059,2.065 0.058,2.065 0.04,-2.07 0.04,-2.07 -5.752,-5.523 c -3.163,-3.037 -5.829,-5.55 -5.925,-5.583 -0.095,-0.034 0.597,0.674 1.539,1.574 m -75.094,-0.734 c 0.229,0.044 0.604,0.044 0.833,0 0.23,-0.044 0.042,-0.08 -0.416,-0.08 -0.459,0 -0.646,0.036 -0.417,0.08 m 4.259,0.185 c 0.23,0.044 0.605,0.044 0.834,0 0.229,-0.044 0.041,-0.08 -0.417,-0.08 -0.458,0 -0.646,0.036 -0.417,0.08 m 3.704,0.185 c 0.229,0.044 0.604,0.044 0.833,0 0.23,-0.044 0.042,-0.08 -0.416,-0.08 -0.459,0 -0.646,0.036 -0.417,0.08 m 3.704,0.185 c 0.229,0.044 0.604,0.044 0.833,0 0.229,-0.044 0.042,-0.08 -0.417,-0.08 -0.458,0 -0.645,0.036 -0.416,0.08 m -18.944,1.397 -0.732,0.787 0.787,-0.732 c 0.732,-0.68 0.872,-0.842 0.732,-0.842 -0.03,0 -0.385,0.355 -0.787,0.787 m 23.056,0.371 c 0.454,0.484 0.85,0.879 0.88,0.879 0.139,0 -0.008,-0.166 -0.826,-0.933 l -0.879,-0.826 0.825,0.88 m 175.051,-0.046 c 0,0.356 0.038,0.502 0.085,0.324 0.046,-0.179 0.046,-0.47 0,-0.649 -0.047,-0.178 -0.085,-0.032 -0.085,0.325 m -17.944,1.666 c 0,0.764 0.033,1.077 0.073,0.695 0.04,-0.382 0.04,-1.007 0,-1.389 -0.04,-0.382 -0.073,-0.07 -0.073,0.694 m 17.948,-0.278 c 0.002,0.408 0.04,0.553 0.084,0.322 0.044,-0.23 0.043,-0.563 -0.004,-0.74 -0.046,-0.177 -0.082,0.011 -0.08,0.418 m -170.926,0.776 c 0.178,0.047 0.469,0.047 0.648,0 0.178,-0.046 0.032,-0.084 -0.324,-0.084 -0.357,0 -0.503,0.038 -0.324,0.084 m 112.599,0.891 c 0.001,0.509 0.037,0.696 0.08,0.414 0.042,-0.281 0.041,-0.698 -0.003,-0.926 -0.044,-0.227 -0.079,0.003 -0.077,0.512 m -108.06,-0.517 c 0.23,0.044 0.563,0.043 0.74,-0.004 0.178,-0.046 -0.011,-0.082 -0.418,-0.08 -0.408,0.002 -0.553,0.04 -0.322,0.084 m 151.016,0.552 c 0.178,0.047 0.47,0.047 0.648,0 0.178,-0.046 0.033,-0.085 -0.324,-0.085 -0.356,0 -0.502,0.039 -0.324,0.085 m 11.521,6.956 -0.919,0.972 0.972,-0.919 c 0.535,-0.505 0.972,-0.943 0.972,-0.972 0,-0.138 -0.171,0.015 -1.025,0.919 m -119.829,6.25 c 0,1.273 0.029,1.794 0.066,1.157 0.036,-0.636 0.036,-1.678 0,-2.315 -0.037,-0.636 -0.066,-0.115 -0.066,1.158 m 17.757,-0.741 c 0,0.458 0.036,0.646 0.08,0.417 0.044,-0.229 0.044,-0.604 0,-0.834 -0.044,-0.229 -0.08,-0.041 -0.08,0.417 m 58.417,-0.237 c 0.329,0.041 0.912,0.042 1.297,0.002 0.384,-0.04 0.115,-0.074 -0.598,-0.075 -0.713,0 -1.027,0.032 -0.699,0.073 M 113.763,165 c 0,0.662 0.034,0.933 0.075,0.602 0.041,-0.331 0.041,-0.873 0,-1.204 -0.041,-0.331 -0.075,-0.06 -0.075,0.602 m 102.405,2.13 c 0.002,0.611 0.036,0.838 0.077,0.506 0.042,-0.333 0.041,-0.833 -0.002,-1.112 -0.042,-0.278 -0.076,-0.005 -0.075,0.606 m -137.775,1.018 c 0,0.662 0.033,0.933 0.074,0.602 0.041,-0.331 0.041,-0.873 0,-1.204 -0.041,-0.331 -0.074,-0.06 -0.074,0.602 m 98.687,-0.37 c 0,0.356 0.038,0.502 0.085,0.324 0.046,-0.178 0.046,-0.47 0,-0.648 -0.047,-0.179 -0.085,-0.033 -0.085,0.324 m 40.572,1.666 c 0,0.662 0.033,0.933 0.075,0.602 0.041,-0.331 0.041,-0.872 0,-1.203 -0.042,-0.331 -0.075,-0.061 -0.075,0.601 m -105.377,-0.092 c 0.002,0.509 0.038,0.695 0.08,0.414 0.043,-0.282 0.042,-0.698 -0.002,-0.926 -0.044,-0.228 -0.079,0.003 -0.078,0.512 m 64.62,1.018 c 0,0.357 0.038,0.503 0.085,0.324 0.046,-0.178 0.046,-0.469 0,-0.648 -0.047,-0.178 -0.085,-0.032 -0.085,0.324 m -63.334,0.186 c 0,0.356 0.039,0.502 0.085,0.324 0.047,-0.179 0.047,-0.47 0,-0.649 -0.046,-0.178 -0.085,-0.032 -0.085,0.325 m 102.793,1.944 c 10e-4,0.611 0.035,0.839 0.077,0.506 0.041,-0.333 0.04,-0.833 -0.002,-1.111 -0.043,-0.278 -0.076,-0.006 -0.075,0.605 m -137.97,0.648 c 0,0.458 0.036,0.646 0.08,0.417 0.044,-0.229 0.044,-0.604 0,-0.834 -0.044,-0.229 -0.08,-0.041 -0.08,0.417 m 163.329,4.202 c 0.178,0.046 0.47,0.046 0.648,0 0.178,-0.047 0.033,-0.085 -0.324,-0.085 -0.356,0 -0.502,0.038 -0.324,0.085 m 2.963,0.19 c 0.28,0.042 0.738,0.042 1.018,0 0.281,-0.042 0.051,-0.077 -0.509,-0.077 -0.56,0 -0.789,0.035 -0.509,0.077 m -90.602,0.296 c 0,0.032 0.271,0.302 0.602,0.602 l 0.602,0.543 -0.544,-0.601 c -0.507,-0.561 -0.66,-0.687 -0.66,-0.544 m 91.898,1.186 c 0.28,0.042 0.739,0.042 1.019,0 0.28,-0.043 0.051,-0.078 -0.51,-0.078 -0.56,0 -0.789,0.035 -0.509,0.078 m -86.435,4.126 c 1.015,1.019 1.887,1.852 1.938,1.852 0.05,0 -0.738,-0.833 -1.753,-1.852 -1.014,-1.018 -1.886,-1.852 -1.937,-1.852 -0.051,0 0.737,0.834 1.752,1.852 m 7.037,6.852 c 1.219,1.222 2.258,2.222 2.309,2.222 0.051,0 -0.905,-1 -2.124,-2.222 -1.219,-1.222 -2.258,-2.222 -2.309,-2.222 -0.051,0 0.905,1 2.124,2.222 m -58.858,-0.988 c -0.262,0.263 -0.102,0.431 0.386,0.407 0.441,-0.022 0.453,-0.036 0.09,-0.106 -0.231,-0.044 -0.372,-0.158 -0.313,-0.252 0.122,-0.199 0.018,-0.23 -0.163,-0.049 m 3.997,0.383 c 0.484,0.039 1.275,0.039 1.759,0 0.484,-0.038 0.088,-0.069 -0.879,-0.069 -0.968,0 -1.364,0.031 -0.88,0.069 m -4.829,0.663 c -0.462,0.492 -0.545,0.846 -0.115,0.489 0.282,-0.233 0.717,-0.917 0.585,-0.917 -0.037,0 -0.248,0.193 -0.47,0.428 m 11.872,0.078 c 0.486,0.039 1.236,0.038 1.666,-0.001 0.43,-0.039 0.032,-0.07 -0.885,-0.069 -0.917,0 -1.268,0.032 -0.781,0.07 m -29.728,1.661 c 0.229,0.044 0.604,0.044 0.833,0 0.229,-0.044 0.042,-0.08 -0.417,-0.08 -0.458,0 -0.645,0.036 -0.416,0.08 m 10.648,0.005 c 0.382,0.04 1.007,0.04 1.389,0 0.382,-0.04 0.069,-0.073 -0.695,-0.073 -0.764,0 -1.076,0.033 -0.694,0.073 m -6.759,0.181 c 0.229,0.044 0.604,0.044 0.833,0 0.229,-0.045 0.042,-0.081 -0.417,-0.081 -0.458,0 -0.646,0.036 -0.416,0.081 m 89.49,12.554 c 0.346,0.357 0.67,0.648 0.721,0.648 0.051,0 -0.19,-0.291 -0.535,-0.648 -0.346,-0.356 -0.67,-0.648 -0.721,-0.648 -0.051,0 0.19,0.292 0.535,0.648 m 1.297,1.077 c 0,0.031 0.271,0.302 0.602,0.601 l 0.601,0.544 -0.543,-0.602 c -0.507,-0.561 -0.66,-0.687 -0.66,-0.543 m 2.222,2.071 c 0.345,0.357 0.67,0.648 0.721,0.648 0.051,0 -0.19,-0.291 -0.536,-0.648 -0.345,-0.356 -0.67,-0.648 -0.721,-0.648 -0.051,0 0.19,0.292 0.536,0.648 m 1.852,1.667 c 0.345,0.356 0.67,0.648 0.721,0.648 0.051,0 -0.191,-0.292 -0.536,-0.648 -0.346,-0.357 -0.67,-0.648 -0.721,-0.648 -0.051,0 0.19,0.291 0.536,0.648" />
      </g>
   </g>
</svg>
