<?xml version="1.0" encoding="UTF-8" standalone="no"?>
<svg xmlns:dc="http://purl.org/dc/elements/1.1/" xmlns:cc="http://creativecommons.org/ns#" xmlns:rdf="http://www.w3.org/1999/02/22-rdf-syntax-ns#" xmlns:svg="http://www.w3.org/2000/svg" xmlns="http://www.w3.org/2000/svg" viewBox="0 0 242.15233 229.41464" height="229.41464" width="242.15233" version="1.1" id="svg">
   <metadata id="metadata13">
      <rdf:RDF>
         <cc:Work rdf:about="">
            <dc:format>image/svg+xml</dc:format>
            <dc:type rdf:resource="http://purl.org/dc/dcmitype/StillImage" />
            <dc:title></dc:title>
         </cc:Work>
      </rdf:RDF>
   </metadata>
   <defs id="defs11" />
   <g transform="translate(-528.23008,-5.2777504)" style="display:inline" id="layer2">
      <a id="a1440">
         <g id="svgg-9" transform="translate(447.29718,-78.993193)">
            <path d="m 284.722,195.87 c -21.778,13.079 -56.972,22.214 -98.611,25.596 -8.324,0.676 -12.597,0.862 -12.789,0.559 -0.516,-0.816 0.109,0.646 1.905,4.456 1.241,2.634 9.237,20.783 9.179,20.835 -0.03,0.027 -0.783,0.364 -1.674,0.749 -0.892,0.386 -1.586,0.735 -1.544,0.777 0.086,0.087 3.875,0.064 6.775,-0.04 1.069,-0.039 4.111,-0.119 6.759,-0.179 2.648,-0.06 6.398,-0.149 8.334,-0.197 3.528,-0.09 8.3,-0.203 15.555,-0.37 2.139,-0.05 5.681,-0.133 7.87,-0.184 2.19,-0.052 6.065,-0.136 8.612,-0.187 8.261,-0.165 13.452,-0.28 16.759,-0.37 1.782,-0.049 5.282,-0.132 7.778,-0.185 4.635,-0.099 8.616,-0.194 15.833,-0.379 2.241,-0.058 10.772,-0.264 18.959,-0.458 8.187,-0.194 14.921,-0.389 14.965,-0.433 0.044,-0.044 -3.996,-9.318 -8.979,-20.609 -4.983,-11.291 -10.05,-22.797 -11.261,-25.57 -1.212,-2.772 -2.244,-5.039 -2.295,-5.038 -0.051,0.002 -1.009,0.554 -2.13,1.227 M 86.063,241.435 c 1.514,21.623 24.183,34.795 44.471,25.84 1.285,-0.567 2.59,-1.124 2.901,-1.237 l 0.564,-0.205 -3.833,-8.704 c -2.109,-4.787 -4.027,-9.219 -4.263,-9.849 -0.272,-0.726 -0.499,-1.09 -0.62,-0.993 -0.105,0.085 -1.065,0.287 -2.135,0.449 -12.874,1.95 -24.789,0.11 -35.176,-5.432 -2.141,-1.142 -1.999,-1.152 -1.909,0.131" id="path0-3" style="fill:#999999;fill-opacity:1;fill-rule:evenodd;stroke:none" />
            <path d="m 158.148,234.145 c -25.139,11.086 -31.728,14.003 -31.802,14.077 -0.037,0.037 1.531,3.681 3.485,8.099 3.197,7.228 4.633,10.561 5.198,12.059 0.106,0.28 0.295,0.509 0.421,0.509 0.242,0 6.92,-2.902 7.235,-3.144 0.212,-0.163 29.83,-13.2 33.056,-14.55 1.171,-0.49 3.046,-1.325 4.166,-1.856 1.121,-0.531 2.598,-1.218 3.284,-1.528 l 1.247,-0.563 -0.892,-2.003 c -0.491,-1.103 -2.543,-5.733 -4.56,-10.291 -2.018,-4.558 -3.719,-8.286 -3.781,-8.284 -0.062,0.001 -7.737,3.365 -17.057,7.475" id="path1-90" style="fill:#5d5959;fill-rule:evenodd;stroke:none" />
            <path d="m 272.184,134.986 c -0.48,0.067 -0.926,0.175 -0.991,0.241 -0.066,0.065 3.732,8.854 8.438,19.529 4.707,10.676 11.106,25.202 14.219,32.281 3.114,7.079 5.686,12.903 5.716,12.943 0.194,0.261 3.895,-3.305 5.553,-5.35 16.868,-20.818 6.447,-52.205 -19.518,-58.785 -3.568,-0.904 -10.099,-1.322 -13.417,-0.859 M 172.037,252.77 c -0.866,0.39 -7.821,3.473 -15.456,6.849 -7.636,3.377 -13.9,6.156 -13.92,6.177 -0.021,0.021 1.085,3.705 2.457,8.186 1.372,4.481 3.783,12.355 5.356,17.498 3.637,11.886 4.148,12.945 7.332,15.181 4.65,3.266 10.746,2.587 18.716,-2.084 4.576,-2.681 7.676,-8.586 7.507,-14.299 l -0.071,-2.408 -5.081,-17.915 c -2.794,-9.853 -5.122,-17.911 -5.173,-17.905 -0.051,0.005 -0.801,0.329 -1.667,0.72" id="path2-8" style="fill:#ece5dd;fill-opacity:1;fill-rule:evenodd;stroke:none" />
            <path d="m 237.94,97.264 c -2.187,2.269 -12.135,12.667 -22.108,23.106 -9.972,10.44 -20.765,21.732 -23.984,25.093 -18.543,19.36 -38.329,40.1 -38.329,40.176 0,0.048 0.68,-0.204 1.512,-0.56 0.832,-0.356 1.576,-0.582 1.654,-0.502 0.078,0.08 3.654,8.104 7.946,17.83 4.292,9.727 8.018,18.165 8.278,18.75 l 0.475,1.065 h 0.957 c 0.527,0 2.87,-0.125 5.207,-0.279 44.515,-2.925 81.808,-12.171 105.213,-26.084 l 2.076,-1.234 -0.342,-0.785 c -0.188,-0.431 -1.798,-4.076 -3.577,-8.099 -1.78,-4.023 -11.675,-26.44 -21.99,-49.815 -10.314,-23.375 -18.811,-42.565 -18.882,-42.644 -0.071,-0.079 -1.919,1.713 -4.106,3.982 M 107.5,208.888 c -0.407,0.194 -1.906,0.902 -3.331,1.574 -9.457,4.461 -15.596,12.269 -17.788,22.622 -0.348,1.646 -0.607,7.286 -0.334,7.286 0.096,0 0.962,0.421 1.925,0.934 10.388,5.542 22.264,7.377 35.176,5.433 1.07,-0.16 2.004,-0.348 2.078,-0.416 0.201,-0.188 -16.422,-37.703 -16.726,-37.747 -0.143,-0.02 -0.593,0.121 -1,0.314 m -21.521,32.686 c 0.001,0.509 0.037,0.696 0.08,0.414 0.042,-0.281 0.041,-0.698 -0.003,-0.926 -0.044,-0.227 -0.078,0.003 -0.077,0.512 m 221.197,4.488 c 0.433,0.039 1.141,0.039 1.574,0 0.433,-0.039 0.079,-0.071 -0.787,-0.071 -0.866,0 -1.22,0.032 -0.787,0.071 m -7.865,0.185 c 0.487,0.039 1.237,0.038 1.667,-0.001 0.43,-0.038 0.031,-0.07 -0.885,-0.069 -0.917,0 -1.269,0.032 -0.782,0.07 m -7.778,0.186 c 0.487,0.038 1.237,0.037 1.667,-0.001 0.43,-0.039 0.031,-0.071 -0.885,-0.07 -0.917,0.001 -1.269,0.032 -0.782,0.071 m -7.876,0.184 c 0.433,0.039 1.142,0.039 1.574,0 0.433,-0.039 0.079,-0.071 -0.787,-0.071 -0.865,0 -1.219,0.032 -0.787,0.071 m -7.217,0.185 c 0.436,0.04 1.102,0.039 1.482,-0.001 0.379,-0.04 0.022,-0.072 -0.792,-0.071 -0.815,0.001 -1.125,0.033 -0.69,0.072 m -7.778,0.186 c 0.436,0.039 1.103,0.038 1.482,-0.002 0.379,-0.039 0.023,-0.071 -0.792,-0.071 -0.815,0.001 -1.125,0.034 -0.69,0.073 m -8.24,0.185 c 0.487,0.039 1.237,0.038 1.667,-0.001 0.43,-0.038 0.031,-0.07 -0.885,-0.069 -0.917,0 -1.269,0.032 -0.782,0.07 m -7.686,0.185 c 0.436,0.039 1.103,0.039 1.482,-0.001 0.379,-0.04 0.023,-0.072 -0.792,-0.071 -0.815,0 -1.125,0.033 -0.69,0.072 m -7.777,0.185 c 0.435,0.039 1.102,0.039 1.481,-0.001 0.379,-0.04 0.023,-0.072 -0.792,-0.071 -0.815,0.001 -1.125,0.033 -0.689,0.072 m -8.339,0.185 c 0.433,0.039 1.142,0.039 1.574,0 0.433,-0.039 0.079,-0.071 -0.787,-0.071 -0.865,0 -1.22,0.032 -0.787,0.071 m -9.166,0.185 c 0.382,0.04 1.007,0.04 1.389,0 0.382,-0.04 0.069,-0.073 -0.695,-0.073 -0.764,0 -1.076,0.033 -0.694,0.073 m -8.143,0.186 c 0.487,0.039 1.237,0.038 1.667,-10e-4 0.43,-0.039 0.031,-0.07 -0.885,-0.069 -0.917,0 -1.269,0.032 -0.782,0.07 m -7.686,0.185 c 0.436,0.039 1.102,0.039 1.482,-0.001 0.379,-0.04 0.023,-0.072 -0.792,-0.071 -0.815,0 -1.125,0.033 -0.69,0.072 m -7.778,0.185 c 0.436,0.039 1.103,0.039 1.482,-0.001 0.379,-0.04 0.023,-0.072 -0.792,-0.071 -0.815,0 -1.125,0.033 -0.69,0.072 m -8.24,0.186 c 0.487,0.038 1.237,0.038 1.667,-0.001 0.43,-0.039 0.032,-0.07 -0.885,-0.07 -0.917,0.001 -1.268,0.033 -0.782,0.071 m -7.505,0.183 c 0.331,0.041 0.873,0.041 1.204,0 0.331,-0.041 0.06,-0.075 -0.602,-0.075 -0.662,0 -0.933,0.034 -0.602,0.075 m -6.942,0.184 c 0.281,0.042 0.698,0.041 0.926,-0.003 0.228,-0.044 -0.003,-0.079 -0.512,-0.077 -0.509,0.001 -0.696,0.037 -0.414,0.08 m -86.067,12.274 c 0.501,0.51 0.953,0.926 1.004,0.926 0.051,0 -0.318,-0.416 -0.819,-0.926 -0.502,-0.509 -0.954,-0.926 -1.005,-0.926 -0.051,0 0.318,0.417 0.82,0.926 m 2.639,2.259 c 0.26,0.314 2.453,1.886 2.453,1.757 0,-0.045 -0.604,-0.522 -1.342,-1.06 -0.739,-0.538 -1.238,-0.852 -1.111,-0.697 m 18.425,6.767 c 0.586,0.037 1.544,0.037 2.13,0 0.586,-0.037 0.107,-0.067 -1.065,-0.067 -1.171,0 -1.65,0.03 -1.065,0.067" id="path3-8" style="fill:#ece5dd;fill-opacity:1;fill-rule:evenodd;stroke:none" />
            <path d="m 246.257,91.146 -4.205,1.864 0.244,0.578 c 0.24,0.568 11.832,26.824 29.28,66.319 4.86,11 11.333,25.667 14.386,32.593 15.19,34.46 23.53,53.34 23.592,53.407 0.116,0.124 8.446,-3.58 8.531,-3.794 0.075,-0.189 -17.84,-41.028 -18.352,-41.835 -0.234,-0.369 -4.464,-9.947 -20.323,-46.019 -27.113,-61.67 -28.591,-65.004 -28.798,-64.988 -0.082,0.006 -2.042,0.85 -4.355,1.875 m -91.134,93.992 c -0.799,0.347 -1.616,0.662 -1.817,0.701 -0.2,0.038 -1.297,0.481 -2.437,0.983 -4.227,1.862 -13.28,5.855 -16.239,7.162 -1.681,0.742 -5.264,2.325 -7.963,3.517 -2.699,1.192 -6.699,2.958 -8.889,3.925 -2.19,0.968 -5.315,2.346 -6.945,3.063 -1.629,0.717 -3.034,1.367 -3.12,1.445 -0.15,0.133 0.736,2.386 1.017,2.588 0.147,0.105 17.196,38.632 17.196,38.859 0,0.966 0.183,0.908 7.873,-2.491 4.073,-1.8 15.012,-6.626 24.31,-10.724 9.298,-4.099 16.949,-7.495 17.001,-7.548 0.053,-0.052 -0.44,-1.292 -1.095,-2.755 -0.655,-1.463 -4.794,-10.826 -9.198,-20.807 -4.404,-9.982 -8.06,-18.239 -8.125,-18.349 -0.077,-0.131 -0.617,0.017 -1.569,0.431" id="path4-50" style="fill:#8c8c8a;fill-rule:evenodd;stroke:none" />
         </g>
      </a>
   </g>

</svg>
