<?xml version="1.0" encoding="UTF-8" standalone="no"?>
<svg xmlns:dc="http://purl.org/dc/elements/1.1/" xmlns:cc="http://creativecommons.org/ns#" xmlns:rdf="http://www.w3.org/1999/02/22-rdf-syntax-ns#" xmlns:svg="http://www.w3.org/2000/svg" xmlns="http://www.w3.org/2000/svg" viewBox="0 0 164.62067 275.78811" height="275.78812" width="164.62067" version="1.1" id="svg">
   <metadata id="metadata13">
      <rdf:RDF>
         <cc:Work rdf:about="">
            <dc:format>image/svg+xml</dc:format>
            <dc:type rdf:resource="http://purl.org/dc/dcmitype/StillImage" />
            <dc:title></dc:title>
         </cc:Work>
      </rdf:RDF>
   </metadata>
   <defs id="defs11" />
   <g transform="translate(-497.4326,862.53525)" style="display:inline" id="layer8">
      <g id="g1128">
         <path style="fill:#ece5dd;fill-opacity:1;fill-rule:evenodd;stroke:none" id="path0-31" d="m 561.84256,-809.0172 c -2.074,2.225 -4.005,5.724 -4.254,7.707 -0.054,0.428 0.145,0.053 0.552,-1.039 0.832,-2.232 1.739,-3.829 3.207,-5.646 1.215,-1.506 1.508,-2.109 0.495,-1.022 m 17.713,0.266 c 0,0.107 0.126,0.3 0.281,0.428 0.154,0.128 0.591,0.804 0.972,1.503 0.38,0.698 0.758,1.27 0.84,1.271 0.24,0.002 -1.147,-2.508 -1.642,-2.973 -0.248,-0.233 -0.451,-0.336 -0.451,-0.229 m -4.63,0.46 c -0.254,0.216 -1.338,0.802 -2.407,1.304 -4.382,2.054 -5.333,2.563 -6.173,3.303 -1.135,0.999 -0.978,1.183 0.19,0.222 1.238,-1.018 1.827,-1.343 4.714,-2.607 2.417,-1.057 4.417,-2.183 4.417,-2.485 0,-0.239 -0.256,-0.148 -0.741,0.263 m -8.076,2.675 c -1.097,0.741 -2.479,1.933 -2.479,2.137 0,0.1 0.557,-0.281 1.238,-0.846 0.681,-0.566 1.515,-1.159 1.852,-1.319 0.337,-0.16 0.613,-0.329 0.613,-0.375 0,-0.225 -0.576,-0.035 -1.224,0.403 m 9.499,1.376 c -2.045,1.861 -3.014,2.49 -4.756,3.086 l -1.204,0.412 0.787,0.004 c 1.148,0.007 0.963,0.267 -0.37,0.519 -0.637,0.121 -1.387,0.272 -1.667,0.337 -0.614,0.143 -0.677,-0.157 -0.092,-0.442 0.745,-0.363 -0.717,-0.049 -2.515,0.54 -1.725,0.565 -3.006,1.321 -3.583,2.113 l -0.347,0.476 -0.829,-0.376 c -1.778,-0.807 -2.503,-0.33 -2.482,1.631 0.032,2.988 1.961,5.209 3.814,4.39 0.246,-0.109 0.427,0.114 0.901,1.107 1.699,3.559 5.19,5.483 8.915,4.913 5.028,-0.77 7.016,-3.551 8.116,-11.359 l 0.411,-2.915 -0.578,-0.659 c -0.747,-0.851 -1.776,-2.901 -2.173,-4.33 -0.383,-1.377 -0.171,-1.427 -2.348,0.553 m -13.065,-0.366 c -0.523,0.416 -0.95,0.886 -0.95,1.044 0,0.183 0.334,-0.025 0.918,-0.571 0.505,-0.473 1.005,-0.859 1.111,-0.859 0.106,0 0.193,-0.083 0.193,-0.185 0,-0.335 -0.309,-0.196 -1.272,0.571 m 73.259,4.393 c -1.151,0.699 -2.337,5.108 -2.354,8.757 l -0.003,0.666 2.731,-0.075 c 3.165,-0.087 3.081,-0.121 3.676,1.517 1.439,3.966 0.842,5.577 -2.75,7.422 -2.239,1.151 -2.191,1.055 -1.435,2.831 1.702,4.001 4.135,6.523 4.887,5.068 1.449,-2.803 0.819,-15.878 -1.032,-21.407 -1.3,-3.883 -2.55,-5.489 -3.72,-4.779 m -56.784,0.7 c 0.789,0.714 0.434,0.987 -0.479,0.368 -0.364,-0.248 -0.909,-0.504 -1.212,-0.571 -0.529,-0.116 -0.67,-0.279 -0.44,-0.509 0.17,-0.169 1.735,0.354 2.131,0.712 m -9.727,2.202 c 0.555,0.555 0.602,1.208 0.086,1.208 -0.2,0 -0.454,-0.169 -0.565,-0.376 -0.174,-0.325 -0.318,-0.36 -1.085,-0.258 -0.959,0.127 -1.713,-0.282 -1.341,-0.728 0.373,-0.448 2.411,-0.34 2.905,0.154 m 9.339,0.396 c 0.458,0.46 -0.199,0.829 -1.055,0.593 -0.565,-0.156 -0.744,-0.124 -1.206,0.218 -1.049,0.776 -1.492,-0.004 -0.471,-0.828 0.677,-0.546 2.18,-0.536 2.732,0.017 m -17.63,1.321 c 0.523,0.742 1.148,2.024 1.148,2.354 0,0.451 -0.475,0.332 -0.707,-0.178 -0.156,-0.342 -0.354,-0.463 -0.759,-0.463 -0.739,0 -0.876,-0.296 -0.281,-0.607 l 0.486,-0.255 -0.565,-0.565 c -0.31,-0.311 -0.513,-0.617 -0.449,-0.68 0.265,-0.265 0.793,-0.081 1.127,0.394 m 5.037,0.544 c 0,0.184 -0.778,0.984 -0.958,0.984 -0.254,0 -0.172,-0.413 0.154,-0.773 0.299,-0.331 0.804,-0.464 0.804,-0.211 m 1.111,0.023 c 0,0.083 -0.241,0.382 -0.535,0.664 -0.663,0.635 -1.006,0.304 -0.378,-0.365 0.411,-0.437 0.913,-0.602 0.913,-0.299 m 0.929,0.681 c -0.474,0.504 -0.744,0.593 -0.744,0.245 0,-0.386 0.792,-1.099 0.996,-0.896 0.123,0.123 0.039,0.34 -0.252,0.651 m 1.664,-0.397 c 0,0.359 -0.68,0.922 -0.928,0.768 -0.144,-0.089 -0.079,-0.271 0.206,-0.574 0.466,-0.497 0.722,-0.565 0.722,-0.194 m 5.926,-0.032 c 0,0.258 -0.547,0.894 -0.77,0.894 -0.257,0 -0.177,-0.41 0.15,-0.772 0.35,-0.387 0.62,-0.44 0.62,-0.122 m 1.187,-0.059 c 0.146,0.237 -0.756,1.012 -1.002,0.86 -0.147,-0.09 -0.083,-0.269 0.204,-0.575 0.442,-0.471 0.639,-0.541 0.798,-0.285 m 1.22,0.061 c 0,0.255 -0.732,1.077 -0.958,1.077 -0.282,0 -0.157,-0.435 0.25,-0.867 0.442,-0.471 0.708,-0.549 0.708,-0.21 m 5.485,0.583 c -1.385,3.626 -1.085,10.124 0.467,10.124 0.103,0 0.013,-0.22 -0.198,-0.489 -1.217,-1.546 -1.22,-6.733 -0.006,-9.478 0.415,-0.938 0.42,-0.959 0.203,-0.959 -0.088,0 -0.298,0.361 -0.466,0.802 m -10.453,-0.31 c 0.536,0.485 0.317,1.73 -0.305,1.73 -0.417,0 -0.517,-0.348 -0.193,-0.671 0.27,-0.27 0.271,-0.329 0.012,-0.615 -0.592,-0.655 -0.171,-1.039 0.486,-0.444 m 6.079,-0.183 c 0,0.233 -0.612,0.802 -0.862,0.802 -0.331,0 -0.314,-0.177 0.058,-0.587 0.298,-0.33 0.804,-0.465 0.804,-0.215 m -11.859,1.948 c 1.106,1.187 -0.462,2.839 -1.803,1.899 -0.305,-0.214 -0.412,-0.474 -0.412,-1.008 0,-1.206 1.398,-1.768 2.215,-0.891 m 10.748,0.15 c 1.08,1.08 -0.565,2.756 -1.698,1.731 -0.422,-0.382 -0.439,-1.313 -0.032,-1.762 0.404,-0.447 1.268,-0.431 1.73,0.031 m -3.174,1.04 c 0.777,0.12 0.731,0.591 -0.251,2.595 -1.709,3.487 -4.301,3.597 -5.157,0.22 -0.446,-1.762 -0.642,-2.902 -0.519,-3.025 0.119,-0.119 4.897,0.05 5.927,0.21 m 54.554,0.803 c -2.818,2.307 -6.31,3.999 -9.986,4.838 -1.016,0.232 -1.74,0.457 -1.61,0.5 1.335,0.445 7.941,-2.292 10.842,-4.49 1.955,-1.483 2.047,-1.561 1.944,-1.664 -0.048,-0.048 -0.584,0.319 -1.19,0.816 m -59.898,-0.291 c 0,0.661 5.092,1.049 5.261,0.401 0.12,-0.462 0.41,-0.402 -2.622,-0.541 -2.203,-0.101 -2.639,-0.078 -2.639,0.14 m 64.383,0.805 -0.523,0.078 0.117,1.422 c 0.187,2.264 0.46,4.078 0.875,5.808 l 0.386,1.608 1.991,-0.998 1.992,-0.999 -0.345,-0.703 c -0.478,-0.976 -0.859,-4.532 -0.595,-5.57 l 0.198,-0.78 -1.786,0.027 c -0.982,0.016 -2.022,0.063 -2.31,0.107 m -78.138,3.153 c -0.912,2.777 -0.831,5.222 0.246,7.408 0.503,1.022 1.657,2.11 1.657,1.563 0,-0.087 -0.198,-0.265 -0.439,-0.394 -1.949,-1.043 -2.327,-5.835 -0.764,-9.689 0.072,-0.178 0.05,-0.324 -0.049,-0.324 -0.099,0 -0.392,0.646 -0.651,1.436 m 51.825,0.022 c -1.141,1.846 -0.791,7.196 0.665,10.153 0.735,1.493 0.552,1.438 3.293,0.991 2.732,-0.446 2.468,-0.22 2.134,-1.823 -0.507,-2.428 -0.664,-4.831 -0.464,-7.089 0.103,-1.164 0.188,-2.178 0.189,-2.254 0.002,-0.196 -5.696,-0.174 -5.817,0.022 m -42.145,0.439 c -0.004,0.867 -1.138,5.881 -1.33,5.881 -0.577,0 0.336,1.791 1.361,2.668 0.697,0.597 0.753,0.702 0.506,0.949 -0.247,0.247 -0.211,0.416 0.326,1.522 0.332,0.685 0.953,2.246 1.379,3.47 1.162,3.339 2.215,6.021 2.364,6.021 0.151,0 0.179,-0.094 1.487,-4.926 1.549,-5.72 2.245,-9.043 2.043,-9.749 -0.095,-0.33 -0.173,-1.101 -0.174,-1.713 -0.002,-0.612 -0.051,-1.408 -0.111,-1.769 l -0.109,-0.657 -2.158,0.009 c -2.42,0.01 -3.534,-0.269 -4.829,-1.207 -0.415,-0.3 -0.754,-0.525 -0.755,-0.499 m 14.657,1.649 c 0.221,2.066 1.932,4.788 3.01,4.788 0.146,0 0.419,0.046 0.606,0.103 0.186,0.056 -0.044,-0.105 -0.512,-0.359 -1.605,-0.872 -2.61,-2.563 -2.877,-4.841 -0.066,-0.558 -0.175,-1.014 -0.244,-1.014 -0.068,0 -0.06,0.595 0.017,1.323 m 41.27,1.379 c -0.561,0.14 -1.749,0.262 -2.641,0.272 -1.089,0.013 -1.582,0.083 -1.501,0.215 0.24,0.387 5.253,-0.212 5.253,-0.629 0,-0.084 -0.021,-0.144 -0.047,-0.132 -0.025,0.011 -0.504,0.134 -1.064,0.274 m -53.882,2.696 c 0.114,0.422 0.404,1.212 0.644,1.755 0.455,1.031 0.325,1.526 -0.194,0.734 -0.393,-0.6 -1.201,-2.918 -1.083,-3.109 0.206,-0.333 0.438,-0.107 0.633,0.62 m -16.6,0.496 c -1.594,1.156 -3.711,4.233 -5.527,8.033 -2.696,5.645 -7.606,21.465 -8.067,25.993 -0.639,6.279 2.036,11.453 6.607,12.782 2.282,0.663 16.637,-0.552 17.806,-1.508 0.072,-0.059 1.135,-9.613 1.141,-10.245 0.003,-0.397 -0.055,-0.429 -0.594,-0.321 -1.329,0.266 -7.474,1.036 -10.514,1.317 -3.535,0.328 -4.535,0.516 -5.624,1.06 -0.506,0.253 -0.774,0.3 -0.913,0.161 -0.139,-0.139 0.078,-0.32 0.737,-0.617 l 0.934,-0.42 -1.132,-0.185 c -0.622,-0.102 -1.109,-0.268 -1.08,-0.37 0.057,-0.206 2.042,-0.148 3.374,0.097 1.125,0.208 0.485,1.615 5.604,-12.317 0.273,-0.742 1.99,-3.255 2.307,-3.377 0.517,-0.199 0.436,0.132 -0.268,1.092 -1.408,1.919 -1.359,1.62 -0.658,4.028 1.199,4.12 2.287,8.794 2.171,9.324 -0.111,0.504 -0.099,0.512 0.597,0.413 2.887,-0.41 5.862,-0.871 6.666,-1.032 l 0.957,-0.192 0.129,-0.963 c 0.195,-1.453 0.905,-4.067 2.116,-7.792 1.127,-3.465 1.937,-6.397 1.803,-6.53 -0.041,-0.042 -0.525,0.229 -1.074,0.602 -1.216,0.826 -4.122,2.252 -4.896,2.402 -0.476,0.092 -0.821,-0.065 -2.213,-1.012 -1.995,-1.358 -2.117,-1.555 -2.117,-3.447 0,-1.872 0.146,-2.123 1.937,-3.354 1.647,-1.132 1.894,-1.172 3.969,-0.633 1.806,0.469 1.821,0.512 -0.542,-1.496 -2.46,-2.089 -2.42,-1.779 -0.528,-4.08 0.389,-0.472 0.707,-0.896 0.707,-0.942 0,-0.465 -4.329,-2.894 -5.647,-3.169 -2.16,-0.451 -3.97,-1.376 -5.305,-2.711 -1.299,-1.299 -1.757,-1.393 -2.863,-0.591 m 27.977,1.898 c -0.711,0.721 -1.977,1.858 -2.814,2.526 l -1.522,1.214 0.347,0.484 c 0.192,0.266 0.814,0.997 1.384,1.624 1.348,1.484 1.458,1.208 -1.789,4.473 l -2.824,2.84 1.701,-1.028 c 3.022,-1.827 5.149,-2.888 5.788,-2.888 0.921,0 3.345,2.381 3.345,3.285 0,1.311 -1.525,5.058 -2.168,5.326 -1.366,0.57 -3.281,0.396 -5.197,-0.472 -1.511,-0.686 -1.491,-0.729 -0.473,1.035 1.1,1.905 2.955,5.799 3.857,8.094 1.26,3.206 2.03,1.511 2.956,-6.507 0.527,-4.563 0.486,-4.474 2.353,-5.03 3.56,-1.06 5.641,-1.305 7.005,-0.824 0.433,0.153 0.811,0.278 0.839,0.278 0.069,0 -1.834,-7.323 -2.334,-8.982 -1.059,-3.517 -3.156,-5.635 -6.402,-6.467 -2.211,-0.567 -2.582,-0.474 -4.052,1.019 m 36.81,2.439 -1.713,0.178 -0.002,0.582 c -0.002,0.321 -0.049,0.791 -0.105,1.046 -0.083,0.373 0.089,0.257 0.886,-0.602 1.417,-1.527 2.184,-1.295 1.908,0.577 l -0.127,0.858 0.572,-0.544 c 0.543,-0.516 0.895,-2.388 0.433,-2.3 -0.076,0.015 -0.91,0.107 -1.852,0.205 m -0.972,1.975 c -0.662,0.675 -1.739,1.642 -2.393,2.149 -1.758,1.362 -1.899,1.738 -1.932,5.137 -0.034,3.54 -0.116,3.698 -4.975,9.607 l -1.752,2.13 1.343,0.692 c 0.739,0.38 1.878,1.181 2.531,1.779 l 1.187,1.088 2.672,-4.473 c 2.546,-4.264 3.566,-5.634 4.88,-6.554 l 0.543,-0.38 -0.826,-0.016 c -0.454,-0.009 -1.147,-0.151 -1.538,-0.314 l -0.712,-0.298 0.135,-3.553 0.135,-3.552 0.842,-0.86 c 1.097,-1.122 1.18,-1.29 1.27,-2.572 0.1,-1.441 -0.005,-1.442 -1.41,-0.01 m 2.268,1.006 c -3.173,3.203 -2.04,3.43 1.768,0.355 1.012,-0.818 1.399,-1.406 1.245,-1.892 -0.274,-0.861 -1.01,-0.485 -3.013,1.537 m -63.296,0.778 c 0.757,1.526 2.324,5.718 2.324,6.218 0,0.782 -0.585,-0.171 -1.109,-1.804 -0.347,-1.081 -1.072,-2.882 -1.612,-4 -0.867,-1.798 -1.078,-2.562 -0.631,-2.286 0.078,0.048 0.54,0.89 1.028,1.872 m 66.271,-0.881 c -0.21,0.284 -1.143,1.054 -2.072,1.71 -2.396,1.691 -2.431,3.115 -0.048,1.948 3.566,-1.746 4.368,-2.637 3.349,-3.722 -0.546,-0.581 -0.76,-0.57 -1.229,0.064 m -0.521,3.286 c -1.943,1.048 -2.563,1.929 -1.467,2.086 0.719,0.102 3.937,-1.539 4.073,-2.078 0.326,-1.302 -0.205,-1.303 -2.606,-0.008 m -36.473,1.364 c 0.17,1.676 0.098,2.316 -0.226,1.992 -0.116,-0.116 -0.41,-2.505 -0.422,-3.424 -0.02,-1.47 0.46,-0.41 0.648,1.432 m 31.503,0.047 c -0.286,4.976 -0.23,5.157 1.629,5.157 1.269,0 2.058,-2.976 1.137,-4.29 -0.163,-0.232 -0.296,-0.565 -0.296,-0.739 0,-0.208 -0.175,-0.337 -0.509,-0.376 -0.393,-0.045 -0.55,-0.196 -0.687,-0.66 -0.112,-0.381 -0.295,-0.602 -0.5,-0.602 -0.177,0 -0.397,-0.133 -0.488,-0.295 -0.108,-0.194 -0.206,0.423 -0.286,1.805 m 5.572,0.491 c -1.006,0.469 -1.435,0.769 -1.435,1.001 0,0.754 3.021,-0.419 3.114,-1.21 0.072,-0.61 0.08,-0.611 -1.679,0.209 m -0.297,1.562 c -0.8,0.314 -1.061,0.348 -1.343,0.171 -0.307,-0.191 -0.351,-0.164 -0.351,0.22 0,0.241 -0.053,0.825 -0.118,1.298 -0.164,1.198 0.192,1.136 1.485,-0.26 0.871,-0.941 1.572,-1.878 1.371,-1.832 -0.029,0.007 -0.499,0.188 -1.044,0.403 m -45.647,1.489 -2.378,0.966 2.914,0.052 c 3.355,0.058 3.137,0.134 2.929,-1.015 -0.219,-1.202 -0.514,-1.202 -3.465,-0.003 m -10.93,1.078 c -0.16,0.797 -0.147,1.607 0.027,1.715 0.148,0.091 5.113,-1.372 5.303,-1.563 0.058,-0.058 -0.831,-0.208 -1.976,-0.333 -1.145,-0.125 -2.342,-0.266 -2.66,-0.314 -0.526,-0.079 -0.588,-0.035 -0.694,0.495 m 24.42,-0.08 c -1.613,0.354 -4.301,1.056 -4.649,1.215 -0.517,0.235 -0.509,0.196 -1.096,5.195 -0.716,6.091 -1.279,7.429 -3.615,8.604 -1.17,0.588 -6.713,2.283 -7.538,2.305 -0.359,0.009 -0.417,0.11 -0.417,0.735 0,1.543 0.402,7.106 0.522,7.224 0.07,0.069 1.127,-0.501 2.349,-1.265 1.918,-1.199 3.835,-2.2 7.288,-3.808 0.444,-0.206 1.747,-0.604 2.895,-0.884 3.613,-0.881 4.027,-1.369 4.637,-5.464 0.471,-3.164 1.456,-5.618 2.263,-5.641 0.326,-0.01 0.292,0.121 -0.204,0.793 -0.758,1.025 -0.741,1.05 0.44,0.651 1.349,-0.456 1.582,-0.777 1.736,-2.4 0.213,-2.231 -0.344,-2.404 -2.581,-0.799 -0.876,0.629 -1.501,0.962 -1.605,0.858 -0.291,-0.29 2.723,-2.443 3.42,-2.443 0.266,0 0.333,-0.114 0.288,-0.491 -0.111,-0.925 -0.493,-0.924 -2.542,0.003 -1.045,0.472 -2.017,0.858 -2.162,0.858 -0.677,0 -0.091,-0.404 1.782,-1.229 1.991,-0.877 2.043,-0.915 1.991,-1.456 -0.08,-0.826 -2.156,-0.589 -4.822,0.549 -0.23,0.099 -0.324,0.054 -0.324,-0.153 0,-0.813 5.132,-1.838 5.46,-1.09 0.148,0.336 0.326,0.414 0.926,0.402 1.624,-0.031 2.941,-0.765 1.821,-1.015 -0.287,-0.064 -0.772,-0.227 -1.078,-0.363 -2.206,-0.976 -3.658,-1.226 -5.185,-0.891 m -16.716,4.542 c -0.12,1.762 -0.428,4.496 -0.685,6.075 -0.499,3.072 -0.619,5.74 -0.258,5.74 0.116,0 0.307,0.132 0.424,0.292 0.191,0.26 0.51,0.207 2.984,-0.495 3.226,-0.916 2.934,-0.785 2.708,-1.214 -0.098,-0.188 -0.405,-1.3 -0.68,-2.472 -0.966,-4.103 -2.944,-9.492 -3.928,-10.704 -0.344,-0.423 -0.349,-0.398 -0.565,2.778 m -21.339,-2.272 c 0,0.22 -4.593,13.742 -4.706,13.855 -0.578,0.577 -0.13,-1.097 1.895,-7.083 2.013,-5.95 2.811,-7.872 2.811,-6.772 m 41.852,0.632 c 0,0.085 0.175,0.297 0.388,0.47 0.219,0.177 0.41,0.573 0.436,0.903 0.025,0.324 0.162,0.729 0.305,0.901 0.318,0.383 0.316,2.482 -0.003,3.449 -0.256,0.777 -0.714,1.114 -2.276,1.675 -1.315,0.472 -1.256,0.352 -1.718,3.501 -0.165,1.127 -0.458,2.465 -0.651,2.973 l -0.351,0.923 1.213,2.432 c 3.267,6.545 5.3,7.771 9.508,5.73 2.01,-0.974 7.451,-7.081 6.752,-7.579 -1.373,-0.978 -2.271,-1.794 -3.065,-2.785 -0.976,-1.218 -2.099,-2.286 -2.405,-2.286 -0.102,0 -1.133,0.979 -2.29,2.176 -1.156,1.197 -2.165,2.116 -2.24,2.042 -0.075,-0.074 0.38,-0.686 1.011,-1.361 0.949,-1.014 1.102,-1.263 0.885,-1.44 -0.144,-0.117 -0.915,-2.088 -1.713,-4.38 -2.833,-8.141 -2.543,-7.463 -3.204,-7.483 -0.32,-0.009 -0.582,0.053 -0.582,0.139 m -28.97,8.374 c 0.346,1.869 0.933,4.425 1.306,5.683 0.06,0.205 -0.004,0.324 -0.174,0.324 -0.388,0 -1.486,-4.269 -1.9,-7.391 -0.27,-2.032 0.339,-0.936 0.768,1.384 m 6.112,0.187 c -0.068,0.272 -0.088,0.529 -0.044,0.573 0.044,0.044 0.135,-0.143 0.203,-0.414 0.068,-0.272 0.088,-0.529 0.045,-0.573 -0.044,-0.044 -0.135,0.143 -0.204,0.414 m -0.555,1.852 c -0.068,0.271 -0.088,0.529 -0.045,0.573 0.044,0.043 0.135,-0.143 0.204,-0.414 0.068,-0.272 0.088,-0.529 0.044,-0.573 -0.044,-0.044 -0.135,0.143 -0.203,0.414 m 16.199,6.366 c -0.148,0.094 -0.689,0.226 -1.204,0.293 -2.215,0.29 -11.98,5.385 -11.815,6.164 0.125,0.59 -6.06,2.603 -10.925,3.556 l -1.065,0.208 v 0.704 c 0,0.731 -0.318,1.792 -0.919,3.066 -0.36,0.764 -3.667,7.909 -6.898,14.908 -6.711,14.531 -9.807,24.235 -10.71,33.559 -0.377,3.892 -0.312,4.112 1.332,4.49 0.167,0.038 1.126,0.462 2.129,0.94 9.79,4.669 27.548,5.451 41.929,1.848 l 0.452,-0.113 -0.127,-5.038 c -0.169,-6.718 -0.705,-13.513 -1.556,-19.738 -0.184,-1.346 -0.224,-2.171 -0.111,-2.284 0.285,-0.285 0.347,-0.03 0.75,3.095 0.881,6.817 1.287,12.066 1.444,18.657 0.067,2.827 0.184,5.139 0.258,5.139 0.659,0 3.167,-0.991 5.313,-2.1 0.49,-0.253 0.566,-2.899 0.228,-7.992 -0.483,-7.299 -1.4,-12.539 -5.057,-28.889 -3.39,-15.163 -3.565,-16.613 -3.095,-25.741 0.272,-5.278 0.283,-5.134 -0.353,-4.732 m 13.668,3.236 c -0.439,0.963 -2.08,1.36 -3.035,0.734 -0.398,-0.261 -0.686,-0.961 -0.318,-0.772 1.58,0.813 2.116,0.772 2.848,-0.217 0.489,-0.662 0.841,-0.483 0.505,0.255 m -14.603,-0.096 c 0,0.772 -2.743,7.61 -3.053,7.61 -0.558,0 -0.811,-0.655 -0.304,-0.788 0.344,-0.09 1.753,-3.377 2.54,-5.925 0.275,-0.89 0.817,-1.485 0.817,-0.897 m -18.632,8.257 c 1.423,0.388 2.037,0.455 3.821,0.417 2,-0.042 2.96,0.084 2.96,0.391 0,0.352 -5.649,0.088 -7.117,-0.333 -1.011,-0.29 -1.774,-0.396 -2.453,-0.34 -0.862,0.072 -0.986,0.04 -0.986,-0.257 0,-0.504 1.675,-0.45 3.775,0.122 m 14.697,0.588 c 1.655,0.066 3.009,0.188 3.009,0.272 0,0.315 -1.043,0.394 -3.128,0.238 -1.182,-0.089 -2.894,-0.167 -3.803,-0.174 -1.063,-0.009 -1.68,-0.089 -1.725,-0.225 -0.081,-0.243 1.014,-0.409 1.99,-0.302 0.356,0.04 2.002,0.126 3.657,0.191 m -0.847,4.153 c 0.498,0.267 1.734,2.92 1.478,3.176 -0.126,0.126 -0.418,-0.289 -0.895,-1.272 -0.757,-1.559 -1.321,-1.929 -1.538,-1.009 -0.149,0.629 -0.559,0.719 -0.559,0.122 0,-0.877 0.787,-1.406 1.514,-1.017 m -16.144,10.258 c 0,0.254 -0.496,2.001 -1.103,3.884 -2.754,8.54 -4.077,15.052 -5.747,28.292 -0.394,3.131 -0.774,5.784 -0.843,5.896 -0.401,0.648 -0.369,-0.586 0.112,-4.458 1.761,-14.16 3.155,-21.167 5.904,-29.678 0.617,-1.911 1.122,-3.627 1.122,-3.812 0,-0.186 0.055,-0.393 0.123,-0.461 0.252,-0.251 0.432,-0.11 0.432,0.337 m 8.269,8.475 c -1.412,11.832 -1.894,16.399 -2.582,24.475 -0.313,3.672 -0.47,4.82 -0.667,4.886 -0.296,0.098 -0.259,-0.68 0.367,-7.741 0.633,-7.142 2.247,-21.661 2.486,-22.361 0.231,-0.676 0.504,-0.165 0.396,0.741 m 8.752,18.518 c 0.699,3.886 1.432,12.61 1.104,13.14 -0.267,0.433 -0.418,-0.445 -0.559,-3.266 -0.155,-3.069 -0.556,-6.867 -0.987,-9.34 -0.135,-0.777 -0.207,-1.476 -0.16,-1.552 0.222,-0.362 0.411,-0.042 0.602,1.018 m 7.66,16.625 c -1.217,0.489 -10.821,2.139 -13.548,2.327 -1.555,0.107 -1.819,0.168 -1.558,0.359 1.237,0.904 0.779,9.531 -1.234,23.23 -0.934,6.355 -0.93,5.938 -0.053,5.72 1.866,-0.464 8.414,-0.38 10.33,0.133 0.791,0.212 6.753,-27.919 6.753,-31.864 0,-0.129 -0.203,-0.101 -0.69,0.095 m -36.189,0.98 c 1.095,1.325 -0.149,8.289 -3.097,17.349 -0.912,2.801 -1.871,5.884 -2.131,6.852 -0.494,1.84 -1.217,5 -1.143,5 0.023,0 0.702,-0.171 1.507,-0.38 3.087,-0.799 8.04,-0.62 10.691,0.386 l 0.894,0.339 0.556,-1.237 c 5.291,-11.774 6.747,-15.957 9.137,-26.264 0.088,-0.38 0.011,-0.402 -1.805,-0.52 -5.248,-0.342 -11.073,-1.039 -14.304,-1.712 -0.499,-0.104 -0.53,-0.085 -0.305,0.187 m 32.558,9.689 c -0.638,1.213 -2.84,2.828 -3.874,2.841 -0.543,0.007 -0.361,-0.325 0.296,-0.542 1.132,-0.374 2.279,-1.248 2.905,-2.214 0.646,-0.996 1.187,-1.065 0.673,-0.085 m -23.75,3.339 c -0.598,0.481 -2.233,1.15 -3.204,1.311 -1.044,0.173 -0.604,-0.343 0.543,-0.636 0.554,-0.142 1.425,-0.496 1.935,-0.785 1.063,-0.605 1.527,-0.534 0.726,0.11 m 11.59,46.127 c 10e-4,0.484 0.694,1.527 1.015,1.527 0.354,0 0.367,-0.297 0.019,-0.431 -0.144,-0.055 -0.369,-0.397 -0.5,-0.76 -0.253,-0.7 -0.535,-0.878 -0.534,-0.336 m -30.295,1.436 c -0.126,0.502 0.299,1.33 0.776,1.513 0.486,0.186 0.48,-0.073 -0.012,-0.565 -0.362,-0.362 -0.45,-0.592 -0.361,-0.945 0.071,-0.285 0.038,-0.467 -0.085,-0.467 -0.111,0 -0.254,0.209 -0.318,0.464" />
         <path style="fill:#757575;fill-opacity:1;fill-rule:evenodd;stroke:none" id="path1-7" d="m 567.17256,-815.8182 c -4.173,0.906 -8.03,4.448 -9.613,8.828 -0.675,1.868 -1.015,3.51 -1.603,7.739 -0.591,4.251 -0.648,4.491 -2.061,8.643 -1.615,4.747 -1.701,5.801 -0.724,8.903 0.116,0.368 0.067,0.417 -0.419,0.417 -2.04,0 -5.831,5.412 -8.431,12.037 -2.287,5.828 -6.16,18.781 -6.608,22.096 -0.321,2.382 -0.264,3.879 0.257,6.751 0.748,4.118 4.699,7.542 8.704,7.542 3.417,0 7.811,-0.307 10.256,-0.715 2.28,-0.382 2.423,-0.386 2.503,-0.081 0.211,0.807 -0.958,3.663 -4.456,10.888 -0.913,1.884 -1.938,4.051 -2.28,4.815 -0.341,0.764 -1.053,2.306 -1.583,3.426 -6.384,13.505 -9.788,24.808 -10.426,34.63 -0.18,2.763 -0.212,2.608 0.581,2.757 0.334,0.062 0.927,0.285 1.318,0.495 0.391,0.209 0.75,0.342 0.797,0.295 0.047,-0.047 0.784,0.242 1.638,0.642 1.857,0.87 5.04,1.936 6.52,2.184 0.588,0.098 2.037,0.347 3.22,0.552 2.668,0.465 9.671,1.13 11.886,1.13 1.498,0 1.638,0.03 1.519,0.324 -0.073,0.178 -0.408,1.491 -0.744,2.917 -1.17,4.955 -2.784,10.148 -4.287,13.796 -0.725,1.757 -4.71,10.992 -4.775,11.065 -0.023,0.026 -0.522,-0.118 -1.109,-0.32 -1.731,-0.596 -4.944,-0.993 -6.919,-0.856 -1.485,0.103 -2.247,0.231 -4.815,0.804 -0.499,0.111 -0.537,0.426 0.434,-3.563 0.373,-1.528 1.465,-5.195 2.429,-8.148 2.694,-8.257 3.51,-12.096 3.365,-15.834 -0.056,-1.43 -0.095,-1.574 -0.432,-1.574 -0.348,0 -0.377,0.162 -0.484,2.685 -0.176,4.154 -0.632,6.162 -3.149,13.889 -2.795,8.581 -3.741,12.776 -5.158,22.876 -1.345,9.593 -1.693,11.777 -2.621,16.474 -0.71,3.588 -1.064,4.961 -1.576,6.111 -1.868,4.193 -1.783,3.829 -1.933,8.336 -0.075,2.24 -0.195,4.455 -0.267,4.922 -0.162,1.046 -0.291,0.984 4.077,1.945 4.088,0.899 4.262,0.919 4.809,0.561 0.441,-0.289 0.477,-0.277 1.173,0.427 2.001,2.021 14.379,4.125 17.024,2.894 2.508,-1.168 2.362,-3.048 -0.366,-4.695 -3.565,-2.152 -10.295,-6.914 -11.631,-8.229 -1.11,-1.092 -2.953,-3.348 -2.953,-3.613 0,-0.105 -0.117,-0.236 -0.259,-0.291 -0.44,-0.168 -0.712,-2.415 -0.486,-4.014 0.281,-1.995 0.55,-2.827 2.796,-8.655 3.852,-9.992 6.004,-15.207 11.372,-27.549 2.263,-5.203 3.245,-7.711 4.321,-11.04 1.05,-3.248 2.811,-10.087 2.811,-10.917 v -0.543 h 1.621 1.62 l 0.093,1.528 c 0.333,5.509 0.034,9.702 -1.393,19.501 -1.749,12.002 -1.658,10.562 -1.677,26.656 l -0.017,14.26 -0.49,1.574 c -0.734,2.362 -0.962,4.297 -0.708,6.007 0.116,0.778 0.21,1.985 0.21,2.681 0,1.419 0.085,1.545 1.249,1.856 3.668,0.981 8.011,1.181 8.011,0.369 0,-0.103 0.312,0.14 0.694,0.541 0.863,0.907 0.86,0.906 7.824,2.071 6.981,1.169 8.343,1.125 9.848,-0.316 1.606,-1.539 1.234,-2.205 -2.314,-4.14 -8.45,-4.61 -10.994,-6.373 -13.969,-9.68 l -1.157,-1.287 v -1.505 c 0.004,-7.561 1.692,-17.787 5.939,-35.988 2.742,-11.748 3.732,-16.651 4.627,-22.924 0.668,-4.679 0.52,-4.231 1.498,-4.519 0.443,-0.131 1.345,-0.521 2.004,-0.869 0.658,-0.347 1.298,-0.631 1.422,-0.631 1.502,0 -0.309,-17.293 -3.075,-29.351 -5.184,-22.603 -5.385,-23.873 -5.012,-31.76 0.099,-2.088 0.198,-4.522 0.221,-5.409 0.041,-1.595 0.047,-1.615 0.585,-1.838 0.299,-0.124 0.772,-0.418 1.051,-0.652 l 0.508,-0.428 0.598,1.34 c 0.796,1.784 2.67,5.036 3.468,6.02 2.147,2.645 6.137,2.209 9.548,-1.044 3.094,-2.951 9.422,-11.587 8.331,-11.368 -0.366,0.073 -0.366,0.073 2.344,-4.451 3.317,-5.537 3.371,-5.608 5.516,-7.137 2.77,-1.975 5.121,-4.716 5.03,-5.866 -0.024,-0.306 0.056,-0.738 0.177,-0.96 0.353,-0.649 0.271,-1.483 -0.177,-1.797 -0.357,-0.25 -0.374,-0.335 -0.168,-0.832 0.281,-0.678 -0.151,-1.565 -0.929,-1.909 -0.288,-0.128 -0.553,-0.446 -0.653,-0.784 -0.207,-0.702 -1.34,-0.917 -1.946,-0.368 -0.338,0.306 -0.352,0.298 -0.349,-0.219 0.006,-1.089 0.031,-1.096 3.833,-1.077 4.98,0.024 6.096,0.232 12.085,2.251 2.564,0.865 3.319,1.043 4.739,1.117 l 1.689,0.088 0.397,-0.557 c 1.7,-2.388 1.14,-16.204 -0.907,-22.36 -1.219,-3.669 -2.706,-5.456 -4.115,-4.947 -0.341,0.123 -0.741,0.224 -0.888,0.224 -0.669,0 -1.937,0.972 -4.336,3.321 -6.125,5.998 -13.192,9.351 -20.212,9.589 l -3.175,0.108 -0.252,0.945 -0.252,0.945 -0.891,0.102 c -1.052,0.121 -1.23,0.341 -1.233,1.526 -0.005,1.563 0.562,6.079 0.887,7.056 l 0.313,0.945 1.25,-0.014 c 0.688,-0.008 1.25,0.038 1.25,0.104 0,0.749 0.682,0.883 2.716,0.535 1.104,-0.189 2.111,-0.344 2.238,-0.345 0.647,-0.005 0.271,2.333 -0.463,2.875 -2.52,1.861 -2.699,2.243 -2.827,6.012 -0.121,3.588 -0.01,3.302 -2.522,6.499 -2.905,3.697 -4.161,5.144 -4.519,5.204 -0.184,0.031 -1.06,0.89 -1.946,1.908 -0.886,1.019 -2.611,2.918 -3.833,4.221 -1.223,1.303 -2.162,2.428 -2.088,2.5 0.074,0.072 1.105,-0.893 2.292,-2.144 l 2.156,-2.276 0.659,0.453 c 0.363,0.249 0.903,0.773 1.2,1.164 0.967,1.274 2.009,2.331 3.08,3.124 l 1.05,0.777 -1.323,1.646 c -3.866,4.809 -6.241,6.556 -8.908,6.553 -2.72,-0.003 -4.011,-1.349 -6.787,-7.075 l -0.962,-1.983 0.303,-0.756 c 0.166,-0.416 0.477,-1.852 0.69,-3.192 0.512,-3.21 0.43,-3.058 1.9,-3.553 0.69,-0.232 1.428,-0.595 1.639,-0.806 0.645,-0.645 0.956,-3.673 0.422,-4.116 -0.153,-0.127 -0.278,-0.513 -0.278,-0.858 0,-0.398 -0.135,-0.743 -0.37,-0.944 -0.558,-0.478 -0.462,-0.79 0.243,-0.79 0.587,0 0.632,0.05 1.014,1.157 2.587,7.496 3.816,10.88 3.951,10.88 0.233,0 0.206,-0.19 -0.192,-1.314 -4.006,-11.332 -3.864,-10.807 -2.977,-11.002 1.292,-0.283 1.314,-1.183 0.038,-1.606 -0.48,-0.159 -1.616,-0.558 -2.524,-0.886 -1.929,-0.699 -2.355,-0.683 -5.942,0.216 -2.586,0.649 -3.202,0.926 -3.324,1.493 -0.049,0.227 -0.302,2.247 -0.561,4.488 -0.524,4.52 -0.764,5.638 -1.471,6.844 -0.7,1.194 -0.724,1.181 -1.494,-0.786 -0.872,-2.233 -2.912,-6.499 -4.043,-8.458 -0.996,-1.725 -0.993,-1.746 0.18,-1.152 3.055,1.547 5.525,1.402 6.427,-0.376 1.506,-2.973 1.658,-4.441 0.577,-5.596 -2.272,-2.429 -2.656,-2.379 -8.216,1.076 -0.775,0.481 -1.658,1.029 -1.964,1.216 -0.305,0.188 0.486,-0.658 1.759,-1.88 1.274,-1.222 2.719,-2.694 3.213,-3.273 l 0.898,-1.051 -0.833,-0.967 c -0.459,-0.532 -1.127,-1.307 -1.486,-1.721 l -0.652,-0.754 1.258,-0.959 c 0.692,-0.528 2.011,-1.668 2.93,-2.534 l 1.672,-1.574 h 1.122 c 1.369,0 3.048,0.576 4.512,1.548 2.504,1.662 2.945,2.618 5.158,11.184 0.624,2.415 1.097,3.668 1.097,2.905 0,-0.411 -2.518,-9.62 -2.862,-10.467 -0.811,-1.997 -2.733,-4.064 -4.215,-4.534 -0.471,-0.15 1.07,-0.819 1.892,-0.823 1.614,-0.007 4.074,-2.231 4.074,-3.683 0,-0.341 -0.036,-0.349 -0.509,-0.102 -1.534,0.801 -3.349,-0.33 -5.006,-3.118 -1.179,-1.982 -1.243,-2.483 -0.967,-7.59 0.379,-7.039 0.064,-10.934 -1.08,-13.359 -0.643,-1.364 -3.017,-4.12 -4.18,-4.854 -0.465,-0.293 -1.325,-0.887 -1.912,-1.32 -2.474,-1.824 -7.232,-2.605 -10.951,-1.798 m -4.598,6.314 c 0.065,0.065 -0.265,0.544 -0.734,1.065 -1.677,1.865 -2.864,3.892 -3.659,6.254 -0.25,0.744 -0.544,1.382 -0.652,1.418 -0.689,0.229 1.224,-4.369 2.612,-6.278 1.371,-1.886 2.184,-2.708 2.433,-2.459 m 13.167,1.022 c -0.259,0.419 -2.206,1.496 -4.613,2.551 -2.769,1.214 -3.969,1.91 -4.806,2.783 -0.595,0.621 -0.841,0.706 -0.841,0.29 0,-0.455 1.838,-1.768 3.704,-2.646 4.63,-2.178 5.495,-2.611 5.925,-2.963 0.454,-0.374 0.859,-0.383 0.631,-0.015 m 4.457,0.042 c 0.573,0.573 1.627,2.665 1.471,2.918 -0.067,0.108 -0.415,-0.333 -0.773,-0.979 -0.359,-0.647 -0.849,-1.389 -1.089,-1.649 -0.746,-0.808 -0.391,-1.071 0.391,-0.29 m -12.031,2.338 c 0.063,0.103 -0.036,0.241 -0.221,0.306 -0.472,0.169 -2.487,1.607 -2.91,2.078 -0.392,0.436 -0.666,0.507 -0.666,0.175 0,-0.656 3.511,-3.022 3.797,-2.559 m 11.85,4.351 c 0.192,0.305 0.614,0.889 0.937,1.297 l 0.589,0.742 -0.504,3.24 c -0.571,3.677 -0.908,4.971 -1.703,6.546 -3.175,6.29 -12.569,5.957 -15.445,-0.547 l -0.444,-1.004 -1.015,0.119 c -1.522,0.179 -2.89,-1.561 -3.174,-4.036 -0.263,-2.286 0.563,-3.044 2.482,-2.276 l 0.712,0.284 0.683,-0.644 c 1.061,-1.001 2.742,-1.716 5.864,-2.496 4.199,-1.049 4.515,-1.215 7.589,-3.971 l 1.755,-1.575 0.663,1.883 c 0.365,1.035 0.82,2.132 1.011,2.438 m -15.462,-3.433 c 0,0.098 -0.174,0.272 -0.387,0.386 -0.213,0.114 -0.715,0.503 -1.116,0.866 -0.401,0.362 -0.789,0.597 -0.863,0.522 -0.17,-0.173 1.745,-1.952 2.101,-1.952 0.146,0 0.265,0.08 0.265,0.178 m 5.833,4.577 c -0.868,0.195 -1.574,0.469 -1.574,0.611 0,0.084 0.388,0.036 0.863,-0.107 0.475,-0.143 1.183,-0.259 1.574,-0.259 0.391,0 0.711,-0.084 0.711,-0.186 0,-0.184 -0.87,-0.217 -1.574,-0.059 m 67.536,0.418 c 0.862,0.678 2.211,3.671 2.921,6.483 1.059,4.19 1.693,15.077 1.043,17.881 -0.694,2.987 -1.02,3.104 -2.919,1.053 -1.15,-1.242 -3.589,-5.791 -3.252,-6.065 0.023,-0.019 0.938,-0.511 2.032,-1.093 1.095,-0.582 1.991,-1.134 1.991,-1.227 0,-0.253 -0.018,-0.246 -2.129,0.871 -1.08,0.572 -2.007,0.997 -2.06,0.944 -0.37,-0.369 -1.147,-4.617 -1.304,-7.122 l -0.119,-1.898 2.297,-10e-4 h 2.297 l -0.061,1.898 c -0.069,2.177 0.333,4.538 0.836,4.908 1.428,1.052 2.138,-2.201 1.174,-5.387 -0.604,-1.996 -0.628,-2.008 -3.897,-1.882 l -2.646,0.102 0.113,-2.18 c 0.27,-5.203 1.994,-8.613 3.683,-7.285 m -60.406,0.176 c 0,0.091 0.283,0.218 0.629,0.283 0.347,0.065 0.936,0.326 1.311,0.58 0.584,0.396 0.673,0.416 0.621,0.134 -0.111,-0.597 -2.561,-1.551 -2.561,-0.997 m 57.855,0.53 c -2.446,5.692 -1.967,15.066 1.101,21.585 0.793,1.683 2.348,3.961 2.831,4.146 0.138,0.053 0.25,0.171 0.25,0.263 0,0.316 -1.576,-0.061 -4.867,-1.163 -6.239,-2.09 -11.931,-2.618 -19.105,-1.772 -0.849,0.101 -1.526,-6.089 -1.039,-9.495 l 0.225,-1.573 1.606,-0.395 c 4.714,-1.158 10.772,-4.763 15.214,-9.053 2.174,-2.1 3.534,-3.19 4.033,-3.233 0.027,-0.002 -0.085,0.308 -0.249,0.69 m -67.438,1.849 c -0.52,0.047 -0.787,0.159 -0.787,0.331 0,0.415 0.666,0.661 1.45,0.535 0.613,-0.098 0.767,-0.052 1.013,0.299 0.311,0.443 0.87,0.395 0.87,-0.075 0,-0.359 -1.062,-1.234 -1.45,-1.193 -0.17,0.017 -0.664,0.064 -1.096,0.103 m 8.796,0.695 c -0.382,0.263 -0.695,0.592 -0.695,0.73 0,0.428 0.51,0.473 0.999,0.088 0.383,-0.301 0.631,-0.346 1.374,-0.247 0.729,0.097 0.927,0.063 1.018,-0.172 0.116,-0.303 -0.124,-0.538 -0.61,-0.599 -0.154,-0.02 -0.531,-0.09 -0.836,-0.157 -0.426,-0.093 -0.718,-0.01 -1.25,0.357 m -16.065,1.013 c 0,0.097 0.208,0.385 0.463,0.639 0.559,0.559 0.591,0.85 0.093,0.85 -0.206,0 -0.371,0.124 -0.371,0.278 0,0.192 0.192,0.278 0.619,0.278 0.489,0 0.665,0.103 0.842,0.491 0.156,0.342 0.283,0.432 0.417,0.298 0.399,-0.399 -1.165,-3.011 -1.802,-3.011 -0.143,0 -0.261,0.079 -0.261,0.177 m 5.37,1.119 c -0.381,0.382 -0.486,0.741 -0.217,0.741 0.18,0 0.958,-0.8 0.958,-0.984 0,-0.246 -0.374,-0.123 -0.741,0.243 m 1.064,0.101 c -0.564,0.485 -0.628,0.64 -0.263,0.64 0.319,0 1.127,-0.858 0.925,-0.982 -0.084,-0.052 -0.382,0.101 -0.662,0.342 m 1.344,0.177 c -0.326,0.347 -0.364,0.463 -0.154,0.463 0.275,0 0.895,-0.555 0.895,-0.802 0,-0.255 -0.32,-0.109 -0.741,0.339 m 1.327,-0.033 c -0.223,0.237 -0.348,0.488 -0.278,0.558 0.137,0.136 0.988,-0.583 0.988,-0.835 0,-0.277 -0.299,-0.16 -0.71,0.277 m 5.967,0.039 c -0.409,0.623 -0.144,0.856 0.307,0.269 0.395,-0.514 0.45,-0.738 0.181,-0.738 -0.1,0 -0.319,0.211 -0.488,0.469 m 9.187,-0.38 c 0,0.048 -0.203,0.694 -0.452,1.435 -0.997,2.97 -0.992,7.104 0.009,8.58 0.42,0.619 0.453,1.149 0.057,0.904 -1.482,-0.915 -1.644,-7.079 -0.274,-10.359 0.222,-0.532 0.66,-0.904 0.66,-0.56 m -11.774,0.305 c -0.071,0.116 0.007,0.287 0.174,0.38 0.382,0.214 0.39,0.591 0.018,0.899 -0.2,0.166 -0.227,0.296 -0.09,0.432 0.334,0.334 1.004,-0.495 0.861,-1.064 -0.139,-0.556 -0.761,-0.973 -0.963,-0.647 m 3.765,0.049 c -0.337,0.256 -0.44,0.668 -0.168,0.668 0.18,0 0.77,-0.615 0.77,-0.802 0,-0.191 -0.245,-0.137 -0.602,0.134 m 1.088,0.195 c -0.347,0.531 -0.108,0.799 0.294,0.33 0.474,-0.552 0.554,-0.783 0.271,-0.783 -0.147,0 -0.401,0.204 -0.565,0.453 m 1.268,-0.077 c -0.453,0.501 -0.173,0.718 0.307,0.238 0.214,-0.214 0.304,-0.433 0.205,-0.494 -0.099,-0.061 -0.329,0.054 -0.512,0.256 m -9.532,2.868 c 0,5.972 4.054,6.984 6.084,1.518 0.538,-1.45 0.589,-1.382 -1.13,-1.499 -3.723,-0.254 -4.954,-0.259 -4.954,-0.019 m 5.115,0.432 c 0.89,0.113 0.939,0.146 0.793,0.538 -0.152,0.407 -0.209,0.415 -2.06,0.315 -2.634,-0.144 -3.073,-0.23 -3.297,-0.648 -0.209,-0.392 2.231,-0.502 4.564,-0.205 m 65.532,2.613 c 0.58,2.37 0.137,5.495 -0.666,4.692 -0.608,-0.609 -0.998,-5.488 -0.511,-6.399 l 0.21,-0.393 0.324,0.4 c 0.178,0.219 0.467,0.985 0.643,1.7 m -68.071,0.879 c 0.636,0.772 0.701,0.98 0.303,0.98 -0.765,0 -1.953,-1.229 -1.953,-2.02 0,-0.362 1.03,0.288 1.65,1.04 m -14.985,-0.733 c 0,0.077 -0.205,0.74 -0.454,1.475 -1.072,3.158 -0.529,7.241 1.106,8.312 0.501,0.328 0.605,0.63 0.218,0.63 -1.566,0 -2.843,-4.834 -2.102,-7.963 0.426,-1.802 1.241,-3.425 1.232,-2.454 m 56.963,1.482 c -0.478,2.051 -0.289,7.24 0.353,9.673 0.284,1.078 0.56,0.919 -2.407,1.39 -1.018,0.161 -1.994,0.337 -2.168,0.389 -0.391,0.118 -1.378,-1.745 -2.024,-3.821 -0.559,-1.799 -0.598,-5.033 -0.082,-6.793 l 0.339,-1.152 2.43,-0.057 c 1.337,-0.032 2.712,-0.076 3.055,-0.098 0.591,-0.038 0.617,-0.014 0.504,0.469 m -45.295,1.655 c 1.047,0.307 2.79,0.406 4.26,0.243 l 0.833,-0.093 0.164,2.315 c 0.09,1.273 0.161,2.607 0.159,2.963 -0.009,1.174 -3.276,13.889 -3.569,13.889 -0.158,0 -1.099,-2.362 -2.318,-5.822 -0.572,-1.624 -1.289,-3.445 -1.592,-4.046 -0.511,-1.012 -0.529,-1.11 -0.237,-1.324 0.286,-0.208 0.251,-0.28 -0.368,-0.752 -0.899,-0.686 -2.405,-3.466 -1.611,-2.976 0.271,0.168 0.323,0.01 0.848,-2.586 0.268,-1.321 0.525,-2.586 0.572,-2.813 0.086,-0.41 0.088,-0.41 0.963,0.147 0.483,0.306 1.336,0.691 1.896,0.855 m 12.115,-0.637 c 0.046,0.229 0.135,0.788 0.197,1.242 0.241,1.766 1.308,3.367 2.735,4.102 0.762,0.393 0.953,0.823 0.277,0.623 -1.871,-0.553 -3.323,-2.687 -3.595,-5.285 -0.114,-1.087 0.194,-1.63 0.386,-0.682 m 26.105,2.037 c -0.14,1.829 0.137,3.802 0.784,5.598 0.679,1.885 0.685,1.856 -0.384,1.856 h -0.918 l -0.238,-0.821 c -0.308,-1.065 -0.84,-5.976 -0.763,-7.051 0.057,-0.815 0.073,-0.834 0.799,-0.944 0.408,-0.062 0.762,-0.125 0.789,-0.139 0.026,-0.015 -0.005,0.661 -0.069,1.501 m -39.449,2.774 c 0.109,0.8 1.019,2.921 1.255,2.921 0.249,0 0.195,-0.245 -0.303,-1.371 -0.255,-0.576 -0.463,-1.154 -0.463,-1.284 0,-0.131 -0.131,-0.399 -0.291,-0.597 -0.274,-0.339 -0.286,-0.32 -0.198,0.331 m -13.3,1.045 c 1.441,1.557 4.416,2.987 6.213,2.987 0.309,0 4.121,2.362 4.959,3.073 0.038,0.032 -0.337,0.514 -0.833,1.072 -0.496,0.557 -1.05,1.264 -1.23,1.572 l -0.329,0.558 2.219,1.901 c 1.22,1.046 2.196,1.924 2.169,1.951 -0.028,0.028 -0.822,-0.156 -1.765,-0.409 -2.242,-0.6 -2.174,-0.608 -3.8,0.479 -1.905,1.274 -1.962,1.377 -1.962,3.516 0,2.043 -0.066,1.938 2.127,3.392 0.841,0.557 1.495,0.858 1.868,0.858 0.65,0 3.741,-1.462 5.236,-2.476 0.545,-0.37 1.016,-0.672 1.047,-0.672 0.161,0 -0.666,2.982 -1.869,6.738 -1.221,3.813 -1.902,6.373 -2.199,8.272 l -0.103,0.659 -3.18,0.508 c -3.578,0.571 -12.328,1.521 -12.493,1.356 -0.092,-0.092 3.814,-11.06 4.191,-11.767 0.142,-0.267 1.217,3.404 2.293,7.837 0.345,1.422 0.725,2.617 0.844,2.657 0.149,0.05 0.179,-0.092 0.095,-0.455 -0.446,-1.937 -1.829,-7.328 -2.29,-8.929 -0.625,-2.167 -0.627,-2.153 0.639,-3.811 0.366,-0.481 0.635,-0.967 0.597,-1.081 -0.356,-1.067 -2.313,2.905 -4.852,9.847 -2.505,6.848 -1.947,6.005 -3.822,5.77 -1.939,-0.243 -2.759,-0.246 -2.759,-0.009 0,0.102 0.323,0.185 0.717,0.185 0.395,0 0.984,0.054 1.309,0.119 l 0.592,0.118 -0.971,0.391 c -0.534,0.215 -1.007,0.501 -1.051,0.637 -0.056,0.171 0.136,0.134 0.635,-0.12 1.155,-0.59 2.071,-0.766 5.94,-1.143 2.014,-0.197 5.307,-0.584 7.318,-0.86 2.011,-0.277 3.689,-0.467 3.73,-0.424 0.042,0.043 -0.182,2.466 -0.496,5.383 l -0.572,5.305 -3.437,0.695 c -3.052,0.618 -3.882,0.711 -7.418,0.835 -2.19,0.077 -4.198,0.196 -4.463,0.264 -1.386,0.355 -4.34,-0.774 -5.96,-2.279 -3.697,-3.432 -4.395,-8.812 -2.165,-16.685 5.339,-18.856 10.038,-28.525 14.033,-28.881 0.133,-0.012 0.694,0.468 1.248,1.066 m 23.372,-0.308 c 2.896,0.491 2.813,0.325 1.003,2.028 -2.324,2.187 -5.296,4.398 -5.169,3.846 1.032,-4.465 1.492,-6.283 1.591,-6.286 0.067,-0.002 1.225,0.183 2.575,0.412 m -11.197,4.823 c 1.282,2.636 1.339,2.629 -2.136,0.28 -2.612,-1.765 -2.582,-1.623 -0.346,-1.623 h 1.829 l 0.653,1.343 m 51.922,0.169 c -0.081,0.688 -0.254,1.105 -0.616,1.482 -0.688,0.718 -0.711,0.695 -0.711,-0.725 0,-1.63 -0.479,-1.831 -1.351,-0.567 -0.303,0.439 -0.727,0.957 -0.942,1.151 l -0.392,0.353 v -1.127 -1.126 l 1.065,-0.118 c 0.585,-0.064 1.19,-0.144 1.342,-0.177 0.153,-0.033 0.602,-0.069 0.998,-0.081 l 0.721,-0.021 -0.114,0.956 m -1.634,1.263 -0.044,1.263 -1.074,1.14 -1.075,1.14 v 3.492 3.493 l 0.824,0.314 c 0.796,0.304 1.645,0.303 2.417,-0.004 0.204,-0.081 -0.231,0.281 -0.965,0.805 -1.525,1.087 -1.815,1.481 -4.861,6.601 -1.151,1.935 -2.215,3.715 -2.364,3.955 l -0.271,0.437 -0.677,-0.636 c -1.089,-1.024 -2.078,-1.724 -3.324,-2.35 -1.163,-0.585 -1.165,-0.588 -0.833,-0.997 6.731,-8.321 6.396,-7.727 6.368,-11.292 -0.028,-3.54 0.178,-3.966 2.893,-5.987 0.736,-0.547 1.646,-1.409 2.024,-1.914 0.855,-1.146 1.017,-1.055 0.962,0.54 m 3.56,-0.917 c 0.94,0.504 -0.185,1.951 -2.926,3.763 -1.322,0.873 -1.716,0.952 -1.716,0.343 0,-0.307 3.834,-4.297 4.13,-4.297 0.084,0 0.315,0.086 0.512,0.191 m -44.182,2.17 1.432,1.62 -3.197,3.113 c -2.925,2.85 -3.967,3.587 -3.336,2.36 0.151,-0.293 1.15,-3.719 1.865,-6.399 0.372,-1.392 0.956,-2.187 1.688,-2.297 0.064,-0.01 0.761,0.712 1.548,1.603 m -22.226,0.806 c 0.553,1.147 1.275,2.924 1.604,3.95 0.611,1.907 0.901,2.502 0.905,1.855 0.007,-1.131 -2.733,-7.65 -3.286,-7.82 -0.126,-0.038 0.224,0.868 0.777,2.015 m 12.839,-1.208 0.922,0.479 0.88,2.593 c 0.483,1.426 1.198,3.252 1.588,4.058 0.885,1.83 0.915,1.837 -1.567,-0.35 -1.134,-0.999 -2.687,-2.346 -3.451,-2.993 -1.811,-1.535 -1.844,-1.138 0.32,-3.841 0.401,-0.501 0.223,-0.508 1.308,0.054 m 55.271,0.102 c 0.695,0.934 0.223,1.591 -2.035,2.831 -2.167,1.19 -3.07,1.448 -3.267,0.935 -0.226,-0.589 0.074,-0.985 1.514,-2.002 0.784,-0.553 1.716,-1.31 2.071,-1.682 0.74,-0.776 1.185,-0.797 1.717,-0.082 m 0.612,2.396 c 0.58,0.64 0.079,1.243 -1.776,2.138 -2.11,1.017 -2.304,1.069 -2.66,0.713 -0.596,-0.596 -0.341,-0.89 1.791,-2.068 2.413,-1.333 2.203,-1.271 2.645,-0.783 m -6.564,0.669 c 0.278,-0.073 0.349,0.01 0.349,0.41 0,0.613 0.306,0.945 0.87,0.945 0.314,0 0.426,0.106 0.426,0.402 0,0.221 0.135,0.552 0.301,0.734 0.509,0.563 0.193,3.735 -0.403,4.055 -0.536,0.287 -1.431,0.28 -2.146,-0.016 l -0.529,-0.22 v -3.372 c 0,-3.497 0.06,-3.88 0.514,-3.232 0.168,0.24 0.401,0.351 0.618,0.294 m -33.103,0.29 c 0.06,0.433 0.163,1.31 0.231,1.949 0.067,0.639 0.206,1.214 0.309,1.277 0.124,0.077 0.144,-0.345 0.058,-1.254 -0.199,-2.097 -0.325,-2.759 -0.524,-2.759 -0.108,0 -0.138,0.32 -0.074,0.787 m 39.378,1.506 c 0,0.555 -0.171,0.683 -1.74,1.299 -2.175,0.856 -2.173,-0.067 0.003,-1.102 1.552,-0.738 1.737,-0.759 1.737,-0.197 m -3.519,1.49 c 0,0.6 0.442,0.675 1.535,0.258 1.465,-0.557 1.438,-0.411 -0.257,1.404 -1.649,1.766 -1.648,1.767 -1.648,-0.352 0,-1.049 0.075,-1.759 0.185,-1.759 0.102,0 0.185,0.202 0.185,0.449 m -40.63,1.774 c 0.112,0.56 0.17,1.08 0.128,1.156 -0.09,0.166 -3.793,0.153 -5.238,-0.018 l -1.019,-0.121 1.574,-0.628 c 4.514,-1.803 4.277,-1.783 4.555,-0.389 m -10.758,0.906 c 1.222,0.18 2.097,0.374 1.944,0.43 -1.079,0.395 -5.193,1.626 -5.438,1.626 -0.249,0 -0.303,-0.213 -0.303,-1.204 v -1.204 l 0.787,0.013 c 0.433,0.007 1.787,0.159 3.01,0.339 m 24.03,0.22 c 0.631,0.213 1.478,0.547 1.881,0.741 0.403,0.195 0.862,0.355 1.021,0.357 1.467,0.014 0.334,0.918 -1.371,1.095 -1.138,0.118 -1.193,0.105 -1.297,-0.31 -0.183,-0.728 -2.29,-0.468 -4.836,0.596 -1.337,0.559 -0.476,0.465 1.853,-0.201 2.49,-0.713 2.621,-0.703 2.802,0.212 0.107,0.544 0.09,0.558 -1.802,1.362 -1.768,0.752 -2.735,1.317 -2.252,1.317 0.11,0 1.056,-0.379 2.102,-0.843 2.21,-0.98 2.657,-1.001 2.741,-0.129 0.041,0.417 -0.02,0.602 -0.198,0.602 -0.285,0 -2.218,1.159 -3.013,1.808 -0.816,0.665 -0.355,0.728 0.516,0.071 2.64,-1.993 3.374,-1.896 3.18,0.42 -0.146,1.742 -0.292,1.963 -1.675,2.524 -1.227,0.498 -1.323,0.436 -0.713,-0.463 0.673,-0.991 0.454,-1.276 -0.242,-0.315 -0.759,1.048 -1.067,2.039 -1.522,4.9 -0.559,3.522 -1.414,4.859 -3.335,5.215 -0.357,0.067 -0.815,0.192 -1.019,0.279 -0.203,0.087 -0.844,0.245 -1.422,0.351 -1.367,0.25 -6.425,2.705 -9.318,4.522 l -2.223,1.395 -0.148,-1.048 c -0.081,-0.576 -0.206,-2.631 -0.277,-4.567 -0.123,-3.316 -0.15,-3.515 -0.482,-3.457 -0.413,0.071 -0.33,-2.346 0.178,-5.198 0.48,-2.687 0.822,-6.097 0.822,-8.181 v -2.024 l 0.478,0.449 c 1.029,0.965 2.836,5.699 4.079,10.687 0.374,1.498 0.77,2.782 0.88,2.853 0.311,0.2 0.204,0.242 -2.752,1.073 -2.562,0.72 -3.566,1.113 -2.845,1.113 0.156,0 1.713,-0.414 3.46,-0.921 6.512,-1.89 6.747,-2.21 7.709,-10.51 0.543,-4.688 0.488,-4.559 2.13,-5.047 3.664,-1.092 5.313,-1.265 6.91,-0.728 m -41.797,2.335 c -1.686,4.395 -4.715,13.988 -4.278,13.552 0.078,-0.078 4.73,-13.651 4.73,-13.801 0,-0.208 -0.35,-0.015 -0.452,0.249 m 21.106,4.455 c -0.069,0.178 -0.63,2.032 -1.248,4.12 -0.617,2.088 -1.192,3.921 -1.277,4.074 -0.408,0.731 -0.085,-0.668 0.955,-4.134 0.617,-2.055 1.164,-3.882 1.216,-4.06 0.052,-0.179 0.182,-0.324 0.288,-0.324 0.107,0 0.137,0.142 0.066,0.324 m -8.485,2.197 c -0.063,0.063 -0.07,0.376 -0.016,0.695 0.558,3.289 1.464,7.14 1.745,7.422 0.27,0.271 0.225,-0.038 -0.375,-2.522 -0.303,-1.256 -0.679,-3.027 -0.835,-3.936 -0.297,-1.73 -0.333,-1.845 -0.519,-1.659 m 43.201,1.015 c 1.461,0.754 3.889,2.782 3.889,3.248 0,0.258 -2.306,3.856 -2.922,4.558 -0.392,0.448 -1.001,-0.017 -3.848,-2.945 l -2.234,-2.296 1.493,-1.746 c 1.692,-1.98 1.468,-1.929 3.622,-0.819 m -35,8.917 c 0,1.946 0.24,5.411 0.466,6.74 0.099,0.582 0.097,0.584 -1.438,1.139 -1.88,0.68 -6.429,1.958 -6.548,1.839 -0.075,-0.076 1.008,-10.555 1.097,-10.614 0.05,-0.033 5.92,-1.136 6.192,-1.164 0.172,-0.017 0.231,0.505 0.231,2.06 m 14.867,1.759 c -0.03,0.688 -0.128,3 -0.22,5.139 -0.341,7.942 -0.088,9.789 3.594,26.297 3.639,16.313 4.467,21.642 4.664,30 l 0.109,4.629 -1.461,0.77 c -2.439,1.285 -5.878,2.163 -13.775,3.519 -10.068,1.728 -25.792,0.096 -33.541,-3.48 -1.082,-0.5 -2.399,-1.011 -2.927,-1.136 l -0.96,-0.228 0.115,-1.667 c 0.786,-11.349 3.665,-20.43 12.505,-39.454 1.749,-3.763 3.537,-7.634 3.973,-8.601 0.437,-0.968 1.058,-2.334 1.38,-3.036 0.613,-1.335 0.997,-2.887 0.825,-3.335 -0.116,-0.303 -0.007,-0.342 2.148,-0.768 3.903,-0.773 9.906,-2.727 9.736,-3.17 -0.084,-0.22 2.849,-2.182 5.289,-3.535 1.961,-1.089 5.738,-2.658 6.66,-2.767 0.505,-0.06 0.963,-0.18 1.017,-0.268 0.443,-0.717 0.92,-0.118 0.869,1.091 m 12.428,2.187 c -0.636,0.704 -1.398,0.842 -2.028,0.366 -0.578,-0.438 -0.981,-0.36 -0.52,0.1 0.879,0.879 2.815,0.456 3.238,-0.708 0.212,-0.584 -0.018,-0.503 -0.69,0.242 m -15.214,2.201 c -1.005,2.93 -1.838,4.79 -2.079,4.642 -0.103,-0.064 -0.187,0.005 -0.187,0.153 0,0.827 0.6,0.43 1.128,-0.748 0.706,-1.573 2.205,-5.701 2.205,-6.07 0,-0.736 -0.345,-0.081 -1.067,2.023 m -21.032,5.597 c -0.272,0.272 -0.073,0.34 1.035,0.353 0.636,0.007 1.74,0.189 2.453,0.404 1.269,0.383 6.76,0.701 6.76,0.391 -10e-4,-0.239 -0.891,-0.34 -3.008,-0.343 -1.713,-0.002 -2.55,-0.1 -3.955,-0.465 -1.742,-0.453 -3.037,-0.587 -3.285,-0.34 m 12.764,0.96 c -0.095,0.154 0.31,0.213 1.461,0.213 0.876,0 2.402,0.09 3.391,0.201 1.762,0.196 3.742,0.098 3.742,-0.186 0,-0.079 -0.77,-0.138 -1.712,-0.131 -0.943,0.006 -2.847,-0.061 -4.232,-0.149 -1.847,-0.117 -2.553,-0.103 -2.65,0.052 m 3.644,4.333 c -0.245,0.313 -0.419,1.065 -0.247,1.065 0.076,0 0.233,-0.208 0.349,-0.463 0.41,-0.899 0.917,-0.6 1.649,0.972 0.383,0.82 0.699,1.306 0.74,1.134 0.081,-0.348 -0.949,-2.569 -1.292,-2.788 -0.35,-0.222 -0.996,-0.179 -1.199,0.08 m -15.514,10.185 c -0.068,0.331 -0.566,1.977 -1.107,3.658 -2.477,7.699 -3.972,14.72 -5.361,25.185 -0.994,7.48 -1.164,9.474 -0.773,9.059 0.04,-0.043 0.295,-1.911 0.567,-4.152 1.604,-13.221 3.281,-21.727 5.834,-29.59 0.602,-1.855 1.151,-3.685 1.22,-4.067 0.157,-0.867 -0.203,-0.955 -0.38,-0.093 m 8.427,7.429 c 0,0.037 -0.161,1.267 -0.359,2.732 -0.599,4.441 -1.45,12.316 -2.04,18.867 -0.307,3.412 -0.61,6.766 -0.672,7.454 -0.073,0.802 -0.046,1.25 0.075,1.25 0.249,0 0.358,-0.631 0.497,-2.87 0.336,-5.41 2.098,-22.315 2.795,-26.806 0.068,-0.443 0.034,-0.694 -0.094,-0.694 -0.111,0 -0.202,0.03 -0.202,0.067 m 14.33,9.124 c 0.703,3.412 1.6,14.17 1.894,22.707 0.078,2.275 0.196,3.657 0.314,3.657 0.457,0 -0.239,-13.431 -1.081,-20.833 -0.615,-5.417 -0.692,-5.881 -0.985,-5.979 -0.188,-0.063 -0.224,0.05 -0.142,0.448 m -5.759,9.883 c 0.053,0.458 0.269,2.125 0.479,3.703 0.349,2.615 0.765,7.613 0.765,9.182 0,0.356 0.094,0.633 0.214,0.633 0.591,0 -0.715,-13.526 -1.367,-14.167 -0.127,-0.125 -0.157,0.084 -0.091,0.649 m 8.837,17.123 c 0,2.684 -2.224,14.212 -5.178,26.845 -1.314,5.619 -0.992,4.998 -2.442,4.709 -1.496,-0.298 -7.648,-0.304 -9.124,-0.009 -0.603,0.121 -1.118,0.198 -1.145,0.171 -0.027,-0.026 0.324,-2.589 0.78,-5.694 1.735,-11.828 2.108,-16.127 1.779,-20.532 -0.162,-2.157 -0.258,-2.689 -0.523,-2.882 -0.276,-0.202 -0.078,-0.257 1.329,-0.365 2.704,-0.209 12.586,-1.895 13.67,-2.333 0.59,-0.239 0.854,-0.211 0.854,0.09 m -4.883,10.608 c -0.687,1.077 -1.612,1.788 -2.941,2.263 -0.616,0.22 -0.7,0.642 -0.093,0.464 1.678,-0.492 4.815,-3.421 3.664,-3.421 -0.103,0 -0.386,0.312 -0.63,0.694 m -23.728,3.117 c -0.78,0.467 -1.879,0.904 -2.732,1.087 -0.792,0.169 -0.623,0.508 0.185,0.371 1.053,-0.178 3.38,-1.314 3.38,-1.649 0,-0.158 -0.021,-0.279 -0.046,-0.27 -0.026,0.01 -0.38,0.217 -0.787,0.461 m 12.651,46.524 c 0.032,0.219 0.276,0.569 0.541,0.777 0.367,0.289 0.431,0.431 0.267,0.595 -0.165,0.165 -0.345,0.093 -0.755,-0.3 -0.712,-0.682 -0.924,-1.738 -0.308,-1.536 0.108,0.036 0.223,0.244 0.255,0.464 m -30.303,1.291 c -0.044,0.431 0.059,0.678 0.41,0.984 0.447,0.388 0.489,0.723 0.093,0.723 -0.685,0 -1.447,-1.806 -0.965,-2.288 0.274,-0.274 0.518,0.033 0.462,0.581 m 35.152,2.567 c 0,0.365 1.338,1.981 2.849,3.44 0.943,0.911 1.047,1.076 0.744,1.175 -0.194,0.063 -0.583,0.202 -0.865,0.307 -0.448,0.168 -0.641,0.107 -1.528,-0.482 -1.216,-0.807 -1.234,-0.899 -0.258,-1.282 0.426,-0.167 0.705,-0.381 0.638,-0.489 -0.078,-0.127 -0.351,-0.092 -0.803,0.104 -1.129,0.488 -1.178,0.482 -2.899,-0.388 -0.912,-0.46 -1.78,-0.838 -1.93,-0.838 -0.373,0 0.448,-0.868 1.18,-1.249 1.263,-0.657 2.872,-0.824 2.872,-0.298 m -30.295,1.64 c 0.064,0.255 0.219,0.466 0.345,0.47 0.125,0.005 0.59,0.493 1.032,1.087 0.443,0.593 1.159,1.449 1.593,1.901 l 0.787,0.822 -1.15,0.615 -1.151,0.614 -1.321,-0.785 c -1.706,-1.013 -1.64,-1.156 0.978,-2.107 0.257,-0.094 0.299,-0.185 0.152,-0.332 -0.148,-0.148 -0.609,-0.013 -1.68,0.49 l -1.477,0.693 -1.009,-0.604 c -0.893,-0.534 -0.98,-0.637 -0.752,-0.9 0.142,-0.164 0.48,-0.58 0.752,-0.926 0.447,-0.566 2.04,-1.495 2.574,-1.499 0.116,-10e-4 0.264,0.206 0.327,0.461 m 25.417,0.166 c 0.998,0.266 2.816,1.046 3.54,1.518 l 0.422,0.276 -0.561,0.472 c -0.773,0.65 -0.507,0.928 0.3,0.313 0.724,-0.553 1.068,-0.468 2.359,0.579 l 0.534,0.433 -0.442,0.228 c -0.637,0.329 -1.279,0.951 -1.167,1.131 0.053,0.086 0.517,-0.134 1.032,-0.488 0.528,-0.363 1.028,-0.584 1.148,-0.506 0.117,0.075 0.654,0.417 1.192,0.76 l 0.98,0.622 -0.683,0.59 c -0.376,0.325 -0.648,0.699 -0.603,0.832 0.054,0.164 0.336,0.027 0.878,-0.426 0.439,-0.367 0.812,-0.666 0.827,-0.666 0.016,10e-4 0.439,0.209 0.94,0.463 1.058,0.537 2.167,0.605 2.539,0.155 0.231,-0.279 0.191,-0.295 -0.441,-0.176 -0.519,0.097 -0.918,0.031 -1.574,-0.261 l -0.879,-0.392 0.463,-0.259 c 0.702,-0.392 0.765,-0.37 3.196,1.09 1.247,0.749 3.517,2.033 5.044,2.853 4.584,2.463 4.626,2.504 3.583,3.467 -1.397,1.289 -2.238,1.297 -9.444,0.092 -6.079,-1.018 -6.431,-1.118 -7.369,-2.103 -0.756,-0.794 -0.981,-0.821 -1.711,-0.207 -0.341,0.287 -0.703,0.432 -0.952,0.381 -0.222,-0.045 -0.861,-0.13 -1.421,-0.19 -0.561,-0.059 -1.945,-0.279 -3.076,-0.489 l -2.057,-0.381 -0.165,-1.975 c -0.558,-6.677 0.328,-8.598 3.568,-7.736 m -31.511,1.415 c 2.714,1.324 3.89,2.175 3.539,2.563 -0.624,0.689 -0.301,1.005 0.377,0.368 l 0.421,-0.396 1.35,0.794 c 0.742,0.436 1.385,0.823 1.428,0.859 0.043,0.036 -0.103,0.258 -0.324,0.494 -0.701,0.745 -0.3,0.998 0.456,0.288 l 0.419,-0.394 1.202,0.703 1.201,0.703 -0.356,0.453 c -0.511,0.65 -0.23,0.901 0.368,0.329 l 0.503,-0.482 0.827,0.366 c 1.047,0.463 2.183,0.647 3.024,0.489 1.054,-0.198 0.759,-0.451 -0.504,-0.432 -1.126,0.017 -2.913,-0.472 -2.913,-0.798 0,-0.081 0.43,-0.307 0.955,-0.503 l 0.954,-0.356 3.814,2.629 c 2.098,1.446 4.231,2.864 4.74,3.152 1.792,1.012 2.058,1.712 1.019,2.682 -1.155,1.079 -2.683,1.13 -7.685,0.258 -5.586,-0.974 -7.998,-1.692 -9.104,-2.712 -0.705,-0.65 -0.87,-0.721 -1.403,-0.605 -1.153,0.25 -1.917,0.171 -5.042,-0.521 -1.728,-0.383 -3.148,-0.713 -3.156,-0.734 -0.111,-0.293 0.291,-8.251 0.45,-8.921 0.347,-1.458 0.921,-1.504 3.44,-0.276 m 41.745,2.39 0.979,0.73 -0.703,0.294 c -0.698,0.291 -0.712,0.288 -1.727,-0.341 -1.242,-0.772 -1.314,-0.93 -0.532,-1.181 0.913,-0.292 0.93,-0.288 1.983,0.498 m -30.415,1.518 c 0.547,0.422 0.964,0.797 0.927,0.834 -0.037,0.037 -0.452,0.262 -0.923,0.501 l -0.857,0.433 -1.112,-0.626 c -1.443,-0.813 -1.451,-0.842 -0.424,-1.414 1.144,-0.636 1.224,-0.627 2.389,0.272" />
         <path style="fill:#999999;fill-opacity:1;fill-rule:evenodd;stroke:none" id="path2-59" d="m 597.05356,-857.0752 c 3.274,12.758 1.832,16.453 -8.548,21.899 -1.647,0.864 -2.968,1.598 -2.935,1.631 0.033,0.033 1.089,-0.152 2.346,-0.41 11.893,-2.443 14.7,-1.163 20.047,9.148 0.872,1.681 1.586,2.931 1.588,2.778 10e-4,-0.153 -0.2,-1.236 -0.448,-2.408 -2.514,-11.905 -1.062,-14.9 9.87,-20.361 1.258,-0.628 2.257,-1.174 2.218,-1.212 -0.038,-0.038 -1.484,0.215 -3.214,0.564 -11.248,2.266 -14.052,0.929 -19.342,-9.222 -1.506,-2.891 -1.834,-3.39 -1.582,-2.407 m -46.369,17.362 c -2.035,0.912 -1.861,-0.783 -2.712,26.388 -0.756,24.14 -0.689,23.544 -3.086,27.263 -2.121,3.29 0.462,1.513 -37.09,25.521 -6.801,4.348 -7.094,6.69 -1.111,8.869 17.01,6.197 31.115,11.275 31.168,11.221 0.037,-0.037 -0.035,-0.699 -0.16,-1.473 -0.654,-4.058 0.747,-10.334 5.318,-23.809 2.713,-7.996 6.867,-14.943 9.252,-15.469 0.293,-0.064 0.63,-0.147 0.748,-0.183 0.154,-0.046 0.11,-0.401 -0.155,-1.234 -0.656,-2.066 -0.445,-3.623 1.112,-8.22 1.236,-3.647 1.351,-4.128 1.879,-7.862 0.654,-4.623 0.83,-5.584 1.322,-7.211 3.46,-11.453 17.061,-13.887 25.251,-4.519 2.867,3.279 3.423,6.394 2.882,16.135 -0.302,5.444 0.276,7.49 2.747,9.722 1.074,0.971 3.358,1.436 3.358,0.685 0,-0.098 0.083,-0.177 0.185,-0.177 0.734,0 -0.332,2.241 -1.452,3.054 -0.85,0.617 -1.106,0.717 -3.384,1.323 l -1.224,0.326 1.039,0.613 c 1.196,0.707 2.468,2.007 3.019,3.086 0.993,1.946 3.495,11.359 3.089,11.617 -0.188,0.119 -0.193,0.161 -0.02,0.163 0.128,0.002 0.587,0.162 1.018,0.356 0.432,0.194 1.018,0.405 1.303,0.468 0.999,0.224 0.493,1.586 -0.59,1.586 -0.669,0 -0.647,0.075 2.987,10.427 l 0.637,1.816 1.657,-1.816 c 0.911,-0.998 2.139,-2.373 2.728,-3.055 0.589,-0.681 1.173,-1.2 1.298,-1.152 0.219,0.084 1.595,-1.516 4.625,-5.377 2.243,-2.858 2.229,-2.82 2.341,-6.398 l 0.096,-3.056 0.58,-0.833 c 0.319,-0.458 1.077,-1.193 1.684,-1.632 l 1.104,-0.798 0.039,-1.192 c 0.021,-0.656 -0.029,-1.192 -0.111,-1.192 -0.081,0.001 -1.101,0.166 -2.265,0.366 -2.189,0.377 -2.474,0.34 -2.691,-0.346 -0.085,-0.266 -0.29,-0.304 -1.305,-0.239 l -1.204,0.076 -0.357,-0.808 c -0.455,-1.028 -1.203,-7.519 -0.945,-8.197 0.176,-0.462 0.363,-0.555 1.492,-0.744 0.595,-0.1 0.674,-0.19 0.926,-1.051 l 0.275,-0.943 3.055,-0.057 c 6.823,-0.126 14.458,-3.718 20.144,-9.474 2.278,-2.306 3.683,-3.399 4.37,-3.399 0.202,0 0.636,-0.097 0.964,-0.215 0.865,-0.313 1.634,0.066 2.379,1.172 l 0.607,0.901 3.289,-8.437 c 4.246,-10.893 4.337,-11.241 3.311,-12.641 -1.352,-1.844 -0.536,-2.008 -24.702,4.967 -25.051,7.23 -23.931,6.999 -28.327,5.845 -3.659,-0.96 -0.499,1.481 -36.857,-28.464 -2.843,-2.341 -4.182,-2.896 -5.53,-2.293 m 69.658,63.377 -1.343,0.064 v 0.669 c 0,0.636 0.017,0.653 0.339,0.362 0.645,-0.583 1.88,-0.141 1.888,0.676 0.002,0.269 0.198,0.5 0.578,0.684 0.844,0.409 1.223,1.144 0.955,1.855 -0.191,0.505 -0.164,0.612 0.254,1.03 0.485,0.485 0.487,1.138 0.006,1.718 -0.116,0.139 -0.186,0.532 -0.157,0.872 0.104,1.204 -2.561,4.256 -5.367,6.146 -1.694,1.141 -1.963,1.499 -5.168,6.866 -1.822,3.049 -2.407,4.173 -2.232,4.282 0.309,0.19 0.194,0.408 -1.724,3.25 -5.011,7.425 -8.617,10.736 -11.954,10.974 -3.169,0.227 -4.698,-1.205 -7.514,-7.037 l -0.961,-1.989 -0.351,0.394 c -0.193,0.217 -0.643,0.529 -0.999,0.693 l -0.648,0.298 -0.06,2.407 c -0.033,1.324 -0.13,3.616 -0.215,5.093 -0.349,6.029 0.069,9.2 2.906,22.037 1.569,7.101 1.453,6.718 1.876,6.186 0.169,-0.214 2.177,-2.783 4.461,-5.71 5.136,-6.581 6.344,-7.608 10.569,-8.986 2.548,-0.831 2.762,-0.83 17.685,0.067 31.431,1.889 30.446,1.839 31.52,1.599 1.937,-0.434 2.757,-1.86 2.191,-3.808 -0.319,-1.095 -0.023,-0.646 -15.615,-23.69 -5.233,-7.735 -9.707,-14.444 -9.942,-14.908 -1.45,-2.865 -1.956,-8.206 -1.014,-10.686 0.102,-0.267 0.157,-0.514 0.123,-0.548 -0.33,-0.33 -6.129,-1.033 -7.911,-0.959 -0.458,0.019 -1.438,0.064 -2.176,0.099 m -65.689,20.179 c -0.77,1.926 -4.166,11.418 -4.107,11.477 0.102,0.102 7.182,-0.646 7.308,-0.772 0.053,-0.053 0.005,-0.284 -0.107,-0.513 -0.112,-0.229 -0.544,-1.806 -0.96,-3.504 -1.384,-5.65 -1.901,-7.271 -2.134,-6.688 m 1.939,22.659 c -1.069,0.186 -2.549,0.342 -3.287,0.348 -1.547,0.011 -1.543,0.006 -0.725,1.158 1.018,1.431 1.751,3.112 2.412,5.531 l 0.626,2.29 0.373,-0.735 c 1.491,-2.93 3.379,-7.517 3.379,-8.209 0,-0.902 0.119,-0.886 -2.778,-0.383 m -26.852,4.95 c 0,0.081 0.166,0.907 0.368,1.835 2.728,12.499 1.218,15.587 -10.414,21.284 -1.709,0.837 -1.814,1.033 -0.371,0.692 12.603,-2.979 15.878,-1.635 21.303,8.748 1.813,3.469 1.872,3.517 1.351,1.116 -2.555,-11.796 -1.355,-15.004 7.393,-19.757 1.935,-1.051 2.778,-1.662 2.778,-2.013 0,-0.071 -0.73,0.02 -1.621,0.202 -11.071,2.264 -14.102,0.722 -19.409,-9.87 -1.096,-2.186 -1.378,-2.644 -1.378,-2.237" />
         <path style="fill:#757575;fill-opacity:1;fill-rule:evenodd;stroke:none" id="path3-62" d="m 634.92556,-799.8522 c -0.356,0.174 -1.857,1.484 -3.336,2.912 -4.442,4.29 -10.5,7.895 -15.214,9.053 l -1.606,0.395 -0.225,1.573 c -0.487,3.406 0.19,9.596 1.039,9.495 7.174,-0.846 12.866,-0.318 19.105,1.772 3.291,1.102 4.867,1.479 4.867,1.163 0,-0.092 -0.112,-0.21 -0.25,-0.263 -0.483,-0.185 -2.038,-2.463 -2.831,-4.146 -3.068,-6.519 -3.547,-15.893 -1.101,-21.585 0.164,-0.382 0.276,-0.692 0.249,-0.69 -0.027,0.002 -0.34,0.147 -0.697,0.321 m -2.511,1.388 -0.544,0.602 0.602,-0.544 c 0.561,-0.507 0.687,-0.66 0.544,-0.66 -0.032,0 -0.303,0.271 -0.602,0.602 m -66.151,5.612 c -0.305,0.214 -0.412,0.474 -0.412,1.008 0,1.22 1.355,1.757 2.19,0.868 1.101,-1.172 -0.449,-2.807 -1.778,-1.876 m 10.926,0.185 c -0.519,0.364 -0.56,1.373 -0.073,1.813 0.459,0.416 1.248,0.386 1.698,-0.064 1.071,-1.071 -0.373,-2.626 -1.625,-1.749 m 53.748,1.671 c -3.387,2.846 -10.671,6.148 -12.338,5.593 -0.124,-0.042 0.727,-0.302 1.893,-0.579 3.601,-0.854 7.132,-2.605 9.886,-4.902 0.504,-0.42 0.959,-0.721 1.012,-0.669 0.052,0.053 -0.152,0.303 -0.453,0.557 m 8.273,0.771 c -0.487,0.911 -0.097,5.79 0.511,6.399 1.188,1.188 1.21,-4.927 0.023,-6.392 l -0.324,-0.4 -0.21,0.393 m -68.544,1.546 c 0,0.791 1.188,2.02 1.953,2.02 0.398,0 0.333,-0.208 -0.303,-0.98 -0.62,-0.752 -1.65,-1.402 -1.65,-1.04 m 35.833,3.482 c -0.726,0.11 -0.742,0.129 -0.799,0.944 -0.077,1.075 0.455,5.986 0.763,7.051 l 0.238,0.821 h 0.918 c 1.069,0 1.063,0.029 0.384,-1.856 -0.647,-1.796 -0.924,-3.769 -0.784,-5.598 0.064,-0.84 0.095,-1.516 0.069,-1.501 -0.027,0.014 -0.381,0.077 -0.789,0.139 m 16.717,1.606 c -0.412,0.412 -5.014,0.808 -5.235,0.451 -0.073,-0.118 0.481,-0.192 1.517,-0.203 0.897,-0.01 2.089,-0.117 2.65,-0.238 0.998,-0.217 1.277,-0.219 1.068,-0.01 m -4.359,8.229 c 0,0.356 0.038,0.502 0.085,0.324 0.046,-0.179 0.046,-0.47 0,-0.649 -0.047,-0.178 -0.085,-0.032 -0.085,0.325 m -32.963,31.851 c 0,0.357 0.038,0.503 0.085,0.324 0.046,-0.178 0.046,-0.469 0,-0.648 -0.047,-0.178 -0.085,-0.032 -0.085,0.324 m -0.185,4.445 c 0,0.356 0.038,0.502 0.085,0.324 0.046,-0.178 0.046,-0.47 0,-0.648 -0.047,-0.178 -0.085,-0.033 -0.085,0.324" />
         <path style="fill:#757575;fill-opacity:1;fill-rule:evenodd;stroke:none" id="path4-17" d="m 562.04356,-808.8352 -0.544,0.602 0.602,-0.544 c 0.331,-0.299 0.602,-0.57 0.602,-0.602 0,-0.143 -0.153,-0.017 -0.66,0.544 m 17.327,0.076 c 0,0.101 0.229,0.386 0.509,0.633 l 0.509,0.449 -0.463,-0.556 c -0.254,-0.305 -0.483,-0.59 -0.509,-0.633 -0.025,-0.042 -0.046,0.006 -0.046,0.107 m -13.29,5.624 c -0.333,0.303 -0.536,0.55 -0.451,0.55 0.084,0 0.392,-0.25 0.685,-0.555 0.681,-0.711 0.549,-0.708 -0.234,0.005 m -3.255,5.365 c -0.272,0.306 -0.427,0.556 -0.343,0.556 0.083,0 0.336,-0.25 0.562,-0.556 0.226,-0.305 0.381,-0.555 0.343,-0.555 -0.037,0 -0.29,0.25 -0.562,0.555 m 71.403,4.445 c 0,0.356 0.038,0.502 0.084,0.324 0.047,-0.179 0.047,-0.47 0,-0.648 -0.046,-0.179 -0.084,-0.033 -0.084,0.324 m -63.423,1.612 c 0.229,0.044 0.604,0.044 0.833,0 0.229,-0.044 0.042,-0.08 -0.416,-0.08 -0.459,0 -0.646,0.036 -0.417,0.08 m 1.855,0.559 c 0.333,0.041 0.833,0.04 1.111,-0.002 0.279,-0.042 0.006,-0.076 -0.605,-0.075 -0.611,10e-4 -0.839,0.036 -0.506,0.077 m 62.867,0.364 c 0.178,0.046 0.47,0.046 0.648,0 0.179,-0.047 0.033,-0.085 -0.324,-0.085 -0.356,0 -0.502,0.038 -0.324,0.085 m -61.111,0.555 c 0.178,0.047 0.47,0.047 0.648,0 0.178,-0.046 0.033,-0.084 -0.324,-0.084 -0.356,0 -0.502,0.038 -0.324,0.084 m 8.893,0.613 c 0,0.459 0.036,0.646 0.08,0.417 0.044,-0.229 0.044,-0.604 0,-0.833 -0.044,-0.23 -0.08,-0.042 -0.08,0.416 m 0.367,-0.092 c 0.002,0.407 0.04,0.552 0.084,0.322 0.044,-0.231 0.043,-0.564 -0.004,-0.741 -0.046,-0.177 -0.082,0.011 -0.08,0.419 m 54.827,1.389 c 0,0.662 0.034,0.932 0.075,0.601 0.041,-0.331 0.041,-0.872 0,-1.203 -0.041,-0.331 -0.075,-0.06 -0.075,0.602 m -4.275,0 c 0,0.356 0.038,0.502 0.084,0.324 0.047,-0.179 0.047,-0.47 0,-0.648 -0.046,-0.179 -0.084,-0.033 -0.084,0.324 m -53.515,2.87 c 0.002,0.407 0.04,0.552 0.084,0.322 0.044,-0.23 0.043,-0.564 -0.004,-0.741 -0.046,-0.177 -0.082,0.012 -0.08,0.419 m -6.964,0.403 c 0.117,0.084 0.256,0.361 0.307,0.615 0.082,0.399 0.091,0.388 0.065,-0.078 -0.016,-0.305 -0.15,-0.574 -0.307,-0.616 -0.185,-0.05 -0.207,-0.024 -0.065,0.079 m 33.831,2.282 c 0,0.764 0.033,1.077 0.073,0.695 0.04,-0.382 0.04,-1.007 0,-1.389 -0.04,-0.382 -0.073,-0.07 -0.073,0.694 m 6.29,0 c 0,0.56 0.034,0.79 0.077,0.509 0.042,-0.28 0.042,-0.738 0,-1.018 -0.043,-0.28 -0.077,-0.051 -0.077,0.509 m -31.167,1.389 c 0.346,0.357 0.67,0.648 0.721,0.648 0.051,0 -0.19,-0.291 -0.536,-0.648 -0.345,-0.356 -0.67,-0.648 -0.721,-0.648 -0.05,0 0.191,0.292 0.536,0.648 m -0.741,-0.22 c 0,0.032 0.271,0.303 0.602,0.602 l 0.602,0.544 -0.544,-0.602 c -0.507,-0.561 -0.66,-0.687 -0.66,-0.544 m -7.499,3.785 c -0.375,1.604 -0.73,3.119 -0.787,3.366 -0.087,0.377 0.203,0.214 1.808,-1.016 1.872,-1.435 4.812,-4.073 4.812,-4.318 0,-0.099 -4.576,-0.966 -5.029,-0.952 -0.066,0.002 -0.428,1.316 -0.804,2.92 m -20.001,-1.991 c 0.398,0.408 0.765,0.741 0.816,0.741 0.051,0 -0.233,-0.333 -0.63,-0.741 -0.398,-0.407 -0.765,-0.741 -0.816,-0.741 -0.051,0 0.233,0.334 0.63,0.741 m 29.64,-0.388 c -0.335,0.131 -0.329,0.149 0.084,0.257 0.245,0.064 0.484,0.078 0.531,0.031 0.047,-0.047 -0.017,-0.085 -0.142,-0.085 -0.125,0 -0.176,-0.083 -0.113,-0.185 0.13,-0.21 0.13,-0.21 -0.36,-0.018 m 58.089,0.758 c 0,0.357 0.038,0.503 0.084,0.325 0.047,-0.179 0.047,-0.47 0,-0.649 -0.046,-0.178 -0.084,-0.032 -0.084,0.324 m -54.303,2.315 c 0.346,0.357 0.67,0.648 0.721,0.648 0.051,0 -0.19,-0.291 -0.536,-0.648 -0.345,-0.356 -0.669,-0.648 -0.72,-0.648 -0.051,0 0.19,0.292 0.535,0.648 m -25.555,0.355 c 0,0.092 4.175,2.924 4.786,3.245 0.55,0.289 0.474,-0.029 -0.474,-1.979 l -0.653,-1.343 h -1.829 c -1.007,0 -1.83,0.034 -1.83,0.077 m 56.158,1.127 c 0.002,0.407 0.04,0.552 0.084,0.322 0.044,-0.231 0.042,-0.564 -0.004,-0.741 -0.046,-0.177 -0.083,0.011 -0.08,0.419 m -3.886,0.463 c 0,0.458 0.037,0.646 0.081,0.416 0.044,-0.229 0.044,-0.604 0,-0.833 -0.044,-0.229 -0.081,-0.042 -0.081,0.417 m 2.771,0.37 c 0,0.357 0.038,0.502 0.084,0.324 0.047,-0.178 0.047,-0.47 0,-0.648 -0.046,-0.178 -0.084,-0.032 -0.084,0.324 m -2.37,0.602 -0.544,0.602 0.602,-0.544 c 0.561,-0.507 0.687,-0.66 0.544,-0.66 -0.032,0 -0.303,0.271 -0.602,0.602 m -40.947,0.203 c -0.493,0.334 -0.652,0.639 -0.984,1.88 -0.715,2.68 -1.714,6.106 -1.865,6.399 -0.631,1.227 0.411,0.49 3.336,-2.36 l 3.197,-3.113 -1.432,-1.62 c -0.787,-0.891 -1.484,-1.613 -1.548,-1.603 -0.063,0.01 -0.38,0.197 -0.704,0.417 m 43.687,0.126 c -0.332,0.303 -0.535,0.551 -0.451,0.551 0.085,0 0.393,-0.25 0.686,-0.556 0.681,-0.71 0.549,-0.707 -0.235,0.005 m -52.62,0.436 -0.447,0.578 0.53,-0.504 c 0.292,-0.277 0.493,-0.537 0.447,-0.578 -0.045,-0.04 -0.284,0.187 -0.53,0.504 m 0.49,0.168 c -2.164,2.703 -2.131,2.306 -0.32,3.841 0.764,0.647 2.317,1.994 3.451,2.993 2.482,2.187 2.452,2.18 1.567,0.35 -0.39,-0.806 -1.105,-2.632 -1.588,-4.058 l -0.88,-2.593 -0.922,-0.479 c -1.085,-0.562 -0.907,-0.555 -1.308,-0.054 m 49.572,2.789 c -0.053,0.137 -0.07,0.825 -0.038,1.528 l 0.058,1.278 0.09,-1.528 c 0.09,-1.526 0.071,-1.749 -0.11,-1.278 m -4.092,3.454 c 0,0.662 0.033,0.933 0.074,0.602 0.041,-0.331 0.041,-0.873 0,-1.204 -0.041,-0.331 -0.074,-0.06 -0.074,0.602 m 6.92,-0.55 c 0.121,0.156 0.252,0.739 0.29,1.296 l 0.069,1.013 0.035,-1.042 c 0.026,-0.8 -0.041,-1.101 -0.29,-1.296 -0.284,-0.223 -0.297,-0.219 -0.104,0.029 m -3.379,2.202 c 0.008,1.551 0.065,1.944 0.288,2.004 0.198,0.054 0.214,0.03 0.054,-0.084 -0.142,-0.1 -0.248,-0.839 -0.289,-2.005 l -0.065,-1.845 0.012,1.93 m 3.992,-0.695 c 0,1.382 0.092,1.354 0.254,-0.077 0.075,-0.672 0.051,-1.065 -0.067,-1.065 -0.106,0 -0.187,0.497 -0.187,1.142 m -46.119,0.454 c -0.505,0.524 -0.664,0.773 -0.409,0.642 0.229,-0.118 0.417,-0.295 0.417,-0.393 0,-0.098 0.062,-0.158 0.139,-0.132 0.076,0.025 0.139,-0.008 0.139,-0.073 0,-0.066 0.158,-0.295 0.352,-0.51 0.672,-0.742 0.184,-0.386 -0.638,0.466 m -12.519,2.2 c 0,0.917 0.031,1.315 0.07,0.885 0.038,-0.43 0.039,-1.18 10e-4,-1.666 -0.039,-0.487 -0.07,-0.136 -0.071,0.781 m 4.795,-0.891 c 0.179,0.047 0.47,0.047 0.649,0 0.178,-0.046 0.032,-0.085 -0.324,-0.085 -0.357,0 -0.503,0.039 -0.325,0.085 m 24.723,0.188 c 0.229,0.044 0.604,0.044 0.833,0 0.229,-0.044 0.042,-0.08 -0.417,-0.08 -0.458,0 -0.645,0.036 -0.416,0.08 m -13.287,0.24 -2.315,0.11 2.257,0.038 c 1.348,0.022 2.304,-0.037 2.372,-0.148 0.063,-0.102 0.089,-0.168 0.058,-0.148 -0.032,0.021 -1.099,0.087 -2.372,0.148 m -4.565,2.593 c 0,0.865 0.032,1.22 0.071,0.787 0.039,-0.433 0.039,-1.142 0,-1.574 -0.039,-0.433 -0.071,-0.079 -0.071,0.787 m 21.83,3.889 c 0,0.356 0.038,0.502 0.085,0.324 0.046,-0.179 0.046,-0.47 0,-0.649 -0.047,-0.178 -0.085,-0.032 -0.085,0.325 m 8.557,4.355 -1.493,1.746 2.234,2.296 c 2.847,2.928 3.456,3.393 3.848,2.945 0.616,-0.702 2.922,-4.3 2.922,-4.558 0,-0.466 -2.428,-2.494 -3.889,-3.248 -2.154,-1.11 -1.93,-1.161 -3.622,0.819 m -3.334,3.654 -0.544,0.602 0.602,-0.544 c 0.331,-0.299 0.602,-0.57 0.602,-0.602 0,-0.143 -0.153,-0.017 -0.66,0.544 m -28.393,0.833 c -0.012,0.637 0.042,1.158 0.119,1.158 0.077,0 0.115,-0.396 0.083,-0.88 -0.09,-1.407 -0.179,-1.529 -0.202,-0.278 m -3.077,2.134 c -1.629,0.307 -2.978,0.569 -2.997,0.581 -0.089,0.059 -1.172,10.538 -1.097,10.614 0.119,0.119 4.668,-1.159 6.548,-1.839 1.535,-0.555 1.537,-0.557 1.438,-1.139 -0.226,-1.329 -0.466,-4.794 -0.466,-6.74 0,-1.555 -0.059,-2.077 -0.231,-2.06 -0.128,0.013 -1.565,0.275 -3.195,0.583 m -29.309,0.505 c 0,0.356 0.038,0.502 0.085,0.324 0.047,-0.178 0.047,-0.47 0,-0.648 -0.047,-0.178 -0.085,-0.032 -0.085,0.324 m 33.161,2.963 c 0,0.56 0.035,0.789 0.077,0.509 0.043,-0.28 0.043,-0.738 0,-1.018 -0.042,-0.28 -0.077,-0.051 -0.077,0.509 m 14.263,2.222 c 0,0.662 0.034,0.933 0.075,0.602 0.041,-0.331 0.041,-0.873 0,-1.204 -0.041,-0.331 -0.075,-0.06 -0.075,0.602 m -0.189,4.259 c 0,0.561 0.035,0.79 0.077,0.51 0.043,-0.28 0.043,-0.739 0,-1.019 -0.042,-0.28 -0.077,-0.051 -0.077,0.509 m -38.713,3.276 c 0.178,0.047 0.47,0.047 0.648,0 0.179,-0.046 0.033,-0.084 -0.324,-0.084 -0.356,0 -0.502,0.038 -0.324,0.084 m 38.726,1.724 c 0,1.07 0.031,1.507 0.068,0.973 0.037,-0.535 0.037,-1.41 0,-1.945 -0.037,-0.535 -0.068,-0.097 -0.068,0.972 m -23.38,-1.313 c -0.157,0.099 0.095,0.125 0.648,0.065 0.497,-0.053 0.939,-0.128 0.981,-0.165 0.168,-0.148 -1.389,-0.052 -1.629,0.1 m 7.805,0.335 c 0.281,0.043 0.698,0.042 0.926,-0.002 0.227,-0.044 -0.003,-0.079 -0.512,-0.078 -0.509,0.002 -0.696,0.038 -0.414,0.08 m 10.641,0.371 c 0.329,0.041 0.912,0.042 1.297,0.002 0.384,-0.04 0.115,-0.074 -0.598,-0.075 -0.713,0 -1.027,0.032 -0.699,0.073 m -12.77,0.186 c 0.333,0.041 0.833,0.04 1.111,-0.002 0.278,-0.042 0.006,-0.076 -0.605,-0.075 -0.611,0.001 -0.839,0.036 -0.506,0.077 m 19.904,46.625 c 0.002,0.408 0.04,0.552 0.085,0.322 0.044,-0.23 0.042,-0.564 -0.004,-0.741 -0.046,-0.177 -0.083,0.012 -0.081,0.419 m -18.707,0.278 c 0,0.356 0.038,0.502 0.085,0.324 0.046,-0.178 0.046,-0.47 0,-0.648 -0.047,-0.178 -0.085,-0.033 -0.085,0.324 m 24.815,1.296 c 0,0.357 0.038,0.503 0.085,0.324 0.046,-0.178 0.046,-0.47 0,-0.648 -0.047,-0.178 -0.085,-0.032 -0.085,0.324 m -6.478,0.834 c 0.002,0.407 0.04,0.552 0.084,0.321 0.045,-0.23 0.043,-0.563 -0.003,-0.74 -0.047,-0.177 -0.083,0.011 -0.081,0.419 m 0.559,1.574 c 0,0.458 0.036,0.645 0.081,0.416 0.044,-0.229 0.044,-0.604 0,-0.833 -0.045,-0.229 -0.081,-0.042 -0.081,0.417 m -6.849,1.944 c 10e-4,0.509 0.037,0.696 0.08,0.414 0.043,-0.281 0.041,-0.698 -0.003,-0.926 -0.044,-0.227 -0.078,0.003 -0.077,0.512 m -39.683,1.019 c 0,0.407 0.065,0.74 0.144,0.74 0.079,0 0.112,-0.333 0.073,-0.74 -0.038,-0.408 -0.103,-0.741 -0.143,-0.741 -0.041,0 -0.074,0.333 -0.074,0.741 m 46.195,1.571 c 0.008,1.672 0.059,2.039 0.287,2.055 0.153,0.011 0.176,-0.014 0.052,-0.056 -0.153,-0.052 -0.245,-0.713 -0.287,-2.055 l -0.061,-1.978 0.009,2.034 m -20.824,5.014 c 0.661,0.146 1.852,0.172 1.852,0.04 0,-0.079 -0.479,-0.134 -1.065,-0.122 -0.586,0.011 -0.94,0.049 -0.787,0.082 m 6.709,3.229 c 0,0.357 0.039,0.503 0.085,0.324 0.047,-0.178 0.047,-0.469 0,-0.648 -0.046,-0.178 -0.085,-0.032 -0.085,0.324 m 0,5.371 c 0,0.356 0.039,0.502 0.085,0.324 0.047,-0.178 0.047,-0.47 0,-0.648 -0.046,-0.179 -0.085,-0.033 -0.085,0.324 m 2.364,52.951 c -1.143,0.347 -2.886,1.678 -2.199,1.678 0.15,0 1.018,0.378 1.93,0.838 1.721,0.87 1.77,0.876 2.899,0.388 0.452,-0.196 0.725,-0.231 0.803,-0.104 0.067,0.108 -0.212,0.322 -0.638,0.489 -0.976,0.383 -0.958,0.475 0.258,1.282 0.887,0.589 1.08,0.65 1.528,0.482 0.282,-0.105 0.671,-0.244 0.865,-0.307 0.303,-0.099 0.199,-0.264 -0.744,-1.175 -1.511,-1.459 -2.849,-3.075 -2.849,-3.44 0,-0.333 -0.967,-0.401 -1.853,-0.131 m -29.914,1.746 c -0.514,0.239 -1.156,0.718 -1.429,1.063 -0.272,0.346 -0.61,0.762 -0.752,0.926 -0.228,0.263 -0.141,0.366 0.752,0.9 l 1.009,0.604 1.477,-0.693 c 1.071,-0.503 1.532,-0.638 1.68,-0.49 0.147,0.147 0.105,0.238 -0.152,0.332 -2.618,0.951 -2.684,1.094 -0.978,2.107 l 1.321,0.785 1.151,-0.614 1.15,-0.615 -0.787,-0.822 c -0.434,-0.452 -1.15,-1.308 -1.593,-1.901 -0.442,-0.594 -0.907,-1.082 -1.032,-1.087 -0.126,-0.004 -0.281,-0.215 -0.345,-0.47 -0.143,-0.57 -0.296,-0.572 -1.472,-0.025 m 24.547,0.174 c -1.162,0.398 -1.606,3.208 -1.226,7.753 l 0.165,1.975 2.057,0.381 c 1.131,0.21 2.515,0.43 3.076,0.489 0.56,0.06 1.199,0.145 1.421,0.19 0.249,0.051 0.611,-0.094 0.952,-0.381 0.73,-0.614 0.955,-0.587 1.711,0.207 0.938,0.985 1.29,1.085 7.369,2.103 7.206,1.205 8.047,1.197 9.444,-0.092 1.043,-0.963 1.001,-1.004 -3.583,-3.467 -1.527,-0.82 -3.797,-2.104 -5.044,-2.853 -2.431,-1.46 -2.494,-1.482 -3.196,-1.09 l -0.463,0.259 0.879,0.392 c 0.656,0.292 1.055,0.358 1.574,0.261 0.632,-0.119 0.672,-0.103 0.441,0.176 -0.372,0.45 -1.481,0.382 -2.539,-0.155 -0.501,-0.254 -0.924,-0.462 -0.94,-0.463 -0.015,0 -0.388,0.299 -0.827,0.666 -0.542,0.453 -0.824,0.59 -0.878,0.426 -0.045,-0.133 0.227,-0.507 0.603,-0.832 l 0.683,-0.59 -0.98,-0.622 c -0.538,-0.343 -1.075,-0.685 -1.192,-0.76 -0.12,-0.078 -0.62,0.143 -1.148,0.506 -0.515,0.354 -0.979,0.574 -1.032,0.488 -0.112,-0.18 0.53,-0.802 1.167,-1.131 l 0.442,-0.228 -0.534,-0.433 c -1.291,-1.047 -1.635,-1.132 -2.359,-0.579 -0.807,0.615 -1.073,0.337 -0.3,-0.313 l 0.561,-0.472 -0.422,-0.276 c -2,-1.306 -4.583,-1.979 -5.882,-1.535 m -32.168,0.646 c -0.443,0.281 -1.229,9.088 -0.891,9.983 0.008,0.021 1.428,0.351 3.156,0.734 3.125,0.692 3.889,0.771 5.042,0.521 0.533,-0.116 0.698,-0.045 1.403,0.605 1.106,1.02 3.518,1.738 9.104,2.712 5.002,0.872 6.53,0.821 7.685,-0.258 1.039,-0.97 0.773,-1.67 -1.019,-2.682 -0.509,-0.288 -2.642,-1.706 -4.74,-3.152 l -3.814,-2.629 -0.954,0.356 c -0.525,0.196 -0.955,0.422 -0.955,0.503 0,0.326 1.787,0.815 2.913,0.798 1.263,-0.019 1.558,0.234 0.504,0.432 -0.841,0.158 -1.977,-0.026 -3.024,-0.489 l -0.827,-0.366 -0.503,0.482 c -0.598,0.572 -0.879,0.321 -0.368,-0.329 l 0.356,-0.453 -1.201,-0.703 -1.202,-0.703 -0.419,0.394 c -0.756,0.71 -1.157,0.457 -0.456,-0.288 0.221,-0.236 0.367,-0.458 0.324,-0.494 -0.043,-0.036 -0.686,-0.423 -1.428,-0.859 l -1.35,-0.794 -0.421,0.396 c -0.678,0.637 -1.001,0.321 -0.377,-0.368 0.654,-0.723 -5.616,-3.934 -6.538,-3.349 m 42.761,2.678 c -0.782,0.251 -0.71,0.409 0.532,1.181 1.015,0.629 1.029,0.632 1.727,0.341 l 0.703,-0.294 -0.979,-0.73 c -1.053,-0.786 -1.07,-0.79 -1.983,-0.498 m -30.821,1.744 c -1.027,0.572 -1.019,0.601 0.424,1.414 l 1.112,0.626 0.857,-0.433 c 0.471,-0.239 0.886,-0.464 0.923,-0.501 0.118,-0.117 -1.91,-1.601 -2.182,-1.596 -0.143,0.002 -0.653,0.223 -1.134,0.49" />
      </g>
   </g>
</svg>
